M48
; DRILL file {KiCad 5.1.4} date sam. 23 nov. 2019 01:56:36 CET
; FORMAT={-:-/ absolute / inch / decimal}
; #@! TF.CreationDate,2019-11-23T01:56:36+01:00
; #@! TF.GenerationSoftware,Kicad,Pcbnew,5.1.4
; #@! TF.FileFunction,Plated,1,2,PTH
FMAT,2
INCH
T1C0.0157
T2C0.0236
T3C0.0394
T4C0.0512
%
G90
G05
T1
X2.0238Y-4.4762
X2.025Y-3.9
X2.03Y-4.05
X2.075Y-4.425
X2.113Y-4.125
X2.1313Y-3.9774
X2.15Y-4.425
X2.175Y-4.5693
X2.1989Y-4.3778
X2.225Y-3.9
X2.225Y-4.425
X2.225Y-4.5693
X2.2278Y-4.0278
X2.3Y-4.5
X2.38Y-4.42
X2.42Y-3.99
X2.45Y-4.06
X2.506Y-4.0085
X2.538Y-4.33
X2.6493Y-4.1467
X2.6493Y-4.27
X2.7031Y-4.575
X2.7144Y-4.0102
X2.732Y-4.6018
X2.76Y-4.54
X2.84Y-4.16
X2.99Y-4.59
X3.0Y-4.03
T2
X2.2498Y-4.1244
X2.2498Y-4.1953
X2.2498Y-4.2661
X2.3207Y-4.1244
X2.3207Y-4.2661
X2.3915Y-4.1244
X2.3915Y-4.1953
X2.3915Y-4.2661
T3
X2.84Y-3.93
X2.84Y-4.03
X3.0Y-3.93
X3.0Y-4.03
X3.0Y-4.13
X3.0Y-4.23
X3.0Y-4.33
X3.0Y-4.43
X2.84Y-4.45
X2.84Y-4.55
T4
X2.3207Y-4.1953
T0
M30
