G04 #@! TF.GenerationSoftware,KiCad,Pcbnew,5.1.4*
G04 #@! TF.CreationDate,2019-11-18T21:05:01+01:00*
G04 #@! TF.ProjectId,antivol,616e7469-766f-46c2-9e6b-696361645f70,rev?*
G04 #@! TF.SameCoordinates,Original*
G04 #@! TF.FileFunction,Legend,Top*
G04 #@! TF.FilePolarity,Positive*
%FSLAX46Y46*%
G04 Gerber Fmt 4.6, Leading zero omitted, Abs format (unit mm)*
G04 Created by KiCad (PCBNEW 5.1.4) date 2019-11-18 21:05:01*
%MOMM*%
%LPD*%
G04 APERTURE LIST*
%ADD10C,0.120000*%
%ADD11C,0.150000*%
G04 APERTURE END LIST*
D10*
X71060000Y-101540000D02*
X72390000Y-101540000D01*
X71060000Y-102870000D02*
X71060000Y-101540000D01*
X73660000Y-101540000D02*
X76260000Y-101540000D01*
X73660000Y-104140000D02*
X73660000Y-101540000D01*
X71060000Y-104140000D02*
X73660000Y-104140000D01*
X76260000Y-101540000D02*
X76260000Y-111820000D01*
X71060000Y-104140000D02*
X71060000Y-111820000D01*
X71060000Y-111820000D02*
X76260000Y-111820000D01*
X57130000Y-108240000D02*
X57130000Y-110690000D01*
X60350000Y-110040000D02*
X60350000Y-108240000D01*
D11*
X51190000Y-111370000D02*
X51715000Y-111370000D01*
X51190000Y-107070000D02*
X51715000Y-107070000D01*
X55490000Y-107070000D02*
X54965000Y-107070000D01*
X55490000Y-111370000D02*
X54965000Y-111370000D01*
X51190000Y-107070000D02*
X51190000Y-107595000D01*
X55490000Y-107070000D02*
X55490000Y-107595000D01*
X51190000Y-111370000D02*
X51190000Y-110845000D01*
D10*
X58831267Y-104900000D02*
X58488733Y-104900000D01*
X58831267Y-105920000D02*
X58488733Y-105920000D01*
X58831267Y-102995000D02*
X58488733Y-102995000D01*
X58831267Y-104015000D02*
X58488733Y-104015000D01*
X56390000Y-114076267D02*
X56390000Y-113733733D01*
X55370000Y-114076267D02*
X55370000Y-113733733D01*
X53465000Y-113733733D02*
X53465000Y-114076267D01*
X54485000Y-113733733D02*
X54485000Y-114076267D01*
X58488733Y-102110000D02*
X58831267Y-102110000D01*
X58488733Y-101090000D02*
X58831267Y-101090000D01*
X61435000Y-107495000D02*
X62935000Y-107495000D01*
X61435000Y-113195000D02*
X61435000Y-107495000D01*
X62935000Y-113195000D02*
X61435000Y-113195000D01*
X66835000Y-107495000D02*
X65335000Y-107495000D01*
X66835000Y-113195000D02*
X66835000Y-107495000D01*
X65335000Y-113195000D02*
X66835000Y-113195000D01*
X78045000Y-99000000D02*
X79375000Y-99000000D01*
X78045000Y-100330000D02*
X78045000Y-99000000D01*
X78045000Y-101600000D02*
X80705000Y-101600000D01*
X80705000Y-101600000D02*
X80705000Y-114360000D01*
X78045000Y-101600000D02*
X78045000Y-114360000D01*
X78045000Y-114360000D02*
X80705000Y-114360000D01*
X71060000Y-116265000D02*
X71060000Y-114935000D01*
X72390000Y-116265000D02*
X71060000Y-116265000D01*
X73660000Y-116265000D02*
X73660000Y-113605000D01*
X73660000Y-113605000D02*
X76260000Y-113605000D01*
X73660000Y-116265000D02*
X76260000Y-116265000D01*
X76260000Y-116265000D02*
X76260000Y-113605000D01*
X61520000Y-104513748D02*
X61520000Y-105036252D01*
X62940000Y-104513748D02*
X62940000Y-105036252D01*
X58548748Y-113740000D02*
X59071252Y-113740000D01*
X58548748Y-112320000D02*
X59071252Y-112320000D01*
X55120000Y-103916267D02*
X55120000Y-103573733D01*
X54100000Y-103916267D02*
X54100000Y-103573733D01*
X50290000Y-103573733D02*
X50290000Y-103916267D01*
X51310000Y-103573733D02*
X51310000Y-103916267D01*
X52195000Y-103573733D02*
X52195000Y-103916267D01*
X53215000Y-103573733D02*
X53215000Y-103916267D01*
X51560000Y-113733733D02*
X51560000Y-114076267D01*
X52580000Y-113733733D02*
X52580000Y-114076267D01*
D11*
X73326666Y-99992380D02*
X73326666Y-100706666D01*
X73279047Y-100849523D01*
X73183809Y-100944761D01*
X73040952Y-100992380D01*
X72945714Y-100992380D01*
X73707619Y-99992380D02*
X74326666Y-99992380D01*
X73993333Y-100373333D01*
X74136190Y-100373333D01*
X74231428Y-100420952D01*
X74279047Y-100468571D01*
X74326666Y-100563809D01*
X74326666Y-100801904D01*
X74279047Y-100897142D01*
X74231428Y-100944761D01*
X74136190Y-100992380D01*
X73850476Y-100992380D01*
X73755238Y-100944761D01*
X73707619Y-100897142D01*
X55292380Y-109901904D02*
X56101904Y-109901904D01*
X56197142Y-109854285D01*
X56244761Y-109806666D01*
X56292380Y-109711428D01*
X56292380Y-109520952D01*
X56244761Y-109425714D01*
X56197142Y-109378095D01*
X56101904Y-109330476D01*
X55292380Y-109330476D01*
X55292380Y-108949523D02*
X55292380Y-108330476D01*
X55673333Y-108663809D01*
X55673333Y-108520952D01*
X55720952Y-108425714D01*
X55768571Y-108378095D01*
X55863809Y-108330476D01*
X56101904Y-108330476D01*
X56197142Y-108378095D01*
X56244761Y-108425714D01*
X56292380Y-108520952D01*
X56292380Y-108806666D01*
X56244761Y-108901904D01*
X56197142Y-108949523D01*
X52578095Y-112047380D02*
X52578095Y-112856904D01*
X52625714Y-112952142D01*
X52673333Y-112999761D01*
X52768571Y-113047380D01*
X52959047Y-113047380D01*
X53054285Y-112999761D01*
X53101904Y-112952142D01*
X53149523Y-112856904D01*
X53149523Y-112047380D01*
X53578095Y-112142619D02*
X53625714Y-112095000D01*
X53720952Y-112047380D01*
X53959047Y-112047380D01*
X54054285Y-112095000D01*
X54101904Y-112142619D01*
X54149523Y-112237857D01*
X54149523Y-112333095D01*
X54101904Y-112475952D01*
X53530476Y-113047380D01*
X54149523Y-113047380D01*
X58493333Y-107292380D02*
X58160000Y-106816190D01*
X57921904Y-107292380D02*
X57921904Y-106292380D01*
X58302857Y-106292380D01*
X58398095Y-106340000D01*
X58445714Y-106387619D01*
X58493333Y-106482857D01*
X58493333Y-106625714D01*
X58445714Y-106720952D01*
X58398095Y-106768571D01*
X58302857Y-106816190D01*
X57921904Y-106816190D01*
X59398095Y-106292380D02*
X58921904Y-106292380D01*
X58874285Y-106768571D01*
X58921904Y-106720952D01*
X59017142Y-106673333D01*
X59255238Y-106673333D01*
X59350476Y-106720952D01*
X59398095Y-106768571D01*
X59445714Y-106863809D01*
X59445714Y-107101904D01*
X59398095Y-107197142D01*
X59350476Y-107244761D01*
X59255238Y-107292380D01*
X59017142Y-107292380D01*
X58921904Y-107244761D01*
X58874285Y-107197142D01*
X58493333Y-105387380D02*
X58160000Y-104911190D01*
X57921904Y-105387380D02*
X57921904Y-104387380D01*
X58302857Y-104387380D01*
X58398095Y-104435000D01*
X58445714Y-104482619D01*
X58493333Y-104577857D01*
X58493333Y-104720714D01*
X58445714Y-104815952D01*
X58398095Y-104863571D01*
X58302857Y-104911190D01*
X57921904Y-104911190D01*
X59350476Y-104720714D02*
X59350476Y-105387380D01*
X59112380Y-104339761D02*
X58874285Y-105054047D01*
X59493333Y-105054047D01*
X54902380Y-114071666D02*
X54426190Y-114405000D01*
X54902380Y-114643095D02*
X53902380Y-114643095D01*
X53902380Y-114262142D01*
X53950000Y-114166904D01*
X53997619Y-114119285D01*
X54092857Y-114071666D01*
X54235714Y-114071666D01*
X54330952Y-114119285D01*
X54378571Y-114166904D01*
X54426190Y-114262142D01*
X54426190Y-114643095D01*
X53902380Y-113738333D02*
X53902380Y-113119285D01*
X54283333Y-113452619D01*
X54283333Y-113309761D01*
X54330952Y-113214523D01*
X54378571Y-113166904D01*
X54473809Y-113119285D01*
X54711904Y-113119285D01*
X54807142Y-113166904D01*
X54854761Y-113214523D01*
X54902380Y-113309761D01*
X54902380Y-113595476D01*
X54854761Y-113690714D01*
X54807142Y-113738333D01*
X55857380Y-114071666D02*
X55381190Y-114405000D01*
X55857380Y-114643095D02*
X54857380Y-114643095D01*
X54857380Y-114262142D01*
X54905000Y-114166904D01*
X54952619Y-114119285D01*
X55047857Y-114071666D01*
X55190714Y-114071666D01*
X55285952Y-114119285D01*
X55333571Y-114166904D01*
X55381190Y-114262142D01*
X55381190Y-114643095D01*
X54952619Y-113690714D02*
X54905000Y-113643095D01*
X54857380Y-113547857D01*
X54857380Y-113309761D01*
X54905000Y-113214523D01*
X54952619Y-113166904D01*
X55047857Y-113119285D01*
X55143095Y-113119285D01*
X55285952Y-113166904D01*
X55857380Y-113738333D01*
X55857380Y-113119285D01*
X58493333Y-100622380D02*
X58160000Y-100146190D01*
X57921904Y-100622380D02*
X57921904Y-99622380D01*
X58302857Y-99622380D01*
X58398095Y-99670000D01*
X58445714Y-99717619D01*
X58493333Y-99812857D01*
X58493333Y-99955714D01*
X58445714Y-100050952D01*
X58398095Y-100098571D01*
X58302857Y-100146190D01*
X57921904Y-100146190D01*
X59445714Y-100622380D02*
X58874285Y-100622380D01*
X59160000Y-100622380D02*
X59160000Y-99622380D01*
X59064761Y-99765238D01*
X58969523Y-99860476D01*
X58874285Y-99908095D01*
X60987380Y-110511666D02*
X60987380Y-110987857D01*
X59987380Y-110987857D01*
X60987380Y-109654523D02*
X60987380Y-110225952D01*
X60987380Y-109940238D02*
X59987380Y-109940238D01*
X60130238Y-110035476D01*
X60225476Y-110130714D01*
X60273095Y-110225952D01*
X79041666Y-97452380D02*
X79041666Y-98166666D01*
X78994047Y-98309523D01*
X78898809Y-98404761D01*
X78755952Y-98452380D01*
X78660714Y-98452380D01*
X79470238Y-97547619D02*
X79517857Y-97500000D01*
X79613095Y-97452380D01*
X79851190Y-97452380D01*
X79946428Y-97500000D01*
X79994047Y-97547619D01*
X80041666Y-97642857D01*
X80041666Y-97738095D01*
X79994047Y-97880952D01*
X79422619Y-98452380D01*
X80041666Y-98452380D01*
X69512380Y-115268333D02*
X70226666Y-115268333D01*
X70369523Y-115315952D01*
X70464761Y-115411190D01*
X70512380Y-115554047D01*
X70512380Y-115649285D01*
X70512380Y-114268333D02*
X70512380Y-114839761D01*
X70512380Y-114554047D02*
X69512380Y-114554047D01*
X69655238Y-114649285D01*
X69750476Y-114744523D01*
X69798095Y-114839761D01*
X64237142Y-104941666D02*
X64284761Y-104989285D01*
X64332380Y-105132142D01*
X64332380Y-105227380D01*
X64284761Y-105370238D01*
X64189523Y-105465476D01*
X64094285Y-105513095D01*
X63903809Y-105560714D01*
X63760952Y-105560714D01*
X63570476Y-105513095D01*
X63475238Y-105465476D01*
X63380000Y-105370238D01*
X63332380Y-105227380D01*
X63332380Y-105132142D01*
X63380000Y-104989285D01*
X63427619Y-104941666D01*
X63332380Y-104608333D02*
X63332380Y-103941666D01*
X64332380Y-104370238D01*
X58643333Y-111737142D02*
X58595714Y-111784761D01*
X58452857Y-111832380D01*
X58357619Y-111832380D01*
X58214761Y-111784761D01*
X58119523Y-111689523D01*
X58071904Y-111594285D01*
X58024285Y-111403809D01*
X58024285Y-111260952D01*
X58071904Y-111070476D01*
X58119523Y-110975238D01*
X58214761Y-110880000D01*
X58357619Y-110832380D01*
X58452857Y-110832380D01*
X58595714Y-110880000D01*
X58643333Y-110927619D01*
X59500476Y-110832380D02*
X59310000Y-110832380D01*
X59214761Y-110880000D01*
X59167142Y-110927619D01*
X59071904Y-111070476D01*
X59024285Y-111260952D01*
X59024285Y-111641904D01*
X59071904Y-111737142D01*
X59119523Y-111784761D01*
X59214761Y-111832380D01*
X59405238Y-111832380D01*
X59500476Y-111784761D01*
X59548095Y-111737142D01*
X59595714Y-111641904D01*
X59595714Y-111403809D01*
X59548095Y-111308571D01*
X59500476Y-111260952D01*
X59405238Y-111213333D01*
X59214761Y-111213333D01*
X59119523Y-111260952D01*
X59071904Y-111308571D01*
X59024285Y-111403809D01*
X53537142Y-103911666D02*
X53584761Y-103959285D01*
X53632380Y-104102142D01*
X53632380Y-104197380D01*
X53584761Y-104340238D01*
X53489523Y-104435476D01*
X53394285Y-104483095D01*
X53203809Y-104530714D01*
X53060952Y-104530714D01*
X52870476Y-104483095D01*
X52775238Y-104435476D01*
X52680000Y-104340238D01*
X52632380Y-104197380D01*
X52632380Y-104102142D01*
X52680000Y-103959285D01*
X52727619Y-103911666D01*
X52965714Y-103054523D02*
X53632380Y-103054523D01*
X52584761Y-103292619D02*
X53299047Y-103530714D01*
X53299047Y-102911666D01*
X52587142Y-103911666D02*
X52634761Y-103959285D01*
X52682380Y-104102142D01*
X52682380Y-104197380D01*
X52634761Y-104340238D01*
X52539523Y-104435476D01*
X52444285Y-104483095D01*
X52253809Y-104530714D01*
X52110952Y-104530714D01*
X51920476Y-104483095D01*
X51825238Y-104435476D01*
X51730000Y-104340238D01*
X51682380Y-104197380D01*
X51682380Y-104102142D01*
X51730000Y-103959285D01*
X51777619Y-103911666D01*
X51682380Y-103578333D02*
X51682380Y-102959285D01*
X52063333Y-103292619D01*
X52063333Y-103149761D01*
X52110952Y-103054523D01*
X52158571Y-103006904D01*
X52253809Y-102959285D01*
X52491904Y-102959285D01*
X52587142Y-103006904D01*
X52634761Y-103054523D01*
X52682380Y-103149761D01*
X52682380Y-103435476D01*
X52634761Y-103530714D01*
X52587142Y-103578333D01*
X54492142Y-103911666D02*
X54539761Y-103959285D01*
X54587380Y-104102142D01*
X54587380Y-104197380D01*
X54539761Y-104340238D01*
X54444523Y-104435476D01*
X54349285Y-104483095D01*
X54158809Y-104530714D01*
X54015952Y-104530714D01*
X53825476Y-104483095D01*
X53730238Y-104435476D01*
X53635000Y-104340238D01*
X53587380Y-104197380D01*
X53587380Y-104102142D01*
X53635000Y-103959285D01*
X53682619Y-103911666D01*
X53682619Y-103530714D02*
X53635000Y-103483095D01*
X53587380Y-103387857D01*
X53587380Y-103149761D01*
X53635000Y-103054523D01*
X53682619Y-103006904D01*
X53777857Y-102959285D01*
X53873095Y-102959285D01*
X54015952Y-103006904D01*
X54587380Y-103578333D01*
X54587380Y-102959285D01*
X53857142Y-114071666D02*
X53904761Y-114119285D01*
X53952380Y-114262142D01*
X53952380Y-114357380D01*
X53904761Y-114500238D01*
X53809523Y-114595476D01*
X53714285Y-114643095D01*
X53523809Y-114690714D01*
X53380952Y-114690714D01*
X53190476Y-114643095D01*
X53095238Y-114595476D01*
X53000000Y-114500238D01*
X52952380Y-114357380D01*
X52952380Y-114262142D01*
X53000000Y-114119285D01*
X53047619Y-114071666D01*
X53952380Y-113119285D02*
X53952380Y-113690714D01*
X53952380Y-113405000D02*
X52952380Y-113405000D01*
X53095238Y-113500238D01*
X53190476Y-113595476D01*
X53238095Y-113690714D01*
M02*
