G04 #@! TF.GenerationSoftware,KiCad,Pcbnew,5.1.4*
G04 #@! TF.CreationDate,2019-11-23T01:56:27+01:00*
G04 #@! TF.ProjectId,antivol,616e7469-766f-46c2-9e6b-696361645f70,rev?*
G04 #@! TF.SameCoordinates,Original*
G04 #@! TF.FileFunction,Paste,Top*
G04 #@! TF.FilePolarity,Positive*
%FSLAX46Y46*%
G04 Gerber Fmt 4.6, Leading zero omitted, Abs format (unit mm)*
G04 Created by KiCad (PCBNEW 5.1.4) date 2019-11-23 01:56:27*
%MOMM*%
%LPD*%
G04 APERTURE LIST*
%ADD10C,0.100000*%
%ADD11C,0.875000*%
%ADD12R,0.900000X0.800000*%
%ADD13C,1.125000*%
%ADD14R,1.060000X0.650000*%
%ADD15R,1.800000X2.500000*%
%ADD16C,0.975000*%
%ADD17R,0.350000X0.375000*%
%ADD18R,0.375000X0.350000*%
G04 APERTURE END LIST*
D10*
G36*
X52093691Y-98826553D02*
G01*
X52114926Y-98829703D01*
X52135750Y-98834919D01*
X52155962Y-98842151D01*
X52175368Y-98851330D01*
X52193781Y-98862366D01*
X52211024Y-98875154D01*
X52226930Y-98889570D01*
X52241346Y-98905476D01*
X52254134Y-98922719D01*
X52265170Y-98941132D01*
X52274349Y-98960538D01*
X52281581Y-98980750D01*
X52286797Y-99001574D01*
X52289947Y-99022809D01*
X52291000Y-99044250D01*
X52291000Y-99481750D01*
X52289947Y-99503191D01*
X52286797Y-99524426D01*
X52281581Y-99545250D01*
X52274349Y-99565462D01*
X52265170Y-99584868D01*
X52254134Y-99603281D01*
X52241346Y-99620524D01*
X52226930Y-99636430D01*
X52211024Y-99650846D01*
X52193781Y-99663634D01*
X52175368Y-99674670D01*
X52155962Y-99683849D01*
X52135750Y-99691081D01*
X52114926Y-99696297D01*
X52093691Y-99699447D01*
X52072250Y-99700500D01*
X51559750Y-99700500D01*
X51538309Y-99699447D01*
X51517074Y-99696297D01*
X51496250Y-99691081D01*
X51476038Y-99683849D01*
X51456632Y-99674670D01*
X51438219Y-99663634D01*
X51420976Y-99650846D01*
X51405070Y-99636430D01*
X51390654Y-99620524D01*
X51377866Y-99603281D01*
X51366830Y-99584868D01*
X51357651Y-99565462D01*
X51350419Y-99545250D01*
X51345203Y-99524426D01*
X51342053Y-99503191D01*
X51341000Y-99481750D01*
X51341000Y-99044250D01*
X51342053Y-99022809D01*
X51345203Y-99001574D01*
X51350419Y-98980750D01*
X51357651Y-98960538D01*
X51366830Y-98941132D01*
X51377866Y-98922719D01*
X51390654Y-98905476D01*
X51405070Y-98889570D01*
X51420976Y-98875154D01*
X51438219Y-98862366D01*
X51456632Y-98851330D01*
X51476038Y-98842151D01*
X51496250Y-98834919D01*
X51517074Y-98829703D01*
X51538309Y-98826553D01*
X51559750Y-98825500D01*
X52072250Y-98825500D01*
X52093691Y-98826553D01*
X52093691Y-98826553D01*
G37*
D11*
X51816000Y-99263000D03*
D10*
G36*
X52093691Y-100401553D02*
G01*
X52114926Y-100404703D01*
X52135750Y-100409919D01*
X52155962Y-100417151D01*
X52175368Y-100426330D01*
X52193781Y-100437366D01*
X52211024Y-100450154D01*
X52226930Y-100464570D01*
X52241346Y-100480476D01*
X52254134Y-100497719D01*
X52265170Y-100516132D01*
X52274349Y-100535538D01*
X52281581Y-100555750D01*
X52286797Y-100576574D01*
X52289947Y-100597809D01*
X52291000Y-100619250D01*
X52291000Y-101056750D01*
X52289947Y-101078191D01*
X52286797Y-101099426D01*
X52281581Y-101120250D01*
X52274349Y-101140462D01*
X52265170Y-101159868D01*
X52254134Y-101178281D01*
X52241346Y-101195524D01*
X52226930Y-101211430D01*
X52211024Y-101225846D01*
X52193781Y-101238634D01*
X52175368Y-101249670D01*
X52155962Y-101258849D01*
X52135750Y-101266081D01*
X52114926Y-101271297D01*
X52093691Y-101274447D01*
X52072250Y-101275500D01*
X51559750Y-101275500D01*
X51538309Y-101274447D01*
X51517074Y-101271297D01*
X51496250Y-101266081D01*
X51476038Y-101258849D01*
X51456632Y-101249670D01*
X51438219Y-101238634D01*
X51420976Y-101225846D01*
X51405070Y-101211430D01*
X51390654Y-101195524D01*
X51377866Y-101178281D01*
X51366830Y-101159868D01*
X51357651Y-101140462D01*
X51350419Y-101120250D01*
X51345203Y-101099426D01*
X51342053Y-101078191D01*
X51341000Y-101056750D01*
X51341000Y-100619250D01*
X51342053Y-100597809D01*
X51345203Y-100576574D01*
X51350419Y-100555750D01*
X51357651Y-100535538D01*
X51366830Y-100516132D01*
X51377866Y-100497719D01*
X51390654Y-100480476D01*
X51405070Y-100464570D01*
X51420976Y-100450154D01*
X51438219Y-100437366D01*
X51456632Y-100426330D01*
X51476038Y-100417151D01*
X51496250Y-100409919D01*
X51517074Y-100404703D01*
X51538309Y-100401553D01*
X51559750Y-100400500D01*
X52072250Y-100400500D01*
X52093691Y-100401553D01*
X52093691Y-100401553D01*
G37*
D11*
X51816000Y-100838000D03*
D10*
G36*
X58443691Y-100147553D02*
G01*
X58464926Y-100150703D01*
X58485750Y-100155919D01*
X58505962Y-100163151D01*
X58525368Y-100172330D01*
X58543781Y-100183366D01*
X58561024Y-100196154D01*
X58576930Y-100210570D01*
X58591346Y-100226476D01*
X58604134Y-100243719D01*
X58615170Y-100262132D01*
X58624349Y-100281538D01*
X58631581Y-100301750D01*
X58636797Y-100322574D01*
X58639947Y-100343809D01*
X58641000Y-100365250D01*
X58641000Y-100802750D01*
X58639947Y-100824191D01*
X58636797Y-100845426D01*
X58631581Y-100866250D01*
X58624349Y-100886462D01*
X58615170Y-100905868D01*
X58604134Y-100924281D01*
X58591346Y-100941524D01*
X58576930Y-100957430D01*
X58561024Y-100971846D01*
X58543781Y-100984634D01*
X58525368Y-100995670D01*
X58505962Y-101004849D01*
X58485750Y-101012081D01*
X58464926Y-101017297D01*
X58443691Y-101020447D01*
X58422250Y-101021500D01*
X57909750Y-101021500D01*
X57888309Y-101020447D01*
X57867074Y-101017297D01*
X57846250Y-101012081D01*
X57826038Y-101004849D01*
X57806632Y-100995670D01*
X57788219Y-100984634D01*
X57770976Y-100971846D01*
X57755070Y-100957430D01*
X57740654Y-100941524D01*
X57727866Y-100924281D01*
X57716830Y-100905868D01*
X57707651Y-100886462D01*
X57700419Y-100866250D01*
X57695203Y-100845426D01*
X57692053Y-100824191D01*
X57691000Y-100802750D01*
X57691000Y-100365250D01*
X57692053Y-100343809D01*
X57695203Y-100322574D01*
X57700419Y-100301750D01*
X57707651Y-100281538D01*
X57716830Y-100262132D01*
X57727866Y-100243719D01*
X57740654Y-100226476D01*
X57755070Y-100210570D01*
X57770976Y-100196154D01*
X57788219Y-100183366D01*
X57806632Y-100172330D01*
X57826038Y-100163151D01*
X57846250Y-100155919D01*
X57867074Y-100150703D01*
X57888309Y-100147553D01*
X57909750Y-100146500D01*
X58422250Y-100146500D01*
X58443691Y-100147553D01*
X58443691Y-100147553D01*
G37*
D11*
X58166000Y-100584000D03*
D10*
G36*
X58443691Y-98572553D02*
G01*
X58464926Y-98575703D01*
X58485750Y-98580919D01*
X58505962Y-98588151D01*
X58525368Y-98597330D01*
X58543781Y-98608366D01*
X58561024Y-98621154D01*
X58576930Y-98635570D01*
X58591346Y-98651476D01*
X58604134Y-98668719D01*
X58615170Y-98687132D01*
X58624349Y-98706538D01*
X58631581Y-98726750D01*
X58636797Y-98747574D01*
X58639947Y-98768809D01*
X58641000Y-98790250D01*
X58641000Y-99227750D01*
X58639947Y-99249191D01*
X58636797Y-99270426D01*
X58631581Y-99291250D01*
X58624349Y-99311462D01*
X58615170Y-99330868D01*
X58604134Y-99349281D01*
X58591346Y-99366524D01*
X58576930Y-99382430D01*
X58561024Y-99396846D01*
X58543781Y-99409634D01*
X58525368Y-99420670D01*
X58505962Y-99429849D01*
X58485750Y-99437081D01*
X58464926Y-99442297D01*
X58443691Y-99445447D01*
X58422250Y-99446500D01*
X57909750Y-99446500D01*
X57888309Y-99445447D01*
X57867074Y-99442297D01*
X57846250Y-99437081D01*
X57826038Y-99429849D01*
X57806632Y-99420670D01*
X57788219Y-99409634D01*
X57770976Y-99396846D01*
X57755070Y-99382430D01*
X57740654Y-99366524D01*
X57727866Y-99349281D01*
X57716830Y-99330868D01*
X57707651Y-99311462D01*
X57700419Y-99291250D01*
X57695203Y-99270426D01*
X57692053Y-99249191D01*
X57691000Y-99227750D01*
X57691000Y-98790250D01*
X57692053Y-98768809D01*
X57695203Y-98747574D01*
X57700419Y-98726750D01*
X57707651Y-98706538D01*
X57716830Y-98687132D01*
X57727866Y-98668719D01*
X57740654Y-98651476D01*
X57755070Y-98635570D01*
X57770976Y-98621154D01*
X57788219Y-98608366D01*
X57806632Y-98597330D01*
X57826038Y-98588151D01*
X57846250Y-98580919D01*
X57867074Y-98575703D01*
X57888309Y-98572553D01*
X57909750Y-98571500D01*
X58422250Y-98571500D01*
X58443691Y-98572553D01*
X58443691Y-98572553D01*
G37*
D11*
X58166000Y-99009000D03*
D12*
X56134000Y-100076000D03*
X54134000Y-101026000D03*
X54134000Y-99126000D03*
D10*
G36*
X58546005Y-109553204D02*
G01*
X58570273Y-109556804D01*
X58594072Y-109562765D01*
X58617171Y-109571030D01*
X58639350Y-109581520D01*
X58660393Y-109594132D01*
X58680099Y-109608747D01*
X58698277Y-109625223D01*
X58714753Y-109643401D01*
X58729368Y-109663107D01*
X58741980Y-109684150D01*
X58752470Y-109706329D01*
X58760735Y-109729428D01*
X58766696Y-109753227D01*
X58770296Y-109777495D01*
X58771500Y-109801999D01*
X58771500Y-112702001D01*
X58770296Y-112726505D01*
X58766696Y-112750773D01*
X58760735Y-112774572D01*
X58752470Y-112797671D01*
X58741980Y-112819850D01*
X58729368Y-112840893D01*
X58714753Y-112860599D01*
X58698277Y-112878777D01*
X58680099Y-112895253D01*
X58660393Y-112909868D01*
X58639350Y-112922480D01*
X58617171Y-112932970D01*
X58594072Y-112941235D01*
X58570273Y-112947196D01*
X58546005Y-112950796D01*
X58521501Y-112952000D01*
X57896499Y-112952000D01*
X57871995Y-112950796D01*
X57847727Y-112947196D01*
X57823928Y-112941235D01*
X57800829Y-112932970D01*
X57778650Y-112922480D01*
X57757607Y-112909868D01*
X57737901Y-112895253D01*
X57719723Y-112878777D01*
X57703247Y-112860599D01*
X57688632Y-112840893D01*
X57676020Y-112819850D01*
X57665530Y-112797671D01*
X57657265Y-112774572D01*
X57651304Y-112750773D01*
X57647704Y-112726505D01*
X57646500Y-112702001D01*
X57646500Y-109801999D01*
X57647704Y-109777495D01*
X57651304Y-109753227D01*
X57657265Y-109729428D01*
X57665530Y-109706329D01*
X57676020Y-109684150D01*
X57688632Y-109663107D01*
X57703247Y-109643401D01*
X57719723Y-109625223D01*
X57737901Y-109608747D01*
X57757607Y-109594132D01*
X57778650Y-109581520D01*
X57800829Y-109571030D01*
X57823928Y-109562765D01*
X57847727Y-109556804D01*
X57871995Y-109553204D01*
X57896499Y-109552000D01*
X58521501Y-109552000D01*
X58546005Y-109553204D01*
X58546005Y-109553204D01*
G37*
D13*
X58209000Y-111252000D03*
D10*
G36*
X62821005Y-109553204D02*
G01*
X62845273Y-109556804D01*
X62869072Y-109562765D01*
X62892171Y-109571030D01*
X62914350Y-109581520D01*
X62935393Y-109594132D01*
X62955099Y-109608747D01*
X62973277Y-109625223D01*
X62989753Y-109643401D01*
X63004368Y-109663107D01*
X63016980Y-109684150D01*
X63027470Y-109706329D01*
X63035735Y-109729428D01*
X63041696Y-109753227D01*
X63045296Y-109777495D01*
X63046500Y-109801999D01*
X63046500Y-112702001D01*
X63045296Y-112726505D01*
X63041696Y-112750773D01*
X63035735Y-112774572D01*
X63027470Y-112797671D01*
X63016980Y-112819850D01*
X63004368Y-112840893D01*
X62989753Y-112860599D01*
X62973277Y-112878777D01*
X62955099Y-112895253D01*
X62935393Y-112909868D01*
X62914350Y-112922480D01*
X62892171Y-112932970D01*
X62869072Y-112941235D01*
X62845273Y-112947196D01*
X62821005Y-112950796D01*
X62796501Y-112952000D01*
X62171499Y-112952000D01*
X62146995Y-112950796D01*
X62122727Y-112947196D01*
X62098928Y-112941235D01*
X62075829Y-112932970D01*
X62053650Y-112922480D01*
X62032607Y-112909868D01*
X62012901Y-112895253D01*
X61994723Y-112878777D01*
X61978247Y-112860599D01*
X61963632Y-112840893D01*
X61951020Y-112819850D01*
X61940530Y-112797671D01*
X61932265Y-112774572D01*
X61926304Y-112750773D01*
X61922704Y-112726505D01*
X61921500Y-112702001D01*
X61921500Y-109801999D01*
X61922704Y-109777495D01*
X61926304Y-109753227D01*
X61932265Y-109729428D01*
X61940530Y-109706329D01*
X61951020Y-109684150D01*
X61963632Y-109663107D01*
X61978247Y-109643401D01*
X61994723Y-109625223D01*
X62012901Y-109608747D01*
X62032607Y-109594132D01*
X62053650Y-109581520D01*
X62075829Y-109571030D01*
X62098928Y-109562765D01*
X62122727Y-109556804D01*
X62146995Y-109553204D01*
X62171499Y-109552000D01*
X62796501Y-109552000D01*
X62821005Y-109553204D01*
X62821005Y-109553204D01*
G37*
D13*
X62484000Y-111252000D03*
D10*
G36*
X53910191Y-106206053D02*
G01*
X53931426Y-106209203D01*
X53952250Y-106214419D01*
X53972462Y-106221651D01*
X53991868Y-106230830D01*
X54010281Y-106241866D01*
X54027524Y-106254654D01*
X54043430Y-106269070D01*
X54057846Y-106284976D01*
X54070634Y-106302219D01*
X54081670Y-106320632D01*
X54090849Y-106340038D01*
X54098081Y-106360250D01*
X54103297Y-106381074D01*
X54106447Y-106402309D01*
X54107500Y-106423750D01*
X54107500Y-106936250D01*
X54106447Y-106957691D01*
X54103297Y-106978926D01*
X54098081Y-106999750D01*
X54090849Y-107019962D01*
X54081670Y-107039368D01*
X54070634Y-107057781D01*
X54057846Y-107075024D01*
X54043430Y-107090930D01*
X54027524Y-107105346D01*
X54010281Y-107118134D01*
X53991868Y-107129170D01*
X53972462Y-107138349D01*
X53952250Y-107145581D01*
X53931426Y-107150797D01*
X53910191Y-107153947D01*
X53888750Y-107155000D01*
X53451250Y-107155000D01*
X53429809Y-107153947D01*
X53408574Y-107150797D01*
X53387750Y-107145581D01*
X53367538Y-107138349D01*
X53348132Y-107129170D01*
X53329719Y-107118134D01*
X53312476Y-107105346D01*
X53296570Y-107090930D01*
X53282154Y-107075024D01*
X53269366Y-107057781D01*
X53258330Y-107039368D01*
X53249151Y-107019962D01*
X53241919Y-106999750D01*
X53236703Y-106978926D01*
X53233553Y-106957691D01*
X53232500Y-106936250D01*
X53232500Y-106423750D01*
X53233553Y-106402309D01*
X53236703Y-106381074D01*
X53241919Y-106360250D01*
X53249151Y-106340038D01*
X53258330Y-106320632D01*
X53269366Y-106302219D01*
X53282154Y-106284976D01*
X53296570Y-106269070D01*
X53312476Y-106254654D01*
X53329719Y-106241866D01*
X53348132Y-106230830D01*
X53367538Y-106221651D01*
X53387750Y-106214419D01*
X53408574Y-106209203D01*
X53429809Y-106206053D01*
X53451250Y-106205000D01*
X53888750Y-106205000D01*
X53910191Y-106206053D01*
X53910191Y-106206053D01*
G37*
D11*
X53670000Y-106680000D03*
D10*
G36*
X55485191Y-106206053D02*
G01*
X55506426Y-106209203D01*
X55527250Y-106214419D01*
X55547462Y-106221651D01*
X55566868Y-106230830D01*
X55585281Y-106241866D01*
X55602524Y-106254654D01*
X55618430Y-106269070D01*
X55632846Y-106284976D01*
X55645634Y-106302219D01*
X55656670Y-106320632D01*
X55665849Y-106340038D01*
X55673081Y-106360250D01*
X55678297Y-106381074D01*
X55681447Y-106402309D01*
X55682500Y-106423750D01*
X55682500Y-106936250D01*
X55681447Y-106957691D01*
X55678297Y-106978926D01*
X55673081Y-106999750D01*
X55665849Y-107019962D01*
X55656670Y-107039368D01*
X55645634Y-107057781D01*
X55632846Y-107075024D01*
X55618430Y-107090930D01*
X55602524Y-107105346D01*
X55585281Y-107118134D01*
X55566868Y-107129170D01*
X55547462Y-107138349D01*
X55527250Y-107145581D01*
X55506426Y-107150797D01*
X55485191Y-107153947D01*
X55463750Y-107155000D01*
X55026250Y-107155000D01*
X55004809Y-107153947D01*
X54983574Y-107150797D01*
X54962750Y-107145581D01*
X54942538Y-107138349D01*
X54923132Y-107129170D01*
X54904719Y-107118134D01*
X54887476Y-107105346D01*
X54871570Y-107090930D01*
X54857154Y-107075024D01*
X54844366Y-107057781D01*
X54833330Y-107039368D01*
X54824151Y-107019962D01*
X54816919Y-106999750D01*
X54811703Y-106978926D01*
X54808553Y-106957691D01*
X54807500Y-106936250D01*
X54807500Y-106423750D01*
X54808553Y-106402309D01*
X54811703Y-106381074D01*
X54816919Y-106360250D01*
X54824151Y-106340038D01*
X54833330Y-106320632D01*
X54844366Y-106302219D01*
X54857154Y-106284976D01*
X54871570Y-106269070D01*
X54887476Y-106254654D01*
X54904719Y-106241866D01*
X54923132Y-106230830D01*
X54942538Y-106221651D01*
X54962750Y-106214419D01*
X54983574Y-106209203D01*
X55004809Y-106206053D01*
X55026250Y-106205000D01*
X55463750Y-106205000D01*
X55485191Y-106206053D01*
X55485191Y-106206053D01*
G37*
D11*
X55245000Y-106680000D03*
D10*
G36*
X54887691Y-111958553D02*
G01*
X54908926Y-111961703D01*
X54929750Y-111966919D01*
X54949962Y-111974151D01*
X54969368Y-111983330D01*
X54987781Y-111994366D01*
X55005024Y-112007154D01*
X55020930Y-112021570D01*
X55035346Y-112037476D01*
X55048134Y-112054719D01*
X55059170Y-112073132D01*
X55068349Y-112092538D01*
X55075581Y-112112750D01*
X55080797Y-112133574D01*
X55083947Y-112154809D01*
X55085000Y-112176250D01*
X55085000Y-112613750D01*
X55083947Y-112635191D01*
X55080797Y-112656426D01*
X55075581Y-112677250D01*
X55068349Y-112697462D01*
X55059170Y-112716868D01*
X55048134Y-112735281D01*
X55035346Y-112752524D01*
X55020930Y-112768430D01*
X55005024Y-112782846D01*
X54987781Y-112795634D01*
X54969368Y-112806670D01*
X54949962Y-112815849D01*
X54929750Y-112823081D01*
X54908926Y-112828297D01*
X54887691Y-112831447D01*
X54866250Y-112832500D01*
X54353750Y-112832500D01*
X54332309Y-112831447D01*
X54311074Y-112828297D01*
X54290250Y-112823081D01*
X54270038Y-112815849D01*
X54250632Y-112806670D01*
X54232219Y-112795634D01*
X54214976Y-112782846D01*
X54199070Y-112768430D01*
X54184654Y-112752524D01*
X54171866Y-112735281D01*
X54160830Y-112716868D01*
X54151651Y-112697462D01*
X54144419Y-112677250D01*
X54139203Y-112656426D01*
X54136053Y-112635191D01*
X54135000Y-112613750D01*
X54135000Y-112176250D01*
X54136053Y-112154809D01*
X54139203Y-112133574D01*
X54144419Y-112112750D01*
X54151651Y-112092538D01*
X54160830Y-112073132D01*
X54171866Y-112054719D01*
X54184654Y-112037476D01*
X54199070Y-112021570D01*
X54214976Y-112007154D01*
X54232219Y-111994366D01*
X54250632Y-111983330D01*
X54270038Y-111974151D01*
X54290250Y-111966919D01*
X54311074Y-111961703D01*
X54332309Y-111958553D01*
X54353750Y-111957500D01*
X54866250Y-111957500D01*
X54887691Y-111958553D01*
X54887691Y-111958553D01*
G37*
D11*
X54610000Y-112395000D03*
D10*
G36*
X54887691Y-113533553D02*
G01*
X54908926Y-113536703D01*
X54929750Y-113541919D01*
X54949962Y-113549151D01*
X54969368Y-113558330D01*
X54987781Y-113569366D01*
X55005024Y-113582154D01*
X55020930Y-113596570D01*
X55035346Y-113612476D01*
X55048134Y-113629719D01*
X55059170Y-113648132D01*
X55068349Y-113667538D01*
X55075581Y-113687750D01*
X55080797Y-113708574D01*
X55083947Y-113729809D01*
X55085000Y-113751250D01*
X55085000Y-114188750D01*
X55083947Y-114210191D01*
X55080797Y-114231426D01*
X55075581Y-114252250D01*
X55068349Y-114272462D01*
X55059170Y-114291868D01*
X55048134Y-114310281D01*
X55035346Y-114327524D01*
X55020930Y-114343430D01*
X55005024Y-114357846D01*
X54987781Y-114370634D01*
X54969368Y-114381670D01*
X54949962Y-114390849D01*
X54929750Y-114398081D01*
X54908926Y-114403297D01*
X54887691Y-114406447D01*
X54866250Y-114407500D01*
X54353750Y-114407500D01*
X54332309Y-114406447D01*
X54311074Y-114403297D01*
X54290250Y-114398081D01*
X54270038Y-114390849D01*
X54250632Y-114381670D01*
X54232219Y-114370634D01*
X54214976Y-114357846D01*
X54199070Y-114343430D01*
X54184654Y-114327524D01*
X54171866Y-114310281D01*
X54160830Y-114291868D01*
X54151651Y-114272462D01*
X54144419Y-114252250D01*
X54139203Y-114231426D01*
X54136053Y-114210191D01*
X54135000Y-114188750D01*
X54135000Y-113751250D01*
X54136053Y-113729809D01*
X54139203Y-113708574D01*
X54144419Y-113687750D01*
X54151651Y-113667538D01*
X54160830Y-113648132D01*
X54171866Y-113629719D01*
X54184654Y-113612476D01*
X54199070Y-113596570D01*
X54214976Y-113582154D01*
X54232219Y-113569366D01*
X54250632Y-113558330D01*
X54270038Y-113549151D01*
X54290250Y-113541919D01*
X54311074Y-113536703D01*
X54332309Y-113533553D01*
X54353750Y-113532500D01*
X54866250Y-113532500D01*
X54887691Y-113533553D01*
X54887691Y-113533553D01*
G37*
D11*
X54610000Y-113970000D03*
D12*
X67596000Y-105222000D03*
X69596000Y-104272000D03*
X69596000Y-106172000D03*
D14*
X66716000Y-111638000D03*
X66716000Y-113538000D03*
X64516000Y-113538000D03*
X64516000Y-112588000D03*
X64516000Y-111638000D03*
X66634000Y-100772000D03*
X66634000Y-98872000D03*
X68834000Y-98872000D03*
X68834000Y-99822000D03*
X68834000Y-100772000D03*
D10*
G36*
X66737191Y-101888053D02*
G01*
X66758426Y-101891203D01*
X66779250Y-101896419D01*
X66799462Y-101903651D01*
X66818868Y-101912830D01*
X66837281Y-101923866D01*
X66854524Y-101936654D01*
X66870430Y-101951070D01*
X66884846Y-101966976D01*
X66897634Y-101984219D01*
X66908670Y-102002632D01*
X66917849Y-102022038D01*
X66925081Y-102042250D01*
X66930297Y-102063074D01*
X66933447Y-102084309D01*
X66934500Y-102105750D01*
X66934500Y-102618250D01*
X66933447Y-102639691D01*
X66930297Y-102660926D01*
X66925081Y-102681750D01*
X66917849Y-102701962D01*
X66908670Y-102721368D01*
X66897634Y-102739781D01*
X66884846Y-102757024D01*
X66870430Y-102772930D01*
X66854524Y-102787346D01*
X66837281Y-102800134D01*
X66818868Y-102811170D01*
X66799462Y-102820349D01*
X66779250Y-102827581D01*
X66758426Y-102832797D01*
X66737191Y-102835947D01*
X66715750Y-102837000D01*
X66278250Y-102837000D01*
X66256809Y-102835947D01*
X66235574Y-102832797D01*
X66214750Y-102827581D01*
X66194538Y-102820349D01*
X66175132Y-102811170D01*
X66156719Y-102800134D01*
X66139476Y-102787346D01*
X66123570Y-102772930D01*
X66109154Y-102757024D01*
X66096366Y-102739781D01*
X66085330Y-102721368D01*
X66076151Y-102701962D01*
X66068919Y-102681750D01*
X66063703Y-102660926D01*
X66060553Y-102639691D01*
X66059500Y-102618250D01*
X66059500Y-102105750D01*
X66060553Y-102084309D01*
X66063703Y-102063074D01*
X66068919Y-102042250D01*
X66076151Y-102022038D01*
X66085330Y-102002632D01*
X66096366Y-101984219D01*
X66109154Y-101966976D01*
X66123570Y-101951070D01*
X66139476Y-101936654D01*
X66156719Y-101923866D01*
X66175132Y-101912830D01*
X66194538Y-101903651D01*
X66214750Y-101896419D01*
X66235574Y-101891203D01*
X66256809Y-101888053D01*
X66278250Y-101887000D01*
X66715750Y-101887000D01*
X66737191Y-101888053D01*
X66737191Y-101888053D01*
G37*
D11*
X66497000Y-102362000D03*
D10*
G36*
X68312191Y-101888053D02*
G01*
X68333426Y-101891203D01*
X68354250Y-101896419D01*
X68374462Y-101903651D01*
X68393868Y-101912830D01*
X68412281Y-101923866D01*
X68429524Y-101936654D01*
X68445430Y-101951070D01*
X68459846Y-101966976D01*
X68472634Y-101984219D01*
X68483670Y-102002632D01*
X68492849Y-102022038D01*
X68500081Y-102042250D01*
X68505297Y-102063074D01*
X68508447Y-102084309D01*
X68509500Y-102105750D01*
X68509500Y-102618250D01*
X68508447Y-102639691D01*
X68505297Y-102660926D01*
X68500081Y-102681750D01*
X68492849Y-102701962D01*
X68483670Y-102721368D01*
X68472634Y-102739781D01*
X68459846Y-102757024D01*
X68445430Y-102772930D01*
X68429524Y-102787346D01*
X68412281Y-102800134D01*
X68393868Y-102811170D01*
X68374462Y-102820349D01*
X68354250Y-102827581D01*
X68333426Y-102832797D01*
X68312191Y-102835947D01*
X68290750Y-102837000D01*
X67853250Y-102837000D01*
X67831809Y-102835947D01*
X67810574Y-102832797D01*
X67789750Y-102827581D01*
X67769538Y-102820349D01*
X67750132Y-102811170D01*
X67731719Y-102800134D01*
X67714476Y-102787346D01*
X67698570Y-102772930D01*
X67684154Y-102757024D01*
X67671366Y-102739781D01*
X67660330Y-102721368D01*
X67651151Y-102701962D01*
X67643919Y-102681750D01*
X67638703Y-102660926D01*
X67635553Y-102639691D01*
X67634500Y-102618250D01*
X67634500Y-102105750D01*
X67635553Y-102084309D01*
X67638703Y-102063074D01*
X67643919Y-102042250D01*
X67651151Y-102022038D01*
X67660330Y-102002632D01*
X67671366Y-101984219D01*
X67684154Y-101966976D01*
X67698570Y-101951070D01*
X67714476Y-101936654D01*
X67731719Y-101923866D01*
X67750132Y-101912830D01*
X67769538Y-101903651D01*
X67789750Y-101896419D01*
X67810574Y-101891203D01*
X67831809Y-101888053D01*
X67853250Y-101887000D01*
X68290750Y-101887000D01*
X68312191Y-101888053D01*
X68312191Y-101888053D01*
G37*
D11*
X68072000Y-102362000D03*
D10*
G36*
X60133191Y-98586053D02*
G01*
X60154426Y-98589203D01*
X60175250Y-98594419D01*
X60195462Y-98601651D01*
X60214868Y-98610830D01*
X60233281Y-98621866D01*
X60250524Y-98634654D01*
X60266430Y-98649070D01*
X60280846Y-98664976D01*
X60293634Y-98682219D01*
X60304670Y-98700632D01*
X60313849Y-98720038D01*
X60321081Y-98740250D01*
X60326297Y-98761074D01*
X60329447Y-98782309D01*
X60330500Y-98803750D01*
X60330500Y-99316250D01*
X60329447Y-99337691D01*
X60326297Y-99358926D01*
X60321081Y-99379750D01*
X60313849Y-99399962D01*
X60304670Y-99419368D01*
X60293634Y-99437781D01*
X60280846Y-99455024D01*
X60266430Y-99470930D01*
X60250524Y-99485346D01*
X60233281Y-99498134D01*
X60214868Y-99509170D01*
X60195462Y-99518349D01*
X60175250Y-99525581D01*
X60154426Y-99530797D01*
X60133191Y-99533947D01*
X60111750Y-99535000D01*
X59674250Y-99535000D01*
X59652809Y-99533947D01*
X59631574Y-99530797D01*
X59610750Y-99525581D01*
X59590538Y-99518349D01*
X59571132Y-99509170D01*
X59552719Y-99498134D01*
X59535476Y-99485346D01*
X59519570Y-99470930D01*
X59505154Y-99455024D01*
X59492366Y-99437781D01*
X59481330Y-99419368D01*
X59472151Y-99399962D01*
X59464919Y-99379750D01*
X59459703Y-99358926D01*
X59456553Y-99337691D01*
X59455500Y-99316250D01*
X59455500Y-98803750D01*
X59456553Y-98782309D01*
X59459703Y-98761074D01*
X59464919Y-98740250D01*
X59472151Y-98720038D01*
X59481330Y-98700632D01*
X59492366Y-98682219D01*
X59505154Y-98664976D01*
X59519570Y-98649070D01*
X59535476Y-98634654D01*
X59552719Y-98621866D01*
X59571132Y-98610830D01*
X59590538Y-98601651D01*
X59610750Y-98594419D01*
X59631574Y-98589203D01*
X59652809Y-98586053D01*
X59674250Y-98585000D01*
X60111750Y-98585000D01*
X60133191Y-98586053D01*
X60133191Y-98586053D01*
G37*
D11*
X59893000Y-99060000D03*
D10*
G36*
X61708191Y-98586053D02*
G01*
X61729426Y-98589203D01*
X61750250Y-98594419D01*
X61770462Y-98601651D01*
X61789868Y-98610830D01*
X61808281Y-98621866D01*
X61825524Y-98634654D01*
X61841430Y-98649070D01*
X61855846Y-98664976D01*
X61868634Y-98682219D01*
X61879670Y-98700632D01*
X61888849Y-98720038D01*
X61896081Y-98740250D01*
X61901297Y-98761074D01*
X61904447Y-98782309D01*
X61905500Y-98803750D01*
X61905500Y-99316250D01*
X61904447Y-99337691D01*
X61901297Y-99358926D01*
X61896081Y-99379750D01*
X61888849Y-99399962D01*
X61879670Y-99419368D01*
X61868634Y-99437781D01*
X61855846Y-99455024D01*
X61841430Y-99470930D01*
X61825524Y-99485346D01*
X61808281Y-99498134D01*
X61789868Y-99509170D01*
X61770462Y-99518349D01*
X61750250Y-99525581D01*
X61729426Y-99530797D01*
X61708191Y-99533947D01*
X61686750Y-99535000D01*
X61249250Y-99535000D01*
X61227809Y-99533947D01*
X61206574Y-99530797D01*
X61185750Y-99525581D01*
X61165538Y-99518349D01*
X61146132Y-99509170D01*
X61127719Y-99498134D01*
X61110476Y-99485346D01*
X61094570Y-99470930D01*
X61080154Y-99455024D01*
X61067366Y-99437781D01*
X61056330Y-99419368D01*
X61047151Y-99399962D01*
X61039919Y-99379750D01*
X61034703Y-99358926D01*
X61031553Y-99337691D01*
X61030500Y-99316250D01*
X61030500Y-98803750D01*
X61031553Y-98782309D01*
X61034703Y-98761074D01*
X61039919Y-98740250D01*
X61047151Y-98720038D01*
X61056330Y-98700632D01*
X61067366Y-98682219D01*
X61080154Y-98664976D01*
X61094570Y-98649070D01*
X61110476Y-98634654D01*
X61127719Y-98621866D01*
X61146132Y-98610830D01*
X61165538Y-98601651D01*
X61185750Y-98594419D01*
X61206574Y-98589203D01*
X61227809Y-98586053D01*
X61249250Y-98585000D01*
X61686750Y-98585000D01*
X61708191Y-98586053D01*
X61708191Y-98586053D01*
G37*
D11*
X61468000Y-99060000D03*
D10*
G36*
X66280191Y-109508053D02*
G01*
X66301426Y-109511203D01*
X66322250Y-109516419D01*
X66342462Y-109523651D01*
X66361868Y-109532830D01*
X66380281Y-109543866D01*
X66397524Y-109556654D01*
X66413430Y-109571070D01*
X66427846Y-109586976D01*
X66440634Y-109604219D01*
X66451670Y-109622632D01*
X66460849Y-109642038D01*
X66468081Y-109662250D01*
X66473297Y-109683074D01*
X66476447Y-109704309D01*
X66477500Y-109725750D01*
X66477500Y-110238250D01*
X66476447Y-110259691D01*
X66473297Y-110280926D01*
X66468081Y-110301750D01*
X66460849Y-110321962D01*
X66451670Y-110341368D01*
X66440634Y-110359781D01*
X66427846Y-110377024D01*
X66413430Y-110392930D01*
X66397524Y-110407346D01*
X66380281Y-110420134D01*
X66361868Y-110431170D01*
X66342462Y-110440349D01*
X66322250Y-110447581D01*
X66301426Y-110452797D01*
X66280191Y-110455947D01*
X66258750Y-110457000D01*
X65821250Y-110457000D01*
X65799809Y-110455947D01*
X65778574Y-110452797D01*
X65757750Y-110447581D01*
X65737538Y-110440349D01*
X65718132Y-110431170D01*
X65699719Y-110420134D01*
X65682476Y-110407346D01*
X65666570Y-110392930D01*
X65652154Y-110377024D01*
X65639366Y-110359781D01*
X65628330Y-110341368D01*
X65619151Y-110321962D01*
X65611919Y-110301750D01*
X65606703Y-110280926D01*
X65603553Y-110259691D01*
X65602500Y-110238250D01*
X65602500Y-109725750D01*
X65603553Y-109704309D01*
X65606703Y-109683074D01*
X65611919Y-109662250D01*
X65619151Y-109642038D01*
X65628330Y-109622632D01*
X65639366Y-109604219D01*
X65652154Y-109586976D01*
X65666570Y-109571070D01*
X65682476Y-109556654D01*
X65699719Y-109543866D01*
X65718132Y-109532830D01*
X65737538Y-109523651D01*
X65757750Y-109516419D01*
X65778574Y-109511203D01*
X65799809Y-109508053D01*
X65821250Y-109507000D01*
X66258750Y-109507000D01*
X66280191Y-109508053D01*
X66280191Y-109508053D01*
G37*
D11*
X66040000Y-109982000D03*
D10*
G36*
X64705191Y-109508053D02*
G01*
X64726426Y-109511203D01*
X64747250Y-109516419D01*
X64767462Y-109523651D01*
X64786868Y-109532830D01*
X64805281Y-109543866D01*
X64822524Y-109556654D01*
X64838430Y-109571070D01*
X64852846Y-109586976D01*
X64865634Y-109604219D01*
X64876670Y-109622632D01*
X64885849Y-109642038D01*
X64893081Y-109662250D01*
X64898297Y-109683074D01*
X64901447Y-109704309D01*
X64902500Y-109725750D01*
X64902500Y-110238250D01*
X64901447Y-110259691D01*
X64898297Y-110280926D01*
X64893081Y-110301750D01*
X64885849Y-110321962D01*
X64876670Y-110341368D01*
X64865634Y-110359781D01*
X64852846Y-110377024D01*
X64838430Y-110392930D01*
X64822524Y-110407346D01*
X64805281Y-110420134D01*
X64786868Y-110431170D01*
X64767462Y-110440349D01*
X64747250Y-110447581D01*
X64726426Y-110452797D01*
X64705191Y-110455947D01*
X64683750Y-110457000D01*
X64246250Y-110457000D01*
X64224809Y-110455947D01*
X64203574Y-110452797D01*
X64182750Y-110447581D01*
X64162538Y-110440349D01*
X64143132Y-110431170D01*
X64124719Y-110420134D01*
X64107476Y-110407346D01*
X64091570Y-110392930D01*
X64077154Y-110377024D01*
X64064366Y-110359781D01*
X64053330Y-110341368D01*
X64044151Y-110321962D01*
X64036919Y-110301750D01*
X64031703Y-110280926D01*
X64028553Y-110259691D01*
X64027500Y-110238250D01*
X64027500Y-109725750D01*
X64028553Y-109704309D01*
X64031703Y-109683074D01*
X64036919Y-109662250D01*
X64044151Y-109642038D01*
X64053330Y-109622632D01*
X64064366Y-109604219D01*
X64077154Y-109586976D01*
X64091570Y-109571070D01*
X64107476Y-109556654D01*
X64124719Y-109543866D01*
X64143132Y-109532830D01*
X64162538Y-109523651D01*
X64182750Y-109516419D01*
X64203574Y-109511203D01*
X64224809Y-109508053D01*
X64246250Y-109507000D01*
X64683750Y-109507000D01*
X64705191Y-109508053D01*
X64705191Y-109508053D01*
G37*
D11*
X64465000Y-109982000D03*
D10*
G36*
X66280191Y-107984053D02*
G01*
X66301426Y-107987203D01*
X66322250Y-107992419D01*
X66342462Y-107999651D01*
X66361868Y-108008830D01*
X66380281Y-108019866D01*
X66397524Y-108032654D01*
X66413430Y-108047070D01*
X66427846Y-108062976D01*
X66440634Y-108080219D01*
X66451670Y-108098632D01*
X66460849Y-108118038D01*
X66468081Y-108138250D01*
X66473297Y-108159074D01*
X66476447Y-108180309D01*
X66477500Y-108201750D01*
X66477500Y-108714250D01*
X66476447Y-108735691D01*
X66473297Y-108756926D01*
X66468081Y-108777750D01*
X66460849Y-108797962D01*
X66451670Y-108817368D01*
X66440634Y-108835781D01*
X66427846Y-108853024D01*
X66413430Y-108868930D01*
X66397524Y-108883346D01*
X66380281Y-108896134D01*
X66361868Y-108907170D01*
X66342462Y-108916349D01*
X66322250Y-108923581D01*
X66301426Y-108928797D01*
X66280191Y-108931947D01*
X66258750Y-108933000D01*
X65821250Y-108933000D01*
X65799809Y-108931947D01*
X65778574Y-108928797D01*
X65757750Y-108923581D01*
X65737538Y-108916349D01*
X65718132Y-108907170D01*
X65699719Y-108896134D01*
X65682476Y-108883346D01*
X65666570Y-108868930D01*
X65652154Y-108853024D01*
X65639366Y-108835781D01*
X65628330Y-108817368D01*
X65619151Y-108797962D01*
X65611919Y-108777750D01*
X65606703Y-108756926D01*
X65603553Y-108735691D01*
X65602500Y-108714250D01*
X65602500Y-108201750D01*
X65603553Y-108180309D01*
X65606703Y-108159074D01*
X65611919Y-108138250D01*
X65619151Y-108118038D01*
X65628330Y-108098632D01*
X65639366Y-108080219D01*
X65652154Y-108062976D01*
X65666570Y-108047070D01*
X65682476Y-108032654D01*
X65699719Y-108019866D01*
X65718132Y-108008830D01*
X65737538Y-107999651D01*
X65757750Y-107992419D01*
X65778574Y-107987203D01*
X65799809Y-107984053D01*
X65821250Y-107983000D01*
X66258750Y-107983000D01*
X66280191Y-107984053D01*
X66280191Y-107984053D01*
G37*
D11*
X66040000Y-108458000D03*
D10*
G36*
X64705191Y-107984053D02*
G01*
X64726426Y-107987203D01*
X64747250Y-107992419D01*
X64767462Y-107999651D01*
X64786868Y-108008830D01*
X64805281Y-108019866D01*
X64822524Y-108032654D01*
X64838430Y-108047070D01*
X64852846Y-108062976D01*
X64865634Y-108080219D01*
X64876670Y-108098632D01*
X64885849Y-108118038D01*
X64893081Y-108138250D01*
X64898297Y-108159074D01*
X64901447Y-108180309D01*
X64902500Y-108201750D01*
X64902500Y-108714250D01*
X64901447Y-108735691D01*
X64898297Y-108756926D01*
X64893081Y-108777750D01*
X64885849Y-108797962D01*
X64876670Y-108817368D01*
X64865634Y-108835781D01*
X64852846Y-108853024D01*
X64838430Y-108868930D01*
X64822524Y-108883346D01*
X64805281Y-108896134D01*
X64786868Y-108907170D01*
X64767462Y-108916349D01*
X64747250Y-108923581D01*
X64726426Y-108928797D01*
X64705191Y-108931947D01*
X64683750Y-108933000D01*
X64246250Y-108933000D01*
X64224809Y-108931947D01*
X64203574Y-108928797D01*
X64182750Y-108923581D01*
X64162538Y-108916349D01*
X64143132Y-108907170D01*
X64124719Y-108896134D01*
X64107476Y-108883346D01*
X64091570Y-108868930D01*
X64077154Y-108853024D01*
X64064366Y-108835781D01*
X64053330Y-108817368D01*
X64044151Y-108797962D01*
X64036919Y-108777750D01*
X64031703Y-108756926D01*
X64028553Y-108735691D01*
X64027500Y-108714250D01*
X64027500Y-108201750D01*
X64028553Y-108180309D01*
X64031703Y-108159074D01*
X64036919Y-108138250D01*
X64044151Y-108118038D01*
X64053330Y-108098632D01*
X64064366Y-108080219D01*
X64077154Y-108062976D01*
X64091570Y-108047070D01*
X64107476Y-108032654D01*
X64124719Y-108019866D01*
X64143132Y-108008830D01*
X64162538Y-107999651D01*
X64182750Y-107992419D01*
X64203574Y-107987203D01*
X64224809Y-107984053D01*
X64246250Y-107983000D01*
X64683750Y-107983000D01*
X64705191Y-107984053D01*
X64705191Y-107984053D01*
G37*
D11*
X64465000Y-108458000D03*
D10*
G36*
X52982691Y-113533553D02*
G01*
X53003926Y-113536703D01*
X53024750Y-113541919D01*
X53044962Y-113549151D01*
X53064368Y-113558330D01*
X53082781Y-113569366D01*
X53100024Y-113582154D01*
X53115930Y-113596570D01*
X53130346Y-113612476D01*
X53143134Y-113629719D01*
X53154170Y-113648132D01*
X53163349Y-113667538D01*
X53170581Y-113687750D01*
X53175797Y-113708574D01*
X53178947Y-113729809D01*
X53180000Y-113751250D01*
X53180000Y-114188750D01*
X53178947Y-114210191D01*
X53175797Y-114231426D01*
X53170581Y-114252250D01*
X53163349Y-114272462D01*
X53154170Y-114291868D01*
X53143134Y-114310281D01*
X53130346Y-114327524D01*
X53115930Y-114343430D01*
X53100024Y-114357846D01*
X53082781Y-114370634D01*
X53064368Y-114381670D01*
X53044962Y-114390849D01*
X53024750Y-114398081D01*
X53003926Y-114403297D01*
X52982691Y-114406447D01*
X52961250Y-114407500D01*
X52448750Y-114407500D01*
X52427309Y-114406447D01*
X52406074Y-114403297D01*
X52385250Y-114398081D01*
X52365038Y-114390849D01*
X52345632Y-114381670D01*
X52327219Y-114370634D01*
X52309976Y-114357846D01*
X52294070Y-114343430D01*
X52279654Y-114327524D01*
X52266866Y-114310281D01*
X52255830Y-114291868D01*
X52246651Y-114272462D01*
X52239419Y-114252250D01*
X52234203Y-114231426D01*
X52231053Y-114210191D01*
X52230000Y-114188750D01*
X52230000Y-113751250D01*
X52231053Y-113729809D01*
X52234203Y-113708574D01*
X52239419Y-113687750D01*
X52246651Y-113667538D01*
X52255830Y-113648132D01*
X52266866Y-113629719D01*
X52279654Y-113612476D01*
X52294070Y-113596570D01*
X52309976Y-113582154D01*
X52327219Y-113569366D01*
X52345632Y-113558330D01*
X52365038Y-113549151D01*
X52385250Y-113541919D01*
X52406074Y-113536703D01*
X52427309Y-113533553D01*
X52448750Y-113532500D01*
X52961250Y-113532500D01*
X52982691Y-113533553D01*
X52982691Y-113533553D01*
G37*
D11*
X52705000Y-113970000D03*
D10*
G36*
X52982691Y-111958553D02*
G01*
X53003926Y-111961703D01*
X53024750Y-111966919D01*
X53044962Y-111974151D01*
X53064368Y-111983330D01*
X53082781Y-111994366D01*
X53100024Y-112007154D01*
X53115930Y-112021570D01*
X53130346Y-112037476D01*
X53143134Y-112054719D01*
X53154170Y-112073132D01*
X53163349Y-112092538D01*
X53170581Y-112112750D01*
X53175797Y-112133574D01*
X53178947Y-112154809D01*
X53180000Y-112176250D01*
X53180000Y-112613750D01*
X53178947Y-112635191D01*
X53175797Y-112656426D01*
X53170581Y-112677250D01*
X53163349Y-112697462D01*
X53154170Y-112716868D01*
X53143134Y-112735281D01*
X53130346Y-112752524D01*
X53115930Y-112768430D01*
X53100024Y-112782846D01*
X53082781Y-112795634D01*
X53064368Y-112806670D01*
X53044962Y-112815849D01*
X53024750Y-112823081D01*
X53003926Y-112828297D01*
X52982691Y-112831447D01*
X52961250Y-112832500D01*
X52448750Y-112832500D01*
X52427309Y-112831447D01*
X52406074Y-112828297D01*
X52385250Y-112823081D01*
X52365038Y-112815849D01*
X52345632Y-112806670D01*
X52327219Y-112795634D01*
X52309976Y-112782846D01*
X52294070Y-112768430D01*
X52279654Y-112752524D01*
X52266866Y-112735281D01*
X52255830Y-112716868D01*
X52246651Y-112697462D01*
X52239419Y-112677250D01*
X52234203Y-112656426D01*
X52231053Y-112635191D01*
X52230000Y-112613750D01*
X52230000Y-112176250D01*
X52231053Y-112154809D01*
X52234203Y-112133574D01*
X52239419Y-112112750D01*
X52246651Y-112092538D01*
X52255830Y-112073132D01*
X52266866Y-112054719D01*
X52279654Y-112037476D01*
X52294070Y-112021570D01*
X52309976Y-112007154D01*
X52327219Y-111994366D01*
X52345632Y-111983330D01*
X52365038Y-111974151D01*
X52385250Y-111966919D01*
X52406074Y-111961703D01*
X52427309Y-111958553D01*
X52448750Y-111957500D01*
X52961250Y-111957500D01*
X52982691Y-111958553D01*
X52982691Y-111958553D01*
G37*
D11*
X52705000Y-112395000D03*
D10*
G36*
X56792691Y-111958553D02*
G01*
X56813926Y-111961703D01*
X56834750Y-111966919D01*
X56854962Y-111974151D01*
X56874368Y-111983330D01*
X56892781Y-111994366D01*
X56910024Y-112007154D01*
X56925930Y-112021570D01*
X56940346Y-112037476D01*
X56953134Y-112054719D01*
X56964170Y-112073132D01*
X56973349Y-112092538D01*
X56980581Y-112112750D01*
X56985797Y-112133574D01*
X56988947Y-112154809D01*
X56990000Y-112176250D01*
X56990000Y-112613750D01*
X56988947Y-112635191D01*
X56985797Y-112656426D01*
X56980581Y-112677250D01*
X56973349Y-112697462D01*
X56964170Y-112716868D01*
X56953134Y-112735281D01*
X56940346Y-112752524D01*
X56925930Y-112768430D01*
X56910024Y-112782846D01*
X56892781Y-112795634D01*
X56874368Y-112806670D01*
X56854962Y-112815849D01*
X56834750Y-112823081D01*
X56813926Y-112828297D01*
X56792691Y-112831447D01*
X56771250Y-112832500D01*
X56258750Y-112832500D01*
X56237309Y-112831447D01*
X56216074Y-112828297D01*
X56195250Y-112823081D01*
X56175038Y-112815849D01*
X56155632Y-112806670D01*
X56137219Y-112795634D01*
X56119976Y-112782846D01*
X56104070Y-112768430D01*
X56089654Y-112752524D01*
X56076866Y-112735281D01*
X56065830Y-112716868D01*
X56056651Y-112697462D01*
X56049419Y-112677250D01*
X56044203Y-112656426D01*
X56041053Y-112635191D01*
X56040000Y-112613750D01*
X56040000Y-112176250D01*
X56041053Y-112154809D01*
X56044203Y-112133574D01*
X56049419Y-112112750D01*
X56056651Y-112092538D01*
X56065830Y-112073132D01*
X56076866Y-112054719D01*
X56089654Y-112037476D01*
X56104070Y-112021570D01*
X56119976Y-112007154D01*
X56137219Y-111994366D01*
X56155632Y-111983330D01*
X56175038Y-111974151D01*
X56195250Y-111966919D01*
X56216074Y-111961703D01*
X56237309Y-111958553D01*
X56258750Y-111957500D01*
X56771250Y-111957500D01*
X56792691Y-111958553D01*
X56792691Y-111958553D01*
G37*
D11*
X56515000Y-112395000D03*
D10*
G36*
X56792691Y-113533553D02*
G01*
X56813926Y-113536703D01*
X56834750Y-113541919D01*
X56854962Y-113549151D01*
X56874368Y-113558330D01*
X56892781Y-113569366D01*
X56910024Y-113582154D01*
X56925930Y-113596570D01*
X56940346Y-113612476D01*
X56953134Y-113629719D01*
X56964170Y-113648132D01*
X56973349Y-113667538D01*
X56980581Y-113687750D01*
X56985797Y-113708574D01*
X56988947Y-113729809D01*
X56990000Y-113751250D01*
X56990000Y-114188750D01*
X56988947Y-114210191D01*
X56985797Y-114231426D01*
X56980581Y-114252250D01*
X56973349Y-114272462D01*
X56964170Y-114291868D01*
X56953134Y-114310281D01*
X56940346Y-114327524D01*
X56925930Y-114343430D01*
X56910024Y-114357846D01*
X56892781Y-114370634D01*
X56874368Y-114381670D01*
X56854962Y-114390849D01*
X56834750Y-114398081D01*
X56813926Y-114403297D01*
X56792691Y-114406447D01*
X56771250Y-114407500D01*
X56258750Y-114407500D01*
X56237309Y-114406447D01*
X56216074Y-114403297D01*
X56195250Y-114398081D01*
X56175038Y-114390849D01*
X56155632Y-114381670D01*
X56137219Y-114370634D01*
X56119976Y-114357846D01*
X56104070Y-114343430D01*
X56089654Y-114327524D01*
X56076866Y-114310281D01*
X56065830Y-114291868D01*
X56056651Y-114272462D01*
X56049419Y-114252250D01*
X56044203Y-114231426D01*
X56041053Y-114210191D01*
X56040000Y-114188750D01*
X56040000Y-113751250D01*
X56041053Y-113729809D01*
X56044203Y-113708574D01*
X56049419Y-113687750D01*
X56056651Y-113667538D01*
X56065830Y-113648132D01*
X56076866Y-113629719D01*
X56089654Y-113612476D01*
X56104070Y-113596570D01*
X56119976Y-113582154D01*
X56137219Y-113569366D01*
X56155632Y-113558330D01*
X56175038Y-113549151D01*
X56195250Y-113541919D01*
X56216074Y-113536703D01*
X56237309Y-113533553D01*
X56258750Y-113532500D01*
X56771250Y-113532500D01*
X56792691Y-113533553D01*
X56792691Y-113533553D01*
G37*
D11*
X56515000Y-113970000D03*
D15*
X72136000Y-105664000D03*
X72136000Y-109664000D03*
D10*
G36*
X61708191Y-100110053D02*
G01*
X61729426Y-100113203D01*
X61750250Y-100118419D01*
X61770462Y-100125651D01*
X61789868Y-100134830D01*
X61808281Y-100145866D01*
X61825524Y-100158654D01*
X61841430Y-100173070D01*
X61855846Y-100188976D01*
X61868634Y-100206219D01*
X61879670Y-100224632D01*
X61888849Y-100244038D01*
X61896081Y-100264250D01*
X61901297Y-100285074D01*
X61904447Y-100306309D01*
X61905500Y-100327750D01*
X61905500Y-100840250D01*
X61904447Y-100861691D01*
X61901297Y-100882926D01*
X61896081Y-100903750D01*
X61888849Y-100923962D01*
X61879670Y-100943368D01*
X61868634Y-100961781D01*
X61855846Y-100979024D01*
X61841430Y-100994930D01*
X61825524Y-101009346D01*
X61808281Y-101022134D01*
X61789868Y-101033170D01*
X61770462Y-101042349D01*
X61750250Y-101049581D01*
X61729426Y-101054797D01*
X61708191Y-101057947D01*
X61686750Y-101059000D01*
X61249250Y-101059000D01*
X61227809Y-101057947D01*
X61206574Y-101054797D01*
X61185750Y-101049581D01*
X61165538Y-101042349D01*
X61146132Y-101033170D01*
X61127719Y-101022134D01*
X61110476Y-101009346D01*
X61094570Y-100994930D01*
X61080154Y-100979024D01*
X61067366Y-100961781D01*
X61056330Y-100943368D01*
X61047151Y-100923962D01*
X61039919Y-100903750D01*
X61034703Y-100882926D01*
X61031553Y-100861691D01*
X61030500Y-100840250D01*
X61030500Y-100327750D01*
X61031553Y-100306309D01*
X61034703Y-100285074D01*
X61039919Y-100264250D01*
X61047151Y-100244038D01*
X61056330Y-100224632D01*
X61067366Y-100206219D01*
X61080154Y-100188976D01*
X61094570Y-100173070D01*
X61110476Y-100158654D01*
X61127719Y-100145866D01*
X61146132Y-100134830D01*
X61165538Y-100125651D01*
X61185750Y-100118419D01*
X61206574Y-100113203D01*
X61227809Y-100110053D01*
X61249250Y-100109000D01*
X61686750Y-100109000D01*
X61708191Y-100110053D01*
X61708191Y-100110053D01*
G37*
D11*
X61468000Y-100584000D03*
D10*
G36*
X60133191Y-100110053D02*
G01*
X60154426Y-100113203D01*
X60175250Y-100118419D01*
X60195462Y-100125651D01*
X60214868Y-100134830D01*
X60233281Y-100145866D01*
X60250524Y-100158654D01*
X60266430Y-100173070D01*
X60280846Y-100188976D01*
X60293634Y-100206219D01*
X60304670Y-100224632D01*
X60313849Y-100244038D01*
X60321081Y-100264250D01*
X60326297Y-100285074D01*
X60329447Y-100306309D01*
X60330500Y-100327750D01*
X60330500Y-100840250D01*
X60329447Y-100861691D01*
X60326297Y-100882926D01*
X60321081Y-100903750D01*
X60313849Y-100923962D01*
X60304670Y-100943368D01*
X60293634Y-100961781D01*
X60280846Y-100979024D01*
X60266430Y-100994930D01*
X60250524Y-101009346D01*
X60233281Y-101022134D01*
X60214868Y-101033170D01*
X60195462Y-101042349D01*
X60175250Y-101049581D01*
X60154426Y-101054797D01*
X60133191Y-101057947D01*
X60111750Y-101059000D01*
X59674250Y-101059000D01*
X59652809Y-101057947D01*
X59631574Y-101054797D01*
X59610750Y-101049581D01*
X59590538Y-101042349D01*
X59571132Y-101033170D01*
X59552719Y-101022134D01*
X59535476Y-101009346D01*
X59519570Y-100994930D01*
X59505154Y-100979024D01*
X59492366Y-100961781D01*
X59481330Y-100943368D01*
X59472151Y-100923962D01*
X59464919Y-100903750D01*
X59459703Y-100882926D01*
X59456553Y-100861691D01*
X59455500Y-100840250D01*
X59455500Y-100327750D01*
X59456553Y-100306309D01*
X59459703Y-100285074D01*
X59464919Y-100264250D01*
X59472151Y-100244038D01*
X59481330Y-100224632D01*
X59492366Y-100206219D01*
X59505154Y-100188976D01*
X59519570Y-100173070D01*
X59535476Y-100158654D01*
X59552719Y-100145866D01*
X59571132Y-100134830D01*
X59590538Y-100125651D01*
X59610750Y-100118419D01*
X59631574Y-100113203D01*
X59652809Y-100110053D01*
X59674250Y-100109000D01*
X60111750Y-100109000D01*
X60133191Y-100110053D01*
X60133191Y-100110053D01*
G37*
D11*
X59893000Y-100584000D03*
D15*
X64008000Y-106172000D03*
X64008000Y-102172000D03*
D10*
G36*
X62243642Y-113601174D02*
G01*
X62267303Y-113604684D01*
X62290507Y-113610496D01*
X62313029Y-113618554D01*
X62334653Y-113628782D01*
X62355170Y-113641079D01*
X62374383Y-113655329D01*
X62392107Y-113671393D01*
X62408171Y-113689117D01*
X62422421Y-113708330D01*
X62434718Y-113728847D01*
X62444946Y-113750471D01*
X62453004Y-113772993D01*
X62458816Y-113796197D01*
X62462326Y-113819858D01*
X62463500Y-113843750D01*
X62463500Y-114756250D01*
X62462326Y-114780142D01*
X62458816Y-114803803D01*
X62453004Y-114827007D01*
X62444946Y-114849529D01*
X62434718Y-114871153D01*
X62422421Y-114891670D01*
X62408171Y-114910883D01*
X62392107Y-114928607D01*
X62374383Y-114944671D01*
X62355170Y-114958921D01*
X62334653Y-114971218D01*
X62313029Y-114981446D01*
X62290507Y-114989504D01*
X62267303Y-114995316D01*
X62243642Y-114998826D01*
X62219750Y-115000000D01*
X61732250Y-115000000D01*
X61708358Y-114998826D01*
X61684697Y-114995316D01*
X61661493Y-114989504D01*
X61638971Y-114981446D01*
X61617347Y-114971218D01*
X61596830Y-114958921D01*
X61577617Y-114944671D01*
X61559893Y-114928607D01*
X61543829Y-114910883D01*
X61529579Y-114891670D01*
X61517282Y-114871153D01*
X61507054Y-114849529D01*
X61498996Y-114827007D01*
X61493184Y-114803803D01*
X61489674Y-114780142D01*
X61488500Y-114756250D01*
X61488500Y-113843750D01*
X61489674Y-113819858D01*
X61493184Y-113796197D01*
X61498996Y-113772993D01*
X61507054Y-113750471D01*
X61517282Y-113728847D01*
X61529579Y-113708330D01*
X61543829Y-113689117D01*
X61559893Y-113671393D01*
X61577617Y-113655329D01*
X61596830Y-113641079D01*
X61617347Y-113628782D01*
X61638971Y-113618554D01*
X61661493Y-113610496D01*
X61684697Y-113604684D01*
X61708358Y-113601174D01*
X61732250Y-113600000D01*
X62219750Y-113600000D01*
X62243642Y-113601174D01*
X62243642Y-113601174D01*
G37*
D16*
X61976000Y-114300000D03*
D10*
G36*
X60368642Y-113601174D02*
G01*
X60392303Y-113604684D01*
X60415507Y-113610496D01*
X60438029Y-113618554D01*
X60459653Y-113628782D01*
X60480170Y-113641079D01*
X60499383Y-113655329D01*
X60517107Y-113671393D01*
X60533171Y-113689117D01*
X60547421Y-113708330D01*
X60559718Y-113728847D01*
X60569946Y-113750471D01*
X60578004Y-113772993D01*
X60583816Y-113796197D01*
X60587326Y-113819858D01*
X60588500Y-113843750D01*
X60588500Y-114756250D01*
X60587326Y-114780142D01*
X60583816Y-114803803D01*
X60578004Y-114827007D01*
X60569946Y-114849529D01*
X60559718Y-114871153D01*
X60547421Y-114891670D01*
X60533171Y-114910883D01*
X60517107Y-114928607D01*
X60499383Y-114944671D01*
X60480170Y-114958921D01*
X60459653Y-114971218D01*
X60438029Y-114981446D01*
X60415507Y-114989504D01*
X60392303Y-114995316D01*
X60368642Y-114998826D01*
X60344750Y-115000000D01*
X59857250Y-115000000D01*
X59833358Y-114998826D01*
X59809697Y-114995316D01*
X59786493Y-114989504D01*
X59763971Y-114981446D01*
X59742347Y-114971218D01*
X59721830Y-114958921D01*
X59702617Y-114944671D01*
X59684893Y-114928607D01*
X59668829Y-114910883D01*
X59654579Y-114891670D01*
X59642282Y-114871153D01*
X59632054Y-114849529D01*
X59623996Y-114827007D01*
X59618184Y-114803803D01*
X59614674Y-114780142D01*
X59613500Y-114756250D01*
X59613500Y-113843750D01*
X59614674Y-113819858D01*
X59618184Y-113796197D01*
X59623996Y-113772993D01*
X59632054Y-113750471D01*
X59642282Y-113728847D01*
X59654579Y-113708330D01*
X59668829Y-113689117D01*
X59684893Y-113671393D01*
X59702617Y-113655329D01*
X59721830Y-113641079D01*
X59742347Y-113628782D01*
X59763971Y-113618554D01*
X59786493Y-113610496D01*
X59809697Y-113604684D01*
X59833358Y-113601174D01*
X59857250Y-113600000D01*
X60344750Y-113600000D01*
X60368642Y-113601174D01*
X60368642Y-113601174D01*
G37*
D16*
X60101000Y-114300000D03*
D10*
G36*
X69822142Y-113051674D02*
G01*
X69845803Y-113055184D01*
X69869007Y-113060996D01*
X69891529Y-113069054D01*
X69913153Y-113079282D01*
X69933670Y-113091579D01*
X69952883Y-113105829D01*
X69970607Y-113121893D01*
X69986671Y-113139617D01*
X70000921Y-113158830D01*
X70013218Y-113179347D01*
X70023446Y-113200971D01*
X70031504Y-113223493D01*
X70037316Y-113246697D01*
X70040826Y-113270358D01*
X70042000Y-113294250D01*
X70042000Y-113781750D01*
X70040826Y-113805642D01*
X70037316Y-113829303D01*
X70031504Y-113852507D01*
X70023446Y-113875029D01*
X70013218Y-113896653D01*
X70000921Y-113917170D01*
X69986671Y-113936383D01*
X69970607Y-113954107D01*
X69952883Y-113970171D01*
X69933670Y-113984421D01*
X69913153Y-113996718D01*
X69891529Y-114006946D01*
X69869007Y-114015004D01*
X69845803Y-114020816D01*
X69822142Y-114024326D01*
X69798250Y-114025500D01*
X68885750Y-114025500D01*
X68861858Y-114024326D01*
X68838197Y-114020816D01*
X68814993Y-114015004D01*
X68792471Y-114006946D01*
X68770847Y-113996718D01*
X68750330Y-113984421D01*
X68731117Y-113970171D01*
X68713393Y-113954107D01*
X68697329Y-113936383D01*
X68683079Y-113917170D01*
X68670782Y-113896653D01*
X68660554Y-113875029D01*
X68652496Y-113852507D01*
X68646684Y-113829303D01*
X68643174Y-113805642D01*
X68642000Y-113781750D01*
X68642000Y-113294250D01*
X68643174Y-113270358D01*
X68646684Y-113246697D01*
X68652496Y-113223493D01*
X68660554Y-113200971D01*
X68670782Y-113179347D01*
X68683079Y-113158830D01*
X68697329Y-113139617D01*
X68713393Y-113121893D01*
X68731117Y-113105829D01*
X68750330Y-113091579D01*
X68770847Y-113079282D01*
X68792471Y-113069054D01*
X68814993Y-113060996D01*
X68838197Y-113055184D01*
X68861858Y-113051674D01*
X68885750Y-113050500D01*
X69798250Y-113050500D01*
X69822142Y-113051674D01*
X69822142Y-113051674D01*
G37*
D16*
X69342000Y-113538000D03*
D10*
G36*
X69822142Y-111176674D02*
G01*
X69845803Y-111180184D01*
X69869007Y-111185996D01*
X69891529Y-111194054D01*
X69913153Y-111204282D01*
X69933670Y-111216579D01*
X69952883Y-111230829D01*
X69970607Y-111246893D01*
X69986671Y-111264617D01*
X70000921Y-111283830D01*
X70013218Y-111304347D01*
X70023446Y-111325971D01*
X70031504Y-111348493D01*
X70037316Y-111371697D01*
X70040826Y-111395358D01*
X70042000Y-111419250D01*
X70042000Y-111906750D01*
X70040826Y-111930642D01*
X70037316Y-111954303D01*
X70031504Y-111977507D01*
X70023446Y-112000029D01*
X70013218Y-112021653D01*
X70000921Y-112042170D01*
X69986671Y-112061383D01*
X69970607Y-112079107D01*
X69952883Y-112095171D01*
X69933670Y-112109421D01*
X69913153Y-112121718D01*
X69891529Y-112131946D01*
X69869007Y-112140004D01*
X69845803Y-112145816D01*
X69822142Y-112149326D01*
X69798250Y-112150500D01*
X68885750Y-112150500D01*
X68861858Y-112149326D01*
X68838197Y-112145816D01*
X68814993Y-112140004D01*
X68792471Y-112131946D01*
X68770847Y-112121718D01*
X68750330Y-112109421D01*
X68731117Y-112095171D01*
X68713393Y-112079107D01*
X68697329Y-112061383D01*
X68683079Y-112042170D01*
X68670782Y-112021653D01*
X68660554Y-112000029D01*
X68652496Y-111977507D01*
X68646684Y-111954303D01*
X68643174Y-111930642D01*
X68642000Y-111906750D01*
X68642000Y-111419250D01*
X68643174Y-111395358D01*
X68646684Y-111371697D01*
X68652496Y-111348493D01*
X68660554Y-111325971D01*
X68670782Y-111304347D01*
X68683079Y-111283830D01*
X68697329Y-111264617D01*
X68713393Y-111246893D01*
X68731117Y-111230829D01*
X68750330Y-111216579D01*
X68770847Y-111204282D01*
X68792471Y-111194054D01*
X68814993Y-111185996D01*
X68838197Y-111180184D01*
X68861858Y-111176674D01*
X68885750Y-111175500D01*
X69798250Y-111175500D01*
X69822142Y-111176674D01*
X69822142Y-111176674D01*
G37*
D16*
X69342000Y-111663000D03*
D10*
G36*
X53910191Y-104301053D02*
G01*
X53931426Y-104304203D01*
X53952250Y-104309419D01*
X53972462Y-104316651D01*
X53991868Y-104325830D01*
X54010281Y-104336866D01*
X54027524Y-104349654D01*
X54043430Y-104364070D01*
X54057846Y-104379976D01*
X54070634Y-104397219D01*
X54081670Y-104415632D01*
X54090849Y-104435038D01*
X54098081Y-104455250D01*
X54103297Y-104476074D01*
X54106447Y-104497309D01*
X54107500Y-104518750D01*
X54107500Y-105031250D01*
X54106447Y-105052691D01*
X54103297Y-105073926D01*
X54098081Y-105094750D01*
X54090849Y-105114962D01*
X54081670Y-105134368D01*
X54070634Y-105152781D01*
X54057846Y-105170024D01*
X54043430Y-105185930D01*
X54027524Y-105200346D01*
X54010281Y-105213134D01*
X53991868Y-105224170D01*
X53972462Y-105233349D01*
X53952250Y-105240581D01*
X53931426Y-105245797D01*
X53910191Y-105248947D01*
X53888750Y-105250000D01*
X53451250Y-105250000D01*
X53429809Y-105248947D01*
X53408574Y-105245797D01*
X53387750Y-105240581D01*
X53367538Y-105233349D01*
X53348132Y-105224170D01*
X53329719Y-105213134D01*
X53312476Y-105200346D01*
X53296570Y-105185930D01*
X53282154Y-105170024D01*
X53269366Y-105152781D01*
X53258330Y-105134368D01*
X53249151Y-105114962D01*
X53241919Y-105094750D01*
X53236703Y-105073926D01*
X53233553Y-105052691D01*
X53232500Y-105031250D01*
X53232500Y-104518750D01*
X53233553Y-104497309D01*
X53236703Y-104476074D01*
X53241919Y-104455250D01*
X53249151Y-104435038D01*
X53258330Y-104415632D01*
X53269366Y-104397219D01*
X53282154Y-104379976D01*
X53296570Y-104364070D01*
X53312476Y-104349654D01*
X53329719Y-104336866D01*
X53348132Y-104325830D01*
X53367538Y-104316651D01*
X53387750Y-104309419D01*
X53408574Y-104304203D01*
X53429809Y-104301053D01*
X53451250Y-104300000D01*
X53888750Y-104300000D01*
X53910191Y-104301053D01*
X53910191Y-104301053D01*
G37*
D11*
X53670000Y-104775000D03*
D10*
G36*
X55485191Y-104301053D02*
G01*
X55506426Y-104304203D01*
X55527250Y-104309419D01*
X55547462Y-104316651D01*
X55566868Y-104325830D01*
X55585281Y-104336866D01*
X55602524Y-104349654D01*
X55618430Y-104364070D01*
X55632846Y-104379976D01*
X55645634Y-104397219D01*
X55656670Y-104415632D01*
X55665849Y-104435038D01*
X55673081Y-104455250D01*
X55678297Y-104476074D01*
X55681447Y-104497309D01*
X55682500Y-104518750D01*
X55682500Y-105031250D01*
X55681447Y-105052691D01*
X55678297Y-105073926D01*
X55673081Y-105094750D01*
X55665849Y-105114962D01*
X55656670Y-105134368D01*
X55645634Y-105152781D01*
X55632846Y-105170024D01*
X55618430Y-105185930D01*
X55602524Y-105200346D01*
X55585281Y-105213134D01*
X55566868Y-105224170D01*
X55547462Y-105233349D01*
X55527250Y-105240581D01*
X55506426Y-105245797D01*
X55485191Y-105248947D01*
X55463750Y-105250000D01*
X55026250Y-105250000D01*
X55004809Y-105248947D01*
X54983574Y-105245797D01*
X54962750Y-105240581D01*
X54942538Y-105233349D01*
X54923132Y-105224170D01*
X54904719Y-105213134D01*
X54887476Y-105200346D01*
X54871570Y-105185930D01*
X54857154Y-105170024D01*
X54844366Y-105152781D01*
X54833330Y-105134368D01*
X54824151Y-105114962D01*
X54816919Y-105094750D01*
X54811703Y-105073926D01*
X54808553Y-105052691D01*
X54807500Y-105031250D01*
X54807500Y-104518750D01*
X54808553Y-104497309D01*
X54811703Y-104476074D01*
X54816919Y-104455250D01*
X54824151Y-104435038D01*
X54833330Y-104415632D01*
X54844366Y-104397219D01*
X54857154Y-104379976D01*
X54871570Y-104364070D01*
X54887476Y-104349654D01*
X54904719Y-104336866D01*
X54923132Y-104325830D01*
X54942538Y-104316651D01*
X54962750Y-104309419D01*
X54983574Y-104304203D01*
X55004809Y-104301053D01*
X55026250Y-104300000D01*
X55463750Y-104300000D01*
X55485191Y-104301053D01*
X55485191Y-104301053D01*
G37*
D11*
X55245000Y-104775000D03*
D10*
G36*
X63416642Y-98869174D02*
G01*
X63440303Y-98872684D01*
X63463507Y-98878496D01*
X63486029Y-98886554D01*
X63507653Y-98896782D01*
X63528170Y-98909079D01*
X63547383Y-98923329D01*
X63565107Y-98939393D01*
X63581171Y-98957117D01*
X63595421Y-98976330D01*
X63607718Y-98996847D01*
X63617946Y-99018471D01*
X63626004Y-99040993D01*
X63631816Y-99064197D01*
X63635326Y-99087858D01*
X63636500Y-99111750D01*
X63636500Y-100024250D01*
X63635326Y-100048142D01*
X63631816Y-100071803D01*
X63626004Y-100095007D01*
X63617946Y-100117529D01*
X63607718Y-100139153D01*
X63595421Y-100159670D01*
X63581171Y-100178883D01*
X63565107Y-100196607D01*
X63547383Y-100212671D01*
X63528170Y-100226921D01*
X63507653Y-100239218D01*
X63486029Y-100249446D01*
X63463507Y-100257504D01*
X63440303Y-100263316D01*
X63416642Y-100266826D01*
X63392750Y-100268000D01*
X62905250Y-100268000D01*
X62881358Y-100266826D01*
X62857697Y-100263316D01*
X62834493Y-100257504D01*
X62811971Y-100249446D01*
X62790347Y-100239218D01*
X62769830Y-100226921D01*
X62750617Y-100212671D01*
X62732893Y-100196607D01*
X62716829Y-100178883D01*
X62702579Y-100159670D01*
X62690282Y-100139153D01*
X62680054Y-100117529D01*
X62671996Y-100095007D01*
X62666184Y-100071803D01*
X62662674Y-100048142D01*
X62661500Y-100024250D01*
X62661500Y-99111750D01*
X62662674Y-99087858D01*
X62666184Y-99064197D01*
X62671996Y-99040993D01*
X62680054Y-99018471D01*
X62690282Y-98996847D01*
X62702579Y-98976330D01*
X62716829Y-98957117D01*
X62732893Y-98939393D01*
X62750617Y-98923329D01*
X62769830Y-98909079D01*
X62790347Y-98896782D01*
X62811971Y-98886554D01*
X62834493Y-98878496D01*
X62857697Y-98872684D01*
X62881358Y-98869174D01*
X62905250Y-98868000D01*
X63392750Y-98868000D01*
X63416642Y-98869174D01*
X63416642Y-98869174D01*
G37*
D16*
X63149000Y-99568000D03*
D10*
G36*
X65291642Y-98869174D02*
G01*
X65315303Y-98872684D01*
X65338507Y-98878496D01*
X65361029Y-98886554D01*
X65382653Y-98896782D01*
X65403170Y-98909079D01*
X65422383Y-98923329D01*
X65440107Y-98939393D01*
X65456171Y-98957117D01*
X65470421Y-98976330D01*
X65482718Y-98996847D01*
X65492946Y-99018471D01*
X65501004Y-99040993D01*
X65506816Y-99064197D01*
X65510326Y-99087858D01*
X65511500Y-99111750D01*
X65511500Y-100024250D01*
X65510326Y-100048142D01*
X65506816Y-100071803D01*
X65501004Y-100095007D01*
X65492946Y-100117529D01*
X65482718Y-100139153D01*
X65470421Y-100159670D01*
X65456171Y-100178883D01*
X65440107Y-100196607D01*
X65422383Y-100212671D01*
X65403170Y-100226921D01*
X65382653Y-100239218D01*
X65361029Y-100249446D01*
X65338507Y-100257504D01*
X65315303Y-100263316D01*
X65291642Y-100266826D01*
X65267750Y-100268000D01*
X64780250Y-100268000D01*
X64756358Y-100266826D01*
X64732697Y-100263316D01*
X64709493Y-100257504D01*
X64686971Y-100249446D01*
X64665347Y-100239218D01*
X64644830Y-100226921D01*
X64625617Y-100212671D01*
X64607893Y-100196607D01*
X64591829Y-100178883D01*
X64577579Y-100159670D01*
X64565282Y-100139153D01*
X64555054Y-100117529D01*
X64546996Y-100095007D01*
X64541184Y-100071803D01*
X64537674Y-100048142D01*
X64536500Y-100024250D01*
X64536500Y-99111750D01*
X64537674Y-99087858D01*
X64541184Y-99064197D01*
X64546996Y-99040993D01*
X64555054Y-99018471D01*
X64565282Y-98996847D01*
X64577579Y-98976330D01*
X64591829Y-98957117D01*
X64607893Y-98939393D01*
X64625617Y-98923329D01*
X64644830Y-98909079D01*
X64665347Y-98896782D01*
X64686971Y-98886554D01*
X64709493Y-98878496D01*
X64732697Y-98872684D01*
X64756358Y-98869174D01*
X64780250Y-98868000D01*
X65267750Y-98868000D01*
X65291642Y-98869174D01*
X65291642Y-98869174D01*
G37*
D16*
X65024000Y-99568000D03*
D17*
X54360000Y-108457500D03*
X54860000Y-108457500D03*
X54860000Y-109982500D03*
X54360000Y-109982500D03*
D18*
X55372500Y-108470000D03*
X53847500Y-108470000D03*
X55372500Y-109970000D03*
X53847500Y-109970000D03*
X55372500Y-109470000D03*
X55372500Y-108970000D03*
X53847500Y-109470000D03*
X53847500Y-108970000D03*
D12*
X67596000Y-108966000D03*
X69596000Y-108016000D03*
X69596000Y-109916000D03*
M02*
