G04 #@! TF.GenerationSoftware,KiCad,Pcbnew,5.1.4*
G04 #@! TF.CreationDate,2019-11-23T01:56:27+01:00*
G04 #@! TF.ProjectId,antivol,616e7469-766f-46c2-9e6b-696361645f70,rev?*
G04 #@! TF.SameCoordinates,Original*
G04 #@! TF.FileFunction,Copper,L2,Bot*
G04 #@! TF.FilePolarity,Positive*
%FSLAX46Y46*%
G04 Gerber Fmt 4.6, Leading zero omitted, Abs format (unit mm)*
G04 Created by KiCad (PCBNEW 5.1.4) date 2019-11-23 01:56:27*
%MOMM*%
%LPD*%
G04 APERTURE LIST*
%ADD10O,1.700000X1.700000*%
%ADD11R,1.700000X1.700000*%
%ADD12C,1.300000*%
%ADD13R,0.900000X2.000000*%
%ADD14R,2.000000X0.900000*%
%ADD15R,5.000000X5.000000*%
%ADD16C,2.000000*%
%ADD17C,0.800000*%
%ADD18C,0.254000*%
%ADD19C,0.250000*%
%ADD20C,0.508000*%
G04 APERTURE END LIST*
D10*
X72136000Y-102362000D03*
D11*
X72136000Y-99822000D03*
D10*
X72136000Y-113030000D03*
D11*
X72136000Y-115570000D03*
D12*
X58945000Y-108360000D03*
X58945000Y-104760000D03*
X60745000Y-106560000D03*
X57145000Y-106560000D03*
X57145000Y-108360000D03*
X57145000Y-104760000D03*
X60745000Y-108360000D03*
D13*
X51435000Y-99060000D03*
X52705000Y-99060000D03*
X53975000Y-99060000D03*
X55245000Y-99060000D03*
X56515000Y-99060000D03*
X57785000Y-99060000D03*
X59055000Y-99060000D03*
X60325000Y-99060000D03*
X61595000Y-99060000D03*
X62865000Y-99060000D03*
X64135000Y-99060000D03*
X65405000Y-99060000D03*
X66675000Y-99060000D03*
X67945000Y-99060000D03*
D14*
X68945000Y-101860000D03*
X68945000Y-103130000D03*
X68945000Y-104400000D03*
X68945000Y-105670000D03*
X68945000Y-106940000D03*
X68945000Y-108210000D03*
X68945000Y-109480000D03*
X68945000Y-110750000D03*
X68945000Y-112020000D03*
X68945000Y-113290000D03*
D13*
X67945000Y-116060000D03*
X66675000Y-116060000D03*
X65405000Y-116060000D03*
X64135000Y-116060000D03*
X62865000Y-116060000D03*
X61595000Y-116060000D03*
X60325000Y-116060000D03*
X59055000Y-116060000D03*
X57785000Y-116060000D03*
X56515000Y-116060000D03*
X55245000Y-116060000D03*
X53975000Y-116060000D03*
X52705000Y-116060000D03*
X51435000Y-116060000D03*
D15*
X58945000Y-106560000D03*
D16*
X58945000Y-106560000D03*
D12*
X60745000Y-104760000D03*
D10*
X76200000Y-112522000D03*
X76200000Y-109982000D03*
X76200000Y-107442000D03*
X76200000Y-104902000D03*
X76200000Y-102362000D03*
D11*
X76200000Y-99822000D03*
D17*
X51435000Y-99060000D03*
X60452000Y-112268000D03*
X51562000Y-102870000D03*
X75946000Y-116586000D03*
X51404847Y-113695153D03*
X56587346Y-102307346D03*
X64465000Y-109982000D03*
X68945000Y-101860000D03*
X62230000Y-103124000D03*
X63653142Y-101817142D03*
X61468000Y-101346000D03*
X53670000Y-104775000D03*
X67290998Y-108458000D03*
X67290998Y-105326959D03*
X69391878Y-116886441D03*
X76200000Y-102362000D03*
X70104000Y-115316000D03*
X56515000Y-116060000D03*
X56515000Y-112395000D03*
X58420000Y-114300000D03*
X68660003Y-116205000D03*
X55245000Y-116060000D03*
X52705000Y-112395000D03*
X54610000Y-112395000D03*
X55852572Y-111195001D03*
X72136000Y-105664000D03*
X54134000Y-101026000D03*
X56515000Y-99060000D03*
D18*
X51435000Y-99060000D02*
X51435000Y-102743000D01*
X51435000Y-102743000D02*
X51562000Y-102870000D01*
D19*
X72136000Y-115570000D02*
X74930000Y-115570000D01*
X74930000Y-115570000D02*
X75946000Y-116586000D01*
X51435000Y-116060000D02*
X51435000Y-113725306D01*
X51435000Y-113725306D02*
X51404847Y-113695153D01*
D20*
X63653142Y-101817142D02*
X61939142Y-101817142D01*
X61939142Y-101817142D02*
X61468000Y-101346000D01*
D19*
X53975000Y-104470000D02*
X53670000Y-104775000D01*
X52958989Y-101980989D02*
X53670000Y-102692000D01*
X53670000Y-102692000D02*
X53670000Y-104775000D01*
X52958989Y-100563989D02*
X52958989Y-101980989D01*
X52705000Y-99060000D02*
X52705000Y-100310000D01*
X52705000Y-100310000D02*
X52958989Y-100563989D01*
D20*
X67290998Y-105326959D02*
X67290998Y-108458000D01*
D18*
X66675000Y-116060000D02*
X66675000Y-114806000D01*
X66675000Y-114806000D02*
X66748001Y-114732999D01*
D19*
X69391878Y-115471876D02*
X69391878Y-116886441D01*
X66675000Y-114806000D02*
X66746001Y-114734999D01*
X68655001Y-114734999D02*
X69391878Y-115471876D01*
X66746001Y-114734999D02*
X68655001Y-114734999D01*
D18*
X77049999Y-101512001D02*
X76200000Y-102362000D01*
X77377001Y-101184999D02*
X77049999Y-101512001D01*
X77377001Y-98710399D02*
X77377001Y-101184999D01*
X76857591Y-98190989D02*
X77377001Y-98710399D01*
X70836342Y-98190989D02*
X76857591Y-98190989D01*
X68640331Y-100387001D02*
X70836342Y-98190989D01*
X67737330Y-100387001D02*
X68640331Y-100387001D01*
D19*
X64135000Y-115294998D02*
X66061987Y-113368011D01*
X64135000Y-116060000D02*
X64135000Y-115294998D01*
X67737330Y-100389830D02*
X67737330Y-100387001D01*
X66061987Y-102065173D02*
X67737330Y-100389830D01*
X66061987Y-113368011D02*
X66061987Y-102065173D01*
D18*
X73918999Y-98644999D02*
X75096000Y-99822000D01*
X75096000Y-99822000D02*
X76200000Y-99822000D01*
X71024399Y-98644999D02*
X73918999Y-98644999D01*
X68704398Y-100965000D02*
X71024399Y-98644999D01*
X67801398Y-100965000D02*
X68704398Y-100965000D01*
D19*
X67801398Y-100968600D02*
X67801398Y-100965000D01*
X66511997Y-113703003D02*
X66511997Y-102258001D01*
X66511997Y-102258001D02*
X67801398Y-100968600D01*
X65405000Y-114810000D02*
X66511997Y-113703003D01*
X65405000Y-116060000D02*
X65405000Y-114810000D01*
D18*
X68945000Y-113290000D02*
X68787999Y-113290000D01*
D19*
X68945000Y-114157000D02*
X68945000Y-113290000D01*
X70104000Y-115316000D02*
X68945000Y-114157000D01*
D18*
X53975000Y-99060000D02*
X53975000Y-99828602D01*
X56515000Y-112395000D02*
X58420000Y-114300000D01*
D19*
X53408999Y-100677999D02*
X53408999Y-101668999D01*
X53975000Y-99060000D02*
X53975000Y-100111998D01*
X53975000Y-100111998D02*
X53408999Y-100677999D01*
X55545388Y-111933388D02*
X56053388Y-111933388D01*
X56053388Y-111933388D02*
X56515000Y-112395000D01*
X55127571Y-111515571D02*
X55545388Y-111933388D01*
X55127571Y-103387571D02*
X55127571Y-111515571D01*
X53408999Y-101668999D02*
X55127571Y-103387571D01*
X68090000Y-116205000D02*
X67945000Y-116060000D01*
X68660003Y-116205000D02*
X68090000Y-116205000D01*
X53975000Y-116060000D02*
X53975000Y-113665000D01*
X53975000Y-113665000D02*
X52705000Y-112395000D01*
X57785000Y-114810000D02*
X57785000Y-116060000D01*
X55370000Y-112395000D02*
X57785000Y-114810000D01*
X54610000Y-112395000D02*
X55370000Y-112395000D01*
X64135000Y-99060000D02*
X64135000Y-100310000D01*
X64059999Y-100385001D02*
X59765001Y-100385001D01*
X64135000Y-100310000D02*
X64059999Y-100385001D01*
X55852572Y-104067426D02*
X55852572Y-111195001D01*
X59765001Y-100385001D02*
X59534997Y-100385001D01*
X59534997Y-100385001D02*
X55852572Y-104067426D01*
D20*
X72136000Y-105664000D02*
X72136000Y-113030000D01*
D18*
X54533000Y-101026000D02*
X54134000Y-101026000D01*
X55245000Y-100314000D02*
X54533000Y-101026000D01*
X55245000Y-99060000D02*
X55245000Y-100314000D01*
G36*
X74530721Y-100334352D02*
G01*
X74554578Y-100363422D01*
X74583648Y-100387279D01*
X74670607Y-100458645D01*
X74711928Y-100480731D01*
X74711928Y-100672000D01*
X74724188Y-100796482D01*
X74760498Y-100916180D01*
X74819463Y-101026494D01*
X74898815Y-101123185D01*
X74995506Y-101202537D01*
X75105820Y-101261502D01*
X75174687Y-101282393D01*
X75144866Y-101306866D01*
X74959294Y-101532986D01*
X74821401Y-101790966D01*
X74736487Y-102070889D01*
X74707815Y-102362000D01*
X74736487Y-102653111D01*
X74821401Y-102933034D01*
X74959294Y-103191014D01*
X75144866Y-103417134D01*
X75370986Y-103602706D01*
X75425791Y-103632000D01*
X75370986Y-103661294D01*
X75144866Y-103846866D01*
X74959294Y-104072986D01*
X74821401Y-104330966D01*
X74736487Y-104610889D01*
X74707815Y-104902000D01*
X74736487Y-105193111D01*
X74821401Y-105473034D01*
X74959294Y-105731014D01*
X75144866Y-105957134D01*
X75370986Y-106142706D01*
X75425791Y-106172000D01*
X75370986Y-106201294D01*
X75144866Y-106386866D01*
X74959294Y-106612986D01*
X74821401Y-106870966D01*
X74736487Y-107150889D01*
X74707815Y-107442000D01*
X74736487Y-107733111D01*
X74821401Y-108013034D01*
X74959294Y-108271014D01*
X75144866Y-108497134D01*
X75370986Y-108682706D01*
X75435523Y-108717201D01*
X75318645Y-108786822D01*
X75102412Y-108981731D01*
X74928359Y-109215080D01*
X74803175Y-109477901D01*
X74758524Y-109625110D01*
X74879845Y-109855000D01*
X76073000Y-109855000D01*
X76073000Y-109835000D01*
X76327000Y-109835000D01*
X76327000Y-109855000D01*
X76347000Y-109855000D01*
X76347000Y-110109000D01*
X76327000Y-110109000D01*
X76327000Y-110129000D01*
X76073000Y-110129000D01*
X76073000Y-110109000D01*
X74879845Y-110109000D01*
X74758524Y-110338890D01*
X74803175Y-110486099D01*
X74928359Y-110748920D01*
X75102412Y-110982269D01*
X75318645Y-111177178D01*
X75435523Y-111246799D01*
X75370986Y-111281294D01*
X75144866Y-111466866D01*
X74959294Y-111692986D01*
X74821401Y-111950966D01*
X74736487Y-112230889D01*
X74707815Y-112522000D01*
X74736487Y-112813111D01*
X74821401Y-113093034D01*
X74959294Y-113351014D01*
X75144866Y-113577134D01*
X75370986Y-113762706D01*
X75628966Y-113900599D01*
X75908889Y-113985513D01*
X76127050Y-114007000D01*
X76272950Y-114007000D01*
X76491111Y-113985513D01*
X76771034Y-113900599D01*
X77029014Y-113762706D01*
X77255134Y-113577134D01*
X77318001Y-113500531D01*
X77318001Y-117450000D01*
X70260104Y-117450000D01*
X70309083Y-117376697D01*
X70387104Y-117188339D01*
X70426878Y-116988380D01*
X70426878Y-116784502D01*
X70387104Y-116584543D01*
X70309083Y-116396185D01*
X70270333Y-116338191D01*
X70405898Y-116311226D01*
X70594256Y-116233205D01*
X70649145Y-116196530D01*
X70647928Y-116420000D01*
X70660188Y-116544482D01*
X70696498Y-116664180D01*
X70755463Y-116774494D01*
X70834815Y-116871185D01*
X70931506Y-116950537D01*
X71041820Y-117009502D01*
X71161518Y-117045812D01*
X71286000Y-117058072D01*
X71850250Y-117055000D01*
X72009000Y-116896250D01*
X72009000Y-115697000D01*
X72263000Y-115697000D01*
X72263000Y-116896250D01*
X72421750Y-117055000D01*
X72986000Y-117058072D01*
X73110482Y-117045812D01*
X73230180Y-117009502D01*
X73340494Y-116950537D01*
X73437185Y-116871185D01*
X73516537Y-116774494D01*
X73575502Y-116664180D01*
X73611812Y-116544482D01*
X73624072Y-116420000D01*
X73621000Y-115855750D01*
X73462250Y-115697000D01*
X72263000Y-115697000D01*
X72009000Y-115697000D01*
X71989000Y-115697000D01*
X71989000Y-115443000D01*
X72009000Y-115443000D01*
X72009000Y-115423000D01*
X72263000Y-115423000D01*
X72263000Y-115443000D01*
X73462250Y-115443000D01*
X73621000Y-115284250D01*
X73624072Y-114720000D01*
X73611812Y-114595518D01*
X73575502Y-114475820D01*
X73516537Y-114365506D01*
X73437185Y-114268815D01*
X73340494Y-114189463D01*
X73230180Y-114130498D01*
X73161313Y-114109607D01*
X73191134Y-114085134D01*
X73376706Y-113859014D01*
X73514599Y-113601034D01*
X73599513Y-113321111D01*
X73628185Y-113030000D01*
X73599513Y-112738889D01*
X73514599Y-112458966D01*
X73376706Y-112200986D01*
X73191134Y-111974866D01*
X73025000Y-111838523D01*
X73025000Y-106196468D01*
X73053205Y-106154256D01*
X73131226Y-105965898D01*
X73171000Y-105765939D01*
X73171000Y-105562061D01*
X73131226Y-105362102D01*
X73053205Y-105173744D01*
X72939937Y-105004226D01*
X72795774Y-104860063D01*
X72626256Y-104746795D01*
X72437898Y-104668774D01*
X72237939Y-104629000D01*
X72034061Y-104629000D01*
X71834102Y-104668774D01*
X71645744Y-104746795D01*
X71476226Y-104860063D01*
X71332063Y-105004226D01*
X71218795Y-105173744D01*
X71140774Y-105362102D01*
X71101000Y-105562061D01*
X71101000Y-105765939D01*
X71140774Y-105965898D01*
X71218795Y-106154256D01*
X71247000Y-106196468D01*
X71247001Y-111838523D01*
X71080866Y-111974866D01*
X70895294Y-112200986D01*
X70757401Y-112458966D01*
X70672487Y-112738889D01*
X70643815Y-113030000D01*
X70672487Y-113321111D01*
X70757401Y-113601034D01*
X70895294Y-113859014D01*
X71080866Y-114085134D01*
X71110687Y-114109607D01*
X71041820Y-114130498D01*
X70931506Y-114189463D01*
X70834815Y-114268815D01*
X70755463Y-114365506D01*
X70699928Y-114469403D01*
X70594256Y-114398795D01*
X70405898Y-114320774D01*
X70259855Y-114291725D01*
X70299494Y-114270537D01*
X70396185Y-114191185D01*
X70475537Y-114094494D01*
X70534502Y-113984180D01*
X70570812Y-113864482D01*
X70583072Y-113740000D01*
X70583072Y-112840000D01*
X70570812Y-112715518D01*
X70552454Y-112655000D01*
X70570812Y-112594482D01*
X70583072Y-112470000D01*
X70583072Y-111570000D01*
X70570812Y-111445518D01*
X70552454Y-111385000D01*
X70570812Y-111324482D01*
X70583072Y-111200000D01*
X70583072Y-110300000D01*
X70570812Y-110175518D01*
X70552454Y-110115000D01*
X70570812Y-110054482D01*
X70583072Y-109930000D01*
X70583072Y-109030000D01*
X70570812Y-108905518D01*
X70552454Y-108845000D01*
X70570812Y-108784482D01*
X70583072Y-108660000D01*
X70583072Y-107760000D01*
X70570812Y-107635518D01*
X70552454Y-107575000D01*
X70570812Y-107514482D01*
X70583072Y-107390000D01*
X70583072Y-106490000D01*
X70570812Y-106365518D01*
X70552454Y-106305000D01*
X70570812Y-106244482D01*
X70583072Y-106120000D01*
X70583072Y-105220000D01*
X70570812Y-105095518D01*
X70552454Y-105035000D01*
X70570812Y-104974482D01*
X70583072Y-104850000D01*
X70583072Y-103950000D01*
X70570812Y-103825518D01*
X70552454Y-103765000D01*
X70570812Y-103704482D01*
X70583072Y-103580000D01*
X70583072Y-102680000D01*
X70570812Y-102555518D01*
X70552454Y-102495000D01*
X70570812Y-102434482D01*
X70583072Y-102310000D01*
X70580000Y-102145750D01*
X70421250Y-101987000D01*
X69072000Y-101987000D01*
X69072000Y-102007000D01*
X68818000Y-102007000D01*
X68818000Y-101987000D01*
X68798000Y-101987000D01*
X68798000Y-101733000D01*
X68818000Y-101733000D01*
X68818000Y-101719498D01*
X68853776Y-101715974D01*
X68863580Y-101713000D01*
X69072000Y-101713000D01*
X69072000Y-101733000D01*
X70421250Y-101733000D01*
X70580000Y-101574250D01*
X70583072Y-101410000D01*
X70570812Y-101285518D01*
X70534502Y-101165820D01*
X70475537Y-101055506D01*
X70396185Y-100958815D01*
X70299494Y-100879463D01*
X70189180Y-100820498D01*
X70069482Y-100784188D01*
X69972402Y-100774627D01*
X70798027Y-99949002D01*
X70809748Y-99949002D01*
X70651000Y-100107750D01*
X70647928Y-100672000D01*
X70660188Y-100796482D01*
X70696498Y-100916180D01*
X70755463Y-101026494D01*
X70834815Y-101123185D01*
X70931506Y-101202537D01*
X71041820Y-101261502D01*
X71110687Y-101282393D01*
X71080866Y-101306866D01*
X70895294Y-101532986D01*
X70757401Y-101790966D01*
X70672487Y-102070889D01*
X70643815Y-102362000D01*
X70672487Y-102653111D01*
X70757401Y-102933034D01*
X70895294Y-103191014D01*
X71080866Y-103417134D01*
X71306986Y-103602706D01*
X71564966Y-103740599D01*
X71844889Y-103825513D01*
X72063050Y-103847000D01*
X72208950Y-103847000D01*
X72427111Y-103825513D01*
X72707034Y-103740599D01*
X72965014Y-103602706D01*
X73191134Y-103417134D01*
X73376706Y-103191014D01*
X73514599Y-102933034D01*
X73599513Y-102653111D01*
X73628185Y-102362000D01*
X73599513Y-102070889D01*
X73514599Y-101790966D01*
X73376706Y-101532986D01*
X73191134Y-101306866D01*
X73161313Y-101282393D01*
X73230180Y-101261502D01*
X73340494Y-101202537D01*
X73437185Y-101123185D01*
X73516537Y-101026494D01*
X73575502Y-100916180D01*
X73611812Y-100796482D01*
X73624072Y-100672000D01*
X73621000Y-100107750D01*
X73462250Y-99949000D01*
X72263000Y-99949000D01*
X72263000Y-99969000D01*
X72009000Y-99969000D01*
X72009000Y-99949000D01*
X71989000Y-99949000D01*
X71989000Y-99695000D01*
X72009000Y-99695000D01*
X72009000Y-99675000D01*
X72263000Y-99675000D01*
X72263000Y-99695000D01*
X73462250Y-99695000D01*
X73621000Y-99536250D01*
X73621604Y-99425235D01*
X74530721Y-100334352D01*
X74530721Y-100334352D01*
G37*
X74530721Y-100334352D02*
X74554578Y-100363422D01*
X74583648Y-100387279D01*
X74670607Y-100458645D01*
X74711928Y-100480731D01*
X74711928Y-100672000D01*
X74724188Y-100796482D01*
X74760498Y-100916180D01*
X74819463Y-101026494D01*
X74898815Y-101123185D01*
X74995506Y-101202537D01*
X75105820Y-101261502D01*
X75174687Y-101282393D01*
X75144866Y-101306866D01*
X74959294Y-101532986D01*
X74821401Y-101790966D01*
X74736487Y-102070889D01*
X74707815Y-102362000D01*
X74736487Y-102653111D01*
X74821401Y-102933034D01*
X74959294Y-103191014D01*
X75144866Y-103417134D01*
X75370986Y-103602706D01*
X75425791Y-103632000D01*
X75370986Y-103661294D01*
X75144866Y-103846866D01*
X74959294Y-104072986D01*
X74821401Y-104330966D01*
X74736487Y-104610889D01*
X74707815Y-104902000D01*
X74736487Y-105193111D01*
X74821401Y-105473034D01*
X74959294Y-105731014D01*
X75144866Y-105957134D01*
X75370986Y-106142706D01*
X75425791Y-106172000D01*
X75370986Y-106201294D01*
X75144866Y-106386866D01*
X74959294Y-106612986D01*
X74821401Y-106870966D01*
X74736487Y-107150889D01*
X74707815Y-107442000D01*
X74736487Y-107733111D01*
X74821401Y-108013034D01*
X74959294Y-108271014D01*
X75144866Y-108497134D01*
X75370986Y-108682706D01*
X75435523Y-108717201D01*
X75318645Y-108786822D01*
X75102412Y-108981731D01*
X74928359Y-109215080D01*
X74803175Y-109477901D01*
X74758524Y-109625110D01*
X74879845Y-109855000D01*
X76073000Y-109855000D01*
X76073000Y-109835000D01*
X76327000Y-109835000D01*
X76327000Y-109855000D01*
X76347000Y-109855000D01*
X76347000Y-110109000D01*
X76327000Y-110109000D01*
X76327000Y-110129000D01*
X76073000Y-110129000D01*
X76073000Y-110109000D01*
X74879845Y-110109000D01*
X74758524Y-110338890D01*
X74803175Y-110486099D01*
X74928359Y-110748920D01*
X75102412Y-110982269D01*
X75318645Y-111177178D01*
X75435523Y-111246799D01*
X75370986Y-111281294D01*
X75144866Y-111466866D01*
X74959294Y-111692986D01*
X74821401Y-111950966D01*
X74736487Y-112230889D01*
X74707815Y-112522000D01*
X74736487Y-112813111D01*
X74821401Y-113093034D01*
X74959294Y-113351014D01*
X75144866Y-113577134D01*
X75370986Y-113762706D01*
X75628966Y-113900599D01*
X75908889Y-113985513D01*
X76127050Y-114007000D01*
X76272950Y-114007000D01*
X76491111Y-113985513D01*
X76771034Y-113900599D01*
X77029014Y-113762706D01*
X77255134Y-113577134D01*
X77318001Y-113500531D01*
X77318001Y-117450000D01*
X70260104Y-117450000D01*
X70309083Y-117376697D01*
X70387104Y-117188339D01*
X70426878Y-116988380D01*
X70426878Y-116784502D01*
X70387104Y-116584543D01*
X70309083Y-116396185D01*
X70270333Y-116338191D01*
X70405898Y-116311226D01*
X70594256Y-116233205D01*
X70649145Y-116196530D01*
X70647928Y-116420000D01*
X70660188Y-116544482D01*
X70696498Y-116664180D01*
X70755463Y-116774494D01*
X70834815Y-116871185D01*
X70931506Y-116950537D01*
X71041820Y-117009502D01*
X71161518Y-117045812D01*
X71286000Y-117058072D01*
X71850250Y-117055000D01*
X72009000Y-116896250D01*
X72009000Y-115697000D01*
X72263000Y-115697000D01*
X72263000Y-116896250D01*
X72421750Y-117055000D01*
X72986000Y-117058072D01*
X73110482Y-117045812D01*
X73230180Y-117009502D01*
X73340494Y-116950537D01*
X73437185Y-116871185D01*
X73516537Y-116774494D01*
X73575502Y-116664180D01*
X73611812Y-116544482D01*
X73624072Y-116420000D01*
X73621000Y-115855750D01*
X73462250Y-115697000D01*
X72263000Y-115697000D01*
X72009000Y-115697000D01*
X71989000Y-115697000D01*
X71989000Y-115443000D01*
X72009000Y-115443000D01*
X72009000Y-115423000D01*
X72263000Y-115423000D01*
X72263000Y-115443000D01*
X73462250Y-115443000D01*
X73621000Y-115284250D01*
X73624072Y-114720000D01*
X73611812Y-114595518D01*
X73575502Y-114475820D01*
X73516537Y-114365506D01*
X73437185Y-114268815D01*
X73340494Y-114189463D01*
X73230180Y-114130498D01*
X73161313Y-114109607D01*
X73191134Y-114085134D01*
X73376706Y-113859014D01*
X73514599Y-113601034D01*
X73599513Y-113321111D01*
X73628185Y-113030000D01*
X73599513Y-112738889D01*
X73514599Y-112458966D01*
X73376706Y-112200986D01*
X73191134Y-111974866D01*
X73025000Y-111838523D01*
X73025000Y-106196468D01*
X73053205Y-106154256D01*
X73131226Y-105965898D01*
X73171000Y-105765939D01*
X73171000Y-105562061D01*
X73131226Y-105362102D01*
X73053205Y-105173744D01*
X72939937Y-105004226D01*
X72795774Y-104860063D01*
X72626256Y-104746795D01*
X72437898Y-104668774D01*
X72237939Y-104629000D01*
X72034061Y-104629000D01*
X71834102Y-104668774D01*
X71645744Y-104746795D01*
X71476226Y-104860063D01*
X71332063Y-105004226D01*
X71218795Y-105173744D01*
X71140774Y-105362102D01*
X71101000Y-105562061D01*
X71101000Y-105765939D01*
X71140774Y-105965898D01*
X71218795Y-106154256D01*
X71247000Y-106196468D01*
X71247001Y-111838523D01*
X71080866Y-111974866D01*
X70895294Y-112200986D01*
X70757401Y-112458966D01*
X70672487Y-112738889D01*
X70643815Y-113030000D01*
X70672487Y-113321111D01*
X70757401Y-113601034D01*
X70895294Y-113859014D01*
X71080866Y-114085134D01*
X71110687Y-114109607D01*
X71041820Y-114130498D01*
X70931506Y-114189463D01*
X70834815Y-114268815D01*
X70755463Y-114365506D01*
X70699928Y-114469403D01*
X70594256Y-114398795D01*
X70405898Y-114320774D01*
X70259855Y-114291725D01*
X70299494Y-114270537D01*
X70396185Y-114191185D01*
X70475537Y-114094494D01*
X70534502Y-113984180D01*
X70570812Y-113864482D01*
X70583072Y-113740000D01*
X70583072Y-112840000D01*
X70570812Y-112715518D01*
X70552454Y-112655000D01*
X70570812Y-112594482D01*
X70583072Y-112470000D01*
X70583072Y-111570000D01*
X70570812Y-111445518D01*
X70552454Y-111385000D01*
X70570812Y-111324482D01*
X70583072Y-111200000D01*
X70583072Y-110300000D01*
X70570812Y-110175518D01*
X70552454Y-110115000D01*
X70570812Y-110054482D01*
X70583072Y-109930000D01*
X70583072Y-109030000D01*
X70570812Y-108905518D01*
X70552454Y-108845000D01*
X70570812Y-108784482D01*
X70583072Y-108660000D01*
X70583072Y-107760000D01*
X70570812Y-107635518D01*
X70552454Y-107575000D01*
X70570812Y-107514482D01*
X70583072Y-107390000D01*
X70583072Y-106490000D01*
X70570812Y-106365518D01*
X70552454Y-106305000D01*
X70570812Y-106244482D01*
X70583072Y-106120000D01*
X70583072Y-105220000D01*
X70570812Y-105095518D01*
X70552454Y-105035000D01*
X70570812Y-104974482D01*
X70583072Y-104850000D01*
X70583072Y-103950000D01*
X70570812Y-103825518D01*
X70552454Y-103765000D01*
X70570812Y-103704482D01*
X70583072Y-103580000D01*
X70583072Y-102680000D01*
X70570812Y-102555518D01*
X70552454Y-102495000D01*
X70570812Y-102434482D01*
X70583072Y-102310000D01*
X70580000Y-102145750D01*
X70421250Y-101987000D01*
X69072000Y-101987000D01*
X69072000Y-102007000D01*
X68818000Y-102007000D01*
X68818000Y-101987000D01*
X68798000Y-101987000D01*
X68798000Y-101733000D01*
X68818000Y-101733000D01*
X68818000Y-101719498D01*
X68853776Y-101715974D01*
X68863580Y-101713000D01*
X69072000Y-101713000D01*
X69072000Y-101733000D01*
X70421250Y-101733000D01*
X70580000Y-101574250D01*
X70583072Y-101410000D01*
X70570812Y-101285518D01*
X70534502Y-101165820D01*
X70475537Y-101055506D01*
X70396185Y-100958815D01*
X70299494Y-100879463D01*
X70189180Y-100820498D01*
X70069482Y-100784188D01*
X69972402Y-100774627D01*
X70798027Y-99949002D01*
X70809748Y-99949002D01*
X70651000Y-100107750D01*
X70647928Y-100672000D01*
X70660188Y-100796482D01*
X70696498Y-100916180D01*
X70755463Y-101026494D01*
X70834815Y-101123185D01*
X70931506Y-101202537D01*
X71041820Y-101261502D01*
X71110687Y-101282393D01*
X71080866Y-101306866D01*
X70895294Y-101532986D01*
X70757401Y-101790966D01*
X70672487Y-102070889D01*
X70643815Y-102362000D01*
X70672487Y-102653111D01*
X70757401Y-102933034D01*
X70895294Y-103191014D01*
X71080866Y-103417134D01*
X71306986Y-103602706D01*
X71564966Y-103740599D01*
X71844889Y-103825513D01*
X72063050Y-103847000D01*
X72208950Y-103847000D01*
X72427111Y-103825513D01*
X72707034Y-103740599D01*
X72965014Y-103602706D01*
X73191134Y-103417134D01*
X73376706Y-103191014D01*
X73514599Y-102933034D01*
X73599513Y-102653111D01*
X73628185Y-102362000D01*
X73599513Y-102070889D01*
X73514599Y-101790966D01*
X73376706Y-101532986D01*
X73191134Y-101306866D01*
X73161313Y-101282393D01*
X73230180Y-101261502D01*
X73340494Y-101202537D01*
X73437185Y-101123185D01*
X73516537Y-101026494D01*
X73575502Y-100916180D01*
X73611812Y-100796482D01*
X73624072Y-100672000D01*
X73621000Y-100107750D01*
X73462250Y-99949000D01*
X72263000Y-99949000D01*
X72263000Y-99969000D01*
X72009000Y-99969000D01*
X72009000Y-99949000D01*
X71989000Y-99949000D01*
X71989000Y-99695000D01*
X72009000Y-99695000D01*
X72009000Y-99675000D01*
X72263000Y-99675000D01*
X72263000Y-99695000D01*
X73462250Y-99695000D01*
X73621000Y-99536250D01*
X73621604Y-99425235D01*
X74530721Y-100334352D01*
G36*
X51562000Y-98933000D02*
G01*
X51582000Y-98933000D01*
X51582000Y-99187000D01*
X51562000Y-99187000D01*
X51562000Y-100536250D01*
X51720750Y-100695000D01*
X51885000Y-100698072D01*
X52009482Y-100685812D01*
X52039288Y-100676770D01*
X52070026Y-100734276D01*
X52141201Y-100821002D01*
X52165000Y-100850001D01*
X52193998Y-100873799D01*
X52198989Y-100878790D01*
X52198990Y-101943657D01*
X52195313Y-101980989D01*
X52198990Y-102018322D01*
X52204168Y-102070889D01*
X52209987Y-102129974D01*
X52253443Y-102273235D01*
X52324015Y-102405265D01*
X52382818Y-102476916D01*
X52418989Y-102520990D01*
X52447986Y-102544788D01*
X52910000Y-103006803D01*
X52910001Y-104071288D01*
X52866063Y-104115226D01*
X52752795Y-104284744D01*
X52674774Y-104473102D01*
X52635000Y-104673061D01*
X52635000Y-104876939D01*
X52674774Y-105076898D01*
X52752795Y-105265256D01*
X52866063Y-105434774D01*
X53010226Y-105578937D01*
X53179744Y-105692205D01*
X53368102Y-105770226D01*
X53568061Y-105810000D01*
X53771939Y-105810000D01*
X53971898Y-105770226D01*
X54160256Y-105692205D01*
X54329774Y-105578937D01*
X54367571Y-105541140D01*
X54367572Y-111387945D01*
X54308102Y-111399774D01*
X54119744Y-111477795D01*
X53950226Y-111591063D01*
X53806063Y-111735226D01*
X53692795Y-111904744D01*
X53657500Y-111989953D01*
X53622205Y-111904744D01*
X53508937Y-111735226D01*
X53364774Y-111591063D01*
X53195256Y-111477795D01*
X53006898Y-111399774D01*
X52806939Y-111360000D01*
X52603061Y-111360000D01*
X52403102Y-111399774D01*
X52214744Y-111477795D01*
X52045226Y-111591063D01*
X51901063Y-111735226D01*
X51787795Y-111904744D01*
X51709774Y-112093102D01*
X51670000Y-112293061D01*
X51670000Y-112496939D01*
X51709774Y-112696898D01*
X51787795Y-112885256D01*
X51901063Y-113054774D01*
X52045226Y-113198937D01*
X52214744Y-113312205D01*
X52403102Y-113390226D01*
X52603061Y-113430000D01*
X52665199Y-113430000D01*
X53215001Y-113979803D01*
X53215001Y-114427837D01*
X53155000Y-114421928D01*
X52255000Y-114421928D01*
X52130518Y-114434188D01*
X52070000Y-114452546D01*
X52009482Y-114434188D01*
X51885000Y-114421928D01*
X51720750Y-114425000D01*
X51562000Y-114583750D01*
X51562000Y-115933000D01*
X51582000Y-115933000D01*
X51582000Y-116187000D01*
X51562000Y-116187000D01*
X51562000Y-116207000D01*
X51308000Y-116207000D01*
X51308000Y-116187000D01*
X51288000Y-116187000D01*
X51288000Y-115933000D01*
X51308000Y-115933000D01*
X51308000Y-114583750D01*
X51149250Y-114425000D01*
X50985000Y-114421928D01*
X50927000Y-114427640D01*
X50927000Y-100692360D01*
X50985000Y-100698072D01*
X51149250Y-100695000D01*
X51308000Y-100536250D01*
X51308000Y-99187000D01*
X51288000Y-99187000D01*
X51288000Y-98933000D01*
X51308000Y-98933000D01*
X51308000Y-98913000D01*
X51562000Y-98913000D01*
X51562000Y-98933000D01*
X51562000Y-98933000D01*
G37*
X51562000Y-98933000D02*
X51582000Y-98933000D01*
X51582000Y-99187000D01*
X51562000Y-99187000D01*
X51562000Y-100536250D01*
X51720750Y-100695000D01*
X51885000Y-100698072D01*
X52009482Y-100685812D01*
X52039288Y-100676770D01*
X52070026Y-100734276D01*
X52141201Y-100821002D01*
X52165000Y-100850001D01*
X52193998Y-100873799D01*
X52198989Y-100878790D01*
X52198990Y-101943657D01*
X52195313Y-101980989D01*
X52198990Y-102018322D01*
X52204168Y-102070889D01*
X52209987Y-102129974D01*
X52253443Y-102273235D01*
X52324015Y-102405265D01*
X52382818Y-102476916D01*
X52418989Y-102520990D01*
X52447986Y-102544788D01*
X52910000Y-103006803D01*
X52910001Y-104071288D01*
X52866063Y-104115226D01*
X52752795Y-104284744D01*
X52674774Y-104473102D01*
X52635000Y-104673061D01*
X52635000Y-104876939D01*
X52674774Y-105076898D01*
X52752795Y-105265256D01*
X52866063Y-105434774D01*
X53010226Y-105578937D01*
X53179744Y-105692205D01*
X53368102Y-105770226D01*
X53568061Y-105810000D01*
X53771939Y-105810000D01*
X53971898Y-105770226D01*
X54160256Y-105692205D01*
X54329774Y-105578937D01*
X54367571Y-105541140D01*
X54367572Y-111387945D01*
X54308102Y-111399774D01*
X54119744Y-111477795D01*
X53950226Y-111591063D01*
X53806063Y-111735226D01*
X53692795Y-111904744D01*
X53657500Y-111989953D01*
X53622205Y-111904744D01*
X53508937Y-111735226D01*
X53364774Y-111591063D01*
X53195256Y-111477795D01*
X53006898Y-111399774D01*
X52806939Y-111360000D01*
X52603061Y-111360000D01*
X52403102Y-111399774D01*
X52214744Y-111477795D01*
X52045226Y-111591063D01*
X51901063Y-111735226D01*
X51787795Y-111904744D01*
X51709774Y-112093102D01*
X51670000Y-112293061D01*
X51670000Y-112496939D01*
X51709774Y-112696898D01*
X51787795Y-112885256D01*
X51901063Y-113054774D01*
X52045226Y-113198937D01*
X52214744Y-113312205D01*
X52403102Y-113390226D01*
X52603061Y-113430000D01*
X52665199Y-113430000D01*
X53215001Y-113979803D01*
X53215001Y-114427837D01*
X53155000Y-114421928D01*
X52255000Y-114421928D01*
X52130518Y-114434188D01*
X52070000Y-114452546D01*
X52009482Y-114434188D01*
X51885000Y-114421928D01*
X51720750Y-114425000D01*
X51562000Y-114583750D01*
X51562000Y-115933000D01*
X51582000Y-115933000D01*
X51582000Y-116187000D01*
X51562000Y-116187000D01*
X51562000Y-116207000D01*
X51308000Y-116207000D01*
X51308000Y-116187000D01*
X51288000Y-116187000D01*
X51288000Y-115933000D01*
X51308000Y-115933000D01*
X51308000Y-114583750D01*
X51149250Y-114425000D01*
X50985000Y-114421928D01*
X50927000Y-114427640D01*
X50927000Y-100692360D01*
X50985000Y-100698072D01*
X51149250Y-100695000D01*
X51308000Y-100536250D01*
X51308000Y-99187000D01*
X51288000Y-99187000D01*
X51288000Y-98933000D01*
X51308000Y-98933000D01*
X51308000Y-98913000D01*
X51562000Y-98913000D01*
X51562000Y-98933000D01*
G36*
X66100518Y-100685812D02*
G01*
X66225000Y-100698072D01*
X66354287Y-100698072D01*
X65550985Y-101501374D01*
X65521987Y-101525172D01*
X65498189Y-101554170D01*
X65498188Y-101554171D01*
X65427013Y-101640897D01*
X65356441Y-101772927D01*
X65339148Y-101829937D01*
X65312985Y-101916187D01*
X65302639Y-102021226D01*
X65298311Y-102065173D01*
X65301988Y-102102505D01*
X65301987Y-113053209D01*
X63933269Y-114421928D01*
X63685000Y-114421928D01*
X63560518Y-114434188D01*
X63500000Y-114452546D01*
X63439482Y-114434188D01*
X63315000Y-114421928D01*
X62415000Y-114421928D01*
X62290518Y-114434188D01*
X62230000Y-114452546D01*
X62169482Y-114434188D01*
X62045000Y-114421928D01*
X61145000Y-114421928D01*
X61020518Y-114434188D01*
X60960000Y-114452546D01*
X60899482Y-114434188D01*
X60775000Y-114421928D01*
X59875000Y-114421928D01*
X59750518Y-114434188D01*
X59690000Y-114452546D01*
X59629482Y-114434188D01*
X59505000Y-114421928D01*
X59451024Y-114421928D01*
X59455000Y-114401939D01*
X59455000Y-114198061D01*
X59415226Y-113998102D01*
X59337205Y-113809744D01*
X59223937Y-113640226D01*
X59079774Y-113496063D01*
X58910256Y-113382795D01*
X58721898Y-113304774D01*
X58521939Y-113265000D01*
X58462631Y-113265000D01*
X57550000Y-112352370D01*
X57550000Y-112293061D01*
X57510226Y-112093102D01*
X57432205Y-111904744D01*
X57318937Y-111735226D01*
X57174774Y-111591063D01*
X57005256Y-111477795D01*
X56863295Y-111418992D01*
X56887572Y-111296940D01*
X56887572Y-111093062D01*
X56847798Y-110893103D01*
X56769777Y-110704745D01*
X56656509Y-110535227D01*
X56612572Y-110491290D01*
X56612572Y-104382227D01*
X59849800Y-101145001D01*
X60452704Y-101145001D01*
X60433000Y-101244061D01*
X60433000Y-101447939D01*
X60472774Y-101647898D01*
X60550795Y-101836256D01*
X60664063Y-102005774D01*
X60808226Y-102149937D01*
X60977744Y-102263205D01*
X61166102Y-102341226D01*
X61215896Y-102351131D01*
X61279639Y-102414873D01*
X61307483Y-102448801D01*
X61442851Y-102559895D01*
X61597291Y-102642445D01*
X61663200Y-102662438D01*
X61764866Y-102693278D01*
X61798066Y-102696548D01*
X61895475Y-102706142D01*
X61895481Y-102706142D01*
X61939141Y-102710442D01*
X61982801Y-102706142D01*
X63120674Y-102706142D01*
X63162886Y-102734347D01*
X63351244Y-102812368D01*
X63551203Y-102852142D01*
X63755081Y-102852142D01*
X63955040Y-102812368D01*
X64143398Y-102734347D01*
X64312916Y-102621079D01*
X64457079Y-102476916D01*
X64570347Y-102307398D01*
X64648368Y-102119040D01*
X64688142Y-101919081D01*
X64688142Y-101715203D01*
X64648368Y-101515244D01*
X64570347Y-101326886D01*
X64457079Y-101157368D01*
X64377017Y-101077306D01*
X64484275Y-101019975D01*
X64600000Y-100925002D01*
X64623801Y-100896001D01*
X64646001Y-100873801D01*
X64675001Y-100850001D01*
X64769974Y-100734276D01*
X64800712Y-100676770D01*
X64830518Y-100685812D01*
X64955000Y-100698072D01*
X65855000Y-100698072D01*
X65979482Y-100685812D01*
X66040000Y-100667454D01*
X66100518Y-100685812D01*
X66100518Y-100685812D01*
G37*
X66100518Y-100685812D02*
X66225000Y-100698072D01*
X66354287Y-100698072D01*
X65550985Y-101501374D01*
X65521987Y-101525172D01*
X65498189Y-101554170D01*
X65498188Y-101554171D01*
X65427013Y-101640897D01*
X65356441Y-101772927D01*
X65339148Y-101829937D01*
X65312985Y-101916187D01*
X65302639Y-102021226D01*
X65298311Y-102065173D01*
X65301988Y-102102505D01*
X65301987Y-113053209D01*
X63933269Y-114421928D01*
X63685000Y-114421928D01*
X63560518Y-114434188D01*
X63500000Y-114452546D01*
X63439482Y-114434188D01*
X63315000Y-114421928D01*
X62415000Y-114421928D01*
X62290518Y-114434188D01*
X62230000Y-114452546D01*
X62169482Y-114434188D01*
X62045000Y-114421928D01*
X61145000Y-114421928D01*
X61020518Y-114434188D01*
X60960000Y-114452546D01*
X60899482Y-114434188D01*
X60775000Y-114421928D01*
X59875000Y-114421928D01*
X59750518Y-114434188D01*
X59690000Y-114452546D01*
X59629482Y-114434188D01*
X59505000Y-114421928D01*
X59451024Y-114421928D01*
X59455000Y-114401939D01*
X59455000Y-114198061D01*
X59415226Y-113998102D01*
X59337205Y-113809744D01*
X59223937Y-113640226D01*
X59079774Y-113496063D01*
X58910256Y-113382795D01*
X58721898Y-113304774D01*
X58521939Y-113265000D01*
X58462631Y-113265000D01*
X57550000Y-112352370D01*
X57550000Y-112293061D01*
X57510226Y-112093102D01*
X57432205Y-111904744D01*
X57318937Y-111735226D01*
X57174774Y-111591063D01*
X57005256Y-111477795D01*
X56863295Y-111418992D01*
X56887572Y-111296940D01*
X56887572Y-111093062D01*
X56847798Y-110893103D01*
X56769777Y-110704745D01*
X56656509Y-110535227D01*
X56612572Y-110491290D01*
X56612572Y-104382227D01*
X59849800Y-101145001D01*
X60452704Y-101145001D01*
X60433000Y-101244061D01*
X60433000Y-101447939D01*
X60472774Y-101647898D01*
X60550795Y-101836256D01*
X60664063Y-102005774D01*
X60808226Y-102149937D01*
X60977744Y-102263205D01*
X61166102Y-102341226D01*
X61215896Y-102351131D01*
X61279639Y-102414873D01*
X61307483Y-102448801D01*
X61442851Y-102559895D01*
X61597291Y-102642445D01*
X61663200Y-102662438D01*
X61764866Y-102693278D01*
X61798066Y-102696548D01*
X61895475Y-102706142D01*
X61895481Y-102706142D01*
X61939141Y-102710442D01*
X61982801Y-102706142D01*
X63120674Y-102706142D01*
X63162886Y-102734347D01*
X63351244Y-102812368D01*
X63551203Y-102852142D01*
X63755081Y-102852142D01*
X63955040Y-102812368D01*
X64143398Y-102734347D01*
X64312916Y-102621079D01*
X64457079Y-102476916D01*
X64570347Y-102307398D01*
X64648368Y-102119040D01*
X64688142Y-101919081D01*
X64688142Y-101715203D01*
X64648368Y-101515244D01*
X64570347Y-101326886D01*
X64457079Y-101157368D01*
X64377017Y-101077306D01*
X64484275Y-101019975D01*
X64600000Y-100925002D01*
X64623801Y-100896001D01*
X64646001Y-100873801D01*
X64675001Y-100850001D01*
X64769974Y-100734276D01*
X64800712Y-100676770D01*
X64830518Y-100685812D01*
X64955000Y-100698072D01*
X65855000Y-100698072D01*
X65979482Y-100685812D01*
X66040000Y-100667454D01*
X66100518Y-100685812D01*
G36*
X57210518Y-100685812D02*
G01*
X57335000Y-100698072D01*
X58147123Y-100698072D01*
X55804121Y-103041076D01*
X55762545Y-102963295D01*
X55667572Y-102847570D01*
X55638575Y-102823773D01*
X54704434Y-101889632D01*
X54793774Y-101829937D01*
X54937937Y-101685774D01*
X54950613Y-101666803D01*
X54958392Y-101662645D01*
X55074422Y-101567422D01*
X55098283Y-101538347D01*
X55757351Y-100879280D01*
X55786422Y-100855422D01*
X55881645Y-100739392D01*
X55914502Y-100677920D01*
X55940518Y-100685812D01*
X56065000Y-100698072D01*
X56965000Y-100698072D01*
X57089482Y-100685812D01*
X57150000Y-100667454D01*
X57210518Y-100685812D01*
X57210518Y-100685812D01*
G37*
X57210518Y-100685812D02*
X57335000Y-100698072D01*
X58147123Y-100698072D01*
X55804121Y-103041076D01*
X55762545Y-102963295D01*
X55667572Y-102847570D01*
X55638575Y-102823773D01*
X54704434Y-101889632D01*
X54793774Y-101829937D01*
X54937937Y-101685774D01*
X54950613Y-101666803D01*
X54958392Y-101662645D01*
X55074422Y-101567422D01*
X55098283Y-101538347D01*
X55757351Y-100879280D01*
X55786422Y-100855422D01*
X55881645Y-100739392D01*
X55914502Y-100677920D01*
X55940518Y-100685812D01*
X56065000Y-100698072D01*
X56965000Y-100698072D01*
X57089482Y-100685812D01*
X57150000Y-100667454D01*
X57210518Y-100685812D01*
M02*
