G04 #@! TF.GenerationSoftware,KiCad,Pcbnew,5.1.4*
G04 #@! TF.CreationDate,2019-11-23T01:56:27+01:00*
G04 #@! TF.ProjectId,antivol,616e7469-766f-46c2-9e6b-696361645f70,rev?*
G04 #@! TF.SameCoordinates,Original*
G04 #@! TF.FileFunction,Soldermask,Top*
G04 #@! TF.FilePolarity,Negative*
%FSLAX46Y46*%
G04 Gerber Fmt 4.6, Leading zero omitted, Abs format (unit mm)*
G04 Created by KiCad (PCBNEW 5.1.4) date 2019-11-23 01:56:27*
%MOMM*%
%LPD*%
G04 APERTURE LIST*
%ADD10C,0.100000*%
G04 APERTURE END LIST*
D10*
G36*
X54843642Y-115434781D02*
G01*
X54989414Y-115495162D01*
X54989416Y-115495163D01*
X55120608Y-115582822D01*
X55232178Y-115694392D01*
X55234980Y-115698586D01*
X55319838Y-115825586D01*
X55380219Y-115971358D01*
X55411000Y-116126107D01*
X55411000Y-116283893D01*
X55380219Y-116438642D01*
X55319838Y-116584414D01*
X55319837Y-116584416D01*
X55232178Y-116715608D01*
X55120608Y-116827178D01*
X54989416Y-116914837D01*
X54989415Y-116914838D01*
X54989414Y-116914838D01*
X54843642Y-116975219D01*
X54688893Y-117006000D01*
X54531107Y-117006000D01*
X54376358Y-116975219D01*
X54230586Y-116914838D01*
X54230585Y-116914838D01*
X54230584Y-116914837D01*
X54099392Y-116827178D01*
X53987822Y-116715608D01*
X53900163Y-116584416D01*
X53900162Y-116584414D01*
X53839781Y-116438642D01*
X53809000Y-116283893D01*
X53809000Y-116126107D01*
X53839781Y-115971358D01*
X53900162Y-115825586D01*
X53985020Y-115698586D01*
X53987822Y-115694392D01*
X54099392Y-115582822D01*
X54230584Y-115495163D01*
X54230586Y-115495162D01*
X54376358Y-115434781D01*
X54531107Y-115404000D01*
X54688893Y-115404000D01*
X54843642Y-115434781D01*
X54843642Y-115434781D01*
G37*
G36*
X52303642Y-115434781D02*
G01*
X52449414Y-115495162D01*
X52449416Y-115495163D01*
X52580608Y-115582822D01*
X52692178Y-115694392D01*
X52694980Y-115698586D01*
X52779838Y-115825586D01*
X52840219Y-115971358D01*
X52871000Y-116126107D01*
X52871000Y-116283893D01*
X52840219Y-116438642D01*
X52779838Y-116584414D01*
X52779837Y-116584416D01*
X52692178Y-116715608D01*
X52580608Y-116827178D01*
X52449416Y-116914837D01*
X52449415Y-116914838D01*
X52449414Y-116914838D01*
X52303642Y-116975219D01*
X52148893Y-117006000D01*
X51991107Y-117006000D01*
X51836358Y-116975219D01*
X51690586Y-116914838D01*
X51690585Y-116914838D01*
X51690584Y-116914837D01*
X51559392Y-116827178D01*
X51447822Y-116715608D01*
X51360163Y-116584416D01*
X51360162Y-116584414D01*
X51299781Y-116438642D01*
X51269000Y-116283893D01*
X51269000Y-116126107D01*
X51299781Y-115971358D01*
X51360162Y-115825586D01*
X51445020Y-115698586D01*
X51447822Y-115694392D01*
X51559392Y-115582822D01*
X51690584Y-115495163D01*
X51690586Y-115495162D01*
X51836358Y-115434781D01*
X51991107Y-115404000D01*
X52148893Y-115404000D01*
X52303642Y-115434781D01*
X52303642Y-115434781D01*
G37*
G36*
X65003642Y-115434781D02*
G01*
X65149414Y-115495162D01*
X65149416Y-115495163D01*
X65280608Y-115582822D01*
X65392178Y-115694392D01*
X65394980Y-115698586D01*
X65479838Y-115825586D01*
X65540219Y-115971358D01*
X65571000Y-116126107D01*
X65571000Y-116283893D01*
X65540219Y-116438642D01*
X65479838Y-116584414D01*
X65479837Y-116584416D01*
X65392178Y-116715608D01*
X65280608Y-116827178D01*
X65149416Y-116914837D01*
X65149415Y-116914838D01*
X65149414Y-116914838D01*
X65003642Y-116975219D01*
X64848893Y-117006000D01*
X64691107Y-117006000D01*
X64536358Y-116975219D01*
X64390586Y-116914838D01*
X64390585Y-116914838D01*
X64390584Y-116914837D01*
X64259392Y-116827178D01*
X64147822Y-116715608D01*
X64060163Y-116584416D01*
X64060162Y-116584414D01*
X63999781Y-116438642D01*
X63969000Y-116283893D01*
X63969000Y-116126107D01*
X63999781Y-115971358D01*
X64060162Y-115825586D01*
X64145020Y-115698586D01*
X64147822Y-115694392D01*
X64259392Y-115582822D01*
X64390584Y-115495163D01*
X64390586Y-115495162D01*
X64536358Y-115434781D01*
X64691107Y-115404000D01*
X64848893Y-115404000D01*
X65003642Y-115434781D01*
X65003642Y-115434781D01*
G37*
G36*
X59923642Y-115434781D02*
G01*
X60069414Y-115495162D01*
X60069416Y-115495163D01*
X60200608Y-115582822D01*
X60312178Y-115694392D01*
X60314980Y-115698586D01*
X60399838Y-115825586D01*
X60460219Y-115971358D01*
X60491000Y-116126107D01*
X60491000Y-116283893D01*
X60460219Y-116438642D01*
X60399838Y-116584414D01*
X60399837Y-116584416D01*
X60312178Y-116715608D01*
X60200608Y-116827178D01*
X60069416Y-116914837D01*
X60069415Y-116914838D01*
X60069414Y-116914838D01*
X59923642Y-116975219D01*
X59768893Y-117006000D01*
X59611107Y-117006000D01*
X59456358Y-116975219D01*
X59310586Y-116914838D01*
X59310585Y-116914838D01*
X59310584Y-116914837D01*
X59179392Y-116827178D01*
X59067822Y-116715608D01*
X58980163Y-116584416D01*
X58980162Y-116584414D01*
X58919781Y-116438642D01*
X58889000Y-116283893D01*
X58889000Y-116126107D01*
X58919781Y-115971358D01*
X58980162Y-115825586D01*
X59065020Y-115698586D01*
X59067822Y-115694392D01*
X59179392Y-115582822D01*
X59310584Y-115495163D01*
X59310586Y-115495162D01*
X59456358Y-115434781D01*
X59611107Y-115404000D01*
X59768893Y-115404000D01*
X59923642Y-115434781D01*
X59923642Y-115434781D01*
G37*
G36*
X57383642Y-115434781D02*
G01*
X57529414Y-115495162D01*
X57529416Y-115495163D01*
X57660608Y-115582822D01*
X57772178Y-115694392D01*
X57774980Y-115698586D01*
X57859838Y-115825586D01*
X57920219Y-115971358D01*
X57951000Y-116126107D01*
X57951000Y-116283893D01*
X57920219Y-116438642D01*
X57859838Y-116584414D01*
X57859837Y-116584416D01*
X57772178Y-116715608D01*
X57660608Y-116827178D01*
X57529416Y-116914837D01*
X57529415Y-116914838D01*
X57529414Y-116914838D01*
X57383642Y-116975219D01*
X57228893Y-117006000D01*
X57071107Y-117006000D01*
X56916358Y-116975219D01*
X56770586Y-116914838D01*
X56770585Y-116914838D01*
X56770584Y-116914837D01*
X56639392Y-116827178D01*
X56527822Y-116715608D01*
X56440163Y-116584416D01*
X56440162Y-116584414D01*
X56379781Y-116438642D01*
X56349000Y-116283893D01*
X56349000Y-116126107D01*
X56379781Y-115971358D01*
X56440162Y-115825586D01*
X56525020Y-115698586D01*
X56527822Y-115694392D01*
X56639392Y-115582822D01*
X56770584Y-115495163D01*
X56770586Y-115495162D01*
X56916358Y-115434781D01*
X57071107Y-115404000D01*
X57228893Y-115404000D01*
X57383642Y-115434781D01*
X57383642Y-115434781D01*
G37*
G36*
X62463642Y-115434781D02*
G01*
X62609414Y-115495162D01*
X62609416Y-115495163D01*
X62740608Y-115582822D01*
X62852178Y-115694392D01*
X62854980Y-115698586D01*
X62939838Y-115825586D01*
X63000219Y-115971358D01*
X63031000Y-116126107D01*
X63031000Y-116283893D01*
X63000219Y-116438642D01*
X62939838Y-116584414D01*
X62939837Y-116584416D01*
X62852178Y-116715608D01*
X62740608Y-116827178D01*
X62609416Y-116914837D01*
X62609415Y-116914838D01*
X62609414Y-116914838D01*
X62463642Y-116975219D01*
X62308893Y-117006000D01*
X62151107Y-117006000D01*
X61996358Y-116975219D01*
X61850586Y-116914838D01*
X61850585Y-116914838D01*
X61850584Y-116914837D01*
X61719392Y-116827178D01*
X61607822Y-116715608D01*
X61520163Y-116584416D01*
X61520162Y-116584414D01*
X61459781Y-116438642D01*
X61429000Y-116283893D01*
X61429000Y-116126107D01*
X61459781Y-115971358D01*
X61520162Y-115825586D01*
X61605020Y-115698586D01*
X61607822Y-115694392D01*
X61719392Y-115582822D01*
X61850584Y-115495163D01*
X61850586Y-115495162D01*
X61996358Y-115434781D01*
X62151107Y-115404000D01*
X62308893Y-115404000D01*
X62463642Y-115434781D01*
X62463642Y-115434781D01*
G37*
G36*
X67543642Y-115307781D02*
G01*
X67689414Y-115368162D01*
X67689416Y-115368163D01*
X67820608Y-115455822D01*
X67932178Y-115567392D01*
X68019837Y-115698584D01*
X68019838Y-115698586D01*
X68080219Y-115844358D01*
X68111000Y-115999107D01*
X68111000Y-116156893D01*
X68080219Y-116311642D01*
X68027613Y-116438643D01*
X68019837Y-116457416D01*
X67932178Y-116588608D01*
X67820608Y-116700178D01*
X67689416Y-116787837D01*
X67689415Y-116787838D01*
X67689414Y-116787838D01*
X67543642Y-116848219D01*
X67388893Y-116879000D01*
X67231107Y-116879000D01*
X67076358Y-116848219D01*
X66930586Y-116787838D01*
X66930585Y-116787838D01*
X66930584Y-116787837D01*
X66799392Y-116700178D01*
X66687822Y-116588608D01*
X66600163Y-116457416D01*
X66592387Y-116438643D01*
X66539781Y-116311642D01*
X66509000Y-116156893D01*
X66509000Y-115999107D01*
X66539781Y-115844358D01*
X66600162Y-115698586D01*
X66600163Y-115698584D01*
X66687822Y-115567392D01*
X66799392Y-115455822D01*
X66930584Y-115368163D01*
X66930586Y-115368162D01*
X67076358Y-115307781D01*
X67231107Y-115277000D01*
X67388893Y-115277000D01*
X67543642Y-115307781D01*
X67543642Y-115307781D01*
G37*
G36*
X73037000Y-116471000D02*
G01*
X71235000Y-116471000D01*
X71235000Y-114669000D01*
X73037000Y-114669000D01*
X73037000Y-116471000D01*
X73037000Y-116471000D01*
G37*
G36*
X62347968Y-113553565D02*
G01*
X62386638Y-113565296D01*
X62422277Y-113584346D01*
X62453517Y-113609983D01*
X62479154Y-113641223D01*
X62498204Y-113676862D01*
X62509935Y-113715532D01*
X62514500Y-113761888D01*
X62514500Y-114838112D01*
X62509935Y-114884468D01*
X62498204Y-114923138D01*
X62479154Y-114958777D01*
X62453517Y-114990017D01*
X62422277Y-115015654D01*
X62386638Y-115034704D01*
X62347968Y-115046435D01*
X62301612Y-115051000D01*
X61650388Y-115051000D01*
X61604032Y-115046435D01*
X61565362Y-115034704D01*
X61529723Y-115015654D01*
X61498483Y-114990017D01*
X61472846Y-114958777D01*
X61453796Y-114923138D01*
X61442065Y-114884468D01*
X61437500Y-114838112D01*
X61437500Y-113761888D01*
X61442065Y-113715532D01*
X61453796Y-113676862D01*
X61472846Y-113641223D01*
X61498483Y-113609983D01*
X61529723Y-113584346D01*
X61565362Y-113565296D01*
X61604032Y-113553565D01*
X61650388Y-113549000D01*
X62301612Y-113549000D01*
X62347968Y-113553565D01*
X62347968Y-113553565D01*
G37*
G36*
X60472968Y-113553565D02*
G01*
X60511638Y-113565296D01*
X60547277Y-113584346D01*
X60578517Y-113609983D01*
X60604154Y-113641223D01*
X60623204Y-113676862D01*
X60634935Y-113715532D01*
X60639500Y-113761888D01*
X60639500Y-114838112D01*
X60634935Y-114884468D01*
X60623204Y-114923138D01*
X60604154Y-114958777D01*
X60578517Y-114990017D01*
X60547277Y-115015654D01*
X60511638Y-115034704D01*
X60472968Y-115046435D01*
X60426612Y-115051000D01*
X59775388Y-115051000D01*
X59729032Y-115046435D01*
X59690362Y-115034704D01*
X59654723Y-115015654D01*
X59623483Y-114990017D01*
X59597846Y-114958777D01*
X59578796Y-114923138D01*
X59567065Y-114884468D01*
X59562500Y-114838112D01*
X59562500Y-113761888D01*
X59567065Y-113715532D01*
X59578796Y-113676862D01*
X59597846Y-113641223D01*
X59623483Y-113609983D01*
X59654723Y-113584346D01*
X59690362Y-113565296D01*
X59729032Y-113553565D01*
X59775388Y-113549000D01*
X60426612Y-113549000D01*
X60472968Y-113553565D01*
X60472968Y-113553565D01*
G37*
G36*
X54989591Y-113485585D02*
G01*
X55023569Y-113495893D01*
X55054890Y-113512634D01*
X55082339Y-113535161D01*
X55104866Y-113562610D01*
X55121607Y-113593931D01*
X55131915Y-113627909D01*
X55136000Y-113669390D01*
X55136000Y-114270610D01*
X55131915Y-114312091D01*
X55121607Y-114346069D01*
X55104866Y-114377390D01*
X55082339Y-114404839D01*
X55054890Y-114427366D01*
X55023569Y-114444107D01*
X54989591Y-114454415D01*
X54948110Y-114458500D01*
X54271890Y-114458500D01*
X54230409Y-114454415D01*
X54196431Y-114444107D01*
X54165110Y-114427366D01*
X54137661Y-114404839D01*
X54115134Y-114377390D01*
X54098393Y-114346069D01*
X54088085Y-114312091D01*
X54084000Y-114270610D01*
X54084000Y-113669390D01*
X54088085Y-113627909D01*
X54098393Y-113593931D01*
X54115134Y-113562610D01*
X54137661Y-113535161D01*
X54165110Y-113512634D01*
X54196431Y-113495893D01*
X54230409Y-113485585D01*
X54271890Y-113481500D01*
X54948110Y-113481500D01*
X54989591Y-113485585D01*
X54989591Y-113485585D01*
G37*
G36*
X56894591Y-113485585D02*
G01*
X56928569Y-113495893D01*
X56959890Y-113512634D01*
X56987339Y-113535161D01*
X57009866Y-113562610D01*
X57026607Y-113593931D01*
X57036915Y-113627909D01*
X57041000Y-113669390D01*
X57041000Y-114270610D01*
X57036915Y-114312091D01*
X57026607Y-114346069D01*
X57009866Y-114377390D01*
X56987339Y-114404839D01*
X56959890Y-114427366D01*
X56928569Y-114444107D01*
X56894591Y-114454415D01*
X56853110Y-114458500D01*
X56176890Y-114458500D01*
X56135409Y-114454415D01*
X56101431Y-114444107D01*
X56070110Y-114427366D01*
X56042661Y-114404839D01*
X56020134Y-114377390D01*
X56003393Y-114346069D01*
X55993085Y-114312091D01*
X55989000Y-114270610D01*
X55989000Y-113669390D01*
X55993085Y-113627909D01*
X56003393Y-113593931D01*
X56020134Y-113562610D01*
X56042661Y-113535161D01*
X56070110Y-113512634D01*
X56101431Y-113495893D01*
X56135409Y-113485585D01*
X56176890Y-113481500D01*
X56853110Y-113481500D01*
X56894591Y-113485585D01*
X56894591Y-113485585D01*
G37*
G36*
X53084591Y-113485585D02*
G01*
X53118569Y-113495893D01*
X53149890Y-113512634D01*
X53177339Y-113535161D01*
X53199866Y-113562610D01*
X53216607Y-113593931D01*
X53226915Y-113627909D01*
X53231000Y-113669390D01*
X53231000Y-114270610D01*
X53226915Y-114312091D01*
X53216607Y-114346069D01*
X53199866Y-114377390D01*
X53177339Y-114404839D01*
X53149890Y-114427366D01*
X53118569Y-114444107D01*
X53084591Y-114454415D01*
X53043110Y-114458500D01*
X52366890Y-114458500D01*
X52325409Y-114454415D01*
X52291431Y-114444107D01*
X52260110Y-114427366D01*
X52232661Y-114404839D01*
X52210134Y-114377390D01*
X52193393Y-114346069D01*
X52183085Y-114312091D01*
X52179000Y-114270610D01*
X52179000Y-113669390D01*
X52183085Y-113627909D01*
X52193393Y-113593931D01*
X52210134Y-113562610D01*
X52232661Y-113535161D01*
X52260110Y-113512634D01*
X52291431Y-113495893D01*
X52325409Y-113485585D01*
X52366890Y-113481500D01*
X53043110Y-113481500D01*
X53084591Y-113485585D01*
X53084591Y-113485585D01*
G37*
G36*
X69926468Y-113004065D02*
G01*
X69965138Y-113015796D01*
X70000777Y-113034846D01*
X70032017Y-113060483D01*
X70057654Y-113091723D01*
X70076704Y-113127362D01*
X70088435Y-113166032D01*
X70093000Y-113212388D01*
X70093000Y-113863612D01*
X70088435Y-113909968D01*
X70076704Y-113948638D01*
X70057654Y-113984277D01*
X70032017Y-114015517D01*
X70000779Y-114041153D01*
X69965138Y-114060204D01*
X69926468Y-114071935D01*
X69880112Y-114076500D01*
X68803888Y-114076500D01*
X68757532Y-114071935D01*
X68718862Y-114060204D01*
X68683221Y-114041153D01*
X68651983Y-114015517D01*
X68626346Y-113984277D01*
X68607296Y-113948638D01*
X68595565Y-113909968D01*
X68591000Y-113863612D01*
X68591000Y-113212388D01*
X68595565Y-113166032D01*
X68607296Y-113127362D01*
X68626346Y-113091723D01*
X68651983Y-113060483D01*
X68683223Y-113034846D01*
X68718862Y-113015796D01*
X68757532Y-113004065D01*
X68803888Y-112999500D01*
X69880112Y-112999500D01*
X69926468Y-113004065D01*
X69926468Y-113004065D01*
G37*
G36*
X72246443Y-112135519D02*
G01*
X72312627Y-112142037D01*
X72482466Y-112193557D01*
X72482468Y-112193558D01*
X72488786Y-112196935D01*
X72638991Y-112277222D01*
X72674729Y-112306552D01*
X72776186Y-112389814D01*
X72859448Y-112491271D01*
X72888778Y-112527009D01*
X72972443Y-112683534D01*
X73023963Y-112853373D01*
X73041359Y-113030000D01*
X73023963Y-113206627D01*
X72972443Y-113376466D01*
X72888778Y-113532991D01*
X72872325Y-113553039D01*
X72776186Y-113670186D01*
X72674729Y-113753448D01*
X72638991Y-113782778D01*
X72638989Y-113782779D01*
X72487763Y-113863612D01*
X72482466Y-113866443D01*
X72312627Y-113917963D01*
X72246443Y-113924481D01*
X72180260Y-113931000D01*
X72091740Y-113931000D01*
X72025557Y-113924481D01*
X71959373Y-113917963D01*
X71789534Y-113866443D01*
X71784238Y-113863612D01*
X71633011Y-113782779D01*
X71633009Y-113782778D01*
X71597271Y-113753448D01*
X71495814Y-113670186D01*
X71399675Y-113553039D01*
X71383222Y-113532991D01*
X71299557Y-113376466D01*
X71248037Y-113206627D01*
X71230641Y-113030000D01*
X71248037Y-112853373D01*
X71299557Y-112683534D01*
X71383222Y-112527009D01*
X71412552Y-112491271D01*
X71495814Y-112389814D01*
X71597271Y-112306552D01*
X71633009Y-112277222D01*
X71783214Y-112196935D01*
X71789532Y-112193558D01*
X71789534Y-112193557D01*
X71959373Y-112142037D01*
X72025557Y-112135519D01*
X72091740Y-112129000D01*
X72180260Y-112129000D01*
X72246443Y-112135519D01*
X72246443Y-112135519D01*
G37*
G36*
X65097000Y-113914000D02*
G01*
X63935000Y-113914000D01*
X63935000Y-111262000D01*
X65097000Y-111262000D01*
X65097000Y-113914000D01*
X65097000Y-113914000D01*
G37*
G36*
X67297000Y-113914000D02*
G01*
X66135000Y-113914000D01*
X66135000Y-113162000D01*
X67297000Y-113162000D01*
X67297000Y-113914000D01*
X67297000Y-113914000D01*
G37*
G36*
X76310442Y-111627518D02*
G01*
X76376627Y-111634037D01*
X76546466Y-111685557D01*
X76702991Y-111769222D01*
X76738729Y-111798552D01*
X76840186Y-111881814D01*
X76919155Y-111978039D01*
X76952778Y-112019009D01*
X77036443Y-112175534D01*
X77087963Y-112345373D01*
X77105359Y-112522000D01*
X77087963Y-112698627D01*
X77037522Y-112864908D01*
X77036442Y-112868468D01*
X77030916Y-112878807D01*
X76952778Y-113024991D01*
X76948667Y-113030000D01*
X76840186Y-113162186D01*
X76738729Y-113245448D01*
X76702991Y-113274778D01*
X76546466Y-113358443D01*
X76376627Y-113409963D01*
X76310442Y-113416482D01*
X76244260Y-113423000D01*
X76155740Y-113423000D01*
X76089558Y-113416482D01*
X76023373Y-113409963D01*
X75853534Y-113358443D01*
X75697009Y-113274778D01*
X75661271Y-113245448D01*
X75559814Y-113162186D01*
X75451333Y-113030000D01*
X75447222Y-113024991D01*
X75369084Y-112878807D01*
X75363558Y-112868468D01*
X75362478Y-112864908D01*
X75312037Y-112698627D01*
X75294641Y-112522000D01*
X75312037Y-112345373D01*
X75363557Y-112175534D01*
X75447222Y-112019009D01*
X75480845Y-111978039D01*
X75559814Y-111881814D01*
X75661271Y-111798552D01*
X75697009Y-111769222D01*
X75853534Y-111685557D01*
X76023373Y-111634037D01*
X76089558Y-111627518D01*
X76155740Y-111621000D01*
X76244260Y-111621000D01*
X76310442Y-111627518D01*
X76310442Y-111627518D01*
G37*
G36*
X62933807Y-109505498D02*
G01*
X62971818Y-109517029D01*
X63006842Y-109535749D01*
X63037549Y-109560951D01*
X63062751Y-109591658D01*
X63081471Y-109626682D01*
X63093002Y-109664693D01*
X63097500Y-109710363D01*
X63097500Y-112793637D01*
X63093002Y-112839307D01*
X63081471Y-112877318D01*
X63062751Y-112912342D01*
X63037549Y-112943049D01*
X63006842Y-112968251D01*
X62971818Y-112986971D01*
X62933807Y-112998502D01*
X62888137Y-113003000D01*
X62079863Y-113003000D01*
X62034193Y-112998502D01*
X61996182Y-112986971D01*
X61961158Y-112968251D01*
X61930451Y-112943049D01*
X61905249Y-112912342D01*
X61886529Y-112877318D01*
X61874998Y-112839307D01*
X61870500Y-112793637D01*
X61870500Y-109710363D01*
X61874998Y-109664693D01*
X61886529Y-109626682D01*
X61905249Y-109591658D01*
X61930451Y-109560951D01*
X61961158Y-109535749D01*
X61996182Y-109517029D01*
X62034193Y-109505498D01*
X62079863Y-109501000D01*
X62888137Y-109501000D01*
X62933807Y-109505498D01*
X62933807Y-109505498D01*
G37*
G36*
X58658807Y-109505498D02*
G01*
X58696818Y-109517029D01*
X58731842Y-109535749D01*
X58762549Y-109560951D01*
X58787751Y-109591658D01*
X58806471Y-109626682D01*
X58818002Y-109664693D01*
X58822500Y-109710363D01*
X58822500Y-112793637D01*
X58818002Y-112839307D01*
X58806471Y-112877318D01*
X58787751Y-112912342D01*
X58762549Y-112943049D01*
X58731842Y-112968251D01*
X58696818Y-112986971D01*
X58658807Y-112998502D01*
X58613137Y-113003000D01*
X57804863Y-113003000D01*
X57759193Y-112998502D01*
X57721182Y-112986971D01*
X57686158Y-112968251D01*
X57655451Y-112943049D01*
X57630249Y-112912342D01*
X57611529Y-112877318D01*
X57599998Y-112839307D01*
X57595500Y-112793637D01*
X57595500Y-109710363D01*
X57599998Y-109664693D01*
X57611529Y-109626682D01*
X57630249Y-109591658D01*
X57655451Y-109560951D01*
X57686158Y-109535749D01*
X57721182Y-109517029D01*
X57759193Y-109505498D01*
X57804863Y-109501000D01*
X58613137Y-109501000D01*
X58658807Y-109505498D01*
X58658807Y-109505498D01*
G37*
G36*
X54989591Y-111910585D02*
G01*
X55023569Y-111920893D01*
X55054890Y-111937634D01*
X55082339Y-111960161D01*
X55104866Y-111987610D01*
X55121607Y-112018931D01*
X55131915Y-112052909D01*
X55136000Y-112094390D01*
X55136000Y-112695610D01*
X55131915Y-112737091D01*
X55121607Y-112771069D01*
X55104866Y-112802390D01*
X55082339Y-112829839D01*
X55054890Y-112852366D01*
X55023569Y-112869107D01*
X54989591Y-112879415D01*
X54948110Y-112883500D01*
X54271890Y-112883500D01*
X54230409Y-112879415D01*
X54196431Y-112869107D01*
X54165110Y-112852366D01*
X54137661Y-112829839D01*
X54115134Y-112802390D01*
X54098393Y-112771069D01*
X54088085Y-112737091D01*
X54084000Y-112695610D01*
X54084000Y-112094390D01*
X54088085Y-112052909D01*
X54098393Y-112018931D01*
X54115134Y-111987610D01*
X54137661Y-111960161D01*
X54165110Y-111937634D01*
X54196431Y-111920893D01*
X54230409Y-111910585D01*
X54271890Y-111906500D01*
X54948110Y-111906500D01*
X54989591Y-111910585D01*
X54989591Y-111910585D01*
G37*
G36*
X53084591Y-111910585D02*
G01*
X53118569Y-111920893D01*
X53149890Y-111937634D01*
X53177339Y-111960161D01*
X53199866Y-111987610D01*
X53216607Y-112018931D01*
X53226915Y-112052909D01*
X53231000Y-112094390D01*
X53231000Y-112695610D01*
X53226915Y-112737091D01*
X53216607Y-112771069D01*
X53199866Y-112802390D01*
X53177339Y-112829839D01*
X53149890Y-112852366D01*
X53118569Y-112869107D01*
X53084591Y-112879415D01*
X53043110Y-112883500D01*
X52366890Y-112883500D01*
X52325409Y-112879415D01*
X52291431Y-112869107D01*
X52260110Y-112852366D01*
X52232661Y-112829839D01*
X52210134Y-112802390D01*
X52193393Y-112771069D01*
X52183085Y-112737091D01*
X52179000Y-112695610D01*
X52179000Y-112094390D01*
X52183085Y-112052909D01*
X52193393Y-112018931D01*
X52210134Y-111987610D01*
X52232661Y-111960161D01*
X52260110Y-111937634D01*
X52291431Y-111920893D01*
X52325409Y-111910585D01*
X52366890Y-111906500D01*
X53043110Y-111906500D01*
X53084591Y-111910585D01*
X53084591Y-111910585D01*
G37*
G36*
X56894591Y-111910585D02*
G01*
X56928569Y-111920893D01*
X56959890Y-111937634D01*
X56987339Y-111960161D01*
X57009866Y-111987610D01*
X57026607Y-112018931D01*
X57036915Y-112052909D01*
X57041000Y-112094390D01*
X57041000Y-112695610D01*
X57036915Y-112737091D01*
X57026607Y-112771069D01*
X57009866Y-112802390D01*
X56987339Y-112829839D01*
X56959890Y-112852366D01*
X56928569Y-112869107D01*
X56894591Y-112879415D01*
X56853110Y-112883500D01*
X56176890Y-112883500D01*
X56135409Y-112879415D01*
X56101431Y-112869107D01*
X56070110Y-112852366D01*
X56042661Y-112829839D01*
X56020134Y-112802390D01*
X56003393Y-112771069D01*
X55993085Y-112737091D01*
X55989000Y-112695610D01*
X55989000Y-112094390D01*
X55993085Y-112052909D01*
X56003393Y-112018931D01*
X56020134Y-111987610D01*
X56042661Y-111960161D01*
X56070110Y-111937634D01*
X56101431Y-111920893D01*
X56135409Y-111910585D01*
X56176890Y-111906500D01*
X56853110Y-111906500D01*
X56894591Y-111910585D01*
X56894591Y-111910585D01*
G37*
G36*
X69926468Y-111129065D02*
G01*
X69965138Y-111140796D01*
X70000777Y-111159846D01*
X70032017Y-111185483D01*
X70057654Y-111216723D01*
X70076704Y-111252362D01*
X70088435Y-111291032D01*
X70093000Y-111337388D01*
X70093000Y-111988612D01*
X70088435Y-112034968D01*
X70076704Y-112073638D01*
X70057654Y-112109277D01*
X70032017Y-112140517D01*
X70000777Y-112166154D01*
X69965138Y-112185204D01*
X69926468Y-112196935D01*
X69880112Y-112201500D01*
X68803888Y-112201500D01*
X68757532Y-112196935D01*
X68718862Y-112185204D01*
X68683223Y-112166154D01*
X68651983Y-112140517D01*
X68626346Y-112109277D01*
X68607296Y-112073638D01*
X68595565Y-112034968D01*
X68591000Y-111988612D01*
X68591000Y-111337388D01*
X68595565Y-111291032D01*
X68607296Y-111252362D01*
X68626346Y-111216723D01*
X68651983Y-111185483D01*
X68683223Y-111159846D01*
X68718862Y-111140796D01*
X68757532Y-111129065D01*
X68803888Y-111124500D01*
X69880112Y-111124500D01*
X69926468Y-111129065D01*
X69926468Y-111129065D01*
G37*
G36*
X67297000Y-112014000D02*
G01*
X66135000Y-112014000D01*
X66135000Y-111262000D01*
X67297000Y-111262000D01*
X67297000Y-112014000D01*
X67297000Y-112014000D01*
G37*
G36*
X73087000Y-110965000D02*
G01*
X71185000Y-110965000D01*
X71185000Y-108363000D01*
X73087000Y-108363000D01*
X73087000Y-110965000D01*
X73087000Y-110965000D01*
G37*
G36*
X76310443Y-109087519D02*
G01*
X76376627Y-109094037D01*
X76546466Y-109145557D01*
X76702991Y-109229222D01*
X76720998Y-109244000D01*
X76840186Y-109341814D01*
X76923448Y-109443271D01*
X76952778Y-109479009D01*
X76966937Y-109505498D01*
X77031712Y-109626682D01*
X77036443Y-109635534D01*
X77087963Y-109805373D01*
X77105359Y-109982000D01*
X77087963Y-110158627D01*
X77036443Y-110328466D01*
X76952778Y-110484991D01*
X76937746Y-110503307D01*
X76840186Y-110622186D01*
X76738729Y-110705448D01*
X76702991Y-110734778D01*
X76546466Y-110818443D01*
X76376627Y-110869963D01*
X76310442Y-110876482D01*
X76244260Y-110883000D01*
X76155740Y-110883000D01*
X76089558Y-110876482D01*
X76023373Y-110869963D01*
X75853534Y-110818443D01*
X75697009Y-110734778D01*
X75661271Y-110705448D01*
X75559814Y-110622186D01*
X75462254Y-110503307D01*
X75447222Y-110484991D01*
X75363557Y-110328466D01*
X75312037Y-110158627D01*
X75294641Y-109982000D01*
X75312037Y-109805373D01*
X75363557Y-109635534D01*
X75368289Y-109626682D01*
X75433063Y-109505498D01*
X75447222Y-109479009D01*
X75476552Y-109443271D01*
X75559814Y-109341814D01*
X75679002Y-109244000D01*
X75697009Y-109229222D01*
X75853534Y-109145557D01*
X76023373Y-109094037D01*
X76089557Y-109087519D01*
X76155740Y-109081000D01*
X76244260Y-109081000D01*
X76310443Y-109087519D01*
X76310443Y-109087519D01*
G37*
G36*
X66382091Y-109460085D02*
G01*
X66416069Y-109470393D01*
X66447390Y-109487134D01*
X66474839Y-109509661D01*
X66497366Y-109537110D01*
X66514107Y-109568431D01*
X66524415Y-109602409D01*
X66528500Y-109643890D01*
X66528500Y-110320110D01*
X66524415Y-110361591D01*
X66514107Y-110395569D01*
X66497366Y-110426890D01*
X66474839Y-110454339D01*
X66447390Y-110476866D01*
X66416069Y-110493607D01*
X66382091Y-110503915D01*
X66340610Y-110508000D01*
X65739390Y-110508000D01*
X65697909Y-110503915D01*
X65663931Y-110493607D01*
X65632610Y-110476866D01*
X65605161Y-110454339D01*
X65582634Y-110426890D01*
X65565893Y-110395569D01*
X65555585Y-110361591D01*
X65551500Y-110320110D01*
X65551500Y-109643890D01*
X65555585Y-109602409D01*
X65565893Y-109568431D01*
X65582634Y-109537110D01*
X65605161Y-109509661D01*
X65632610Y-109487134D01*
X65663931Y-109470393D01*
X65697909Y-109460085D01*
X65739390Y-109456000D01*
X66340610Y-109456000D01*
X66382091Y-109460085D01*
X66382091Y-109460085D01*
G37*
G36*
X64807091Y-109460085D02*
G01*
X64841069Y-109470393D01*
X64872390Y-109487134D01*
X64899839Y-109509661D01*
X64922366Y-109537110D01*
X64939107Y-109568431D01*
X64949415Y-109602409D01*
X64953500Y-109643890D01*
X64953500Y-110320110D01*
X64949415Y-110361591D01*
X64939107Y-110395569D01*
X64922366Y-110426890D01*
X64899839Y-110454339D01*
X64872390Y-110476866D01*
X64841069Y-110493607D01*
X64807091Y-110503915D01*
X64765610Y-110508000D01*
X64164390Y-110508000D01*
X64122909Y-110503915D01*
X64088931Y-110493607D01*
X64057610Y-110476866D01*
X64030161Y-110454339D01*
X64007634Y-110426890D01*
X63990893Y-110395569D01*
X63980585Y-110361591D01*
X63976500Y-110320110D01*
X63976500Y-109643890D01*
X63980585Y-109602409D01*
X63990893Y-109568431D01*
X64007634Y-109537110D01*
X64030161Y-109509661D01*
X64057610Y-109487134D01*
X64088931Y-109470393D01*
X64122909Y-109460085D01*
X64164390Y-109456000D01*
X64765610Y-109456000D01*
X64807091Y-109460085D01*
X64807091Y-109460085D01*
G37*
G36*
X70097000Y-110367000D02*
G01*
X69095000Y-110367000D01*
X69095000Y-109465000D01*
X70097000Y-109465000D01*
X70097000Y-110367000D01*
X70097000Y-110367000D01*
G37*
G36*
X55141553Y-108222934D02*
G01*
X55163164Y-108234485D01*
X55186613Y-108241598D01*
X55210999Y-108244000D01*
X55611000Y-108244000D01*
X55611000Y-110196000D01*
X55210999Y-110196000D01*
X55186613Y-110198402D01*
X55163164Y-110205515D01*
X55141553Y-110217066D01*
X55136759Y-110221000D01*
X54083241Y-110221000D01*
X54078447Y-110217066D01*
X54056836Y-110205515D01*
X54033387Y-110198402D01*
X54009001Y-110196000D01*
X53609000Y-110196000D01*
X53609000Y-108820999D01*
X54086000Y-108820999D01*
X54086000Y-109619001D01*
X54088402Y-109643387D01*
X54095515Y-109666836D01*
X54107066Y-109688447D01*
X54122611Y-109707389D01*
X54141553Y-109722934D01*
X54163164Y-109734485D01*
X54186613Y-109741598D01*
X54210999Y-109744000D01*
X55009001Y-109744000D01*
X55033387Y-109741598D01*
X55056836Y-109734485D01*
X55078447Y-109722934D01*
X55097389Y-109707389D01*
X55112934Y-109688447D01*
X55124485Y-109666836D01*
X55131598Y-109643387D01*
X55134000Y-109619001D01*
X55134000Y-108820999D01*
X55131598Y-108796613D01*
X55124485Y-108773164D01*
X55112934Y-108751553D01*
X55097389Y-108732611D01*
X55078447Y-108717066D01*
X55056836Y-108705515D01*
X55033387Y-108698402D01*
X55009001Y-108696000D01*
X54210999Y-108696000D01*
X54186613Y-108698402D01*
X54163164Y-108705515D01*
X54141553Y-108717066D01*
X54122611Y-108732611D01*
X54107066Y-108751553D01*
X54095515Y-108773164D01*
X54088402Y-108796613D01*
X54086000Y-108820999D01*
X53609000Y-108820999D01*
X53609000Y-108244000D01*
X54009001Y-108244000D01*
X54033387Y-108241598D01*
X54056836Y-108234485D01*
X54078447Y-108222934D01*
X54083241Y-108219000D01*
X55136759Y-108219000D01*
X55141553Y-108222934D01*
X55141553Y-108222934D01*
G37*
G36*
X68097000Y-109417000D02*
G01*
X67095000Y-109417000D01*
X67095000Y-108515000D01*
X68097000Y-108515000D01*
X68097000Y-109417000D01*
X68097000Y-109417000D01*
G37*
G36*
X66382091Y-107936085D02*
G01*
X66416069Y-107946393D01*
X66447390Y-107963134D01*
X66474839Y-107985661D01*
X66497366Y-108013110D01*
X66514107Y-108044431D01*
X66524415Y-108078409D01*
X66528500Y-108119890D01*
X66528500Y-108796110D01*
X66524415Y-108837591D01*
X66514107Y-108871569D01*
X66497366Y-108902890D01*
X66474839Y-108930339D01*
X66447390Y-108952866D01*
X66416069Y-108969607D01*
X66382091Y-108979915D01*
X66340610Y-108984000D01*
X65739390Y-108984000D01*
X65697909Y-108979915D01*
X65663931Y-108969607D01*
X65632610Y-108952866D01*
X65605161Y-108930339D01*
X65582634Y-108902890D01*
X65565893Y-108871569D01*
X65555585Y-108837591D01*
X65551500Y-108796110D01*
X65551500Y-108119890D01*
X65555585Y-108078409D01*
X65565893Y-108044431D01*
X65582634Y-108013110D01*
X65605161Y-107985661D01*
X65632610Y-107963134D01*
X65663931Y-107946393D01*
X65697909Y-107936085D01*
X65739390Y-107932000D01*
X66340610Y-107932000D01*
X66382091Y-107936085D01*
X66382091Y-107936085D01*
G37*
G36*
X64807091Y-107936085D02*
G01*
X64841069Y-107946393D01*
X64872390Y-107963134D01*
X64899839Y-107985661D01*
X64922366Y-108013110D01*
X64939107Y-108044431D01*
X64949415Y-108078409D01*
X64953500Y-108119890D01*
X64953500Y-108796110D01*
X64949415Y-108837591D01*
X64939107Y-108871569D01*
X64922366Y-108902890D01*
X64899839Y-108930339D01*
X64872390Y-108952866D01*
X64841069Y-108969607D01*
X64807091Y-108979915D01*
X64765610Y-108984000D01*
X64164390Y-108984000D01*
X64122909Y-108979915D01*
X64088931Y-108969607D01*
X64057610Y-108952866D01*
X64030161Y-108930339D01*
X64007634Y-108902890D01*
X63990893Y-108871569D01*
X63980585Y-108837591D01*
X63976500Y-108796110D01*
X63976500Y-108119890D01*
X63980585Y-108078409D01*
X63990893Y-108044431D01*
X64007634Y-108013110D01*
X64030161Y-107985661D01*
X64057610Y-107963134D01*
X64088931Y-107946393D01*
X64122909Y-107936085D01*
X64164390Y-107932000D01*
X64765610Y-107932000D01*
X64807091Y-107936085D01*
X64807091Y-107936085D01*
G37*
G36*
X70097000Y-108467000D02*
G01*
X69095000Y-108467000D01*
X69095000Y-107565000D01*
X70097000Y-107565000D01*
X70097000Y-108467000D01*
X70097000Y-108467000D01*
G37*
G36*
X76310443Y-106547519D02*
G01*
X76376627Y-106554037D01*
X76546466Y-106605557D01*
X76702991Y-106689222D01*
X76738729Y-106718552D01*
X76840186Y-106801814D01*
X76893277Y-106866507D01*
X76952778Y-106939009D01*
X77036443Y-107095534D01*
X77087963Y-107265373D01*
X77105359Y-107442000D01*
X77087963Y-107618627D01*
X77036443Y-107788466D01*
X76952778Y-107944991D01*
X76951627Y-107946393D01*
X76840186Y-108082186D01*
X76738729Y-108165448D01*
X76702991Y-108194778D01*
X76546466Y-108278443D01*
X76376627Y-108329963D01*
X76310442Y-108336482D01*
X76244260Y-108343000D01*
X76155740Y-108343000D01*
X76089558Y-108336482D01*
X76023373Y-108329963D01*
X75853534Y-108278443D01*
X75697009Y-108194778D01*
X75661271Y-108165448D01*
X75559814Y-108082186D01*
X75448373Y-107946393D01*
X75447222Y-107944991D01*
X75363557Y-107788466D01*
X75312037Y-107618627D01*
X75294641Y-107442000D01*
X75312037Y-107265373D01*
X75363557Y-107095534D01*
X75447222Y-106939009D01*
X75506723Y-106866507D01*
X75559814Y-106801814D01*
X75661271Y-106718552D01*
X75697009Y-106689222D01*
X75853534Y-106605557D01*
X76023373Y-106554037D01*
X76089557Y-106547519D01*
X76155740Y-106541000D01*
X76244260Y-106541000D01*
X76310443Y-106547519D01*
X76310443Y-106547519D01*
G37*
G36*
X59251506Y-105549581D02*
G01*
X59363528Y-105595982D01*
X59442740Y-105628793D01*
X59508900Y-105673000D01*
X59606843Y-105738443D01*
X59614846Y-105743791D01*
X59761209Y-105890154D01*
X59876207Y-106062260D01*
X59876207Y-106062261D01*
X59955419Y-106253494D01*
X59995800Y-106456504D01*
X59995800Y-106663496D01*
X59955419Y-106866506D01*
X59925387Y-106939009D01*
X59876207Y-107057740D01*
X59824943Y-107134461D01*
X59777143Y-107206000D01*
X59761209Y-107229846D01*
X59614846Y-107376209D01*
X59442740Y-107491207D01*
X59363528Y-107524018D01*
X59251506Y-107570419D01*
X59048496Y-107610800D01*
X58841504Y-107610800D01*
X58638494Y-107570419D01*
X58526472Y-107524018D01*
X58447260Y-107491207D01*
X58275154Y-107376209D01*
X58128791Y-107229846D01*
X58112858Y-107206000D01*
X58065057Y-107134461D01*
X58013793Y-107057740D01*
X57964613Y-106939009D01*
X57934581Y-106866506D01*
X57894200Y-106663496D01*
X57894200Y-106456504D01*
X57934581Y-106253494D01*
X58013793Y-106062261D01*
X58013793Y-106062260D01*
X58128791Y-105890154D01*
X58275154Y-105743791D01*
X58283158Y-105738443D01*
X58381100Y-105673000D01*
X58447260Y-105628793D01*
X58526472Y-105595982D01*
X58638494Y-105549581D01*
X58841504Y-105509200D01*
X59048496Y-105509200D01*
X59251506Y-105549581D01*
X59251506Y-105549581D01*
G37*
G36*
X64959000Y-107473000D02*
G01*
X63057000Y-107473000D01*
X63057000Y-104871000D01*
X64959000Y-104871000D01*
X64959000Y-107473000D01*
X64959000Y-107473000D01*
G37*
G36*
X55587091Y-106158085D02*
G01*
X55621069Y-106168393D01*
X55652390Y-106185134D01*
X55679839Y-106207661D01*
X55702366Y-106235110D01*
X55719107Y-106266431D01*
X55729415Y-106300409D01*
X55733500Y-106341890D01*
X55733500Y-107018110D01*
X55729415Y-107059591D01*
X55719107Y-107093569D01*
X55702366Y-107124890D01*
X55679839Y-107152339D01*
X55652390Y-107174866D01*
X55621069Y-107191607D01*
X55587091Y-107201915D01*
X55545610Y-107206000D01*
X54944390Y-107206000D01*
X54902909Y-107201915D01*
X54868931Y-107191607D01*
X54837610Y-107174866D01*
X54810161Y-107152339D01*
X54787634Y-107124890D01*
X54770893Y-107093569D01*
X54760585Y-107059591D01*
X54756500Y-107018110D01*
X54756500Y-106341890D01*
X54760585Y-106300409D01*
X54770893Y-106266431D01*
X54787634Y-106235110D01*
X54810161Y-106207661D01*
X54837610Y-106185134D01*
X54868931Y-106168393D01*
X54902909Y-106158085D01*
X54944390Y-106154000D01*
X55545610Y-106154000D01*
X55587091Y-106158085D01*
X55587091Y-106158085D01*
G37*
G36*
X54012091Y-106158085D02*
G01*
X54046069Y-106168393D01*
X54077390Y-106185134D01*
X54104839Y-106207661D01*
X54127366Y-106235110D01*
X54144107Y-106266431D01*
X54154415Y-106300409D01*
X54158500Y-106341890D01*
X54158500Y-107018110D01*
X54154415Y-107059591D01*
X54144107Y-107093569D01*
X54127366Y-107124890D01*
X54104839Y-107152339D01*
X54077390Y-107174866D01*
X54046069Y-107191607D01*
X54012091Y-107201915D01*
X53970610Y-107206000D01*
X53369390Y-107206000D01*
X53327909Y-107201915D01*
X53293931Y-107191607D01*
X53262610Y-107174866D01*
X53235161Y-107152339D01*
X53212634Y-107124890D01*
X53195893Y-107093569D01*
X53185585Y-107059591D01*
X53181500Y-107018110D01*
X53181500Y-106341890D01*
X53185585Y-106300409D01*
X53195893Y-106266431D01*
X53212634Y-106235110D01*
X53235161Y-106207661D01*
X53262610Y-106185134D01*
X53293931Y-106168393D01*
X53327909Y-106158085D01*
X53369390Y-106154000D01*
X53970610Y-106154000D01*
X54012091Y-106158085D01*
X54012091Y-106158085D01*
G37*
G36*
X73087000Y-106965000D02*
G01*
X71185000Y-106965000D01*
X71185000Y-104363000D01*
X73087000Y-104363000D01*
X73087000Y-106965000D01*
X73087000Y-106965000D01*
G37*
G36*
X70097000Y-106623000D02*
G01*
X69095000Y-106623000D01*
X69095000Y-105721000D01*
X70097000Y-105721000D01*
X70097000Y-106623000D01*
X70097000Y-106623000D01*
G37*
G36*
X76310443Y-104007519D02*
G01*
X76376627Y-104014037D01*
X76546466Y-104065557D01*
X76702991Y-104149222D01*
X76738729Y-104178552D01*
X76840186Y-104261814D01*
X76896234Y-104330110D01*
X76952778Y-104399009D01*
X77036443Y-104555534D01*
X77087963Y-104725373D01*
X77105359Y-104902000D01*
X77087963Y-105078627D01*
X77036443Y-105248466D01*
X77036442Y-105248468D01*
X77016056Y-105286607D01*
X76952778Y-105404991D01*
X76923448Y-105440729D01*
X76840186Y-105542186D01*
X76738729Y-105625448D01*
X76702991Y-105654778D01*
X76546466Y-105738443D01*
X76376627Y-105789963D01*
X76310442Y-105796482D01*
X76244260Y-105803000D01*
X76155740Y-105803000D01*
X76089558Y-105796482D01*
X76023373Y-105789963D01*
X75853534Y-105738443D01*
X75697009Y-105654778D01*
X75661271Y-105625448D01*
X75559814Y-105542186D01*
X75476552Y-105440729D01*
X75447222Y-105404991D01*
X75383944Y-105286607D01*
X75363558Y-105248468D01*
X75363557Y-105248466D01*
X75312037Y-105078627D01*
X75294641Y-104902000D01*
X75312037Y-104725373D01*
X75363557Y-104555534D01*
X75447222Y-104399009D01*
X75503766Y-104330110D01*
X75559814Y-104261814D01*
X75661271Y-104178552D01*
X75697009Y-104149222D01*
X75853534Y-104065557D01*
X76023373Y-104014037D01*
X76089558Y-104007518D01*
X76155740Y-104001000D01*
X76244260Y-104001000D01*
X76310443Y-104007519D01*
X76310443Y-104007519D01*
G37*
G36*
X68097000Y-105673000D02*
G01*
X67095000Y-105673000D01*
X67095000Y-104771000D01*
X68097000Y-104771000D01*
X68097000Y-105673000D01*
X68097000Y-105673000D01*
G37*
G36*
X55587091Y-104253085D02*
G01*
X55621069Y-104263393D01*
X55652390Y-104280134D01*
X55679839Y-104302661D01*
X55702366Y-104330110D01*
X55719107Y-104361431D01*
X55729415Y-104395409D01*
X55733500Y-104436890D01*
X55733500Y-105113110D01*
X55729415Y-105154591D01*
X55719107Y-105188569D01*
X55702366Y-105219890D01*
X55679839Y-105247339D01*
X55652390Y-105269866D01*
X55621069Y-105286607D01*
X55587091Y-105296915D01*
X55545610Y-105301000D01*
X54944390Y-105301000D01*
X54902909Y-105296915D01*
X54868931Y-105286607D01*
X54837610Y-105269866D01*
X54810161Y-105247339D01*
X54787634Y-105219890D01*
X54770893Y-105188569D01*
X54760585Y-105154591D01*
X54756500Y-105113110D01*
X54756500Y-104436890D01*
X54760585Y-104395409D01*
X54770893Y-104361431D01*
X54787634Y-104330110D01*
X54810161Y-104302661D01*
X54837610Y-104280134D01*
X54868931Y-104263393D01*
X54902909Y-104253085D01*
X54944390Y-104249000D01*
X55545610Y-104249000D01*
X55587091Y-104253085D01*
X55587091Y-104253085D01*
G37*
G36*
X54012091Y-104253085D02*
G01*
X54046069Y-104263393D01*
X54077390Y-104280134D01*
X54104839Y-104302661D01*
X54127366Y-104330110D01*
X54144107Y-104361431D01*
X54154415Y-104395409D01*
X54158500Y-104436890D01*
X54158500Y-105113110D01*
X54154415Y-105154591D01*
X54144107Y-105188569D01*
X54127366Y-105219890D01*
X54104839Y-105247339D01*
X54077390Y-105269866D01*
X54046069Y-105286607D01*
X54012091Y-105296915D01*
X53970610Y-105301000D01*
X53369390Y-105301000D01*
X53327909Y-105296915D01*
X53293931Y-105286607D01*
X53262610Y-105269866D01*
X53235161Y-105247339D01*
X53212634Y-105219890D01*
X53195893Y-105188569D01*
X53185585Y-105154591D01*
X53181500Y-105113110D01*
X53181500Y-104436890D01*
X53185585Y-104395409D01*
X53195893Y-104361431D01*
X53212634Y-104330110D01*
X53235161Y-104302661D01*
X53262610Y-104280134D01*
X53293931Y-104263393D01*
X53327909Y-104253085D01*
X53369390Y-104249000D01*
X53970610Y-104249000D01*
X54012091Y-104253085D01*
X54012091Y-104253085D01*
G37*
G36*
X70097000Y-104723000D02*
G01*
X69095000Y-104723000D01*
X69095000Y-103821000D01*
X70097000Y-103821000D01*
X70097000Y-104723000D01*
X70097000Y-104723000D01*
G37*
G36*
X64959000Y-103473000D02*
G01*
X63057000Y-103473000D01*
X63057000Y-100871000D01*
X64959000Y-100871000D01*
X64959000Y-103473000D01*
X64959000Y-103473000D01*
G37*
G36*
X72246442Y-101467518D02*
G01*
X72312627Y-101474037D01*
X72482466Y-101525557D01*
X72638991Y-101609222D01*
X72674729Y-101638552D01*
X72776186Y-101721814D01*
X72859448Y-101823271D01*
X72888778Y-101859009D01*
X72972443Y-102015534D01*
X73023963Y-102185373D01*
X73041359Y-102362000D01*
X73023963Y-102538627D01*
X72972443Y-102708466D01*
X72888778Y-102864991D01*
X72873746Y-102883307D01*
X72776186Y-103002186D01*
X72674729Y-103085448D01*
X72638991Y-103114778D01*
X72482466Y-103198443D01*
X72312627Y-103249963D01*
X72246442Y-103256482D01*
X72180260Y-103263000D01*
X72091740Y-103263000D01*
X72025558Y-103256482D01*
X71959373Y-103249963D01*
X71789534Y-103198443D01*
X71633009Y-103114778D01*
X71597271Y-103085448D01*
X71495814Y-103002186D01*
X71398254Y-102883307D01*
X71383222Y-102864991D01*
X71299557Y-102708466D01*
X71248037Y-102538627D01*
X71230641Y-102362000D01*
X71248037Y-102185373D01*
X71299557Y-102015534D01*
X71383222Y-101859009D01*
X71412552Y-101823271D01*
X71495814Y-101721814D01*
X71597271Y-101638552D01*
X71633009Y-101609222D01*
X71789534Y-101525557D01*
X71959373Y-101474037D01*
X72025558Y-101467518D01*
X72091740Y-101461000D01*
X72180260Y-101461000D01*
X72246442Y-101467518D01*
X72246442Y-101467518D01*
G37*
G36*
X76310442Y-101467518D02*
G01*
X76376627Y-101474037D01*
X76546466Y-101525557D01*
X76702991Y-101609222D01*
X76738729Y-101638552D01*
X76840186Y-101721814D01*
X76923448Y-101823271D01*
X76952778Y-101859009D01*
X77036443Y-102015534D01*
X77087963Y-102185373D01*
X77105359Y-102362000D01*
X77087963Y-102538627D01*
X77036443Y-102708466D01*
X76952778Y-102864991D01*
X76937746Y-102883307D01*
X76840186Y-103002186D01*
X76738729Y-103085448D01*
X76702991Y-103114778D01*
X76546466Y-103198443D01*
X76376627Y-103249963D01*
X76310442Y-103256482D01*
X76244260Y-103263000D01*
X76155740Y-103263000D01*
X76089558Y-103256482D01*
X76023373Y-103249963D01*
X75853534Y-103198443D01*
X75697009Y-103114778D01*
X75661271Y-103085448D01*
X75559814Y-103002186D01*
X75462254Y-102883307D01*
X75447222Y-102864991D01*
X75363557Y-102708466D01*
X75312037Y-102538627D01*
X75294641Y-102362000D01*
X75312037Y-102185373D01*
X75363557Y-102015534D01*
X75447222Y-101859009D01*
X75476552Y-101823271D01*
X75559814Y-101721814D01*
X75661271Y-101638552D01*
X75697009Y-101609222D01*
X75853534Y-101525557D01*
X76023373Y-101474037D01*
X76089558Y-101467518D01*
X76155740Y-101461000D01*
X76244260Y-101461000D01*
X76310442Y-101467518D01*
X76310442Y-101467518D01*
G37*
G36*
X66839091Y-101840085D02*
G01*
X66873069Y-101850393D01*
X66904390Y-101867134D01*
X66931839Y-101889661D01*
X66954366Y-101917110D01*
X66971107Y-101948431D01*
X66981415Y-101982409D01*
X66985500Y-102023890D01*
X66985500Y-102700110D01*
X66981415Y-102741591D01*
X66971107Y-102775569D01*
X66954366Y-102806890D01*
X66931839Y-102834339D01*
X66904390Y-102856866D01*
X66873069Y-102873607D01*
X66839091Y-102883915D01*
X66797610Y-102888000D01*
X66196390Y-102888000D01*
X66154909Y-102883915D01*
X66120931Y-102873607D01*
X66089610Y-102856866D01*
X66062161Y-102834339D01*
X66039634Y-102806890D01*
X66022893Y-102775569D01*
X66012585Y-102741591D01*
X66008500Y-102700110D01*
X66008500Y-102023890D01*
X66012585Y-101982409D01*
X66022893Y-101948431D01*
X66039634Y-101917110D01*
X66062161Y-101889661D01*
X66089610Y-101867134D01*
X66120931Y-101850393D01*
X66154909Y-101840085D01*
X66196390Y-101836000D01*
X66797610Y-101836000D01*
X66839091Y-101840085D01*
X66839091Y-101840085D01*
G37*
G36*
X68414091Y-101840085D02*
G01*
X68448069Y-101850393D01*
X68479390Y-101867134D01*
X68506839Y-101889661D01*
X68529366Y-101917110D01*
X68546107Y-101948431D01*
X68556415Y-101982409D01*
X68560500Y-102023890D01*
X68560500Y-102700110D01*
X68556415Y-102741591D01*
X68546107Y-102775569D01*
X68529366Y-102806890D01*
X68506839Y-102834339D01*
X68479390Y-102856866D01*
X68448069Y-102873607D01*
X68414091Y-102883915D01*
X68372610Y-102888000D01*
X67771390Y-102888000D01*
X67729909Y-102883915D01*
X67695931Y-102873607D01*
X67664610Y-102856866D01*
X67637161Y-102834339D01*
X67614634Y-102806890D01*
X67597893Y-102775569D01*
X67587585Y-102741591D01*
X67583500Y-102700110D01*
X67583500Y-102023890D01*
X67587585Y-101982409D01*
X67597893Y-101948431D01*
X67614634Y-101917110D01*
X67637161Y-101889661D01*
X67664610Y-101867134D01*
X67695931Y-101850393D01*
X67729909Y-101840085D01*
X67771390Y-101836000D01*
X68372610Y-101836000D01*
X68414091Y-101840085D01*
X68414091Y-101840085D01*
G37*
G36*
X54635000Y-101477000D02*
G01*
X53633000Y-101477000D01*
X53633000Y-100575000D01*
X54635000Y-100575000D01*
X54635000Y-101477000D01*
X54635000Y-101477000D01*
G37*
G36*
X52195591Y-100353585D02*
G01*
X52229569Y-100363893D01*
X52260890Y-100380634D01*
X52288339Y-100403161D01*
X52310866Y-100430610D01*
X52327607Y-100461931D01*
X52337915Y-100495909D01*
X52342000Y-100537390D01*
X52342000Y-101138610D01*
X52337915Y-101180091D01*
X52327607Y-101214069D01*
X52310866Y-101245390D01*
X52288339Y-101272839D01*
X52260890Y-101295366D01*
X52229569Y-101312107D01*
X52195591Y-101322415D01*
X52154110Y-101326500D01*
X51477890Y-101326500D01*
X51436409Y-101322415D01*
X51402431Y-101312107D01*
X51371110Y-101295366D01*
X51343661Y-101272839D01*
X51321134Y-101245390D01*
X51304393Y-101214069D01*
X51294085Y-101180091D01*
X51290000Y-101138610D01*
X51290000Y-100537390D01*
X51294085Y-100495909D01*
X51304393Y-100461931D01*
X51321134Y-100430610D01*
X51343661Y-100403161D01*
X51371110Y-100380634D01*
X51402431Y-100363893D01*
X51436409Y-100353585D01*
X51477890Y-100349500D01*
X52154110Y-100349500D01*
X52195591Y-100353585D01*
X52195591Y-100353585D01*
G37*
G36*
X69415000Y-101148000D02*
G01*
X68253000Y-101148000D01*
X68253000Y-98496000D01*
X69415000Y-98496000D01*
X69415000Y-101148000D01*
X69415000Y-101148000D01*
G37*
G36*
X67215000Y-101148000D02*
G01*
X66053000Y-101148000D01*
X66053000Y-100396000D01*
X67215000Y-100396000D01*
X67215000Y-101148000D01*
X67215000Y-101148000D01*
G37*
G36*
X61810091Y-100062085D02*
G01*
X61844069Y-100072393D01*
X61875390Y-100089134D01*
X61902839Y-100111661D01*
X61925366Y-100139110D01*
X61942107Y-100170431D01*
X61952415Y-100204409D01*
X61956500Y-100245890D01*
X61956500Y-100922110D01*
X61952415Y-100963591D01*
X61942107Y-100997569D01*
X61925366Y-101028890D01*
X61902839Y-101056339D01*
X61875390Y-101078866D01*
X61844069Y-101095607D01*
X61810091Y-101105915D01*
X61768610Y-101110000D01*
X61167390Y-101110000D01*
X61125909Y-101105915D01*
X61091931Y-101095607D01*
X61060610Y-101078866D01*
X61033161Y-101056339D01*
X61010634Y-101028890D01*
X60993893Y-100997569D01*
X60983585Y-100963591D01*
X60979500Y-100922110D01*
X60979500Y-100245890D01*
X60983585Y-100204409D01*
X60993893Y-100170431D01*
X61010634Y-100139110D01*
X61033161Y-100111661D01*
X61060610Y-100089134D01*
X61091931Y-100072393D01*
X61125909Y-100062085D01*
X61167390Y-100058000D01*
X61768610Y-100058000D01*
X61810091Y-100062085D01*
X61810091Y-100062085D01*
G37*
G36*
X60235091Y-100062085D02*
G01*
X60269069Y-100072393D01*
X60300390Y-100089134D01*
X60327839Y-100111661D01*
X60350366Y-100139110D01*
X60367107Y-100170431D01*
X60377415Y-100204409D01*
X60381500Y-100245890D01*
X60381500Y-100922110D01*
X60377415Y-100963591D01*
X60367107Y-100997569D01*
X60350366Y-101028890D01*
X60327839Y-101056339D01*
X60300390Y-101078866D01*
X60269069Y-101095607D01*
X60235091Y-101105915D01*
X60193610Y-101110000D01*
X59592390Y-101110000D01*
X59550909Y-101105915D01*
X59516931Y-101095607D01*
X59485610Y-101078866D01*
X59458161Y-101056339D01*
X59435634Y-101028890D01*
X59418893Y-100997569D01*
X59408585Y-100963591D01*
X59404500Y-100922110D01*
X59404500Y-100245890D01*
X59408585Y-100204409D01*
X59418893Y-100170431D01*
X59435634Y-100139110D01*
X59458161Y-100111661D01*
X59485610Y-100089134D01*
X59516931Y-100072393D01*
X59550909Y-100062085D01*
X59592390Y-100058000D01*
X60193610Y-100058000D01*
X60235091Y-100062085D01*
X60235091Y-100062085D01*
G37*
G36*
X58545591Y-100099585D02*
G01*
X58579569Y-100109893D01*
X58610890Y-100126634D01*
X58638339Y-100149161D01*
X58660866Y-100176610D01*
X58677607Y-100207931D01*
X58687915Y-100241909D01*
X58692000Y-100283390D01*
X58692000Y-100884610D01*
X58687915Y-100926091D01*
X58677607Y-100960069D01*
X58660866Y-100991390D01*
X58638339Y-101018839D01*
X58610890Y-101041366D01*
X58579569Y-101058107D01*
X58545591Y-101068415D01*
X58504110Y-101072500D01*
X57827890Y-101072500D01*
X57786409Y-101068415D01*
X57752431Y-101058107D01*
X57721110Y-101041366D01*
X57693661Y-101018839D01*
X57671134Y-100991390D01*
X57654393Y-100960069D01*
X57644085Y-100926091D01*
X57640000Y-100884610D01*
X57640000Y-100283390D01*
X57644085Y-100241909D01*
X57654393Y-100207931D01*
X57671134Y-100176610D01*
X57693661Y-100149161D01*
X57721110Y-100126634D01*
X57752431Y-100109893D01*
X57786409Y-100099585D01*
X57827890Y-100095500D01*
X58504110Y-100095500D01*
X58545591Y-100099585D01*
X58545591Y-100099585D01*
G37*
G36*
X73037000Y-100723000D02*
G01*
X71235000Y-100723000D01*
X71235000Y-98921000D01*
X73037000Y-98921000D01*
X73037000Y-100723000D01*
X73037000Y-100723000D01*
G37*
G36*
X77101000Y-100723000D02*
G01*
X75299000Y-100723000D01*
X75299000Y-98921000D01*
X77101000Y-98921000D01*
X77101000Y-100723000D01*
X77101000Y-100723000D01*
G37*
G36*
X56635000Y-100527000D02*
G01*
X55633000Y-100527000D01*
X55633000Y-99625000D01*
X56635000Y-99625000D01*
X56635000Y-100527000D01*
X56635000Y-100527000D01*
G37*
G36*
X65395968Y-98821565D02*
G01*
X65434638Y-98833296D01*
X65470277Y-98852346D01*
X65501517Y-98877983D01*
X65527154Y-98909223D01*
X65546204Y-98944862D01*
X65557935Y-98983532D01*
X65562500Y-99029888D01*
X65562500Y-100106112D01*
X65557935Y-100152468D01*
X65546204Y-100191138D01*
X65527154Y-100226777D01*
X65501517Y-100258017D01*
X65470277Y-100283654D01*
X65434638Y-100302704D01*
X65395968Y-100314435D01*
X65349612Y-100319000D01*
X64698388Y-100319000D01*
X64652032Y-100314435D01*
X64613362Y-100302704D01*
X64577723Y-100283654D01*
X64546483Y-100258017D01*
X64520846Y-100226777D01*
X64501796Y-100191138D01*
X64490065Y-100152468D01*
X64485500Y-100106112D01*
X64485500Y-99029888D01*
X64490065Y-98983532D01*
X64501796Y-98944862D01*
X64520846Y-98909223D01*
X64546483Y-98877983D01*
X64577723Y-98852346D01*
X64613362Y-98833296D01*
X64652032Y-98821565D01*
X64698388Y-98817000D01*
X65349612Y-98817000D01*
X65395968Y-98821565D01*
X65395968Y-98821565D01*
G37*
G36*
X63520968Y-98821565D02*
G01*
X63559638Y-98833296D01*
X63595277Y-98852346D01*
X63626517Y-98877983D01*
X63652154Y-98909223D01*
X63671204Y-98944862D01*
X63682935Y-98983532D01*
X63687500Y-99029888D01*
X63687500Y-100106112D01*
X63682935Y-100152468D01*
X63671204Y-100191138D01*
X63652154Y-100226777D01*
X63626517Y-100258017D01*
X63595277Y-100283654D01*
X63559638Y-100302704D01*
X63520968Y-100314435D01*
X63474612Y-100319000D01*
X62823388Y-100319000D01*
X62777032Y-100314435D01*
X62738362Y-100302704D01*
X62702723Y-100283654D01*
X62671483Y-100258017D01*
X62645846Y-100226777D01*
X62626796Y-100191138D01*
X62615065Y-100152468D01*
X62610500Y-100106112D01*
X62610500Y-99029888D01*
X62615065Y-98983532D01*
X62626796Y-98944862D01*
X62645846Y-98909223D01*
X62671483Y-98877983D01*
X62702723Y-98852346D01*
X62738362Y-98833296D01*
X62777032Y-98821565D01*
X62823388Y-98817000D01*
X63474612Y-98817000D01*
X63520968Y-98821565D01*
X63520968Y-98821565D01*
G37*
G36*
X52195591Y-98778585D02*
G01*
X52229569Y-98788893D01*
X52260890Y-98805634D01*
X52288339Y-98828161D01*
X52310866Y-98855610D01*
X52327607Y-98886931D01*
X52337915Y-98920909D01*
X52342000Y-98962390D01*
X52342000Y-99563610D01*
X52337915Y-99605091D01*
X52327607Y-99639069D01*
X52310866Y-99670390D01*
X52288339Y-99697839D01*
X52260890Y-99720366D01*
X52229569Y-99737107D01*
X52195591Y-99747415D01*
X52154110Y-99751500D01*
X51477890Y-99751500D01*
X51436409Y-99747415D01*
X51402431Y-99737107D01*
X51371110Y-99720366D01*
X51343661Y-99697839D01*
X51321134Y-99670390D01*
X51304393Y-99639069D01*
X51294085Y-99605091D01*
X51290000Y-99563610D01*
X51290000Y-98962390D01*
X51294085Y-98920909D01*
X51304393Y-98886931D01*
X51321134Y-98855610D01*
X51343661Y-98828161D01*
X51371110Y-98805634D01*
X51402431Y-98788893D01*
X51436409Y-98778585D01*
X51477890Y-98774500D01*
X52154110Y-98774500D01*
X52195591Y-98778585D01*
X52195591Y-98778585D01*
G37*
G36*
X60235091Y-98538085D02*
G01*
X60269069Y-98548393D01*
X60300390Y-98565134D01*
X60327839Y-98587661D01*
X60350366Y-98615110D01*
X60367107Y-98646431D01*
X60377415Y-98680409D01*
X60381500Y-98721890D01*
X60381500Y-99398110D01*
X60377415Y-99439591D01*
X60367107Y-99473569D01*
X60350366Y-99504890D01*
X60327839Y-99532339D01*
X60300390Y-99554866D01*
X60269069Y-99571607D01*
X60235091Y-99581915D01*
X60193610Y-99586000D01*
X59592390Y-99586000D01*
X59550909Y-99581915D01*
X59516931Y-99571607D01*
X59485610Y-99554866D01*
X59458161Y-99532339D01*
X59435634Y-99504890D01*
X59418893Y-99473569D01*
X59408585Y-99439591D01*
X59404500Y-99398110D01*
X59404500Y-98721890D01*
X59408585Y-98680409D01*
X59418893Y-98646431D01*
X59435634Y-98615110D01*
X59458161Y-98587661D01*
X59485610Y-98565134D01*
X59516931Y-98548393D01*
X59550909Y-98538085D01*
X59592390Y-98534000D01*
X60193610Y-98534000D01*
X60235091Y-98538085D01*
X60235091Y-98538085D01*
G37*
G36*
X61810091Y-98538085D02*
G01*
X61844069Y-98548393D01*
X61875390Y-98565134D01*
X61902839Y-98587661D01*
X61925366Y-98615110D01*
X61942107Y-98646431D01*
X61952415Y-98680409D01*
X61956500Y-98721890D01*
X61956500Y-99398110D01*
X61952415Y-99439591D01*
X61942107Y-99473569D01*
X61925366Y-99504890D01*
X61902839Y-99532339D01*
X61875390Y-99554866D01*
X61844069Y-99571607D01*
X61810091Y-99581915D01*
X61768610Y-99586000D01*
X61167390Y-99586000D01*
X61125909Y-99581915D01*
X61091931Y-99571607D01*
X61060610Y-99554866D01*
X61033161Y-99532339D01*
X61010634Y-99504890D01*
X60993893Y-99473569D01*
X60983585Y-99439591D01*
X60979500Y-99398110D01*
X60979500Y-98721890D01*
X60983585Y-98680409D01*
X60993893Y-98646431D01*
X61010634Y-98615110D01*
X61033161Y-98587661D01*
X61060610Y-98565134D01*
X61091931Y-98548393D01*
X61125909Y-98538085D01*
X61167390Y-98534000D01*
X61768610Y-98534000D01*
X61810091Y-98538085D01*
X61810091Y-98538085D01*
G37*
G36*
X54635000Y-99577000D02*
G01*
X53633000Y-99577000D01*
X53633000Y-98675000D01*
X54635000Y-98675000D01*
X54635000Y-99577000D01*
X54635000Y-99577000D01*
G37*
G36*
X58545591Y-98524585D02*
G01*
X58579569Y-98534893D01*
X58610890Y-98551634D01*
X58638339Y-98574161D01*
X58660866Y-98601610D01*
X58677607Y-98632931D01*
X58687915Y-98666909D01*
X58692000Y-98708390D01*
X58692000Y-99309610D01*
X58687915Y-99351091D01*
X58677607Y-99385069D01*
X58660866Y-99416390D01*
X58638339Y-99443839D01*
X58610890Y-99466366D01*
X58579569Y-99483107D01*
X58545591Y-99493415D01*
X58504110Y-99497500D01*
X57827890Y-99497500D01*
X57786409Y-99493415D01*
X57752431Y-99483107D01*
X57721110Y-99466366D01*
X57693661Y-99443839D01*
X57671134Y-99416390D01*
X57654393Y-99385069D01*
X57644085Y-99351091D01*
X57640000Y-99309610D01*
X57640000Y-98708390D01*
X57644085Y-98666909D01*
X57654393Y-98632931D01*
X57671134Y-98601610D01*
X57693661Y-98574161D01*
X57721110Y-98551634D01*
X57752431Y-98534893D01*
X57786409Y-98524585D01*
X57827890Y-98520500D01*
X58504110Y-98520500D01*
X58545591Y-98524585D01*
X58545591Y-98524585D01*
G37*
G36*
X67215000Y-99248000D02*
G01*
X66053000Y-99248000D01*
X66053000Y-98496000D01*
X67215000Y-98496000D01*
X67215000Y-99248000D01*
X67215000Y-99248000D01*
G37*
M02*
