G04 #@! TF.GenerationSoftware,KiCad,Pcbnew,5.1.4*
G04 #@! TF.CreationDate,2019-11-18T21:05:01+01:00*
G04 #@! TF.ProjectId,antivol,616e7469-766f-46c2-9e6b-696361645f70,rev?*
G04 #@! TF.SameCoordinates,Original*
G04 #@! TF.FileFunction,Soldermask,Top*
G04 #@! TF.FilePolarity,Negative*
%FSLAX46Y46*%
G04 Gerber Fmt 4.6, Leading zero omitted, Abs format (unit mm)*
G04 Created by KiCad (PCBNEW 5.1.4) date 2019-11-18 21:05:01*
%MOMM*%
%LPD*%
G04 APERTURE LIST*
%ADD10C,0.100000*%
G04 APERTURE END LIST*
D10*
G36*
X75040442Y-114040518D02*
G01*
X75106627Y-114047037D01*
X75276466Y-114098557D01*
X75432991Y-114182222D01*
X75459527Y-114204000D01*
X75570186Y-114294814D01*
X75628196Y-114365501D01*
X75682778Y-114432009D01*
X75766443Y-114588534D01*
X75817963Y-114758373D01*
X75835359Y-114935000D01*
X75817963Y-115111627D01*
X75766443Y-115281466D01*
X75682778Y-115437991D01*
X75653448Y-115473729D01*
X75570186Y-115575186D01*
X75468729Y-115658448D01*
X75432991Y-115687778D01*
X75276466Y-115771443D01*
X75106627Y-115822963D01*
X75040443Y-115829481D01*
X74974260Y-115836000D01*
X74885740Y-115836000D01*
X74819557Y-115829481D01*
X74753373Y-115822963D01*
X74583534Y-115771443D01*
X74427009Y-115687778D01*
X74391271Y-115658448D01*
X74289814Y-115575186D01*
X74206552Y-115473729D01*
X74177222Y-115437991D01*
X74093557Y-115281466D01*
X74042037Y-115111627D01*
X74024641Y-114935000D01*
X74042037Y-114758373D01*
X74093557Y-114588534D01*
X74177222Y-114432009D01*
X74231804Y-114365501D01*
X74289814Y-114294814D01*
X74400473Y-114204000D01*
X74427009Y-114182222D01*
X74583534Y-114098557D01*
X74753373Y-114047037D01*
X74819558Y-114040518D01*
X74885740Y-114034000D01*
X74974260Y-114034000D01*
X75040442Y-114040518D01*
X75040442Y-114040518D01*
G37*
G36*
X73291000Y-115836000D02*
G01*
X71489000Y-115836000D01*
X71489000Y-114034000D01*
X73291000Y-114034000D01*
X73291000Y-115836000D01*
X73291000Y-115836000D01*
G37*
G36*
X52434499Y-114208445D02*
G01*
X52471995Y-114219820D01*
X52506554Y-114238292D01*
X52536847Y-114263153D01*
X52561708Y-114293446D01*
X52580180Y-114328005D01*
X52591555Y-114365501D01*
X52596000Y-114410638D01*
X52596000Y-115149362D01*
X52591555Y-115194499D01*
X52580180Y-115231995D01*
X52561708Y-115266554D01*
X52536847Y-115296847D01*
X52506554Y-115321708D01*
X52471995Y-115340180D01*
X52434499Y-115351555D01*
X52389362Y-115356000D01*
X51750638Y-115356000D01*
X51705501Y-115351555D01*
X51668005Y-115340180D01*
X51633446Y-115321708D01*
X51603153Y-115296847D01*
X51578292Y-115266554D01*
X51559820Y-115231995D01*
X51548445Y-115194499D01*
X51544000Y-115149362D01*
X51544000Y-114410638D01*
X51548445Y-114365501D01*
X51559820Y-114328005D01*
X51578292Y-114293446D01*
X51603153Y-114263153D01*
X51633446Y-114238292D01*
X51668005Y-114219820D01*
X51705501Y-114208445D01*
X51750638Y-114204000D01*
X52389362Y-114204000D01*
X52434499Y-114208445D01*
X52434499Y-114208445D01*
G37*
G36*
X56244499Y-114208445D02*
G01*
X56281995Y-114219820D01*
X56316554Y-114238292D01*
X56346847Y-114263153D01*
X56371708Y-114293446D01*
X56390180Y-114328005D01*
X56401555Y-114365501D01*
X56406000Y-114410638D01*
X56406000Y-115149362D01*
X56401555Y-115194499D01*
X56390180Y-115231995D01*
X56371708Y-115266554D01*
X56346847Y-115296847D01*
X56316554Y-115321708D01*
X56281995Y-115340180D01*
X56244499Y-115351555D01*
X56199362Y-115356000D01*
X55560638Y-115356000D01*
X55515501Y-115351555D01*
X55478005Y-115340180D01*
X55443446Y-115321708D01*
X55413153Y-115296847D01*
X55388292Y-115266554D01*
X55369820Y-115231995D01*
X55358445Y-115194499D01*
X55354000Y-115149362D01*
X55354000Y-114410638D01*
X55358445Y-114365501D01*
X55369820Y-114328005D01*
X55388292Y-114293446D01*
X55413153Y-114263153D01*
X55443446Y-114238292D01*
X55478005Y-114219820D01*
X55515501Y-114208445D01*
X55560638Y-114204000D01*
X56199362Y-114204000D01*
X56244499Y-114208445D01*
X56244499Y-114208445D01*
G37*
G36*
X54339499Y-114208445D02*
G01*
X54376995Y-114219820D01*
X54411554Y-114238292D01*
X54441847Y-114263153D01*
X54466708Y-114293446D01*
X54485180Y-114328005D01*
X54496555Y-114365501D01*
X54501000Y-114410638D01*
X54501000Y-115149362D01*
X54496555Y-115194499D01*
X54485180Y-115231995D01*
X54466708Y-115266554D01*
X54441847Y-115296847D01*
X54411554Y-115321708D01*
X54376995Y-115340180D01*
X54339499Y-115351555D01*
X54294362Y-115356000D01*
X53655638Y-115356000D01*
X53610501Y-115351555D01*
X53573005Y-115340180D01*
X53538446Y-115321708D01*
X53508153Y-115296847D01*
X53483292Y-115266554D01*
X53464820Y-115231995D01*
X53453445Y-115194499D01*
X53449000Y-115149362D01*
X53449000Y-114410638D01*
X53453445Y-114365501D01*
X53464820Y-114328005D01*
X53483292Y-114293446D01*
X53508153Y-114263153D01*
X53538446Y-114238292D01*
X53573005Y-114219820D01*
X53610501Y-114208445D01*
X53655638Y-114204000D01*
X54294362Y-114204000D01*
X54339499Y-114208445D01*
X54339499Y-114208445D01*
G37*
G36*
X79485443Y-112135519D02*
G01*
X79551627Y-112142037D01*
X79721466Y-112193557D01*
X79877991Y-112277222D01*
X79886530Y-112284230D01*
X80015186Y-112389814D01*
X80067861Y-112454000D01*
X80127778Y-112527009D01*
X80211443Y-112683534D01*
X80262963Y-112853373D01*
X80280359Y-113030000D01*
X80262963Y-113206627D01*
X80211443Y-113376466D01*
X80127778Y-113532991D01*
X80104236Y-113561677D01*
X80015186Y-113670186D01*
X79936049Y-113735131D01*
X79877991Y-113782778D01*
X79721466Y-113866443D01*
X79551627Y-113917963D01*
X79485443Y-113924481D01*
X79419260Y-113931000D01*
X79330740Y-113931000D01*
X79264557Y-113924481D01*
X79198373Y-113917963D01*
X79028534Y-113866443D01*
X78872009Y-113782778D01*
X78813951Y-113735131D01*
X78734814Y-113670186D01*
X78645764Y-113561677D01*
X78622222Y-113532991D01*
X78538557Y-113376466D01*
X78487037Y-113206627D01*
X78469641Y-113030000D01*
X78487037Y-112853373D01*
X78538557Y-112683534D01*
X78622222Y-112527009D01*
X78682139Y-112454000D01*
X78734814Y-112389814D01*
X78863470Y-112284230D01*
X78872009Y-112277222D01*
X79028534Y-112193557D01*
X79198373Y-112142037D01*
X79264557Y-112135519D01*
X79330740Y-112129000D01*
X79419260Y-112129000D01*
X79485443Y-112135519D01*
X79485443Y-112135519D01*
G37*
G36*
X58248674Y-112283465D02*
G01*
X58286367Y-112294899D01*
X58321103Y-112313466D01*
X58351548Y-112338452D01*
X58376534Y-112368897D01*
X58395101Y-112403633D01*
X58406535Y-112441326D01*
X58411000Y-112486661D01*
X58411000Y-113573339D01*
X58406535Y-113618674D01*
X58395101Y-113656367D01*
X58376534Y-113691103D01*
X58351548Y-113721548D01*
X58321103Y-113746534D01*
X58286367Y-113765101D01*
X58248674Y-113776535D01*
X58203339Y-113781000D01*
X57366661Y-113781000D01*
X57321326Y-113776535D01*
X57283633Y-113765101D01*
X57248897Y-113746534D01*
X57218452Y-113721548D01*
X57193466Y-113691103D01*
X57174899Y-113656367D01*
X57163465Y-113618674D01*
X57159000Y-113573339D01*
X57159000Y-112486661D01*
X57163465Y-112441326D01*
X57174899Y-112403633D01*
X57193466Y-112368897D01*
X57218452Y-112338452D01*
X57248897Y-112313466D01*
X57283633Y-112294899D01*
X57321326Y-112283465D01*
X57366661Y-112279000D01*
X58203339Y-112279000D01*
X58248674Y-112283465D01*
X58248674Y-112283465D01*
G37*
G36*
X60298674Y-112283465D02*
G01*
X60336367Y-112294899D01*
X60371103Y-112313466D01*
X60401548Y-112338452D01*
X60426534Y-112368897D01*
X60445101Y-112403633D01*
X60456535Y-112441326D01*
X60461000Y-112486661D01*
X60461000Y-113573339D01*
X60456535Y-113618674D01*
X60445101Y-113656367D01*
X60426534Y-113691103D01*
X60401548Y-113721548D01*
X60371103Y-113746534D01*
X60336367Y-113765101D01*
X60298674Y-113776535D01*
X60253339Y-113781000D01*
X59416661Y-113781000D01*
X59371326Y-113776535D01*
X59333633Y-113765101D01*
X59298897Y-113746534D01*
X59268452Y-113721548D01*
X59243466Y-113691103D01*
X59224899Y-113656367D01*
X59213465Y-113618674D01*
X59209000Y-113573339D01*
X59209000Y-112486661D01*
X59213465Y-112441326D01*
X59224899Y-112403633D01*
X59243466Y-112368897D01*
X59268452Y-112338452D01*
X59298897Y-112313466D01*
X59333633Y-112294899D01*
X59371326Y-112283465D01*
X59416661Y-112279000D01*
X60253339Y-112279000D01*
X60298674Y-112283465D01*
X60298674Y-112283465D01*
G37*
G36*
X52434499Y-112458445D02*
G01*
X52471995Y-112469820D01*
X52506554Y-112488292D01*
X52536847Y-112513153D01*
X52561708Y-112543446D01*
X52580180Y-112578005D01*
X52591555Y-112615501D01*
X52596000Y-112660638D01*
X52596000Y-113399362D01*
X52591555Y-113444499D01*
X52580180Y-113481995D01*
X52561708Y-113516554D01*
X52536847Y-113546847D01*
X52506554Y-113571708D01*
X52471995Y-113590180D01*
X52434499Y-113601555D01*
X52389362Y-113606000D01*
X51750638Y-113606000D01*
X51705501Y-113601555D01*
X51668005Y-113590180D01*
X51633446Y-113571708D01*
X51603153Y-113546847D01*
X51578292Y-113516554D01*
X51559820Y-113481995D01*
X51548445Y-113444499D01*
X51544000Y-113399362D01*
X51544000Y-112660638D01*
X51548445Y-112615501D01*
X51559820Y-112578005D01*
X51578292Y-112543446D01*
X51603153Y-112513153D01*
X51633446Y-112488292D01*
X51668005Y-112469820D01*
X51705501Y-112458445D01*
X51750638Y-112454000D01*
X52389362Y-112454000D01*
X52434499Y-112458445D01*
X52434499Y-112458445D01*
G37*
G36*
X54339499Y-112458445D02*
G01*
X54376995Y-112469820D01*
X54411554Y-112488292D01*
X54441847Y-112513153D01*
X54466708Y-112543446D01*
X54485180Y-112578005D01*
X54496555Y-112615501D01*
X54501000Y-112660638D01*
X54501000Y-113399362D01*
X54496555Y-113444499D01*
X54485180Y-113481995D01*
X54466708Y-113516554D01*
X54441847Y-113546847D01*
X54411554Y-113571708D01*
X54376995Y-113590180D01*
X54339499Y-113601555D01*
X54294362Y-113606000D01*
X53655638Y-113606000D01*
X53610501Y-113601555D01*
X53573005Y-113590180D01*
X53538446Y-113571708D01*
X53508153Y-113546847D01*
X53483292Y-113516554D01*
X53464820Y-113481995D01*
X53453445Y-113444499D01*
X53449000Y-113399362D01*
X53449000Y-112660638D01*
X53453445Y-112615501D01*
X53464820Y-112578005D01*
X53483292Y-112543446D01*
X53508153Y-112513153D01*
X53538446Y-112488292D01*
X53573005Y-112469820D01*
X53610501Y-112458445D01*
X53655638Y-112454000D01*
X54294362Y-112454000D01*
X54339499Y-112458445D01*
X54339499Y-112458445D01*
G37*
G36*
X56244499Y-112458445D02*
G01*
X56281995Y-112469820D01*
X56316554Y-112488292D01*
X56346847Y-112513153D01*
X56371708Y-112543446D01*
X56390180Y-112578005D01*
X56401555Y-112615501D01*
X56406000Y-112660638D01*
X56406000Y-113399362D01*
X56401555Y-113444499D01*
X56390180Y-113481995D01*
X56371708Y-113516554D01*
X56346847Y-113546847D01*
X56316554Y-113571708D01*
X56281995Y-113590180D01*
X56244499Y-113601555D01*
X56199362Y-113606000D01*
X55560638Y-113606000D01*
X55515501Y-113601555D01*
X55478005Y-113590180D01*
X55443446Y-113571708D01*
X55413153Y-113546847D01*
X55388292Y-113516554D01*
X55369820Y-113481995D01*
X55358445Y-113444499D01*
X55354000Y-113399362D01*
X55354000Y-112660638D01*
X55358445Y-112615501D01*
X55369820Y-112578005D01*
X55388292Y-112543446D01*
X55413153Y-112513153D01*
X55443446Y-112488292D01*
X55478005Y-112469820D01*
X55515501Y-112458445D01*
X55560638Y-112454000D01*
X56199362Y-112454000D01*
X56244499Y-112458445D01*
X56244499Y-112458445D01*
G37*
G36*
X64986000Y-113396000D02*
G01*
X63284000Y-113396000D01*
X63284000Y-111394000D01*
X64986000Y-111394000D01*
X64986000Y-113396000D01*
X64986000Y-113396000D01*
G37*
G36*
X52260295Y-106795323D02*
G01*
X52267309Y-106797451D01*
X52281077Y-106804810D01*
X52303716Y-106814187D01*
X52327749Y-106818967D01*
X52352253Y-106818967D01*
X52376286Y-106814186D01*
X52398923Y-106804810D01*
X52412691Y-106797451D01*
X52419705Y-106795323D01*
X52433140Y-106794000D01*
X52746860Y-106794000D01*
X52760295Y-106795323D01*
X52767309Y-106797451D01*
X52781077Y-106804810D01*
X52803716Y-106814187D01*
X52827749Y-106818967D01*
X52852253Y-106818967D01*
X52876286Y-106814186D01*
X52898923Y-106804810D01*
X52912691Y-106797451D01*
X52919705Y-106795323D01*
X52933140Y-106794000D01*
X53246860Y-106794000D01*
X53260295Y-106795323D01*
X53267309Y-106797451D01*
X53281077Y-106804810D01*
X53303716Y-106814187D01*
X53327749Y-106818967D01*
X53352253Y-106818967D01*
X53376286Y-106814186D01*
X53398923Y-106804810D01*
X53412691Y-106797451D01*
X53419705Y-106795323D01*
X53433140Y-106794000D01*
X53746860Y-106794000D01*
X53760295Y-106795323D01*
X53767309Y-106797451D01*
X53781077Y-106804810D01*
X53803716Y-106814187D01*
X53827749Y-106818967D01*
X53852253Y-106818967D01*
X53876286Y-106814186D01*
X53898923Y-106804810D01*
X53912691Y-106797451D01*
X53919705Y-106795323D01*
X53933140Y-106794000D01*
X54246860Y-106794000D01*
X54260295Y-106795323D01*
X54267309Y-106797451D01*
X54281077Y-106804810D01*
X54303716Y-106814187D01*
X54327749Y-106818967D01*
X54352253Y-106818967D01*
X54376286Y-106814186D01*
X54398923Y-106804810D01*
X54412691Y-106797451D01*
X54419705Y-106795323D01*
X54433140Y-106794000D01*
X54746860Y-106794000D01*
X54760295Y-106795323D01*
X54767310Y-106797451D01*
X54773776Y-106800908D01*
X54779442Y-106805558D01*
X54784092Y-106811224D01*
X54787549Y-106817690D01*
X54789677Y-106824705D01*
X54791000Y-106838140D01*
X54791000Y-107644001D01*
X54793402Y-107668387D01*
X54800515Y-107691836D01*
X54812066Y-107713447D01*
X54827611Y-107732389D01*
X54846553Y-107747934D01*
X54868164Y-107759485D01*
X54891613Y-107766598D01*
X54915999Y-107769000D01*
X55721860Y-107769000D01*
X55735295Y-107770323D01*
X55742310Y-107772451D01*
X55748776Y-107775908D01*
X55754442Y-107780558D01*
X55759092Y-107786224D01*
X55762549Y-107792690D01*
X55764677Y-107799705D01*
X55766000Y-107813140D01*
X55766000Y-108126860D01*
X55764677Y-108140295D01*
X55762549Y-108147309D01*
X55755190Y-108161077D01*
X55745813Y-108183716D01*
X55741033Y-108207749D01*
X55741033Y-108232253D01*
X55745814Y-108256286D01*
X55755190Y-108278923D01*
X55762549Y-108292691D01*
X55764677Y-108299705D01*
X55766000Y-108313140D01*
X55766000Y-108626860D01*
X55764677Y-108640295D01*
X55762549Y-108647309D01*
X55755190Y-108661077D01*
X55745813Y-108683716D01*
X55741033Y-108707749D01*
X55741033Y-108732253D01*
X55745814Y-108756286D01*
X55755190Y-108778923D01*
X55762549Y-108792691D01*
X55764677Y-108799705D01*
X55766000Y-108813140D01*
X55766000Y-109126860D01*
X55764677Y-109140295D01*
X55762549Y-109147309D01*
X55755190Y-109161077D01*
X55745813Y-109183716D01*
X55741033Y-109207749D01*
X55741033Y-109232253D01*
X55745814Y-109256286D01*
X55755190Y-109278923D01*
X55762549Y-109292691D01*
X55764677Y-109299705D01*
X55766000Y-109313140D01*
X55766000Y-109626860D01*
X55764677Y-109640295D01*
X55762549Y-109647309D01*
X55755190Y-109661077D01*
X55745813Y-109683716D01*
X55741033Y-109707749D01*
X55741033Y-109732253D01*
X55745814Y-109756286D01*
X55755190Y-109778923D01*
X55762549Y-109792691D01*
X55764677Y-109799705D01*
X55766000Y-109813140D01*
X55766000Y-110126860D01*
X55764677Y-110140295D01*
X55762549Y-110147309D01*
X55755190Y-110161077D01*
X55745813Y-110183716D01*
X55741033Y-110207749D01*
X55741033Y-110232253D01*
X55745814Y-110256286D01*
X55755190Y-110278923D01*
X55762549Y-110292691D01*
X55764677Y-110299705D01*
X55766000Y-110313140D01*
X55766000Y-110626860D01*
X55764677Y-110640295D01*
X55762549Y-110647310D01*
X55759092Y-110653776D01*
X55754442Y-110659442D01*
X55748776Y-110664092D01*
X55742310Y-110667549D01*
X55735295Y-110669677D01*
X55721860Y-110671000D01*
X54915999Y-110671000D01*
X54891613Y-110673402D01*
X54868164Y-110680515D01*
X54846553Y-110692066D01*
X54827611Y-110707611D01*
X54812066Y-110726553D01*
X54800515Y-110748164D01*
X54793402Y-110771613D01*
X54791000Y-110795999D01*
X54791000Y-111601860D01*
X54789677Y-111615295D01*
X54787549Y-111622310D01*
X54784092Y-111628776D01*
X54779442Y-111634442D01*
X54773776Y-111639092D01*
X54767310Y-111642549D01*
X54760295Y-111644677D01*
X54746860Y-111646000D01*
X54433140Y-111646000D01*
X54419705Y-111644677D01*
X54412691Y-111642549D01*
X54398923Y-111635190D01*
X54376284Y-111625813D01*
X54352251Y-111621033D01*
X54327747Y-111621033D01*
X54303714Y-111625814D01*
X54281077Y-111635190D01*
X54267309Y-111642549D01*
X54260295Y-111644677D01*
X54246860Y-111646000D01*
X53933140Y-111646000D01*
X53919705Y-111644677D01*
X53912691Y-111642549D01*
X53898923Y-111635190D01*
X53876284Y-111625813D01*
X53852251Y-111621033D01*
X53827747Y-111621033D01*
X53803714Y-111625814D01*
X53781077Y-111635190D01*
X53767309Y-111642549D01*
X53760295Y-111644677D01*
X53746860Y-111646000D01*
X53433140Y-111646000D01*
X53419705Y-111644677D01*
X53412691Y-111642549D01*
X53398923Y-111635190D01*
X53376284Y-111625813D01*
X53352251Y-111621033D01*
X53327747Y-111621033D01*
X53303714Y-111625814D01*
X53281077Y-111635190D01*
X53267309Y-111642549D01*
X53260295Y-111644677D01*
X53246860Y-111646000D01*
X52933140Y-111646000D01*
X52919705Y-111644677D01*
X52912691Y-111642549D01*
X52898923Y-111635190D01*
X52876284Y-111625813D01*
X52852251Y-111621033D01*
X52827747Y-111621033D01*
X52803714Y-111625814D01*
X52781077Y-111635190D01*
X52767309Y-111642549D01*
X52760295Y-111644677D01*
X52746860Y-111646000D01*
X52433140Y-111646000D01*
X52419705Y-111644677D01*
X52412691Y-111642549D01*
X52398923Y-111635190D01*
X52376284Y-111625813D01*
X52352251Y-111621033D01*
X52327747Y-111621033D01*
X52303714Y-111625814D01*
X52281077Y-111635190D01*
X52267309Y-111642549D01*
X52260295Y-111644677D01*
X52246860Y-111646000D01*
X51933140Y-111646000D01*
X51919705Y-111644677D01*
X51912690Y-111642549D01*
X51906224Y-111639092D01*
X51900558Y-111634442D01*
X51895908Y-111628776D01*
X51892451Y-111622310D01*
X51890323Y-111615295D01*
X51889000Y-111601860D01*
X51889000Y-110795999D01*
X51886598Y-110771613D01*
X51879485Y-110748164D01*
X51867934Y-110726553D01*
X51852389Y-110707611D01*
X51833447Y-110692066D01*
X51811836Y-110680515D01*
X51788387Y-110673402D01*
X51764001Y-110671000D01*
X50958140Y-110671000D01*
X50944705Y-110669677D01*
X50937690Y-110667549D01*
X50931224Y-110664092D01*
X50925558Y-110659442D01*
X50920908Y-110653776D01*
X50917451Y-110647310D01*
X50915323Y-110640295D01*
X50914000Y-110626860D01*
X50914000Y-110313140D01*
X50915323Y-110299705D01*
X50917451Y-110292691D01*
X50924810Y-110278923D01*
X50934187Y-110256284D01*
X50938967Y-110232251D01*
X50938967Y-110207747D01*
X50934186Y-110183714D01*
X50924810Y-110161077D01*
X50917451Y-110147309D01*
X50915323Y-110140295D01*
X50914000Y-110126860D01*
X50914000Y-109813140D01*
X50915323Y-109799705D01*
X50917451Y-109792691D01*
X50924810Y-109778923D01*
X50934187Y-109756284D01*
X50938967Y-109732251D01*
X50938967Y-109707747D01*
X50934186Y-109683714D01*
X50924810Y-109661077D01*
X50917451Y-109647309D01*
X50915323Y-109640295D01*
X50914000Y-109626860D01*
X50914000Y-109313140D01*
X50915323Y-109299705D01*
X50917451Y-109292691D01*
X50924810Y-109278923D01*
X50934187Y-109256284D01*
X50938967Y-109232251D01*
X50938967Y-109207747D01*
X50934186Y-109183714D01*
X50924810Y-109161077D01*
X50917451Y-109147309D01*
X50915323Y-109140295D01*
X50914000Y-109126860D01*
X50914000Y-108813140D01*
X50915323Y-108799705D01*
X50917451Y-108792691D01*
X50924810Y-108778923D01*
X50934187Y-108756284D01*
X50938967Y-108732251D01*
X50938967Y-108707747D01*
X50934186Y-108683714D01*
X50924810Y-108661077D01*
X50917451Y-108647309D01*
X50915323Y-108640295D01*
X50914000Y-108626860D01*
X50914000Y-108313140D01*
X50915323Y-108299705D01*
X50917451Y-108292691D01*
X50924810Y-108278923D01*
X50934187Y-108256284D01*
X50938967Y-108232251D01*
X50938967Y-108207749D01*
X51841033Y-108207749D01*
X51841033Y-108232253D01*
X51845814Y-108256286D01*
X51855190Y-108278923D01*
X51862549Y-108292691D01*
X51864677Y-108299705D01*
X51866000Y-108313140D01*
X51866000Y-108626860D01*
X51864677Y-108640295D01*
X51862549Y-108647309D01*
X51855190Y-108661077D01*
X51845813Y-108683716D01*
X51841033Y-108707749D01*
X51841033Y-108732253D01*
X51845814Y-108756286D01*
X51855190Y-108778923D01*
X51862549Y-108792691D01*
X51864677Y-108799705D01*
X51866000Y-108813140D01*
X51866000Y-109126860D01*
X51864677Y-109140295D01*
X51862549Y-109147309D01*
X51855190Y-109161077D01*
X51845813Y-109183716D01*
X51841033Y-109207749D01*
X51841033Y-109232253D01*
X51845814Y-109256286D01*
X51855190Y-109278923D01*
X51862549Y-109292691D01*
X51864677Y-109299705D01*
X51866000Y-109313140D01*
X51866000Y-109626860D01*
X51864677Y-109640295D01*
X51862549Y-109647309D01*
X51855190Y-109661077D01*
X51845813Y-109683716D01*
X51841033Y-109707749D01*
X51841033Y-109732253D01*
X51845814Y-109756286D01*
X51855190Y-109778923D01*
X51862549Y-109792691D01*
X51864677Y-109799705D01*
X51866000Y-109813140D01*
X51866000Y-110126860D01*
X51864677Y-110140295D01*
X51862549Y-110147309D01*
X51855190Y-110161077D01*
X51845813Y-110183716D01*
X51841033Y-110207749D01*
X51841033Y-110232253D01*
X51845814Y-110256286D01*
X51855190Y-110278923D01*
X51862549Y-110292691D01*
X51864677Y-110299705D01*
X51866000Y-110313140D01*
X51866000Y-110569001D01*
X51868402Y-110593387D01*
X51875515Y-110616836D01*
X51887066Y-110638447D01*
X51902611Y-110657389D01*
X51921553Y-110672934D01*
X51943164Y-110684485D01*
X51966613Y-110691598D01*
X51990999Y-110694000D01*
X52246860Y-110694000D01*
X52260295Y-110695323D01*
X52267309Y-110697451D01*
X52281077Y-110704810D01*
X52303716Y-110714187D01*
X52327749Y-110718967D01*
X52352253Y-110718967D01*
X52376286Y-110714186D01*
X52398923Y-110704810D01*
X52412691Y-110697451D01*
X52419705Y-110695323D01*
X52433140Y-110694000D01*
X52746860Y-110694000D01*
X52760295Y-110695323D01*
X52767309Y-110697451D01*
X52781077Y-110704810D01*
X52803716Y-110714187D01*
X52827749Y-110718967D01*
X52852253Y-110718967D01*
X52876286Y-110714186D01*
X52898923Y-110704810D01*
X52912691Y-110697451D01*
X52919705Y-110695323D01*
X52933140Y-110694000D01*
X53246860Y-110694000D01*
X53260295Y-110695323D01*
X53267309Y-110697451D01*
X53281077Y-110704810D01*
X53303716Y-110714187D01*
X53327749Y-110718967D01*
X53352253Y-110718967D01*
X53376286Y-110714186D01*
X53398923Y-110704810D01*
X53412691Y-110697451D01*
X53419705Y-110695323D01*
X53433140Y-110694000D01*
X53746860Y-110694000D01*
X53760295Y-110695323D01*
X53767309Y-110697451D01*
X53781077Y-110704810D01*
X53803716Y-110714187D01*
X53827749Y-110718967D01*
X53852253Y-110718967D01*
X53876286Y-110714186D01*
X53898923Y-110704810D01*
X53912691Y-110697451D01*
X53919705Y-110695323D01*
X53933140Y-110694000D01*
X54246860Y-110694000D01*
X54260295Y-110695323D01*
X54267309Y-110697451D01*
X54281077Y-110704810D01*
X54303716Y-110714187D01*
X54327749Y-110718967D01*
X54352253Y-110718967D01*
X54376286Y-110714186D01*
X54398923Y-110704810D01*
X54412691Y-110697451D01*
X54419705Y-110695323D01*
X54433140Y-110694000D01*
X54689001Y-110694000D01*
X54713387Y-110691598D01*
X54736836Y-110684485D01*
X54758447Y-110672934D01*
X54777389Y-110657389D01*
X54792934Y-110638447D01*
X54804485Y-110616836D01*
X54811598Y-110593387D01*
X54814000Y-110569001D01*
X54814000Y-110313140D01*
X54815323Y-110299705D01*
X54817451Y-110292691D01*
X54824810Y-110278923D01*
X54834187Y-110256284D01*
X54838967Y-110232251D01*
X54838967Y-110207747D01*
X54834186Y-110183714D01*
X54824810Y-110161077D01*
X54817451Y-110147309D01*
X54815323Y-110140295D01*
X54814000Y-110126860D01*
X54814000Y-109813140D01*
X54815323Y-109799705D01*
X54817451Y-109792691D01*
X54824810Y-109778923D01*
X54834187Y-109756284D01*
X54838967Y-109732251D01*
X54838967Y-109707747D01*
X54834186Y-109683714D01*
X54824810Y-109661077D01*
X54817451Y-109647309D01*
X54815323Y-109640295D01*
X54814000Y-109626860D01*
X54814000Y-109313140D01*
X54815323Y-109299705D01*
X54817451Y-109292691D01*
X54824810Y-109278923D01*
X54834187Y-109256284D01*
X54838967Y-109232251D01*
X54838967Y-109207747D01*
X54834186Y-109183714D01*
X54824810Y-109161077D01*
X54817451Y-109147309D01*
X54815323Y-109140295D01*
X54814000Y-109126860D01*
X54814000Y-108813140D01*
X54815323Y-108799705D01*
X54817451Y-108792691D01*
X54824810Y-108778923D01*
X54834187Y-108756284D01*
X54838967Y-108732251D01*
X54838967Y-108707747D01*
X54834186Y-108683714D01*
X54824810Y-108661077D01*
X54817451Y-108647309D01*
X54815323Y-108640295D01*
X54814000Y-108626860D01*
X54814000Y-108313140D01*
X54815323Y-108299705D01*
X54817451Y-108292691D01*
X54824810Y-108278923D01*
X54834187Y-108256284D01*
X54838967Y-108232251D01*
X54838967Y-108207747D01*
X54834186Y-108183714D01*
X54824810Y-108161077D01*
X54817451Y-108147309D01*
X54815323Y-108140295D01*
X54814000Y-108126860D01*
X54814000Y-107870999D01*
X54811598Y-107846613D01*
X54804485Y-107823164D01*
X54792934Y-107801553D01*
X54777389Y-107782611D01*
X54758447Y-107767066D01*
X54736836Y-107755515D01*
X54713387Y-107748402D01*
X54689001Y-107746000D01*
X54433140Y-107746000D01*
X54419705Y-107744677D01*
X54412691Y-107742549D01*
X54398923Y-107735190D01*
X54376284Y-107725813D01*
X54352251Y-107721033D01*
X54327747Y-107721033D01*
X54303714Y-107725814D01*
X54281077Y-107735190D01*
X54267309Y-107742549D01*
X54260295Y-107744677D01*
X54246860Y-107746000D01*
X53933140Y-107746000D01*
X53919705Y-107744677D01*
X53912691Y-107742549D01*
X53898923Y-107735190D01*
X53876284Y-107725813D01*
X53852251Y-107721033D01*
X53827747Y-107721033D01*
X53803714Y-107725814D01*
X53781077Y-107735190D01*
X53767309Y-107742549D01*
X53760295Y-107744677D01*
X53746860Y-107746000D01*
X53433140Y-107746000D01*
X53419705Y-107744677D01*
X53412691Y-107742549D01*
X53398923Y-107735190D01*
X53376284Y-107725813D01*
X53352251Y-107721033D01*
X53327747Y-107721033D01*
X53303714Y-107725814D01*
X53281077Y-107735190D01*
X53267309Y-107742549D01*
X53260295Y-107744677D01*
X53246860Y-107746000D01*
X52933140Y-107746000D01*
X52919705Y-107744677D01*
X52912691Y-107742549D01*
X52898923Y-107735190D01*
X52876284Y-107725813D01*
X52852251Y-107721033D01*
X52827747Y-107721033D01*
X52803714Y-107725814D01*
X52781077Y-107735190D01*
X52767309Y-107742549D01*
X52760295Y-107744677D01*
X52746860Y-107746000D01*
X52433140Y-107746000D01*
X52419705Y-107744677D01*
X52412691Y-107742549D01*
X52398923Y-107735190D01*
X52376284Y-107725813D01*
X52352251Y-107721033D01*
X52327747Y-107721033D01*
X52303714Y-107725814D01*
X52281077Y-107735190D01*
X52267309Y-107742549D01*
X52260295Y-107744677D01*
X52246860Y-107746000D01*
X51990999Y-107746000D01*
X51966613Y-107748402D01*
X51943164Y-107755515D01*
X51921553Y-107767066D01*
X51902611Y-107782611D01*
X51887066Y-107801553D01*
X51875515Y-107823164D01*
X51868402Y-107846613D01*
X51866000Y-107870999D01*
X51866000Y-108126860D01*
X51864677Y-108140295D01*
X51862549Y-108147309D01*
X51855190Y-108161077D01*
X51845813Y-108183716D01*
X51841033Y-108207749D01*
X50938967Y-108207749D01*
X50938967Y-108207747D01*
X50934186Y-108183714D01*
X50924810Y-108161077D01*
X50917451Y-108147309D01*
X50915323Y-108140295D01*
X50914000Y-108126860D01*
X50914000Y-107813140D01*
X50915323Y-107799705D01*
X50917451Y-107792690D01*
X50920908Y-107786224D01*
X50925558Y-107780558D01*
X50931224Y-107775908D01*
X50937690Y-107772451D01*
X50944705Y-107770323D01*
X50958140Y-107769000D01*
X51764001Y-107769000D01*
X51788387Y-107766598D01*
X51811836Y-107759485D01*
X51833447Y-107747934D01*
X51852389Y-107732389D01*
X51867934Y-107713447D01*
X51879485Y-107691836D01*
X51886598Y-107668387D01*
X51889000Y-107644001D01*
X51889000Y-106838140D01*
X51890323Y-106824705D01*
X51892451Y-106817690D01*
X51895908Y-106811224D01*
X51900558Y-106805558D01*
X51906224Y-106800908D01*
X51912690Y-106797451D01*
X51919705Y-106795323D01*
X51933140Y-106794000D01*
X52246860Y-106794000D01*
X52260295Y-106795323D01*
X52260295Y-106795323D01*
G37*
G36*
X75040442Y-109595518D02*
G01*
X75106627Y-109602037D01*
X75276466Y-109653557D01*
X75432991Y-109737222D01*
X75456218Y-109756284D01*
X75570186Y-109849814D01*
X75653448Y-109951271D01*
X75682778Y-109987009D01*
X75682779Y-109987011D01*
X75757531Y-110126860D01*
X75766443Y-110143534D01*
X75817963Y-110313373D01*
X75835359Y-110490000D01*
X75817963Y-110666627D01*
X75766443Y-110836466D01*
X75682778Y-110992991D01*
X75653448Y-111028729D01*
X75570186Y-111130186D01*
X75468729Y-111213448D01*
X75432991Y-111242778D01*
X75276466Y-111326443D01*
X75106627Y-111377963D01*
X75040443Y-111384481D01*
X74974260Y-111391000D01*
X74885740Y-111391000D01*
X74819557Y-111384481D01*
X74753373Y-111377963D01*
X74583534Y-111326443D01*
X74427009Y-111242778D01*
X74391271Y-111213448D01*
X74289814Y-111130186D01*
X74206552Y-111028729D01*
X74177222Y-110992991D01*
X74093557Y-110836466D01*
X74042037Y-110666627D01*
X74024641Y-110490000D01*
X74042037Y-110313373D01*
X74093557Y-110143534D01*
X74102470Y-110126860D01*
X74177221Y-109987011D01*
X74177222Y-109987009D01*
X74206552Y-109951271D01*
X74289814Y-109849814D01*
X74403782Y-109756284D01*
X74427009Y-109737222D01*
X74583534Y-109653557D01*
X74753373Y-109602037D01*
X74819558Y-109595518D01*
X74885740Y-109589000D01*
X74974260Y-109589000D01*
X75040442Y-109595518D01*
X75040442Y-109595518D01*
G37*
G36*
X72500442Y-109595518D02*
G01*
X72566627Y-109602037D01*
X72736466Y-109653557D01*
X72892991Y-109737222D01*
X72916218Y-109756284D01*
X73030186Y-109849814D01*
X73113448Y-109951271D01*
X73142778Y-109987009D01*
X73142779Y-109987011D01*
X73217531Y-110126860D01*
X73226443Y-110143534D01*
X73277963Y-110313373D01*
X73295359Y-110490000D01*
X73277963Y-110666627D01*
X73226443Y-110836466D01*
X73142778Y-110992991D01*
X73113448Y-111028729D01*
X73030186Y-111130186D01*
X72928729Y-111213448D01*
X72892991Y-111242778D01*
X72736466Y-111326443D01*
X72566627Y-111377963D01*
X72500443Y-111384481D01*
X72434260Y-111391000D01*
X72345740Y-111391000D01*
X72279557Y-111384481D01*
X72213373Y-111377963D01*
X72043534Y-111326443D01*
X71887009Y-111242778D01*
X71851271Y-111213448D01*
X71749814Y-111130186D01*
X71666552Y-111028729D01*
X71637222Y-110992991D01*
X71553557Y-110836466D01*
X71502037Y-110666627D01*
X71484641Y-110490000D01*
X71502037Y-110313373D01*
X71553557Y-110143534D01*
X71562470Y-110126860D01*
X71637221Y-109987011D01*
X71637222Y-109987009D01*
X71666552Y-109951271D01*
X71749814Y-109849814D01*
X71863782Y-109756284D01*
X71887009Y-109737222D01*
X72043534Y-109653557D01*
X72213373Y-109602037D01*
X72279558Y-109595518D01*
X72345740Y-109589000D01*
X72434260Y-109589000D01*
X72500442Y-109595518D01*
X72500442Y-109595518D01*
G37*
G36*
X79485442Y-109595518D02*
G01*
X79551627Y-109602037D01*
X79721466Y-109653557D01*
X79877991Y-109737222D01*
X79901218Y-109756284D01*
X80015186Y-109849814D01*
X80098448Y-109951271D01*
X80127778Y-109987009D01*
X80127779Y-109987011D01*
X80202531Y-110126860D01*
X80211443Y-110143534D01*
X80262963Y-110313373D01*
X80280359Y-110490000D01*
X80262963Y-110666627D01*
X80211443Y-110836466D01*
X80127778Y-110992991D01*
X80098448Y-111028729D01*
X80015186Y-111130186D01*
X79913729Y-111213448D01*
X79877991Y-111242778D01*
X79721466Y-111326443D01*
X79551627Y-111377963D01*
X79485443Y-111384481D01*
X79419260Y-111391000D01*
X79330740Y-111391000D01*
X79264557Y-111384481D01*
X79198373Y-111377963D01*
X79028534Y-111326443D01*
X78872009Y-111242778D01*
X78836271Y-111213448D01*
X78734814Y-111130186D01*
X78651552Y-111028729D01*
X78622222Y-110992991D01*
X78538557Y-110836466D01*
X78487037Y-110666627D01*
X78469641Y-110490000D01*
X78487037Y-110313373D01*
X78538557Y-110143534D01*
X78547470Y-110126860D01*
X78622221Y-109987011D01*
X78622222Y-109987009D01*
X78651552Y-109951271D01*
X78734814Y-109849814D01*
X78848782Y-109756284D01*
X78872009Y-109737222D01*
X79028534Y-109653557D01*
X79198373Y-109602037D01*
X79264558Y-109595518D01*
X79330740Y-109589000D01*
X79419260Y-109589000D01*
X79485442Y-109595518D01*
X79485442Y-109595518D01*
G37*
G36*
X60066000Y-111321000D02*
G01*
X57414000Y-111321000D01*
X57414000Y-109659000D01*
X60066000Y-109659000D01*
X60066000Y-111321000D01*
X60066000Y-111321000D01*
G37*
G36*
X64986000Y-109296000D02*
G01*
X63284000Y-109296000D01*
X63284000Y-107294000D01*
X64986000Y-107294000D01*
X64986000Y-109296000D01*
X64986000Y-109296000D01*
G37*
G36*
X72500442Y-107055518D02*
G01*
X72566627Y-107062037D01*
X72736466Y-107113557D01*
X72892991Y-107197222D01*
X72928729Y-107226552D01*
X73030186Y-107309814D01*
X73113448Y-107411271D01*
X73142778Y-107447009D01*
X73226443Y-107603534D01*
X73277963Y-107773373D01*
X73295359Y-107950000D01*
X73277963Y-108126627D01*
X73229637Y-108285937D01*
X73226442Y-108296468D01*
X73217250Y-108313665D01*
X73142778Y-108452991D01*
X73113448Y-108488729D01*
X73030186Y-108590186D01*
X72941034Y-108663350D01*
X72892991Y-108702778D01*
X72736466Y-108786443D01*
X72566627Y-108837963D01*
X72500442Y-108844482D01*
X72434260Y-108851000D01*
X72345740Y-108851000D01*
X72279558Y-108844482D01*
X72213373Y-108837963D01*
X72043534Y-108786443D01*
X71887009Y-108702778D01*
X71838966Y-108663350D01*
X71749814Y-108590186D01*
X71666552Y-108488729D01*
X71637222Y-108452991D01*
X71562750Y-108313665D01*
X71553558Y-108296468D01*
X71550363Y-108285937D01*
X71502037Y-108126627D01*
X71484641Y-107950000D01*
X71502037Y-107773373D01*
X71553557Y-107603534D01*
X71637222Y-107447009D01*
X71666552Y-107411271D01*
X71749814Y-107309814D01*
X71851271Y-107226552D01*
X71887009Y-107197222D01*
X72043534Y-107113557D01*
X72213373Y-107062037D01*
X72279558Y-107055518D01*
X72345740Y-107049000D01*
X72434260Y-107049000D01*
X72500442Y-107055518D01*
X72500442Y-107055518D01*
G37*
G36*
X75040442Y-107055518D02*
G01*
X75106627Y-107062037D01*
X75276466Y-107113557D01*
X75432991Y-107197222D01*
X75468729Y-107226552D01*
X75570186Y-107309814D01*
X75653448Y-107411271D01*
X75682778Y-107447009D01*
X75766443Y-107603534D01*
X75817963Y-107773373D01*
X75835359Y-107950000D01*
X75817963Y-108126627D01*
X75769637Y-108285937D01*
X75766442Y-108296468D01*
X75757250Y-108313665D01*
X75682778Y-108452991D01*
X75653448Y-108488729D01*
X75570186Y-108590186D01*
X75481034Y-108663350D01*
X75432991Y-108702778D01*
X75276466Y-108786443D01*
X75106627Y-108837963D01*
X75040442Y-108844482D01*
X74974260Y-108851000D01*
X74885740Y-108851000D01*
X74819558Y-108844482D01*
X74753373Y-108837963D01*
X74583534Y-108786443D01*
X74427009Y-108702778D01*
X74378966Y-108663350D01*
X74289814Y-108590186D01*
X74206552Y-108488729D01*
X74177222Y-108452991D01*
X74102750Y-108313665D01*
X74093558Y-108296468D01*
X74090363Y-108285937D01*
X74042037Y-108126627D01*
X74024641Y-107950000D01*
X74042037Y-107773373D01*
X74093557Y-107603534D01*
X74177222Y-107447009D01*
X74206552Y-107411271D01*
X74289814Y-107309814D01*
X74391271Y-107226552D01*
X74427009Y-107197222D01*
X74583534Y-107113557D01*
X74753373Y-107062037D01*
X74819558Y-107055518D01*
X74885740Y-107049000D01*
X74974260Y-107049000D01*
X75040442Y-107055518D01*
X75040442Y-107055518D01*
G37*
G36*
X79485442Y-107055518D02*
G01*
X79551627Y-107062037D01*
X79721466Y-107113557D01*
X79877991Y-107197222D01*
X79913729Y-107226552D01*
X80015186Y-107309814D01*
X80098448Y-107411271D01*
X80127778Y-107447009D01*
X80211443Y-107603534D01*
X80262963Y-107773373D01*
X80280359Y-107950000D01*
X80262963Y-108126627D01*
X80214637Y-108285937D01*
X80211442Y-108296468D01*
X80202250Y-108313665D01*
X80127778Y-108452991D01*
X80098448Y-108488729D01*
X80015186Y-108590186D01*
X79926034Y-108663350D01*
X79877991Y-108702778D01*
X79721466Y-108786443D01*
X79551627Y-108837963D01*
X79485442Y-108844482D01*
X79419260Y-108851000D01*
X79330740Y-108851000D01*
X79264558Y-108844482D01*
X79198373Y-108837963D01*
X79028534Y-108786443D01*
X78872009Y-108702778D01*
X78823966Y-108663350D01*
X78734814Y-108590186D01*
X78651552Y-108488729D01*
X78622222Y-108452991D01*
X78547750Y-108313665D01*
X78538558Y-108296468D01*
X78535363Y-108285937D01*
X78487037Y-108126627D01*
X78469641Y-107950000D01*
X78487037Y-107773373D01*
X78538557Y-107603534D01*
X78622222Y-107447009D01*
X78651552Y-107411271D01*
X78734814Y-107309814D01*
X78836271Y-107226552D01*
X78872009Y-107197222D01*
X79028534Y-107113557D01*
X79198373Y-107062037D01*
X79264558Y-107055518D01*
X79330740Y-107049000D01*
X79419260Y-107049000D01*
X79485442Y-107055518D01*
X79485442Y-107055518D01*
G37*
G36*
X60066000Y-108621000D02*
G01*
X59314000Y-108621000D01*
X59314000Y-106959000D01*
X60066000Y-106959000D01*
X60066000Y-108621000D01*
X60066000Y-108621000D01*
G37*
G36*
X58166000Y-108621000D02*
G01*
X57414000Y-108621000D01*
X57414000Y-106959000D01*
X58166000Y-106959000D01*
X58166000Y-108621000D01*
X58166000Y-108621000D01*
G37*
G36*
X62818674Y-105178465D02*
G01*
X62856367Y-105189899D01*
X62891103Y-105208466D01*
X62921548Y-105233452D01*
X62946534Y-105263897D01*
X62965101Y-105298633D01*
X62976535Y-105336326D01*
X62981000Y-105381661D01*
X62981000Y-106218339D01*
X62976535Y-106263674D01*
X62965101Y-106301367D01*
X62946534Y-106336103D01*
X62921548Y-106366548D01*
X62891103Y-106391534D01*
X62856367Y-106410101D01*
X62818674Y-106421535D01*
X62773339Y-106426000D01*
X61686661Y-106426000D01*
X61641326Y-106421535D01*
X61603633Y-106410101D01*
X61568897Y-106391534D01*
X61538452Y-106366548D01*
X61513466Y-106336103D01*
X61494899Y-106301367D01*
X61483465Y-106263674D01*
X61479000Y-106218339D01*
X61479000Y-105381661D01*
X61483465Y-105336326D01*
X61494899Y-105298633D01*
X61513466Y-105263897D01*
X61538452Y-105233452D01*
X61568897Y-105208466D01*
X61603633Y-105189899D01*
X61641326Y-105178465D01*
X61686661Y-105174000D01*
X62773339Y-105174000D01*
X62818674Y-105178465D01*
X62818674Y-105178465D01*
G37*
G36*
X72500443Y-104515519D02*
G01*
X72566627Y-104522037D01*
X72736466Y-104573557D01*
X72892991Y-104657222D01*
X72928729Y-104686552D01*
X73030186Y-104769814D01*
X73113448Y-104871271D01*
X73142778Y-104907009D01*
X73226443Y-105063534D01*
X73277963Y-105233373D01*
X73295359Y-105410000D01*
X73277963Y-105586627D01*
X73226443Y-105756466D01*
X73142778Y-105912991D01*
X73127543Y-105931555D01*
X73030186Y-106050186D01*
X72928729Y-106133448D01*
X72892991Y-106162778D01*
X72892989Y-106162779D01*
X72789045Y-106218339D01*
X72736466Y-106246443D01*
X72566627Y-106297963D01*
X72500442Y-106304482D01*
X72434260Y-106311000D01*
X72345740Y-106311000D01*
X72279558Y-106304482D01*
X72213373Y-106297963D01*
X72043534Y-106246443D01*
X71990956Y-106218339D01*
X71887011Y-106162779D01*
X71887009Y-106162778D01*
X71851271Y-106133448D01*
X71749814Y-106050186D01*
X71652457Y-105931555D01*
X71637222Y-105912991D01*
X71553557Y-105756466D01*
X71502037Y-105586627D01*
X71484641Y-105410000D01*
X71502037Y-105233373D01*
X71553557Y-105063534D01*
X71637222Y-104907009D01*
X71666552Y-104871271D01*
X71749814Y-104769814D01*
X71851271Y-104686552D01*
X71887009Y-104657222D01*
X72043534Y-104573557D01*
X72213373Y-104522037D01*
X72279557Y-104515519D01*
X72345740Y-104509000D01*
X72434260Y-104509000D01*
X72500443Y-104515519D01*
X72500443Y-104515519D01*
G37*
G36*
X79485443Y-104515519D02*
G01*
X79551627Y-104522037D01*
X79721466Y-104573557D01*
X79877991Y-104657222D01*
X79913729Y-104686552D01*
X80015186Y-104769814D01*
X80098448Y-104871271D01*
X80127778Y-104907009D01*
X80211443Y-105063534D01*
X80262963Y-105233373D01*
X80280359Y-105410000D01*
X80262963Y-105586627D01*
X80211443Y-105756466D01*
X80127778Y-105912991D01*
X80112543Y-105931555D01*
X80015186Y-106050186D01*
X79913729Y-106133448D01*
X79877991Y-106162778D01*
X79877989Y-106162779D01*
X79774045Y-106218339D01*
X79721466Y-106246443D01*
X79551627Y-106297963D01*
X79485442Y-106304482D01*
X79419260Y-106311000D01*
X79330740Y-106311000D01*
X79264558Y-106304482D01*
X79198373Y-106297963D01*
X79028534Y-106246443D01*
X78975956Y-106218339D01*
X78872011Y-106162779D01*
X78872009Y-106162778D01*
X78836271Y-106133448D01*
X78734814Y-106050186D01*
X78637457Y-105931555D01*
X78622222Y-105912991D01*
X78538557Y-105756466D01*
X78487037Y-105586627D01*
X78469641Y-105410000D01*
X78487037Y-105233373D01*
X78538557Y-105063534D01*
X78622222Y-104907009D01*
X78651552Y-104871271D01*
X78734814Y-104769814D01*
X78836271Y-104686552D01*
X78872009Y-104657222D01*
X79028534Y-104573557D01*
X79198373Y-104522037D01*
X79264557Y-104515519D01*
X79330740Y-104509000D01*
X79419260Y-104509000D01*
X79485443Y-104515519D01*
X79485443Y-104515519D01*
G37*
G36*
X75040443Y-104515519D02*
G01*
X75106627Y-104522037D01*
X75276466Y-104573557D01*
X75432991Y-104657222D01*
X75468729Y-104686552D01*
X75570186Y-104769814D01*
X75653448Y-104871271D01*
X75682778Y-104907009D01*
X75766443Y-105063534D01*
X75817963Y-105233373D01*
X75835359Y-105410000D01*
X75817963Y-105586627D01*
X75766443Y-105756466D01*
X75682778Y-105912991D01*
X75667543Y-105931555D01*
X75570186Y-106050186D01*
X75468729Y-106133448D01*
X75432991Y-106162778D01*
X75432989Y-106162779D01*
X75329045Y-106218339D01*
X75276466Y-106246443D01*
X75106627Y-106297963D01*
X75040442Y-106304482D01*
X74974260Y-106311000D01*
X74885740Y-106311000D01*
X74819558Y-106304482D01*
X74753373Y-106297963D01*
X74583534Y-106246443D01*
X74530956Y-106218339D01*
X74427011Y-106162779D01*
X74427009Y-106162778D01*
X74391271Y-106133448D01*
X74289814Y-106050186D01*
X74192457Y-105931555D01*
X74177222Y-105912991D01*
X74093557Y-105756466D01*
X74042037Y-105586627D01*
X74024641Y-105410000D01*
X74042037Y-105233373D01*
X74093557Y-105063534D01*
X74177222Y-104907009D01*
X74206552Y-104871271D01*
X74289814Y-104769814D01*
X74391271Y-104686552D01*
X74427009Y-104657222D01*
X74583534Y-104573557D01*
X74753373Y-104522037D01*
X74819557Y-104515519D01*
X74885740Y-104509000D01*
X74974260Y-104509000D01*
X75040443Y-104515519D01*
X75040443Y-104515519D01*
G37*
G36*
X58199499Y-104888445D02*
G01*
X58236995Y-104899820D01*
X58271554Y-104918292D01*
X58301847Y-104943153D01*
X58326708Y-104973446D01*
X58345180Y-105008005D01*
X58356555Y-105045501D01*
X58361000Y-105090638D01*
X58361000Y-105729362D01*
X58356555Y-105774499D01*
X58345180Y-105811995D01*
X58326708Y-105846554D01*
X58301847Y-105876847D01*
X58271554Y-105901708D01*
X58236995Y-105920180D01*
X58199499Y-105931555D01*
X58154362Y-105936000D01*
X57415638Y-105936000D01*
X57370501Y-105931555D01*
X57333005Y-105920180D01*
X57298446Y-105901708D01*
X57268153Y-105876847D01*
X57243292Y-105846554D01*
X57224820Y-105811995D01*
X57213445Y-105774499D01*
X57209000Y-105729362D01*
X57209000Y-105090638D01*
X57213445Y-105045501D01*
X57224820Y-105008005D01*
X57243292Y-104973446D01*
X57268153Y-104943153D01*
X57298446Y-104918292D01*
X57333005Y-104899820D01*
X57370501Y-104888445D01*
X57415638Y-104884000D01*
X58154362Y-104884000D01*
X58199499Y-104888445D01*
X58199499Y-104888445D01*
G37*
G36*
X59949499Y-104888445D02*
G01*
X59986995Y-104899820D01*
X60021554Y-104918292D01*
X60051847Y-104943153D01*
X60076708Y-104973446D01*
X60095180Y-105008005D01*
X60106555Y-105045501D01*
X60111000Y-105090638D01*
X60111000Y-105729362D01*
X60106555Y-105774499D01*
X60095180Y-105811995D01*
X60076708Y-105846554D01*
X60051847Y-105876847D01*
X60021554Y-105901708D01*
X59986995Y-105920180D01*
X59949499Y-105931555D01*
X59904362Y-105936000D01*
X59165638Y-105936000D01*
X59120501Y-105931555D01*
X59083005Y-105920180D01*
X59048446Y-105901708D01*
X59018153Y-105876847D01*
X58993292Y-105846554D01*
X58974820Y-105811995D01*
X58963445Y-105774499D01*
X58959000Y-105729362D01*
X58959000Y-105090638D01*
X58963445Y-105045501D01*
X58974820Y-105008005D01*
X58993292Y-104973446D01*
X59018153Y-104943153D01*
X59048446Y-104918292D01*
X59083005Y-104899820D01*
X59120501Y-104888445D01*
X59165638Y-104884000D01*
X59904362Y-104884000D01*
X59949499Y-104888445D01*
X59949499Y-104888445D01*
G37*
G36*
X51164499Y-104048445D02*
G01*
X51201995Y-104059820D01*
X51236554Y-104078292D01*
X51266847Y-104103153D01*
X51291708Y-104133446D01*
X51310180Y-104168005D01*
X51321555Y-104205501D01*
X51326000Y-104250638D01*
X51326000Y-104989362D01*
X51321555Y-105034499D01*
X51310180Y-105071995D01*
X51291708Y-105106554D01*
X51266847Y-105136847D01*
X51236554Y-105161708D01*
X51201995Y-105180180D01*
X51164499Y-105191555D01*
X51119362Y-105196000D01*
X50480638Y-105196000D01*
X50435501Y-105191555D01*
X50398005Y-105180180D01*
X50363446Y-105161708D01*
X50333153Y-105136847D01*
X50308292Y-105106554D01*
X50289820Y-105071995D01*
X50278445Y-105034499D01*
X50274000Y-104989362D01*
X50274000Y-104250638D01*
X50278445Y-104205501D01*
X50289820Y-104168005D01*
X50308292Y-104133446D01*
X50333153Y-104103153D01*
X50363446Y-104078292D01*
X50398005Y-104059820D01*
X50435501Y-104048445D01*
X50480638Y-104044000D01*
X51119362Y-104044000D01*
X51164499Y-104048445D01*
X51164499Y-104048445D01*
G37*
G36*
X53069499Y-104048445D02*
G01*
X53106995Y-104059820D01*
X53141554Y-104078292D01*
X53171847Y-104103153D01*
X53196708Y-104133446D01*
X53215180Y-104168005D01*
X53226555Y-104205501D01*
X53231000Y-104250638D01*
X53231000Y-104989362D01*
X53226555Y-105034499D01*
X53215180Y-105071995D01*
X53196708Y-105106554D01*
X53171847Y-105136847D01*
X53141554Y-105161708D01*
X53106995Y-105180180D01*
X53069499Y-105191555D01*
X53024362Y-105196000D01*
X52385638Y-105196000D01*
X52340501Y-105191555D01*
X52303005Y-105180180D01*
X52268446Y-105161708D01*
X52238153Y-105136847D01*
X52213292Y-105106554D01*
X52194820Y-105071995D01*
X52183445Y-105034499D01*
X52179000Y-104989362D01*
X52179000Y-104250638D01*
X52183445Y-104205501D01*
X52194820Y-104168005D01*
X52213292Y-104133446D01*
X52238153Y-104103153D01*
X52268446Y-104078292D01*
X52303005Y-104059820D01*
X52340501Y-104048445D01*
X52385638Y-104044000D01*
X53024362Y-104044000D01*
X53069499Y-104048445D01*
X53069499Y-104048445D01*
G37*
G36*
X54974499Y-104048445D02*
G01*
X55011995Y-104059820D01*
X55046554Y-104078292D01*
X55076847Y-104103153D01*
X55101708Y-104133446D01*
X55120180Y-104168005D01*
X55131555Y-104205501D01*
X55136000Y-104250638D01*
X55136000Y-104989362D01*
X55131555Y-105034499D01*
X55120180Y-105071995D01*
X55101708Y-105106554D01*
X55076847Y-105136847D01*
X55046554Y-105161708D01*
X55011995Y-105180180D01*
X54974499Y-105191555D01*
X54929362Y-105196000D01*
X54290638Y-105196000D01*
X54245501Y-105191555D01*
X54208005Y-105180180D01*
X54173446Y-105161708D01*
X54143153Y-105136847D01*
X54118292Y-105106554D01*
X54099820Y-105071995D01*
X54088445Y-105034499D01*
X54084000Y-104989362D01*
X54084000Y-104250638D01*
X54088445Y-104205501D01*
X54099820Y-104168005D01*
X54118292Y-104133446D01*
X54143153Y-104103153D01*
X54173446Y-104078292D01*
X54208005Y-104059820D01*
X54245501Y-104048445D01*
X54290638Y-104044000D01*
X54929362Y-104044000D01*
X54974499Y-104048445D01*
X54974499Y-104048445D01*
G37*
G36*
X62818674Y-103128465D02*
G01*
X62856367Y-103139899D01*
X62891103Y-103158466D01*
X62921548Y-103183452D01*
X62946534Y-103213897D01*
X62965101Y-103248633D01*
X62976535Y-103286326D01*
X62981000Y-103331661D01*
X62981000Y-104168339D01*
X62976535Y-104213674D01*
X62965101Y-104251367D01*
X62946534Y-104286103D01*
X62921548Y-104316548D01*
X62891103Y-104341534D01*
X62856367Y-104360101D01*
X62818674Y-104371535D01*
X62773339Y-104376000D01*
X61686661Y-104376000D01*
X61641326Y-104371535D01*
X61603633Y-104360101D01*
X61568897Y-104341534D01*
X61538452Y-104316548D01*
X61513466Y-104286103D01*
X61494899Y-104251367D01*
X61483465Y-104213674D01*
X61479000Y-104168339D01*
X61479000Y-103331661D01*
X61483465Y-103286326D01*
X61494899Y-103248633D01*
X61513466Y-103213897D01*
X61538452Y-103183452D01*
X61568897Y-103158466D01*
X61603633Y-103139899D01*
X61641326Y-103128465D01*
X61686661Y-103124000D01*
X62773339Y-103124000D01*
X62818674Y-103128465D01*
X62818674Y-103128465D01*
G37*
G36*
X59949499Y-102983445D02*
G01*
X59986995Y-102994820D01*
X60021554Y-103013292D01*
X60051847Y-103038153D01*
X60076708Y-103068446D01*
X60095180Y-103103005D01*
X60106555Y-103140501D01*
X60111000Y-103185638D01*
X60111000Y-103824362D01*
X60106555Y-103869499D01*
X60095180Y-103906995D01*
X60076708Y-103941554D01*
X60051847Y-103971847D01*
X60021554Y-103996708D01*
X59986995Y-104015180D01*
X59949499Y-104026555D01*
X59904362Y-104031000D01*
X59165638Y-104031000D01*
X59120501Y-104026555D01*
X59083005Y-104015180D01*
X59048446Y-103996708D01*
X59018153Y-103971847D01*
X58993292Y-103941554D01*
X58974820Y-103906995D01*
X58963445Y-103869499D01*
X58959000Y-103824362D01*
X58959000Y-103185638D01*
X58963445Y-103140501D01*
X58974820Y-103103005D01*
X58993292Y-103068446D01*
X59018153Y-103038153D01*
X59048446Y-103013292D01*
X59083005Y-102994820D01*
X59120501Y-102983445D01*
X59165638Y-102979000D01*
X59904362Y-102979000D01*
X59949499Y-102983445D01*
X59949499Y-102983445D01*
G37*
G36*
X58199499Y-102983445D02*
G01*
X58236995Y-102994820D01*
X58271554Y-103013292D01*
X58301847Y-103038153D01*
X58326708Y-103068446D01*
X58345180Y-103103005D01*
X58356555Y-103140501D01*
X58361000Y-103185638D01*
X58361000Y-103824362D01*
X58356555Y-103869499D01*
X58345180Y-103906995D01*
X58326708Y-103941554D01*
X58301847Y-103971847D01*
X58271554Y-103996708D01*
X58236995Y-104015180D01*
X58199499Y-104026555D01*
X58154362Y-104031000D01*
X57415638Y-104031000D01*
X57370501Y-104026555D01*
X57333005Y-104015180D01*
X57298446Y-103996708D01*
X57268153Y-103971847D01*
X57243292Y-103941554D01*
X57224820Y-103906995D01*
X57213445Y-103869499D01*
X57209000Y-103824362D01*
X57209000Y-103185638D01*
X57213445Y-103140501D01*
X57224820Y-103103005D01*
X57243292Y-103068446D01*
X57268153Y-103038153D01*
X57298446Y-103013292D01*
X57333005Y-102994820D01*
X57370501Y-102983445D01*
X57415638Y-102979000D01*
X58154362Y-102979000D01*
X58199499Y-102983445D01*
X58199499Y-102983445D01*
G37*
G36*
X75040442Y-101975518D02*
G01*
X75106627Y-101982037D01*
X75276466Y-102033557D01*
X75432991Y-102117222D01*
X75468729Y-102146552D01*
X75570186Y-102229814D01*
X75622861Y-102294000D01*
X75682778Y-102367009D01*
X75766443Y-102523534D01*
X75817963Y-102693373D01*
X75835359Y-102870000D01*
X75817963Y-103046627D01*
X75766443Y-103216466D01*
X75682778Y-103372991D01*
X75663753Y-103396173D01*
X75570186Y-103510186D01*
X75468729Y-103593448D01*
X75432991Y-103622778D01*
X75276466Y-103706443D01*
X75106627Y-103757963D01*
X75040443Y-103764481D01*
X74974260Y-103771000D01*
X74885740Y-103771000D01*
X74819557Y-103764481D01*
X74753373Y-103757963D01*
X74583534Y-103706443D01*
X74427009Y-103622778D01*
X74391271Y-103593448D01*
X74289814Y-103510186D01*
X74196247Y-103396173D01*
X74177222Y-103372991D01*
X74093557Y-103216466D01*
X74042037Y-103046627D01*
X74024641Y-102870000D01*
X74042037Y-102693373D01*
X74093557Y-102523534D01*
X74177222Y-102367009D01*
X74237139Y-102294000D01*
X74289814Y-102229814D01*
X74391271Y-102146552D01*
X74427009Y-102117222D01*
X74583534Y-102033557D01*
X74753373Y-101982037D01*
X74819558Y-101975518D01*
X74885740Y-101969000D01*
X74974260Y-101969000D01*
X75040442Y-101975518D01*
X75040442Y-101975518D01*
G37*
G36*
X73291000Y-103771000D02*
G01*
X71489000Y-103771000D01*
X71489000Y-101969000D01*
X73291000Y-101969000D01*
X73291000Y-103771000D01*
X73291000Y-103771000D01*
G37*
G36*
X79485442Y-101975518D02*
G01*
X79551627Y-101982037D01*
X79721466Y-102033557D01*
X79877991Y-102117222D01*
X79913729Y-102146552D01*
X80015186Y-102229814D01*
X80067861Y-102294000D01*
X80127778Y-102367009D01*
X80211443Y-102523534D01*
X80262963Y-102693373D01*
X80280359Y-102870000D01*
X80262963Y-103046627D01*
X80211443Y-103216466D01*
X80127778Y-103372991D01*
X80108753Y-103396173D01*
X80015186Y-103510186D01*
X79913729Y-103593448D01*
X79877991Y-103622778D01*
X79721466Y-103706443D01*
X79551627Y-103757963D01*
X79485443Y-103764481D01*
X79419260Y-103771000D01*
X79330740Y-103771000D01*
X79264557Y-103764481D01*
X79198373Y-103757963D01*
X79028534Y-103706443D01*
X78872009Y-103622778D01*
X78836271Y-103593448D01*
X78734814Y-103510186D01*
X78641247Y-103396173D01*
X78622222Y-103372991D01*
X78538557Y-103216466D01*
X78487037Y-103046627D01*
X78469641Y-102870000D01*
X78487037Y-102693373D01*
X78538557Y-102523534D01*
X78622222Y-102367009D01*
X78682139Y-102294000D01*
X78734814Y-102229814D01*
X78836271Y-102146552D01*
X78872009Y-102117222D01*
X79028534Y-102033557D01*
X79198373Y-101982037D01*
X79264558Y-101975518D01*
X79330740Y-101969000D01*
X79419260Y-101969000D01*
X79485442Y-101975518D01*
X79485442Y-101975518D01*
G37*
G36*
X54974499Y-102298445D02*
G01*
X55011995Y-102309820D01*
X55046554Y-102328292D01*
X55076847Y-102353153D01*
X55101708Y-102383446D01*
X55120180Y-102418005D01*
X55131555Y-102455501D01*
X55136000Y-102500638D01*
X55136000Y-103239362D01*
X55131555Y-103284499D01*
X55120180Y-103321995D01*
X55101708Y-103356554D01*
X55076847Y-103386847D01*
X55046554Y-103411708D01*
X55011995Y-103430180D01*
X54974499Y-103441555D01*
X54929362Y-103446000D01*
X54290638Y-103446000D01*
X54245501Y-103441555D01*
X54208005Y-103430180D01*
X54173446Y-103411708D01*
X54143153Y-103386847D01*
X54118292Y-103356554D01*
X54099820Y-103321995D01*
X54088445Y-103284499D01*
X54084000Y-103239362D01*
X54084000Y-102500638D01*
X54088445Y-102455501D01*
X54099820Y-102418005D01*
X54118292Y-102383446D01*
X54143153Y-102353153D01*
X54173446Y-102328292D01*
X54208005Y-102309820D01*
X54245501Y-102298445D01*
X54290638Y-102294000D01*
X54929362Y-102294000D01*
X54974499Y-102298445D01*
X54974499Y-102298445D01*
G37*
G36*
X53069499Y-102298445D02*
G01*
X53106995Y-102309820D01*
X53141554Y-102328292D01*
X53171847Y-102353153D01*
X53196708Y-102383446D01*
X53215180Y-102418005D01*
X53226555Y-102455501D01*
X53231000Y-102500638D01*
X53231000Y-103239362D01*
X53226555Y-103284499D01*
X53215180Y-103321995D01*
X53196708Y-103356554D01*
X53171847Y-103386847D01*
X53141554Y-103411708D01*
X53106995Y-103430180D01*
X53069499Y-103441555D01*
X53024362Y-103446000D01*
X52385638Y-103446000D01*
X52340501Y-103441555D01*
X52303005Y-103430180D01*
X52268446Y-103411708D01*
X52238153Y-103386847D01*
X52213292Y-103356554D01*
X52194820Y-103321995D01*
X52183445Y-103284499D01*
X52179000Y-103239362D01*
X52179000Y-102500638D01*
X52183445Y-102455501D01*
X52194820Y-102418005D01*
X52213292Y-102383446D01*
X52238153Y-102353153D01*
X52268446Y-102328292D01*
X52303005Y-102309820D01*
X52340501Y-102298445D01*
X52385638Y-102294000D01*
X53024362Y-102294000D01*
X53069499Y-102298445D01*
X53069499Y-102298445D01*
G37*
G36*
X51164499Y-102298445D02*
G01*
X51201995Y-102309820D01*
X51236554Y-102328292D01*
X51266847Y-102353153D01*
X51291708Y-102383446D01*
X51310180Y-102418005D01*
X51321555Y-102455501D01*
X51326000Y-102500638D01*
X51326000Y-103239362D01*
X51321555Y-103284499D01*
X51310180Y-103321995D01*
X51291708Y-103356554D01*
X51266847Y-103386847D01*
X51236554Y-103411708D01*
X51201995Y-103430180D01*
X51164499Y-103441555D01*
X51119362Y-103446000D01*
X50480638Y-103446000D01*
X50435501Y-103441555D01*
X50398005Y-103430180D01*
X50363446Y-103411708D01*
X50333153Y-103386847D01*
X50308292Y-103356554D01*
X50289820Y-103321995D01*
X50278445Y-103284499D01*
X50274000Y-103239362D01*
X50274000Y-102500638D01*
X50278445Y-102455501D01*
X50289820Y-102418005D01*
X50308292Y-102383446D01*
X50333153Y-102353153D01*
X50363446Y-102328292D01*
X50398005Y-102309820D01*
X50435501Y-102298445D01*
X50480638Y-102294000D01*
X51119362Y-102294000D01*
X51164499Y-102298445D01*
X51164499Y-102298445D01*
G37*
G36*
X59949499Y-101078445D02*
G01*
X59986995Y-101089820D01*
X60021554Y-101108292D01*
X60051847Y-101133153D01*
X60076708Y-101163446D01*
X60095180Y-101198005D01*
X60106555Y-101235501D01*
X60111000Y-101280638D01*
X60111000Y-101919362D01*
X60106555Y-101964499D01*
X60095180Y-102001995D01*
X60076708Y-102036554D01*
X60051847Y-102066847D01*
X60021554Y-102091708D01*
X59986995Y-102110180D01*
X59949499Y-102121555D01*
X59904362Y-102126000D01*
X59165638Y-102126000D01*
X59120501Y-102121555D01*
X59083005Y-102110180D01*
X59048446Y-102091708D01*
X59018153Y-102066847D01*
X58993292Y-102036554D01*
X58974820Y-102001995D01*
X58963445Y-101964499D01*
X58959000Y-101919362D01*
X58959000Y-101280638D01*
X58963445Y-101235501D01*
X58974820Y-101198005D01*
X58993292Y-101163446D01*
X59018153Y-101133153D01*
X59048446Y-101108292D01*
X59083005Y-101089820D01*
X59120501Y-101078445D01*
X59165638Y-101074000D01*
X59904362Y-101074000D01*
X59949499Y-101078445D01*
X59949499Y-101078445D01*
G37*
G36*
X58199499Y-101078445D02*
G01*
X58236995Y-101089820D01*
X58271554Y-101108292D01*
X58301847Y-101133153D01*
X58326708Y-101163446D01*
X58345180Y-101198005D01*
X58356555Y-101235501D01*
X58361000Y-101280638D01*
X58361000Y-101919362D01*
X58356555Y-101964499D01*
X58345180Y-102001995D01*
X58326708Y-102036554D01*
X58301847Y-102066847D01*
X58271554Y-102091708D01*
X58236995Y-102110180D01*
X58199499Y-102121555D01*
X58154362Y-102126000D01*
X57415638Y-102126000D01*
X57370501Y-102121555D01*
X57333005Y-102110180D01*
X57298446Y-102091708D01*
X57268153Y-102066847D01*
X57243292Y-102036554D01*
X57224820Y-102001995D01*
X57213445Y-101964499D01*
X57209000Y-101919362D01*
X57209000Y-101280638D01*
X57213445Y-101235501D01*
X57224820Y-101198005D01*
X57243292Y-101163446D01*
X57268153Y-101133153D01*
X57298446Y-101108292D01*
X57333005Y-101089820D01*
X57370501Y-101078445D01*
X57415638Y-101074000D01*
X58154362Y-101074000D01*
X58199499Y-101078445D01*
X58199499Y-101078445D01*
G37*
G36*
X80276000Y-101231000D02*
G01*
X78474000Y-101231000D01*
X78474000Y-99429000D01*
X80276000Y-99429000D01*
X80276000Y-101231000D01*
X80276000Y-101231000D01*
G37*
M02*
