G04 #@! TF.GenerationSoftware,KiCad,Pcbnew,5.1.4*
G04 #@! TF.CreationDate,2019-11-23T01:56:27+01:00*
G04 #@! TF.ProjectId,antivol,616e7469-766f-46c2-9e6b-696361645f70,rev?*
G04 #@! TF.SameCoordinates,Original*
G04 #@! TF.FileFunction,Soldermask,Bot*
G04 #@! TF.FilePolarity,Negative*
%FSLAX46Y46*%
G04 Gerber Fmt 4.6, Leading zero omitted, Abs format (unit mm)*
G04 Created by KiCad (PCBNEW 5.1.4) date 2019-11-23 01:56:27*
%MOMM*%
%LPD*%
G04 APERTURE LIST*
%ADD10C,0.100000*%
G04 APERTURE END LIST*
D10*
G36*
X65905800Y-117110800D02*
G01*
X64904200Y-117110800D01*
X64904200Y-115009200D01*
X65905800Y-115009200D01*
X65905800Y-117110800D01*
X65905800Y-117110800D01*
G37*
G36*
X67175800Y-117110800D02*
G01*
X66174200Y-117110800D01*
X66174200Y-115009200D01*
X67175800Y-115009200D01*
X67175800Y-117110800D01*
X67175800Y-117110800D01*
G37*
G36*
X68445800Y-117110800D02*
G01*
X67444200Y-117110800D01*
X67444200Y-115009200D01*
X68445800Y-115009200D01*
X68445800Y-117110800D01*
X68445800Y-117110800D01*
G37*
G36*
X64635800Y-117110800D02*
G01*
X63634200Y-117110800D01*
X63634200Y-115009200D01*
X64635800Y-115009200D01*
X64635800Y-117110800D01*
X64635800Y-117110800D01*
G37*
G36*
X63365800Y-117110800D02*
G01*
X62364200Y-117110800D01*
X62364200Y-115009200D01*
X63365800Y-115009200D01*
X63365800Y-117110800D01*
X63365800Y-117110800D01*
G37*
G36*
X62095800Y-117110800D02*
G01*
X61094200Y-117110800D01*
X61094200Y-115009200D01*
X62095800Y-115009200D01*
X62095800Y-117110800D01*
X62095800Y-117110800D01*
G37*
G36*
X60825800Y-117110800D02*
G01*
X59824200Y-117110800D01*
X59824200Y-115009200D01*
X60825800Y-115009200D01*
X60825800Y-117110800D01*
X60825800Y-117110800D01*
G37*
G36*
X58285800Y-117110800D02*
G01*
X57284200Y-117110800D01*
X57284200Y-115009200D01*
X58285800Y-115009200D01*
X58285800Y-117110800D01*
X58285800Y-117110800D01*
G37*
G36*
X51935800Y-117110800D02*
G01*
X50934200Y-117110800D01*
X50934200Y-115009200D01*
X51935800Y-115009200D01*
X51935800Y-117110800D01*
X51935800Y-117110800D01*
G37*
G36*
X53205800Y-117110800D02*
G01*
X52204200Y-117110800D01*
X52204200Y-115009200D01*
X53205800Y-115009200D01*
X53205800Y-117110800D01*
X53205800Y-117110800D01*
G37*
G36*
X54475800Y-117110800D02*
G01*
X53474200Y-117110800D01*
X53474200Y-115009200D01*
X54475800Y-115009200D01*
X54475800Y-117110800D01*
X54475800Y-117110800D01*
G37*
G36*
X55745800Y-117110800D02*
G01*
X54744200Y-117110800D01*
X54744200Y-115009200D01*
X55745800Y-115009200D01*
X55745800Y-117110800D01*
X55745800Y-117110800D01*
G37*
G36*
X57015800Y-117110800D02*
G01*
X56014200Y-117110800D01*
X56014200Y-115009200D01*
X57015800Y-115009200D01*
X57015800Y-117110800D01*
X57015800Y-117110800D01*
G37*
G36*
X59555800Y-117110800D02*
G01*
X58554200Y-117110800D01*
X58554200Y-115009200D01*
X59555800Y-115009200D01*
X59555800Y-117110800D01*
X59555800Y-117110800D01*
G37*
G36*
X73037000Y-116471000D02*
G01*
X71235000Y-116471000D01*
X71235000Y-114669000D01*
X73037000Y-114669000D01*
X73037000Y-116471000D01*
X73037000Y-116471000D01*
G37*
G36*
X72246443Y-112135519D02*
G01*
X72312627Y-112142037D01*
X72482466Y-112193557D01*
X72638991Y-112277222D01*
X72674729Y-112306552D01*
X72776186Y-112389814D01*
X72859448Y-112491271D01*
X72888778Y-112527009D01*
X72972443Y-112683534D01*
X73023963Y-112853373D01*
X73041359Y-113030000D01*
X73023963Y-113206627D01*
X72972443Y-113376466D01*
X72888778Y-113532991D01*
X72859448Y-113568729D01*
X72776186Y-113670186D01*
X72674729Y-113753448D01*
X72638991Y-113782778D01*
X72482466Y-113866443D01*
X72312627Y-113917963D01*
X72246443Y-113924481D01*
X72180260Y-113931000D01*
X72091740Y-113931000D01*
X72025557Y-113924481D01*
X71959373Y-113917963D01*
X71789534Y-113866443D01*
X71633009Y-113782778D01*
X71597271Y-113753448D01*
X71495814Y-113670186D01*
X71412552Y-113568729D01*
X71383222Y-113532991D01*
X71299557Y-113376466D01*
X71248037Y-113206627D01*
X71230641Y-113030000D01*
X71248037Y-112853373D01*
X71299557Y-112683534D01*
X71383222Y-112527009D01*
X71412552Y-112491271D01*
X71495814Y-112389814D01*
X71597271Y-112306552D01*
X71633009Y-112277222D01*
X71789534Y-112193557D01*
X71959373Y-112142037D01*
X72025557Y-112135519D01*
X72091740Y-112129000D01*
X72180260Y-112129000D01*
X72246443Y-112135519D01*
X72246443Y-112135519D01*
G37*
G36*
X69995800Y-113790800D02*
G01*
X67894200Y-113790800D01*
X67894200Y-112789200D01*
X69995800Y-112789200D01*
X69995800Y-113790800D01*
X69995800Y-113790800D01*
G37*
G36*
X76310442Y-111627518D02*
G01*
X76376627Y-111634037D01*
X76546466Y-111685557D01*
X76702991Y-111769222D01*
X76738729Y-111798552D01*
X76840186Y-111881814D01*
X76923448Y-111983271D01*
X76952778Y-112019009D01*
X77036443Y-112175534D01*
X77087963Y-112345373D01*
X77105359Y-112522000D01*
X77087963Y-112698627D01*
X77036443Y-112868466D01*
X76952778Y-113024991D01*
X76948667Y-113030000D01*
X76840186Y-113162186D01*
X76738729Y-113245448D01*
X76702991Y-113274778D01*
X76546466Y-113358443D01*
X76376627Y-113409963D01*
X76310442Y-113416482D01*
X76244260Y-113423000D01*
X76155740Y-113423000D01*
X76089558Y-113416482D01*
X76023373Y-113409963D01*
X75853534Y-113358443D01*
X75697009Y-113274778D01*
X75661271Y-113245448D01*
X75559814Y-113162186D01*
X75451333Y-113030000D01*
X75447222Y-113024991D01*
X75363557Y-112868466D01*
X75312037Y-112698627D01*
X75294641Y-112522000D01*
X75312037Y-112345373D01*
X75363557Y-112175534D01*
X75447222Y-112019009D01*
X75476552Y-111983271D01*
X75559814Y-111881814D01*
X75661271Y-111798552D01*
X75697009Y-111769222D01*
X75853534Y-111685557D01*
X76023373Y-111634037D01*
X76089558Y-111627518D01*
X76155740Y-111621000D01*
X76244260Y-111621000D01*
X76310442Y-111627518D01*
X76310442Y-111627518D01*
G37*
G36*
X69995800Y-112520800D02*
G01*
X67894200Y-112520800D01*
X67894200Y-111519200D01*
X69995800Y-111519200D01*
X69995800Y-112520800D01*
X69995800Y-112520800D01*
G37*
G36*
X69995800Y-111250800D02*
G01*
X67894200Y-111250800D01*
X67894200Y-110249200D01*
X69995800Y-110249200D01*
X69995800Y-111250800D01*
X69995800Y-111250800D01*
G37*
G36*
X76310443Y-109087519D02*
G01*
X76376627Y-109094037D01*
X76546466Y-109145557D01*
X76702991Y-109229222D01*
X76738729Y-109258552D01*
X76840186Y-109341814D01*
X76923448Y-109443271D01*
X76952778Y-109479009D01*
X77036443Y-109635534D01*
X77087963Y-109805373D01*
X77105359Y-109982000D01*
X77087963Y-110158627D01*
X77036443Y-110328466D01*
X76952778Y-110484991D01*
X76923448Y-110520729D01*
X76840186Y-110622186D01*
X76738729Y-110705448D01*
X76702991Y-110734778D01*
X76546466Y-110818443D01*
X76376627Y-110869963D01*
X76310442Y-110876482D01*
X76244260Y-110883000D01*
X76155740Y-110883000D01*
X76089558Y-110876482D01*
X76023373Y-110869963D01*
X75853534Y-110818443D01*
X75697009Y-110734778D01*
X75661271Y-110705448D01*
X75559814Y-110622186D01*
X75476552Y-110520729D01*
X75447222Y-110484991D01*
X75363557Y-110328466D01*
X75312037Y-110158627D01*
X75294641Y-109982000D01*
X75312037Y-109805373D01*
X75363557Y-109635534D01*
X75447222Y-109479009D01*
X75476552Y-109443271D01*
X75559814Y-109341814D01*
X75661271Y-109258552D01*
X75697009Y-109229222D01*
X75853534Y-109145557D01*
X76023373Y-109094037D01*
X76089557Y-109087519D01*
X76155740Y-109081000D01*
X76244260Y-109081000D01*
X76310443Y-109087519D01*
X76310443Y-109087519D01*
G37*
G36*
X69995800Y-109980800D02*
G01*
X67894200Y-109980800D01*
X67894200Y-108979200D01*
X69995800Y-108979200D01*
X69995800Y-109980800D01*
X69995800Y-109980800D01*
G37*
G36*
X61495800Y-109110800D02*
G01*
X56394200Y-109110800D01*
X56394200Y-104009200D01*
X61495800Y-104009200D01*
X61495800Y-109110800D01*
X61495800Y-109110800D01*
G37*
G36*
X69995800Y-108710800D02*
G01*
X67894200Y-108710800D01*
X67894200Y-107709200D01*
X69995800Y-107709200D01*
X69995800Y-108710800D01*
X69995800Y-108710800D01*
G37*
G36*
X76310443Y-106547519D02*
G01*
X76376627Y-106554037D01*
X76546466Y-106605557D01*
X76702991Y-106689222D01*
X76738729Y-106718552D01*
X76840186Y-106801814D01*
X76893277Y-106866507D01*
X76952778Y-106939009D01*
X77036443Y-107095534D01*
X77087963Y-107265373D01*
X77105359Y-107442000D01*
X77087963Y-107618627D01*
X77036443Y-107788466D01*
X76952778Y-107944991D01*
X76923448Y-107980729D01*
X76840186Y-108082186D01*
X76738729Y-108165448D01*
X76702991Y-108194778D01*
X76546466Y-108278443D01*
X76376627Y-108329963D01*
X76310442Y-108336482D01*
X76244260Y-108343000D01*
X76155740Y-108343000D01*
X76089558Y-108336482D01*
X76023373Y-108329963D01*
X75853534Y-108278443D01*
X75697009Y-108194778D01*
X75661271Y-108165448D01*
X75559814Y-108082186D01*
X75476552Y-107980729D01*
X75447222Y-107944991D01*
X75363557Y-107788466D01*
X75312037Y-107618627D01*
X75294641Y-107442000D01*
X75312037Y-107265373D01*
X75363557Y-107095534D01*
X75447222Y-106939009D01*
X75506723Y-106866507D01*
X75559814Y-106801814D01*
X75661271Y-106718552D01*
X75697009Y-106689222D01*
X75853534Y-106605557D01*
X76023373Y-106554037D01*
X76089557Y-106547519D01*
X76155740Y-106541000D01*
X76244260Y-106541000D01*
X76310443Y-106547519D01*
X76310443Y-106547519D01*
G37*
G36*
X69995800Y-107440800D02*
G01*
X67894200Y-107440800D01*
X67894200Y-106439200D01*
X69995800Y-106439200D01*
X69995800Y-107440800D01*
X69995800Y-107440800D01*
G37*
G36*
X69995800Y-106170800D02*
G01*
X67894200Y-106170800D01*
X67894200Y-105169200D01*
X69995800Y-105169200D01*
X69995800Y-106170800D01*
X69995800Y-106170800D01*
G37*
G36*
X76310443Y-104007519D02*
G01*
X76376627Y-104014037D01*
X76546466Y-104065557D01*
X76702991Y-104149222D01*
X76738729Y-104178552D01*
X76840186Y-104261814D01*
X76923448Y-104363271D01*
X76952778Y-104399009D01*
X77036443Y-104555534D01*
X77087963Y-104725373D01*
X77105359Y-104902000D01*
X77087963Y-105078627D01*
X77036443Y-105248466D01*
X76952778Y-105404991D01*
X76923448Y-105440729D01*
X76840186Y-105542186D01*
X76738729Y-105625448D01*
X76702991Y-105654778D01*
X76546466Y-105738443D01*
X76376627Y-105789963D01*
X76310442Y-105796482D01*
X76244260Y-105803000D01*
X76155740Y-105803000D01*
X76089558Y-105796482D01*
X76023373Y-105789963D01*
X75853534Y-105738443D01*
X75697009Y-105654778D01*
X75661271Y-105625448D01*
X75559814Y-105542186D01*
X75476552Y-105440729D01*
X75447222Y-105404991D01*
X75363557Y-105248466D01*
X75312037Y-105078627D01*
X75294641Y-104902000D01*
X75312037Y-104725373D01*
X75363557Y-104555534D01*
X75447222Y-104399009D01*
X75476552Y-104363271D01*
X75559814Y-104261814D01*
X75661271Y-104178552D01*
X75697009Y-104149222D01*
X75853534Y-104065557D01*
X76023373Y-104014037D01*
X76089558Y-104007518D01*
X76155740Y-104001000D01*
X76244260Y-104001000D01*
X76310443Y-104007519D01*
X76310443Y-104007519D01*
G37*
G36*
X69995800Y-104900800D02*
G01*
X67894200Y-104900800D01*
X67894200Y-103899200D01*
X69995800Y-103899200D01*
X69995800Y-104900800D01*
X69995800Y-104900800D01*
G37*
G36*
X69995800Y-103630800D02*
G01*
X67894200Y-103630800D01*
X67894200Y-102629200D01*
X69995800Y-102629200D01*
X69995800Y-103630800D01*
X69995800Y-103630800D01*
G37*
G36*
X72246442Y-101467518D02*
G01*
X72312627Y-101474037D01*
X72482466Y-101525557D01*
X72638991Y-101609222D01*
X72674729Y-101638552D01*
X72776186Y-101721814D01*
X72859448Y-101823271D01*
X72888778Y-101859009D01*
X72972443Y-102015534D01*
X73023963Y-102185373D01*
X73041359Y-102362000D01*
X73023963Y-102538627D01*
X72972443Y-102708466D01*
X72888778Y-102864991D01*
X72859448Y-102900729D01*
X72776186Y-103002186D01*
X72674729Y-103085448D01*
X72638991Y-103114778D01*
X72482466Y-103198443D01*
X72312627Y-103249963D01*
X72246442Y-103256482D01*
X72180260Y-103263000D01*
X72091740Y-103263000D01*
X72025558Y-103256482D01*
X71959373Y-103249963D01*
X71789534Y-103198443D01*
X71633009Y-103114778D01*
X71597271Y-103085448D01*
X71495814Y-103002186D01*
X71412552Y-102900729D01*
X71383222Y-102864991D01*
X71299557Y-102708466D01*
X71248037Y-102538627D01*
X71230641Y-102362000D01*
X71248037Y-102185373D01*
X71299557Y-102015534D01*
X71383222Y-101859009D01*
X71412552Y-101823271D01*
X71495814Y-101721814D01*
X71597271Y-101638552D01*
X71633009Y-101609222D01*
X71789534Y-101525557D01*
X71959373Y-101474037D01*
X72025558Y-101467518D01*
X72091740Y-101461000D01*
X72180260Y-101461000D01*
X72246442Y-101467518D01*
X72246442Y-101467518D01*
G37*
G36*
X76310442Y-101467518D02*
G01*
X76376627Y-101474037D01*
X76546466Y-101525557D01*
X76702991Y-101609222D01*
X76738729Y-101638552D01*
X76840186Y-101721814D01*
X76923448Y-101823271D01*
X76952778Y-101859009D01*
X77036443Y-102015534D01*
X77087963Y-102185373D01*
X77105359Y-102362000D01*
X77087963Y-102538627D01*
X77036443Y-102708466D01*
X76952778Y-102864991D01*
X76923448Y-102900729D01*
X76840186Y-103002186D01*
X76738729Y-103085448D01*
X76702991Y-103114778D01*
X76546466Y-103198443D01*
X76376627Y-103249963D01*
X76310442Y-103256482D01*
X76244260Y-103263000D01*
X76155740Y-103263000D01*
X76089558Y-103256482D01*
X76023373Y-103249963D01*
X75853534Y-103198443D01*
X75697009Y-103114778D01*
X75661271Y-103085448D01*
X75559814Y-103002186D01*
X75476552Y-102900729D01*
X75447222Y-102864991D01*
X75363557Y-102708466D01*
X75312037Y-102538627D01*
X75294641Y-102362000D01*
X75312037Y-102185373D01*
X75363557Y-102015534D01*
X75447222Y-101859009D01*
X75476552Y-101823271D01*
X75559814Y-101721814D01*
X75661271Y-101638552D01*
X75697009Y-101609222D01*
X75853534Y-101525557D01*
X76023373Y-101474037D01*
X76089558Y-101467518D01*
X76155740Y-101461000D01*
X76244260Y-101461000D01*
X76310442Y-101467518D01*
X76310442Y-101467518D01*
G37*
G36*
X69995800Y-102360800D02*
G01*
X67894200Y-102360800D01*
X67894200Y-101359200D01*
X69995800Y-101359200D01*
X69995800Y-102360800D01*
X69995800Y-102360800D01*
G37*
G36*
X77101000Y-100723000D02*
G01*
X75299000Y-100723000D01*
X75299000Y-98921000D01*
X77101000Y-98921000D01*
X77101000Y-100723000D01*
X77101000Y-100723000D01*
G37*
G36*
X73037000Y-100723000D02*
G01*
X71235000Y-100723000D01*
X71235000Y-98921000D01*
X73037000Y-98921000D01*
X73037000Y-100723000D01*
X73037000Y-100723000D01*
G37*
G36*
X51935800Y-100110800D02*
G01*
X50934200Y-100110800D01*
X50934200Y-98009200D01*
X51935800Y-98009200D01*
X51935800Y-100110800D01*
X51935800Y-100110800D01*
G37*
G36*
X53205800Y-100110800D02*
G01*
X52204200Y-100110800D01*
X52204200Y-98009200D01*
X53205800Y-98009200D01*
X53205800Y-100110800D01*
X53205800Y-100110800D01*
G37*
G36*
X55745800Y-100110800D02*
G01*
X54744200Y-100110800D01*
X54744200Y-98009200D01*
X55745800Y-98009200D01*
X55745800Y-100110800D01*
X55745800Y-100110800D01*
G37*
G36*
X68445800Y-100110800D02*
G01*
X67444200Y-100110800D01*
X67444200Y-98009200D01*
X68445800Y-98009200D01*
X68445800Y-100110800D01*
X68445800Y-100110800D01*
G37*
G36*
X67175800Y-100110800D02*
G01*
X66174200Y-100110800D01*
X66174200Y-98009200D01*
X67175800Y-98009200D01*
X67175800Y-100110800D01*
X67175800Y-100110800D01*
G37*
G36*
X65905800Y-100110800D02*
G01*
X64904200Y-100110800D01*
X64904200Y-98009200D01*
X65905800Y-98009200D01*
X65905800Y-100110800D01*
X65905800Y-100110800D01*
G37*
G36*
X64635800Y-100110800D02*
G01*
X63634200Y-100110800D01*
X63634200Y-98009200D01*
X64635800Y-98009200D01*
X64635800Y-100110800D01*
X64635800Y-100110800D01*
G37*
G36*
X63365800Y-100110800D02*
G01*
X62364200Y-100110800D01*
X62364200Y-98009200D01*
X63365800Y-98009200D01*
X63365800Y-100110800D01*
X63365800Y-100110800D01*
G37*
G36*
X62095800Y-100110800D02*
G01*
X61094200Y-100110800D01*
X61094200Y-98009200D01*
X62095800Y-98009200D01*
X62095800Y-100110800D01*
X62095800Y-100110800D01*
G37*
G36*
X60825800Y-100110800D02*
G01*
X59824200Y-100110800D01*
X59824200Y-98009200D01*
X60825800Y-98009200D01*
X60825800Y-100110800D01*
X60825800Y-100110800D01*
G37*
G36*
X59555800Y-100110800D02*
G01*
X58554200Y-100110800D01*
X58554200Y-98009200D01*
X59555800Y-98009200D01*
X59555800Y-100110800D01*
X59555800Y-100110800D01*
G37*
G36*
X58285800Y-100110800D02*
G01*
X57284200Y-100110800D01*
X57284200Y-98009200D01*
X58285800Y-98009200D01*
X58285800Y-100110800D01*
X58285800Y-100110800D01*
G37*
G36*
X54475800Y-100110800D02*
G01*
X53474200Y-100110800D01*
X53474200Y-98009200D01*
X54475800Y-98009200D01*
X54475800Y-100110800D01*
X54475800Y-100110800D01*
G37*
G36*
X57015800Y-100110800D02*
G01*
X56014200Y-100110800D01*
X56014200Y-98009200D01*
X57015800Y-98009200D01*
X57015800Y-100110800D01*
X57015800Y-100110800D01*
G37*
M02*
