G04 #@! TF.GenerationSoftware,KiCad,Pcbnew,5.1.4*
G04 #@! TF.CreationDate,2019-12-21T01:28:04+01:00*
G04 #@! TF.ProjectId,antivol,616e7469-766f-46c2-9e6b-696361645f70,rev?*
G04 #@! TF.SameCoordinates,Original*
G04 #@! TF.FileFunction,Soldermask,Bot*
G04 #@! TF.FilePolarity,Negative*
%FSLAX46Y46*%
G04 Gerber Fmt 4.6, Leading zero omitted, Abs format (unit mm)*
G04 Created by KiCad (PCBNEW 5.1.4) date 2019-12-21 01:28:04*
%MOMM*%
%LPD*%
G04 APERTURE LIST*
%ADD10C,0.100000*%
G04 APERTURE END LIST*
D10*
G36*
X68445800Y-117110800D02*
G01*
X67444200Y-117110800D01*
X67444200Y-115009200D01*
X68445800Y-115009200D01*
X68445800Y-117110800D01*
X68445800Y-117110800D01*
G37*
G36*
X67175800Y-117110800D02*
G01*
X66174200Y-117110800D01*
X66174200Y-115009200D01*
X67175800Y-115009200D01*
X67175800Y-117110800D01*
X67175800Y-117110800D01*
G37*
G36*
X65905800Y-117110800D02*
G01*
X64904200Y-117110800D01*
X64904200Y-115009200D01*
X65905800Y-115009200D01*
X65905800Y-117110800D01*
X65905800Y-117110800D01*
G37*
G36*
X64635800Y-117110800D02*
G01*
X63634200Y-117110800D01*
X63634200Y-115009200D01*
X64635800Y-115009200D01*
X64635800Y-117110800D01*
X64635800Y-117110800D01*
G37*
G36*
X51935800Y-117110800D02*
G01*
X50934200Y-117110800D01*
X50934200Y-115009200D01*
X51935800Y-115009200D01*
X51935800Y-117110800D01*
X51935800Y-117110800D01*
G37*
G36*
X53205800Y-117110800D02*
G01*
X52204200Y-117110800D01*
X52204200Y-115009200D01*
X53205800Y-115009200D01*
X53205800Y-117110800D01*
X53205800Y-117110800D01*
G37*
G36*
X54475800Y-117110800D02*
G01*
X53474200Y-117110800D01*
X53474200Y-115009200D01*
X54475800Y-115009200D01*
X54475800Y-117110800D01*
X54475800Y-117110800D01*
G37*
G36*
X57015800Y-117110800D02*
G01*
X56014200Y-117110800D01*
X56014200Y-115009200D01*
X57015800Y-115009200D01*
X57015800Y-117110800D01*
X57015800Y-117110800D01*
G37*
G36*
X63365800Y-117110800D02*
G01*
X62364200Y-117110800D01*
X62364200Y-115009200D01*
X63365800Y-115009200D01*
X63365800Y-117110800D01*
X63365800Y-117110800D01*
G37*
G36*
X62095800Y-117110800D02*
G01*
X61094200Y-117110800D01*
X61094200Y-115009200D01*
X62095800Y-115009200D01*
X62095800Y-117110800D01*
X62095800Y-117110800D01*
G37*
G36*
X60825800Y-117110800D02*
G01*
X59824200Y-117110800D01*
X59824200Y-115009200D01*
X60825800Y-115009200D01*
X60825800Y-117110800D01*
X60825800Y-117110800D01*
G37*
G36*
X59555800Y-117110800D02*
G01*
X58554200Y-117110800D01*
X58554200Y-115009200D01*
X59555800Y-115009200D01*
X59555800Y-117110800D01*
X59555800Y-117110800D01*
G37*
G36*
X58285800Y-117110800D02*
G01*
X57284200Y-117110800D01*
X57284200Y-115009200D01*
X58285800Y-115009200D01*
X58285800Y-117110800D01*
X58285800Y-117110800D01*
G37*
G36*
X55745800Y-117110800D02*
G01*
X54744200Y-117110800D01*
X54744200Y-115009200D01*
X55745800Y-115009200D01*
X55745800Y-117110800D01*
X55745800Y-117110800D01*
G37*
G36*
X82605617Y-113816420D02*
G01*
X82696403Y-113843960D01*
X82728335Y-113853646D01*
X82841424Y-113914094D01*
X82940554Y-113995447D01*
X83021906Y-114094575D01*
X83082354Y-114207664D01*
X83092040Y-114239596D01*
X83119580Y-114330382D01*
X83129000Y-114426027D01*
X83129000Y-115189973D01*
X83119580Y-115285618D01*
X83092040Y-115376404D01*
X83082354Y-115408336D01*
X83021906Y-115521425D01*
X82940554Y-115620554D01*
X82841425Y-115701906D01*
X82728336Y-115762354D01*
X82696404Y-115772040D01*
X82605618Y-115799580D01*
X82478000Y-115812149D01*
X82350383Y-115799580D01*
X82259597Y-115772040D01*
X82227665Y-115762354D01*
X82114576Y-115701906D01*
X82015447Y-115620554D01*
X81934095Y-115521425D01*
X81873648Y-115408337D01*
X81873645Y-115408332D01*
X81836420Y-115285618D01*
X81827000Y-115189973D01*
X81827000Y-114426028D01*
X81836420Y-114330383D01*
X81873645Y-114207669D01*
X81873646Y-114207665D01*
X81934094Y-114094576D01*
X82015447Y-113995446D01*
X82114575Y-113914094D01*
X82227664Y-113853646D01*
X82259596Y-113843960D01*
X82350382Y-113816420D01*
X82478000Y-113803851D01*
X82605617Y-113816420D01*
X82605617Y-113816420D01*
G37*
G36*
X75605618Y-113816420D02*
G01*
X75696404Y-113843960D01*
X75728336Y-113853646D01*
X75841425Y-113914094D01*
X75940554Y-113995446D01*
X76021906Y-114094575D01*
X76082354Y-114207664D01*
X76092040Y-114239596D01*
X76119580Y-114330382D01*
X76129000Y-114426027D01*
X76129000Y-115189973D01*
X76119580Y-115285618D01*
X76092040Y-115376404D01*
X76082354Y-115408336D01*
X76021906Y-115521425D01*
X75940554Y-115620553D01*
X75841424Y-115701906D01*
X75728335Y-115762354D01*
X75696403Y-115772040D01*
X75605617Y-115799580D01*
X75478000Y-115812149D01*
X75350382Y-115799580D01*
X75259596Y-115772040D01*
X75227664Y-115762354D01*
X75114575Y-115701906D01*
X75015447Y-115620554D01*
X74934094Y-115521424D01*
X74873646Y-115408335D01*
X74863960Y-115376403D01*
X74836420Y-115285617D01*
X74827000Y-115189972D01*
X74827000Y-114426027D01*
X74836420Y-114330382D01*
X74873645Y-114207668D01*
X74898608Y-114160966D01*
X74934095Y-114094575D01*
X75015447Y-113995446D01*
X75114576Y-113914094D01*
X75227665Y-113853646D01*
X75259597Y-113843960D01*
X75350383Y-113816420D01*
X75478000Y-113803851D01*
X75605618Y-113816420D01*
X75605618Y-113816420D01*
G37*
G36*
X69995800Y-113790800D02*
G01*
X67894200Y-113790800D01*
X67894200Y-112789200D01*
X69995800Y-112789200D01*
X69995800Y-113790800D01*
X69995800Y-113790800D01*
G37*
G36*
X72754442Y-111627518D02*
G01*
X72820627Y-111634037D01*
X72990466Y-111685557D01*
X73146991Y-111769222D01*
X73182729Y-111798552D01*
X73284186Y-111881814D01*
X73367448Y-111983271D01*
X73396778Y-112019009D01*
X73480443Y-112175534D01*
X73531963Y-112345373D01*
X73549359Y-112522000D01*
X73531963Y-112698627D01*
X73480443Y-112868466D01*
X73396778Y-113024991D01*
X73367448Y-113060729D01*
X73284186Y-113162186D01*
X73182729Y-113245448D01*
X73146991Y-113274778D01*
X72990466Y-113358443D01*
X72820627Y-113409963D01*
X72754442Y-113416482D01*
X72688260Y-113423000D01*
X72599740Y-113423000D01*
X72533558Y-113416482D01*
X72467373Y-113409963D01*
X72297534Y-113358443D01*
X72141009Y-113274778D01*
X72105271Y-113245448D01*
X72003814Y-113162186D01*
X71920552Y-113060729D01*
X71891222Y-113024991D01*
X71807557Y-112868466D01*
X71756037Y-112698627D01*
X71738641Y-112522000D01*
X71756037Y-112345373D01*
X71807557Y-112175534D01*
X71891222Y-112019009D01*
X71920552Y-111983271D01*
X72003814Y-111881814D01*
X72105271Y-111798552D01*
X72141009Y-111769222D01*
X72297534Y-111685557D01*
X72467373Y-111634037D01*
X72533558Y-111627518D01*
X72599740Y-111621000D01*
X72688260Y-111621000D01*
X72754442Y-111627518D01*
X72754442Y-111627518D01*
G37*
G36*
X76704348Y-111361820D02*
G01*
X76704350Y-111361821D01*
X76704351Y-111361821D01*
X76845574Y-111420317D01*
X76845577Y-111420319D01*
X76972669Y-111505239D01*
X77080761Y-111613331D01*
X77129021Y-111685558D01*
X77165683Y-111740426D01*
X77224179Y-111881649D01*
X77224180Y-111881652D01*
X77251502Y-112019011D01*
X77254000Y-112031571D01*
X77254000Y-112184429D01*
X77224179Y-112334351D01*
X77165683Y-112475574D01*
X77165681Y-112475577D01*
X77080761Y-112602669D01*
X76972669Y-112710761D01*
X76845577Y-112795681D01*
X76845574Y-112795683D01*
X76704351Y-112854179D01*
X76704350Y-112854179D01*
X76704348Y-112854180D01*
X76554431Y-112884000D01*
X76401569Y-112884000D01*
X76251652Y-112854180D01*
X76251650Y-112854179D01*
X76251649Y-112854179D01*
X76110426Y-112795683D01*
X76110423Y-112795681D01*
X75983331Y-112710761D01*
X75875239Y-112602669D01*
X75790319Y-112475577D01*
X75790317Y-112475574D01*
X75731821Y-112334351D01*
X75702000Y-112184429D01*
X75702000Y-112031571D01*
X75704498Y-112019011D01*
X75731820Y-111881652D01*
X75731821Y-111881649D01*
X75790317Y-111740426D01*
X75826979Y-111685558D01*
X75875239Y-111613331D01*
X75983331Y-111505239D01*
X76110423Y-111420319D01*
X76110426Y-111420317D01*
X76251649Y-111361821D01*
X76251650Y-111361821D01*
X76251652Y-111361820D01*
X76401569Y-111332000D01*
X76554431Y-111332000D01*
X76704348Y-111361820D01*
X76704348Y-111361820D01*
G37*
G36*
X81704348Y-111361820D02*
G01*
X81704350Y-111361821D01*
X81704351Y-111361821D01*
X81845574Y-111420317D01*
X81845577Y-111420319D01*
X81972669Y-111505239D01*
X82080761Y-111613331D01*
X82129021Y-111685558D01*
X82165683Y-111740426D01*
X82224179Y-111881649D01*
X82224180Y-111881652D01*
X82251502Y-112019011D01*
X82254000Y-112031571D01*
X82254000Y-112184429D01*
X82224179Y-112334351D01*
X82165683Y-112475574D01*
X82165681Y-112475577D01*
X82080761Y-112602669D01*
X81972669Y-112710761D01*
X81845577Y-112795681D01*
X81845574Y-112795683D01*
X81704351Y-112854179D01*
X81704350Y-112854179D01*
X81704348Y-112854180D01*
X81554431Y-112884000D01*
X81401569Y-112884000D01*
X81251652Y-112854180D01*
X81251650Y-112854179D01*
X81251649Y-112854179D01*
X81110426Y-112795683D01*
X81110423Y-112795681D01*
X80983331Y-112710761D01*
X80875239Y-112602669D01*
X80790319Y-112475577D01*
X80790317Y-112475574D01*
X80731821Y-112334351D01*
X80702000Y-112184429D01*
X80702000Y-112031571D01*
X80704498Y-112019011D01*
X80731820Y-111881652D01*
X80731821Y-111881649D01*
X80790317Y-111740426D01*
X80826979Y-111685558D01*
X80875239Y-111613331D01*
X80983331Y-111505239D01*
X81110423Y-111420319D01*
X81110426Y-111420317D01*
X81251649Y-111361821D01*
X81251650Y-111361821D01*
X81251652Y-111361820D01*
X81401569Y-111332000D01*
X81554431Y-111332000D01*
X81704348Y-111361820D01*
X81704348Y-111361820D01*
G37*
G36*
X69995800Y-112520800D02*
G01*
X67894200Y-112520800D01*
X67894200Y-111519200D01*
X69995800Y-111519200D01*
X69995800Y-112520800D01*
X69995800Y-112520800D01*
G37*
G36*
X69995800Y-111250800D02*
G01*
X67894200Y-111250800D01*
X67894200Y-110249200D01*
X69995800Y-110249200D01*
X69995800Y-111250800D01*
X69995800Y-111250800D01*
G37*
G36*
X72754443Y-109087519D02*
G01*
X72820627Y-109094037D01*
X72990466Y-109145557D01*
X73146991Y-109229222D01*
X73182729Y-109258552D01*
X73284186Y-109341814D01*
X73367448Y-109443271D01*
X73396778Y-109479009D01*
X73480443Y-109635534D01*
X73531963Y-109805373D01*
X73549359Y-109982000D01*
X73531963Y-110158627D01*
X73480443Y-110328466D01*
X73396778Y-110484991D01*
X73367448Y-110520729D01*
X73284186Y-110622186D01*
X73182729Y-110705448D01*
X73146991Y-110734778D01*
X72990466Y-110818443D01*
X72820627Y-110869963D01*
X72754442Y-110876482D01*
X72688260Y-110883000D01*
X72599740Y-110883000D01*
X72533558Y-110876482D01*
X72467373Y-110869963D01*
X72297534Y-110818443D01*
X72141009Y-110734778D01*
X72105271Y-110705448D01*
X72003814Y-110622186D01*
X71920552Y-110520729D01*
X71891222Y-110484991D01*
X71807557Y-110328466D01*
X71756037Y-110158627D01*
X71738641Y-109982000D01*
X71756037Y-109805373D01*
X71807557Y-109635534D01*
X71891222Y-109479009D01*
X71920552Y-109443271D01*
X72003814Y-109341814D01*
X72105271Y-109258552D01*
X72141009Y-109229222D01*
X72297534Y-109145557D01*
X72467373Y-109094037D01*
X72533557Y-109087519D01*
X72599740Y-109081000D01*
X72688260Y-109081000D01*
X72754443Y-109087519D01*
X72754443Y-109087519D01*
G37*
G36*
X69995800Y-109980800D02*
G01*
X67894200Y-109980800D01*
X67894200Y-108979200D01*
X69995800Y-108979200D01*
X69995800Y-109980800D01*
X69995800Y-109980800D01*
G37*
G36*
X61495800Y-109110800D02*
G01*
X56394200Y-109110800D01*
X56394200Y-104009200D01*
X61495800Y-104009200D01*
X61495800Y-109110800D01*
X61495800Y-109110800D01*
G37*
G36*
X69995800Y-108710800D02*
G01*
X67894200Y-108710800D01*
X67894200Y-107709200D01*
X69995800Y-107709200D01*
X69995800Y-108710800D01*
X69995800Y-108710800D01*
G37*
G36*
X72754443Y-106547519D02*
G01*
X72820627Y-106554037D01*
X72990466Y-106605557D01*
X73146991Y-106689222D01*
X73182729Y-106718552D01*
X73284186Y-106801814D01*
X73337277Y-106866507D01*
X73396778Y-106939009D01*
X73480443Y-107095534D01*
X73531963Y-107265373D01*
X73549359Y-107442000D01*
X73531963Y-107618627D01*
X73480443Y-107788466D01*
X73396778Y-107944991D01*
X73367448Y-107980729D01*
X73284186Y-108082186D01*
X73182729Y-108165448D01*
X73146991Y-108194778D01*
X72990466Y-108278443D01*
X72820627Y-108329963D01*
X72754442Y-108336482D01*
X72688260Y-108343000D01*
X72599740Y-108343000D01*
X72533558Y-108336482D01*
X72467373Y-108329963D01*
X72297534Y-108278443D01*
X72141009Y-108194778D01*
X72105271Y-108165448D01*
X72003814Y-108082186D01*
X71920552Y-107980729D01*
X71891222Y-107944991D01*
X71807557Y-107788466D01*
X71756037Y-107618627D01*
X71738641Y-107442000D01*
X71756037Y-107265373D01*
X71807557Y-107095534D01*
X71891222Y-106939009D01*
X71950723Y-106866507D01*
X72003814Y-106801814D01*
X72105271Y-106718552D01*
X72141009Y-106689222D01*
X72297534Y-106605557D01*
X72467373Y-106554037D01*
X72533557Y-106547519D01*
X72599740Y-106541000D01*
X72688260Y-106541000D01*
X72754443Y-106547519D01*
X72754443Y-106547519D01*
G37*
G36*
X69995800Y-107440800D02*
G01*
X67894200Y-107440800D01*
X67894200Y-106439200D01*
X69995800Y-106439200D01*
X69995800Y-107440800D01*
X69995800Y-107440800D01*
G37*
G36*
X69995800Y-106170800D02*
G01*
X67894200Y-106170800D01*
X67894200Y-105169200D01*
X69995800Y-105169200D01*
X69995800Y-106170800D01*
X69995800Y-106170800D01*
G37*
G36*
X72754443Y-104007519D02*
G01*
X72820627Y-104014037D01*
X72990466Y-104065557D01*
X73146991Y-104149222D01*
X73182729Y-104178552D01*
X73284186Y-104261814D01*
X73367448Y-104363271D01*
X73396778Y-104399009D01*
X73480443Y-104555534D01*
X73531963Y-104725373D01*
X73549359Y-104902000D01*
X73531963Y-105078627D01*
X73480443Y-105248466D01*
X73396778Y-105404991D01*
X73367448Y-105440729D01*
X73284186Y-105542186D01*
X73182729Y-105625448D01*
X73146991Y-105654778D01*
X72990466Y-105738443D01*
X72820627Y-105789963D01*
X72754442Y-105796482D01*
X72688260Y-105803000D01*
X72599740Y-105803000D01*
X72533558Y-105796482D01*
X72467373Y-105789963D01*
X72297534Y-105738443D01*
X72141009Y-105654778D01*
X72105271Y-105625448D01*
X72003814Y-105542186D01*
X71920552Y-105440729D01*
X71891222Y-105404991D01*
X71807557Y-105248466D01*
X71756037Y-105078627D01*
X71738641Y-104902000D01*
X71756037Y-104725373D01*
X71807557Y-104555534D01*
X71891222Y-104399009D01*
X71920552Y-104363271D01*
X72003814Y-104261814D01*
X72105271Y-104178552D01*
X72141009Y-104149222D01*
X72297534Y-104065557D01*
X72467373Y-104014037D01*
X72533558Y-104007518D01*
X72599740Y-104001000D01*
X72688260Y-104001000D01*
X72754443Y-104007519D01*
X72754443Y-104007519D01*
G37*
G36*
X69995800Y-104900800D02*
G01*
X67894200Y-104900800D01*
X67894200Y-103899200D01*
X69995800Y-103899200D01*
X69995800Y-104900800D01*
X69995800Y-104900800D01*
G37*
G36*
X69995800Y-103630800D02*
G01*
X67894200Y-103630800D01*
X67894200Y-102629200D01*
X69995800Y-102629200D01*
X69995800Y-103630800D01*
X69995800Y-103630800D01*
G37*
G36*
X72754442Y-101467518D02*
G01*
X72820627Y-101474037D01*
X72990466Y-101525557D01*
X73146991Y-101609222D01*
X73182729Y-101638552D01*
X73284186Y-101721814D01*
X73367448Y-101823271D01*
X73396778Y-101859009D01*
X73480443Y-102015534D01*
X73531963Y-102185373D01*
X73549359Y-102362000D01*
X73531963Y-102538627D01*
X73480443Y-102708466D01*
X73396778Y-102864991D01*
X73367448Y-102900729D01*
X73284186Y-103002186D01*
X73182729Y-103085448D01*
X73146991Y-103114778D01*
X72990466Y-103198443D01*
X72820627Y-103249963D01*
X72754442Y-103256482D01*
X72688260Y-103263000D01*
X72599740Y-103263000D01*
X72533558Y-103256482D01*
X72467373Y-103249963D01*
X72297534Y-103198443D01*
X72141009Y-103114778D01*
X72105271Y-103085448D01*
X72003814Y-103002186D01*
X71920552Y-102900729D01*
X71891222Y-102864991D01*
X71807557Y-102708466D01*
X71756037Y-102538627D01*
X71738641Y-102362000D01*
X71756037Y-102185373D01*
X71807557Y-102015534D01*
X71891222Y-101859009D01*
X71920552Y-101823271D01*
X72003814Y-101721814D01*
X72105271Y-101638552D01*
X72141009Y-101609222D01*
X72297534Y-101525557D01*
X72467373Y-101474037D01*
X72533558Y-101467518D01*
X72599740Y-101461000D01*
X72688260Y-101461000D01*
X72754442Y-101467518D01*
X72754442Y-101467518D01*
G37*
G36*
X69995800Y-102360800D02*
G01*
X67894200Y-102360800D01*
X67894200Y-101359200D01*
X69995800Y-101359200D01*
X69995800Y-102360800D01*
X69995800Y-102360800D01*
G37*
G36*
X73545000Y-100723000D02*
G01*
X71743000Y-100723000D01*
X71743000Y-98921000D01*
X73545000Y-98921000D01*
X73545000Y-100723000D01*
X73545000Y-100723000D01*
G37*
G36*
X79104442Y-98673518D02*
G01*
X79170627Y-98680037D01*
X79340466Y-98731557D01*
X79496991Y-98815222D01*
X79532729Y-98844552D01*
X79634186Y-98927814D01*
X79717448Y-99029271D01*
X79746778Y-99065009D01*
X79830443Y-99221534D01*
X79881963Y-99391373D01*
X79899359Y-99568000D01*
X79881963Y-99744627D01*
X79830443Y-99914466D01*
X79746778Y-100070991D01*
X79717448Y-100106729D01*
X79634186Y-100208186D01*
X79532729Y-100291448D01*
X79496991Y-100320778D01*
X79340466Y-100404443D01*
X79170627Y-100455963D01*
X79104442Y-100462482D01*
X79038260Y-100469000D01*
X78949740Y-100469000D01*
X78883557Y-100462481D01*
X78817373Y-100455963D01*
X78647534Y-100404443D01*
X78491009Y-100320778D01*
X78455271Y-100291448D01*
X78353814Y-100208186D01*
X78270552Y-100106729D01*
X78241222Y-100070991D01*
X78157557Y-99914466D01*
X78106037Y-99744627D01*
X78088641Y-99568000D01*
X78106037Y-99391373D01*
X78157557Y-99221534D01*
X78241222Y-99065009D01*
X78270552Y-99029271D01*
X78353814Y-98927814D01*
X78455271Y-98844552D01*
X78491009Y-98815222D01*
X78647534Y-98731557D01*
X78817373Y-98680037D01*
X78883558Y-98673518D01*
X78949740Y-98667000D01*
X79038260Y-98667000D01*
X79104442Y-98673518D01*
X79104442Y-98673518D01*
G37*
G36*
X82435000Y-100469000D02*
G01*
X80633000Y-100469000D01*
X80633000Y-98667000D01*
X82435000Y-98667000D01*
X82435000Y-100469000D01*
X82435000Y-100469000D01*
G37*
G36*
X51935800Y-100110800D02*
G01*
X50934200Y-100110800D01*
X50934200Y-98009200D01*
X51935800Y-98009200D01*
X51935800Y-100110800D01*
X51935800Y-100110800D01*
G37*
G36*
X53205800Y-100110800D02*
G01*
X52204200Y-100110800D01*
X52204200Y-98009200D01*
X53205800Y-98009200D01*
X53205800Y-100110800D01*
X53205800Y-100110800D01*
G37*
G36*
X55745800Y-100110800D02*
G01*
X54744200Y-100110800D01*
X54744200Y-98009200D01*
X55745800Y-98009200D01*
X55745800Y-100110800D01*
X55745800Y-100110800D01*
G37*
G36*
X57015800Y-100110800D02*
G01*
X56014200Y-100110800D01*
X56014200Y-98009200D01*
X57015800Y-98009200D01*
X57015800Y-100110800D01*
X57015800Y-100110800D01*
G37*
G36*
X58285800Y-100110800D02*
G01*
X57284200Y-100110800D01*
X57284200Y-98009200D01*
X58285800Y-98009200D01*
X58285800Y-100110800D01*
X58285800Y-100110800D01*
G37*
G36*
X59555800Y-100110800D02*
G01*
X58554200Y-100110800D01*
X58554200Y-98009200D01*
X59555800Y-98009200D01*
X59555800Y-100110800D01*
X59555800Y-100110800D01*
G37*
G36*
X60825800Y-100110800D02*
G01*
X59824200Y-100110800D01*
X59824200Y-98009200D01*
X60825800Y-98009200D01*
X60825800Y-100110800D01*
X60825800Y-100110800D01*
G37*
G36*
X62095800Y-100110800D02*
G01*
X61094200Y-100110800D01*
X61094200Y-98009200D01*
X62095800Y-98009200D01*
X62095800Y-100110800D01*
X62095800Y-100110800D01*
G37*
G36*
X63365800Y-100110800D02*
G01*
X62364200Y-100110800D01*
X62364200Y-98009200D01*
X63365800Y-98009200D01*
X63365800Y-100110800D01*
X63365800Y-100110800D01*
G37*
G36*
X64635800Y-100110800D02*
G01*
X63634200Y-100110800D01*
X63634200Y-98009200D01*
X64635800Y-98009200D01*
X64635800Y-100110800D01*
X64635800Y-100110800D01*
G37*
G36*
X54475800Y-100110800D02*
G01*
X53474200Y-100110800D01*
X53474200Y-98009200D01*
X54475800Y-98009200D01*
X54475800Y-100110800D01*
X54475800Y-100110800D01*
G37*
G36*
X65905800Y-100110800D02*
G01*
X64904200Y-100110800D01*
X64904200Y-98009200D01*
X65905800Y-98009200D01*
X65905800Y-100110800D01*
X65905800Y-100110800D01*
G37*
G36*
X67175800Y-100110800D02*
G01*
X66174200Y-100110800D01*
X66174200Y-98009200D01*
X67175800Y-98009200D01*
X67175800Y-100110800D01*
X67175800Y-100110800D01*
G37*
G36*
X68445800Y-100110800D02*
G01*
X67444200Y-100110800D01*
X67444200Y-98009200D01*
X68445800Y-98009200D01*
X68445800Y-100110800D01*
X68445800Y-100110800D01*
G37*
M02*
