M48
; DRILL file {KiCad 5.1.4} date lun. 18 nov. 2019 21:05:12 CET
; FORMAT={-:-/ absolute / inch / decimal}
; #@! TF.CreationDate,2019-11-18T21:05:12+01:00
; #@! TF.GenerationSoftware,Kicad,Pcbnew,5.1.4
; #@! TF.FileFunction,Plated,1,2,PTH
FMAT,2
INCH
T1C0.0157
T2C0.0394
%
G90
G05
T1
X2.0Y-4.05
X2.05Y-4.5189
X2.075Y-4.1189
X2.125Y-4.45
X2.15Y-4.05
X2.2Y-4.45
X2.275Y-4.0
X2.3439Y-4.0
X2.3557Y-4.45
X2.45Y-4.1654
X2.525Y-3.9154
X2.525Y-4.15
X2.525Y-4.2
X2.575Y-4.05
X2.6149Y-4.0505
X2.625Y-4.5846
T2
X3.125Y-3.95
X3.125Y-4.05
X3.125Y-4.15
X3.125Y-4.25
X3.125Y-4.35
X3.125Y-4.45
X2.85Y-4.05
X2.85Y-4.15
X2.85Y-4.25
X2.85Y-4.35
X2.95Y-4.05
X2.95Y-4.15
X2.95Y-4.25
X2.95Y-4.35
X2.85Y-4.525
X2.95Y-4.525
T0
M30
