G04 #@! TF.GenerationSoftware,KiCad,Pcbnew,5.1.4*
G04 #@! TF.CreationDate,2019-11-18T21:05:01+01:00*
G04 #@! TF.ProjectId,antivol,616e7469-766f-46c2-9e6b-696361645f70,rev?*
G04 #@! TF.SameCoordinates,Original*
G04 #@! TF.FileFunction,Copper,L2,Bot*
G04 #@! TF.FilePolarity,Positive*
%FSLAX46Y46*%
G04 Gerber Fmt 4.6, Leading zero omitted, Abs format (unit mm)*
G04 Created by KiCad (PCBNEW 5.1.4) date 2019-11-18 21:05:01*
%MOMM*%
%LPD*%
G04 APERTURE LIST*
%ADD10O,1.700000X1.700000*%
%ADD11R,1.700000X1.700000*%
%ADD12R,0.900000X2.000000*%
%ADD13R,2.000000X0.900000*%
%ADD14R,5.000000X5.000000*%
%ADD15C,0.800000*%
%ADD16C,0.250000*%
%ADD17C,0.254000*%
G04 APERTURE END LIST*
D10*
X74930000Y-110490000D03*
X72390000Y-110490000D03*
X74930000Y-107950000D03*
X72390000Y-107950000D03*
X74930000Y-105410000D03*
X72390000Y-105410000D03*
X74930000Y-102870000D03*
D11*
X72390000Y-102870000D03*
D12*
X51435000Y-116450000D03*
X52705000Y-116450000D03*
X53975000Y-116450000D03*
X55245000Y-116450000D03*
X56515000Y-116450000D03*
X57785000Y-116450000D03*
X59055000Y-116450000D03*
X60325000Y-116450000D03*
X61595000Y-116450000D03*
X62865000Y-116450000D03*
X64135000Y-116450000D03*
X65405000Y-116450000D03*
X66675000Y-116450000D03*
X67945000Y-116450000D03*
D13*
X68945000Y-113665000D03*
X68945000Y-112395000D03*
X68945000Y-111125000D03*
X68945000Y-109855000D03*
X68945000Y-108585000D03*
X68945000Y-107315000D03*
X68945000Y-106045000D03*
X68945000Y-104775000D03*
X68945000Y-103505000D03*
X68945000Y-102235000D03*
D12*
X67945000Y-99450000D03*
X66675000Y-99450000D03*
X65405000Y-99450000D03*
X64135000Y-99450000D03*
X62865000Y-99450000D03*
X61595000Y-99450000D03*
X60325000Y-99450000D03*
X59055000Y-99450000D03*
X57785000Y-99450000D03*
X56515000Y-99450000D03*
X55245000Y-99450000D03*
X53975000Y-99450000D03*
X52705000Y-99450000D03*
X51435000Y-99450000D03*
D14*
X58935000Y-106950000D03*
D10*
X79375000Y-113030000D03*
X79375000Y-110490000D03*
X79375000Y-107950000D03*
X79375000Y-105410000D03*
X79375000Y-102870000D03*
D11*
X79375000Y-100330000D03*
D10*
X74930000Y-114935000D03*
D11*
X72390000Y-114935000D03*
D15*
X50800000Y-102870000D03*
X54610000Y-102870000D03*
X62230000Y-105800000D03*
X59835000Y-113030000D03*
X52070000Y-114780000D03*
X57785000Y-101600000D03*
X52705000Y-104620000D03*
X66675000Y-116450000D03*
X66417654Y-102882651D03*
X65405000Y-102870000D03*
X64135000Y-106680000D03*
X59535000Y-101600000D03*
X64135000Y-105410000D03*
X53975000Y-113030000D03*
X55880000Y-113030000D03*
X64135000Y-99450000D03*
D16*
X62230000Y-105125000D02*
X62230000Y-105800000D01*
X62230000Y-104971998D02*
X62230000Y-105125000D01*
X62230000Y-105800000D02*
X62230000Y-104971998D01*
X62230000Y-104971998D02*
X62230000Y-102235000D01*
X67695000Y-101535000D02*
X68395000Y-102235000D01*
X68395000Y-102235000D02*
X68945000Y-102235000D01*
X62930000Y-101535000D02*
X67695000Y-101535000D01*
X62230000Y-102235000D02*
X62930000Y-101535000D01*
X52705000Y-99450000D02*
X52705000Y-100965000D01*
X52705000Y-100965000D02*
X52705000Y-101600000D01*
X52705000Y-101600000D02*
X57785000Y-101600000D01*
X52705000Y-101600000D02*
X52705000Y-104620000D01*
X65405000Y-116450000D02*
X65405000Y-109220000D01*
X66417654Y-108207346D02*
X66417654Y-102882651D01*
X65405000Y-109220000D02*
X66417654Y-108207346D01*
X65405000Y-107951410D02*
X65405000Y-102870000D01*
X64135000Y-116450000D02*
X64135000Y-109221410D01*
X64135000Y-109221410D02*
X65405000Y-107951410D01*
X71540001Y-111339999D02*
X72390000Y-110490000D01*
X70195000Y-113665000D02*
X71540001Y-112319999D01*
X71540001Y-112319999D02*
X71540001Y-111339999D01*
X68945000Y-113665000D02*
X70195000Y-113665000D01*
X56061412Y-111760000D02*
X60960000Y-111760000D01*
X55154999Y-112666413D02*
X56061412Y-111760000D01*
X64135000Y-108585000D02*
X64135000Y-106680000D01*
X60960000Y-111760000D02*
X64135000Y-108585000D01*
X55245000Y-113930000D02*
X55245000Y-113468002D01*
X56515000Y-116450000D02*
X56515000Y-115200000D01*
X55154999Y-113378001D02*
X55154999Y-112666413D01*
X56515000Y-115200000D02*
X55245000Y-113930000D01*
X55245000Y-113468002D02*
X55154999Y-113378001D01*
X53975000Y-100700000D02*
X54050001Y-100775001D01*
X59535000Y-100810000D02*
X59535000Y-101600000D01*
X54050001Y-100775001D02*
X59500001Y-100775001D01*
X53975000Y-99450000D02*
X53975000Y-100700000D01*
X59500001Y-100775001D02*
X59535000Y-100810000D01*
X72835001Y-100775001D02*
X74930000Y-102870000D01*
X59500001Y-100775001D02*
X72835001Y-100775001D01*
X68710002Y-116450000D02*
X68645000Y-116450000D01*
X73565001Y-111595001D02*
X68710002Y-116450000D01*
X68645000Y-116450000D02*
X67945000Y-116450000D01*
X73565001Y-109125001D02*
X73565001Y-111595001D01*
X72390000Y-107950000D02*
X73565001Y-109125001D01*
X55245000Y-115570000D02*
X55245000Y-116450000D01*
X54700001Y-115025001D02*
X55245000Y-115570000D01*
X64135000Y-105410000D02*
X63409999Y-106135001D01*
X54700001Y-112485001D02*
X54700001Y-115025001D01*
X63409999Y-108060003D02*
X60345002Y-111125000D01*
X63409999Y-106135001D02*
X63409999Y-108060003D01*
X60345002Y-111125000D02*
X56060002Y-111125000D01*
X56060002Y-111125000D02*
X54700001Y-112485001D01*
X53975000Y-116450000D02*
X53975000Y-113030000D01*
X57785000Y-115200000D02*
X55880000Y-113295000D01*
X57785000Y-116450000D02*
X57785000Y-115200000D01*
X55880000Y-113295000D02*
X55880000Y-113030000D01*
D17*
G36*
X80620000Y-98982705D02*
G01*
X80579494Y-98949463D01*
X80469180Y-98890498D01*
X80349482Y-98854188D01*
X80225000Y-98841928D01*
X78525000Y-98841928D01*
X78400518Y-98854188D01*
X78280820Y-98890498D01*
X78170506Y-98949463D01*
X78073815Y-99028815D01*
X77994463Y-99125506D01*
X77935498Y-99235820D01*
X77899188Y-99355518D01*
X77886928Y-99480000D01*
X77886928Y-101180000D01*
X77899188Y-101304482D01*
X77935498Y-101424180D01*
X77994463Y-101534494D01*
X78073815Y-101631185D01*
X78170506Y-101710537D01*
X78280820Y-101769502D01*
X78349687Y-101790393D01*
X78319866Y-101814866D01*
X78134294Y-102040986D01*
X77996401Y-102298966D01*
X77911487Y-102578889D01*
X77882815Y-102870000D01*
X77911487Y-103161111D01*
X77996401Y-103441034D01*
X78134294Y-103699014D01*
X78319866Y-103925134D01*
X78545986Y-104110706D01*
X78600791Y-104140000D01*
X78545986Y-104169294D01*
X78319866Y-104354866D01*
X78134294Y-104580986D01*
X77996401Y-104838966D01*
X77911487Y-105118889D01*
X77882815Y-105410000D01*
X77911487Y-105701111D01*
X77996401Y-105981034D01*
X78134294Y-106239014D01*
X78319866Y-106465134D01*
X78545986Y-106650706D01*
X78600791Y-106680000D01*
X78545986Y-106709294D01*
X78319866Y-106894866D01*
X78134294Y-107120986D01*
X77996401Y-107378966D01*
X77911487Y-107658889D01*
X77882815Y-107950000D01*
X77911487Y-108241111D01*
X77996401Y-108521034D01*
X78134294Y-108779014D01*
X78319866Y-109005134D01*
X78545986Y-109190706D01*
X78610523Y-109225201D01*
X78493645Y-109294822D01*
X78277412Y-109489731D01*
X78103359Y-109723080D01*
X77978175Y-109985901D01*
X77933524Y-110133110D01*
X78054845Y-110363000D01*
X79248000Y-110363000D01*
X79248000Y-110343000D01*
X79502000Y-110343000D01*
X79502000Y-110363000D01*
X79522000Y-110363000D01*
X79522000Y-110617000D01*
X79502000Y-110617000D01*
X79502000Y-110637000D01*
X79248000Y-110637000D01*
X79248000Y-110617000D01*
X78054845Y-110617000D01*
X77933524Y-110846890D01*
X77978175Y-110994099D01*
X78103359Y-111256920D01*
X78277412Y-111490269D01*
X78493645Y-111685178D01*
X78610523Y-111754799D01*
X78545986Y-111789294D01*
X78319866Y-111974866D01*
X78134294Y-112200986D01*
X77996401Y-112458966D01*
X77911487Y-112738889D01*
X77882815Y-113030000D01*
X77911487Y-113321111D01*
X77996401Y-113601034D01*
X78134294Y-113859014D01*
X78319866Y-114085134D01*
X78545986Y-114270706D01*
X78803966Y-114408599D01*
X79083889Y-114493513D01*
X79302050Y-114515000D01*
X79447950Y-114515000D01*
X79666111Y-114493513D01*
X79946034Y-114408599D01*
X80204014Y-114270706D01*
X80430134Y-114085134D01*
X80615706Y-113859014D01*
X80620001Y-113850979D01*
X80620001Y-117348000D01*
X69033072Y-117348000D01*
X69033072Y-117139071D01*
X69134278Y-117084974D01*
X69250003Y-116990001D01*
X69273806Y-116960997D01*
X70904403Y-115330401D01*
X70901928Y-115785000D01*
X70914188Y-115909482D01*
X70950498Y-116029180D01*
X71009463Y-116139494D01*
X71088815Y-116236185D01*
X71185506Y-116315537D01*
X71295820Y-116374502D01*
X71415518Y-116410812D01*
X71540000Y-116423072D01*
X72104250Y-116420000D01*
X72263000Y-116261250D01*
X72263000Y-115062000D01*
X72243000Y-115062000D01*
X72243000Y-114808000D01*
X72263000Y-114808000D01*
X72263000Y-114788000D01*
X72517000Y-114788000D01*
X72517000Y-114808000D01*
X72537000Y-114808000D01*
X72537000Y-115062000D01*
X72517000Y-115062000D01*
X72517000Y-116261250D01*
X72675750Y-116420000D01*
X73240000Y-116423072D01*
X73364482Y-116410812D01*
X73484180Y-116374502D01*
X73594494Y-116315537D01*
X73691185Y-116236185D01*
X73770537Y-116139494D01*
X73829502Y-116029180D01*
X73850393Y-115960313D01*
X73874866Y-115990134D01*
X74100986Y-116175706D01*
X74358966Y-116313599D01*
X74638889Y-116398513D01*
X74857050Y-116420000D01*
X75002950Y-116420000D01*
X75221111Y-116398513D01*
X75501034Y-116313599D01*
X75759014Y-116175706D01*
X75985134Y-115990134D01*
X76170706Y-115764014D01*
X76308599Y-115506034D01*
X76393513Y-115226111D01*
X76422185Y-114935000D01*
X76393513Y-114643889D01*
X76308599Y-114363966D01*
X76170706Y-114105986D01*
X75985134Y-113879866D01*
X75759014Y-113694294D01*
X75501034Y-113556401D01*
X75221111Y-113471487D01*
X75002950Y-113450000D01*
X74857050Y-113450000D01*
X74638889Y-113471487D01*
X74358966Y-113556401D01*
X74100986Y-113694294D01*
X73874866Y-113879866D01*
X73850393Y-113909687D01*
X73829502Y-113840820D01*
X73770537Y-113730506D01*
X73691185Y-113633815D01*
X73594494Y-113554463D01*
X73484180Y-113495498D01*
X73364482Y-113459188D01*
X73240000Y-113446928D01*
X72785401Y-113449403D01*
X74076009Y-112158796D01*
X74105002Y-112135002D01*
X74128796Y-112106009D01*
X74128800Y-112106005D01*
X74199974Y-112019278D01*
X74199975Y-112019277D01*
X74270547Y-111887248D01*
X74288503Y-111828054D01*
X74298748Y-111834157D01*
X74573109Y-111931481D01*
X74803000Y-111810814D01*
X74803000Y-110617000D01*
X75057000Y-110617000D01*
X75057000Y-111810814D01*
X75286891Y-111931481D01*
X75561252Y-111834157D01*
X75811355Y-111685178D01*
X76027588Y-111490269D01*
X76201641Y-111256920D01*
X76326825Y-110994099D01*
X76371476Y-110846890D01*
X76250155Y-110617000D01*
X75057000Y-110617000D01*
X74803000Y-110617000D01*
X74783000Y-110617000D01*
X74783000Y-110363000D01*
X74803000Y-110363000D01*
X74803000Y-110343000D01*
X75057000Y-110343000D01*
X75057000Y-110363000D01*
X76250155Y-110363000D01*
X76371476Y-110133110D01*
X76326825Y-109985901D01*
X76201641Y-109723080D01*
X76027588Y-109489731D01*
X75811355Y-109294822D01*
X75694477Y-109225201D01*
X75759014Y-109190706D01*
X75985134Y-109005134D01*
X76170706Y-108779014D01*
X76308599Y-108521034D01*
X76393513Y-108241111D01*
X76422185Y-107950000D01*
X76393513Y-107658889D01*
X76308599Y-107378966D01*
X76170706Y-107120986D01*
X75985134Y-106894866D01*
X75759014Y-106709294D01*
X75704209Y-106680000D01*
X75759014Y-106650706D01*
X75985134Y-106465134D01*
X76170706Y-106239014D01*
X76308599Y-105981034D01*
X76393513Y-105701111D01*
X76422185Y-105410000D01*
X76393513Y-105118889D01*
X76308599Y-104838966D01*
X76170706Y-104580986D01*
X75985134Y-104354866D01*
X75759014Y-104169294D01*
X75704209Y-104140000D01*
X75759014Y-104110706D01*
X75985134Y-103925134D01*
X76170706Y-103699014D01*
X76308599Y-103441034D01*
X76393513Y-103161111D01*
X76422185Y-102870000D01*
X76393513Y-102578889D01*
X76308599Y-102298966D01*
X76170706Y-102040986D01*
X75985134Y-101814866D01*
X75759014Y-101629294D01*
X75501034Y-101491401D01*
X75221111Y-101406487D01*
X75002950Y-101385000D01*
X74857050Y-101385000D01*
X74638889Y-101406487D01*
X74564005Y-101429203D01*
X73398805Y-100264004D01*
X73375002Y-100235000D01*
X73259277Y-100140027D01*
X73127248Y-100069455D01*
X72983987Y-100025998D01*
X72872334Y-100015001D01*
X72872323Y-100015001D01*
X72835001Y-100011325D01*
X72797679Y-100015001D01*
X69033072Y-100015001D01*
X69033072Y-98552000D01*
X80620000Y-98552000D01*
X80620000Y-98982705D01*
X80620000Y-98982705D01*
G37*
X80620000Y-98982705D02*
X80579494Y-98949463D01*
X80469180Y-98890498D01*
X80349482Y-98854188D01*
X80225000Y-98841928D01*
X78525000Y-98841928D01*
X78400518Y-98854188D01*
X78280820Y-98890498D01*
X78170506Y-98949463D01*
X78073815Y-99028815D01*
X77994463Y-99125506D01*
X77935498Y-99235820D01*
X77899188Y-99355518D01*
X77886928Y-99480000D01*
X77886928Y-101180000D01*
X77899188Y-101304482D01*
X77935498Y-101424180D01*
X77994463Y-101534494D01*
X78073815Y-101631185D01*
X78170506Y-101710537D01*
X78280820Y-101769502D01*
X78349687Y-101790393D01*
X78319866Y-101814866D01*
X78134294Y-102040986D01*
X77996401Y-102298966D01*
X77911487Y-102578889D01*
X77882815Y-102870000D01*
X77911487Y-103161111D01*
X77996401Y-103441034D01*
X78134294Y-103699014D01*
X78319866Y-103925134D01*
X78545986Y-104110706D01*
X78600791Y-104140000D01*
X78545986Y-104169294D01*
X78319866Y-104354866D01*
X78134294Y-104580986D01*
X77996401Y-104838966D01*
X77911487Y-105118889D01*
X77882815Y-105410000D01*
X77911487Y-105701111D01*
X77996401Y-105981034D01*
X78134294Y-106239014D01*
X78319866Y-106465134D01*
X78545986Y-106650706D01*
X78600791Y-106680000D01*
X78545986Y-106709294D01*
X78319866Y-106894866D01*
X78134294Y-107120986D01*
X77996401Y-107378966D01*
X77911487Y-107658889D01*
X77882815Y-107950000D01*
X77911487Y-108241111D01*
X77996401Y-108521034D01*
X78134294Y-108779014D01*
X78319866Y-109005134D01*
X78545986Y-109190706D01*
X78610523Y-109225201D01*
X78493645Y-109294822D01*
X78277412Y-109489731D01*
X78103359Y-109723080D01*
X77978175Y-109985901D01*
X77933524Y-110133110D01*
X78054845Y-110363000D01*
X79248000Y-110363000D01*
X79248000Y-110343000D01*
X79502000Y-110343000D01*
X79502000Y-110363000D01*
X79522000Y-110363000D01*
X79522000Y-110617000D01*
X79502000Y-110617000D01*
X79502000Y-110637000D01*
X79248000Y-110637000D01*
X79248000Y-110617000D01*
X78054845Y-110617000D01*
X77933524Y-110846890D01*
X77978175Y-110994099D01*
X78103359Y-111256920D01*
X78277412Y-111490269D01*
X78493645Y-111685178D01*
X78610523Y-111754799D01*
X78545986Y-111789294D01*
X78319866Y-111974866D01*
X78134294Y-112200986D01*
X77996401Y-112458966D01*
X77911487Y-112738889D01*
X77882815Y-113030000D01*
X77911487Y-113321111D01*
X77996401Y-113601034D01*
X78134294Y-113859014D01*
X78319866Y-114085134D01*
X78545986Y-114270706D01*
X78803966Y-114408599D01*
X79083889Y-114493513D01*
X79302050Y-114515000D01*
X79447950Y-114515000D01*
X79666111Y-114493513D01*
X79946034Y-114408599D01*
X80204014Y-114270706D01*
X80430134Y-114085134D01*
X80615706Y-113859014D01*
X80620001Y-113850979D01*
X80620001Y-117348000D01*
X69033072Y-117348000D01*
X69033072Y-117139071D01*
X69134278Y-117084974D01*
X69250003Y-116990001D01*
X69273806Y-116960997D01*
X70904403Y-115330401D01*
X70901928Y-115785000D01*
X70914188Y-115909482D01*
X70950498Y-116029180D01*
X71009463Y-116139494D01*
X71088815Y-116236185D01*
X71185506Y-116315537D01*
X71295820Y-116374502D01*
X71415518Y-116410812D01*
X71540000Y-116423072D01*
X72104250Y-116420000D01*
X72263000Y-116261250D01*
X72263000Y-115062000D01*
X72243000Y-115062000D01*
X72243000Y-114808000D01*
X72263000Y-114808000D01*
X72263000Y-114788000D01*
X72517000Y-114788000D01*
X72517000Y-114808000D01*
X72537000Y-114808000D01*
X72537000Y-115062000D01*
X72517000Y-115062000D01*
X72517000Y-116261250D01*
X72675750Y-116420000D01*
X73240000Y-116423072D01*
X73364482Y-116410812D01*
X73484180Y-116374502D01*
X73594494Y-116315537D01*
X73691185Y-116236185D01*
X73770537Y-116139494D01*
X73829502Y-116029180D01*
X73850393Y-115960313D01*
X73874866Y-115990134D01*
X74100986Y-116175706D01*
X74358966Y-116313599D01*
X74638889Y-116398513D01*
X74857050Y-116420000D01*
X75002950Y-116420000D01*
X75221111Y-116398513D01*
X75501034Y-116313599D01*
X75759014Y-116175706D01*
X75985134Y-115990134D01*
X76170706Y-115764014D01*
X76308599Y-115506034D01*
X76393513Y-115226111D01*
X76422185Y-114935000D01*
X76393513Y-114643889D01*
X76308599Y-114363966D01*
X76170706Y-114105986D01*
X75985134Y-113879866D01*
X75759014Y-113694294D01*
X75501034Y-113556401D01*
X75221111Y-113471487D01*
X75002950Y-113450000D01*
X74857050Y-113450000D01*
X74638889Y-113471487D01*
X74358966Y-113556401D01*
X74100986Y-113694294D01*
X73874866Y-113879866D01*
X73850393Y-113909687D01*
X73829502Y-113840820D01*
X73770537Y-113730506D01*
X73691185Y-113633815D01*
X73594494Y-113554463D01*
X73484180Y-113495498D01*
X73364482Y-113459188D01*
X73240000Y-113446928D01*
X72785401Y-113449403D01*
X74076009Y-112158796D01*
X74105002Y-112135002D01*
X74128796Y-112106009D01*
X74128800Y-112106005D01*
X74199974Y-112019278D01*
X74199975Y-112019277D01*
X74270547Y-111887248D01*
X74288503Y-111828054D01*
X74298748Y-111834157D01*
X74573109Y-111931481D01*
X74803000Y-111810814D01*
X74803000Y-110617000D01*
X75057000Y-110617000D01*
X75057000Y-111810814D01*
X75286891Y-111931481D01*
X75561252Y-111834157D01*
X75811355Y-111685178D01*
X76027588Y-111490269D01*
X76201641Y-111256920D01*
X76326825Y-110994099D01*
X76371476Y-110846890D01*
X76250155Y-110617000D01*
X75057000Y-110617000D01*
X74803000Y-110617000D01*
X74783000Y-110617000D01*
X74783000Y-110363000D01*
X74803000Y-110363000D01*
X74803000Y-110343000D01*
X75057000Y-110343000D01*
X75057000Y-110363000D01*
X76250155Y-110363000D01*
X76371476Y-110133110D01*
X76326825Y-109985901D01*
X76201641Y-109723080D01*
X76027588Y-109489731D01*
X75811355Y-109294822D01*
X75694477Y-109225201D01*
X75759014Y-109190706D01*
X75985134Y-109005134D01*
X76170706Y-108779014D01*
X76308599Y-108521034D01*
X76393513Y-108241111D01*
X76422185Y-107950000D01*
X76393513Y-107658889D01*
X76308599Y-107378966D01*
X76170706Y-107120986D01*
X75985134Y-106894866D01*
X75759014Y-106709294D01*
X75704209Y-106680000D01*
X75759014Y-106650706D01*
X75985134Y-106465134D01*
X76170706Y-106239014D01*
X76308599Y-105981034D01*
X76393513Y-105701111D01*
X76422185Y-105410000D01*
X76393513Y-105118889D01*
X76308599Y-104838966D01*
X76170706Y-104580986D01*
X75985134Y-104354866D01*
X75759014Y-104169294D01*
X75704209Y-104140000D01*
X75759014Y-104110706D01*
X75985134Y-103925134D01*
X76170706Y-103699014D01*
X76308599Y-103441034D01*
X76393513Y-103161111D01*
X76422185Y-102870000D01*
X76393513Y-102578889D01*
X76308599Y-102298966D01*
X76170706Y-102040986D01*
X75985134Y-101814866D01*
X75759014Y-101629294D01*
X75501034Y-101491401D01*
X75221111Y-101406487D01*
X75002950Y-101385000D01*
X74857050Y-101385000D01*
X74638889Y-101406487D01*
X74564005Y-101429203D01*
X73398805Y-100264004D01*
X73375002Y-100235000D01*
X73259277Y-100140027D01*
X73127248Y-100069455D01*
X72983987Y-100025998D01*
X72872334Y-100015001D01*
X72872323Y-100015001D01*
X72835001Y-100011325D01*
X72797679Y-100015001D01*
X69033072Y-100015001D01*
X69033072Y-98552000D01*
X80620000Y-98552000D01*
X80620000Y-98982705D01*
G36*
X50350000Y-99164250D02*
G01*
X50508750Y-99323000D01*
X51308000Y-99323000D01*
X51308000Y-99303000D01*
X51562000Y-99303000D01*
X51562000Y-99323000D01*
X51582000Y-99323000D01*
X51582000Y-99577000D01*
X51562000Y-99577000D01*
X51562000Y-100926250D01*
X51720750Y-101085000D01*
X51885000Y-101088072D01*
X51945000Y-101082163D01*
X51945000Y-101562667D01*
X51941323Y-101600000D01*
X51945000Y-101637333D01*
X51945001Y-103916288D01*
X51901063Y-103960226D01*
X51787795Y-104129744D01*
X51709774Y-104318102D01*
X51670000Y-104518061D01*
X51670000Y-104721939D01*
X51709774Y-104921898D01*
X51787795Y-105110256D01*
X51901063Y-105279774D01*
X52045226Y-105423937D01*
X52214744Y-105537205D01*
X52403102Y-105615226D01*
X52603061Y-105655000D01*
X52806939Y-105655000D01*
X53006898Y-105615226D01*
X53195256Y-105537205D01*
X53364774Y-105423937D01*
X53508937Y-105279774D01*
X53622205Y-105110256D01*
X53700226Y-104921898D01*
X53740000Y-104721939D01*
X53740000Y-104518061D01*
X53700226Y-104318102D01*
X53622205Y-104129744D01*
X53508937Y-103960226D01*
X53465000Y-103916289D01*
X53465000Y-102360000D01*
X57081289Y-102360000D01*
X57125226Y-102403937D01*
X57294744Y-102517205D01*
X57483102Y-102595226D01*
X57683061Y-102635000D01*
X57886939Y-102635000D01*
X58086898Y-102595226D01*
X58275256Y-102517205D01*
X58444774Y-102403937D01*
X58588937Y-102259774D01*
X58660000Y-102153420D01*
X58731063Y-102259774D01*
X58875226Y-102403937D01*
X59044744Y-102517205D01*
X59233102Y-102595226D01*
X59433061Y-102635000D01*
X59636939Y-102635000D01*
X59836898Y-102595226D01*
X60025256Y-102517205D01*
X60194774Y-102403937D01*
X60338937Y-102259774D01*
X60452205Y-102090256D01*
X60530226Y-101901898D01*
X60570000Y-101701939D01*
X60570000Y-101535001D01*
X67358608Y-101535001D01*
X67355498Y-101540820D01*
X67319188Y-101660518D01*
X67306928Y-101785000D01*
X67310000Y-101949250D01*
X67468750Y-102108000D01*
X68818000Y-102108000D01*
X68818000Y-102088000D01*
X69072000Y-102088000D01*
X69072000Y-102108000D01*
X70421250Y-102108000D01*
X70580000Y-101949250D01*
X70583072Y-101785000D01*
X70570812Y-101660518D01*
X70534502Y-101540820D01*
X70531392Y-101535001D01*
X71130018Y-101535001D01*
X71088815Y-101568815D01*
X71009463Y-101665506D01*
X70950498Y-101775820D01*
X70914188Y-101895518D01*
X70901928Y-102020000D01*
X70901928Y-103720000D01*
X70914188Y-103844482D01*
X70950498Y-103964180D01*
X71009463Y-104074494D01*
X71088815Y-104171185D01*
X71185506Y-104250537D01*
X71295820Y-104309502D01*
X71364687Y-104330393D01*
X71334866Y-104354866D01*
X71149294Y-104580986D01*
X71011401Y-104838966D01*
X70926487Y-105118889D01*
X70897815Y-105410000D01*
X70926487Y-105701111D01*
X71011401Y-105981034D01*
X71149294Y-106239014D01*
X71334866Y-106465134D01*
X71560986Y-106650706D01*
X71615791Y-106680000D01*
X71560986Y-106709294D01*
X71334866Y-106894866D01*
X71149294Y-107120986D01*
X71011401Y-107378966D01*
X70926487Y-107658889D01*
X70897815Y-107950000D01*
X70926487Y-108241111D01*
X71011401Y-108521034D01*
X71149294Y-108779014D01*
X71334866Y-109005134D01*
X71560986Y-109190706D01*
X71615791Y-109220000D01*
X71560986Y-109249294D01*
X71334866Y-109434866D01*
X71149294Y-109660986D01*
X71011401Y-109918966D01*
X70926487Y-110198889D01*
X70897815Y-110490000D01*
X70926487Y-110781111D01*
X70950510Y-110860303D01*
X70905027Y-110915723D01*
X70834455Y-111047753D01*
X70804181Y-111147557D01*
X70790999Y-111191013D01*
X70790488Y-111196201D01*
X70776325Y-111339999D01*
X70780002Y-111377331D01*
X70780001Y-112005197D01*
X70583072Y-112202126D01*
X70583072Y-111945000D01*
X70570812Y-111820518D01*
X70552454Y-111760000D01*
X70570812Y-111699482D01*
X70583072Y-111575000D01*
X70583072Y-110675000D01*
X70570812Y-110550518D01*
X70552454Y-110490000D01*
X70570812Y-110429482D01*
X70583072Y-110305000D01*
X70583072Y-109405000D01*
X70570812Y-109280518D01*
X70552454Y-109220000D01*
X70570812Y-109159482D01*
X70583072Y-109035000D01*
X70583072Y-108135000D01*
X70570812Y-108010518D01*
X70552454Y-107950000D01*
X70570812Y-107889482D01*
X70583072Y-107765000D01*
X70583072Y-106865000D01*
X70570812Y-106740518D01*
X70552454Y-106680000D01*
X70570812Y-106619482D01*
X70583072Y-106495000D01*
X70583072Y-105595000D01*
X70570812Y-105470518D01*
X70552454Y-105410000D01*
X70570812Y-105349482D01*
X70583072Y-105225000D01*
X70583072Y-104325000D01*
X70570812Y-104200518D01*
X70552454Y-104140000D01*
X70570812Y-104079482D01*
X70583072Y-103955000D01*
X70583072Y-103055000D01*
X70570812Y-102930518D01*
X70552454Y-102870000D01*
X70570812Y-102809482D01*
X70583072Y-102685000D01*
X70580000Y-102520750D01*
X70421250Y-102362000D01*
X69072000Y-102362000D01*
X69072000Y-102382000D01*
X68818000Y-102382000D01*
X68818000Y-102362000D01*
X67468750Y-102362000D01*
X67365172Y-102465578D01*
X67334859Y-102392395D01*
X67221591Y-102222877D01*
X67077428Y-102078714D01*
X66907910Y-101965446D01*
X66719552Y-101887425D01*
X66519593Y-101847651D01*
X66315715Y-101847651D01*
X66115756Y-101887425D01*
X65927398Y-101965446D01*
X65920794Y-101969859D01*
X65895256Y-101952795D01*
X65706898Y-101874774D01*
X65506939Y-101835000D01*
X65303061Y-101835000D01*
X65103102Y-101874774D01*
X64914744Y-101952795D01*
X64745226Y-102066063D01*
X64601063Y-102210226D01*
X64487795Y-102379744D01*
X64409774Y-102568102D01*
X64370000Y-102768061D01*
X64370000Y-102971939D01*
X64409774Y-103171898D01*
X64487795Y-103360256D01*
X64601063Y-103529774D01*
X64645001Y-103573712D01*
X64645001Y-104505988D01*
X64625256Y-104492795D01*
X64436898Y-104414774D01*
X64236939Y-104375000D01*
X64033061Y-104375000D01*
X63833102Y-104414774D01*
X63644744Y-104492795D01*
X63475226Y-104606063D01*
X63331063Y-104750226D01*
X63217795Y-104919744D01*
X63139774Y-105108102D01*
X63100000Y-105308061D01*
X63100000Y-105370199D01*
X62899001Y-105571198D01*
X62869998Y-105595000D01*
X62820758Y-105655000D01*
X62775025Y-105710725D01*
X62747193Y-105762795D01*
X62704453Y-105842755D01*
X62660996Y-105986016D01*
X62649999Y-106097669D01*
X62649999Y-106097679D01*
X62646323Y-106135001D01*
X62649999Y-106172324D01*
X62650000Y-107745200D01*
X62073072Y-108322128D01*
X62073072Y-104450000D01*
X62060812Y-104325518D01*
X62024502Y-104205820D01*
X61965537Y-104095506D01*
X61886185Y-103998815D01*
X61789494Y-103919463D01*
X61679180Y-103860498D01*
X61559482Y-103824188D01*
X61435000Y-103811928D01*
X56435000Y-103811928D01*
X56310518Y-103824188D01*
X56190820Y-103860498D01*
X56080506Y-103919463D01*
X55983815Y-103998815D01*
X55904463Y-104095506D01*
X55845498Y-104205820D01*
X55809188Y-104325518D01*
X55796928Y-104450000D01*
X55796928Y-109450000D01*
X55809188Y-109574482D01*
X55845498Y-109694180D01*
X55904463Y-109804494D01*
X55983815Y-109901185D01*
X56080506Y-109980537D01*
X56190820Y-110039502D01*
X56310518Y-110075812D01*
X56435000Y-110088072D01*
X60307129Y-110088072D01*
X60030201Y-110365000D01*
X56097325Y-110365000D01*
X56060002Y-110361324D01*
X56022679Y-110365000D01*
X56022669Y-110365000D01*
X55911016Y-110375997D01*
X55767755Y-110419454D01*
X55635726Y-110490026D01*
X55520001Y-110584999D01*
X55496203Y-110613997D01*
X55372000Y-110738200D01*
X55372000Y-107315000D01*
X55369560Y-107290224D01*
X55362333Y-107266399D01*
X55350597Y-107244443D01*
X55334803Y-107225197D01*
X55315557Y-107209403D01*
X55293601Y-107197667D01*
X55269776Y-107190440D01*
X55245000Y-107188000D01*
X51435000Y-107188000D01*
X51410224Y-107190440D01*
X51386399Y-107197667D01*
X51364443Y-107209403D01*
X51345197Y-107225197D01*
X51329403Y-107244443D01*
X51317667Y-107266399D01*
X51310440Y-107290224D01*
X51308000Y-107315000D01*
X51308000Y-111125000D01*
X51310440Y-111149776D01*
X51317667Y-111173601D01*
X51329403Y-111195557D01*
X51345197Y-111214803D01*
X51364443Y-111230597D01*
X51386399Y-111242333D01*
X51410224Y-111249560D01*
X51435000Y-111252000D01*
X54858200Y-111252000D01*
X54189004Y-111921197D01*
X54160000Y-111945000D01*
X54113069Y-112002187D01*
X54076939Y-111995000D01*
X53873061Y-111995000D01*
X53673102Y-112034774D01*
X53484744Y-112112795D01*
X53315226Y-112226063D01*
X53171063Y-112370226D01*
X53057795Y-112539744D01*
X52979774Y-112728102D01*
X52940000Y-112928061D01*
X52940000Y-113131939D01*
X52979774Y-113331898D01*
X53057795Y-113520256D01*
X53171063Y-113689774D01*
X53215001Y-113733712D01*
X53215000Y-114817837D01*
X53155000Y-114811928D01*
X52255000Y-114811928D01*
X52130518Y-114824188D01*
X52070000Y-114842546D01*
X52009482Y-114824188D01*
X51885000Y-114811928D01*
X51720750Y-114815000D01*
X51562000Y-114973750D01*
X51562000Y-116323000D01*
X51582000Y-116323000D01*
X51582000Y-116577000D01*
X51562000Y-116577000D01*
X51562000Y-116597000D01*
X51308000Y-116597000D01*
X51308000Y-116577000D01*
X50508750Y-116577000D01*
X50350000Y-116735750D01*
X50347367Y-117348000D01*
X50292000Y-117348000D01*
X50292000Y-115450000D01*
X50346928Y-115450000D01*
X50350000Y-116164250D01*
X50508750Y-116323000D01*
X51308000Y-116323000D01*
X51308000Y-114973750D01*
X51149250Y-114815000D01*
X50985000Y-114811928D01*
X50860518Y-114824188D01*
X50740820Y-114860498D01*
X50630506Y-114919463D01*
X50533815Y-114998815D01*
X50454463Y-115095506D01*
X50395498Y-115205820D01*
X50359188Y-115325518D01*
X50346928Y-115450000D01*
X50292000Y-115450000D01*
X50292000Y-100450000D01*
X50346928Y-100450000D01*
X50359188Y-100574482D01*
X50395498Y-100694180D01*
X50454463Y-100804494D01*
X50533815Y-100901185D01*
X50630506Y-100980537D01*
X50740820Y-101039502D01*
X50860518Y-101075812D01*
X50985000Y-101088072D01*
X51149250Y-101085000D01*
X51308000Y-100926250D01*
X51308000Y-99577000D01*
X50508750Y-99577000D01*
X50350000Y-99735750D01*
X50346928Y-100450000D01*
X50292000Y-100450000D01*
X50292000Y-98552000D01*
X50347367Y-98552000D01*
X50350000Y-99164250D01*
X50350000Y-99164250D01*
G37*
X50350000Y-99164250D02*
X50508750Y-99323000D01*
X51308000Y-99323000D01*
X51308000Y-99303000D01*
X51562000Y-99303000D01*
X51562000Y-99323000D01*
X51582000Y-99323000D01*
X51582000Y-99577000D01*
X51562000Y-99577000D01*
X51562000Y-100926250D01*
X51720750Y-101085000D01*
X51885000Y-101088072D01*
X51945000Y-101082163D01*
X51945000Y-101562667D01*
X51941323Y-101600000D01*
X51945000Y-101637333D01*
X51945001Y-103916288D01*
X51901063Y-103960226D01*
X51787795Y-104129744D01*
X51709774Y-104318102D01*
X51670000Y-104518061D01*
X51670000Y-104721939D01*
X51709774Y-104921898D01*
X51787795Y-105110256D01*
X51901063Y-105279774D01*
X52045226Y-105423937D01*
X52214744Y-105537205D01*
X52403102Y-105615226D01*
X52603061Y-105655000D01*
X52806939Y-105655000D01*
X53006898Y-105615226D01*
X53195256Y-105537205D01*
X53364774Y-105423937D01*
X53508937Y-105279774D01*
X53622205Y-105110256D01*
X53700226Y-104921898D01*
X53740000Y-104721939D01*
X53740000Y-104518061D01*
X53700226Y-104318102D01*
X53622205Y-104129744D01*
X53508937Y-103960226D01*
X53465000Y-103916289D01*
X53465000Y-102360000D01*
X57081289Y-102360000D01*
X57125226Y-102403937D01*
X57294744Y-102517205D01*
X57483102Y-102595226D01*
X57683061Y-102635000D01*
X57886939Y-102635000D01*
X58086898Y-102595226D01*
X58275256Y-102517205D01*
X58444774Y-102403937D01*
X58588937Y-102259774D01*
X58660000Y-102153420D01*
X58731063Y-102259774D01*
X58875226Y-102403937D01*
X59044744Y-102517205D01*
X59233102Y-102595226D01*
X59433061Y-102635000D01*
X59636939Y-102635000D01*
X59836898Y-102595226D01*
X60025256Y-102517205D01*
X60194774Y-102403937D01*
X60338937Y-102259774D01*
X60452205Y-102090256D01*
X60530226Y-101901898D01*
X60570000Y-101701939D01*
X60570000Y-101535001D01*
X67358608Y-101535001D01*
X67355498Y-101540820D01*
X67319188Y-101660518D01*
X67306928Y-101785000D01*
X67310000Y-101949250D01*
X67468750Y-102108000D01*
X68818000Y-102108000D01*
X68818000Y-102088000D01*
X69072000Y-102088000D01*
X69072000Y-102108000D01*
X70421250Y-102108000D01*
X70580000Y-101949250D01*
X70583072Y-101785000D01*
X70570812Y-101660518D01*
X70534502Y-101540820D01*
X70531392Y-101535001D01*
X71130018Y-101535001D01*
X71088815Y-101568815D01*
X71009463Y-101665506D01*
X70950498Y-101775820D01*
X70914188Y-101895518D01*
X70901928Y-102020000D01*
X70901928Y-103720000D01*
X70914188Y-103844482D01*
X70950498Y-103964180D01*
X71009463Y-104074494D01*
X71088815Y-104171185D01*
X71185506Y-104250537D01*
X71295820Y-104309502D01*
X71364687Y-104330393D01*
X71334866Y-104354866D01*
X71149294Y-104580986D01*
X71011401Y-104838966D01*
X70926487Y-105118889D01*
X70897815Y-105410000D01*
X70926487Y-105701111D01*
X71011401Y-105981034D01*
X71149294Y-106239014D01*
X71334866Y-106465134D01*
X71560986Y-106650706D01*
X71615791Y-106680000D01*
X71560986Y-106709294D01*
X71334866Y-106894866D01*
X71149294Y-107120986D01*
X71011401Y-107378966D01*
X70926487Y-107658889D01*
X70897815Y-107950000D01*
X70926487Y-108241111D01*
X71011401Y-108521034D01*
X71149294Y-108779014D01*
X71334866Y-109005134D01*
X71560986Y-109190706D01*
X71615791Y-109220000D01*
X71560986Y-109249294D01*
X71334866Y-109434866D01*
X71149294Y-109660986D01*
X71011401Y-109918966D01*
X70926487Y-110198889D01*
X70897815Y-110490000D01*
X70926487Y-110781111D01*
X70950510Y-110860303D01*
X70905027Y-110915723D01*
X70834455Y-111047753D01*
X70804181Y-111147557D01*
X70790999Y-111191013D01*
X70790488Y-111196201D01*
X70776325Y-111339999D01*
X70780002Y-111377331D01*
X70780001Y-112005197D01*
X70583072Y-112202126D01*
X70583072Y-111945000D01*
X70570812Y-111820518D01*
X70552454Y-111760000D01*
X70570812Y-111699482D01*
X70583072Y-111575000D01*
X70583072Y-110675000D01*
X70570812Y-110550518D01*
X70552454Y-110490000D01*
X70570812Y-110429482D01*
X70583072Y-110305000D01*
X70583072Y-109405000D01*
X70570812Y-109280518D01*
X70552454Y-109220000D01*
X70570812Y-109159482D01*
X70583072Y-109035000D01*
X70583072Y-108135000D01*
X70570812Y-108010518D01*
X70552454Y-107950000D01*
X70570812Y-107889482D01*
X70583072Y-107765000D01*
X70583072Y-106865000D01*
X70570812Y-106740518D01*
X70552454Y-106680000D01*
X70570812Y-106619482D01*
X70583072Y-106495000D01*
X70583072Y-105595000D01*
X70570812Y-105470518D01*
X70552454Y-105410000D01*
X70570812Y-105349482D01*
X70583072Y-105225000D01*
X70583072Y-104325000D01*
X70570812Y-104200518D01*
X70552454Y-104140000D01*
X70570812Y-104079482D01*
X70583072Y-103955000D01*
X70583072Y-103055000D01*
X70570812Y-102930518D01*
X70552454Y-102870000D01*
X70570812Y-102809482D01*
X70583072Y-102685000D01*
X70580000Y-102520750D01*
X70421250Y-102362000D01*
X69072000Y-102362000D01*
X69072000Y-102382000D01*
X68818000Y-102382000D01*
X68818000Y-102362000D01*
X67468750Y-102362000D01*
X67365172Y-102465578D01*
X67334859Y-102392395D01*
X67221591Y-102222877D01*
X67077428Y-102078714D01*
X66907910Y-101965446D01*
X66719552Y-101887425D01*
X66519593Y-101847651D01*
X66315715Y-101847651D01*
X66115756Y-101887425D01*
X65927398Y-101965446D01*
X65920794Y-101969859D01*
X65895256Y-101952795D01*
X65706898Y-101874774D01*
X65506939Y-101835000D01*
X65303061Y-101835000D01*
X65103102Y-101874774D01*
X64914744Y-101952795D01*
X64745226Y-102066063D01*
X64601063Y-102210226D01*
X64487795Y-102379744D01*
X64409774Y-102568102D01*
X64370000Y-102768061D01*
X64370000Y-102971939D01*
X64409774Y-103171898D01*
X64487795Y-103360256D01*
X64601063Y-103529774D01*
X64645001Y-103573712D01*
X64645001Y-104505988D01*
X64625256Y-104492795D01*
X64436898Y-104414774D01*
X64236939Y-104375000D01*
X64033061Y-104375000D01*
X63833102Y-104414774D01*
X63644744Y-104492795D01*
X63475226Y-104606063D01*
X63331063Y-104750226D01*
X63217795Y-104919744D01*
X63139774Y-105108102D01*
X63100000Y-105308061D01*
X63100000Y-105370199D01*
X62899001Y-105571198D01*
X62869998Y-105595000D01*
X62820758Y-105655000D01*
X62775025Y-105710725D01*
X62747193Y-105762795D01*
X62704453Y-105842755D01*
X62660996Y-105986016D01*
X62649999Y-106097669D01*
X62649999Y-106097679D01*
X62646323Y-106135001D01*
X62649999Y-106172324D01*
X62650000Y-107745200D01*
X62073072Y-108322128D01*
X62073072Y-104450000D01*
X62060812Y-104325518D01*
X62024502Y-104205820D01*
X61965537Y-104095506D01*
X61886185Y-103998815D01*
X61789494Y-103919463D01*
X61679180Y-103860498D01*
X61559482Y-103824188D01*
X61435000Y-103811928D01*
X56435000Y-103811928D01*
X56310518Y-103824188D01*
X56190820Y-103860498D01*
X56080506Y-103919463D01*
X55983815Y-103998815D01*
X55904463Y-104095506D01*
X55845498Y-104205820D01*
X55809188Y-104325518D01*
X55796928Y-104450000D01*
X55796928Y-109450000D01*
X55809188Y-109574482D01*
X55845498Y-109694180D01*
X55904463Y-109804494D01*
X55983815Y-109901185D01*
X56080506Y-109980537D01*
X56190820Y-110039502D01*
X56310518Y-110075812D01*
X56435000Y-110088072D01*
X60307129Y-110088072D01*
X60030201Y-110365000D01*
X56097325Y-110365000D01*
X56060002Y-110361324D01*
X56022679Y-110365000D01*
X56022669Y-110365000D01*
X55911016Y-110375997D01*
X55767755Y-110419454D01*
X55635726Y-110490026D01*
X55520001Y-110584999D01*
X55496203Y-110613997D01*
X55372000Y-110738200D01*
X55372000Y-107315000D01*
X55369560Y-107290224D01*
X55362333Y-107266399D01*
X55350597Y-107244443D01*
X55334803Y-107225197D01*
X55315557Y-107209403D01*
X55293601Y-107197667D01*
X55269776Y-107190440D01*
X55245000Y-107188000D01*
X51435000Y-107188000D01*
X51410224Y-107190440D01*
X51386399Y-107197667D01*
X51364443Y-107209403D01*
X51345197Y-107225197D01*
X51329403Y-107244443D01*
X51317667Y-107266399D01*
X51310440Y-107290224D01*
X51308000Y-107315000D01*
X51308000Y-111125000D01*
X51310440Y-111149776D01*
X51317667Y-111173601D01*
X51329403Y-111195557D01*
X51345197Y-111214803D01*
X51364443Y-111230597D01*
X51386399Y-111242333D01*
X51410224Y-111249560D01*
X51435000Y-111252000D01*
X54858200Y-111252000D01*
X54189004Y-111921197D01*
X54160000Y-111945000D01*
X54113069Y-112002187D01*
X54076939Y-111995000D01*
X53873061Y-111995000D01*
X53673102Y-112034774D01*
X53484744Y-112112795D01*
X53315226Y-112226063D01*
X53171063Y-112370226D01*
X53057795Y-112539744D01*
X52979774Y-112728102D01*
X52940000Y-112928061D01*
X52940000Y-113131939D01*
X52979774Y-113331898D01*
X53057795Y-113520256D01*
X53171063Y-113689774D01*
X53215001Y-113733712D01*
X53215000Y-114817837D01*
X53155000Y-114811928D01*
X52255000Y-114811928D01*
X52130518Y-114824188D01*
X52070000Y-114842546D01*
X52009482Y-114824188D01*
X51885000Y-114811928D01*
X51720750Y-114815000D01*
X51562000Y-114973750D01*
X51562000Y-116323000D01*
X51582000Y-116323000D01*
X51582000Y-116577000D01*
X51562000Y-116577000D01*
X51562000Y-116597000D01*
X51308000Y-116597000D01*
X51308000Y-116577000D01*
X50508750Y-116577000D01*
X50350000Y-116735750D01*
X50347367Y-117348000D01*
X50292000Y-117348000D01*
X50292000Y-115450000D01*
X50346928Y-115450000D01*
X50350000Y-116164250D01*
X50508750Y-116323000D01*
X51308000Y-116323000D01*
X51308000Y-114973750D01*
X51149250Y-114815000D01*
X50985000Y-114811928D01*
X50860518Y-114824188D01*
X50740820Y-114860498D01*
X50630506Y-114919463D01*
X50533815Y-114998815D01*
X50454463Y-115095506D01*
X50395498Y-115205820D01*
X50359188Y-115325518D01*
X50346928Y-115450000D01*
X50292000Y-115450000D01*
X50292000Y-100450000D01*
X50346928Y-100450000D01*
X50359188Y-100574482D01*
X50395498Y-100694180D01*
X50454463Y-100804494D01*
X50533815Y-100901185D01*
X50630506Y-100980537D01*
X50740820Y-101039502D01*
X50860518Y-101075812D01*
X50985000Y-101088072D01*
X51149250Y-101085000D01*
X51308000Y-100926250D01*
X51308000Y-99577000D01*
X50508750Y-99577000D01*
X50350000Y-99735750D01*
X50346928Y-100450000D01*
X50292000Y-100450000D01*
X50292000Y-98552000D01*
X50347367Y-98552000D01*
X50350000Y-99164250D01*
G36*
X63375000Y-114817837D02*
G01*
X63315000Y-114811928D01*
X62415000Y-114811928D01*
X62290518Y-114824188D01*
X62230000Y-114842546D01*
X62169482Y-114824188D01*
X62045000Y-114811928D01*
X61145000Y-114811928D01*
X61020518Y-114824188D01*
X60960000Y-114842546D01*
X60899482Y-114824188D01*
X60775000Y-114811928D01*
X59875000Y-114811928D01*
X59750518Y-114824188D01*
X59690000Y-114842546D01*
X59629482Y-114824188D01*
X59505000Y-114811928D01*
X58605000Y-114811928D01*
X58480518Y-114824188D01*
X58450712Y-114833230D01*
X58419974Y-114775724D01*
X58325001Y-114659999D01*
X58296003Y-114636201D01*
X56894550Y-113234749D01*
X56915000Y-113131939D01*
X56915000Y-112928061D01*
X56875226Y-112728102D01*
X56797205Y-112539744D01*
X56784013Y-112520000D01*
X60922678Y-112520000D01*
X60960000Y-112523676D01*
X60997322Y-112520000D01*
X60997333Y-112520000D01*
X61108986Y-112509003D01*
X61252247Y-112465546D01*
X61384276Y-112394974D01*
X61500001Y-112300001D01*
X61523804Y-112270997D01*
X63375001Y-110419801D01*
X63375000Y-114817837D01*
X63375000Y-114817837D01*
G37*
X63375000Y-114817837D02*
X63315000Y-114811928D01*
X62415000Y-114811928D01*
X62290518Y-114824188D01*
X62230000Y-114842546D01*
X62169482Y-114824188D01*
X62045000Y-114811928D01*
X61145000Y-114811928D01*
X61020518Y-114824188D01*
X60960000Y-114842546D01*
X60899482Y-114824188D01*
X60775000Y-114811928D01*
X59875000Y-114811928D01*
X59750518Y-114824188D01*
X59690000Y-114842546D01*
X59629482Y-114824188D01*
X59505000Y-114811928D01*
X58605000Y-114811928D01*
X58480518Y-114824188D01*
X58450712Y-114833230D01*
X58419974Y-114775724D01*
X58325001Y-114659999D01*
X58296003Y-114636201D01*
X56894550Y-113234749D01*
X56915000Y-113131939D01*
X56915000Y-112928061D01*
X56875226Y-112728102D01*
X56797205Y-112539744D01*
X56784013Y-112520000D01*
X60922678Y-112520000D01*
X60960000Y-112523676D01*
X60997322Y-112520000D01*
X60997333Y-112520000D01*
X61108986Y-112509003D01*
X61252247Y-112465546D01*
X61384276Y-112394974D01*
X61500001Y-112300001D01*
X61523804Y-112270997D01*
X63375001Y-110419801D01*
X63375000Y-114817837D01*
M02*
