G04 #@! TF.GenerationSoftware,KiCad,Pcbnew,5.1.4*
G04 #@! TF.CreationDate,2019-12-21T01:28:04+01:00*
G04 #@! TF.ProjectId,antivol,616e7469-766f-46c2-9e6b-696361645f70,rev?*
G04 #@! TF.SameCoordinates,Original*
G04 #@! TF.FileFunction,Legend,Top*
G04 #@! TF.FilePolarity,Positive*
%FSLAX46Y46*%
G04 Gerber Fmt 4.6, Leading zero omitted, Abs format (unit mm)*
G04 Created by KiCad (PCBNEW 5.1.4) date 2019-12-21 01:28:04*
%MOMM*%
%LPD*%
G04 APERTURE LIST*
%ADD10C,0.150000*%
%ADD11C,0.120000*%
G04 APERTURE END LIST*
D10*
X45315666Y-112259523D02*
X45315666Y-111783333D01*
X45601380Y-112354761D02*
X44601380Y-112021428D01*
X45601380Y-111688095D01*
X45601380Y-111354761D02*
X44601380Y-111354761D01*
X45601380Y-110783333D01*
X44601380Y-110783333D01*
X44601380Y-110450000D02*
X44601380Y-109878571D01*
X45601380Y-110164285D02*
X44601380Y-110164285D01*
X45601380Y-109545238D02*
X44601380Y-109545238D01*
X44601380Y-109211904D02*
X45601380Y-108878571D01*
X44601380Y-108545238D01*
X44601380Y-108021428D02*
X44601380Y-107830952D01*
X44649000Y-107735714D01*
X44744238Y-107640476D01*
X44934714Y-107592857D01*
X45268047Y-107592857D01*
X45458523Y-107640476D01*
X45553761Y-107735714D01*
X45601380Y-107830952D01*
X45601380Y-108021428D01*
X45553761Y-108116666D01*
X45458523Y-108211904D01*
X45268047Y-108259523D01*
X44934714Y-108259523D01*
X44744238Y-108211904D01*
X44649000Y-108116666D01*
X44601380Y-108021428D01*
X45601380Y-106688095D02*
X45601380Y-107164285D01*
X44601380Y-107164285D01*
X45601380Y-105069047D02*
X45601380Y-105640476D01*
X45601380Y-105354761D02*
X44601380Y-105354761D01*
X44744238Y-105450000D01*
X44839476Y-105545238D01*
X44887095Y-105640476D01*
X45506142Y-104640476D02*
X45553761Y-104592857D01*
X45601380Y-104640476D01*
X45553761Y-104688095D01*
X45506142Y-104640476D01*
X45601380Y-104640476D01*
X44601380Y-103973809D02*
X44601380Y-103878571D01*
X44649000Y-103783333D01*
X44696619Y-103735714D01*
X44791857Y-103688095D01*
X44982333Y-103640476D01*
X45220428Y-103640476D01*
X45410904Y-103688095D01*
X45506142Y-103735714D01*
X45553761Y-103783333D01*
X45601380Y-103878571D01*
X45601380Y-103973809D01*
X45553761Y-104069047D01*
X45506142Y-104116666D01*
X45410904Y-104164285D01*
X45220428Y-104211904D01*
X44982333Y-104211904D01*
X44791857Y-104164285D01*
X44696619Y-104116666D01*
X44649000Y-104069047D01*
X44601380Y-103973809D01*
X46584714Y-110854761D02*
X47584714Y-110854761D01*
X46632333Y-110854761D02*
X46584714Y-110759523D01*
X46584714Y-110569047D01*
X46632333Y-110473809D01*
X46679952Y-110426190D01*
X46775190Y-110378571D01*
X47060904Y-110378571D01*
X47156142Y-110426190D01*
X47203761Y-110473809D01*
X47251380Y-110569047D01*
X47251380Y-110759523D01*
X47203761Y-110854761D01*
X46584714Y-109521428D02*
X47251380Y-109521428D01*
X46584714Y-109950000D02*
X47108523Y-109950000D01*
X47203761Y-109902380D01*
X47251380Y-109807142D01*
X47251380Y-109664285D01*
X47203761Y-109569047D01*
X47156142Y-109521428D01*
X46584714Y-109140476D02*
X47251380Y-108902380D01*
X46584714Y-108664285D02*
X47251380Y-108902380D01*
X47489476Y-108997619D01*
X47537095Y-109045238D01*
X47584714Y-109140476D01*
X47251380Y-108283333D02*
X46251380Y-108283333D01*
X46632333Y-108283333D02*
X46584714Y-108188095D01*
X46584714Y-107997619D01*
X46632333Y-107902380D01*
X46679952Y-107854761D01*
X46775190Y-107807142D01*
X47060904Y-107807142D01*
X47156142Y-107854761D01*
X47203761Y-107902380D01*
X47251380Y-107997619D01*
X47251380Y-108188095D01*
X47203761Y-108283333D01*
X47156142Y-107378571D02*
X47203761Y-107330952D01*
X47251380Y-107378571D01*
X47203761Y-107426190D01*
X47156142Y-107378571D01*
X47251380Y-107378571D01*
X46584714Y-106902380D02*
X47251380Y-106902380D01*
X46679952Y-106902380D02*
X46632333Y-106854761D01*
X46584714Y-106759523D01*
X46584714Y-106616666D01*
X46632333Y-106521428D01*
X46727571Y-106473809D01*
X47251380Y-106473809D01*
X47203761Y-105616666D02*
X47251380Y-105711904D01*
X47251380Y-105902380D01*
X47203761Y-105997619D01*
X47108523Y-106045238D01*
X46727571Y-106045238D01*
X46632333Y-105997619D01*
X46584714Y-105902380D01*
X46584714Y-105711904D01*
X46632333Y-105616666D01*
X46727571Y-105569047D01*
X46822809Y-105569047D01*
X46918047Y-106045238D01*
X46584714Y-105283333D02*
X46584714Y-104902380D01*
X46251380Y-105140476D02*
X47108523Y-105140476D01*
X47203761Y-105092857D01*
X47251380Y-104997619D01*
X47251380Y-104902380D01*
D11*
X69483000Y-104932600D02*
X68023000Y-104932600D01*
X69483000Y-101772600D02*
X67323000Y-101772600D01*
X69483000Y-101772600D02*
X69483000Y-102702600D01*
X69483000Y-104932600D02*
X69483000Y-104002600D01*
X52605400Y-112303879D02*
X52605400Y-111978321D01*
X51585400Y-112303879D02*
X51585400Y-111978321D01*
X56415400Y-115428079D02*
X56415400Y-115102521D01*
X55395400Y-115428079D02*
X55395400Y-115102521D01*
X52630800Y-115453479D02*
X52630800Y-115127921D01*
X51610800Y-115453479D02*
X51610800Y-115127921D01*
X53655079Y-98804000D02*
X53329521Y-98804000D01*
X53655079Y-99824000D02*
X53329521Y-99824000D01*
X76049600Y-100010179D02*
X76049600Y-99684621D01*
X75029600Y-100010179D02*
X75029600Y-99684621D01*
X53405721Y-103634000D02*
X53731279Y-103634000D01*
X53405721Y-102614000D02*
X53731279Y-102614000D01*
X74645400Y-105500200D02*
X74645400Y-104040200D01*
X77805400Y-105500200D02*
X77805400Y-103340200D01*
X77805400Y-105500200D02*
X76875400Y-105500200D01*
X74645400Y-105500200D02*
X75575400Y-105500200D01*
X78230000Y-103748721D02*
X78230000Y-104074279D01*
X79250000Y-103748721D02*
X79250000Y-104074279D01*
X56919400Y-115102321D02*
X56919400Y-115427879D01*
X57939400Y-115102321D02*
X57939400Y-115427879D01*
X64806200Y-109434200D02*
X64806200Y-105434200D01*
X61506200Y-109434200D02*
X64806200Y-109434200D01*
X63434279Y-104011000D02*
X63108721Y-104011000D01*
X63434279Y-105031000D02*
X63108721Y-105031000D01*
X66423000Y-106868279D02*
X66423000Y-106542721D01*
X65403000Y-106868279D02*
X65403000Y-106542721D01*
X62867000Y-100213279D02*
X62867000Y-99887721D01*
X61847000Y-100213279D02*
X61847000Y-99887721D01*
X57545000Y-101976000D02*
X56085000Y-101976000D01*
X57545000Y-98816000D02*
X55385000Y-98816000D01*
X57545000Y-98816000D02*
X57545000Y-99746000D01*
X57545000Y-101976000D02*
X57545000Y-101046000D01*
X76976000Y-109845000D02*
X75516000Y-109845000D01*
X76976000Y-106685000D02*
X74816000Y-106685000D01*
X76976000Y-106685000D02*
X76976000Y-107615000D01*
X76976000Y-109845000D02*
X76976000Y-108915000D01*
X63146000Y-98565500D02*
X63146000Y-100850500D01*
X64616000Y-98565500D02*
X63146000Y-98565500D01*
X64616000Y-100850500D02*
X64616000Y-98565500D01*
X78883000Y-110072000D02*
X78883000Y-106172000D01*
X80883000Y-110072000D02*
X80883000Y-106172000D01*
X78883000Y-110072000D02*
X80883000Y-110072000D01*
X83296000Y-105574000D02*
X83296000Y-109474000D01*
X81296000Y-105574000D02*
X81296000Y-109474000D01*
X83296000Y-105574000D02*
X81296000Y-105574000D01*
X72824078Y-114987000D02*
X72306922Y-114987000D01*
X72824078Y-116407000D02*
X72306922Y-116407000D01*
X53020279Y-109218000D02*
X52694721Y-109218000D01*
X53020279Y-110238000D02*
X52694721Y-110238000D01*
X55116000Y-106999721D02*
X55116000Y-107325279D01*
X56136000Y-106999721D02*
X56136000Y-107325279D01*
X70592000Y-113473000D02*
X70592000Y-110023000D01*
X70592000Y-113473000D02*
X70592000Y-115423000D01*
X60472000Y-113473000D02*
X60472000Y-111523000D01*
X60472000Y-113473000D02*
X60472000Y-115423000D01*
X58418000Y-115102321D02*
X58418000Y-115427879D01*
X59438000Y-115102321D02*
X59438000Y-115427879D01*
X59819000Y-99887721D02*
X59819000Y-100213279D01*
X58799000Y-99887721D02*
X58799000Y-100213279D01*
X76138721Y-102669000D02*
X76464279Y-102669000D01*
X76138721Y-101649000D02*
X76464279Y-101649000D01*
X61343000Y-100213279D02*
X61343000Y-99887721D01*
X60323000Y-100213279D02*
X60323000Y-99887721D01*
X58478200Y-112131000D02*
X57018200Y-112131000D01*
X58478200Y-108971000D02*
X56318200Y-108971000D01*
X58478200Y-108971000D02*
X58478200Y-109901000D01*
X58478200Y-112131000D02*
X58478200Y-111201000D01*
X54600000Y-106444000D02*
X54600000Y-107904000D01*
X51440000Y-106444000D02*
X51440000Y-108604000D01*
X51440000Y-106444000D02*
X52370000Y-106444000D01*
X54600000Y-106444000D02*
X53670000Y-106444000D01*
X77278000Y-111258000D02*
X77278000Y-111708000D01*
X77278000Y-111258000D02*
X77728000Y-111258000D01*
X82878000Y-111808000D02*
X82428000Y-111808000D01*
X82878000Y-113658000D02*
X82878000Y-111808000D01*
X75078000Y-116208000D02*
X75078000Y-115958000D01*
X82878000Y-116208000D02*
X82878000Y-115958000D01*
X75078000Y-113658000D02*
X75078000Y-111808000D01*
X75078000Y-111808000D02*
X75528000Y-111808000D01*
X66486721Y-109476000D02*
X66812279Y-109476000D01*
X66486721Y-108456000D02*
X66812279Y-108456000D01*
X53731279Y-104138000D02*
X53405721Y-104138000D01*
X53731279Y-105158000D02*
X53405721Y-105158000D01*
X66419000Y-99887721D02*
X66419000Y-100213279D01*
X67439000Y-99887721D02*
X67439000Y-100213279D01*
X66927000Y-106542721D02*
X66927000Y-106868279D01*
X67947000Y-106542721D02*
X67947000Y-106868279D01*
X68451000Y-106542721D02*
X68451000Y-106868279D01*
X69471000Y-106542721D02*
X69471000Y-106868279D01*
X82864000Y-98238000D02*
X82864000Y-99568000D01*
X81534000Y-98238000D02*
X82864000Y-98238000D01*
X80264000Y-98238000D02*
X80264000Y-100898000D01*
X80264000Y-100898000D02*
X77664000Y-100898000D01*
X80264000Y-98238000D02*
X77664000Y-98238000D01*
X77664000Y-98238000D02*
X77664000Y-100898000D01*
X53329721Y-101348000D02*
X53655279Y-101348000D01*
X53329721Y-100328000D02*
X53655279Y-100328000D01*
X83210000Y-104362000D02*
X83210000Y-101912000D01*
X79990000Y-102562000D02*
X79990000Y-104362000D01*
X65915000Y-100213279D02*
X65915000Y-99887721D01*
X64895000Y-100213279D02*
X64895000Y-99887721D01*
X53134800Y-115127921D02*
X53134800Y-115453479D01*
X54154800Y-115127921D02*
X54154800Y-115453479D01*
X55405700Y-113229000D02*
X55405700Y-113229000D01*
X54905700Y-113229000D02*
X55405700Y-113229000D01*
X55405700Y-111529000D02*
X55405700Y-111529000D01*
X55405700Y-111029000D02*
X55405700Y-111529000D01*
X54905700Y-111029000D02*
X55405700Y-111029000D01*
X53705700Y-111029000D02*
X53705700Y-111029000D01*
X53205700Y-111029000D02*
X53705700Y-111029000D01*
X53205700Y-111529000D02*
X53205700Y-111029000D01*
X53205700Y-112729000D02*
X53205700Y-112729000D01*
X53205700Y-113229000D02*
X53205700Y-112729000D01*
X53705700Y-113229000D02*
X53205700Y-113229000D01*
X71314000Y-98492000D02*
X72644000Y-98492000D01*
X71314000Y-99822000D02*
X71314000Y-98492000D01*
X71314000Y-101092000D02*
X73974000Y-101092000D01*
X73974000Y-101092000D02*
X73974000Y-113852000D01*
X71314000Y-101092000D02*
X71314000Y-113852000D01*
X71314000Y-113852000D02*
X73974000Y-113852000D01*
D10*
X66101980Y-103250904D02*
X66911504Y-103250904D01*
X67006742Y-103203285D01*
X67054361Y-103155666D01*
X67101980Y-103060428D01*
X67101980Y-102869952D01*
X67054361Y-102774714D01*
X67006742Y-102727095D01*
X66911504Y-102679476D01*
X66101980Y-102679476D01*
X66101980Y-102298523D02*
X66101980Y-101679476D01*
X66482933Y-102012809D01*
X66482933Y-101869952D01*
X66530552Y-101774714D01*
X66578171Y-101727095D01*
X66673409Y-101679476D01*
X66911504Y-101679476D01*
X67006742Y-101727095D01*
X67054361Y-101774714D01*
X67101980Y-101869952D01*
X67101980Y-102155666D01*
X67054361Y-102250904D01*
X67006742Y-102298523D01*
X51022542Y-112307766D02*
X51070161Y-112355385D01*
X51117780Y-112498242D01*
X51117780Y-112593480D01*
X51070161Y-112736338D01*
X50974923Y-112831576D01*
X50879685Y-112879195D01*
X50689209Y-112926814D01*
X50546352Y-112926814D01*
X50355876Y-112879195D01*
X50260638Y-112831576D01*
X50165400Y-112736338D01*
X50117780Y-112593480D01*
X50117780Y-112498242D01*
X50165400Y-112355385D01*
X50213019Y-112307766D01*
X50213019Y-111926814D02*
X50165400Y-111879195D01*
X50117780Y-111783957D01*
X50117780Y-111545861D01*
X50165400Y-111450623D01*
X50213019Y-111403004D01*
X50308257Y-111355385D01*
X50403495Y-111355385D01*
X50546352Y-111403004D01*
X51117780Y-111974433D01*
X51117780Y-111355385D01*
X56662580Y-113120466D02*
X56186390Y-113453800D01*
X56662580Y-113691895D02*
X55662580Y-113691895D01*
X55662580Y-113310942D01*
X55710200Y-113215704D01*
X55757819Y-113168085D01*
X55853057Y-113120466D01*
X55995914Y-113120466D01*
X56091152Y-113168085D01*
X56138771Y-113215704D01*
X56186390Y-113310942D01*
X56186390Y-113691895D01*
X55662580Y-112787133D02*
X55662580Y-112168085D01*
X56043533Y-112501419D01*
X56043533Y-112358561D01*
X56091152Y-112263323D01*
X56138771Y-112215704D01*
X56234009Y-112168085D01*
X56472104Y-112168085D01*
X56567342Y-112215704D01*
X56614961Y-112263323D01*
X56662580Y-112358561D01*
X56662580Y-112644276D01*
X56614961Y-112739514D01*
X56567342Y-112787133D01*
X51106342Y-115431866D02*
X51153961Y-115479485D01*
X51201580Y-115622342D01*
X51201580Y-115717580D01*
X51153961Y-115860438D01*
X51058723Y-115955676D01*
X50963485Y-116003295D01*
X50773009Y-116050914D01*
X50630152Y-116050914D01*
X50439676Y-116003295D01*
X50344438Y-115955676D01*
X50249200Y-115860438D01*
X50201580Y-115717580D01*
X50201580Y-115622342D01*
X50249200Y-115479485D01*
X50296819Y-115431866D01*
X50201580Y-115098533D02*
X50201580Y-114479485D01*
X50582533Y-114812819D01*
X50582533Y-114669961D01*
X50630152Y-114574723D01*
X50677771Y-114527104D01*
X50773009Y-114479485D01*
X51011104Y-114479485D01*
X51106342Y-114527104D01*
X51153961Y-114574723D01*
X51201580Y-114669961D01*
X51201580Y-114955676D01*
X51153961Y-115050914D01*
X51106342Y-115098533D01*
X49826942Y-99791780D02*
X49493609Y-99315590D01*
X49255514Y-99791780D02*
X49255514Y-98791780D01*
X49636466Y-98791780D01*
X49731704Y-98839400D01*
X49779323Y-98887019D01*
X49826942Y-98982257D01*
X49826942Y-99125114D01*
X49779323Y-99220352D01*
X49731704Y-99267971D01*
X49636466Y-99315590D01*
X49255514Y-99315590D01*
X50779323Y-99791780D02*
X50207895Y-99791780D01*
X50493609Y-99791780D02*
X50493609Y-98791780D01*
X50398371Y-98934638D01*
X50303133Y-99029876D01*
X50207895Y-99077495D01*
X51636466Y-98791780D02*
X51445990Y-98791780D01*
X51350752Y-98839400D01*
X51303133Y-98887019D01*
X51207895Y-99029876D01*
X51160276Y-99220352D01*
X51160276Y-99601304D01*
X51207895Y-99696542D01*
X51255514Y-99744161D01*
X51350752Y-99791780D01*
X51541228Y-99791780D01*
X51636466Y-99744161D01*
X51684085Y-99696542D01*
X51731704Y-99601304D01*
X51731704Y-99363209D01*
X51684085Y-99267971D01*
X51636466Y-99220352D01*
X51541228Y-99172733D01*
X51350752Y-99172733D01*
X51255514Y-99220352D01*
X51207895Y-99267971D01*
X51160276Y-99363209D01*
X74848980Y-100566457D02*
X74372790Y-100899790D01*
X74848980Y-101137885D02*
X73848980Y-101137885D01*
X73848980Y-100756933D01*
X73896600Y-100661695D01*
X73944219Y-100614076D01*
X74039457Y-100566457D01*
X74182314Y-100566457D01*
X74277552Y-100614076D01*
X74325171Y-100661695D01*
X74372790Y-100756933D01*
X74372790Y-101137885D01*
X74848980Y-99614076D02*
X74848980Y-100185504D01*
X74848980Y-99899790D02*
X73848980Y-99899790D01*
X73991838Y-99995028D01*
X74087076Y-100090266D01*
X74134695Y-100185504D01*
X73848980Y-99280742D02*
X73848980Y-98661695D01*
X74229933Y-98995028D01*
X74229933Y-98852171D01*
X74277552Y-98756933D01*
X74325171Y-98709314D01*
X74420409Y-98661695D01*
X74658504Y-98661695D01*
X74753742Y-98709314D01*
X74801361Y-98756933D01*
X74848980Y-98852171D01*
X74848980Y-99137885D01*
X74801361Y-99233123D01*
X74753742Y-99280742D01*
X51192133Y-103601780D02*
X50858800Y-103125590D01*
X50620704Y-103601780D02*
X50620704Y-102601780D01*
X51001657Y-102601780D01*
X51096895Y-102649400D01*
X51144514Y-102697019D01*
X51192133Y-102792257D01*
X51192133Y-102935114D01*
X51144514Y-103030352D01*
X51096895Y-103077971D01*
X51001657Y-103125590D01*
X50620704Y-103125590D01*
X52144514Y-103601780D02*
X51573085Y-103601780D01*
X51858800Y-103601780D02*
X51858800Y-102601780D01*
X51763561Y-102744638D01*
X51668323Y-102839876D01*
X51573085Y-102887495D01*
X74758561Y-106643419D02*
X74663323Y-106595800D01*
X74568085Y-106500561D01*
X74425228Y-106357704D01*
X74329990Y-106310085D01*
X74234752Y-106310085D01*
X74282371Y-106548180D02*
X74187133Y-106500561D01*
X74091895Y-106405323D01*
X74044276Y-106214847D01*
X74044276Y-105881514D01*
X74091895Y-105691038D01*
X74187133Y-105595800D01*
X74282371Y-105548180D01*
X74472847Y-105548180D01*
X74568085Y-105595800D01*
X74663323Y-105691038D01*
X74710942Y-105881514D01*
X74710942Y-106214847D01*
X74663323Y-106405323D01*
X74568085Y-106500561D01*
X74472847Y-106548180D01*
X74282371Y-106548180D01*
X75091895Y-105643419D02*
X75139514Y-105595800D01*
X75234752Y-105548180D01*
X75472847Y-105548180D01*
X75568085Y-105595800D01*
X75615704Y-105643419D01*
X75663323Y-105738657D01*
X75663323Y-105833895D01*
X75615704Y-105976752D01*
X75044276Y-106548180D01*
X75663323Y-106548180D01*
X78141533Y-106300542D02*
X78093914Y-106348161D01*
X77951057Y-106395780D01*
X77855819Y-106395780D01*
X77712961Y-106348161D01*
X77617723Y-106252923D01*
X77570104Y-106157685D01*
X77522485Y-105967209D01*
X77522485Y-105824352D01*
X77570104Y-105633876D01*
X77617723Y-105538638D01*
X77712961Y-105443400D01*
X77855819Y-105395780D01*
X77951057Y-105395780D01*
X78093914Y-105443400D01*
X78141533Y-105491019D01*
X79093914Y-106395780D02*
X78522485Y-106395780D01*
X78808200Y-106395780D02*
X78808200Y-105395780D01*
X78712961Y-105538638D01*
X78617723Y-105633876D01*
X78522485Y-105681495D01*
X58034180Y-113145866D02*
X57557990Y-113479200D01*
X58034180Y-113717295D02*
X57034180Y-113717295D01*
X57034180Y-113336342D01*
X57081800Y-113241104D01*
X57129419Y-113193485D01*
X57224657Y-113145866D01*
X57367514Y-113145866D01*
X57462752Y-113193485D01*
X57510371Y-113241104D01*
X57557990Y-113336342D01*
X57557990Y-113717295D01*
X57034180Y-112812533D02*
X57034180Y-112145866D01*
X58034180Y-112574438D01*
X60682390Y-107910390D02*
X61158580Y-107910390D01*
X60158580Y-108243723D02*
X60682390Y-107910390D01*
X60158580Y-107577057D01*
X61158580Y-106719914D02*
X61158580Y-107291342D01*
X61158580Y-107005628D02*
X60158580Y-107005628D01*
X60301438Y-107100866D01*
X60396676Y-107196104D01*
X60444295Y-107291342D01*
X60666333Y-105005142D02*
X60618714Y-105052761D01*
X60475857Y-105100380D01*
X60380619Y-105100380D01*
X60237761Y-105052761D01*
X60142523Y-104957523D01*
X60094904Y-104862285D01*
X60047285Y-104671809D01*
X60047285Y-104528952D01*
X60094904Y-104338476D01*
X60142523Y-104243238D01*
X60237761Y-104148000D01*
X60380619Y-104100380D01*
X60475857Y-104100380D01*
X60618714Y-104148000D01*
X60666333Y-104195619D01*
X61237761Y-104528952D02*
X61142523Y-104481333D01*
X61094904Y-104433714D01*
X61047285Y-104338476D01*
X61047285Y-104290857D01*
X61094904Y-104195619D01*
X61142523Y-104148000D01*
X61237761Y-104100380D01*
X61428238Y-104100380D01*
X61523476Y-104148000D01*
X61571095Y-104195619D01*
X61618714Y-104290857D01*
X61618714Y-104338476D01*
X61571095Y-104433714D01*
X61523476Y-104481333D01*
X61428238Y-104528952D01*
X61237761Y-104528952D01*
X61142523Y-104576571D01*
X61094904Y-104624190D01*
X61047285Y-104719428D01*
X61047285Y-104909904D01*
X61094904Y-105005142D01*
X61142523Y-105052761D01*
X61237761Y-105100380D01*
X61428238Y-105100380D01*
X61523476Y-105052761D01*
X61571095Y-105005142D01*
X61618714Y-104909904D01*
X61618714Y-104719428D01*
X61571095Y-104624190D01*
X61523476Y-104576571D01*
X61428238Y-104528952D01*
X65762142Y-104560666D02*
X65809761Y-104608285D01*
X65857380Y-104751142D01*
X65857380Y-104846380D01*
X65809761Y-104989238D01*
X65714523Y-105084476D01*
X65619285Y-105132095D01*
X65428809Y-105179714D01*
X65285952Y-105179714D01*
X65095476Y-105132095D01*
X65000238Y-105084476D01*
X64905000Y-104989238D01*
X64857380Y-104846380D01*
X64857380Y-104751142D01*
X64905000Y-104608285D01*
X64952619Y-104560666D01*
X64857380Y-103655904D02*
X64857380Y-104132095D01*
X65333571Y-104179714D01*
X65285952Y-104132095D01*
X65238333Y-104036857D01*
X65238333Y-103798761D01*
X65285952Y-103703523D01*
X65333571Y-103655904D01*
X65428809Y-103608285D01*
X65666904Y-103608285D01*
X65762142Y-103655904D01*
X65809761Y-103703523D01*
X65857380Y-103798761D01*
X65857380Y-104036857D01*
X65809761Y-104132095D01*
X65762142Y-104179714D01*
X62936380Y-102528666D02*
X62460190Y-102862000D01*
X62936380Y-103100095D02*
X61936380Y-103100095D01*
X61936380Y-102719142D01*
X61984000Y-102623904D01*
X62031619Y-102576285D01*
X62126857Y-102528666D01*
X62269714Y-102528666D01*
X62364952Y-102576285D01*
X62412571Y-102623904D01*
X62460190Y-102719142D01*
X62460190Y-103100095D01*
X61936380Y-101623904D02*
X61936380Y-102100095D01*
X62412571Y-102147714D01*
X62364952Y-102100095D01*
X62317333Y-102004857D01*
X62317333Y-101766761D01*
X62364952Y-101671523D01*
X62412571Y-101623904D01*
X62507809Y-101576285D01*
X62745904Y-101576285D01*
X62841142Y-101623904D01*
X62888761Y-101671523D01*
X62936380Y-101766761D01*
X62936380Y-102004857D01*
X62888761Y-102100095D01*
X62841142Y-102147714D01*
X56673761Y-103290619D02*
X56578523Y-103243000D01*
X56483285Y-103147761D01*
X56340428Y-103004904D01*
X56245190Y-102957285D01*
X56149952Y-102957285D01*
X56197571Y-103195380D02*
X56102333Y-103147761D01*
X56007095Y-103052523D01*
X55959476Y-102862047D01*
X55959476Y-102528714D01*
X56007095Y-102338238D01*
X56102333Y-102243000D01*
X56197571Y-102195380D01*
X56388047Y-102195380D01*
X56483285Y-102243000D01*
X56578523Y-102338238D01*
X56626142Y-102528714D01*
X56626142Y-102862047D01*
X56578523Y-103052523D01*
X56483285Y-103147761D01*
X56388047Y-103195380D01*
X56197571Y-103195380D01*
X56959476Y-102195380D02*
X57578523Y-102195380D01*
X57245190Y-102576333D01*
X57388047Y-102576333D01*
X57483285Y-102623952D01*
X57530904Y-102671571D01*
X57578523Y-102766809D01*
X57578523Y-103004904D01*
X57530904Y-103100142D01*
X57483285Y-103147761D01*
X57388047Y-103195380D01*
X57102333Y-103195380D01*
X57007095Y-103147761D01*
X56959476Y-103100142D01*
X78398619Y-109569238D02*
X78351000Y-109664476D01*
X78255761Y-109759714D01*
X78112904Y-109902571D01*
X78065285Y-109997809D01*
X78065285Y-110093047D01*
X78303380Y-110045428D02*
X78255761Y-110140666D01*
X78160523Y-110235904D01*
X77970047Y-110283523D01*
X77636714Y-110283523D01*
X77446238Y-110235904D01*
X77351000Y-110140666D01*
X77303380Y-110045428D01*
X77303380Y-109854952D01*
X77351000Y-109759714D01*
X77446238Y-109664476D01*
X77636714Y-109616857D01*
X77970047Y-109616857D01*
X78160523Y-109664476D01*
X78255761Y-109759714D01*
X78303380Y-109854952D01*
X78303380Y-110045428D01*
X78303380Y-108664476D02*
X78303380Y-109235904D01*
X78303380Y-108950190D02*
X77303380Y-108950190D01*
X77446238Y-109045428D01*
X77541476Y-109140666D01*
X77589095Y-109235904D01*
X64333380Y-103100095D02*
X63333380Y-103100095D01*
X63333380Y-102862000D01*
X63381000Y-102719142D01*
X63476238Y-102623904D01*
X63571476Y-102576285D01*
X63761952Y-102528666D01*
X63904809Y-102528666D01*
X64095285Y-102576285D01*
X64190523Y-102623904D01*
X64285761Y-102719142D01*
X64333380Y-102862000D01*
X64333380Y-103100095D01*
X63428619Y-102147714D02*
X63381000Y-102100095D01*
X63333380Y-102004857D01*
X63333380Y-101766761D01*
X63381000Y-101671523D01*
X63428619Y-101623904D01*
X63523857Y-101576285D01*
X63619095Y-101576285D01*
X63761952Y-101623904D01*
X64333380Y-102195333D01*
X64333380Y-101576285D01*
X79271904Y-111196380D02*
X79271904Y-110196380D01*
X79510000Y-110196380D01*
X79652857Y-110244000D01*
X79748095Y-110339238D01*
X79795714Y-110434476D01*
X79843333Y-110624952D01*
X79843333Y-110767809D01*
X79795714Y-110958285D01*
X79748095Y-111053523D01*
X79652857Y-111148761D01*
X79510000Y-111196380D01*
X79271904Y-111196380D01*
X80176666Y-110196380D02*
X80795714Y-110196380D01*
X80462380Y-110577333D01*
X80605238Y-110577333D01*
X80700476Y-110624952D01*
X80748095Y-110672571D01*
X80795714Y-110767809D01*
X80795714Y-111005904D01*
X80748095Y-111101142D01*
X80700476Y-111148761D01*
X80605238Y-111196380D01*
X80319523Y-111196380D01*
X80224285Y-111148761D01*
X80176666Y-111101142D01*
X81557904Y-111196380D02*
X81557904Y-110196380D01*
X81796000Y-110196380D01*
X81938857Y-110244000D01*
X82034095Y-110339238D01*
X82081714Y-110434476D01*
X82129333Y-110624952D01*
X82129333Y-110767809D01*
X82081714Y-110958285D01*
X82034095Y-111053523D01*
X81938857Y-111148761D01*
X81796000Y-111196380D01*
X81557904Y-111196380D01*
X83081714Y-111196380D02*
X82510285Y-111196380D01*
X82796000Y-111196380D02*
X82796000Y-110196380D01*
X82700761Y-110339238D01*
X82605523Y-110434476D01*
X82510285Y-110482095D01*
X72477333Y-114657142D02*
X72429714Y-114704761D01*
X72286857Y-114752380D01*
X72191619Y-114752380D01*
X72048761Y-114704761D01*
X71953523Y-114609523D01*
X71905904Y-114514285D01*
X71858285Y-114323809D01*
X71858285Y-114180952D01*
X71905904Y-113990476D01*
X71953523Y-113895238D01*
X72048761Y-113800000D01*
X72191619Y-113752380D01*
X72286857Y-113752380D01*
X72429714Y-113800000D01*
X72477333Y-113847619D01*
X72953523Y-114752380D02*
X73144000Y-114752380D01*
X73239238Y-114704761D01*
X73286857Y-114657142D01*
X73382095Y-114514285D01*
X73429714Y-114323809D01*
X73429714Y-113942857D01*
X73382095Y-113847619D01*
X73334476Y-113800000D01*
X73239238Y-113752380D01*
X73048761Y-113752380D01*
X72953523Y-113800000D01*
X72905904Y-113847619D01*
X72858285Y-113942857D01*
X72858285Y-114180952D01*
X72905904Y-114276190D01*
X72953523Y-114323809D01*
X73048761Y-114371428D01*
X73239238Y-114371428D01*
X73334476Y-114323809D01*
X73382095Y-114276190D01*
X73429714Y-114180952D01*
X49395142Y-110180380D02*
X49061809Y-109704190D01*
X48823714Y-110180380D02*
X48823714Y-109180380D01*
X49204666Y-109180380D01*
X49299904Y-109228000D01*
X49347523Y-109275619D01*
X49395142Y-109370857D01*
X49395142Y-109513714D01*
X49347523Y-109608952D01*
X49299904Y-109656571D01*
X49204666Y-109704190D01*
X48823714Y-109704190D01*
X50347523Y-110180380D02*
X49776095Y-110180380D01*
X50061809Y-110180380D02*
X50061809Y-109180380D01*
X49966571Y-109323238D01*
X49871333Y-109418476D01*
X49776095Y-109466095D01*
X50728476Y-109275619D02*
X50776095Y-109228000D01*
X50871333Y-109180380D01*
X51109428Y-109180380D01*
X51204666Y-109228000D01*
X51252285Y-109275619D01*
X51299904Y-109370857D01*
X51299904Y-109466095D01*
X51252285Y-109608952D01*
X50680857Y-110180380D01*
X51299904Y-110180380D01*
X57508380Y-107805357D02*
X57032190Y-108138690D01*
X57508380Y-108376785D02*
X56508380Y-108376785D01*
X56508380Y-107995833D01*
X56556000Y-107900595D01*
X56603619Y-107852976D01*
X56698857Y-107805357D01*
X56841714Y-107805357D01*
X56936952Y-107852976D01*
X56984571Y-107900595D01*
X57032190Y-107995833D01*
X57032190Y-108376785D01*
X57508380Y-106852976D02*
X57508380Y-107424404D01*
X57508380Y-107138690D02*
X56508380Y-107138690D01*
X56651238Y-107233928D01*
X56746476Y-107329166D01*
X56794095Y-107424404D01*
X56508380Y-105948214D02*
X56508380Y-106424404D01*
X56984571Y-106472023D01*
X56936952Y-106424404D01*
X56889333Y-106329166D01*
X56889333Y-106091071D01*
X56936952Y-105995833D01*
X56984571Y-105948214D01*
X57079809Y-105900595D01*
X57317904Y-105900595D01*
X57413142Y-105948214D01*
X57460761Y-105995833D01*
X57508380Y-106091071D01*
X57508380Y-106329166D01*
X57460761Y-106424404D01*
X57413142Y-106472023D01*
X59396380Y-110870904D02*
X60205904Y-110870904D01*
X60301142Y-110823285D01*
X60348761Y-110775666D01*
X60396380Y-110680428D01*
X60396380Y-110489952D01*
X60348761Y-110394714D01*
X60301142Y-110347095D01*
X60205904Y-110299476D01*
X59396380Y-110299476D01*
X59396380Y-109347095D02*
X59396380Y-109823285D01*
X59872571Y-109870904D01*
X59824952Y-109823285D01*
X59777333Y-109728047D01*
X59777333Y-109489952D01*
X59824952Y-109394714D01*
X59872571Y-109347095D01*
X59967809Y-109299476D01*
X60205904Y-109299476D01*
X60301142Y-109347095D01*
X60348761Y-109394714D01*
X60396380Y-109489952D01*
X60396380Y-109728047D01*
X60348761Y-109823285D01*
X60301142Y-109870904D01*
X59481980Y-113164857D02*
X59005790Y-113498190D01*
X59481980Y-113736285D02*
X58481980Y-113736285D01*
X58481980Y-113355333D01*
X58529600Y-113260095D01*
X58577219Y-113212476D01*
X58672457Y-113164857D01*
X58815314Y-113164857D01*
X58910552Y-113212476D01*
X58958171Y-113260095D01*
X59005790Y-113355333D01*
X59005790Y-113736285D01*
X59481980Y-112212476D02*
X59481980Y-112783904D01*
X59481980Y-112498190D02*
X58481980Y-112498190D01*
X58624838Y-112593428D01*
X58720076Y-112688666D01*
X58767695Y-112783904D01*
X58815314Y-111355333D02*
X59481980Y-111355333D01*
X58434361Y-111593428D02*
X59148647Y-111831523D01*
X59148647Y-111212476D01*
X59888380Y-102528666D02*
X59412190Y-102862000D01*
X59888380Y-103100095D02*
X58888380Y-103100095D01*
X58888380Y-102719142D01*
X58936000Y-102623904D01*
X58983619Y-102576285D01*
X59078857Y-102528666D01*
X59221714Y-102528666D01*
X59316952Y-102576285D01*
X59364571Y-102623904D01*
X59412190Y-102719142D01*
X59412190Y-103100095D01*
X59888380Y-102052476D02*
X59888380Y-101862000D01*
X59840761Y-101766761D01*
X59793142Y-101719142D01*
X59650285Y-101623904D01*
X59459809Y-101576285D01*
X59078857Y-101576285D01*
X58983619Y-101623904D01*
X58936000Y-101671523D01*
X58888380Y-101766761D01*
X58888380Y-101957238D01*
X58936000Y-102052476D01*
X58983619Y-102100095D01*
X59078857Y-102147714D01*
X59316952Y-102147714D01*
X59412190Y-102100095D01*
X59459809Y-102052476D01*
X59507428Y-101957238D01*
X59507428Y-101766761D01*
X59459809Y-101671523D01*
X59412190Y-101623904D01*
X59316952Y-101576285D01*
X78274942Y-102534980D02*
X77941609Y-102058790D01*
X77703514Y-102534980D02*
X77703514Y-101534980D01*
X78084466Y-101534980D01*
X78179704Y-101582600D01*
X78227323Y-101630219D01*
X78274942Y-101725457D01*
X78274942Y-101868314D01*
X78227323Y-101963552D01*
X78179704Y-102011171D01*
X78084466Y-102058790D01*
X77703514Y-102058790D01*
X79227323Y-102534980D02*
X78655895Y-102534980D01*
X78941609Y-102534980D02*
X78941609Y-101534980D01*
X78846371Y-101677838D01*
X78751133Y-101773076D01*
X78655895Y-101820695D01*
X80179704Y-102534980D02*
X79608276Y-102534980D01*
X79893990Y-102534980D02*
X79893990Y-101534980D01*
X79798752Y-101677838D01*
X79703514Y-101773076D01*
X79608276Y-101820695D01*
X61412380Y-102528666D02*
X60936190Y-102862000D01*
X61412380Y-103100095D02*
X60412380Y-103100095D01*
X60412380Y-102719142D01*
X60460000Y-102623904D01*
X60507619Y-102576285D01*
X60602857Y-102528666D01*
X60745714Y-102528666D01*
X60840952Y-102576285D01*
X60888571Y-102623904D01*
X60936190Y-102719142D01*
X60936190Y-103100095D01*
X60745714Y-101671523D02*
X61412380Y-101671523D01*
X60364761Y-101909619D02*
X61079047Y-102147714D01*
X61079047Y-101528666D01*
X55276761Y-109818419D02*
X55181523Y-109770800D01*
X55086285Y-109675561D01*
X54943428Y-109532704D01*
X54848190Y-109485085D01*
X54752952Y-109485085D01*
X54800571Y-109723180D02*
X54705333Y-109675561D01*
X54610095Y-109580323D01*
X54562476Y-109389847D01*
X54562476Y-109056514D01*
X54610095Y-108866038D01*
X54705333Y-108770800D01*
X54800571Y-108723180D01*
X54991047Y-108723180D01*
X55086285Y-108770800D01*
X55181523Y-108866038D01*
X55229142Y-109056514D01*
X55229142Y-109389847D01*
X55181523Y-109580323D01*
X55086285Y-109675561D01*
X54991047Y-109723180D01*
X54800571Y-109723180D01*
X56133904Y-108723180D02*
X55657714Y-108723180D01*
X55610095Y-109199371D01*
X55657714Y-109151752D01*
X55752952Y-109104133D01*
X55991047Y-109104133D01*
X56086285Y-109151752D01*
X56133904Y-109199371D01*
X56181523Y-109294609D01*
X56181523Y-109532704D01*
X56133904Y-109627942D01*
X56086285Y-109675561D01*
X55991047Y-109723180D01*
X55752952Y-109723180D01*
X55657714Y-109675561D01*
X55610095Y-109627942D01*
X50450761Y-107989619D02*
X50355523Y-107942000D01*
X50260285Y-107846761D01*
X50117428Y-107703904D01*
X50022190Y-107656285D01*
X49926952Y-107656285D01*
X49974571Y-107894380D02*
X49879333Y-107846761D01*
X49784095Y-107751523D01*
X49736476Y-107561047D01*
X49736476Y-107227714D01*
X49784095Y-107037238D01*
X49879333Y-106942000D01*
X49974571Y-106894380D01*
X50165047Y-106894380D01*
X50260285Y-106942000D01*
X50355523Y-107037238D01*
X50403142Y-107227714D01*
X50403142Y-107561047D01*
X50355523Y-107751523D01*
X50260285Y-107846761D01*
X50165047Y-107894380D01*
X49974571Y-107894380D01*
X51260285Y-107227714D02*
X51260285Y-107894380D01*
X51022190Y-106846761D02*
X50784095Y-107561047D01*
X51403142Y-107561047D01*
X74001380Y-112982333D02*
X74715666Y-112982333D01*
X74858523Y-113029952D01*
X74953761Y-113125190D01*
X75001380Y-113268047D01*
X75001380Y-113363285D01*
X74334714Y-112077571D02*
X75001380Y-112077571D01*
X73953761Y-112315666D02*
X74668047Y-112553761D01*
X74668047Y-111934714D01*
X68699142Y-109323142D02*
X68651523Y-109370761D01*
X68508666Y-109418380D01*
X68413428Y-109418380D01*
X68270571Y-109370761D01*
X68175333Y-109275523D01*
X68127714Y-109180285D01*
X68080095Y-108989809D01*
X68080095Y-108846952D01*
X68127714Y-108656476D01*
X68175333Y-108561238D01*
X68270571Y-108466000D01*
X68413428Y-108418380D01*
X68508666Y-108418380D01*
X68651523Y-108466000D01*
X68699142Y-108513619D01*
X69651523Y-109418380D02*
X69080095Y-109418380D01*
X69365809Y-109418380D02*
X69365809Y-108418380D01*
X69270571Y-108561238D01*
X69175333Y-108656476D01*
X69080095Y-108704095D01*
X70270571Y-108418380D02*
X70365809Y-108418380D01*
X70461047Y-108466000D01*
X70508666Y-108513619D01*
X70556285Y-108608857D01*
X70603904Y-108799333D01*
X70603904Y-109037428D01*
X70556285Y-109227904D01*
X70508666Y-109323142D01*
X70461047Y-109370761D01*
X70365809Y-109418380D01*
X70270571Y-109418380D01*
X70175333Y-109370761D01*
X70127714Y-109323142D01*
X70080095Y-109227904D01*
X70032476Y-109037428D01*
X70032476Y-108799333D01*
X70080095Y-108608857D01*
X70127714Y-108513619D01*
X70175333Y-108466000D01*
X70270571Y-108418380D01*
X51141333Y-105005142D02*
X51093714Y-105052761D01*
X50950857Y-105100380D01*
X50855619Y-105100380D01*
X50712761Y-105052761D01*
X50617523Y-104957523D01*
X50569904Y-104862285D01*
X50522285Y-104671809D01*
X50522285Y-104528952D01*
X50569904Y-104338476D01*
X50617523Y-104243238D01*
X50712761Y-104148000D01*
X50855619Y-104100380D01*
X50950857Y-104100380D01*
X51093714Y-104148000D01*
X51141333Y-104195619D01*
X51998476Y-104433714D02*
X51998476Y-105100380D01*
X51760380Y-104052761D02*
X51522285Y-104767047D01*
X52141333Y-104767047D01*
X68651380Y-100718857D02*
X68175190Y-101052190D01*
X68651380Y-101290285D02*
X67651380Y-101290285D01*
X67651380Y-100909333D01*
X67699000Y-100814095D01*
X67746619Y-100766476D01*
X67841857Y-100718857D01*
X67984714Y-100718857D01*
X68079952Y-100766476D01*
X68127571Y-100814095D01*
X68175190Y-100909333D01*
X68175190Y-101290285D01*
X68651380Y-99766476D02*
X68651380Y-100337904D01*
X68651380Y-100052190D02*
X67651380Y-100052190D01*
X67794238Y-100147428D01*
X67889476Y-100242666D01*
X67937095Y-100337904D01*
X67651380Y-99147428D02*
X67651380Y-99052190D01*
X67699000Y-98956952D01*
X67746619Y-98909333D01*
X67841857Y-98861714D01*
X68032333Y-98814095D01*
X68270428Y-98814095D01*
X68460904Y-98861714D01*
X68556142Y-98909333D01*
X68603761Y-98956952D01*
X68651380Y-99052190D01*
X68651380Y-99147428D01*
X68603761Y-99242666D01*
X68556142Y-99290285D01*
X68460904Y-99337904D01*
X68270428Y-99385523D01*
X68032333Y-99385523D01*
X67841857Y-99337904D01*
X67746619Y-99290285D01*
X67699000Y-99242666D01*
X67651380Y-99147428D01*
X67032142Y-104560666D02*
X67079761Y-104608285D01*
X67127380Y-104751142D01*
X67127380Y-104846380D01*
X67079761Y-104989238D01*
X66984523Y-105084476D01*
X66889285Y-105132095D01*
X66698809Y-105179714D01*
X66555952Y-105179714D01*
X66365476Y-105132095D01*
X66270238Y-105084476D01*
X66175000Y-104989238D01*
X66127380Y-104846380D01*
X66127380Y-104751142D01*
X66175000Y-104608285D01*
X66222619Y-104560666D01*
X66127380Y-104227333D02*
X66127380Y-103560666D01*
X67127380Y-103989238D01*
X70588142Y-106973666D02*
X70635761Y-107021285D01*
X70683380Y-107164142D01*
X70683380Y-107259380D01*
X70635761Y-107402238D01*
X70540523Y-107497476D01*
X70445285Y-107545095D01*
X70254809Y-107592714D01*
X70111952Y-107592714D01*
X69921476Y-107545095D01*
X69826238Y-107497476D01*
X69731000Y-107402238D01*
X69683380Y-107259380D01*
X69683380Y-107164142D01*
X69731000Y-107021285D01*
X69778619Y-106973666D01*
X69683380Y-106116523D02*
X69683380Y-106307000D01*
X69731000Y-106402238D01*
X69778619Y-106449857D01*
X69921476Y-106545095D01*
X70111952Y-106592714D01*
X70492904Y-106592714D01*
X70588142Y-106545095D01*
X70635761Y-106497476D01*
X70683380Y-106402238D01*
X70683380Y-106211761D01*
X70635761Y-106116523D01*
X70588142Y-106068904D01*
X70492904Y-106021285D01*
X70254809Y-106021285D01*
X70159571Y-106068904D01*
X70111952Y-106116523D01*
X70064333Y-106211761D01*
X70064333Y-106402238D01*
X70111952Y-106497476D01*
X70159571Y-106545095D01*
X70254809Y-106592714D01*
X76501666Y-98258380D02*
X76501666Y-98972666D01*
X76454047Y-99115523D01*
X76358809Y-99210761D01*
X76215952Y-99258380D01*
X76120714Y-99258380D01*
X77501666Y-99258380D02*
X76930238Y-99258380D01*
X77215952Y-99258380D02*
X77215952Y-98258380D01*
X77120714Y-98401238D01*
X77025476Y-98496476D01*
X76930238Y-98544095D01*
X50760333Y-101290380D02*
X50427000Y-100814190D01*
X50188904Y-101290380D02*
X50188904Y-100290380D01*
X50569857Y-100290380D01*
X50665095Y-100338000D01*
X50712714Y-100385619D01*
X50760333Y-100480857D01*
X50760333Y-100623714D01*
X50712714Y-100718952D01*
X50665095Y-100766571D01*
X50569857Y-100814190D01*
X50188904Y-100814190D01*
X51331761Y-100718952D02*
X51236523Y-100671333D01*
X51188904Y-100623714D01*
X51141285Y-100528476D01*
X51141285Y-100480857D01*
X51188904Y-100385619D01*
X51236523Y-100338000D01*
X51331761Y-100290380D01*
X51522238Y-100290380D01*
X51617476Y-100338000D01*
X51665095Y-100385619D01*
X51712714Y-100480857D01*
X51712714Y-100528476D01*
X51665095Y-100623714D01*
X51617476Y-100671333D01*
X51522238Y-100718952D01*
X51331761Y-100718952D01*
X51236523Y-100766571D01*
X51188904Y-100814190D01*
X51141285Y-100909428D01*
X51141285Y-101099904D01*
X51188904Y-101195142D01*
X51236523Y-101242761D01*
X51331761Y-101290380D01*
X51522238Y-101290380D01*
X51617476Y-101242761D01*
X51665095Y-101195142D01*
X51712714Y-101099904D01*
X51712714Y-100909428D01*
X51665095Y-100814190D01*
X51617476Y-100766571D01*
X51522238Y-100718952D01*
X80838095Y-100671380D02*
X80838095Y-101480904D01*
X80885714Y-101576142D01*
X80933333Y-101623761D01*
X81028571Y-101671380D01*
X81219047Y-101671380D01*
X81314285Y-101623761D01*
X81361904Y-101576142D01*
X81409523Y-101480904D01*
X81409523Y-100671380D01*
X81838095Y-100766619D02*
X81885714Y-100719000D01*
X81980952Y-100671380D01*
X82219047Y-100671380D01*
X82314285Y-100719000D01*
X82361904Y-100766619D01*
X82409523Y-100861857D01*
X82409523Y-100957095D01*
X82361904Y-101099952D01*
X81790476Y-101671380D01*
X82409523Y-101671380D01*
X65857380Y-102528666D02*
X65381190Y-102862000D01*
X65857380Y-103100095D02*
X64857380Y-103100095D01*
X64857380Y-102719142D01*
X64905000Y-102623904D01*
X64952619Y-102576285D01*
X65047857Y-102528666D01*
X65190714Y-102528666D01*
X65285952Y-102576285D01*
X65333571Y-102623904D01*
X65381190Y-102719142D01*
X65381190Y-103100095D01*
X64857380Y-101671523D02*
X64857380Y-101862000D01*
X64905000Y-101957238D01*
X64952619Y-102004857D01*
X65095476Y-102100095D01*
X65285952Y-102147714D01*
X65666904Y-102147714D01*
X65762142Y-102100095D01*
X65809761Y-102052476D01*
X65857380Y-101957238D01*
X65857380Y-101766761D01*
X65809761Y-101671523D01*
X65762142Y-101623904D01*
X65666904Y-101576285D01*
X65428809Y-101576285D01*
X65333571Y-101623904D01*
X65285952Y-101671523D01*
X65238333Y-101766761D01*
X65238333Y-101957238D01*
X65285952Y-102052476D01*
X65333571Y-102100095D01*
X65428809Y-102147714D01*
X55290980Y-115355666D02*
X54814790Y-115689000D01*
X55290980Y-115927095D02*
X54290980Y-115927095D01*
X54290980Y-115546142D01*
X54338600Y-115450904D01*
X54386219Y-115403285D01*
X54481457Y-115355666D01*
X54624314Y-115355666D01*
X54719552Y-115403285D01*
X54767171Y-115450904D01*
X54814790Y-115546142D01*
X54814790Y-115927095D01*
X54386219Y-114974714D02*
X54338600Y-114927095D01*
X54290980Y-114831857D01*
X54290980Y-114593761D01*
X54338600Y-114498523D01*
X54386219Y-114450904D01*
X54481457Y-114403285D01*
X54576695Y-114403285D01*
X54719552Y-114450904D01*
X55290980Y-115022333D01*
X55290980Y-114403285D01*
X54330695Y-109993180D02*
X54330695Y-110802704D01*
X54378314Y-110897942D01*
X54425933Y-110945561D01*
X54521171Y-110993180D01*
X54711647Y-110993180D01*
X54806885Y-110945561D01*
X54854504Y-110897942D01*
X54902123Y-110802704D01*
X54902123Y-109993180D01*
X55806885Y-110326514D02*
X55806885Y-110993180D01*
X55568790Y-109945561D02*
X55330695Y-110659847D01*
X55949742Y-110659847D01*
X69937380Y-99520333D02*
X70651666Y-99520333D01*
X70794523Y-99567952D01*
X70889761Y-99663190D01*
X70937380Y-99806047D01*
X70937380Y-99901285D01*
X70032619Y-99091761D02*
X69985000Y-99044142D01*
X69937380Y-98948904D01*
X69937380Y-98710809D01*
X69985000Y-98615571D01*
X70032619Y-98567952D01*
X70127857Y-98520333D01*
X70223095Y-98520333D01*
X70365952Y-98567952D01*
X70937380Y-99139380D01*
X70937380Y-98520333D01*
M02*
