G04 #@! TF.GenerationSoftware,KiCad,Pcbnew,5.1.4*
G04 #@! TF.CreationDate,2019-12-21T01:28:04+01:00*
G04 #@! TF.ProjectId,antivol,616e7469-766f-46c2-9e6b-696361645f70,rev?*
G04 #@! TF.SameCoordinates,Original*
G04 #@! TF.FileFunction,Soldermask,Top*
G04 #@! TF.FilePolarity,Negative*
%FSLAX46Y46*%
G04 Gerber Fmt 4.6, Leading zero omitted, Abs format (unit mm)*
G04 Created by KiCad (PCBNEW 5.1.4) date 2019-12-21 01:28:04*
%MOMM*%
%LPD*%
G04 APERTURE LIST*
%ADD10C,0.100000*%
G04 APERTURE END LIST*
D10*
G36*
X61346928Y-114924764D02*
G01*
X61368009Y-114931160D01*
X61387445Y-114941548D01*
X61404476Y-114955524D01*
X61418452Y-114972555D01*
X61428840Y-114991991D01*
X61435236Y-115013072D01*
X61438000Y-115041140D01*
X61438000Y-116854860D01*
X61435236Y-116882928D01*
X61428840Y-116904009D01*
X61418452Y-116923445D01*
X61404476Y-116940476D01*
X61387445Y-116954452D01*
X61368009Y-116964840D01*
X61346928Y-116971236D01*
X61318860Y-116974000D01*
X60855140Y-116974000D01*
X60827072Y-116971236D01*
X60805991Y-116964840D01*
X60786555Y-116954452D01*
X60769524Y-116940476D01*
X60755548Y-116923445D01*
X60745160Y-116904009D01*
X60738764Y-116882928D01*
X60736000Y-116854860D01*
X60736000Y-115041140D01*
X60738764Y-115013072D01*
X60745160Y-114991991D01*
X60755548Y-114972555D01*
X60769524Y-114955524D01*
X60786555Y-114941548D01*
X60805991Y-114931160D01*
X60827072Y-114924764D01*
X60855140Y-114922000D01*
X61318860Y-114922000D01*
X61346928Y-114924764D01*
X61346928Y-114924764D01*
G37*
G36*
X68966928Y-114924764D02*
G01*
X68988009Y-114931160D01*
X69007445Y-114941548D01*
X69024476Y-114955524D01*
X69038452Y-114972555D01*
X69048840Y-114991991D01*
X69055236Y-115013072D01*
X69058000Y-115041140D01*
X69058000Y-116854860D01*
X69055236Y-116882928D01*
X69048840Y-116904009D01*
X69038452Y-116923445D01*
X69024476Y-116940476D01*
X69007445Y-116954452D01*
X68988009Y-116964840D01*
X68966928Y-116971236D01*
X68938860Y-116974000D01*
X68475140Y-116974000D01*
X68447072Y-116971236D01*
X68425991Y-116964840D01*
X68406555Y-116954452D01*
X68389524Y-116940476D01*
X68375548Y-116923445D01*
X68365160Y-116904009D01*
X68358764Y-116882928D01*
X68356000Y-116854860D01*
X68356000Y-115041140D01*
X68358764Y-115013072D01*
X68365160Y-114991991D01*
X68375548Y-114972555D01*
X68389524Y-114955524D01*
X68406555Y-114941548D01*
X68425991Y-114931160D01*
X68447072Y-114924764D01*
X68475140Y-114922000D01*
X68938860Y-114922000D01*
X68966928Y-114924764D01*
X68966928Y-114924764D01*
G37*
G36*
X70236928Y-114924764D02*
G01*
X70258009Y-114931160D01*
X70277445Y-114941548D01*
X70294476Y-114955524D01*
X70308452Y-114972555D01*
X70318840Y-114991991D01*
X70325236Y-115013072D01*
X70328000Y-115041140D01*
X70328000Y-116854860D01*
X70325236Y-116882928D01*
X70318840Y-116904009D01*
X70308452Y-116923445D01*
X70294476Y-116940476D01*
X70277445Y-116954452D01*
X70258009Y-116964840D01*
X70236928Y-116971236D01*
X70208860Y-116974000D01*
X69745140Y-116974000D01*
X69717072Y-116971236D01*
X69695991Y-116964840D01*
X69676555Y-116954452D01*
X69659524Y-116940476D01*
X69645548Y-116923445D01*
X69635160Y-116904009D01*
X69628764Y-116882928D01*
X69626000Y-116854860D01*
X69626000Y-115041140D01*
X69628764Y-115013072D01*
X69635160Y-114991991D01*
X69645548Y-114972555D01*
X69659524Y-114955524D01*
X69676555Y-114941548D01*
X69695991Y-114931160D01*
X69717072Y-114924764D01*
X69745140Y-114922000D01*
X70208860Y-114922000D01*
X70236928Y-114924764D01*
X70236928Y-114924764D01*
G37*
G36*
X67696928Y-114924764D02*
G01*
X67718009Y-114931160D01*
X67737445Y-114941548D01*
X67754476Y-114955524D01*
X67768452Y-114972555D01*
X67778840Y-114991991D01*
X67785236Y-115013072D01*
X67788000Y-115041140D01*
X67788000Y-116854860D01*
X67785236Y-116882928D01*
X67778840Y-116904009D01*
X67768452Y-116923445D01*
X67754476Y-116940476D01*
X67737445Y-116954452D01*
X67718009Y-116964840D01*
X67696928Y-116971236D01*
X67668860Y-116974000D01*
X67205140Y-116974000D01*
X67177072Y-116971236D01*
X67155991Y-116964840D01*
X67136555Y-116954452D01*
X67119524Y-116940476D01*
X67105548Y-116923445D01*
X67095160Y-116904009D01*
X67088764Y-116882928D01*
X67086000Y-116854860D01*
X67086000Y-115041140D01*
X67088764Y-115013072D01*
X67095160Y-114991991D01*
X67105548Y-114972555D01*
X67119524Y-114955524D01*
X67136555Y-114941548D01*
X67155991Y-114931160D01*
X67177072Y-114924764D01*
X67205140Y-114922000D01*
X67668860Y-114922000D01*
X67696928Y-114924764D01*
X67696928Y-114924764D01*
G37*
G36*
X66426928Y-114924764D02*
G01*
X66448009Y-114931160D01*
X66467445Y-114941548D01*
X66484476Y-114955524D01*
X66498452Y-114972555D01*
X66508840Y-114991991D01*
X66515236Y-115013072D01*
X66518000Y-115041140D01*
X66518000Y-116854860D01*
X66515236Y-116882928D01*
X66508840Y-116904009D01*
X66498452Y-116923445D01*
X66484476Y-116940476D01*
X66467445Y-116954452D01*
X66448009Y-116964840D01*
X66426928Y-116971236D01*
X66398860Y-116974000D01*
X65935140Y-116974000D01*
X65907072Y-116971236D01*
X65885991Y-116964840D01*
X65866555Y-116954452D01*
X65849524Y-116940476D01*
X65835548Y-116923445D01*
X65825160Y-116904009D01*
X65818764Y-116882928D01*
X65816000Y-116854860D01*
X65816000Y-115041140D01*
X65818764Y-115013072D01*
X65825160Y-114991991D01*
X65835548Y-114972555D01*
X65849524Y-114955524D01*
X65866555Y-114941548D01*
X65885991Y-114931160D01*
X65907072Y-114924764D01*
X65935140Y-114922000D01*
X66398860Y-114922000D01*
X66426928Y-114924764D01*
X66426928Y-114924764D01*
G37*
G36*
X63886928Y-114924764D02*
G01*
X63908009Y-114931160D01*
X63927445Y-114941548D01*
X63944476Y-114955524D01*
X63958452Y-114972555D01*
X63968840Y-114991991D01*
X63975236Y-115013072D01*
X63978000Y-115041140D01*
X63978000Y-116854860D01*
X63975236Y-116882928D01*
X63968840Y-116904009D01*
X63958452Y-116923445D01*
X63944476Y-116940476D01*
X63927445Y-116954452D01*
X63908009Y-116964840D01*
X63886928Y-116971236D01*
X63858860Y-116974000D01*
X63395140Y-116974000D01*
X63367072Y-116971236D01*
X63345991Y-116964840D01*
X63326555Y-116954452D01*
X63309524Y-116940476D01*
X63295548Y-116923445D01*
X63285160Y-116904009D01*
X63278764Y-116882928D01*
X63276000Y-116854860D01*
X63276000Y-115041140D01*
X63278764Y-115013072D01*
X63285160Y-114991991D01*
X63295548Y-114972555D01*
X63309524Y-114955524D01*
X63326555Y-114941548D01*
X63345991Y-114931160D01*
X63367072Y-114924764D01*
X63395140Y-114922000D01*
X63858860Y-114922000D01*
X63886928Y-114924764D01*
X63886928Y-114924764D01*
G37*
G36*
X62616928Y-114924764D02*
G01*
X62638009Y-114931160D01*
X62657445Y-114941548D01*
X62674476Y-114955524D01*
X62688452Y-114972555D01*
X62698840Y-114991991D01*
X62705236Y-115013072D01*
X62708000Y-115041140D01*
X62708000Y-116854860D01*
X62705236Y-116882928D01*
X62698840Y-116904009D01*
X62688452Y-116923445D01*
X62674476Y-116940476D01*
X62657445Y-116954452D01*
X62638009Y-116964840D01*
X62616928Y-116971236D01*
X62588860Y-116974000D01*
X62125140Y-116974000D01*
X62097072Y-116971236D01*
X62075991Y-116964840D01*
X62056555Y-116954452D01*
X62039524Y-116940476D01*
X62025548Y-116923445D01*
X62015160Y-116904009D01*
X62008764Y-116882928D01*
X62006000Y-116854860D01*
X62006000Y-115041140D01*
X62008764Y-115013072D01*
X62015160Y-114991991D01*
X62025548Y-114972555D01*
X62039524Y-114955524D01*
X62056555Y-114941548D01*
X62075991Y-114931160D01*
X62097072Y-114924764D01*
X62125140Y-114922000D01*
X62588860Y-114922000D01*
X62616928Y-114924764D01*
X62616928Y-114924764D01*
G37*
G36*
X65156928Y-114924764D02*
G01*
X65178009Y-114931160D01*
X65197445Y-114941548D01*
X65214476Y-114955524D01*
X65228452Y-114972555D01*
X65238840Y-114991991D01*
X65245236Y-115013072D01*
X65248000Y-115041140D01*
X65248000Y-116854860D01*
X65245236Y-116882928D01*
X65238840Y-116904009D01*
X65228452Y-116923445D01*
X65214476Y-116940476D01*
X65197445Y-116954452D01*
X65178009Y-116964840D01*
X65156928Y-116971236D01*
X65128860Y-116974000D01*
X64665140Y-116974000D01*
X64637072Y-116971236D01*
X64615991Y-116964840D01*
X64596555Y-116954452D01*
X64579524Y-116940476D01*
X64565548Y-116923445D01*
X64555160Y-116904009D01*
X64548764Y-116882928D01*
X64546000Y-116854860D01*
X64546000Y-115041140D01*
X64548764Y-115013072D01*
X64555160Y-114991991D01*
X64565548Y-114972555D01*
X64579524Y-114955524D01*
X64596555Y-114941548D01*
X64615991Y-114931160D01*
X64637072Y-114924764D01*
X64665140Y-114922000D01*
X65128860Y-114922000D01*
X65156928Y-114924764D01*
X65156928Y-114924764D01*
G37*
G36*
X52500391Y-115593785D02*
G01*
X52534369Y-115604093D01*
X52565690Y-115620834D01*
X52593139Y-115643361D01*
X52615666Y-115670810D01*
X52632407Y-115702131D01*
X52642715Y-115736109D01*
X52646800Y-115777590D01*
X52646800Y-116378810D01*
X52642715Y-116420291D01*
X52632407Y-116454269D01*
X52615666Y-116485590D01*
X52593139Y-116513039D01*
X52565690Y-116535566D01*
X52534369Y-116552307D01*
X52500391Y-116562615D01*
X52458910Y-116566700D01*
X51782690Y-116566700D01*
X51741209Y-116562615D01*
X51707231Y-116552307D01*
X51675910Y-116535566D01*
X51648461Y-116513039D01*
X51625934Y-116485590D01*
X51609193Y-116454269D01*
X51598885Y-116420291D01*
X51594800Y-116378810D01*
X51594800Y-115777590D01*
X51598885Y-115736109D01*
X51609193Y-115702131D01*
X51625934Y-115670810D01*
X51648461Y-115643361D01*
X51675910Y-115620834D01*
X51707231Y-115604093D01*
X51741209Y-115593785D01*
X51782690Y-115589700D01*
X52458910Y-115589700D01*
X52500391Y-115593785D01*
X52500391Y-115593785D01*
G37*
G36*
X54024391Y-115593785D02*
G01*
X54058369Y-115604093D01*
X54089690Y-115620834D01*
X54117139Y-115643361D01*
X54139666Y-115670810D01*
X54156407Y-115702131D01*
X54166715Y-115736109D01*
X54170800Y-115777590D01*
X54170800Y-116378810D01*
X54166715Y-116420291D01*
X54156407Y-116454269D01*
X54139666Y-116485590D01*
X54117139Y-116513039D01*
X54089690Y-116535566D01*
X54058369Y-116552307D01*
X54024391Y-116562615D01*
X53982910Y-116566700D01*
X53306690Y-116566700D01*
X53265209Y-116562615D01*
X53231231Y-116552307D01*
X53199910Y-116535566D01*
X53172461Y-116513039D01*
X53149934Y-116485590D01*
X53133193Y-116454269D01*
X53122885Y-116420291D01*
X53118800Y-116378810D01*
X53118800Y-115777590D01*
X53122885Y-115736109D01*
X53133193Y-115702131D01*
X53149934Y-115670810D01*
X53172461Y-115643361D01*
X53199910Y-115620834D01*
X53231231Y-115604093D01*
X53265209Y-115593785D01*
X53306690Y-115589700D01*
X53982910Y-115589700D01*
X54024391Y-115593785D01*
X54024391Y-115593785D01*
G37*
G36*
X56284991Y-115568385D02*
G01*
X56318969Y-115578693D01*
X56350290Y-115595434D01*
X56377739Y-115617961D01*
X56400266Y-115645410D01*
X56417007Y-115676731D01*
X56427315Y-115710709D01*
X56431400Y-115752190D01*
X56431400Y-116353410D01*
X56427315Y-116394891D01*
X56417007Y-116428869D01*
X56400266Y-116460190D01*
X56377739Y-116487639D01*
X56350290Y-116510166D01*
X56318969Y-116526907D01*
X56284991Y-116537215D01*
X56243510Y-116541300D01*
X55567290Y-116541300D01*
X55525809Y-116537215D01*
X55491831Y-116526907D01*
X55460510Y-116510166D01*
X55433061Y-116487639D01*
X55410534Y-116460190D01*
X55393793Y-116428869D01*
X55383485Y-116394891D01*
X55379400Y-116353410D01*
X55379400Y-115752190D01*
X55383485Y-115710709D01*
X55393793Y-115676731D01*
X55410534Y-115645410D01*
X55433061Y-115617961D01*
X55460510Y-115595434D01*
X55491831Y-115578693D01*
X55525809Y-115568385D01*
X55567290Y-115564300D01*
X56243510Y-115564300D01*
X56284991Y-115568385D01*
X56284991Y-115568385D01*
G37*
G36*
X59307591Y-115568185D02*
G01*
X59341569Y-115578493D01*
X59372890Y-115595234D01*
X59400339Y-115617761D01*
X59422866Y-115645210D01*
X59439607Y-115676531D01*
X59449915Y-115710509D01*
X59454000Y-115751990D01*
X59454000Y-116353210D01*
X59449915Y-116394691D01*
X59439607Y-116428669D01*
X59422866Y-116459990D01*
X59400339Y-116487439D01*
X59372890Y-116509966D01*
X59341569Y-116526707D01*
X59307591Y-116537015D01*
X59266110Y-116541100D01*
X58589890Y-116541100D01*
X58548409Y-116537015D01*
X58514431Y-116526707D01*
X58483110Y-116509966D01*
X58455661Y-116487439D01*
X58433134Y-116459990D01*
X58416393Y-116428669D01*
X58406085Y-116394691D01*
X58402000Y-116353210D01*
X58402000Y-115751990D01*
X58406085Y-115710509D01*
X58416393Y-115676531D01*
X58433134Y-115645210D01*
X58455661Y-115617761D01*
X58483110Y-115595234D01*
X58514431Y-115578493D01*
X58548409Y-115568185D01*
X58589890Y-115564100D01*
X59266110Y-115564100D01*
X59307591Y-115568185D01*
X59307591Y-115568185D01*
G37*
G36*
X57808991Y-115568185D02*
G01*
X57842969Y-115578493D01*
X57874290Y-115595234D01*
X57901739Y-115617761D01*
X57924266Y-115645210D01*
X57941007Y-115676531D01*
X57951315Y-115710509D01*
X57955400Y-115751990D01*
X57955400Y-116353210D01*
X57951315Y-116394691D01*
X57941007Y-116428669D01*
X57924266Y-116459990D01*
X57901739Y-116487439D01*
X57874290Y-116509966D01*
X57842969Y-116526707D01*
X57808991Y-116537015D01*
X57767510Y-116541100D01*
X57091290Y-116541100D01*
X57049809Y-116537015D01*
X57015831Y-116526707D01*
X56984510Y-116509966D01*
X56957061Y-116487439D01*
X56934534Y-116459990D01*
X56917793Y-116428669D01*
X56907485Y-116394691D01*
X56903400Y-116353210D01*
X56903400Y-115751990D01*
X56907485Y-115710509D01*
X56917793Y-115676531D01*
X56934534Y-115645210D01*
X56957061Y-115617761D01*
X56984510Y-115595234D01*
X57015831Y-115578493D01*
X57049809Y-115568185D01*
X57091290Y-115564100D01*
X57767510Y-115564100D01*
X57808991Y-115568185D01*
X57808991Y-115568185D01*
G37*
G36*
X71999968Y-114950565D02*
G01*
X72038638Y-114962296D01*
X72074277Y-114981346D01*
X72105517Y-115006983D01*
X72131154Y-115038223D01*
X72150204Y-115073862D01*
X72161935Y-115112532D01*
X72166500Y-115158888D01*
X72166500Y-116235112D01*
X72161935Y-116281468D01*
X72150204Y-116320138D01*
X72131154Y-116355777D01*
X72105517Y-116387017D01*
X72074277Y-116412654D01*
X72038638Y-116431704D01*
X71999968Y-116443435D01*
X71953612Y-116448000D01*
X71302388Y-116448000D01*
X71256032Y-116443435D01*
X71217362Y-116431704D01*
X71181723Y-116412654D01*
X71150483Y-116387017D01*
X71124846Y-116355777D01*
X71105796Y-116320138D01*
X71094065Y-116281468D01*
X71089500Y-116235112D01*
X71089500Y-115158888D01*
X71094065Y-115112532D01*
X71105796Y-115073862D01*
X71124846Y-115038223D01*
X71150483Y-115006983D01*
X71181723Y-114981346D01*
X71217362Y-114962296D01*
X71256032Y-114950565D01*
X71302388Y-114946000D01*
X71953612Y-114946000D01*
X71999968Y-114950565D01*
X71999968Y-114950565D01*
G37*
G36*
X73874968Y-114950565D02*
G01*
X73913638Y-114962296D01*
X73949277Y-114981346D01*
X73980517Y-115006983D01*
X74006154Y-115038223D01*
X74025204Y-115073862D01*
X74036935Y-115112532D01*
X74041500Y-115158888D01*
X74041500Y-116235112D01*
X74036935Y-116281468D01*
X74025204Y-116320138D01*
X74006154Y-116355777D01*
X73980517Y-116387017D01*
X73949277Y-116412654D01*
X73913638Y-116431704D01*
X73874968Y-116443435D01*
X73828612Y-116448000D01*
X73177388Y-116448000D01*
X73131032Y-116443435D01*
X73092362Y-116431704D01*
X73056723Y-116412654D01*
X73025483Y-116387017D01*
X72999846Y-116355777D01*
X72980796Y-116320138D01*
X72969065Y-116281468D01*
X72964500Y-116235112D01*
X72964500Y-115158888D01*
X72969065Y-115112532D01*
X72980796Y-115073862D01*
X72999846Y-115038223D01*
X73025483Y-115006983D01*
X73056723Y-114981346D01*
X73092362Y-114962296D01*
X73131032Y-114950565D01*
X73177388Y-114946000D01*
X73828612Y-114946000D01*
X73874968Y-114950565D01*
X73874968Y-114950565D01*
G37*
G36*
X75503862Y-113806398D02*
G01*
X75516114Y-113807000D01*
X76729000Y-113807000D01*
X76729000Y-115809000D01*
X75516114Y-115809000D01*
X75503862Y-115809602D01*
X75478000Y-115812149D01*
X75452138Y-115809602D01*
X75439886Y-115809000D01*
X75366594Y-115809000D01*
X75349836Y-115800043D01*
X75338299Y-115795915D01*
X75253307Y-115770132D01*
X75227664Y-115762354D01*
X75114575Y-115701906D01*
X75015447Y-115620554D01*
X74934094Y-115521424D01*
X74873646Y-115408335D01*
X74863960Y-115376403D01*
X74836420Y-115285617D01*
X74827000Y-115189972D01*
X74827000Y-114426027D01*
X74836420Y-114330382D01*
X74873645Y-114207668D01*
X74909879Y-114139880D01*
X74934095Y-114094575D01*
X75015447Y-113995446D01*
X75114576Y-113914094D01*
X75227666Y-113853646D01*
X75227669Y-113853645D01*
X75338290Y-113820088D01*
X75360925Y-113810712D01*
X75366481Y-113807000D01*
X75439886Y-113807000D01*
X75452138Y-113806398D01*
X75478000Y-113803851D01*
X75503862Y-113806398D01*
X75503862Y-113806398D01*
G37*
G36*
X82503862Y-113806398D02*
G01*
X82516114Y-113807000D01*
X82589406Y-113807000D01*
X82606164Y-113815957D01*
X82617707Y-113820087D01*
X82728331Y-113853645D01*
X82728334Y-113853646D01*
X82841424Y-113914094D01*
X82940554Y-113995447D01*
X83021906Y-114094575D01*
X83082354Y-114207664D01*
X83090146Y-114233350D01*
X83119580Y-114330382D01*
X83119580Y-114330384D01*
X83129000Y-114426026D01*
X83129000Y-115189974D01*
X83125860Y-115221855D01*
X83119580Y-115285618D01*
X83092040Y-115376404D01*
X83082354Y-115408336D01*
X83021906Y-115521425D01*
X82940554Y-115620554D01*
X82841425Y-115701906D01*
X82728336Y-115762354D01*
X82702693Y-115770132D01*
X82617708Y-115795913D01*
X82595075Y-115805287D01*
X82589518Y-115809000D01*
X82516114Y-115809000D01*
X82503862Y-115809602D01*
X82478000Y-115812149D01*
X82452138Y-115809602D01*
X82439886Y-115809000D01*
X81227000Y-115809000D01*
X81227000Y-113807000D01*
X82439886Y-113807000D01*
X82452138Y-113806398D01*
X82478000Y-113803851D01*
X82503862Y-113806398D01*
X82503862Y-113806398D01*
G37*
G36*
X78779000Y-115809000D02*
G01*
X77177000Y-115809000D01*
X77177000Y-113807000D01*
X78779000Y-113807000D01*
X78779000Y-115809000D01*
X78779000Y-115809000D01*
G37*
G36*
X80779000Y-115809000D02*
G01*
X79177000Y-115809000D01*
X79177000Y-113807000D01*
X80779000Y-113807000D01*
X80779000Y-115809000D01*
X80779000Y-115809000D01*
G37*
G36*
X54024391Y-114018785D02*
G01*
X54058369Y-114029093D01*
X54089690Y-114045834D01*
X54117139Y-114068361D01*
X54139666Y-114095810D01*
X54156407Y-114127131D01*
X54166715Y-114161109D01*
X54170800Y-114202590D01*
X54170800Y-114803810D01*
X54166715Y-114845291D01*
X54156407Y-114879269D01*
X54139666Y-114910590D01*
X54117139Y-114938039D01*
X54089690Y-114960566D01*
X54058369Y-114977307D01*
X54024391Y-114987615D01*
X53982910Y-114991700D01*
X53306690Y-114991700D01*
X53265209Y-114987615D01*
X53231231Y-114977307D01*
X53199910Y-114960566D01*
X53172461Y-114938039D01*
X53149934Y-114910590D01*
X53133193Y-114879269D01*
X53122885Y-114845291D01*
X53118800Y-114803810D01*
X53118800Y-114202590D01*
X53122885Y-114161109D01*
X53133193Y-114127131D01*
X53149934Y-114095810D01*
X53172461Y-114068361D01*
X53199910Y-114045834D01*
X53231231Y-114029093D01*
X53265209Y-114018785D01*
X53306690Y-114014700D01*
X53982910Y-114014700D01*
X54024391Y-114018785D01*
X54024391Y-114018785D01*
G37*
G36*
X52500391Y-114018785D02*
G01*
X52534369Y-114029093D01*
X52565690Y-114045834D01*
X52593139Y-114068361D01*
X52615666Y-114095810D01*
X52632407Y-114127131D01*
X52642715Y-114161109D01*
X52646800Y-114202590D01*
X52646800Y-114803810D01*
X52642715Y-114845291D01*
X52632407Y-114879269D01*
X52615666Y-114910590D01*
X52593139Y-114938039D01*
X52565690Y-114960566D01*
X52534369Y-114977307D01*
X52500391Y-114987615D01*
X52458910Y-114991700D01*
X51782690Y-114991700D01*
X51741209Y-114987615D01*
X51707231Y-114977307D01*
X51675910Y-114960566D01*
X51648461Y-114938039D01*
X51625934Y-114910590D01*
X51609193Y-114879269D01*
X51598885Y-114845291D01*
X51594800Y-114803810D01*
X51594800Y-114202590D01*
X51598885Y-114161109D01*
X51609193Y-114127131D01*
X51625934Y-114095810D01*
X51648461Y-114068361D01*
X51675910Y-114045834D01*
X51707231Y-114029093D01*
X51741209Y-114018785D01*
X51782690Y-114014700D01*
X52458910Y-114014700D01*
X52500391Y-114018785D01*
X52500391Y-114018785D01*
G37*
G36*
X56284991Y-113993385D02*
G01*
X56318969Y-114003693D01*
X56350290Y-114020434D01*
X56377739Y-114042961D01*
X56400266Y-114070410D01*
X56417007Y-114101731D01*
X56427315Y-114135709D01*
X56431400Y-114177190D01*
X56431400Y-114778410D01*
X56427315Y-114819891D01*
X56417007Y-114853869D01*
X56400266Y-114885190D01*
X56377739Y-114912639D01*
X56350290Y-114935166D01*
X56318969Y-114951907D01*
X56284991Y-114962215D01*
X56243510Y-114966300D01*
X55567290Y-114966300D01*
X55525809Y-114962215D01*
X55491831Y-114951907D01*
X55460510Y-114935166D01*
X55433061Y-114912639D01*
X55410534Y-114885190D01*
X55393793Y-114853869D01*
X55383485Y-114819891D01*
X55379400Y-114778410D01*
X55379400Y-114177190D01*
X55383485Y-114135709D01*
X55393793Y-114101731D01*
X55410534Y-114070410D01*
X55433061Y-114042961D01*
X55460510Y-114020434D01*
X55491831Y-114003693D01*
X55525809Y-113993385D01*
X55567290Y-113989300D01*
X56243510Y-113989300D01*
X56284991Y-113993385D01*
X56284991Y-113993385D01*
G37*
G36*
X59307591Y-113993185D02*
G01*
X59341569Y-114003493D01*
X59372890Y-114020234D01*
X59400339Y-114042761D01*
X59422866Y-114070210D01*
X59439607Y-114101531D01*
X59449915Y-114135509D01*
X59454000Y-114176990D01*
X59454000Y-114778210D01*
X59449915Y-114819691D01*
X59439607Y-114853669D01*
X59422866Y-114884990D01*
X59400339Y-114912439D01*
X59372890Y-114934966D01*
X59341569Y-114951707D01*
X59307591Y-114962015D01*
X59266110Y-114966100D01*
X58589890Y-114966100D01*
X58548409Y-114962015D01*
X58514431Y-114951707D01*
X58483110Y-114934966D01*
X58455661Y-114912439D01*
X58433134Y-114884990D01*
X58416393Y-114853669D01*
X58406085Y-114819691D01*
X58402000Y-114778210D01*
X58402000Y-114176990D01*
X58406085Y-114135509D01*
X58416393Y-114101531D01*
X58433134Y-114070210D01*
X58455661Y-114042761D01*
X58483110Y-114020234D01*
X58514431Y-114003493D01*
X58548409Y-113993185D01*
X58589890Y-113989100D01*
X59266110Y-113989100D01*
X59307591Y-113993185D01*
X59307591Y-113993185D01*
G37*
G36*
X57808991Y-113993185D02*
G01*
X57842969Y-114003493D01*
X57874290Y-114020234D01*
X57901739Y-114042761D01*
X57924266Y-114070210D01*
X57941007Y-114101531D01*
X57951315Y-114135509D01*
X57955400Y-114176990D01*
X57955400Y-114778210D01*
X57951315Y-114819691D01*
X57941007Y-114853669D01*
X57924266Y-114884990D01*
X57901739Y-114912439D01*
X57874290Y-114934966D01*
X57842969Y-114951707D01*
X57808991Y-114962015D01*
X57767510Y-114966100D01*
X57091290Y-114966100D01*
X57049809Y-114962015D01*
X57015831Y-114951707D01*
X56984510Y-114934966D01*
X56957061Y-114912439D01*
X56934534Y-114884990D01*
X56917793Y-114853669D01*
X56907485Y-114819691D01*
X56903400Y-114778210D01*
X56903400Y-114176990D01*
X56907485Y-114135509D01*
X56917793Y-114101531D01*
X56934534Y-114070210D01*
X56957061Y-114042761D01*
X56984510Y-114020234D01*
X57015831Y-114003493D01*
X57049809Y-113993185D01*
X57091290Y-113989100D01*
X57767510Y-113989100D01*
X57808991Y-113993185D01*
X57808991Y-113993185D01*
G37*
G36*
X72739695Y-111626066D02*
G01*
X72820627Y-111634037D01*
X72990466Y-111685557D01*
X73146991Y-111769222D01*
X73170407Y-111788439D01*
X73284186Y-111881814D01*
X73367448Y-111983271D01*
X73396778Y-112019009D01*
X73480443Y-112175534D01*
X73531963Y-112345373D01*
X73549359Y-112522000D01*
X73531963Y-112698627D01*
X73480443Y-112868466D01*
X73396778Y-113024991D01*
X73367448Y-113060729D01*
X73284186Y-113162186D01*
X73182729Y-113245448D01*
X73146991Y-113274778D01*
X72990466Y-113358443D01*
X72820627Y-113409963D01*
X72754442Y-113416482D01*
X72688260Y-113423000D01*
X72599740Y-113423000D01*
X72533558Y-113416482D01*
X72467373Y-113409963D01*
X72297534Y-113358443D01*
X72141009Y-113274778D01*
X72105271Y-113245448D01*
X72003814Y-113162186D01*
X71920552Y-113060729D01*
X71891222Y-113024991D01*
X71807557Y-112868466D01*
X71756037Y-112698627D01*
X71738641Y-112522000D01*
X71756037Y-112345373D01*
X71807557Y-112175534D01*
X71891222Y-112019009D01*
X71920552Y-111983271D01*
X72003814Y-111881814D01*
X72117593Y-111788439D01*
X72141009Y-111769222D01*
X72297534Y-111685557D01*
X72467373Y-111634037D01*
X72548305Y-111626066D01*
X72599740Y-111621000D01*
X72688260Y-111621000D01*
X72739695Y-111626066D01*
X72739695Y-111626066D01*
G37*
G36*
X52474991Y-112444185D02*
G01*
X52508969Y-112454493D01*
X52540290Y-112471234D01*
X52567739Y-112493761D01*
X52590266Y-112521210D01*
X52607007Y-112552531D01*
X52617315Y-112586509D01*
X52621400Y-112627990D01*
X52621400Y-113229210D01*
X52617315Y-113270691D01*
X52607007Y-113304669D01*
X52590266Y-113335990D01*
X52567739Y-113363439D01*
X52540290Y-113385966D01*
X52508969Y-113402707D01*
X52474991Y-113413015D01*
X52433510Y-113417100D01*
X51757290Y-113417100D01*
X51715809Y-113413015D01*
X51681831Y-113402707D01*
X51650510Y-113385966D01*
X51623061Y-113363439D01*
X51600534Y-113335990D01*
X51583793Y-113304669D01*
X51573485Y-113270691D01*
X51569400Y-113229210D01*
X51569400Y-112627990D01*
X51573485Y-112586509D01*
X51583793Y-112552531D01*
X51600534Y-112521210D01*
X51623061Y-112493761D01*
X51650510Y-112471234D01*
X51681831Y-112454493D01*
X51715809Y-112444185D01*
X51757290Y-112440100D01*
X52433510Y-112440100D01*
X52474991Y-112444185D01*
X52474991Y-112444185D01*
G37*
G36*
X54837253Y-111131934D02*
G01*
X54858864Y-111143485D01*
X54882313Y-111150598D01*
X54906699Y-111153000D01*
X55306700Y-111153000D01*
X55306700Y-113105000D01*
X54906699Y-113105000D01*
X54882313Y-113107402D01*
X54858864Y-113114515D01*
X54837253Y-113126066D01*
X54832459Y-113130000D01*
X53778941Y-113130000D01*
X53774147Y-113126066D01*
X53752536Y-113114515D01*
X53729087Y-113107402D01*
X53704701Y-113105000D01*
X53304700Y-113105000D01*
X53304700Y-111729999D01*
X53781700Y-111729999D01*
X53781700Y-112528001D01*
X53784102Y-112552387D01*
X53791215Y-112575836D01*
X53802766Y-112597447D01*
X53818311Y-112616389D01*
X53837253Y-112631934D01*
X53858864Y-112643485D01*
X53882313Y-112650598D01*
X53906699Y-112653000D01*
X54704701Y-112653000D01*
X54729087Y-112650598D01*
X54752536Y-112643485D01*
X54774147Y-112631934D01*
X54793089Y-112616389D01*
X54808634Y-112597447D01*
X54820185Y-112575836D01*
X54827298Y-112552387D01*
X54829700Y-112528001D01*
X54829700Y-111729999D01*
X54827298Y-111705613D01*
X54820185Y-111682164D01*
X54808634Y-111660553D01*
X54793089Y-111641611D01*
X54774147Y-111626066D01*
X54752536Y-111614515D01*
X54729087Y-111607402D01*
X54704701Y-111605000D01*
X53906699Y-111605000D01*
X53882313Y-111607402D01*
X53858864Y-111614515D01*
X53837253Y-111626066D01*
X53818311Y-111641611D01*
X53802766Y-111660553D01*
X53791215Y-111682164D01*
X53784102Y-111705613D01*
X53781700Y-111729999D01*
X53304700Y-111729999D01*
X53304700Y-111153000D01*
X53704701Y-111153000D01*
X53729087Y-111150598D01*
X53752536Y-111143485D01*
X53774147Y-111131934D01*
X53778941Y-111128000D01*
X54832459Y-111128000D01*
X54837253Y-111131934D01*
X54837253Y-111131934D01*
G37*
G36*
X76704348Y-111361820D02*
G01*
X76704350Y-111361821D01*
X76704351Y-111361821D01*
X76845574Y-111420317D01*
X76845577Y-111420319D01*
X76972669Y-111505239D01*
X77080761Y-111613331D01*
X77129021Y-111685558D01*
X77165683Y-111740426D01*
X77178165Y-111770561D01*
X77186517Y-111790725D01*
X77198068Y-111812336D01*
X77213614Y-111831278D01*
X77232556Y-111846823D01*
X77254166Y-111858374D01*
X77277615Y-111865487D01*
X77302001Y-111867889D01*
X77326387Y-111865487D01*
X77349836Y-111858374D01*
X77371447Y-111846823D01*
X77390389Y-111831277D01*
X77405934Y-111812335D01*
X77417485Y-111790725D01*
X77424598Y-111767276D01*
X77427000Y-111742890D01*
X77427000Y-111382000D01*
X80529000Y-111382000D01*
X80529000Y-111742890D01*
X80531402Y-111767276D01*
X80538515Y-111790725D01*
X80550066Y-111812336D01*
X80565611Y-111831278D01*
X80584553Y-111846823D01*
X80606164Y-111858374D01*
X80629613Y-111865487D01*
X80653999Y-111867889D01*
X80678385Y-111865487D01*
X80701834Y-111858374D01*
X80723445Y-111846823D01*
X80742387Y-111831278D01*
X80757932Y-111812336D01*
X80769483Y-111790725D01*
X80777835Y-111770561D01*
X80790317Y-111740426D01*
X80826979Y-111685558D01*
X80875239Y-111613331D01*
X80983331Y-111505239D01*
X81110423Y-111420319D01*
X81110426Y-111420317D01*
X81251649Y-111361821D01*
X81251650Y-111361821D01*
X81251652Y-111361820D01*
X81401569Y-111332000D01*
X81554431Y-111332000D01*
X81704348Y-111361820D01*
X81704350Y-111361821D01*
X81704351Y-111361821D01*
X81845574Y-111420317D01*
X81845577Y-111420319D01*
X81972669Y-111505239D01*
X82080761Y-111613331D01*
X82129021Y-111685558D01*
X82165683Y-111740426D01*
X82218479Y-111867889D01*
X82224180Y-111881652D01*
X82252494Y-112024000D01*
X82254000Y-112031571D01*
X82254000Y-112184429D01*
X82224179Y-112334351D01*
X82165683Y-112475574D01*
X82165682Y-112475575D01*
X82165681Y-112475577D01*
X82080761Y-112602669D01*
X81972669Y-112710761D01*
X81845577Y-112795681D01*
X81845574Y-112795683D01*
X81704351Y-112854179D01*
X81704350Y-112854179D01*
X81704348Y-112854180D01*
X81554431Y-112884000D01*
X81401569Y-112884000D01*
X81251652Y-112854180D01*
X81251650Y-112854179D01*
X81251649Y-112854179D01*
X81110426Y-112795683D01*
X81110423Y-112795681D01*
X80983331Y-112710761D01*
X80875239Y-112602669D01*
X80790318Y-112475575D01*
X80790317Y-112475574D01*
X80769481Y-112425272D01*
X80757932Y-112403664D01*
X80742386Y-112384722D01*
X80723444Y-112369177D01*
X80701834Y-112357626D01*
X80678385Y-112350513D01*
X80653999Y-112348111D01*
X80629613Y-112350513D01*
X80606164Y-112357626D01*
X80584553Y-112369177D01*
X80565611Y-112384723D01*
X80550066Y-112403665D01*
X80538515Y-112425275D01*
X80531402Y-112448724D01*
X80529000Y-112473110D01*
X80529000Y-112834000D01*
X77427000Y-112834000D01*
X77427000Y-112473110D01*
X77424598Y-112448724D01*
X77417485Y-112425275D01*
X77405934Y-112403664D01*
X77390389Y-112384722D01*
X77371447Y-112369177D01*
X77349836Y-112357626D01*
X77326387Y-112350513D01*
X77302001Y-112348111D01*
X77277615Y-112350513D01*
X77254166Y-112357626D01*
X77232555Y-112369177D01*
X77213613Y-112384722D01*
X77198068Y-112403664D01*
X77186519Y-112425272D01*
X77165683Y-112475574D01*
X77165682Y-112475575D01*
X77080761Y-112602669D01*
X76972669Y-112710761D01*
X76845577Y-112795681D01*
X76845574Y-112795683D01*
X76704351Y-112854179D01*
X76704350Y-112854179D01*
X76704348Y-112854180D01*
X76554431Y-112884000D01*
X76401569Y-112884000D01*
X76251652Y-112854180D01*
X76251650Y-112854179D01*
X76251649Y-112854179D01*
X76110426Y-112795683D01*
X76110423Y-112795681D01*
X75983331Y-112710761D01*
X75875239Y-112602669D01*
X75790319Y-112475577D01*
X75790318Y-112475575D01*
X75790317Y-112475574D01*
X75731821Y-112334351D01*
X75702000Y-112184429D01*
X75702000Y-112031571D01*
X75703506Y-112024000D01*
X75731820Y-111881652D01*
X75737521Y-111867889D01*
X75790317Y-111740426D01*
X75826979Y-111685558D01*
X75875239Y-111613331D01*
X75983331Y-111505239D01*
X76110423Y-111420319D01*
X76110426Y-111420317D01*
X76251649Y-111361821D01*
X76251650Y-111361821D01*
X76251652Y-111361820D01*
X76401569Y-111332000D01*
X76554431Y-111332000D01*
X76704348Y-111361820D01*
X76704348Y-111361820D01*
G37*
G36*
X65156928Y-109974764D02*
G01*
X65178009Y-109981160D01*
X65197445Y-109991548D01*
X65214476Y-110005524D01*
X65228452Y-110022555D01*
X65238840Y-110041991D01*
X65245236Y-110063072D01*
X65248000Y-110091140D01*
X65248000Y-111904860D01*
X65245236Y-111932928D01*
X65238840Y-111954009D01*
X65228452Y-111973445D01*
X65214476Y-111990476D01*
X65197445Y-112004452D01*
X65178009Y-112014840D01*
X65156928Y-112021236D01*
X65128860Y-112024000D01*
X64665140Y-112024000D01*
X64637072Y-112021236D01*
X64615991Y-112014840D01*
X64596555Y-112004452D01*
X64579524Y-111990476D01*
X64565548Y-111973445D01*
X64555160Y-111954009D01*
X64548764Y-111932928D01*
X64546000Y-111904860D01*
X64546000Y-110091140D01*
X64548764Y-110063072D01*
X64555160Y-110041991D01*
X64565548Y-110022555D01*
X64579524Y-110005524D01*
X64596555Y-109991548D01*
X64615991Y-109981160D01*
X64637072Y-109974764D01*
X64665140Y-109972000D01*
X65128860Y-109972000D01*
X65156928Y-109974764D01*
X65156928Y-109974764D01*
G37*
G36*
X70236928Y-109974764D02*
G01*
X70258009Y-109981160D01*
X70277445Y-109991548D01*
X70294476Y-110005524D01*
X70308452Y-110022555D01*
X70318840Y-110041991D01*
X70325236Y-110063072D01*
X70328000Y-110091140D01*
X70328000Y-111904860D01*
X70325236Y-111932928D01*
X70318840Y-111954009D01*
X70308452Y-111973445D01*
X70294476Y-111990476D01*
X70277445Y-112004452D01*
X70258009Y-112014840D01*
X70236928Y-112021236D01*
X70208860Y-112024000D01*
X69745140Y-112024000D01*
X69717072Y-112021236D01*
X69695991Y-112014840D01*
X69676555Y-112004452D01*
X69659524Y-111990476D01*
X69645548Y-111973445D01*
X69635160Y-111954009D01*
X69628764Y-111932928D01*
X69626000Y-111904860D01*
X69626000Y-110091140D01*
X69628764Y-110063072D01*
X69635160Y-110041991D01*
X69645548Y-110022555D01*
X69659524Y-110005524D01*
X69676555Y-109991548D01*
X69695991Y-109981160D01*
X69717072Y-109974764D01*
X69745140Y-109972000D01*
X70208860Y-109972000D01*
X70236928Y-109974764D01*
X70236928Y-109974764D01*
G37*
G36*
X68966928Y-109974764D02*
G01*
X68988009Y-109981160D01*
X69007445Y-109991548D01*
X69024476Y-110005524D01*
X69038452Y-110022555D01*
X69048840Y-110041991D01*
X69055236Y-110063072D01*
X69058000Y-110091140D01*
X69058000Y-111904860D01*
X69055236Y-111932928D01*
X69048840Y-111954009D01*
X69038452Y-111973445D01*
X69024476Y-111990476D01*
X69007445Y-112004452D01*
X68988009Y-112014840D01*
X68966928Y-112021236D01*
X68938860Y-112024000D01*
X68475140Y-112024000D01*
X68447072Y-112021236D01*
X68425991Y-112014840D01*
X68406555Y-112004452D01*
X68389524Y-111990476D01*
X68375548Y-111973445D01*
X68365160Y-111954009D01*
X68358764Y-111932928D01*
X68356000Y-111904860D01*
X68356000Y-110091140D01*
X68358764Y-110063072D01*
X68365160Y-110041991D01*
X68375548Y-110022555D01*
X68389524Y-110005524D01*
X68406555Y-109991548D01*
X68425991Y-109981160D01*
X68447072Y-109974764D01*
X68475140Y-109972000D01*
X68938860Y-109972000D01*
X68966928Y-109974764D01*
X68966928Y-109974764D01*
G37*
G36*
X66426928Y-109974764D02*
G01*
X66448009Y-109981160D01*
X66467445Y-109991548D01*
X66484476Y-110005524D01*
X66498452Y-110022555D01*
X66508840Y-110041991D01*
X66515236Y-110063072D01*
X66518000Y-110091140D01*
X66518000Y-111904860D01*
X66515236Y-111932928D01*
X66508840Y-111954009D01*
X66498452Y-111973445D01*
X66484476Y-111990476D01*
X66467445Y-112004452D01*
X66448009Y-112014840D01*
X66426928Y-112021236D01*
X66398860Y-112024000D01*
X65935140Y-112024000D01*
X65907072Y-112021236D01*
X65885991Y-112014840D01*
X65866555Y-112004452D01*
X65849524Y-111990476D01*
X65835548Y-111973445D01*
X65825160Y-111954009D01*
X65818764Y-111932928D01*
X65816000Y-111904860D01*
X65816000Y-110091140D01*
X65818764Y-110063072D01*
X65825160Y-110041991D01*
X65835548Y-110022555D01*
X65849524Y-110005524D01*
X65866555Y-109991548D01*
X65885991Y-109981160D01*
X65907072Y-109974764D01*
X65935140Y-109972000D01*
X66398860Y-109972000D01*
X66426928Y-109974764D01*
X66426928Y-109974764D01*
G37*
G36*
X63886928Y-109974764D02*
G01*
X63908009Y-109981160D01*
X63927445Y-109991548D01*
X63944476Y-110005524D01*
X63958452Y-110022555D01*
X63968840Y-110041991D01*
X63975236Y-110063072D01*
X63978000Y-110091140D01*
X63978000Y-111904860D01*
X63975236Y-111932928D01*
X63968840Y-111954009D01*
X63958452Y-111973445D01*
X63944476Y-111990476D01*
X63927445Y-112004452D01*
X63908009Y-112014840D01*
X63886928Y-112021236D01*
X63858860Y-112024000D01*
X63395140Y-112024000D01*
X63367072Y-112021236D01*
X63345991Y-112014840D01*
X63326555Y-112004452D01*
X63309524Y-111990476D01*
X63295548Y-111973445D01*
X63285160Y-111954009D01*
X63278764Y-111932928D01*
X63276000Y-111904860D01*
X63276000Y-110091140D01*
X63278764Y-110063072D01*
X63285160Y-110041991D01*
X63295548Y-110022555D01*
X63309524Y-110005524D01*
X63326555Y-109991548D01*
X63345991Y-109981160D01*
X63367072Y-109974764D01*
X63395140Y-109972000D01*
X63858860Y-109972000D01*
X63886928Y-109974764D01*
X63886928Y-109974764D01*
G37*
G36*
X67696928Y-109974764D02*
G01*
X67718009Y-109981160D01*
X67737445Y-109991548D01*
X67754476Y-110005524D01*
X67768452Y-110022555D01*
X67778840Y-110041991D01*
X67785236Y-110063072D01*
X67788000Y-110091140D01*
X67788000Y-111904860D01*
X67785236Y-111932928D01*
X67778840Y-111954009D01*
X67768452Y-111973445D01*
X67754476Y-111990476D01*
X67737445Y-112004452D01*
X67718009Y-112014840D01*
X67696928Y-112021236D01*
X67668860Y-112024000D01*
X67205140Y-112024000D01*
X67177072Y-112021236D01*
X67155991Y-112014840D01*
X67136555Y-112004452D01*
X67119524Y-111990476D01*
X67105548Y-111973445D01*
X67095160Y-111954009D01*
X67088764Y-111932928D01*
X67086000Y-111904860D01*
X67086000Y-110091140D01*
X67088764Y-110063072D01*
X67095160Y-110041991D01*
X67105548Y-110022555D01*
X67119524Y-110005524D01*
X67136555Y-109991548D01*
X67155991Y-109981160D01*
X67177072Y-109974764D01*
X67205140Y-109972000D01*
X67668860Y-109972000D01*
X67696928Y-109974764D01*
X67696928Y-109974764D01*
G37*
G36*
X62616928Y-109974764D02*
G01*
X62638009Y-109981160D01*
X62657445Y-109991548D01*
X62674476Y-110005524D01*
X62688452Y-110022555D01*
X62698840Y-110041991D01*
X62705236Y-110063072D01*
X62708000Y-110091140D01*
X62708000Y-111904860D01*
X62705236Y-111932928D01*
X62698840Y-111954009D01*
X62688452Y-111973445D01*
X62674476Y-111990476D01*
X62657445Y-112004452D01*
X62638009Y-112014840D01*
X62616928Y-112021236D01*
X62588860Y-112024000D01*
X62125140Y-112024000D01*
X62097072Y-112021236D01*
X62075991Y-112014840D01*
X62056555Y-112004452D01*
X62039524Y-111990476D01*
X62025548Y-111973445D01*
X62015160Y-111954009D01*
X62008764Y-111932928D01*
X62006000Y-111904860D01*
X62006000Y-110091140D01*
X62008764Y-110063072D01*
X62015160Y-110041991D01*
X62025548Y-110022555D01*
X62039524Y-110005524D01*
X62056555Y-109991548D01*
X62075991Y-109981160D01*
X62097072Y-109974764D01*
X62125140Y-109972000D01*
X62588860Y-109972000D01*
X62616928Y-109974764D01*
X62616928Y-109974764D01*
G37*
G36*
X61346928Y-109974764D02*
G01*
X61368009Y-109981160D01*
X61387445Y-109991548D01*
X61404476Y-110005524D01*
X61418452Y-110022555D01*
X61428840Y-110041991D01*
X61435236Y-110063072D01*
X61438000Y-110091140D01*
X61438000Y-111904860D01*
X61435236Y-111932928D01*
X61428840Y-111954009D01*
X61418452Y-111973445D01*
X61404476Y-111990476D01*
X61387445Y-112004452D01*
X61368009Y-112014840D01*
X61346928Y-112021236D01*
X61318860Y-112024000D01*
X60855140Y-112024000D01*
X60827072Y-112021236D01*
X60805991Y-112014840D01*
X60786555Y-112004452D01*
X60769524Y-111990476D01*
X60755548Y-111973445D01*
X60745160Y-111954009D01*
X60738764Y-111932928D01*
X60736000Y-111904860D01*
X60736000Y-110091140D01*
X60738764Y-110063072D01*
X60745160Y-110041991D01*
X60755548Y-110022555D01*
X60769524Y-110005524D01*
X60786555Y-109991548D01*
X60805991Y-109981160D01*
X60827072Y-109974764D01*
X60855140Y-109972000D01*
X61318860Y-109972000D01*
X61346928Y-109974764D01*
X61346928Y-109974764D01*
G37*
G36*
X57219200Y-111952000D02*
G01*
X56217200Y-111952000D01*
X56217200Y-111050000D01*
X57219200Y-111050000D01*
X57219200Y-111952000D01*
X57219200Y-111952000D01*
G37*
G36*
X52474991Y-110869185D02*
G01*
X52508969Y-110879493D01*
X52540290Y-110896234D01*
X52567739Y-110918761D01*
X52590266Y-110946210D01*
X52607007Y-110977531D01*
X52617315Y-111011509D01*
X52621400Y-111052990D01*
X52621400Y-111654210D01*
X52617315Y-111695691D01*
X52607007Y-111729669D01*
X52590266Y-111760990D01*
X52567739Y-111788439D01*
X52540290Y-111810966D01*
X52508969Y-111827707D01*
X52474991Y-111838015D01*
X52433510Y-111842100D01*
X51757290Y-111842100D01*
X51715809Y-111838015D01*
X51681831Y-111827707D01*
X51650510Y-111810966D01*
X51623061Y-111788439D01*
X51600534Y-111760990D01*
X51583793Y-111729669D01*
X51573485Y-111695691D01*
X51569400Y-111654210D01*
X51569400Y-111052990D01*
X51573485Y-111011509D01*
X51583793Y-110977531D01*
X51600534Y-110946210D01*
X51623061Y-110918761D01*
X51650510Y-110896234D01*
X51681831Y-110879493D01*
X51715809Y-110869185D01*
X51757290Y-110865100D01*
X52433510Y-110865100D01*
X52474991Y-110869185D01*
X52474991Y-110869185D01*
G37*
G36*
X59219200Y-111002000D02*
G01*
X58217200Y-111002000D01*
X58217200Y-110100000D01*
X59219200Y-110100000D01*
X59219200Y-111002000D01*
X59219200Y-111002000D01*
G37*
G36*
X72754443Y-109087519D02*
G01*
X72820627Y-109094037D01*
X72990466Y-109145557D01*
X73146991Y-109229222D01*
X73163979Y-109243164D01*
X73284186Y-109341814D01*
X73340874Y-109410890D01*
X73396778Y-109479009D01*
X73480443Y-109635534D01*
X73531963Y-109805373D01*
X73549359Y-109982000D01*
X73531963Y-110158627D01*
X73480443Y-110328466D01*
X73396778Y-110484991D01*
X73367448Y-110520729D01*
X73284186Y-110622186D01*
X73182729Y-110705448D01*
X73146991Y-110734778D01*
X72990466Y-110818443D01*
X72820627Y-110869963D01*
X72754442Y-110876482D01*
X72688260Y-110883000D01*
X72599740Y-110883000D01*
X72533558Y-110876482D01*
X72467373Y-110869963D01*
X72297534Y-110818443D01*
X72141009Y-110734778D01*
X72105271Y-110705448D01*
X72003814Y-110622186D01*
X71920552Y-110520729D01*
X71891222Y-110484991D01*
X71807557Y-110328466D01*
X71756037Y-110158627D01*
X71738641Y-109982000D01*
X71756037Y-109805373D01*
X71807557Y-109635534D01*
X71891222Y-109479009D01*
X71947126Y-109410890D01*
X72003814Y-109341814D01*
X72124021Y-109243164D01*
X72141009Y-109229222D01*
X72297534Y-109145557D01*
X72467373Y-109094037D01*
X72533557Y-109087519D01*
X72599740Y-109081000D01*
X72688260Y-109081000D01*
X72754443Y-109087519D01*
X72754443Y-109087519D01*
G37*
G36*
X52412091Y-109206085D02*
G01*
X52446069Y-109216393D01*
X52477390Y-109233134D01*
X52504839Y-109255661D01*
X52527366Y-109283110D01*
X52544107Y-109314431D01*
X52554415Y-109348409D01*
X52558500Y-109389890D01*
X52558500Y-110066110D01*
X52554415Y-110107591D01*
X52544107Y-110141569D01*
X52527366Y-110172890D01*
X52504839Y-110200339D01*
X52477390Y-110222866D01*
X52446069Y-110239607D01*
X52412091Y-110249915D01*
X52370610Y-110254000D01*
X51769390Y-110254000D01*
X51727909Y-110249915D01*
X51693931Y-110239607D01*
X51662610Y-110222866D01*
X51635161Y-110200339D01*
X51612634Y-110172890D01*
X51595893Y-110141569D01*
X51585585Y-110107591D01*
X51581500Y-110066110D01*
X51581500Y-109389890D01*
X51585585Y-109348409D01*
X51595893Y-109314431D01*
X51612634Y-109283110D01*
X51635161Y-109255661D01*
X51662610Y-109233134D01*
X51693931Y-109216393D01*
X51727909Y-109206085D01*
X51769390Y-109202000D01*
X52370610Y-109202000D01*
X52412091Y-109206085D01*
X52412091Y-109206085D01*
G37*
G36*
X53987091Y-109206085D02*
G01*
X54021069Y-109216393D01*
X54052390Y-109233134D01*
X54079839Y-109255661D01*
X54102366Y-109283110D01*
X54119107Y-109314431D01*
X54129415Y-109348409D01*
X54133500Y-109389890D01*
X54133500Y-110066110D01*
X54129415Y-110107591D01*
X54119107Y-110141569D01*
X54102366Y-110172890D01*
X54079839Y-110200339D01*
X54052390Y-110222866D01*
X54021069Y-110239607D01*
X53987091Y-110249915D01*
X53945610Y-110254000D01*
X53344390Y-110254000D01*
X53302909Y-110249915D01*
X53268931Y-110239607D01*
X53237610Y-110222866D01*
X53210161Y-110200339D01*
X53187634Y-110172890D01*
X53170893Y-110141569D01*
X53160585Y-110107591D01*
X53156500Y-110066110D01*
X53156500Y-109389890D01*
X53160585Y-109348409D01*
X53170893Y-109314431D01*
X53187634Y-109283110D01*
X53210161Y-109255661D01*
X53237610Y-109233134D01*
X53268931Y-109216393D01*
X53302909Y-109206085D01*
X53344390Y-109202000D01*
X53945610Y-109202000D01*
X53987091Y-109206085D01*
X53987091Y-109206085D01*
G37*
G36*
X57219200Y-110052000D02*
G01*
X56217200Y-110052000D01*
X56217200Y-109150000D01*
X57219200Y-109150000D01*
X57219200Y-110052000D01*
X57219200Y-110052000D01*
G37*
G36*
X82947000Y-109975000D02*
G01*
X81645000Y-109975000D01*
X81645000Y-108973000D01*
X82947000Y-108973000D01*
X82947000Y-109975000D01*
X82947000Y-109975000D01*
G37*
G36*
X80534000Y-109973000D02*
G01*
X79232000Y-109973000D01*
X79232000Y-108971000D01*
X80534000Y-108971000D01*
X80534000Y-109973000D01*
X80534000Y-109973000D01*
G37*
G36*
X75717000Y-109666000D02*
G01*
X74715000Y-109666000D01*
X74715000Y-108764000D01*
X75717000Y-108764000D01*
X75717000Y-109666000D01*
X75717000Y-109666000D01*
G37*
G36*
X67779091Y-108444085D02*
G01*
X67813069Y-108454393D01*
X67844390Y-108471134D01*
X67871839Y-108493661D01*
X67894366Y-108521110D01*
X67911107Y-108552431D01*
X67921415Y-108586409D01*
X67925500Y-108627890D01*
X67925500Y-109304110D01*
X67921415Y-109345591D01*
X67911107Y-109379569D01*
X67894366Y-109410890D01*
X67871839Y-109438339D01*
X67844390Y-109460866D01*
X67813069Y-109477607D01*
X67779091Y-109487915D01*
X67737610Y-109492000D01*
X67136390Y-109492000D01*
X67094909Y-109487915D01*
X67060931Y-109477607D01*
X67029610Y-109460866D01*
X67002161Y-109438339D01*
X66979634Y-109410890D01*
X66962893Y-109379569D01*
X66952585Y-109345591D01*
X66948500Y-109304110D01*
X66948500Y-108627890D01*
X66952585Y-108586409D01*
X66962893Y-108552431D01*
X66979634Y-108521110D01*
X67002161Y-108493661D01*
X67029610Y-108471134D01*
X67060931Y-108454393D01*
X67094909Y-108444085D01*
X67136390Y-108440000D01*
X67737610Y-108440000D01*
X67779091Y-108444085D01*
X67779091Y-108444085D01*
G37*
G36*
X66204091Y-108444085D02*
G01*
X66238069Y-108454393D01*
X66269390Y-108471134D01*
X66296839Y-108493661D01*
X66319366Y-108521110D01*
X66336107Y-108552431D01*
X66346415Y-108586409D01*
X66350500Y-108627890D01*
X66350500Y-109304110D01*
X66346415Y-109345591D01*
X66336107Y-109379569D01*
X66319366Y-109410890D01*
X66296839Y-109438339D01*
X66269390Y-109460866D01*
X66238069Y-109477607D01*
X66204091Y-109487915D01*
X66162610Y-109492000D01*
X65561390Y-109492000D01*
X65519909Y-109487915D01*
X65485931Y-109477607D01*
X65454610Y-109460866D01*
X65427161Y-109438339D01*
X65404634Y-109410890D01*
X65387893Y-109379569D01*
X65377585Y-109345591D01*
X65373500Y-109304110D01*
X65373500Y-108627890D01*
X65377585Y-108586409D01*
X65387893Y-108552431D01*
X65404634Y-108521110D01*
X65427161Y-108493661D01*
X65454610Y-108471134D01*
X65485931Y-108454393D01*
X65519909Y-108444085D01*
X65561390Y-108440000D01*
X66162610Y-108440000D01*
X66204091Y-108444085D01*
X66204091Y-108444085D01*
G37*
G36*
X62957200Y-109285200D02*
G01*
X61655200Y-109285200D01*
X61655200Y-107783200D01*
X62957200Y-107783200D01*
X62957200Y-109285200D01*
X62957200Y-109285200D01*
G37*
G36*
X64657200Y-109285200D02*
G01*
X63355200Y-109285200D01*
X63355200Y-107783200D01*
X64657200Y-107783200D01*
X64657200Y-109285200D01*
X64657200Y-109285200D01*
G37*
G36*
X77717000Y-108716000D02*
G01*
X76715000Y-108716000D01*
X76715000Y-107814000D01*
X77717000Y-107814000D01*
X77717000Y-108716000D01*
X77717000Y-108716000D01*
G37*
G36*
X52521000Y-108705000D02*
G01*
X51619000Y-108705000D01*
X51619000Y-107703000D01*
X52521000Y-107703000D01*
X52521000Y-108705000D01*
X52521000Y-108705000D01*
G37*
G36*
X54421000Y-108705000D02*
G01*
X53519000Y-108705000D01*
X53519000Y-107703000D01*
X54421000Y-107703000D01*
X54421000Y-108705000D01*
X54421000Y-108705000D01*
G37*
G36*
X56005591Y-107465585D02*
G01*
X56039569Y-107475893D01*
X56070890Y-107492634D01*
X56098339Y-107515161D01*
X56120866Y-107542610D01*
X56137607Y-107573931D01*
X56147915Y-107607909D01*
X56152000Y-107649390D01*
X56152000Y-108250610D01*
X56147915Y-108292091D01*
X56137607Y-108326069D01*
X56120866Y-108357390D01*
X56098339Y-108384839D01*
X56070890Y-108407366D01*
X56039569Y-108424107D01*
X56005591Y-108434415D01*
X55964110Y-108438500D01*
X55287890Y-108438500D01*
X55246409Y-108434415D01*
X55212431Y-108424107D01*
X55181110Y-108407366D01*
X55153661Y-108384839D01*
X55131134Y-108357390D01*
X55114393Y-108326069D01*
X55104085Y-108292091D01*
X55100000Y-108250610D01*
X55100000Y-107649390D01*
X55104085Y-107607909D01*
X55114393Y-107573931D01*
X55131134Y-107542610D01*
X55153661Y-107515161D01*
X55181110Y-107492634D01*
X55212431Y-107475893D01*
X55246409Y-107465585D01*
X55287890Y-107461500D01*
X55964110Y-107461500D01*
X56005591Y-107465585D01*
X56005591Y-107465585D01*
G37*
G36*
X72754443Y-106547519D02*
G01*
X72820627Y-106554037D01*
X72990466Y-106605557D01*
X73146991Y-106689222D01*
X73166216Y-106705000D01*
X73284186Y-106801814D01*
X73337277Y-106866507D01*
X73396778Y-106939009D01*
X73396779Y-106939011D01*
X73475139Y-107085610D01*
X73480443Y-107095534D01*
X73531963Y-107265373D01*
X73549359Y-107442000D01*
X73531963Y-107618627D01*
X73495979Y-107737250D01*
X73480442Y-107788468D01*
X73466795Y-107814000D01*
X73396778Y-107944991D01*
X73370667Y-107976807D01*
X73284186Y-108082186D01*
X73182729Y-108165448D01*
X73146991Y-108194778D01*
X73146989Y-108194779D01*
X73042538Y-108250610D01*
X72990466Y-108278443D01*
X72820627Y-108329963D01*
X72754442Y-108336482D01*
X72688260Y-108343000D01*
X72599740Y-108343000D01*
X72533558Y-108336482D01*
X72467373Y-108329963D01*
X72297534Y-108278443D01*
X72245463Y-108250610D01*
X72141011Y-108194779D01*
X72141009Y-108194778D01*
X72105271Y-108165448D01*
X72003814Y-108082186D01*
X71917333Y-107976807D01*
X71891222Y-107944991D01*
X71821205Y-107814000D01*
X71807558Y-107788468D01*
X71792021Y-107737250D01*
X71756037Y-107618627D01*
X71738641Y-107442000D01*
X71756037Y-107265373D01*
X71807557Y-107095534D01*
X71812862Y-107085610D01*
X71891221Y-106939011D01*
X71891222Y-106939009D01*
X71950723Y-106866507D01*
X72003814Y-106801814D01*
X72121784Y-106705000D01*
X72141009Y-106689222D01*
X72297534Y-106605557D01*
X72467373Y-106554037D01*
X72533557Y-106547519D01*
X72599740Y-106541000D01*
X72688260Y-106541000D01*
X72754443Y-106547519D01*
X72754443Y-106547519D01*
G37*
G36*
X69340591Y-107008585D02*
G01*
X69374569Y-107018893D01*
X69405890Y-107035634D01*
X69433339Y-107058161D01*
X69455866Y-107085610D01*
X69472607Y-107116931D01*
X69482915Y-107150909D01*
X69487000Y-107192390D01*
X69487000Y-107793610D01*
X69482915Y-107835091D01*
X69472607Y-107869069D01*
X69455866Y-107900390D01*
X69433339Y-107927839D01*
X69405890Y-107950366D01*
X69374569Y-107967107D01*
X69340591Y-107977415D01*
X69299110Y-107981500D01*
X68622890Y-107981500D01*
X68581409Y-107977415D01*
X68547431Y-107967107D01*
X68516110Y-107950366D01*
X68488661Y-107927839D01*
X68466134Y-107900390D01*
X68449393Y-107869069D01*
X68439085Y-107835091D01*
X68435000Y-107793610D01*
X68435000Y-107192390D01*
X68439085Y-107150909D01*
X68449393Y-107116931D01*
X68466134Y-107085610D01*
X68488661Y-107058161D01*
X68516110Y-107035634D01*
X68547431Y-107018893D01*
X68581409Y-107008585D01*
X68622890Y-107004500D01*
X69299110Y-107004500D01*
X69340591Y-107008585D01*
X69340591Y-107008585D01*
G37*
G36*
X67816591Y-107008585D02*
G01*
X67850569Y-107018893D01*
X67881890Y-107035634D01*
X67909339Y-107058161D01*
X67931866Y-107085610D01*
X67948607Y-107116931D01*
X67958915Y-107150909D01*
X67963000Y-107192390D01*
X67963000Y-107793610D01*
X67958915Y-107835091D01*
X67948607Y-107869069D01*
X67931866Y-107900390D01*
X67909339Y-107927839D01*
X67881890Y-107950366D01*
X67850569Y-107967107D01*
X67816591Y-107977415D01*
X67775110Y-107981500D01*
X67098890Y-107981500D01*
X67057409Y-107977415D01*
X67023431Y-107967107D01*
X66992110Y-107950366D01*
X66964661Y-107927839D01*
X66942134Y-107900390D01*
X66925393Y-107869069D01*
X66915085Y-107835091D01*
X66911000Y-107793610D01*
X66911000Y-107192390D01*
X66915085Y-107150909D01*
X66925393Y-107116931D01*
X66942134Y-107085610D01*
X66964661Y-107058161D01*
X66992110Y-107035634D01*
X67023431Y-107018893D01*
X67057409Y-107008585D01*
X67098890Y-107004500D01*
X67775110Y-107004500D01*
X67816591Y-107008585D01*
X67816591Y-107008585D01*
G37*
G36*
X66292591Y-107008585D02*
G01*
X66326569Y-107018893D01*
X66357890Y-107035634D01*
X66385339Y-107058161D01*
X66407866Y-107085610D01*
X66424607Y-107116931D01*
X66434915Y-107150909D01*
X66439000Y-107192390D01*
X66439000Y-107793610D01*
X66434915Y-107835091D01*
X66424607Y-107869069D01*
X66407866Y-107900390D01*
X66385339Y-107927839D01*
X66357890Y-107950366D01*
X66326569Y-107967107D01*
X66292591Y-107977415D01*
X66251110Y-107981500D01*
X65574890Y-107981500D01*
X65533409Y-107977415D01*
X65499431Y-107967107D01*
X65468110Y-107950366D01*
X65440661Y-107927839D01*
X65418134Y-107900390D01*
X65401393Y-107869069D01*
X65391085Y-107835091D01*
X65387000Y-107793610D01*
X65387000Y-107192390D01*
X65391085Y-107150909D01*
X65401393Y-107116931D01*
X65418134Y-107085610D01*
X65440661Y-107058161D01*
X65468110Y-107035634D01*
X65499431Y-107018893D01*
X65533409Y-107008585D01*
X65574890Y-107004500D01*
X66251110Y-107004500D01*
X66292591Y-107008585D01*
X66292591Y-107008585D01*
G37*
G36*
X75717000Y-107766000D02*
G01*
X74715000Y-107766000D01*
X74715000Y-106864000D01*
X75717000Y-106864000D01*
X75717000Y-107766000D01*
X75717000Y-107766000D01*
G37*
G36*
X59251506Y-105549581D02*
G01*
X59363528Y-105595982D01*
X59442740Y-105628793D01*
X59553798Y-105703000D01*
X59614845Y-105743790D01*
X59761210Y-105890155D01*
X59794623Y-105940161D01*
X59876207Y-106062260D01*
X59904576Y-106130750D01*
X59955419Y-106253494D01*
X59995800Y-106456504D01*
X59995800Y-106663496D01*
X59955419Y-106866506D01*
X59925387Y-106939009D01*
X59876207Y-107057740D01*
X59813953Y-107150909D01*
X59786237Y-107192390D01*
X59761209Y-107229846D01*
X59614846Y-107376209D01*
X59442740Y-107491207D01*
X59363528Y-107524018D01*
X59251506Y-107570419D01*
X59048496Y-107610800D01*
X58841504Y-107610800D01*
X58638494Y-107570419D01*
X58526472Y-107524018D01*
X58447260Y-107491207D01*
X58275154Y-107376209D01*
X58128791Y-107229846D01*
X58103764Y-107192390D01*
X58076047Y-107150909D01*
X58013793Y-107057740D01*
X57964613Y-106939009D01*
X57934581Y-106866506D01*
X57894200Y-106663496D01*
X57894200Y-106456504D01*
X57934581Y-106253494D01*
X57985424Y-106130750D01*
X58013793Y-106062260D01*
X58095377Y-105940161D01*
X58128790Y-105890155D01*
X58275155Y-105743790D01*
X58336202Y-105703000D01*
X58447260Y-105628793D01*
X58526472Y-105595982D01*
X58638494Y-105549581D01*
X58841504Y-105509200D01*
X59048496Y-105509200D01*
X59251506Y-105549581D01*
X59251506Y-105549581D01*
G37*
G36*
X62957200Y-107085200D02*
G01*
X61655200Y-107085200D01*
X61655200Y-105583200D01*
X62957200Y-105583200D01*
X62957200Y-107085200D01*
X62957200Y-107085200D01*
G37*
G36*
X64657200Y-107085200D02*
G01*
X63355200Y-107085200D01*
X63355200Y-105583200D01*
X64657200Y-105583200D01*
X64657200Y-107085200D01*
X64657200Y-107085200D01*
G37*
G36*
X56005591Y-105890585D02*
G01*
X56039569Y-105900893D01*
X56070890Y-105917634D01*
X56098339Y-105940161D01*
X56120866Y-105967610D01*
X56137607Y-105998931D01*
X56147915Y-106032909D01*
X56152000Y-106074390D01*
X56152000Y-106675610D01*
X56147915Y-106717091D01*
X56137607Y-106751069D01*
X56120866Y-106782390D01*
X56098339Y-106809839D01*
X56070890Y-106832366D01*
X56039569Y-106849107D01*
X56005591Y-106859415D01*
X55964110Y-106863500D01*
X55287890Y-106863500D01*
X55246409Y-106859415D01*
X55212431Y-106849107D01*
X55181110Y-106832366D01*
X55153661Y-106809839D01*
X55131134Y-106782390D01*
X55114393Y-106751069D01*
X55104085Y-106717091D01*
X55100000Y-106675610D01*
X55100000Y-106074390D01*
X55104085Y-106032909D01*
X55114393Y-105998931D01*
X55131134Y-105967610D01*
X55153661Y-105940161D01*
X55181110Y-105917634D01*
X55212431Y-105900893D01*
X55246409Y-105890585D01*
X55287890Y-105886500D01*
X55964110Y-105886500D01*
X56005591Y-105890585D01*
X56005591Y-105890585D01*
G37*
G36*
X53471000Y-106705000D02*
G01*
X52569000Y-106705000D01*
X52569000Y-105703000D01*
X53471000Y-105703000D01*
X53471000Y-106705000D01*
X53471000Y-106705000D01*
G37*
G36*
X82947000Y-106675000D02*
G01*
X81645000Y-106675000D01*
X81645000Y-105673000D01*
X82947000Y-105673000D01*
X82947000Y-106675000D01*
X82947000Y-106675000D01*
G37*
G36*
X80534000Y-106673000D02*
G01*
X79232000Y-106673000D01*
X79232000Y-105671000D01*
X80534000Y-105671000D01*
X80534000Y-106673000D01*
X80534000Y-106673000D01*
G37*
G36*
X66292591Y-105433585D02*
G01*
X66326569Y-105443893D01*
X66357890Y-105460634D01*
X66385339Y-105483161D01*
X66407866Y-105510610D01*
X66424607Y-105541931D01*
X66434915Y-105575909D01*
X66439000Y-105617390D01*
X66439000Y-106218610D01*
X66434915Y-106260091D01*
X66424607Y-106294069D01*
X66407866Y-106325390D01*
X66385339Y-106352839D01*
X66357890Y-106375366D01*
X66326569Y-106392107D01*
X66292591Y-106402415D01*
X66251110Y-106406500D01*
X65574890Y-106406500D01*
X65533409Y-106402415D01*
X65499431Y-106392107D01*
X65468110Y-106375366D01*
X65440661Y-106352839D01*
X65418134Y-106325390D01*
X65401393Y-106294069D01*
X65391085Y-106260091D01*
X65387000Y-106218610D01*
X65387000Y-105617390D01*
X65391085Y-105575909D01*
X65401393Y-105541931D01*
X65418134Y-105510610D01*
X65440661Y-105483161D01*
X65468110Y-105460634D01*
X65499431Y-105443893D01*
X65533409Y-105433585D01*
X65574890Y-105429500D01*
X66251110Y-105429500D01*
X66292591Y-105433585D01*
X66292591Y-105433585D01*
G37*
G36*
X67816591Y-105433585D02*
G01*
X67850569Y-105443893D01*
X67881890Y-105460634D01*
X67909339Y-105483161D01*
X67931866Y-105510610D01*
X67948607Y-105541931D01*
X67958915Y-105575909D01*
X67963000Y-105617390D01*
X67963000Y-106218610D01*
X67958915Y-106260091D01*
X67948607Y-106294069D01*
X67931866Y-106325390D01*
X67909339Y-106352839D01*
X67881890Y-106375366D01*
X67850569Y-106392107D01*
X67816591Y-106402415D01*
X67775110Y-106406500D01*
X67098890Y-106406500D01*
X67057409Y-106402415D01*
X67023431Y-106392107D01*
X66992110Y-106375366D01*
X66964661Y-106352839D01*
X66942134Y-106325390D01*
X66925393Y-106294069D01*
X66915085Y-106260091D01*
X66911000Y-106218610D01*
X66911000Y-105617390D01*
X66915085Y-105575909D01*
X66925393Y-105541931D01*
X66942134Y-105510610D01*
X66964661Y-105483161D01*
X66992110Y-105460634D01*
X67023431Y-105443893D01*
X67057409Y-105433585D01*
X67098890Y-105429500D01*
X67775110Y-105429500D01*
X67816591Y-105433585D01*
X67816591Y-105433585D01*
G37*
G36*
X69340591Y-105433585D02*
G01*
X69374569Y-105443893D01*
X69405890Y-105460634D01*
X69433339Y-105483161D01*
X69455866Y-105510610D01*
X69472607Y-105541931D01*
X69482915Y-105575909D01*
X69487000Y-105617390D01*
X69487000Y-106218610D01*
X69482915Y-106260091D01*
X69472607Y-106294069D01*
X69455866Y-106325390D01*
X69433339Y-106352839D01*
X69405890Y-106375366D01*
X69374569Y-106392107D01*
X69340591Y-106402415D01*
X69299110Y-106406500D01*
X68622890Y-106406500D01*
X68581409Y-106402415D01*
X68547431Y-106392107D01*
X68516110Y-106375366D01*
X68488661Y-106352839D01*
X68466134Y-106325390D01*
X68449393Y-106294069D01*
X68439085Y-106260091D01*
X68435000Y-106218610D01*
X68435000Y-105617390D01*
X68439085Y-105575909D01*
X68449393Y-105541931D01*
X68466134Y-105510610D01*
X68488661Y-105483161D01*
X68516110Y-105460634D01*
X68547431Y-105443893D01*
X68581409Y-105433585D01*
X68622890Y-105429500D01*
X69299110Y-105429500D01*
X69340591Y-105433585D01*
X69340591Y-105433585D01*
G37*
G36*
X76676400Y-106241200D02*
G01*
X75774400Y-106241200D01*
X75774400Y-105239200D01*
X76676400Y-105239200D01*
X76676400Y-106241200D01*
X76676400Y-106241200D01*
G37*
G36*
X72754443Y-104007519D02*
G01*
X72820627Y-104014037D01*
X72990466Y-104065557D01*
X73146991Y-104149222D01*
X73163979Y-104163164D01*
X73284186Y-104261814D01*
X73362227Y-104356909D01*
X73396778Y-104399009D01*
X73480443Y-104555534D01*
X73531963Y-104725373D01*
X73549359Y-104902000D01*
X73531963Y-105078627D01*
X73480443Y-105248466D01*
X73396778Y-105404991D01*
X73376664Y-105429500D01*
X73284186Y-105542186D01*
X73192548Y-105617390D01*
X73146991Y-105654778D01*
X72990466Y-105738443D01*
X72820627Y-105789963D01*
X72754442Y-105796482D01*
X72688260Y-105803000D01*
X72599740Y-105803000D01*
X72533558Y-105796482D01*
X72467373Y-105789963D01*
X72297534Y-105738443D01*
X72141009Y-105654778D01*
X72095452Y-105617390D01*
X72003814Y-105542186D01*
X71911336Y-105429500D01*
X71891222Y-105404991D01*
X71807557Y-105248466D01*
X71756037Y-105078627D01*
X71738641Y-104902000D01*
X71756037Y-104725373D01*
X71807557Y-104555534D01*
X71891222Y-104399009D01*
X71925773Y-104356909D01*
X72003814Y-104261814D01*
X72124021Y-104163164D01*
X72141009Y-104149222D01*
X72297534Y-104065557D01*
X72467373Y-104014037D01*
X72533558Y-104007518D01*
X72599740Y-104001000D01*
X72688260Y-104001000D01*
X72754443Y-104007519D01*
X72754443Y-104007519D01*
G37*
G36*
X79119591Y-104214585D02*
G01*
X79153569Y-104224893D01*
X79184890Y-104241634D01*
X79212339Y-104264161D01*
X79234866Y-104291610D01*
X79251607Y-104322931D01*
X79261915Y-104356909D01*
X79266000Y-104398390D01*
X79266000Y-104999610D01*
X79261915Y-105041091D01*
X79251607Y-105075069D01*
X79234866Y-105106390D01*
X79212339Y-105133839D01*
X79184890Y-105156366D01*
X79153569Y-105173107D01*
X79119591Y-105183415D01*
X79078110Y-105187500D01*
X78401890Y-105187500D01*
X78360409Y-105183415D01*
X78326431Y-105173107D01*
X78295110Y-105156366D01*
X78267661Y-105133839D01*
X78245134Y-105106390D01*
X78228393Y-105075069D01*
X78218085Y-105041091D01*
X78214000Y-104999610D01*
X78214000Y-104398390D01*
X78218085Y-104356909D01*
X78228393Y-104322931D01*
X78245134Y-104291610D01*
X78267661Y-104264161D01*
X78295110Y-104241634D01*
X78326431Y-104224893D01*
X78360409Y-104214585D01*
X78401890Y-104210500D01*
X79078110Y-104210500D01*
X79119591Y-104214585D01*
X79119591Y-104214585D01*
G37*
G36*
X53123091Y-104126085D02*
G01*
X53157069Y-104136393D01*
X53188390Y-104153134D01*
X53215839Y-104175661D01*
X53238366Y-104203110D01*
X53255107Y-104234431D01*
X53265415Y-104268409D01*
X53269500Y-104309890D01*
X53269500Y-104986110D01*
X53265415Y-105027591D01*
X53255107Y-105061569D01*
X53238366Y-105092890D01*
X53215839Y-105120339D01*
X53188390Y-105142866D01*
X53157069Y-105159607D01*
X53123091Y-105169915D01*
X53081610Y-105174000D01*
X52480390Y-105174000D01*
X52438909Y-105169915D01*
X52404931Y-105159607D01*
X52373610Y-105142866D01*
X52346161Y-105120339D01*
X52323634Y-105092890D01*
X52306893Y-105061569D01*
X52296585Y-105027591D01*
X52292500Y-104986110D01*
X52292500Y-104309890D01*
X52296585Y-104268409D01*
X52306893Y-104234431D01*
X52323634Y-104203110D01*
X52346161Y-104175661D01*
X52373610Y-104153134D01*
X52404931Y-104136393D01*
X52438909Y-104126085D01*
X52480390Y-104122000D01*
X53081610Y-104122000D01*
X53123091Y-104126085D01*
X53123091Y-104126085D01*
G37*
G36*
X54698091Y-104126085D02*
G01*
X54732069Y-104136393D01*
X54763390Y-104153134D01*
X54790839Y-104175661D01*
X54813366Y-104203110D01*
X54830107Y-104234431D01*
X54840415Y-104268409D01*
X54844500Y-104309890D01*
X54844500Y-104986110D01*
X54840415Y-105027591D01*
X54830107Y-105061569D01*
X54813366Y-105092890D01*
X54790839Y-105120339D01*
X54763390Y-105142866D01*
X54732069Y-105159607D01*
X54698091Y-105169915D01*
X54656610Y-105174000D01*
X54055390Y-105174000D01*
X54013909Y-105169915D01*
X53979931Y-105159607D01*
X53948610Y-105142866D01*
X53921161Y-105120339D01*
X53898634Y-105092890D01*
X53881893Y-105061569D01*
X53871585Y-105027591D01*
X53867500Y-104986110D01*
X53867500Y-104309890D01*
X53871585Y-104268409D01*
X53881893Y-104234431D01*
X53898634Y-104203110D01*
X53921161Y-104175661D01*
X53948610Y-104153134D01*
X53979931Y-104136393D01*
X54013909Y-104126085D01*
X54055390Y-104122000D01*
X54656610Y-104122000D01*
X54698091Y-104126085D01*
X54698091Y-104126085D01*
G37*
G36*
X82926000Y-105143000D02*
G01*
X82174000Y-105143000D01*
X82174000Y-103981000D01*
X82926000Y-103981000D01*
X82926000Y-105143000D01*
X82926000Y-105143000D01*
G37*
G36*
X81026000Y-105143000D02*
G01*
X80274000Y-105143000D01*
X80274000Y-103981000D01*
X81026000Y-103981000D01*
X81026000Y-105143000D01*
X81026000Y-105143000D01*
G37*
G36*
X64401091Y-103999085D02*
G01*
X64435069Y-104009393D01*
X64466390Y-104026134D01*
X64493839Y-104048661D01*
X64516366Y-104076110D01*
X64533107Y-104107431D01*
X64543415Y-104141409D01*
X64547500Y-104182890D01*
X64547500Y-104859110D01*
X64543415Y-104900591D01*
X64533107Y-104934569D01*
X64516366Y-104965890D01*
X64493839Y-104993339D01*
X64466390Y-105015866D01*
X64435069Y-105032607D01*
X64401091Y-105042915D01*
X64359610Y-105047000D01*
X63758390Y-105047000D01*
X63716909Y-105042915D01*
X63682931Y-105032607D01*
X63651610Y-105015866D01*
X63624161Y-104993339D01*
X63601634Y-104965890D01*
X63584893Y-104934569D01*
X63574585Y-104900591D01*
X63570500Y-104859110D01*
X63570500Y-104182890D01*
X63574585Y-104141409D01*
X63584893Y-104107431D01*
X63601634Y-104076110D01*
X63624161Y-104048661D01*
X63651610Y-104026134D01*
X63682931Y-104009393D01*
X63716909Y-103999085D01*
X63758390Y-103995000D01*
X64359610Y-103995000D01*
X64401091Y-103999085D01*
X64401091Y-103999085D01*
G37*
G36*
X62826091Y-103999085D02*
G01*
X62860069Y-104009393D01*
X62891390Y-104026134D01*
X62918839Y-104048661D01*
X62941366Y-104076110D01*
X62958107Y-104107431D01*
X62968415Y-104141409D01*
X62972500Y-104182890D01*
X62972500Y-104859110D01*
X62968415Y-104900591D01*
X62958107Y-104934569D01*
X62941366Y-104965890D01*
X62918839Y-104993339D01*
X62891390Y-105015866D01*
X62860069Y-105032607D01*
X62826091Y-105042915D01*
X62784610Y-105047000D01*
X62183390Y-105047000D01*
X62141909Y-105042915D01*
X62107931Y-105032607D01*
X62076610Y-105015866D01*
X62049161Y-104993339D01*
X62026634Y-104965890D01*
X62009893Y-104934569D01*
X61999585Y-104900591D01*
X61995500Y-104859110D01*
X61995500Y-104182890D01*
X61999585Y-104141409D01*
X62009893Y-104107431D01*
X62026634Y-104076110D01*
X62049161Y-104048661D01*
X62076610Y-104026134D01*
X62107931Y-104009393D01*
X62141909Y-103999085D01*
X62183390Y-103995000D01*
X62784610Y-103995000D01*
X62826091Y-103999085D01*
X62826091Y-103999085D01*
G37*
G36*
X68224000Y-104753600D02*
G01*
X67222000Y-104753600D01*
X67222000Y-103851600D01*
X68224000Y-103851600D01*
X68224000Y-104753600D01*
X68224000Y-104753600D01*
G37*
G36*
X75726400Y-104241200D02*
G01*
X74824400Y-104241200D01*
X74824400Y-103239200D01*
X75726400Y-103239200D01*
X75726400Y-104241200D01*
X75726400Y-104241200D01*
G37*
G36*
X77626400Y-104241200D02*
G01*
X76724400Y-104241200D01*
X76724400Y-103239200D01*
X77626400Y-103239200D01*
X77626400Y-104241200D01*
X77626400Y-104241200D01*
G37*
G36*
X70224000Y-103803600D02*
G01*
X69222000Y-103803600D01*
X69222000Y-102901600D01*
X70224000Y-102901600D01*
X70224000Y-103803600D01*
X70224000Y-103803600D01*
G37*
G36*
X54698091Y-102602085D02*
G01*
X54732069Y-102612393D01*
X54763390Y-102629134D01*
X54790839Y-102651661D01*
X54813366Y-102679110D01*
X54830107Y-102710431D01*
X54840415Y-102744409D01*
X54844500Y-102785890D01*
X54844500Y-103462110D01*
X54840415Y-103503591D01*
X54830107Y-103537569D01*
X54813366Y-103568890D01*
X54790839Y-103596339D01*
X54763390Y-103618866D01*
X54732069Y-103635607D01*
X54698091Y-103645915D01*
X54656610Y-103650000D01*
X54055390Y-103650000D01*
X54013909Y-103645915D01*
X53979931Y-103635607D01*
X53948610Y-103618866D01*
X53921161Y-103596339D01*
X53898634Y-103568890D01*
X53881893Y-103537569D01*
X53871585Y-103503591D01*
X53867500Y-103462110D01*
X53867500Y-102785890D01*
X53871585Y-102744409D01*
X53881893Y-102710431D01*
X53898634Y-102679110D01*
X53921161Y-102651661D01*
X53948610Y-102629134D01*
X53979931Y-102612393D01*
X54013909Y-102602085D01*
X54055390Y-102598000D01*
X54656610Y-102598000D01*
X54698091Y-102602085D01*
X54698091Y-102602085D01*
G37*
G36*
X53123091Y-102602085D02*
G01*
X53157069Y-102612393D01*
X53188390Y-102629134D01*
X53215839Y-102651661D01*
X53238366Y-102679110D01*
X53255107Y-102710431D01*
X53265415Y-102744409D01*
X53269500Y-102785890D01*
X53269500Y-103462110D01*
X53265415Y-103503591D01*
X53255107Y-103537569D01*
X53238366Y-103568890D01*
X53215839Y-103596339D01*
X53188390Y-103618866D01*
X53157069Y-103635607D01*
X53123091Y-103645915D01*
X53081610Y-103650000D01*
X52480390Y-103650000D01*
X52438909Y-103645915D01*
X52404931Y-103635607D01*
X52373610Y-103618866D01*
X52346161Y-103596339D01*
X52323634Y-103568890D01*
X52306893Y-103537569D01*
X52296585Y-103503591D01*
X52292500Y-103462110D01*
X52292500Y-102785890D01*
X52296585Y-102744409D01*
X52306893Y-102710431D01*
X52323634Y-102679110D01*
X52346161Y-102651661D01*
X52373610Y-102629134D01*
X52404931Y-102612393D01*
X52438909Y-102602085D01*
X52480390Y-102598000D01*
X53081610Y-102598000D01*
X53123091Y-102602085D01*
X53123091Y-102602085D01*
G37*
G36*
X79119591Y-102639585D02*
G01*
X79153569Y-102649893D01*
X79184890Y-102666634D01*
X79212339Y-102689161D01*
X79234866Y-102716610D01*
X79251607Y-102747931D01*
X79261915Y-102781909D01*
X79266000Y-102823390D01*
X79266000Y-103424610D01*
X79261915Y-103466091D01*
X79251607Y-103500069D01*
X79234866Y-103531390D01*
X79212339Y-103558839D01*
X79184890Y-103581366D01*
X79153569Y-103598107D01*
X79119591Y-103608415D01*
X79078110Y-103612500D01*
X78401890Y-103612500D01*
X78360409Y-103608415D01*
X78326431Y-103598107D01*
X78295110Y-103581366D01*
X78267661Y-103558839D01*
X78245134Y-103531390D01*
X78228393Y-103500069D01*
X78218085Y-103466091D01*
X78214000Y-103424610D01*
X78214000Y-102823390D01*
X78218085Y-102781909D01*
X78228393Y-102747931D01*
X78245134Y-102716610D01*
X78267661Y-102689161D01*
X78295110Y-102666634D01*
X78326431Y-102649893D01*
X78360409Y-102639585D01*
X78401890Y-102635500D01*
X79078110Y-102635500D01*
X79119591Y-102639585D01*
X79119591Y-102639585D01*
G37*
G36*
X72754442Y-101467518D02*
G01*
X72820627Y-101474037D01*
X72990466Y-101525557D01*
X73146991Y-101609222D01*
X73175964Y-101633000D01*
X73284186Y-101721814D01*
X73365494Y-101820890D01*
X73396778Y-101859009D01*
X73480443Y-102015534D01*
X73531963Y-102185373D01*
X73549359Y-102362000D01*
X73531963Y-102538627D01*
X73480443Y-102708466D01*
X73396778Y-102864991D01*
X73367448Y-102900729D01*
X73284186Y-103002186D01*
X73182729Y-103085448D01*
X73146991Y-103114778D01*
X72990466Y-103198443D01*
X72820627Y-103249963D01*
X72754442Y-103256482D01*
X72688260Y-103263000D01*
X72599740Y-103263000D01*
X72533558Y-103256482D01*
X72467373Y-103249963D01*
X72297534Y-103198443D01*
X72141009Y-103114778D01*
X72105271Y-103085448D01*
X72003814Y-103002186D01*
X71920552Y-102900729D01*
X71891222Y-102864991D01*
X71807557Y-102708466D01*
X71756037Y-102538627D01*
X71738641Y-102362000D01*
X71756037Y-102185373D01*
X71807557Y-102015534D01*
X71891222Y-101859009D01*
X71922506Y-101820890D01*
X72003814Y-101721814D01*
X72112036Y-101633000D01*
X72141009Y-101609222D01*
X72297534Y-101525557D01*
X72467373Y-101474037D01*
X72533558Y-101467518D01*
X72599740Y-101461000D01*
X72688260Y-101461000D01*
X72754442Y-101467518D01*
X72754442Y-101467518D01*
G37*
G36*
X82926000Y-102943000D02*
G01*
X80274000Y-102943000D01*
X80274000Y-101781000D01*
X82926000Y-101781000D01*
X82926000Y-102943000D01*
X82926000Y-102943000D01*
G37*
G36*
X68224000Y-102853600D02*
G01*
X67222000Y-102853600D01*
X67222000Y-101951600D01*
X68224000Y-101951600D01*
X68224000Y-102853600D01*
X68224000Y-102853600D01*
G37*
G36*
X75856091Y-101637085D02*
G01*
X75890069Y-101647393D01*
X75921390Y-101664134D01*
X75948839Y-101686661D01*
X75971366Y-101714110D01*
X75988107Y-101745431D01*
X75998415Y-101779409D01*
X76002500Y-101820890D01*
X76002500Y-102497110D01*
X75998415Y-102538591D01*
X75988107Y-102572569D01*
X75971366Y-102603890D01*
X75948839Y-102631339D01*
X75921390Y-102653866D01*
X75890069Y-102670607D01*
X75856091Y-102680915D01*
X75814610Y-102685000D01*
X75213390Y-102685000D01*
X75171909Y-102680915D01*
X75137931Y-102670607D01*
X75106610Y-102653866D01*
X75079161Y-102631339D01*
X75056634Y-102603890D01*
X75039893Y-102572569D01*
X75029585Y-102538591D01*
X75025500Y-102497110D01*
X75025500Y-101820890D01*
X75029585Y-101779409D01*
X75039893Y-101745431D01*
X75056634Y-101714110D01*
X75079161Y-101686661D01*
X75106610Y-101664134D01*
X75137931Y-101647393D01*
X75171909Y-101637085D01*
X75213390Y-101633000D01*
X75814610Y-101633000D01*
X75856091Y-101637085D01*
X75856091Y-101637085D01*
G37*
G36*
X77431091Y-101637085D02*
G01*
X77465069Y-101647393D01*
X77496390Y-101664134D01*
X77523839Y-101686661D01*
X77546366Y-101714110D01*
X77563107Y-101745431D01*
X77573415Y-101779409D01*
X77577500Y-101820890D01*
X77577500Y-102497110D01*
X77573415Y-102538591D01*
X77563107Y-102572569D01*
X77546366Y-102603890D01*
X77523839Y-102631339D01*
X77496390Y-102653866D01*
X77465069Y-102670607D01*
X77431091Y-102680915D01*
X77389610Y-102685000D01*
X76788390Y-102685000D01*
X76746909Y-102680915D01*
X76712931Y-102670607D01*
X76681610Y-102653866D01*
X76654161Y-102631339D01*
X76631634Y-102603890D01*
X76614893Y-102572569D01*
X76604585Y-102538591D01*
X76600500Y-102497110D01*
X76600500Y-101820890D01*
X76604585Y-101779409D01*
X76614893Y-101745431D01*
X76631634Y-101714110D01*
X76654161Y-101686661D01*
X76681610Y-101664134D01*
X76712931Y-101647393D01*
X76746909Y-101637085D01*
X76788390Y-101633000D01*
X77389610Y-101633000D01*
X77431091Y-101637085D01*
X77431091Y-101637085D01*
G37*
G36*
X56286000Y-101797000D02*
G01*
X55284000Y-101797000D01*
X55284000Y-100895000D01*
X56286000Y-100895000D01*
X56286000Y-101797000D01*
X56286000Y-101797000D01*
G37*
G36*
X53047091Y-100316085D02*
G01*
X53081069Y-100326393D01*
X53112390Y-100343134D01*
X53139839Y-100365661D01*
X53162366Y-100393110D01*
X53179107Y-100424431D01*
X53189415Y-100458409D01*
X53193500Y-100499890D01*
X53193500Y-101176110D01*
X53189415Y-101217591D01*
X53179107Y-101251569D01*
X53162366Y-101282890D01*
X53139839Y-101310339D01*
X53112390Y-101332866D01*
X53081069Y-101349607D01*
X53047091Y-101359915D01*
X53005610Y-101364000D01*
X52404390Y-101364000D01*
X52362909Y-101359915D01*
X52328931Y-101349607D01*
X52297610Y-101332866D01*
X52270161Y-101310339D01*
X52247634Y-101282890D01*
X52230893Y-101251569D01*
X52220585Y-101217591D01*
X52216500Y-101176110D01*
X52216500Y-100499890D01*
X52220585Y-100458409D01*
X52230893Y-100424431D01*
X52247634Y-100393110D01*
X52270161Y-100365661D01*
X52297610Y-100343134D01*
X52328931Y-100326393D01*
X52362909Y-100316085D01*
X52404390Y-100312000D01*
X53005610Y-100312000D01*
X53047091Y-100316085D01*
X53047091Y-100316085D01*
G37*
G36*
X54622091Y-100316085D02*
G01*
X54656069Y-100326393D01*
X54687390Y-100343134D01*
X54714839Y-100365661D01*
X54737366Y-100393110D01*
X54754107Y-100424431D01*
X54764415Y-100458409D01*
X54768500Y-100499890D01*
X54768500Y-101176110D01*
X54764415Y-101217591D01*
X54754107Y-101251569D01*
X54737366Y-101282890D01*
X54714839Y-101310339D01*
X54687390Y-101332866D01*
X54656069Y-101349607D01*
X54622091Y-101359915D01*
X54580610Y-101364000D01*
X53979390Y-101364000D01*
X53937909Y-101359915D01*
X53903931Y-101349607D01*
X53872610Y-101332866D01*
X53845161Y-101310339D01*
X53822634Y-101282890D01*
X53805893Y-101251569D01*
X53795585Y-101217591D01*
X53791500Y-101176110D01*
X53791500Y-100499890D01*
X53795585Y-100458409D01*
X53805893Y-100424431D01*
X53822634Y-100393110D01*
X53845161Y-100365661D01*
X53872610Y-100343134D01*
X53903931Y-100326393D01*
X53937909Y-100316085D01*
X53979390Y-100312000D01*
X54580610Y-100312000D01*
X54622091Y-100316085D01*
X54622091Y-100316085D01*
G37*
G36*
X67308591Y-100353585D02*
G01*
X67342569Y-100363893D01*
X67373890Y-100380634D01*
X67401339Y-100403161D01*
X67423866Y-100430610D01*
X67440607Y-100461931D01*
X67450915Y-100495909D01*
X67455000Y-100537390D01*
X67455000Y-101138610D01*
X67450915Y-101180091D01*
X67440607Y-101214069D01*
X67423866Y-101245390D01*
X67401339Y-101272839D01*
X67373890Y-101295366D01*
X67342569Y-101312107D01*
X67308591Y-101322415D01*
X67267110Y-101326500D01*
X66590890Y-101326500D01*
X66549409Y-101322415D01*
X66515431Y-101312107D01*
X66484110Y-101295366D01*
X66456661Y-101272839D01*
X66434134Y-101245390D01*
X66417393Y-101214069D01*
X66407085Y-101180091D01*
X66403000Y-101138610D01*
X66403000Y-100537390D01*
X66407085Y-100495909D01*
X66417393Y-100461931D01*
X66434134Y-100430610D01*
X66456661Y-100403161D01*
X66484110Y-100380634D01*
X66515431Y-100363893D01*
X66549409Y-100353585D01*
X66590890Y-100349500D01*
X67267110Y-100349500D01*
X67308591Y-100353585D01*
X67308591Y-100353585D01*
G37*
G36*
X64260591Y-100353585D02*
G01*
X64294569Y-100363893D01*
X64325890Y-100380634D01*
X64353339Y-100403161D01*
X64375866Y-100430610D01*
X64392607Y-100461931D01*
X64402915Y-100495909D01*
X64407000Y-100537390D01*
X64407000Y-101138610D01*
X64402915Y-101180091D01*
X64392607Y-101214069D01*
X64375866Y-101245390D01*
X64353339Y-101272839D01*
X64325890Y-101295366D01*
X64294569Y-101312107D01*
X64260591Y-101322415D01*
X64219110Y-101326500D01*
X63542890Y-101326500D01*
X63501409Y-101322415D01*
X63467431Y-101312107D01*
X63436110Y-101295366D01*
X63408661Y-101272839D01*
X63386134Y-101245390D01*
X63369393Y-101214069D01*
X63359085Y-101180091D01*
X63355000Y-101138610D01*
X63355000Y-100537390D01*
X63359085Y-100495909D01*
X63369393Y-100461931D01*
X63386134Y-100430610D01*
X63408661Y-100403161D01*
X63436110Y-100380634D01*
X63467431Y-100363893D01*
X63501409Y-100353585D01*
X63542890Y-100349500D01*
X64219110Y-100349500D01*
X64260591Y-100353585D01*
X64260591Y-100353585D01*
G37*
G36*
X65784591Y-100353585D02*
G01*
X65818569Y-100363893D01*
X65849890Y-100380634D01*
X65877339Y-100403161D01*
X65899866Y-100430610D01*
X65916607Y-100461931D01*
X65926915Y-100495909D01*
X65931000Y-100537390D01*
X65931000Y-101138610D01*
X65926915Y-101180091D01*
X65916607Y-101214069D01*
X65899866Y-101245390D01*
X65877339Y-101272839D01*
X65849890Y-101295366D01*
X65818569Y-101312107D01*
X65784591Y-101322415D01*
X65743110Y-101326500D01*
X65066890Y-101326500D01*
X65025409Y-101322415D01*
X64991431Y-101312107D01*
X64960110Y-101295366D01*
X64932661Y-101272839D01*
X64910134Y-101245390D01*
X64893393Y-101214069D01*
X64883085Y-101180091D01*
X64879000Y-101138610D01*
X64879000Y-100537390D01*
X64883085Y-100495909D01*
X64893393Y-100461931D01*
X64910134Y-100430610D01*
X64932661Y-100403161D01*
X64960110Y-100380634D01*
X64991431Y-100363893D01*
X65025409Y-100353585D01*
X65066890Y-100349500D01*
X65743110Y-100349500D01*
X65784591Y-100353585D01*
X65784591Y-100353585D01*
G37*
G36*
X62736591Y-100353585D02*
G01*
X62770569Y-100363893D01*
X62801890Y-100380634D01*
X62829339Y-100403161D01*
X62851866Y-100430610D01*
X62868607Y-100461931D01*
X62878915Y-100495909D01*
X62883000Y-100537390D01*
X62883000Y-101138610D01*
X62878915Y-101180091D01*
X62868607Y-101214069D01*
X62851866Y-101245390D01*
X62829339Y-101272839D01*
X62801890Y-101295366D01*
X62770569Y-101312107D01*
X62736591Y-101322415D01*
X62695110Y-101326500D01*
X62018890Y-101326500D01*
X61977409Y-101322415D01*
X61943431Y-101312107D01*
X61912110Y-101295366D01*
X61884661Y-101272839D01*
X61862134Y-101245390D01*
X61845393Y-101214069D01*
X61835085Y-101180091D01*
X61831000Y-101138610D01*
X61831000Y-100537390D01*
X61835085Y-100495909D01*
X61845393Y-100461931D01*
X61862134Y-100430610D01*
X61884661Y-100403161D01*
X61912110Y-100380634D01*
X61943431Y-100363893D01*
X61977409Y-100353585D01*
X62018890Y-100349500D01*
X62695110Y-100349500D01*
X62736591Y-100353585D01*
X62736591Y-100353585D01*
G37*
G36*
X59688591Y-100353585D02*
G01*
X59722569Y-100363893D01*
X59753890Y-100380634D01*
X59781339Y-100403161D01*
X59803866Y-100430610D01*
X59820607Y-100461931D01*
X59830915Y-100495909D01*
X59835000Y-100537390D01*
X59835000Y-101138610D01*
X59830915Y-101180091D01*
X59820607Y-101214069D01*
X59803866Y-101245390D01*
X59781339Y-101272839D01*
X59753890Y-101295366D01*
X59722569Y-101312107D01*
X59688591Y-101322415D01*
X59647110Y-101326500D01*
X58970890Y-101326500D01*
X58929409Y-101322415D01*
X58895431Y-101312107D01*
X58864110Y-101295366D01*
X58836661Y-101272839D01*
X58814134Y-101245390D01*
X58797393Y-101214069D01*
X58787085Y-101180091D01*
X58783000Y-101138610D01*
X58783000Y-100537390D01*
X58787085Y-100495909D01*
X58797393Y-100461931D01*
X58814134Y-100430610D01*
X58836661Y-100403161D01*
X58864110Y-100380634D01*
X58895431Y-100363893D01*
X58929409Y-100353585D01*
X58970890Y-100349500D01*
X59647110Y-100349500D01*
X59688591Y-100353585D01*
X59688591Y-100353585D01*
G37*
G36*
X61212591Y-100353585D02*
G01*
X61246569Y-100363893D01*
X61277890Y-100380634D01*
X61305339Y-100403161D01*
X61327866Y-100430610D01*
X61344607Y-100461931D01*
X61354915Y-100495909D01*
X61359000Y-100537390D01*
X61359000Y-101138610D01*
X61354915Y-101180091D01*
X61344607Y-101214069D01*
X61327866Y-101245390D01*
X61305339Y-101272839D01*
X61277890Y-101295366D01*
X61246569Y-101312107D01*
X61212591Y-101322415D01*
X61171110Y-101326500D01*
X60494890Y-101326500D01*
X60453409Y-101322415D01*
X60419431Y-101312107D01*
X60388110Y-101295366D01*
X60360661Y-101272839D01*
X60338134Y-101245390D01*
X60321393Y-101214069D01*
X60311085Y-101180091D01*
X60307000Y-101138610D01*
X60307000Y-100537390D01*
X60311085Y-100495909D01*
X60321393Y-100461931D01*
X60338134Y-100430610D01*
X60360661Y-100403161D01*
X60388110Y-100380634D01*
X60419431Y-100363893D01*
X60453409Y-100353585D01*
X60494890Y-100349500D01*
X61171110Y-100349500D01*
X61212591Y-100353585D01*
X61212591Y-100353585D01*
G37*
G36*
X75919191Y-100150485D02*
G01*
X75953169Y-100160793D01*
X75984490Y-100177534D01*
X76011939Y-100200061D01*
X76034466Y-100227510D01*
X76051207Y-100258831D01*
X76061515Y-100292809D01*
X76065600Y-100334290D01*
X76065600Y-100935510D01*
X76061515Y-100976991D01*
X76051207Y-101010969D01*
X76034466Y-101042290D01*
X76011939Y-101069739D01*
X75984490Y-101092266D01*
X75953169Y-101109007D01*
X75919191Y-101119315D01*
X75877710Y-101123400D01*
X75201490Y-101123400D01*
X75160009Y-101119315D01*
X75126031Y-101109007D01*
X75094710Y-101092266D01*
X75067261Y-101069739D01*
X75044734Y-101042290D01*
X75027993Y-101010969D01*
X75017685Y-100976991D01*
X75013600Y-100935510D01*
X75013600Y-100334290D01*
X75017685Y-100292809D01*
X75027993Y-100258831D01*
X75044734Y-100227510D01*
X75067261Y-100200061D01*
X75094710Y-100177534D01*
X75126031Y-100160793D01*
X75160009Y-100150485D01*
X75201490Y-100146400D01*
X75877710Y-100146400D01*
X75919191Y-100150485D01*
X75919191Y-100150485D01*
G37*
G36*
X58286000Y-100847000D02*
G01*
X57284000Y-100847000D01*
X57284000Y-99945000D01*
X58286000Y-99945000D01*
X58286000Y-100847000D01*
X58286000Y-100847000D01*
G37*
G36*
X73545000Y-100723000D02*
G01*
X71743000Y-100723000D01*
X71743000Y-98921000D01*
X73545000Y-98921000D01*
X73545000Y-100723000D01*
X73545000Y-100723000D01*
G37*
G36*
X79104442Y-98673518D02*
G01*
X79170627Y-98680037D01*
X79340466Y-98731557D01*
X79496991Y-98815222D01*
X79512757Y-98828161D01*
X79634186Y-98927814D01*
X79689323Y-98995000D01*
X79746778Y-99065009D01*
X79830443Y-99221534D01*
X79881963Y-99391373D01*
X79899359Y-99568000D01*
X79881963Y-99744627D01*
X79830443Y-99914466D01*
X79746778Y-100070991D01*
X79717448Y-100106729D01*
X79634186Y-100208186D01*
X79532729Y-100291448D01*
X79496991Y-100320778D01*
X79435614Y-100353585D01*
X79342865Y-100403161D01*
X79340466Y-100404443D01*
X79170627Y-100455963D01*
X79110032Y-100461931D01*
X79038260Y-100469000D01*
X78949740Y-100469000D01*
X78877968Y-100461931D01*
X78817373Y-100455963D01*
X78647534Y-100404443D01*
X78645136Y-100403161D01*
X78552386Y-100353585D01*
X78491009Y-100320778D01*
X78455271Y-100291448D01*
X78353814Y-100208186D01*
X78270552Y-100106729D01*
X78241222Y-100070991D01*
X78157557Y-99914466D01*
X78106037Y-99744627D01*
X78088641Y-99568000D01*
X78106037Y-99391373D01*
X78157557Y-99221534D01*
X78241222Y-99065009D01*
X78298677Y-98995000D01*
X78353814Y-98927814D01*
X78475243Y-98828161D01*
X78491009Y-98815222D01*
X78647534Y-98731557D01*
X78817373Y-98680037D01*
X78883558Y-98673518D01*
X78949740Y-98667000D01*
X79038260Y-98667000D01*
X79104442Y-98673518D01*
X79104442Y-98673518D01*
G37*
G36*
X82435000Y-100469000D02*
G01*
X80633000Y-100469000D01*
X80633000Y-98667000D01*
X82435000Y-98667000D01*
X82435000Y-100469000D01*
X82435000Y-100469000D01*
G37*
G36*
X56286000Y-99897000D02*
G01*
X55284000Y-99897000D01*
X55284000Y-98995000D01*
X56286000Y-98995000D01*
X56286000Y-99897000D01*
X56286000Y-99897000D01*
G37*
G36*
X54621891Y-98792085D02*
G01*
X54655869Y-98802393D01*
X54687190Y-98819134D01*
X54714639Y-98841661D01*
X54737166Y-98869110D01*
X54753907Y-98900431D01*
X54764215Y-98934409D01*
X54768300Y-98975890D01*
X54768300Y-99652110D01*
X54764215Y-99693591D01*
X54753907Y-99727569D01*
X54737166Y-99758890D01*
X54714639Y-99786339D01*
X54687190Y-99808866D01*
X54655869Y-99825607D01*
X54621891Y-99835915D01*
X54580410Y-99840000D01*
X53979190Y-99840000D01*
X53937709Y-99835915D01*
X53903731Y-99825607D01*
X53872410Y-99808866D01*
X53844961Y-99786339D01*
X53822434Y-99758890D01*
X53805693Y-99727569D01*
X53795385Y-99693591D01*
X53791300Y-99652110D01*
X53791300Y-98975890D01*
X53795385Y-98934409D01*
X53805693Y-98900431D01*
X53822434Y-98869110D01*
X53844961Y-98841661D01*
X53872410Y-98819134D01*
X53903731Y-98802393D01*
X53937709Y-98792085D01*
X53979190Y-98788000D01*
X54580410Y-98788000D01*
X54621891Y-98792085D01*
X54621891Y-98792085D01*
G37*
G36*
X53046891Y-98792085D02*
G01*
X53080869Y-98802393D01*
X53112190Y-98819134D01*
X53139639Y-98841661D01*
X53162166Y-98869110D01*
X53178907Y-98900431D01*
X53189215Y-98934409D01*
X53193300Y-98975890D01*
X53193300Y-99652110D01*
X53189215Y-99693591D01*
X53178907Y-99727569D01*
X53162166Y-99758890D01*
X53139639Y-99786339D01*
X53112190Y-99808866D01*
X53080869Y-99825607D01*
X53046891Y-99835915D01*
X53005410Y-99840000D01*
X52404190Y-99840000D01*
X52362709Y-99835915D01*
X52328731Y-99825607D01*
X52297410Y-99808866D01*
X52269961Y-99786339D01*
X52247434Y-99758890D01*
X52230693Y-99727569D01*
X52220385Y-99693591D01*
X52216300Y-99652110D01*
X52216300Y-98975890D01*
X52220385Y-98934409D01*
X52230693Y-98900431D01*
X52247434Y-98869110D01*
X52269961Y-98841661D01*
X52297410Y-98819134D01*
X52328731Y-98802393D01*
X52362709Y-98792085D01*
X52404190Y-98788000D01*
X53005410Y-98788000D01*
X53046891Y-98792085D01*
X53046891Y-98792085D01*
G37*
G36*
X64260591Y-98778585D02*
G01*
X64294569Y-98788893D01*
X64325890Y-98805634D01*
X64353339Y-98828161D01*
X64375866Y-98855610D01*
X64392607Y-98886931D01*
X64402915Y-98920909D01*
X64407000Y-98962390D01*
X64407000Y-99563610D01*
X64402915Y-99605091D01*
X64392607Y-99639069D01*
X64375866Y-99670390D01*
X64353339Y-99697839D01*
X64325890Y-99720366D01*
X64294569Y-99737107D01*
X64260591Y-99747415D01*
X64219110Y-99751500D01*
X63542890Y-99751500D01*
X63501409Y-99747415D01*
X63467431Y-99737107D01*
X63436110Y-99720366D01*
X63408661Y-99697839D01*
X63386134Y-99670390D01*
X63369393Y-99639069D01*
X63359085Y-99605091D01*
X63355000Y-99563610D01*
X63355000Y-98962390D01*
X63359085Y-98920909D01*
X63369393Y-98886931D01*
X63386134Y-98855610D01*
X63408661Y-98828161D01*
X63436110Y-98805634D01*
X63467431Y-98788893D01*
X63501409Y-98778585D01*
X63542890Y-98774500D01*
X64219110Y-98774500D01*
X64260591Y-98778585D01*
X64260591Y-98778585D01*
G37*
G36*
X62736591Y-98778585D02*
G01*
X62770569Y-98788893D01*
X62801890Y-98805634D01*
X62829339Y-98828161D01*
X62851866Y-98855610D01*
X62868607Y-98886931D01*
X62878915Y-98920909D01*
X62883000Y-98962390D01*
X62883000Y-99563610D01*
X62878915Y-99605091D01*
X62868607Y-99639069D01*
X62851866Y-99670390D01*
X62829339Y-99697839D01*
X62801890Y-99720366D01*
X62770569Y-99737107D01*
X62736591Y-99747415D01*
X62695110Y-99751500D01*
X62018890Y-99751500D01*
X61977409Y-99747415D01*
X61943431Y-99737107D01*
X61912110Y-99720366D01*
X61884661Y-99697839D01*
X61862134Y-99670390D01*
X61845393Y-99639069D01*
X61835085Y-99605091D01*
X61831000Y-99563610D01*
X61831000Y-98962390D01*
X61835085Y-98920909D01*
X61845393Y-98886931D01*
X61862134Y-98855610D01*
X61884661Y-98828161D01*
X61912110Y-98805634D01*
X61943431Y-98788893D01*
X61977409Y-98778585D01*
X62018890Y-98774500D01*
X62695110Y-98774500D01*
X62736591Y-98778585D01*
X62736591Y-98778585D01*
G37*
G36*
X61212591Y-98778585D02*
G01*
X61246569Y-98788893D01*
X61277890Y-98805634D01*
X61305339Y-98828161D01*
X61327866Y-98855610D01*
X61344607Y-98886931D01*
X61354915Y-98920909D01*
X61359000Y-98962390D01*
X61359000Y-99563610D01*
X61354915Y-99605091D01*
X61344607Y-99639069D01*
X61327866Y-99670390D01*
X61305339Y-99697839D01*
X61277890Y-99720366D01*
X61246569Y-99737107D01*
X61212591Y-99747415D01*
X61171110Y-99751500D01*
X60494890Y-99751500D01*
X60453409Y-99747415D01*
X60419431Y-99737107D01*
X60388110Y-99720366D01*
X60360661Y-99697839D01*
X60338134Y-99670390D01*
X60321393Y-99639069D01*
X60311085Y-99605091D01*
X60307000Y-99563610D01*
X60307000Y-98962390D01*
X60311085Y-98920909D01*
X60321393Y-98886931D01*
X60338134Y-98855610D01*
X60360661Y-98828161D01*
X60388110Y-98805634D01*
X60419431Y-98788893D01*
X60453409Y-98778585D01*
X60494890Y-98774500D01*
X61171110Y-98774500D01*
X61212591Y-98778585D01*
X61212591Y-98778585D01*
G37*
G36*
X59688591Y-98778585D02*
G01*
X59722569Y-98788893D01*
X59753890Y-98805634D01*
X59781339Y-98828161D01*
X59803866Y-98855610D01*
X59820607Y-98886931D01*
X59830915Y-98920909D01*
X59835000Y-98962390D01*
X59835000Y-99563610D01*
X59830915Y-99605091D01*
X59820607Y-99639069D01*
X59803866Y-99670390D01*
X59781339Y-99697839D01*
X59753890Y-99720366D01*
X59722569Y-99737107D01*
X59688591Y-99747415D01*
X59647110Y-99751500D01*
X58970890Y-99751500D01*
X58929409Y-99747415D01*
X58895431Y-99737107D01*
X58864110Y-99720366D01*
X58836661Y-99697839D01*
X58814134Y-99670390D01*
X58797393Y-99639069D01*
X58787085Y-99605091D01*
X58783000Y-99563610D01*
X58783000Y-98962390D01*
X58787085Y-98920909D01*
X58797393Y-98886931D01*
X58814134Y-98855610D01*
X58836661Y-98828161D01*
X58864110Y-98805634D01*
X58895431Y-98788893D01*
X58929409Y-98778585D01*
X58970890Y-98774500D01*
X59647110Y-98774500D01*
X59688591Y-98778585D01*
X59688591Y-98778585D01*
G37*
G36*
X65784591Y-98778585D02*
G01*
X65818569Y-98788893D01*
X65849890Y-98805634D01*
X65877339Y-98828161D01*
X65899866Y-98855610D01*
X65916607Y-98886931D01*
X65926915Y-98920909D01*
X65931000Y-98962390D01*
X65931000Y-99563610D01*
X65926915Y-99605091D01*
X65916607Y-99639069D01*
X65899866Y-99670390D01*
X65877339Y-99697839D01*
X65849890Y-99720366D01*
X65818569Y-99737107D01*
X65784591Y-99747415D01*
X65743110Y-99751500D01*
X65066890Y-99751500D01*
X65025409Y-99747415D01*
X64991431Y-99737107D01*
X64960110Y-99720366D01*
X64932661Y-99697839D01*
X64910134Y-99670390D01*
X64893393Y-99639069D01*
X64883085Y-99605091D01*
X64879000Y-99563610D01*
X64879000Y-98962390D01*
X64883085Y-98920909D01*
X64893393Y-98886931D01*
X64910134Y-98855610D01*
X64932661Y-98828161D01*
X64960110Y-98805634D01*
X64991431Y-98788893D01*
X65025409Y-98778585D01*
X65066890Y-98774500D01*
X65743110Y-98774500D01*
X65784591Y-98778585D01*
X65784591Y-98778585D01*
G37*
G36*
X67308591Y-98778585D02*
G01*
X67342569Y-98788893D01*
X67373890Y-98805634D01*
X67401339Y-98828161D01*
X67423866Y-98855610D01*
X67440607Y-98886931D01*
X67450915Y-98920909D01*
X67455000Y-98962390D01*
X67455000Y-99563610D01*
X67450915Y-99605091D01*
X67440607Y-99639069D01*
X67423866Y-99670390D01*
X67401339Y-99697839D01*
X67373890Y-99720366D01*
X67342569Y-99737107D01*
X67308591Y-99747415D01*
X67267110Y-99751500D01*
X66590890Y-99751500D01*
X66549409Y-99747415D01*
X66515431Y-99737107D01*
X66484110Y-99720366D01*
X66456661Y-99697839D01*
X66434134Y-99670390D01*
X66417393Y-99639069D01*
X66407085Y-99605091D01*
X66403000Y-99563610D01*
X66403000Y-98962390D01*
X66407085Y-98920909D01*
X66417393Y-98886931D01*
X66434134Y-98855610D01*
X66456661Y-98828161D01*
X66484110Y-98805634D01*
X66515431Y-98788893D01*
X66549409Y-98778585D01*
X66590890Y-98774500D01*
X67267110Y-98774500D01*
X67308591Y-98778585D01*
X67308591Y-98778585D01*
G37*
G36*
X75919191Y-98575485D02*
G01*
X75953169Y-98585793D01*
X75984490Y-98602534D01*
X76011939Y-98625061D01*
X76034466Y-98652510D01*
X76051207Y-98683831D01*
X76061515Y-98717809D01*
X76065600Y-98759290D01*
X76065600Y-99360510D01*
X76061515Y-99401991D01*
X76051207Y-99435969D01*
X76034466Y-99467290D01*
X76011939Y-99494739D01*
X75984490Y-99517266D01*
X75953169Y-99534007D01*
X75919191Y-99544315D01*
X75877710Y-99548400D01*
X75201490Y-99548400D01*
X75160009Y-99544315D01*
X75126031Y-99534007D01*
X75094710Y-99517266D01*
X75067261Y-99494739D01*
X75044734Y-99467290D01*
X75027993Y-99435969D01*
X75017685Y-99401991D01*
X75013600Y-99360510D01*
X75013600Y-98759290D01*
X75017685Y-98717809D01*
X75027993Y-98683831D01*
X75044734Y-98652510D01*
X75067261Y-98625061D01*
X75094710Y-98602534D01*
X75126031Y-98585793D01*
X75160009Y-98575485D01*
X75201490Y-98571400D01*
X75877710Y-98571400D01*
X75919191Y-98575485D01*
X75919191Y-98575485D01*
G37*
M02*
