G04 #@! TF.GenerationSoftware,KiCad,Pcbnew,5.1.4*
G04 #@! TF.CreationDate,2019-11-23T22:13:22+01:00*
G04 #@! TF.ProjectId,antivol,616e7469-766f-46c2-9e6b-696361645f70,rev?*
G04 #@! TF.SameCoordinates,Original*
G04 #@! TF.FileFunction,Legend,Top*
G04 #@! TF.FilePolarity,Positive*
%FSLAX46Y46*%
G04 Gerber Fmt 4.6, Leading zero omitted, Abs format (unit mm)*
G04 Created by KiCad (PCBNEW 5.1.4) date 2019-11-23 22:13:22*
%MOMM*%
%LPD*%
G04 APERTURE LIST*
%ADD10C,0.150000*%
%ADD11C,0.120000*%
G04 APERTURE END LIST*
D10*
X66310000Y-115260380D02*
X66310000Y-114260380D01*
X66976666Y-114260380D02*
X67167142Y-114260380D01*
X67262380Y-114308000D01*
X67357619Y-114403238D01*
X67405238Y-114593714D01*
X67405238Y-114927047D01*
X67357619Y-115117523D01*
X67262380Y-115212761D01*
X67167142Y-115260380D01*
X66976666Y-115260380D01*
X66881428Y-115212761D01*
X66786190Y-115117523D01*
X66738571Y-114927047D01*
X66738571Y-114593714D01*
X66786190Y-114403238D01*
X66881428Y-114308000D01*
X66976666Y-114260380D01*
X67786190Y-114355619D02*
X67833809Y-114308000D01*
X67929047Y-114260380D01*
X68167142Y-114260380D01*
X68262380Y-114308000D01*
X68310000Y-114355619D01*
X68357619Y-114450857D01*
X68357619Y-114546095D01*
X68310000Y-114688952D01*
X67738571Y-115260380D01*
X68357619Y-115260380D01*
X63770000Y-115260380D02*
X63770000Y-114260380D01*
X64436666Y-114260380D02*
X64627142Y-114260380D01*
X64722380Y-114308000D01*
X64817619Y-114403238D01*
X64865238Y-114593714D01*
X64865238Y-114927047D01*
X64817619Y-115117523D01*
X64722380Y-115212761D01*
X64627142Y-115260380D01*
X64436666Y-115260380D01*
X64341428Y-115212761D01*
X64246190Y-115117523D01*
X64198571Y-114927047D01*
X64198571Y-114593714D01*
X64246190Y-114403238D01*
X64341428Y-114308000D01*
X64436666Y-114260380D01*
X65484285Y-114260380D02*
X65579523Y-114260380D01*
X65674761Y-114308000D01*
X65722380Y-114355619D01*
X65770000Y-114450857D01*
X65817619Y-114641333D01*
X65817619Y-114879428D01*
X65770000Y-115069904D01*
X65722380Y-115165142D01*
X65674761Y-115212761D01*
X65579523Y-115260380D01*
X65484285Y-115260380D01*
X65389047Y-115212761D01*
X65341428Y-115165142D01*
X65293809Y-115069904D01*
X65246190Y-114879428D01*
X65246190Y-114641333D01*
X65293809Y-114450857D01*
X65341428Y-114355619D01*
X65389047Y-114308000D01*
X65484285Y-114260380D01*
X61729904Y-114308000D02*
X61634666Y-114260380D01*
X61491809Y-114260380D01*
X61348952Y-114308000D01*
X61253714Y-114403238D01*
X61206095Y-114498476D01*
X61158476Y-114688952D01*
X61158476Y-114831809D01*
X61206095Y-115022285D01*
X61253714Y-115117523D01*
X61348952Y-115212761D01*
X61491809Y-115260380D01*
X61587047Y-115260380D01*
X61729904Y-115212761D01*
X61777523Y-115165142D01*
X61777523Y-114831809D01*
X61587047Y-114831809D01*
X58951904Y-114736571D02*
X59285238Y-114736571D01*
X59428095Y-115260380D02*
X58951904Y-115260380D01*
X58951904Y-114260380D01*
X59428095Y-114260380D01*
X59856666Y-115260380D02*
X59856666Y-114260380D01*
X60428095Y-115260380D01*
X60428095Y-114260380D01*
X56983333Y-115260380D02*
X56650000Y-114784190D01*
X56411904Y-115260380D02*
X56411904Y-114260380D01*
X56792857Y-114260380D01*
X56888095Y-114308000D01*
X56935714Y-114355619D01*
X56983333Y-114450857D01*
X56983333Y-114593714D01*
X56935714Y-114688952D01*
X56888095Y-114736571D01*
X56792857Y-114784190D01*
X56411904Y-114784190D01*
X57316666Y-114260380D02*
X57983333Y-115260380D01*
X57983333Y-114260380D02*
X57316666Y-115260380D01*
X53848095Y-114260380D02*
X54419523Y-114260380D01*
X54133809Y-115260380D02*
X54133809Y-114260380D01*
X54657619Y-114260380D02*
X55324285Y-115260380D01*
X55324285Y-114260380D02*
X54657619Y-115260380D01*
X50736666Y-114260380D02*
X51070000Y-115260380D01*
X51403333Y-114260380D01*
X52308095Y-115165142D02*
X52260476Y-115212761D01*
X52117619Y-115260380D01*
X52022380Y-115260380D01*
X51879523Y-115212761D01*
X51784285Y-115117523D01*
X51736666Y-115022285D01*
X51689047Y-114831809D01*
X51689047Y-114688952D01*
X51736666Y-114498476D01*
X51784285Y-114403238D01*
X51879523Y-114308000D01*
X52022380Y-114260380D01*
X52117619Y-114260380D01*
X52260476Y-114308000D01*
X52308095Y-114355619D01*
X53308095Y-115165142D02*
X53260476Y-115212761D01*
X53117619Y-115260380D01*
X53022380Y-115260380D01*
X52879523Y-115212761D01*
X52784285Y-115117523D01*
X52736666Y-115022285D01*
X52689047Y-114831809D01*
X52689047Y-114688952D01*
X52736666Y-114498476D01*
X52784285Y-114403238D01*
X52879523Y-114308000D01*
X53022380Y-114260380D01*
X53117619Y-114260380D01*
X53260476Y-114308000D01*
X53308095Y-114355619D01*
D11*
X68463279Y-101852000D02*
X68137721Y-101852000D01*
X68463279Y-102872000D02*
X68137721Y-102872000D01*
X66550000Y-103261279D02*
X66550000Y-102935721D01*
X65530000Y-103261279D02*
X65530000Y-102935721D01*
X61974000Y-108015721D02*
X61974000Y-108341279D01*
X62994000Y-108015721D02*
X62994000Y-108341279D01*
X64581721Y-109476000D02*
X64907279Y-109476000D01*
X64581721Y-108456000D02*
X64907279Y-108456000D01*
X64249279Y-99058000D02*
X63923721Y-99058000D01*
X64249279Y-100078000D02*
X63923721Y-100078000D01*
X64294000Y-113558000D02*
X66744000Y-113558000D01*
X66094000Y-110338000D02*
X64294000Y-110338000D01*
X60517721Y-102618000D02*
X60843279Y-102618000D01*
X60517721Y-101598000D02*
X60843279Y-101598000D01*
X64907279Y-106932000D02*
X64581721Y-106932000D01*
X64907279Y-107952000D02*
X64581721Y-107952000D01*
X71136000Y-109914000D02*
X71136000Y-106014000D01*
X73136000Y-109914000D02*
X73136000Y-106014000D01*
X71136000Y-109914000D02*
X73136000Y-109914000D01*
X65008000Y-100492000D02*
X65008000Y-104392000D01*
X63008000Y-100492000D02*
X63008000Y-104392000D01*
X65008000Y-100492000D02*
X63008000Y-100492000D01*
X61720000Y-113095721D02*
X61720000Y-113421279D01*
X62740000Y-113095721D02*
X62740000Y-113421279D01*
X68832000Y-112437721D02*
X68832000Y-112763279D01*
X69852000Y-112437721D02*
X69852000Y-112763279D01*
X70806000Y-98492000D02*
X72136000Y-98492000D01*
X70806000Y-99822000D02*
X70806000Y-98492000D01*
X70806000Y-101092000D02*
X73466000Y-101092000D01*
X73466000Y-101092000D02*
X73466000Y-103692000D01*
X70806000Y-101092000D02*
X70806000Y-103692000D01*
X70806000Y-103692000D02*
X73466000Y-103692000D01*
X52326000Y-100213279D02*
X52326000Y-99887721D01*
X51306000Y-100213279D02*
X51306000Y-99887721D01*
X58676000Y-101483279D02*
X58676000Y-101157721D01*
X57656000Y-101483279D02*
X57656000Y-101157721D01*
X56698000Y-99316000D02*
X56698000Y-100776000D01*
X53538000Y-99316000D02*
X53538000Y-101476000D01*
X53538000Y-99316000D02*
X54468000Y-99316000D01*
X56698000Y-99316000D02*
X55768000Y-99316000D01*
X73466000Y-116900000D02*
X72136000Y-116900000D01*
X73466000Y-115570000D02*
X73466000Y-116900000D01*
X73466000Y-114300000D02*
X70806000Y-114300000D01*
X70806000Y-114300000D02*
X70806000Y-111700000D01*
X73466000Y-114300000D02*
X73466000Y-111700000D01*
X73466000Y-111700000D02*
X70806000Y-111700000D01*
X54620279Y-106170000D02*
X54294721Y-106170000D01*
X54620279Y-107190000D02*
X54294721Y-107190000D01*
X55120000Y-113345279D02*
X55120000Y-113019721D01*
X54100000Y-113345279D02*
X54100000Y-113019721D01*
X63180000Y-116205000D02*
G75*
G03X63180000Y-116205000I-950000J0D01*
G01*
X58100000Y-116205000D02*
G75*
G03X58100000Y-116205000I-950000J0D01*
G01*
X55560000Y-116205000D02*
G75*
G03X55560000Y-116205000I-950000J0D01*
G01*
X60640000Y-116205000D02*
G75*
G03X60640000Y-116205000I-950000J0D01*
G01*
X68260000Y-116078000D02*
G75*
G03X68260000Y-116078000I-950000J0D01*
G01*
X65720000Y-116205000D02*
G75*
G03X65720000Y-116205000I-950000J0D01*
G01*
X53020000Y-116205000D02*
G75*
G03X53020000Y-116205000I-950000J0D01*
G01*
X67836000Y-103642000D02*
X69296000Y-103642000D01*
X67836000Y-106802000D02*
X69996000Y-106802000D01*
X67836000Y-106802000D02*
X67836000Y-105872000D01*
X67836000Y-103642000D02*
X67836000Y-104572000D01*
X66834000Y-101432000D02*
X69284000Y-101432000D01*
X68634000Y-98212000D02*
X66834000Y-98212000D01*
X60843279Y-100074000D02*
X60517721Y-100074000D01*
X60843279Y-101094000D02*
X60517721Y-101094000D01*
X52195000Y-113019721D02*
X52195000Y-113345279D01*
X53215000Y-113019721D02*
X53215000Y-113345279D01*
X57025000Y-113345279D02*
X57025000Y-113019721D01*
X56005000Y-113345279D02*
X56005000Y-113019721D01*
X59195500Y-99795000D02*
X61480500Y-99795000D01*
X59195500Y-98325000D02*
X59195500Y-99795000D01*
X61480500Y-98325000D02*
X59195500Y-98325000D01*
X54620279Y-104265000D02*
X54294721Y-104265000D01*
X54620279Y-105285000D02*
X54294721Y-105285000D01*
X53510000Y-108120000D02*
X53510000Y-108120000D01*
X54010000Y-108120000D02*
X53510000Y-108120000D01*
X53510000Y-109820000D02*
X53510000Y-109820000D01*
X53510000Y-110320000D02*
X53510000Y-109820000D01*
X54010000Y-110320000D02*
X53510000Y-110320000D01*
X55210000Y-110320000D02*
X55210000Y-110320000D01*
X55710000Y-110320000D02*
X55210000Y-110320000D01*
X55710000Y-109820000D02*
X55710000Y-110320000D01*
X55710000Y-108620000D02*
X55710000Y-108620000D01*
X55710000Y-108120000D02*
X55710000Y-108620000D01*
X55210000Y-108120000D02*
X55710000Y-108120000D01*
X67836000Y-107386000D02*
X69296000Y-107386000D01*
X67836000Y-110546000D02*
X69996000Y-110546000D01*
X67836000Y-110546000D02*
X67836000Y-109616000D01*
X67836000Y-107386000D02*
X67836000Y-108316000D01*
X74870000Y-98492000D02*
X76200000Y-98492000D01*
X74870000Y-99822000D02*
X74870000Y-98492000D01*
X74870000Y-101092000D02*
X77530000Y-101092000D01*
X77530000Y-101092000D02*
X77530000Y-113852000D01*
X74870000Y-101092000D02*
X74870000Y-113852000D01*
X74870000Y-113852000D02*
X77530000Y-113852000D01*
D10*
X70810380Y-103004857D02*
X70334190Y-103338190D01*
X70810380Y-103576285D02*
X69810380Y-103576285D01*
X69810380Y-103195333D01*
X69858000Y-103100095D01*
X69905619Y-103052476D01*
X70000857Y-103004857D01*
X70143714Y-103004857D01*
X70238952Y-103052476D01*
X70286571Y-103100095D01*
X70334190Y-103195333D01*
X70334190Y-103576285D01*
X70810380Y-102052476D02*
X70810380Y-102623904D01*
X70810380Y-102338190D02*
X69810380Y-102338190D01*
X69953238Y-102433428D01*
X70048476Y-102528666D01*
X70096095Y-102623904D01*
X69905619Y-101671523D02*
X69858000Y-101623904D01*
X69810380Y-101528666D01*
X69810380Y-101290571D01*
X69858000Y-101195333D01*
X69905619Y-101147714D01*
X70000857Y-101100095D01*
X70096095Y-101100095D01*
X70238952Y-101147714D01*
X70810380Y-101719142D01*
X70810380Y-101100095D01*
X64889142Y-105811380D02*
X64555809Y-105335190D01*
X64317714Y-105811380D02*
X64317714Y-104811380D01*
X64698666Y-104811380D01*
X64793904Y-104859000D01*
X64841523Y-104906619D01*
X64889142Y-105001857D01*
X64889142Y-105144714D01*
X64841523Y-105239952D01*
X64793904Y-105287571D01*
X64698666Y-105335190D01*
X64317714Y-105335190D01*
X65841523Y-105811380D02*
X65270095Y-105811380D01*
X65555809Y-105811380D02*
X65555809Y-104811380D01*
X65460571Y-104954238D01*
X65365333Y-105049476D01*
X65270095Y-105097095D01*
X66793904Y-105811380D02*
X66222476Y-105811380D01*
X66508190Y-105811380D02*
X66508190Y-104811380D01*
X66412952Y-104954238D01*
X66317714Y-105049476D01*
X66222476Y-105097095D01*
X64366380Y-108345166D02*
X63890190Y-108678500D01*
X64366380Y-108916595D02*
X63366380Y-108916595D01*
X63366380Y-108535642D01*
X63414000Y-108440404D01*
X63461619Y-108392785D01*
X63556857Y-108345166D01*
X63699714Y-108345166D01*
X63794952Y-108392785D01*
X63842571Y-108440404D01*
X63890190Y-108535642D01*
X63890190Y-108916595D01*
X63366380Y-108011833D02*
X63366380Y-107345166D01*
X64366380Y-107773738D01*
X64577833Y-107988380D02*
X64244500Y-107512190D01*
X64006404Y-107988380D02*
X64006404Y-106988380D01*
X64387357Y-106988380D01*
X64482595Y-107036000D01*
X64530214Y-107083619D01*
X64577833Y-107178857D01*
X64577833Y-107321714D01*
X64530214Y-107416952D01*
X64482595Y-107464571D01*
X64387357Y-107512190D01*
X64006404Y-107512190D01*
X65482595Y-106988380D02*
X65006404Y-106988380D01*
X64958785Y-107464571D01*
X65006404Y-107416952D01*
X65101642Y-107369333D01*
X65339738Y-107369333D01*
X65434976Y-107416952D01*
X65482595Y-107464571D01*
X65530214Y-107559809D01*
X65530214Y-107797904D01*
X65482595Y-107893142D01*
X65434976Y-107940761D01*
X65339738Y-107988380D01*
X65101642Y-107988380D01*
X65006404Y-107940761D01*
X64958785Y-107893142D01*
X63919833Y-98909142D02*
X63872214Y-98956761D01*
X63729357Y-99004380D01*
X63634119Y-99004380D01*
X63491261Y-98956761D01*
X63396023Y-98861523D01*
X63348404Y-98766285D01*
X63300785Y-98575809D01*
X63300785Y-98432952D01*
X63348404Y-98242476D01*
X63396023Y-98147238D01*
X63491261Y-98052000D01*
X63634119Y-98004380D01*
X63729357Y-98004380D01*
X63872214Y-98052000D01*
X63919833Y-98099619D01*
X64872214Y-99004380D02*
X64300785Y-99004380D01*
X64586500Y-99004380D02*
X64586500Y-98004380D01*
X64491261Y-98147238D01*
X64396023Y-98242476D01*
X64300785Y-98290095D01*
X61468095Y-110450380D02*
X61468095Y-111259904D01*
X61515714Y-111355142D01*
X61563333Y-111402761D01*
X61658571Y-111450380D01*
X61849047Y-111450380D01*
X61944285Y-111402761D01*
X61991904Y-111355142D01*
X62039523Y-111259904D01*
X62039523Y-110450380D01*
X62420476Y-110450380D02*
X63039523Y-110450380D01*
X62706190Y-110831333D01*
X62849047Y-110831333D01*
X62944285Y-110878952D01*
X62991904Y-110926571D01*
X63039523Y-111021809D01*
X63039523Y-111259904D01*
X62991904Y-111355142D01*
X62944285Y-111402761D01*
X62849047Y-111450380D01*
X62563333Y-111450380D01*
X62468095Y-111402761D01*
X62420476Y-111355142D01*
X60063142Y-103830380D02*
X59729809Y-103354190D01*
X59491714Y-103830380D02*
X59491714Y-102830380D01*
X59872666Y-102830380D01*
X59967904Y-102878000D01*
X60015523Y-102925619D01*
X60063142Y-103020857D01*
X60063142Y-103163714D01*
X60015523Y-103258952D01*
X59967904Y-103306571D01*
X59872666Y-103354190D01*
X59491714Y-103354190D01*
X61015523Y-103830380D02*
X60444095Y-103830380D01*
X60729809Y-103830380D02*
X60729809Y-102830380D01*
X60634571Y-102973238D01*
X60539333Y-103068476D01*
X60444095Y-103116095D01*
X61634571Y-102830380D02*
X61729809Y-102830380D01*
X61825047Y-102878000D01*
X61872666Y-102925619D01*
X61920285Y-103020857D01*
X61967904Y-103211333D01*
X61967904Y-103449428D01*
X61920285Y-103639904D01*
X61872666Y-103735142D01*
X61825047Y-103782761D01*
X61729809Y-103830380D01*
X61634571Y-103830380D01*
X61539333Y-103782761D01*
X61491714Y-103735142D01*
X61444095Y-103639904D01*
X61396476Y-103449428D01*
X61396476Y-103211333D01*
X61444095Y-103020857D01*
X61491714Y-102925619D01*
X61539333Y-102878000D01*
X61634571Y-102830380D01*
X62317333Y-107894380D02*
X61984000Y-107418190D01*
X61745904Y-107894380D02*
X61745904Y-106894380D01*
X62126857Y-106894380D01*
X62222095Y-106942000D01*
X62269714Y-106989619D01*
X62317333Y-107084857D01*
X62317333Y-107227714D01*
X62269714Y-107322952D01*
X62222095Y-107370571D01*
X62126857Y-107418190D01*
X61745904Y-107418190D01*
X63174476Y-107227714D02*
X63174476Y-107894380D01*
X62936380Y-106846761D02*
X62698285Y-107561047D01*
X63317333Y-107561047D01*
X74366380Y-108434095D02*
X73366380Y-108434095D01*
X73366380Y-108196000D01*
X73414000Y-108053142D01*
X73509238Y-107957904D01*
X73604476Y-107910285D01*
X73794952Y-107862666D01*
X73937809Y-107862666D01*
X74128285Y-107910285D01*
X74223523Y-107957904D01*
X74318761Y-108053142D01*
X74366380Y-108196000D01*
X74366380Y-108434095D01*
X73366380Y-107529333D02*
X73366380Y-106910285D01*
X73747333Y-107243619D01*
X73747333Y-107100761D01*
X73794952Y-107005523D01*
X73842571Y-106957904D01*
X73937809Y-106910285D01*
X74175904Y-106910285D01*
X74271142Y-106957904D01*
X74318761Y-107005523D01*
X74366380Y-107100761D01*
X74366380Y-107386476D01*
X74318761Y-107481714D01*
X74271142Y-107529333D01*
X61491904Y-105100380D02*
X61491904Y-104100380D01*
X61730000Y-104100380D01*
X61872857Y-104148000D01*
X61968095Y-104243238D01*
X62015714Y-104338476D01*
X62063333Y-104528952D01*
X62063333Y-104671809D01*
X62015714Y-104862285D01*
X61968095Y-104957523D01*
X61872857Y-105052761D01*
X61730000Y-105100380D01*
X61491904Y-105100380D01*
X63015714Y-105100380D02*
X62444285Y-105100380D01*
X62730000Y-105100380D02*
X62730000Y-104100380D01*
X62634761Y-104243238D01*
X62539523Y-104338476D01*
X62444285Y-104386095D01*
X61317142Y-112942666D02*
X61364761Y-112990285D01*
X61412380Y-113133142D01*
X61412380Y-113228380D01*
X61364761Y-113371238D01*
X61269523Y-113466476D01*
X61174285Y-113514095D01*
X60983809Y-113561714D01*
X60840952Y-113561714D01*
X60650476Y-113514095D01*
X60555238Y-113466476D01*
X60460000Y-113371238D01*
X60412380Y-113228380D01*
X60412380Y-113133142D01*
X60460000Y-112990285D01*
X60507619Y-112942666D01*
X60412380Y-112609333D02*
X60412380Y-111942666D01*
X61412380Y-112371238D01*
X68429142Y-112688666D02*
X68476761Y-112736285D01*
X68524380Y-112879142D01*
X68524380Y-112974380D01*
X68476761Y-113117238D01*
X68381523Y-113212476D01*
X68286285Y-113260095D01*
X68095809Y-113307714D01*
X67952952Y-113307714D01*
X67762476Y-113260095D01*
X67667238Y-113212476D01*
X67572000Y-113117238D01*
X67524380Y-112974380D01*
X67524380Y-112879142D01*
X67572000Y-112736285D01*
X67619619Y-112688666D01*
X67524380Y-111831523D02*
X67524380Y-112022000D01*
X67572000Y-112117238D01*
X67619619Y-112164857D01*
X67762476Y-112260095D01*
X67952952Y-112307714D01*
X68333904Y-112307714D01*
X68429142Y-112260095D01*
X68476761Y-112212476D01*
X68524380Y-112117238D01*
X68524380Y-111926761D01*
X68476761Y-111831523D01*
X68429142Y-111783904D01*
X68333904Y-111736285D01*
X68095809Y-111736285D01*
X68000571Y-111783904D01*
X67952952Y-111831523D01*
X67905333Y-111926761D01*
X67905333Y-112117238D01*
X67952952Y-112212476D01*
X68000571Y-112260095D01*
X68095809Y-112307714D01*
X73366380Y-100409333D02*
X74080666Y-100409333D01*
X74223523Y-100456952D01*
X74318761Y-100552190D01*
X74366380Y-100695047D01*
X74366380Y-100790285D01*
X74366380Y-99409333D02*
X74366380Y-99980761D01*
X74366380Y-99695047D02*
X73366380Y-99695047D01*
X73509238Y-99790285D01*
X73604476Y-99885523D01*
X73652095Y-99980761D01*
X51649333Y-102560380D02*
X51316000Y-102084190D01*
X51077904Y-102560380D02*
X51077904Y-101560380D01*
X51458857Y-101560380D01*
X51554095Y-101608000D01*
X51601714Y-101655619D01*
X51649333Y-101750857D01*
X51649333Y-101893714D01*
X51601714Y-101988952D01*
X51554095Y-102036571D01*
X51458857Y-102084190D01*
X51077904Y-102084190D01*
X52125523Y-102560380D02*
X52316000Y-102560380D01*
X52411238Y-102512761D01*
X52458857Y-102465142D01*
X52554095Y-102322285D01*
X52601714Y-102131809D01*
X52601714Y-101750857D01*
X52554095Y-101655619D01*
X52506476Y-101608000D01*
X52411238Y-101560380D01*
X52220761Y-101560380D01*
X52125523Y-101608000D01*
X52077904Y-101655619D01*
X52030285Y-101750857D01*
X52030285Y-101988952D01*
X52077904Y-102084190D01*
X52125523Y-102131809D01*
X52220761Y-102179428D01*
X52411238Y-102179428D01*
X52506476Y-102131809D01*
X52554095Y-102084190D01*
X52601714Y-101988952D01*
X57999333Y-103830380D02*
X57666000Y-103354190D01*
X57427904Y-103830380D02*
X57427904Y-102830380D01*
X57808857Y-102830380D01*
X57904095Y-102878000D01*
X57951714Y-102925619D01*
X57999333Y-103020857D01*
X57999333Y-103163714D01*
X57951714Y-103258952D01*
X57904095Y-103306571D01*
X57808857Y-103354190D01*
X57427904Y-103354190D01*
X58570761Y-103258952D02*
X58475523Y-103211333D01*
X58427904Y-103163714D01*
X58380285Y-103068476D01*
X58380285Y-103020857D01*
X58427904Y-102925619D01*
X58475523Y-102878000D01*
X58570761Y-102830380D01*
X58761238Y-102830380D01*
X58856476Y-102878000D01*
X58904095Y-102925619D01*
X58951714Y-103020857D01*
X58951714Y-103068476D01*
X58904095Y-103163714D01*
X58856476Y-103211333D01*
X58761238Y-103258952D01*
X58570761Y-103258952D01*
X58475523Y-103306571D01*
X58427904Y-103354190D01*
X58380285Y-103449428D01*
X58380285Y-103639904D01*
X58427904Y-103735142D01*
X58475523Y-103782761D01*
X58570761Y-103830380D01*
X58761238Y-103830380D01*
X58856476Y-103782761D01*
X58904095Y-103735142D01*
X58951714Y-103639904D01*
X58951714Y-103449428D01*
X58904095Y-103354190D01*
X58856476Y-103306571D01*
X58761238Y-103258952D01*
X55022761Y-102909619D02*
X54927523Y-102862000D01*
X54832285Y-102766761D01*
X54689428Y-102623904D01*
X54594190Y-102576285D01*
X54498952Y-102576285D01*
X54546571Y-102814380D02*
X54451333Y-102766761D01*
X54356095Y-102671523D01*
X54308476Y-102481047D01*
X54308476Y-102147714D01*
X54356095Y-101957238D01*
X54451333Y-101862000D01*
X54546571Y-101814380D01*
X54737047Y-101814380D01*
X54832285Y-101862000D01*
X54927523Y-101957238D01*
X54975142Y-102147714D01*
X54975142Y-102481047D01*
X54927523Y-102671523D01*
X54832285Y-102766761D01*
X54737047Y-102814380D01*
X54546571Y-102814380D01*
X55308476Y-101814380D02*
X55927523Y-101814380D01*
X55594190Y-102195333D01*
X55737047Y-102195333D01*
X55832285Y-102242952D01*
X55879904Y-102290571D01*
X55927523Y-102385809D01*
X55927523Y-102623904D01*
X55879904Y-102719142D01*
X55832285Y-102766761D01*
X55737047Y-102814380D01*
X55451333Y-102814380D01*
X55356095Y-102766761D01*
X55308476Y-102719142D01*
X73620380Y-116157333D02*
X74334666Y-116157333D01*
X74477523Y-116204952D01*
X74572761Y-116300190D01*
X74620380Y-116443047D01*
X74620380Y-116538285D01*
X73620380Y-115776380D02*
X73620380Y-115157333D01*
X74001333Y-115490666D01*
X74001333Y-115347809D01*
X74048952Y-115252571D01*
X74096571Y-115204952D01*
X74191809Y-115157333D01*
X74429904Y-115157333D01*
X74525142Y-115204952D01*
X74572761Y-115252571D01*
X74620380Y-115347809D01*
X74620380Y-115633523D01*
X74572761Y-115728761D01*
X74525142Y-115776380D01*
X52681142Y-106846666D02*
X52728761Y-106894285D01*
X52776380Y-107037142D01*
X52776380Y-107132380D01*
X52728761Y-107275238D01*
X52633523Y-107370476D01*
X52538285Y-107418095D01*
X52347809Y-107465714D01*
X52204952Y-107465714D01*
X52014476Y-107418095D01*
X51919238Y-107370476D01*
X51824000Y-107275238D01*
X51776380Y-107132380D01*
X51776380Y-107037142D01*
X51824000Y-106894285D01*
X51871619Y-106846666D01*
X51776380Y-106513333D02*
X51776380Y-105894285D01*
X52157333Y-106227619D01*
X52157333Y-106084761D01*
X52204952Y-105989523D01*
X52252571Y-105941904D01*
X52347809Y-105894285D01*
X52585904Y-105894285D01*
X52681142Y-105941904D01*
X52728761Y-105989523D01*
X52776380Y-106084761D01*
X52776380Y-106370476D01*
X52728761Y-106465714D01*
X52681142Y-106513333D01*
X52411333Y-111704380D02*
X52078000Y-111228190D01*
X51839904Y-111704380D02*
X51839904Y-110704380D01*
X52220857Y-110704380D01*
X52316095Y-110752000D01*
X52363714Y-110799619D01*
X52411333Y-110894857D01*
X52411333Y-111037714D01*
X52363714Y-111132952D01*
X52316095Y-111180571D01*
X52220857Y-111228190D01*
X51839904Y-111228190D01*
X52744666Y-110704380D02*
X53363714Y-110704380D01*
X53030380Y-111085333D01*
X53173238Y-111085333D01*
X53268476Y-111132952D01*
X53316095Y-111180571D01*
X53363714Y-111275809D01*
X53363714Y-111513904D01*
X53316095Y-111609142D01*
X53268476Y-111656761D01*
X53173238Y-111704380D01*
X52887523Y-111704380D01*
X52792285Y-111656761D01*
X52744666Y-111609142D01*
X60968095Y-119086380D02*
X61539523Y-119086380D01*
X61253809Y-120086380D02*
X61253809Y-119086380D01*
X61872857Y-120086380D02*
X61872857Y-119086380D01*
X62253809Y-119086380D01*
X62349047Y-119134000D01*
X62396666Y-119181619D01*
X62444285Y-119276857D01*
X62444285Y-119419714D01*
X62396666Y-119514952D01*
X62349047Y-119562571D01*
X62253809Y-119610190D01*
X61872857Y-119610190D01*
X62777619Y-119086380D02*
X63444285Y-119086380D01*
X63015714Y-120086380D01*
X55888095Y-119086380D02*
X56459523Y-119086380D01*
X56173809Y-120086380D02*
X56173809Y-119086380D01*
X56792857Y-120086380D02*
X56792857Y-119086380D01*
X57173809Y-119086380D01*
X57269047Y-119134000D01*
X57316666Y-119181619D01*
X57364285Y-119276857D01*
X57364285Y-119419714D01*
X57316666Y-119514952D01*
X57269047Y-119562571D01*
X57173809Y-119610190D01*
X56792857Y-119610190D01*
X58221428Y-119086380D02*
X58030952Y-119086380D01*
X57935714Y-119134000D01*
X57888095Y-119181619D01*
X57792857Y-119324476D01*
X57745238Y-119514952D01*
X57745238Y-119895904D01*
X57792857Y-119991142D01*
X57840476Y-120038761D01*
X57935714Y-120086380D01*
X58126190Y-120086380D01*
X58221428Y-120038761D01*
X58269047Y-119991142D01*
X58316666Y-119895904D01*
X58316666Y-119657809D01*
X58269047Y-119562571D01*
X58221428Y-119514952D01*
X58126190Y-119467333D01*
X57935714Y-119467333D01*
X57840476Y-119514952D01*
X57792857Y-119562571D01*
X57745238Y-119657809D01*
X53348095Y-119086380D02*
X53919523Y-119086380D01*
X53633809Y-120086380D02*
X53633809Y-119086380D01*
X54252857Y-120086380D02*
X54252857Y-119086380D01*
X54633809Y-119086380D01*
X54729047Y-119134000D01*
X54776666Y-119181619D01*
X54824285Y-119276857D01*
X54824285Y-119419714D01*
X54776666Y-119514952D01*
X54729047Y-119562571D01*
X54633809Y-119610190D01*
X54252857Y-119610190D01*
X55729047Y-119086380D02*
X55252857Y-119086380D01*
X55205238Y-119562571D01*
X55252857Y-119514952D01*
X55348095Y-119467333D01*
X55586190Y-119467333D01*
X55681428Y-119514952D01*
X55729047Y-119562571D01*
X55776666Y-119657809D01*
X55776666Y-119895904D01*
X55729047Y-119991142D01*
X55681428Y-120038761D01*
X55586190Y-120086380D01*
X55348095Y-120086380D01*
X55252857Y-120038761D01*
X55205238Y-119991142D01*
X58428095Y-119340380D02*
X58999523Y-119340380D01*
X58713809Y-120340380D02*
X58713809Y-119340380D01*
X59332857Y-120340380D02*
X59332857Y-119340380D01*
X59713809Y-119340380D01*
X59809047Y-119388000D01*
X59856666Y-119435619D01*
X59904285Y-119530857D01*
X59904285Y-119673714D01*
X59856666Y-119768952D01*
X59809047Y-119816571D01*
X59713809Y-119864190D01*
X59332857Y-119864190D01*
X60761428Y-119673714D02*
X60761428Y-120340380D01*
X60523333Y-119292761D02*
X60285238Y-120007047D01*
X60904285Y-120007047D01*
X66048095Y-119594380D02*
X66619523Y-119594380D01*
X66333809Y-120594380D02*
X66333809Y-119594380D01*
X66952857Y-120594380D02*
X66952857Y-119594380D01*
X67333809Y-119594380D01*
X67429047Y-119642000D01*
X67476666Y-119689619D01*
X67524285Y-119784857D01*
X67524285Y-119927714D01*
X67476666Y-120022952D01*
X67429047Y-120070571D01*
X67333809Y-120118190D01*
X66952857Y-120118190D01*
X67857619Y-119594380D02*
X68476666Y-119594380D01*
X68143333Y-119975333D01*
X68286190Y-119975333D01*
X68381428Y-120022952D01*
X68429047Y-120070571D01*
X68476666Y-120165809D01*
X68476666Y-120403904D01*
X68429047Y-120499142D01*
X68381428Y-120546761D01*
X68286190Y-120594380D01*
X68000476Y-120594380D01*
X67905238Y-120546761D01*
X67857619Y-120499142D01*
X63508095Y-119340380D02*
X64079523Y-119340380D01*
X63793809Y-120340380D02*
X63793809Y-119340380D01*
X64412857Y-120340380D02*
X64412857Y-119340380D01*
X64793809Y-119340380D01*
X64889047Y-119388000D01*
X64936666Y-119435619D01*
X64984285Y-119530857D01*
X64984285Y-119673714D01*
X64936666Y-119768952D01*
X64889047Y-119816571D01*
X64793809Y-119864190D01*
X64412857Y-119864190D01*
X65365238Y-119435619D02*
X65412857Y-119388000D01*
X65508095Y-119340380D01*
X65746190Y-119340380D01*
X65841428Y-119388000D01*
X65889047Y-119435619D01*
X65936666Y-119530857D01*
X65936666Y-119626095D01*
X65889047Y-119768952D01*
X65317619Y-120340380D01*
X65936666Y-120340380D01*
X51062095Y-118832380D02*
X51633523Y-118832380D01*
X51347809Y-119832380D02*
X51347809Y-118832380D01*
X51966857Y-119832380D02*
X51966857Y-118832380D01*
X52347809Y-118832380D01*
X52443047Y-118880000D01*
X52490666Y-118927619D01*
X52538285Y-119022857D01*
X52538285Y-119165714D01*
X52490666Y-119260952D01*
X52443047Y-119308571D01*
X52347809Y-119356190D01*
X51966857Y-119356190D01*
X53490666Y-119832380D02*
X52919238Y-119832380D01*
X53204952Y-119832380D02*
X53204952Y-118832380D01*
X53109714Y-118975238D01*
X53014476Y-119070476D01*
X52919238Y-119118095D01*
X71024761Y-105195619D02*
X70929523Y-105148000D01*
X70834285Y-105052761D01*
X70691428Y-104909904D01*
X70596190Y-104862285D01*
X70500952Y-104862285D01*
X70548571Y-105100380D02*
X70453333Y-105052761D01*
X70358095Y-104957523D01*
X70310476Y-104767047D01*
X70310476Y-104433714D01*
X70358095Y-104243238D01*
X70453333Y-104148000D01*
X70548571Y-104100380D01*
X70739047Y-104100380D01*
X70834285Y-104148000D01*
X70929523Y-104243238D01*
X70977142Y-104433714D01*
X70977142Y-104767047D01*
X70929523Y-104957523D01*
X70834285Y-105052761D01*
X70739047Y-105100380D01*
X70548571Y-105100380D01*
X71358095Y-104195619D02*
X71405714Y-104148000D01*
X71500952Y-104100380D01*
X71739047Y-104100380D01*
X71834285Y-104148000D01*
X71881904Y-104195619D01*
X71929523Y-104290857D01*
X71929523Y-104386095D01*
X71881904Y-104528952D01*
X71310476Y-105100380D01*
X71929523Y-105100380D01*
X69810380Y-100583904D02*
X70619904Y-100583904D01*
X70715142Y-100536285D01*
X70762761Y-100488666D01*
X70810380Y-100393428D01*
X70810380Y-100202952D01*
X70762761Y-100107714D01*
X70715142Y-100060095D01*
X70619904Y-100012476D01*
X69810380Y-100012476D01*
X69905619Y-99583904D02*
X69858000Y-99536285D01*
X69810380Y-99441047D01*
X69810380Y-99202952D01*
X69858000Y-99107714D01*
X69905619Y-99060095D01*
X70000857Y-99012476D01*
X70096095Y-99012476D01*
X70238952Y-99060095D01*
X70810380Y-99631523D01*
X70810380Y-99012476D01*
X63190380Y-101258666D02*
X62714190Y-101592000D01*
X63190380Y-101830095D02*
X62190380Y-101830095D01*
X62190380Y-101449142D01*
X62238000Y-101353904D01*
X62285619Y-101306285D01*
X62380857Y-101258666D01*
X62523714Y-101258666D01*
X62618952Y-101306285D01*
X62666571Y-101353904D01*
X62714190Y-101449142D01*
X62714190Y-101830095D01*
X62190380Y-100401523D02*
X62190380Y-100592000D01*
X62238000Y-100687238D01*
X62285619Y-100734857D01*
X62428476Y-100830095D01*
X62618952Y-100877714D01*
X62999904Y-100877714D01*
X63095142Y-100830095D01*
X63142761Y-100782476D01*
X63190380Y-100687238D01*
X63190380Y-100496761D01*
X63142761Y-100401523D01*
X63095142Y-100353904D01*
X62999904Y-100306285D01*
X62761809Y-100306285D01*
X62666571Y-100353904D01*
X62618952Y-100401523D01*
X62571333Y-100496761D01*
X62571333Y-100687238D01*
X62618952Y-100782476D01*
X62666571Y-100830095D01*
X62761809Y-100877714D01*
X54443333Y-111704380D02*
X54110000Y-111228190D01*
X53871904Y-111704380D02*
X53871904Y-110704380D01*
X54252857Y-110704380D01*
X54348095Y-110752000D01*
X54395714Y-110799619D01*
X54443333Y-110894857D01*
X54443333Y-111037714D01*
X54395714Y-111132952D01*
X54348095Y-111180571D01*
X54252857Y-111228190D01*
X53871904Y-111228190D01*
X54824285Y-110799619D02*
X54871904Y-110752000D01*
X54967142Y-110704380D01*
X55205238Y-110704380D01*
X55300476Y-110752000D01*
X55348095Y-110799619D01*
X55395714Y-110894857D01*
X55395714Y-110990095D01*
X55348095Y-111132952D01*
X54776666Y-111704380D01*
X55395714Y-111704380D01*
X56475333Y-111704380D02*
X56142000Y-111228190D01*
X55903904Y-111704380D02*
X55903904Y-110704380D01*
X56284857Y-110704380D01*
X56380095Y-110752000D01*
X56427714Y-110799619D01*
X56475333Y-110894857D01*
X56475333Y-111037714D01*
X56427714Y-111132952D01*
X56380095Y-111180571D01*
X56284857Y-111228190D01*
X55903904Y-111228190D01*
X57427714Y-111704380D02*
X56856285Y-111704380D01*
X57142000Y-111704380D02*
X57142000Y-110704380D01*
X57046761Y-110847238D01*
X56951523Y-110942476D01*
X56856285Y-110990095D01*
X58872380Y-99798095D02*
X57872380Y-99798095D01*
X57872380Y-99560000D01*
X57920000Y-99417142D01*
X58015238Y-99321904D01*
X58110476Y-99274285D01*
X58300952Y-99226666D01*
X58443809Y-99226666D01*
X58634285Y-99274285D01*
X58729523Y-99321904D01*
X58824761Y-99417142D01*
X58872380Y-99560000D01*
X58872380Y-99798095D01*
X57967619Y-98845714D02*
X57920000Y-98798095D01*
X57872380Y-98702857D01*
X57872380Y-98464761D01*
X57920000Y-98369523D01*
X57967619Y-98321904D01*
X58062857Y-98274285D01*
X58158095Y-98274285D01*
X58300952Y-98321904D01*
X58872380Y-98893333D01*
X58872380Y-98274285D01*
X52681142Y-105068666D02*
X52728761Y-105116285D01*
X52776380Y-105259142D01*
X52776380Y-105354380D01*
X52728761Y-105497238D01*
X52633523Y-105592476D01*
X52538285Y-105640095D01*
X52347809Y-105687714D01*
X52204952Y-105687714D01*
X52014476Y-105640095D01*
X51919238Y-105592476D01*
X51824000Y-105497238D01*
X51776380Y-105354380D01*
X51776380Y-105259142D01*
X51824000Y-105116285D01*
X51871619Y-105068666D01*
X51871619Y-104687714D02*
X51824000Y-104640095D01*
X51776380Y-104544857D01*
X51776380Y-104306761D01*
X51824000Y-104211523D01*
X51871619Y-104163904D01*
X51966857Y-104116285D01*
X52062095Y-104116285D01*
X52204952Y-104163904D01*
X52776380Y-104735333D01*
X52776380Y-104116285D01*
X52284380Y-109981904D02*
X53093904Y-109981904D01*
X53189142Y-109934285D01*
X53236761Y-109886666D01*
X53284380Y-109791428D01*
X53284380Y-109600952D01*
X53236761Y-109505714D01*
X53189142Y-109458095D01*
X53093904Y-109410476D01*
X52284380Y-109410476D01*
X52617714Y-108505714D02*
X53284380Y-108505714D01*
X52236761Y-108743809D02*
X52951047Y-108981904D01*
X52951047Y-108362857D01*
X71024761Y-111291619D02*
X70929523Y-111244000D01*
X70834285Y-111148761D01*
X70691428Y-111005904D01*
X70596190Y-110958285D01*
X70500952Y-110958285D01*
X70548571Y-111196380D02*
X70453333Y-111148761D01*
X70358095Y-111053523D01*
X70310476Y-110863047D01*
X70310476Y-110529714D01*
X70358095Y-110339238D01*
X70453333Y-110244000D01*
X70548571Y-110196380D01*
X70739047Y-110196380D01*
X70834285Y-110244000D01*
X70929523Y-110339238D01*
X70977142Y-110529714D01*
X70977142Y-110863047D01*
X70929523Y-111053523D01*
X70834285Y-111148761D01*
X70739047Y-111196380D01*
X70548571Y-111196380D01*
X71929523Y-111196380D02*
X71358095Y-111196380D01*
X71643809Y-111196380D02*
X71643809Y-110196380D01*
X71548571Y-110339238D01*
X71453333Y-110434476D01*
X71358095Y-110482095D01*
X75866666Y-114514380D02*
X75866666Y-115228666D01*
X75819047Y-115371523D01*
X75723809Y-115466761D01*
X75580952Y-115514380D01*
X75485714Y-115514380D01*
X76295238Y-114609619D02*
X76342857Y-114562000D01*
X76438095Y-114514380D01*
X76676190Y-114514380D01*
X76771428Y-114562000D01*
X76819047Y-114609619D01*
X76866666Y-114704857D01*
X76866666Y-114800095D01*
X76819047Y-114942952D01*
X76247619Y-115514380D01*
X76866666Y-115514380D01*
M02*
