G04 #@! TF.GenerationSoftware,KiCad,Pcbnew,5.1.4*
G04 #@! TF.CreationDate,2019-11-23T01:56:27+01:00*
G04 #@! TF.ProjectId,antivol,616e7469-766f-46c2-9e6b-696361645f70,rev?*
G04 #@! TF.SameCoordinates,Original*
G04 #@! TF.FileFunction,Copper,L1,Top*
G04 #@! TF.FilePolarity,Positive*
%FSLAX46Y46*%
G04 Gerber Fmt 4.6, Leading zero omitted, Abs format (unit mm)*
G04 Created by KiCad (PCBNEW 5.1.4) date 2019-11-23 01:56:27*
%MOMM*%
%LPD*%
G04 APERTURE LIST*
%ADD10O,1.700000X1.700000*%
%ADD11R,1.700000X1.700000*%
%ADD12C,0.100000*%
%ADD13C,0.875000*%
%ADD14R,0.900000X0.800000*%
%ADD15C,1.125000*%
%ADD16C,1.300000*%
%ADD17C,2.000000*%
%ADD18C,1.500000*%
%ADD19R,1.060000X0.650000*%
%ADD20R,1.800000X2.500000*%
%ADD21C,0.975000*%
%ADD22R,0.350000X0.375000*%
%ADD23R,0.375000X0.350000*%
%ADD24C,0.800000*%
%ADD25C,0.250000*%
%ADD26C,0.508000*%
%ADD27C,0.254000*%
G04 APERTURE END LIST*
D10*
X72136000Y-102362000D03*
D11*
X72136000Y-99822000D03*
D12*
G36*
X52093691Y-98826553D02*
G01*
X52114926Y-98829703D01*
X52135750Y-98834919D01*
X52155962Y-98842151D01*
X52175368Y-98851330D01*
X52193781Y-98862366D01*
X52211024Y-98875154D01*
X52226930Y-98889570D01*
X52241346Y-98905476D01*
X52254134Y-98922719D01*
X52265170Y-98941132D01*
X52274349Y-98960538D01*
X52281581Y-98980750D01*
X52286797Y-99001574D01*
X52289947Y-99022809D01*
X52291000Y-99044250D01*
X52291000Y-99481750D01*
X52289947Y-99503191D01*
X52286797Y-99524426D01*
X52281581Y-99545250D01*
X52274349Y-99565462D01*
X52265170Y-99584868D01*
X52254134Y-99603281D01*
X52241346Y-99620524D01*
X52226930Y-99636430D01*
X52211024Y-99650846D01*
X52193781Y-99663634D01*
X52175368Y-99674670D01*
X52155962Y-99683849D01*
X52135750Y-99691081D01*
X52114926Y-99696297D01*
X52093691Y-99699447D01*
X52072250Y-99700500D01*
X51559750Y-99700500D01*
X51538309Y-99699447D01*
X51517074Y-99696297D01*
X51496250Y-99691081D01*
X51476038Y-99683849D01*
X51456632Y-99674670D01*
X51438219Y-99663634D01*
X51420976Y-99650846D01*
X51405070Y-99636430D01*
X51390654Y-99620524D01*
X51377866Y-99603281D01*
X51366830Y-99584868D01*
X51357651Y-99565462D01*
X51350419Y-99545250D01*
X51345203Y-99524426D01*
X51342053Y-99503191D01*
X51341000Y-99481750D01*
X51341000Y-99044250D01*
X51342053Y-99022809D01*
X51345203Y-99001574D01*
X51350419Y-98980750D01*
X51357651Y-98960538D01*
X51366830Y-98941132D01*
X51377866Y-98922719D01*
X51390654Y-98905476D01*
X51405070Y-98889570D01*
X51420976Y-98875154D01*
X51438219Y-98862366D01*
X51456632Y-98851330D01*
X51476038Y-98842151D01*
X51496250Y-98834919D01*
X51517074Y-98829703D01*
X51538309Y-98826553D01*
X51559750Y-98825500D01*
X52072250Y-98825500D01*
X52093691Y-98826553D01*
X52093691Y-98826553D01*
G37*
D13*
X51816000Y-99263000D03*
D12*
G36*
X52093691Y-100401553D02*
G01*
X52114926Y-100404703D01*
X52135750Y-100409919D01*
X52155962Y-100417151D01*
X52175368Y-100426330D01*
X52193781Y-100437366D01*
X52211024Y-100450154D01*
X52226930Y-100464570D01*
X52241346Y-100480476D01*
X52254134Y-100497719D01*
X52265170Y-100516132D01*
X52274349Y-100535538D01*
X52281581Y-100555750D01*
X52286797Y-100576574D01*
X52289947Y-100597809D01*
X52291000Y-100619250D01*
X52291000Y-101056750D01*
X52289947Y-101078191D01*
X52286797Y-101099426D01*
X52281581Y-101120250D01*
X52274349Y-101140462D01*
X52265170Y-101159868D01*
X52254134Y-101178281D01*
X52241346Y-101195524D01*
X52226930Y-101211430D01*
X52211024Y-101225846D01*
X52193781Y-101238634D01*
X52175368Y-101249670D01*
X52155962Y-101258849D01*
X52135750Y-101266081D01*
X52114926Y-101271297D01*
X52093691Y-101274447D01*
X52072250Y-101275500D01*
X51559750Y-101275500D01*
X51538309Y-101274447D01*
X51517074Y-101271297D01*
X51496250Y-101266081D01*
X51476038Y-101258849D01*
X51456632Y-101249670D01*
X51438219Y-101238634D01*
X51420976Y-101225846D01*
X51405070Y-101211430D01*
X51390654Y-101195524D01*
X51377866Y-101178281D01*
X51366830Y-101159868D01*
X51357651Y-101140462D01*
X51350419Y-101120250D01*
X51345203Y-101099426D01*
X51342053Y-101078191D01*
X51341000Y-101056750D01*
X51341000Y-100619250D01*
X51342053Y-100597809D01*
X51345203Y-100576574D01*
X51350419Y-100555750D01*
X51357651Y-100535538D01*
X51366830Y-100516132D01*
X51377866Y-100497719D01*
X51390654Y-100480476D01*
X51405070Y-100464570D01*
X51420976Y-100450154D01*
X51438219Y-100437366D01*
X51456632Y-100426330D01*
X51476038Y-100417151D01*
X51496250Y-100409919D01*
X51517074Y-100404703D01*
X51538309Y-100401553D01*
X51559750Y-100400500D01*
X52072250Y-100400500D01*
X52093691Y-100401553D01*
X52093691Y-100401553D01*
G37*
D13*
X51816000Y-100838000D03*
D12*
G36*
X58443691Y-100147553D02*
G01*
X58464926Y-100150703D01*
X58485750Y-100155919D01*
X58505962Y-100163151D01*
X58525368Y-100172330D01*
X58543781Y-100183366D01*
X58561024Y-100196154D01*
X58576930Y-100210570D01*
X58591346Y-100226476D01*
X58604134Y-100243719D01*
X58615170Y-100262132D01*
X58624349Y-100281538D01*
X58631581Y-100301750D01*
X58636797Y-100322574D01*
X58639947Y-100343809D01*
X58641000Y-100365250D01*
X58641000Y-100802750D01*
X58639947Y-100824191D01*
X58636797Y-100845426D01*
X58631581Y-100866250D01*
X58624349Y-100886462D01*
X58615170Y-100905868D01*
X58604134Y-100924281D01*
X58591346Y-100941524D01*
X58576930Y-100957430D01*
X58561024Y-100971846D01*
X58543781Y-100984634D01*
X58525368Y-100995670D01*
X58505962Y-101004849D01*
X58485750Y-101012081D01*
X58464926Y-101017297D01*
X58443691Y-101020447D01*
X58422250Y-101021500D01*
X57909750Y-101021500D01*
X57888309Y-101020447D01*
X57867074Y-101017297D01*
X57846250Y-101012081D01*
X57826038Y-101004849D01*
X57806632Y-100995670D01*
X57788219Y-100984634D01*
X57770976Y-100971846D01*
X57755070Y-100957430D01*
X57740654Y-100941524D01*
X57727866Y-100924281D01*
X57716830Y-100905868D01*
X57707651Y-100886462D01*
X57700419Y-100866250D01*
X57695203Y-100845426D01*
X57692053Y-100824191D01*
X57691000Y-100802750D01*
X57691000Y-100365250D01*
X57692053Y-100343809D01*
X57695203Y-100322574D01*
X57700419Y-100301750D01*
X57707651Y-100281538D01*
X57716830Y-100262132D01*
X57727866Y-100243719D01*
X57740654Y-100226476D01*
X57755070Y-100210570D01*
X57770976Y-100196154D01*
X57788219Y-100183366D01*
X57806632Y-100172330D01*
X57826038Y-100163151D01*
X57846250Y-100155919D01*
X57867074Y-100150703D01*
X57888309Y-100147553D01*
X57909750Y-100146500D01*
X58422250Y-100146500D01*
X58443691Y-100147553D01*
X58443691Y-100147553D01*
G37*
D13*
X58166000Y-100584000D03*
D12*
G36*
X58443691Y-98572553D02*
G01*
X58464926Y-98575703D01*
X58485750Y-98580919D01*
X58505962Y-98588151D01*
X58525368Y-98597330D01*
X58543781Y-98608366D01*
X58561024Y-98621154D01*
X58576930Y-98635570D01*
X58591346Y-98651476D01*
X58604134Y-98668719D01*
X58615170Y-98687132D01*
X58624349Y-98706538D01*
X58631581Y-98726750D01*
X58636797Y-98747574D01*
X58639947Y-98768809D01*
X58641000Y-98790250D01*
X58641000Y-99227750D01*
X58639947Y-99249191D01*
X58636797Y-99270426D01*
X58631581Y-99291250D01*
X58624349Y-99311462D01*
X58615170Y-99330868D01*
X58604134Y-99349281D01*
X58591346Y-99366524D01*
X58576930Y-99382430D01*
X58561024Y-99396846D01*
X58543781Y-99409634D01*
X58525368Y-99420670D01*
X58505962Y-99429849D01*
X58485750Y-99437081D01*
X58464926Y-99442297D01*
X58443691Y-99445447D01*
X58422250Y-99446500D01*
X57909750Y-99446500D01*
X57888309Y-99445447D01*
X57867074Y-99442297D01*
X57846250Y-99437081D01*
X57826038Y-99429849D01*
X57806632Y-99420670D01*
X57788219Y-99409634D01*
X57770976Y-99396846D01*
X57755070Y-99382430D01*
X57740654Y-99366524D01*
X57727866Y-99349281D01*
X57716830Y-99330868D01*
X57707651Y-99311462D01*
X57700419Y-99291250D01*
X57695203Y-99270426D01*
X57692053Y-99249191D01*
X57691000Y-99227750D01*
X57691000Y-98790250D01*
X57692053Y-98768809D01*
X57695203Y-98747574D01*
X57700419Y-98726750D01*
X57707651Y-98706538D01*
X57716830Y-98687132D01*
X57727866Y-98668719D01*
X57740654Y-98651476D01*
X57755070Y-98635570D01*
X57770976Y-98621154D01*
X57788219Y-98608366D01*
X57806632Y-98597330D01*
X57826038Y-98588151D01*
X57846250Y-98580919D01*
X57867074Y-98575703D01*
X57888309Y-98572553D01*
X57909750Y-98571500D01*
X58422250Y-98571500D01*
X58443691Y-98572553D01*
X58443691Y-98572553D01*
G37*
D13*
X58166000Y-99009000D03*
D14*
X56134000Y-100076000D03*
X54134000Y-101026000D03*
X54134000Y-99126000D03*
D12*
G36*
X58546005Y-109553204D02*
G01*
X58570273Y-109556804D01*
X58594072Y-109562765D01*
X58617171Y-109571030D01*
X58639350Y-109581520D01*
X58660393Y-109594132D01*
X58680099Y-109608747D01*
X58698277Y-109625223D01*
X58714753Y-109643401D01*
X58729368Y-109663107D01*
X58741980Y-109684150D01*
X58752470Y-109706329D01*
X58760735Y-109729428D01*
X58766696Y-109753227D01*
X58770296Y-109777495D01*
X58771500Y-109801999D01*
X58771500Y-112702001D01*
X58770296Y-112726505D01*
X58766696Y-112750773D01*
X58760735Y-112774572D01*
X58752470Y-112797671D01*
X58741980Y-112819850D01*
X58729368Y-112840893D01*
X58714753Y-112860599D01*
X58698277Y-112878777D01*
X58680099Y-112895253D01*
X58660393Y-112909868D01*
X58639350Y-112922480D01*
X58617171Y-112932970D01*
X58594072Y-112941235D01*
X58570273Y-112947196D01*
X58546005Y-112950796D01*
X58521501Y-112952000D01*
X57896499Y-112952000D01*
X57871995Y-112950796D01*
X57847727Y-112947196D01*
X57823928Y-112941235D01*
X57800829Y-112932970D01*
X57778650Y-112922480D01*
X57757607Y-112909868D01*
X57737901Y-112895253D01*
X57719723Y-112878777D01*
X57703247Y-112860599D01*
X57688632Y-112840893D01*
X57676020Y-112819850D01*
X57665530Y-112797671D01*
X57657265Y-112774572D01*
X57651304Y-112750773D01*
X57647704Y-112726505D01*
X57646500Y-112702001D01*
X57646500Y-109801999D01*
X57647704Y-109777495D01*
X57651304Y-109753227D01*
X57657265Y-109729428D01*
X57665530Y-109706329D01*
X57676020Y-109684150D01*
X57688632Y-109663107D01*
X57703247Y-109643401D01*
X57719723Y-109625223D01*
X57737901Y-109608747D01*
X57757607Y-109594132D01*
X57778650Y-109581520D01*
X57800829Y-109571030D01*
X57823928Y-109562765D01*
X57847727Y-109556804D01*
X57871995Y-109553204D01*
X57896499Y-109552000D01*
X58521501Y-109552000D01*
X58546005Y-109553204D01*
X58546005Y-109553204D01*
G37*
D15*
X58209000Y-111252000D03*
D12*
G36*
X62821005Y-109553204D02*
G01*
X62845273Y-109556804D01*
X62869072Y-109562765D01*
X62892171Y-109571030D01*
X62914350Y-109581520D01*
X62935393Y-109594132D01*
X62955099Y-109608747D01*
X62973277Y-109625223D01*
X62989753Y-109643401D01*
X63004368Y-109663107D01*
X63016980Y-109684150D01*
X63027470Y-109706329D01*
X63035735Y-109729428D01*
X63041696Y-109753227D01*
X63045296Y-109777495D01*
X63046500Y-109801999D01*
X63046500Y-112702001D01*
X63045296Y-112726505D01*
X63041696Y-112750773D01*
X63035735Y-112774572D01*
X63027470Y-112797671D01*
X63016980Y-112819850D01*
X63004368Y-112840893D01*
X62989753Y-112860599D01*
X62973277Y-112878777D01*
X62955099Y-112895253D01*
X62935393Y-112909868D01*
X62914350Y-112922480D01*
X62892171Y-112932970D01*
X62869072Y-112941235D01*
X62845273Y-112947196D01*
X62821005Y-112950796D01*
X62796501Y-112952000D01*
X62171499Y-112952000D01*
X62146995Y-112950796D01*
X62122727Y-112947196D01*
X62098928Y-112941235D01*
X62075829Y-112932970D01*
X62053650Y-112922480D01*
X62032607Y-112909868D01*
X62012901Y-112895253D01*
X61994723Y-112878777D01*
X61978247Y-112860599D01*
X61963632Y-112840893D01*
X61951020Y-112819850D01*
X61940530Y-112797671D01*
X61932265Y-112774572D01*
X61926304Y-112750773D01*
X61922704Y-112726505D01*
X61921500Y-112702001D01*
X61921500Y-109801999D01*
X61922704Y-109777495D01*
X61926304Y-109753227D01*
X61932265Y-109729428D01*
X61940530Y-109706329D01*
X61951020Y-109684150D01*
X61963632Y-109663107D01*
X61978247Y-109643401D01*
X61994723Y-109625223D01*
X62012901Y-109608747D01*
X62032607Y-109594132D01*
X62053650Y-109581520D01*
X62075829Y-109571030D01*
X62098928Y-109562765D01*
X62122727Y-109556804D01*
X62146995Y-109553204D01*
X62171499Y-109552000D01*
X62796501Y-109552000D01*
X62821005Y-109553204D01*
X62821005Y-109553204D01*
G37*
D15*
X62484000Y-111252000D03*
D10*
X72136000Y-113030000D03*
D11*
X72136000Y-115570000D03*
D16*
X58945000Y-108360000D03*
X58945000Y-104760000D03*
X60745000Y-106560000D03*
X57145000Y-106560000D03*
X57145000Y-108360000D03*
X57145000Y-104760000D03*
X60745000Y-108360000D03*
D17*
X58945000Y-106560000D03*
D16*
X60745000Y-104760000D03*
D12*
G36*
X53910191Y-106206053D02*
G01*
X53931426Y-106209203D01*
X53952250Y-106214419D01*
X53972462Y-106221651D01*
X53991868Y-106230830D01*
X54010281Y-106241866D01*
X54027524Y-106254654D01*
X54043430Y-106269070D01*
X54057846Y-106284976D01*
X54070634Y-106302219D01*
X54081670Y-106320632D01*
X54090849Y-106340038D01*
X54098081Y-106360250D01*
X54103297Y-106381074D01*
X54106447Y-106402309D01*
X54107500Y-106423750D01*
X54107500Y-106936250D01*
X54106447Y-106957691D01*
X54103297Y-106978926D01*
X54098081Y-106999750D01*
X54090849Y-107019962D01*
X54081670Y-107039368D01*
X54070634Y-107057781D01*
X54057846Y-107075024D01*
X54043430Y-107090930D01*
X54027524Y-107105346D01*
X54010281Y-107118134D01*
X53991868Y-107129170D01*
X53972462Y-107138349D01*
X53952250Y-107145581D01*
X53931426Y-107150797D01*
X53910191Y-107153947D01*
X53888750Y-107155000D01*
X53451250Y-107155000D01*
X53429809Y-107153947D01*
X53408574Y-107150797D01*
X53387750Y-107145581D01*
X53367538Y-107138349D01*
X53348132Y-107129170D01*
X53329719Y-107118134D01*
X53312476Y-107105346D01*
X53296570Y-107090930D01*
X53282154Y-107075024D01*
X53269366Y-107057781D01*
X53258330Y-107039368D01*
X53249151Y-107019962D01*
X53241919Y-106999750D01*
X53236703Y-106978926D01*
X53233553Y-106957691D01*
X53232500Y-106936250D01*
X53232500Y-106423750D01*
X53233553Y-106402309D01*
X53236703Y-106381074D01*
X53241919Y-106360250D01*
X53249151Y-106340038D01*
X53258330Y-106320632D01*
X53269366Y-106302219D01*
X53282154Y-106284976D01*
X53296570Y-106269070D01*
X53312476Y-106254654D01*
X53329719Y-106241866D01*
X53348132Y-106230830D01*
X53367538Y-106221651D01*
X53387750Y-106214419D01*
X53408574Y-106209203D01*
X53429809Y-106206053D01*
X53451250Y-106205000D01*
X53888750Y-106205000D01*
X53910191Y-106206053D01*
X53910191Y-106206053D01*
G37*
D13*
X53670000Y-106680000D03*
D12*
G36*
X55485191Y-106206053D02*
G01*
X55506426Y-106209203D01*
X55527250Y-106214419D01*
X55547462Y-106221651D01*
X55566868Y-106230830D01*
X55585281Y-106241866D01*
X55602524Y-106254654D01*
X55618430Y-106269070D01*
X55632846Y-106284976D01*
X55645634Y-106302219D01*
X55656670Y-106320632D01*
X55665849Y-106340038D01*
X55673081Y-106360250D01*
X55678297Y-106381074D01*
X55681447Y-106402309D01*
X55682500Y-106423750D01*
X55682500Y-106936250D01*
X55681447Y-106957691D01*
X55678297Y-106978926D01*
X55673081Y-106999750D01*
X55665849Y-107019962D01*
X55656670Y-107039368D01*
X55645634Y-107057781D01*
X55632846Y-107075024D01*
X55618430Y-107090930D01*
X55602524Y-107105346D01*
X55585281Y-107118134D01*
X55566868Y-107129170D01*
X55547462Y-107138349D01*
X55527250Y-107145581D01*
X55506426Y-107150797D01*
X55485191Y-107153947D01*
X55463750Y-107155000D01*
X55026250Y-107155000D01*
X55004809Y-107153947D01*
X54983574Y-107150797D01*
X54962750Y-107145581D01*
X54942538Y-107138349D01*
X54923132Y-107129170D01*
X54904719Y-107118134D01*
X54887476Y-107105346D01*
X54871570Y-107090930D01*
X54857154Y-107075024D01*
X54844366Y-107057781D01*
X54833330Y-107039368D01*
X54824151Y-107019962D01*
X54816919Y-106999750D01*
X54811703Y-106978926D01*
X54808553Y-106957691D01*
X54807500Y-106936250D01*
X54807500Y-106423750D01*
X54808553Y-106402309D01*
X54811703Y-106381074D01*
X54816919Y-106360250D01*
X54824151Y-106340038D01*
X54833330Y-106320632D01*
X54844366Y-106302219D01*
X54857154Y-106284976D01*
X54871570Y-106269070D01*
X54887476Y-106254654D01*
X54904719Y-106241866D01*
X54923132Y-106230830D01*
X54942538Y-106221651D01*
X54962750Y-106214419D01*
X54983574Y-106209203D01*
X55004809Y-106206053D01*
X55026250Y-106205000D01*
X55463750Y-106205000D01*
X55485191Y-106206053D01*
X55485191Y-106206053D01*
G37*
D13*
X55245000Y-106680000D03*
D12*
G36*
X54887691Y-111958553D02*
G01*
X54908926Y-111961703D01*
X54929750Y-111966919D01*
X54949962Y-111974151D01*
X54969368Y-111983330D01*
X54987781Y-111994366D01*
X55005024Y-112007154D01*
X55020930Y-112021570D01*
X55035346Y-112037476D01*
X55048134Y-112054719D01*
X55059170Y-112073132D01*
X55068349Y-112092538D01*
X55075581Y-112112750D01*
X55080797Y-112133574D01*
X55083947Y-112154809D01*
X55085000Y-112176250D01*
X55085000Y-112613750D01*
X55083947Y-112635191D01*
X55080797Y-112656426D01*
X55075581Y-112677250D01*
X55068349Y-112697462D01*
X55059170Y-112716868D01*
X55048134Y-112735281D01*
X55035346Y-112752524D01*
X55020930Y-112768430D01*
X55005024Y-112782846D01*
X54987781Y-112795634D01*
X54969368Y-112806670D01*
X54949962Y-112815849D01*
X54929750Y-112823081D01*
X54908926Y-112828297D01*
X54887691Y-112831447D01*
X54866250Y-112832500D01*
X54353750Y-112832500D01*
X54332309Y-112831447D01*
X54311074Y-112828297D01*
X54290250Y-112823081D01*
X54270038Y-112815849D01*
X54250632Y-112806670D01*
X54232219Y-112795634D01*
X54214976Y-112782846D01*
X54199070Y-112768430D01*
X54184654Y-112752524D01*
X54171866Y-112735281D01*
X54160830Y-112716868D01*
X54151651Y-112697462D01*
X54144419Y-112677250D01*
X54139203Y-112656426D01*
X54136053Y-112635191D01*
X54135000Y-112613750D01*
X54135000Y-112176250D01*
X54136053Y-112154809D01*
X54139203Y-112133574D01*
X54144419Y-112112750D01*
X54151651Y-112092538D01*
X54160830Y-112073132D01*
X54171866Y-112054719D01*
X54184654Y-112037476D01*
X54199070Y-112021570D01*
X54214976Y-112007154D01*
X54232219Y-111994366D01*
X54250632Y-111983330D01*
X54270038Y-111974151D01*
X54290250Y-111966919D01*
X54311074Y-111961703D01*
X54332309Y-111958553D01*
X54353750Y-111957500D01*
X54866250Y-111957500D01*
X54887691Y-111958553D01*
X54887691Y-111958553D01*
G37*
D13*
X54610000Y-112395000D03*
D12*
G36*
X54887691Y-113533553D02*
G01*
X54908926Y-113536703D01*
X54929750Y-113541919D01*
X54949962Y-113549151D01*
X54969368Y-113558330D01*
X54987781Y-113569366D01*
X55005024Y-113582154D01*
X55020930Y-113596570D01*
X55035346Y-113612476D01*
X55048134Y-113629719D01*
X55059170Y-113648132D01*
X55068349Y-113667538D01*
X55075581Y-113687750D01*
X55080797Y-113708574D01*
X55083947Y-113729809D01*
X55085000Y-113751250D01*
X55085000Y-114188750D01*
X55083947Y-114210191D01*
X55080797Y-114231426D01*
X55075581Y-114252250D01*
X55068349Y-114272462D01*
X55059170Y-114291868D01*
X55048134Y-114310281D01*
X55035346Y-114327524D01*
X55020930Y-114343430D01*
X55005024Y-114357846D01*
X54987781Y-114370634D01*
X54969368Y-114381670D01*
X54949962Y-114390849D01*
X54929750Y-114398081D01*
X54908926Y-114403297D01*
X54887691Y-114406447D01*
X54866250Y-114407500D01*
X54353750Y-114407500D01*
X54332309Y-114406447D01*
X54311074Y-114403297D01*
X54290250Y-114398081D01*
X54270038Y-114390849D01*
X54250632Y-114381670D01*
X54232219Y-114370634D01*
X54214976Y-114357846D01*
X54199070Y-114343430D01*
X54184654Y-114327524D01*
X54171866Y-114310281D01*
X54160830Y-114291868D01*
X54151651Y-114272462D01*
X54144419Y-114252250D01*
X54139203Y-114231426D01*
X54136053Y-114210191D01*
X54135000Y-114188750D01*
X54135000Y-113751250D01*
X54136053Y-113729809D01*
X54139203Y-113708574D01*
X54144419Y-113687750D01*
X54151651Y-113667538D01*
X54160830Y-113648132D01*
X54171866Y-113629719D01*
X54184654Y-113612476D01*
X54199070Y-113596570D01*
X54214976Y-113582154D01*
X54232219Y-113569366D01*
X54250632Y-113558330D01*
X54270038Y-113549151D01*
X54290250Y-113541919D01*
X54311074Y-113536703D01*
X54332309Y-113533553D01*
X54353750Y-113532500D01*
X54866250Y-113532500D01*
X54887691Y-113533553D01*
X54887691Y-113533553D01*
G37*
D13*
X54610000Y-113970000D03*
D18*
X62230000Y-116205000D03*
X57150000Y-116205000D03*
X54610000Y-116205000D03*
X59690000Y-116205000D03*
X67310000Y-116078000D03*
X64770000Y-116205000D03*
X52070000Y-116205000D03*
D14*
X67596000Y-105222000D03*
X69596000Y-104272000D03*
X69596000Y-106172000D03*
D19*
X66716000Y-111638000D03*
X66716000Y-113538000D03*
X64516000Y-113538000D03*
X64516000Y-112588000D03*
X64516000Y-111638000D03*
X66634000Y-100772000D03*
X66634000Y-98872000D03*
X68834000Y-98872000D03*
X68834000Y-99822000D03*
X68834000Y-100772000D03*
D12*
G36*
X66737191Y-101888053D02*
G01*
X66758426Y-101891203D01*
X66779250Y-101896419D01*
X66799462Y-101903651D01*
X66818868Y-101912830D01*
X66837281Y-101923866D01*
X66854524Y-101936654D01*
X66870430Y-101951070D01*
X66884846Y-101966976D01*
X66897634Y-101984219D01*
X66908670Y-102002632D01*
X66917849Y-102022038D01*
X66925081Y-102042250D01*
X66930297Y-102063074D01*
X66933447Y-102084309D01*
X66934500Y-102105750D01*
X66934500Y-102618250D01*
X66933447Y-102639691D01*
X66930297Y-102660926D01*
X66925081Y-102681750D01*
X66917849Y-102701962D01*
X66908670Y-102721368D01*
X66897634Y-102739781D01*
X66884846Y-102757024D01*
X66870430Y-102772930D01*
X66854524Y-102787346D01*
X66837281Y-102800134D01*
X66818868Y-102811170D01*
X66799462Y-102820349D01*
X66779250Y-102827581D01*
X66758426Y-102832797D01*
X66737191Y-102835947D01*
X66715750Y-102837000D01*
X66278250Y-102837000D01*
X66256809Y-102835947D01*
X66235574Y-102832797D01*
X66214750Y-102827581D01*
X66194538Y-102820349D01*
X66175132Y-102811170D01*
X66156719Y-102800134D01*
X66139476Y-102787346D01*
X66123570Y-102772930D01*
X66109154Y-102757024D01*
X66096366Y-102739781D01*
X66085330Y-102721368D01*
X66076151Y-102701962D01*
X66068919Y-102681750D01*
X66063703Y-102660926D01*
X66060553Y-102639691D01*
X66059500Y-102618250D01*
X66059500Y-102105750D01*
X66060553Y-102084309D01*
X66063703Y-102063074D01*
X66068919Y-102042250D01*
X66076151Y-102022038D01*
X66085330Y-102002632D01*
X66096366Y-101984219D01*
X66109154Y-101966976D01*
X66123570Y-101951070D01*
X66139476Y-101936654D01*
X66156719Y-101923866D01*
X66175132Y-101912830D01*
X66194538Y-101903651D01*
X66214750Y-101896419D01*
X66235574Y-101891203D01*
X66256809Y-101888053D01*
X66278250Y-101887000D01*
X66715750Y-101887000D01*
X66737191Y-101888053D01*
X66737191Y-101888053D01*
G37*
D13*
X66497000Y-102362000D03*
D12*
G36*
X68312191Y-101888053D02*
G01*
X68333426Y-101891203D01*
X68354250Y-101896419D01*
X68374462Y-101903651D01*
X68393868Y-101912830D01*
X68412281Y-101923866D01*
X68429524Y-101936654D01*
X68445430Y-101951070D01*
X68459846Y-101966976D01*
X68472634Y-101984219D01*
X68483670Y-102002632D01*
X68492849Y-102022038D01*
X68500081Y-102042250D01*
X68505297Y-102063074D01*
X68508447Y-102084309D01*
X68509500Y-102105750D01*
X68509500Y-102618250D01*
X68508447Y-102639691D01*
X68505297Y-102660926D01*
X68500081Y-102681750D01*
X68492849Y-102701962D01*
X68483670Y-102721368D01*
X68472634Y-102739781D01*
X68459846Y-102757024D01*
X68445430Y-102772930D01*
X68429524Y-102787346D01*
X68412281Y-102800134D01*
X68393868Y-102811170D01*
X68374462Y-102820349D01*
X68354250Y-102827581D01*
X68333426Y-102832797D01*
X68312191Y-102835947D01*
X68290750Y-102837000D01*
X67853250Y-102837000D01*
X67831809Y-102835947D01*
X67810574Y-102832797D01*
X67789750Y-102827581D01*
X67769538Y-102820349D01*
X67750132Y-102811170D01*
X67731719Y-102800134D01*
X67714476Y-102787346D01*
X67698570Y-102772930D01*
X67684154Y-102757024D01*
X67671366Y-102739781D01*
X67660330Y-102721368D01*
X67651151Y-102701962D01*
X67643919Y-102681750D01*
X67638703Y-102660926D01*
X67635553Y-102639691D01*
X67634500Y-102618250D01*
X67634500Y-102105750D01*
X67635553Y-102084309D01*
X67638703Y-102063074D01*
X67643919Y-102042250D01*
X67651151Y-102022038D01*
X67660330Y-102002632D01*
X67671366Y-101984219D01*
X67684154Y-101966976D01*
X67698570Y-101951070D01*
X67714476Y-101936654D01*
X67731719Y-101923866D01*
X67750132Y-101912830D01*
X67769538Y-101903651D01*
X67789750Y-101896419D01*
X67810574Y-101891203D01*
X67831809Y-101888053D01*
X67853250Y-101887000D01*
X68290750Y-101887000D01*
X68312191Y-101888053D01*
X68312191Y-101888053D01*
G37*
D13*
X68072000Y-102362000D03*
D12*
G36*
X60133191Y-98586053D02*
G01*
X60154426Y-98589203D01*
X60175250Y-98594419D01*
X60195462Y-98601651D01*
X60214868Y-98610830D01*
X60233281Y-98621866D01*
X60250524Y-98634654D01*
X60266430Y-98649070D01*
X60280846Y-98664976D01*
X60293634Y-98682219D01*
X60304670Y-98700632D01*
X60313849Y-98720038D01*
X60321081Y-98740250D01*
X60326297Y-98761074D01*
X60329447Y-98782309D01*
X60330500Y-98803750D01*
X60330500Y-99316250D01*
X60329447Y-99337691D01*
X60326297Y-99358926D01*
X60321081Y-99379750D01*
X60313849Y-99399962D01*
X60304670Y-99419368D01*
X60293634Y-99437781D01*
X60280846Y-99455024D01*
X60266430Y-99470930D01*
X60250524Y-99485346D01*
X60233281Y-99498134D01*
X60214868Y-99509170D01*
X60195462Y-99518349D01*
X60175250Y-99525581D01*
X60154426Y-99530797D01*
X60133191Y-99533947D01*
X60111750Y-99535000D01*
X59674250Y-99535000D01*
X59652809Y-99533947D01*
X59631574Y-99530797D01*
X59610750Y-99525581D01*
X59590538Y-99518349D01*
X59571132Y-99509170D01*
X59552719Y-99498134D01*
X59535476Y-99485346D01*
X59519570Y-99470930D01*
X59505154Y-99455024D01*
X59492366Y-99437781D01*
X59481330Y-99419368D01*
X59472151Y-99399962D01*
X59464919Y-99379750D01*
X59459703Y-99358926D01*
X59456553Y-99337691D01*
X59455500Y-99316250D01*
X59455500Y-98803750D01*
X59456553Y-98782309D01*
X59459703Y-98761074D01*
X59464919Y-98740250D01*
X59472151Y-98720038D01*
X59481330Y-98700632D01*
X59492366Y-98682219D01*
X59505154Y-98664976D01*
X59519570Y-98649070D01*
X59535476Y-98634654D01*
X59552719Y-98621866D01*
X59571132Y-98610830D01*
X59590538Y-98601651D01*
X59610750Y-98594419D01*
X59631574Y-98589203D01*
X59652809Y-98586053D01*
X59674250Y-98585000D01*
X60111750Y-98585000D01*
X60133191Y-98586053D01*
X60133191Y-98586053D01*
G37*
D13*
X59893000Y-99060000D03*
D12*
G36*
X61708191Y-98586053D02*
G01*
X61729426Y-98589203D01*
X61750250Y-98594419D01*
X61770462Y-98601651D01*
X61789868Y-98610830D01*
X61808281Y-98621866D01*
X61825524Y-98634654D01*
X61841430Y-98649070D01*
X61855846Y-98664976D01*
X61868634Y-98682219D01*
X61879670Y-98700632D01*
X61888849Y-98720038D01*
X61896081Y-98740250D01*
X61901297Y-98761074D01*
X61904447Y-98782309D01*
X61905500Y-98803750D01*
X61905500Y-99316250D01*
X61904447Y-99337691D01*
X61901297Y-99358926D01*
X61896081Y-99379750D01*
X61888849Y-99399962D01*
X61879670Y-99419368D01*
X61868634Y-99437781D01*
X61855846Y-99455024D01*
X61841430Y-99470930D01*
X61825524Y-99485346D01*
X61808281Y-99498134D01*
X61789868Y-99509170D01*
X61770462Y-99518349D01*
X61750250Y-99525581D01*
X61729426Y-99530797D01*
X61708191Y-99533947D01*
X61686750Y-99535000D01*
X61249250Y-99535000D01*
X61227809Y-99533947D01*
X61206574Y-99530797D01*
X61185750Y-99525581D01*
X61165538Y-99518349D01*
X61146132Y-99509170D01*
X61127719Y-99498134D01*
X61110476Y-99485346D01*
X61094570Y-99470930D01*
X61080154Y-99455024D01*
X61067366Y-99437781D01*
X61056330Y-99419368D01*
X61047151Y-99399962D01*
X61039919Y-99379750D01*
X61034703Y-99358926D01*
X61031553Y-99337691D01*
X61030500Y-99316250D01*
X61030500Y-98803750D01*
X61031553Y-98782309D01*
X61034703Y-98761074D01*
X61039919Y-98740250D01*
X61047151Y-98720038D01*
X61056330Y-98700632D01*
X61067366Y-98682219D01*
X61080154Y-98664976D01*
X61094570Y-98649070D01*
X61110476Y-98634654D01*
X61127719Y-98621866D01*
X61146132Y-98610830D01*
X61165538Y-98601651D01*
X61185750Y-98594419D01*
X61206574Y-98589203D01*
X61227809Y-98586053D01*
X61249250Y-98585000D01*
X61686750Y-98585000D01*
X61708191Y-98586053D01*
X61708191Y-98586053D01*
G37*
D13*
X61468000Y-99060000D03*
D12*
G36*
X66280191Y-109508053D02*
G01*
X66301426Y-109511203D01*
X66322250Y-109516419D01*
X66342462Y-109523651D01*
X66361868Y-109532830D01*
X66380281Y-109543866D01*
X66397524Y-109556654D01*
X66413430Y-109571070D01*
X66427846Y-109586976D01*
X66440634Y-109604219D01*
X66451670Y-109622632D01*
X66460849Y-109642038D01*
X66468081Y-109662250D01*
X66473297Y-109683074D01*
X66476447Y-109704309D01*
X66477500Y-109725750D01*
X66477500Y-110238250D01*
X66476447Y-110259691D01*
X66473297Y-110280926D01*
X66468081Y-110301750D01*
X66460849Y-110321962D01*
X66451670Y-110341368D01*
X66440634Y-110359781D01*
X66427846Y-110377024D01*
X66413430Y-110392930D01*
X66397524Y-110407346D01*
X66380281Y-110420134D01*
X66361868Y-110431170D01*
X66342462Y-110440349D01*
X66322250Y-110447581D01*
X66301426Y-110452797D01*
X66280191Y-110455947D01*
X66258750Y-110457000D01*
X65821250Y-110457000D01*
X65799809Y-110455947D01*
X65778574Y-110452797D01*
X65757750Y-110447581D01*
X65737538Y-110440349D01*
X65718132Y-110431170D01*
X65699719Y-110420134D01*
X65682476Y-110407346D01*
X65666570Y-110392930D01*
X65652154Y-110377024D01*
X65639366Y-110359781D01*
X65628330Y-110341368D01*
X65619151Y-110321962D01*
X65611919Y-110301750D01*
X65606703Y-110280926D01*
X65603553Y-110259691D01*
X65602500Y-110238250D01*
X65602500Y-109725750D01*
X65603553Y-109704309D01*
X65606703Y-109683074D01*
X65611919Y-109662250D01*
X65619151Y-109642038D01*
X65628330Y-109622632D01*
X65639366Y-109604219D01*
X65652154Y-109586976D01*
X65666570Y-109571070D01*
X65682476Y-109556654D01*
X65699719Y-109543866D01*
X65718132Y-109532830D01*
X65737538Y-109523651D01*
X65757750Y-109516419D01*
X65778574Y-109511203D01*
X65799809Y-109508053D01*
X65821250Y-109507000D01*
X66258750Y-109507000D01*
X66280191Y-109508053D01*
X66280191Y-109508053D01*
G37*
D13*
X66040000Y-109982000D03*
D12*
G36*
X64705191Y-109508053D02*
G01*
X64726426Y-109511203D01*
X64747250Y-109516419D01*
X64767462Y-109523651D01*
X64786868Y-109532830D01*
X64805281Y-109543866D01*
X64822524Y-109556654D01*
X64838430Y-109571070D01*
X64852846Y-109586976D01*
X64865634Y-109604219D01*
X64876670Y-109622632D01*
X64885849Y-109642038D01*
X64893081Y-109662250D01*
X64898297Y-109683074D01*
X64901447Y-109704309D01*
X64902500Y-109725750D01*
X64902500Y-110238250D01*
X64901447Y-110259691D01*
X64898297Y-110280926D01*
X64893081Y-110301750D01*
X64885849Y-110321962D01*
X64876670Y-110341368D01*
X64865634Y-110359781D01*
X64852846Y-110377024D01*
X64838430Y-110392930D01*
X64822524Y-110407346D01*
X64805281Y-110420134D01*
X64786868Y-110431170D01*
X64767462Y-110440349D01*
X64747250Y-110447581D01*
X64726426Y-110452797D01*
X64705191Y-110455947D01*
X64683750Y-110457000D01*
X64246250Y-110457000D01*
X64224809Y-110455947D01*
X64203574Y-110452797D01*
X64182750Y-110447581D01*
X64162538Y-110440349D01*
X64143132Y-110431170D01*
X64124719Y-110420134D01*
X64107476Y-110407346D01*
X64091570Y-110392930D01*
X64077154Y-110377024D01*
X64064366Y-110359781D01*
X64053330Y-110341368D01*
X64044151Y-110321962D01*
X64036919Y-110301750D01*
X64031703Y-110280926D01*
X64028553Y-110259691D01*
X64027500Y-110238250D01*
X64027500Y-109725750D01*
X64028553Y-109704309D01*
X64031703Y-109683074D01*
X64036919Y-109662250D01*
X64044151Y-109642038D01*
X64053330Y-109622632D01*
X64064366Y-109604219D01*
X64077154Y-109586976D01*
X64091570Y-109571070D01*
X64107476Y-109556654D01*
X64124719Y-109543866D01*
X64143132Y-109532830D01*
X64162538Y-109523651D01*
X64182750Y-109516419D01*
X64203574Y-109511203D01*
X64224809Y-109508053D01*
X64246250Y-109507000D01*
X64683750Y-109507000D01*
X64705191Y-109508053D01*
X64705191Y-109508053D01*
G37*
D13*
X64465000Y-109982000D03*
D12*
G36*
X66280191Y-107984053D02*
G01*
X66301426Y-107987203D01*
X66322250Y-107992419D01*
X66342462Y-107999651D01*
X66361868Y-108008830D01*
X66380281Y-108019866D01*
X66397524Y-108032654D01*
X66413430Y-108047070D01*
X66427846Y-108062976D01*
X66440634Y-108080219D01*
X66451670Y-108098632D01*
X66460849Y-108118038D01*
X66468081Y-108138250D01*
X66473297Y-108159074D01*
X66476447Y-108180309D01*
X66477500Y-108201750D01*
X66477500Y-108714250D01*
X66476447Y-108735691D01*
X66473297Y-108756926D01*
X66468081Y-108777750D01*
X66460849Y-108797962D01*
X66451670Y-108817368D01*
X66440634Y-108835781D01*
X66427846Y-108853024D01*
X66413430Y-108868930D01*
X66397524Y-108883346D01*
X66380281Y-108896134D01*
X66361868Y-108907170D01*
X66342462Y-108916349D01*
X66322250Y-108923581D01*
X66301426Y-108928797D01*
X66280191Y-108931947D01*
X66258750Y-108933000D01*
X65821250Y-108933000D01*
X65799809Y-108931947D01*
X65778574Y-108928797D01*
X65757750Y-108923581D01*
X65737538Y-108916349D01*
X65718132Y-108907170D01*
X65699719Y-108896134D01*
X65682476Y-108883346D01*
X65666570Y-108868930D01*
X65652154Y-108853024D01*
X65639366Y-108835781D01*
X65628330Y-108817368D01*
X65619151Y-108797962D01*
X65611919Y-108777750D01*
X65606703Y-108756926D01*
X65603553Y-108735691D01*
X65602500Y-108714250D01*
X65602500Y-108201750D01*
X65603553Y-108180309D01*
X65606703Y-108159074D01*
X65611919Y-108138250D01*
X65619151Y-108118038D01*
X65628330Y-108098632D01*
X65639366Y-108080219D01*
X65652154Y-108062976D01*
X65666570Y-108047070D01*
X65682476Y-108032654D01*
X65699719Y-108019866D01*
X65718132Y-108008830D01*
X65737538Y-107999651D01*
X65757750Y-107992419D01*
X65778574Y-107987203D01*
X65799809Y-107984053D01*
X65821250Y-107983000D01*
X66258750Y-107983000D01*
X66280191Y-107984053D01*
X66280191Y-107984053D01*
G37*
D13*
X66040000Y-108458000D03*
D12*
G36*
X64705191Y-107984053D02*
G01*
X64726426Y-107987203D01*
X64747250Y-107992419D01*
X64767462Y-107999651D01*
X64786868Y-108008830D01*
X64805281Y-108019866D01*
X64822524Y-108032654D01*
X64838430Y-108047070D01*
X64852846Y-108062976D01*
X64865634Y-108080219D01*
X64876670Y-108098632D01*
X64885849Y-108118038D01*
X64893081Y-108138250D01*
X64898297Y-108159074D01*
X64901447Y-108180309D01*
X64902500Y-108201750D01*
X64902500Y-108714250D01*
X64901447Y-108735691D01*
X64898297Y-108756926D01*
X64893081Y-108777750D01*
X64885849Y-108797962D01*
X64876670Y-108817368D01*
X64865634Y-108835781D01*
X64852846Y-108853024D01*
X64838430Y-108868930D01*
X64822524Y-108883346D01*
X64805281Y-108896134D01*
X64786868Y-108907170D01*
X64767462Y-108916349D01*
X64747250Y-108923581D01*
X64726426Y-108928797D01*
X64705191Y-108931947D01*
X64683750Y-108933000D01*
X64246250Y-108933000D01*
X64224809Y-108931947D01*
X64203574Y-108928797D01*
X64182750Y-108923581D01*
X64162538Y-108916349D01*
X64143132Y-108907170D01*
X64124719Y-108896134D01*
X64107476Y-108883346D01*
X64091570Y-108868930D01*
X64077154Y-108853024D01*
X64064366Y-108835781D01*
X64053330Y-108817368D01*
X64044151Y-108797962D01*
X64036919Y-108777750D01*
X64031703Y-108756926D01*
X64028553Y-108735691D01*
X64027500Y-108714250D01*
X64027500Y-108201750D01*
X64028553Y-108180309D01*
X64031703Y-108159074D01*
X64036919Y-108138250D01*
X64044151Y-108118038D01*
X64053330Y-108098632D01*
X64064366Y-108080219D01*
X64077154Y-108062976D01*
X64091570Y-108047070D01*
X64107476Y-108032654D01*
X64124719Y-108019866D01*
X64143132Y-108008830D01*
X64162538Y-107999651D01*
X64182750Y-107992419D01*
X64203574Y-107987203D01*
X64224809Y-107984053D01*
X64246250Y-107983000D01*
X64683750Y-107983000D01*
X64705191Y-107984053D01*
X64705191Y-107984053D01*
G37*
D13*
X64465000Y-108458000D03*
D12*
G36*
X52982691Y-113533553D02*
G01*
X53003926Y-113536703D01*
X53024750Y-113541919D01*
X53044962Y-113549151D01*
X53064368Y-113558330D01*
X53082781Y-113569366D01*
X53100024Y-113582154D01*
X53115930Y-113596570D01*
X53130346Y-113612476D01*
X53143134Y-113629719D01*
X53154170Y-113648132D01*
X53163349Y-113667538D01*
X53170581Y-113687750D01*
X53175797Y-113708574D01*
X53178947Y-113729809D01*
X53180000Y-113751250D01*
X53180000Y-114188750D01*
X53178947Y-114210191D01*
X53175797Y-114231426D01*
X53170581Y-114252250D01*
X53163349Y-114272462D01*
X53154170Y-114291868D01*
X53143134Y-114310281D01*
X53130346Y-114327524D01*
X53115930Y-114343430D01*
X53100024Y-114357846D01*
X53082781Y-114370634D01*
X53064368Y-114381670D01*
X53044962Y-114390849D01*
X53024750Y-114398081D01*
X53003926Y-114403297D01*
X52982691Y-114406447D01*
X52961250Y-114407500D01*
X52448750Y-114407500D01*
X52427309Y-114406447D01*
X52406074Y-114403297D01*
X52385250Y-114398081D01*
X52365038Y-114390849D01*
X52345632Y-114381670D01*
X52327219Y-114370634D01*
X52309976Y-114357846D01*
X52294070Y-114343430D01*
X52279654Y-114327524D01*
X52266866Y-114310281D01*
X52255830Y-114291868D01*
X52246651Y-114272462D01*
X52239419Y-114252250D01*
X52234203Y-114231426D01*
X52231053Y-114210191D01*
X52230000Y-114188750D01*
X52230000Y-113751250D01*
X52231053Y-113729809D01*
X52234203Y-113708574D01*
X52239419Y-113687750D01*
X52246651Y-113667538D01*
X52255830Y-113648132D01*
X52266866Y-113629719D01*
X52279654Y-113612476D01*
X52294070Y-113596570D01*
X52309976Y-113582154D01*
X52327219Y-113569366D01*
X52345632Y-113558330D01*
X52365038Y-113549151D01*
X52385250Y-113541919D01*
X52406074Y-113536703D01*
X52427309Y-113533553D01*
X52448750Y-113532500D01*
X52961250Y-113532500D01*
X52982691Y-113533553D01*
X52982691Y-113533553D01*
G37*
D13*
X52705000Y-113970000D03*
D12*
G36*
X52982691Y-111958553D02*
G01*
X53003926Y-111961703D01*
X53024750Y-111966919D01*
X53044962Y-111974151D01*
X53064368Y-111983330D01*
X53082781Y-111994366D01*
X53100024Y-112007154D01*
X53115930Y-112021570D01*
X53130346Y-112037476D01*
X53143134Y-112054719D01*
X53154170Y-112073132D01*
X53163349Y-112092538D01*
X53170581Y-112112750D01*
X53175797Y-112133574D01*
X53178947Y-112154809D01*
X53180000Y-112176250D01*
X53180000Y-112613750D01*
X53178947Y-112635191D01*
X53175797Y-112656426D01*
X53170581Y-112677250D01*
X53163349Y-112697462D01*
X53154170Y-112716868D01*
X53143134Y-112735281D01*
X53130346Y-112752524D01*
X53115930Y-112768430D01*
X53100024Y-112782846D01*
X53082781Y-112795634D01*
X53064368Y-112806670D01*
X53044962Y-112815849D01*
X53024750Y-112823081D01*
X53003926Y-112828297D01*
X52982691Y-112831447D01*
X52961250Y-112832500D01*
X52448750Y-112832500D01*
X52427309Y-112831447D01*
X52406074Y-112828297D01*
X52385250Y-112823081D01*
X52365038Y-112815849D01*
X52345632Y-112806670D01*
X52327219Y-112795634D01*
X52309976Y-112782846D01*
X52294070Y-112768430D01*
X52279654Y-112752524D01*
X52266866Y-112735281D01*
X52255830Y-112716868D01*
X52246651Y-112697462D01*
X52239419Y-112677250D01*
X52234203Y-112656426D01*
X52231053Y-112635191D01*
X52230000Y-112613750D01*
X52230000Y-112176250D01*
X52231053Y-112154809D01*
X52234203Y-112133574D01*
X52239419Y-112112750D01*
X52246651Y-112092538D01*
X52255830Y-112073132D01*
X52266866Y-112054719D01*
X52279654Y-112037476D01*
X52294070Y-112021570D01*
X52309976Y-112007154D01*
X52327219Y-111994366D01*
X52345632Y-111983330D01*
X52365038Y-111974151D01*
X52385250Y-111966919D01*
X52406074Y-111961703D01*
X52427309Y-111958553D01*
X52448750Y-111957500D01*
X52961250Y-111957500D01*
X52982691Y-111958553D01*
X52982691Y-111958553D01*
G37*
D13*
X52705000Y-112395000D03*
D12*
G36*
X56792691Y-111958553D02*
G01*
X56813926Y-111961703D01*
X56834750Y-111966919D01*
X56854962Y-111974151D01*
X56874368Y-111983330D01*
X56892781Y-111994366D01*
X56910024Y-112007154D01*
X56925930Y-112021570D01*
X56940346Y-112037476D01*
X56953134Y-112054719D01*
X56964170Y-112073132D01*
X56973349Y-112092538D01*
X56980581Y-112112750D01*
X56985797Y-112133574D01*
X56988947Y-112154809D01*
X56990000Y-112176250D01*
X56990000Y-112613750D01*
X56988947Y-112635191D01*
X56985797Y-112656426D01*
X56980581Y-112677250D01*
X56973349Y-112697462D01*
X56964170Y-112716868D01*
X56953134Y-112735281D01*
X56940346Y-112752524D01*
X56925930Y-112768430D01*
X56910024Y-112782846D01*
X56892781Y-112795634D01*
X56874368Y-112806670D01*
X56854962Y-112815849D01*
X56834750Y-112823081D01*
X56813926Y-112828297D01*
X56792691Y-112831447D01*
X56771250Y-112832500D01*
X56258750Y-112832500D01*
X56237309Y-112831447D01*
X56216074Y-112828297D01*
X56195250Y-112823081D01*
X56175038Y-112815849D01*
X56155632Y-112806670D01*
X56137219Y-112795634D01*
X56119976Y-112782846D01*
X56104070Y-112768430D01*
X56089654Y-112752524D01*
X56076866Y-112735281D01*
X56065830Y-112716868D01*
X56056651Y-112697462D01*
X56049419Y-112677250D01*
X56044203Y-112656426D01*
X56041053Y-112635191D01*
X56040000Y-112613750D01*
X56040000Y-112176250D01*
X56041053Y-112154809D01*
X56044203Y-112133574D01*
X56049419Y-112112750D01*
X56056651Y-112092538D01*
X56065830Y-112073132D01*
X56076866Y-112054719D01*
X56089654Y-112037476D01*
X56104070Y-112021570D01*
X56119976Y-112007154D01*
X56137219Y-111994366D01*
X56155632Y-111983330D01*
X56175038Y-111974151D01*
X56195250Y-111966919D01*
X56216074Y-111961703D01*
X56237309Y-111958553D01*
X56258750Y-111957500D01*
X56771250Y-111957500D01*
X56792691Y-111958553D01*
X56792691Y-111958553D01*
G37*
D13*
X56515000Y-112395000D03*
D12*
G36*
X56792691Y-113533553D02*
G01*
X56813926Y-113536703D01*
X56834750Y-113541919D01*
X56854962Y-113549151D01*
X56874368Y-113558330D01*
X56892781Y-113569366D01*
X56910024Y-113582154D01*
X56925930Y-113596570D01*
X56940346Y-113612476D01*
X56953134Y-113629719D01*
X56964170Y-113648132D01*
X56973349Y-113667538D01*
X56980581Y-113687750D01*
X56985797Y-113708574D01*
X56988947Y-113729809D01*
X56990000Y-113751250D01*
X56990000Y-114188750D01*
X56988947Y-114210191D01*
X56985797Y-114231426D01*
X56980581Y-114252250D01*
X56973349Y-114272462D01*
X56964170Y-114291868D01*
X56953134Y-114310281D01*
X56940346Y-114327524D01*
X56925930Y-114343430D01*
X56910024Y-114357846D01*
X56892781Y-114370634D01*
X56874368Y-114381670D01*
X56854962Y-114390849D01*
X56834750Y-114398081D01*
X56813926Y-114403297D01*
X56792691Y-114406447D01*
X56771250Y-114407500D01*
X56258750Y-114407500D01*
X56237309Y-114406447D01*
X56216074Y-114403297D01*
X56195250Y-114398081D01*
X56175038Y-114390849D01*
X56155632Y-114381670D01*
X56137219Y-114370634D01*
X56119976Y-114357846D01*
X56104070Y-114343430D01*
X56089654Y-114327524D01*
X56076866Y-114310281D01*
X56065830Y-114291868D01*
X56056651Y-114272462D01*
X56049419Y-114252250D01*
X56044203Y-114231426D01*
X56041053Y-114210191D01*
X56040000Y-114188750D01*
X56040000Y-113751250D01*
X56041053Y-113729809D01*
X56044203Y-113708574D01*
X56049419Y-113687750D01*
X56056651Y-113667538D01*
X56065830Y-113648132D01*
X56076866Y-113629719D01*
X56089654Y-113612476D01*
X56104070Y-113596570D01*
X56119976Y-113582154D01*
X56137219Y-113569366D01*
X56155632Y-113558330D01*
X56175038Y-113549151D01*
X56195250Y-113541919D01*
X56216074Y-113536703D01*
X56237309Y-113533553D01*
X56258750Y-113532500D01*
X56771250Y-113532500D01*
X56792691Y-113533553D01*
X56792691Y-113533553D01*
G37*
D13*
X56515000Y-113970000D03*
D20*
X72136000Y-105664000D03*
X72136000Y-109664000D03*
D12*
G36*
X61708191Y-100110053D02*
G01*
X61729426Y-100113203D01*
X61750250Y-100118419D01*
X61770462Y-100125651D01*
X61789868Y-100134830D01*
X61808281Y-100145866D01*
X61825524Y-100158654D01*
X61841430Y-100173070D01*
X61855846Y-100188976D01*
X61868634Y-100206219D01*
X61879670Y-100224632D01*
X61888849Y-100244038D01*
X61896081Y-100264250D01*
X61901297Y-100285074D01*
X61904447Y-100306309D01*
X61905500Y-100327750D01*
X61905500Y-100840250D01*
X61904447Y-100861691D01*
X61901297Y-100882926D01*
X61896081Y-100903750D01*
X61888849Y-100923962D01*
X61879670Y-100943368D01*
X61868634Y-100961781D01*
X61855846Y-100979024D01*
X61841430Y-100994930D01*
X61825524Y-101009346D01*
X61808281Y-101022134D01*
X61789868Y-101033170D01*
X61770462Y-101042349D01*
X61750250Y-101049581D01*
X61729426Y-101054797D01*
X61708191Y-101057947D01*
X61686750Y-101059000D01*
X61249250Y-101059000D01*
X61227809Y-101057947D01*
X61206574Y-101054797D01*
X61185750Y-101049581D01*
X61165538Y-101042349D01*
X61146132Y-101033170D01*
X61127719Y-101022134D01*
X61110476Y-101009346D01*
X61094570Y-100994930D01*
X61080154Y-100979024D01*
X61067366Y-100961781D01*
X61056330Y-100943368D01*
X61047151Y-100923962D01*
X61039919Y-100903750D01*
X61034703Y-100882926D01*
X61031553Y-100861691D01*
X61030500Y-100840250D01*
X61030500Y-100327750D01*
X61031553Y-100306309D01*
X61034703Y-100285074D01*
X61039919Y-100264250D01*
X61047151Y-100244038D01*
X61056330Y-100224632D01*
X61067366Y-100206219D01*
X61080154Y-100188976D01*
X61094570Y-100173070D01*
X61110476Y-100158654D01*
X61127719Y-100145866D01*
X61146132Y-100134830D01*
X61165538Y-100125651D01*
X61185750Y-100118419D01*
X61206574Y-100113203D01*
X61227809Y-100110053D01*
X61249250Y-100109000D01*
X61686750Y-100109000D01*
X61708191Y-100110053D01*
X61708191Y-100110053D01*
G37*
D13*
X61468000Y-100584000D03*
D12*
G36*
X60133191Y-100110053D02*
G01*
X60154426Y-100113203D01*
X60175250Y-100118419D01*
X60195462Y-100125651D01*
X60214868Y-100134830D01*
X60233281Y-100145866D01*
X60250524Y-100158654D01*
X60266430Y-100173070D01*
X60280846Y-100188976D01*
X60293634Y-100206219D01*
X60304670Y-100224632D01*
X60313849Y-100244038D01*
X60321081Y-100264250D01*
X60326297Y-100285074D01*
X60329447Y-100306309D01*
X60330500Y-100327750D01*
X60330500Y-100840250D01*
X60329447Y-100861691D01*
X60326297Y-100882926D01*
X60321081Y-100903750D01*
X60313849Y-100923962D01*
X60304670Y-100943368D01*
X60293634Y-100961781D01*
X60280846Y-100979024D01*
X60266430Y-100994930D01*
X60250524Y-101009346D01*
X60233281Y-101022134D01*
X60214868Y-101033170D01*
X60195462Y-101042349D01*
X60175250Y-101049581D01*
X60154426Y-101054797D01*
X60133191Y-101057947D01*
X60111750Y-101059000D01*
X59674250Y-101059000D01*
X59652809Y-101057947D01*
X59631574Y-101054797D01*
X59610750Y-101049581D01*
X59590538Y-101042349D01*
X59571132Y-101033170D01*
X59552719Y-101022134D01*
X59535476Y-101009346D01*
X59519570Y-100994930D01*
X59505154Y-100979024D01*
X59492366Y-100961781D01*
X59481330Y-100943368D01*
X59472151Y-100923962D01*
X59464919Y-100903750D01*
X59459703Y-100882926D01*
X59456553Y-100861691D01*
X59455500Y-100840250D01*
X59455500Y-100327750D01*
X59456553Y-100306309D01*
X59459703Y-100285074D01*
X59464919Y-100264250D01*
X59472151Y-100244038D01*
X59481330Y-100224632D01*
X59492366Y-100206219D01*
X59505154Y-100188976D01*
X59519570Y-100173070D01*
X59535476Y-100158654D01*
X59552719Y-100145866D01*
X59571132Y-100134830D01*
X59590538Y-100125651D01*
X59610750Y-100118419D01*
X59631574Y-100113203D01*
X59652809Y-100110053D01*
X59674250Y-100109000D01*
X60111750Y-100109000D01*
X60133191Y-100110053D01*
X60133191Y-100110053D01*
G37*
D13*
X59893000Y-100584000D03*
D20*
X64008000Y-106172000D03*
X64008000Y-102172000D03*
D12*
G36*
X62243642Y-113601174D02*
G01*
X62267303Y-113604684D01*
X62290507Y-113610496D01*
X62313029Y-113618554D01*
X62334653Y-113628782D01*
X62355170Y-113641079D01*
X62374383Y-113655329D01*
X62392107Y-113671393D01*
X62408171Y-113689117D01*
X62422421Y-113708330D01*
X62434718Y-113728847D01*
X62444946Y-113750471D01*
X62453004Y-113772993D01*
X62458816Y-113796197D01*
X62462326Y-113819858D01*
X62463500Y-113843750D01*
X62463500Y-114756250D01*
X62462326Y-114780142D01*
X62458816Y-114803803D01*
X62453004Y-114827007D01*
X62444946Y-114849529D01*
X62434718Y-114871153D01*
X62422421Y-114891670D01*
X62408171Y-114910883D01*
X62392107Y-114928607D01*
X62374383Y-114944671D01*
X62355170Y-114958921D01*
X62334653Y-114971218D01*
X62313029Y-114981446D01*
X62290507Y-114989504D01*
X62267303Y-114995316D01*
X62243642Y-114998826D01*
X62219750Y-115000000D01*
X61732250Y-115000000D01*
X61708358Y-114998826D01*
X61684697Y-114995316D01*
X61661493Y-114989504D01*
X61638971Y-114981446D01*
X61617347Y-114971218D01*
X61596830Y-114958921D01*
X61577617Y-114944671D01*
X61559893Y-114928607D01*
X61543829Y-114910883D01*
X61529579Y-114891670D01*
X61517282Y-114871153D01*
X61507054Y-114849529D01*
X61498996Y-114827007D01*
X61493184Y-114803803D01*
X61489674Y-114780142D01*
X61488500Y-114756250D01*
X61488500Y-113843750D01*
X61489674Y-113819858D01*
X61493184Y-113796197D01*
X61498996Y-113772993D01*
X61507054Y-113750471D01*
X61517282Y-113728847D01*
X61529579Y-113708330D01*
X61543829Y-113689117D01*
X61559893Y-113671393D01*
X61577617Y-113655329D01*
X61596830Y-113641079D01*
X61617347Y-113628782D01*
X61638971Y-113618554D01*
X61661493Y-113610496D01*
X61684697Y-113604684D01*
X61708358Y-113601174D01*
X61732250Y-113600000D01*
X62219750Y-113600000D01*
X62243642Y-113601174D01*
X62243642Y-113601174D01*
G37*
D21*
X61976000Y-114300000D03*
D12*
G36*
X60368642Y-113601174D02*
G01*
X60392303Y-113604684D01*
X60415507Y-113610496D01*
X60438029Y-113618554D01*
X60459653Y-113628782D01*
X60480170Y-113641079D01*
X60499383Y-113655329D01*
X60517107Y-113671393D01*
X60533171Y-113689117D01*
X60547421Y-113708330D01*
X60559718Y-113728847D01*
X60569946Y-113750471D01*
X60578004Y-113772993D01*
X60583816Y-113796197D01*
X60587326Y-113819858D01*
X60588500Y-113843750D01*
X60588500Y-114756250D01*
X60587326Y-114780142D01*
X60583816Y-114803803D01*
X60578004Y-114827007D01*
X60569946Y-114849529D01*
X60559718Y-114871153D01*
X60547421Y-114891670D01*
X60533171Y-114910883D01*
X60517107Y-114928607D01*
X60499383Y-114944671D01*
X60480170Y-114958921D01*
X60459653Y-114971218D01*
X60438029Y-114981446D01*
X60415507Y-114989504D01*
X60392303Y-114995316D01*
X60368642Y-114998826D01*
X60344750Y-115000000D01*
X59857250Y-115000000D01*
X59833358Y-114998826D01*
X59809697Y-114995316D01*
X59786493Y-114989504D01*
X59763971Y-114981446D01*
X59742347Y-114971218D01*
X59721830Y-114958921D01*
X59702617Y-114944671D01*
X59684893Y-114928607D01*
X59668829Y-114910883D01*
X59654579Y-114891670D01*
X59642282Y-114871153D01*
X59632054Y-114849529D01*
X59623996Y-114827007D01*
X59618184Y-114803803D01*
X59614674Y-114780142D01*
X59613500Y-114756250D01*
X59613500Y-113843750D01*
X59614674Y-113819858D01*
X59618184Y-113796197D01*
X59623996Y-113772993D01*
X59632054Y-113750471D01*
X59642282Y-113728847D01*
X59654579Y-113708330D01*
X59668829Y-113689117D01*
X59684893Y-113671393D01*
X59702617Y-113655329D01*
X59721830Y-113641079D01*
X59742347Y-113628782D01*
X59763971Y-113618554D01*
X59786493Y-113610496D01*
X59809697Y-113604684D01*
X59833358Y-113601174D01*
X59857250Y-113600000D01*
X60344750Y-113600000D01*
X60368642Y-113601174D01*
X60368642Y-113601174D01*
G37*
D21*
X60101000Y-114300000D03*
D12*
G36*
X69822142Y-113051674D02*
G01*
X69845803Y-113055184D01*
X69869007Y-113060996D01*
X69891529Y-113069054D01*
X69913153Y-113079282D01*
X69933670Y-113091579D01*
X69952883Y-113105829D01*
X69970607Y-113121893D01*
X69986671Y-113139617D01*
X70000921Y-113158830D01*
X70013218Y-113179347D01*
X70023446Y-113200971D01*
X70031504Y-113223493D01*
X70037316Y-113246697D01*
X70040826Y-113270358D01*
X70042000Y-113294250D01*
X70042000Y-113781750D01*
X70040826Y-113805642D01*
X70037316Y-113829303D01*
X70031504Y-113852507D01*
X70023446Y-113875029D01*
X70013218Y-113896653D01*
X70000921Y-113917170D01*
X69986671Y-113936383D01*
X69970607Y-113954107D01*
X69952883Y-113970171D01*
X69933670Y-113984421D01*
X69913153Y-113996718D01*
X69891529Y-114006946D01*
X69869007Y-114015004D01*
X69845803Y-114020816D01*
X69822142Y-114024326D01*
X69798250Y-114025500D01*
X68885750Y-114025500D01*
X68861858Y-114024326D01*
X68838197Y-114020816D01*
X68814993Y-114015004D01*
X68792471Y-114006946D01*
X68770847Y-113996718D01*
X68750330Y-113984421D01*
X68731117Y-113970171D01*
X68713393Y-113954107D01*
X68697329Y-113936383D01*
X68683079Y-113917170D01*
X68670782Y-113896653D01*
X68660554Y-113875029D01*
X68652496Y-113852507D01*
X68646684Y-113829303D01*
X68643174Y-113805642D01*
X68642000Y-113781750D01*
X68642000Y-113294250D01*
X68643174Y-113270358D01*
X68646684Y-113246697D01*
X68652496Y-113223493D01*
X68660554Y-113200971D01*
X68670782Y-113179347D01*
X68683079Y-113158830D01*
X68697329Y-113139617D01*
X68713393Y-113121893D01*
X68731117Y-113105829D01*
X68750330Y-113091579D01*
X68770847Y-113079282D01*
X68792471Y-113069054D01*
X68814993Y-113060996D01*
X68838197Y-113055184D01*
X68861858Y-113051674D01*
X68885750Y-113050500D01*
X69798250Y-113050500D01*
X69822142Y-113051674D01*
X69822142Y-113051674D01*
G37*
D21*
X69342000Y-113538000D03*
D12*
G36*
X69822142Y-111176674D02*
G01*
X69845803Y-111180184D01*
X69869007Y-111185996D01*
X69891529Y-111194054D01*
X69913153Y-111204282D01*
X69933670Y-111216579D01*
X69952883Y-111230829D01*
X69970607Y-111246893D01*
X69986671Y-111264617D01*
X70000921Y-111283830D01*
X70013218Y-111304347D01*
X70023446Y-111325971D01*
X70031504Y-111348493D01*
X70037316Y-111371697D01*
X70040826Y-111395358D01*
X70042000Y-111419250D01*
X70042000Y-111906750D01*
X70040826Y-111930642D01*
X70037316Y-111954303D01*
X70031504Y-111977507D01*
X70023446Y-112000029D01*
X70013218Y-112021653D01*
X70000921Y-112042170D01*
X69986671Y-112061383D01*
X69970607Y-112079107D01*
X69952883Y-112095171D01*
X69933670Y-112109421D01*
X69913153Y-112121718D01*
X69891529Y-112131946D01*
X69869007Y-112140004D01*
X69845803Y-112145816D01*
X69822142Y-112149326D01*
X69798250Y-112150500D01*
X68885750Y-112150500D01*
X68861858Y-112149326D01*
X68838197Y-112145816D01*
X68814993Y-112140004D01*
X68792471Y-112131946D01*
X68770847Y-112121718D01*
X68750330Y-112109421D01*
X68731117Y-112095171D01*
X68713393Y-112079107D01*
X68697329Y-112061383D01*
X68683079Y-112042170D01*
X68670782Y-112021653D01*
X68660554Y-112000029D01*
X68652496Y-111977507D01*
X68646684Y-111954303D01*
X68643174Y-111930642D01*
X68642000Y-111906750D01*
X68642000Y-111419250D01*
X68643174Y-111395358D01*
X68646684Y-111371697D01*
X68652496Y-111348493D01*
X68660554Y-111325971D01*
X68670782Y-111304347D01*
X68683079Y-111283830D01*
X68697329Y-111264617D01*
X68713393Y-111246893D01*
X68731117Y-111230829D01*
X68750330Y-111216579D01*
X68770847Y-111204282D01*
X68792471Y-111194054D01*
X68814993Y-111185996D01*
X68838197Y-111180184D01*
X68861858Y-111176674D01*
X68885750Y-111175500D01*
X69798250Y-111175500D01*
X69822142Y-111176674D01*
X69822142Y-111176674D01*
G37*
D21*
X69342000Y-111663000D03*
D12*
G36*
X53910191Y-104301053D02*
G01*
X53931426Y-104304203D01*
X53952250Y-104309419D01*
X53972462Y-104316651D01*
X53991868Y-104325830D01*
X54010281Y-104336866D01*
X54027524Y-104349654D01*
X54043430Y-104364070D01*
X54057846Y-104379976D01*
X54070634Y-104397219D01*
X54081670Y-104415632D01*
X54090849Y-104435038D01*
X54098081Y-104455250D01*
X54103297Y-104476074D01*
X54106447Y-104497309D01*
X54107500Y-104518750D01*
X54107500Y-105031250D01*
X54106447Y-105052691D01*
X54103297Y-105073926D01*
X54098081Y-105094750D01*
X54090849Y-105114962D01*
X54081670Y-105134368D01*
X54070634Y-105152781D01*
X54057846Y-105170024D01*
X54043430Y-105185930D01*
X54027524Y-105200346D01*
X54010281Y-105213134D01*
X53991868Y-105224170D01*
X53972462Y-105233349D01*
X53952250Y-105240581D01*
X53931426Y-105245797D01*
X53910191Y-105248947D01*
X53888750Y-105250000D01*
X53451250Y-105250000D01*
X53429809Y-105248947D01*
X53408574Y-105245797D01*
X53387750Y-105240581D01*
X53367538Y-105233349D01*
X53348132Y-105224170D01*
X53329719Y-105213134D01*
X53312476Y-105200346D01*
X53296570Y-105185930D01*
X53282154Y-105170024D01*
X53269366Y-105152781D01*
X53258330Y-105134368D01*
X53249151Y-105114962D01*
X53241919Y-105094750D01*
X53236703Y-105073926D01*
X53233553Y-105052691D01*
X53232500Y-105031250D01*
X53232500Y-104518750D01*
X53233553Y-104497309D01*
X53236703Y-104476074D01*
X53241919Y-104455250D01*
X53249151Y-104435038D01*
X53258330Y-104415632D01*
X53269366Y-104397219D01*
X53282154Y-104379976D01*
X53296570Y-104364070D01*
X53312476Y-104349654D01*
X53329719Y-104336866D01*
X53348132Y-104325830D01*
X53367538Y-104316651D01*
X53387750Y-104309419D01*
X53408574Y-104304203D01*
X53429809Y-104301053D01*
X53451250Y-104300000D01*
X53888750Y-104300000D01*
X53910191Y-104301053D01*
X53910191Y-104301053D01*
G37*
D13*
X53670000Y-104775000D03*
D12*
G36*
X55485191Y-104301053D02*
G01*
X55506426Y-104304203D01*
X55527250Y-104309419D01*
X55547462Y-104316651D01*
X55566868Y-104325830D01*
X55585281Y-104336866D01*
X55602524Y-104349654D01*
X55618430Y-104364070D01*
X55632846Y-104379976D01*
X55645634Y-104397219D01*
X55656670Y-104415632D01*
X55665849Y-104435038D01*
X55673081Y-104455250D01*
X55678297Y-104476074D01*
X55681447Y-104497309D01*
X55682500Y-104518750D01*
X55682500Y-105031250D01*
X55681447Y-105052691D01*
X55678297Y-105073926D01*
X55673081Y-105094750D01*
X55665849Y-105114962D01*
X55656670Y-105134368D01*
X55645634Y-105152781D01*
X55632846Y-105170024D01*
X55618430Y-105185930D01*
X55602524Y-105200346D01*
X55585281Y-105213134D01*
X55566868Y-105224170D01*
X55547462Y-105233349D01*
X55527250Y-105240581D01*
X55506426Y-105245797D01*
X55485191Y-105248947D01*
X55463750Y-105250000D01*
X55026250Y-105250000D01*
X55004809Y-105248947D01*
X54983574Y-105245797D01*
X54962750Y-105240581D01*
X54942538Y-105233349D01*
X54923132Y-105224170D01*
X54904719Y-105213134D01*
X54887476Y-105200346D01*
X54871570Y-105185930D01*
X54857154Y-105170024D01*
X54844366Y-105152781D01*
X54833330Y-105134368D01*
X54824151Y-105114962D01*
X54816919Y-105094750D01*
X54811703Y-105073926D01*
X54808553Y-105052691D01*
X54807500Y-105031250D01*
X54807500Y-104518750D01*
X54808553Y-104497309D01*
X54811703Y-104476074D01*
X54816919Y-104455250D01*
X54824151Y-104435038D01*
X54833330Y-104415632D01*
X54844366Y-104397219D01*
X54857154Y-104379976D01*
X54871570Y-104364070D01*
X54887476Y-104349654D01*
X54904719Y-104336866D01*
X54923132Y-104325830D01*
X54942538Y-104316651D01*
X54962750Y-104309419D01*
X54983574Y-104304203D01*
X55004809Y-104301053D01*
X55026250Y-104300000D01*
X55463750Y-104300000D01*
X55485191Y-104301053D01*
X55485191Y-104301053D01*
G37*
D13*
X55245000Y-104775000D03*
D12*
G36*
X63416642Y-98869174D02*
G01*
X63440303Y-98872684D01*
X63463507Y-98878496D01*
X63486029Y-98886554D01*
X63507653Y-98896782D01*
X63528170Y-98909079D01*
X63547383Y-98923329D01*
X63565107Y-98939393D01*
X63581171Y-98957117D01*
X63595421Y-98976330D01*
X63607718Y-98996847D01*
X63617946Y-99018471D01*
X63626004Y-99040993D01*
X63631816Y-99064197D01*
X63635326Y-99087858D01*
X63636500Y-99111750D01*
X63636500Y-100024250D01*
X63635326Y-100048142D01*
X63631816Y-100071803D01*
X63626004Y-100095007D01*
X63617946Y-100117529D01*
X63607718Y-100139153D01*
X63595421Y-100159670D01*
X63581171Y-100178883D01*
X63565107Y-100196607D01*
X63547383Y-100212671D01*
X63528170Y-100226921D01*
X63507653Y-100239218D01*
X63486029Y-100249446D01*
X63463507Y-100257504D01*
X63440303Y-100263316D01*
X63416642Y-100266826D01*
X63392750Y-100268000D01*
X62905250Y-100268000D01*
X62881358Y-100266826D01*
X62857697Y-100263316D01*
X62834493Y-100257504D01*
X62811971Y-100249446D01*
X62790347Y-100239218D01*
X62769830Y-100226921D01*
X62750617Y-100212671D01*
X62732893Y-100196607D01*
X62716829Y-100178883D01*
X62702579Y-100159670D01*
X62690282Y-100139153D01*
X62680054Y-100117529D01*
X62671996Y-100095007D01*
X62666184Y-100071803D01*
X62662674Y-100048142D01*
X62661500Y-100024250D01*
X62661500Y-99111750D01*
X62662674Y-99087858D01*
X62666184Y-99064197D01*
X62671996Y-99040993D01*
X62680054Y-99018471D01*
X62690282Y-98996847D01*
X62702579Y-98976330D01*
X62716829Y-98957117D01*
X62732893Y-98939393D01*
X62750617Y-98923329D01*
X62769830Y-98909079D01*
X62790347Y-98896782D01*
X62811971Y-98886554D01*
X62834493Y-98878496D01*
X62857697Y-98872684D01*
X62881358Y-98869174D01*
X62905250Y-98868000D01*
X63392750Y-98868000D01*
X63416642Y-98869174D01*
X63416642Y-98869174D01*
G37*
D21*
X63149000Y-99568000D03*
D12*
G36*
X65291642Y-98869174D02*
G01*
X65315303Y-98872684D01*
X65338507Y-98878496D01*
X65361029Y-98886554D01*
X65382653Y-98896782D01*
X65403170Y-98909079D01*
X65422383Y-98923329D01*
X65440107Y-98939393D01*
X65456171Y-98957117D01*
X65470421Y-98976330D01*
X65482718Y-98996847D01*
X65492946Y-99018471D01*
X65501004Y-99040993D01*
X65506816Y-99064197D01*
X65510326Y-99087858D01*
X65511500Y-99111750D01*
X65511500Y-100024250D01*
X65510326Y-100048142D01*
X65506816Y-100071803D01*
X65501004Y-100095007D01*
X65492946Y-100117529D01*
X65482718Y-100139153D01*
X65470421Y-100159670D01*
X65456171Y-100178883D01*
X65440107Y-100196607D01*
X65422383Y-100212671D01*
X65403170Y-100226921D01*
X65382653Y-100239218D01*
X65361029Y-100249446D01*
X65338507Y-100257504D01*
X65315303Y-100263316D01*
X65291642Y-100266826D01*
X65267750Y-100268000D01*
X64780250Y-100268000D01*
X64756358Y-100266826D01*
X64732697Y-100263316D01*
X64709493Y-100257504D01*
X64686971Y-100249446D01*
X64665347Y-100239218D01*
X64644830Y-100226921D01*
X64625617Y-100212671D01*
X64607893Y-100196607D01*
X64591829Y-100178883D01*
X64577579Y-100159670D01*
X64565282Y-100139153D01*
X64555054Y-100117529D01*
X64546996Y-100095007D01*
X64541184Y-100071803D01*
X64537674Y-100048142D01*
X64536500Y-100024250D01*
X64536500Y-99111750D01*
X64537674Y-99087858D01*
X64541184Y-99064197D01*
X64546996Y-99040993D01*
X64555054Y-99018471D01*
X64565282Y-98996847D01*
X64577579Y-98976330D01*
X64591829Y-98957117D01*
X64607893Y-98939393D01*
X64625617Y-98923329D01*
X64644830Y-98909079D01*
X64665347Y-98896782D01*
X64686971Y-98886554D01*
X64709493Y-98878496D01*
X64732697Y-98872684D01*
X64756358Y-98869174D01*
X64780250Y-98868000D01*
X65267750Y-98868000D01*
X65291642Y-98869174D01*
X65291642Y-98869174D01*
G37*
D21*
X65024000Y-99568000D03*
D22*
X54360000Y-108457500D03*
X54860000Y-108457500D03*
X54860000Y-109982500D03*
X54360000Y-109982500D03*
D23*
X55372500Y-108470000D03*
X53847500Y-108470000D03*
X55372500Y-109970000D03*
X53847500Y-109970000D03*
X55372500Y-109470000D03*
X55372500Y-108970000D03*
X53847500Y-109470000D03*
X53847500Y-108970000D03*
D14*
X67596000Y-108966000D03*
X69596000Y-108016000D03*
X69596000Y-109916000D03*
D10*
X76200000Y-112522000D03*
X76200000Y-109982000D03*
X76200000Y-107442000D03*
X76200000Y-104902000D03*
X76200000Y-102362000D03*
D11*
X76200000Y-99822000D03*
D24*
X51435000Y-99060000D03*
X60452000Y-112268000D03*
X51562000Y-102870000D03*
X75946000Y-116586000D03*
X51404847Y-113695153D03*
X56587346Y-102307346D03*
X64465000Y-109982000D03*
X68945000Y-101860000D03*
X62230000Y-103124000D03*
X63653142Y-101817142D03*
X61468000Y-101346000D03*
X53670000Y-104775000D03*
X67290998Y-108458000D03*
X67290998Y-105326959D03*
X69391878Y-116886441D03*
X76200000Y-102362000D03*
X70104000Y-115316000D03*
X56515000Y-116060000D03*
X56515000Y-112395000D03*
X58420000Y-114300000D03*
X68660003Y-116205000D03*
X55245000Y-116060000D03*
X52705000Y-112395000D03*
X54610000Y-112395000D03*
X55852572Y-111195001D03*
X72136000Y-105664000D03*
X54134000Y-101026000D03*
X56515000Y-99060000D03*
D25*
X54935000Y-109470000D02*
X55372500Y-109470000D01*
X54860000Y-109545000D02*
X54935000Y-109470000D01*
X54860000Y-109982500D02*
X54860000Y-109545000D01*
X55372500Y-109470000D02*
X55372500Y-108970000D01*
D26*
X70104000Y-113538000D02*
X69342000Y-113538000D01*
X72136000Y-115570000D02*
X70104000Y-113538000D01*
X65500001Y-114014001D02*
X65500001Y-112849799D01*
X65803001Y-114317001D02*
X65500001Y-114014001D01*
X65500001Y-112849799D02*
X65238202Y-112588000D01*
X68562999Y-114317001D02*
X65803001Y-114317001D01*
X69342000Y-113538000D02*
X68562999Y-114317001D01*
X64516000Y-112588000D02*
X65238202Y-112588000D01*
X62230000Y-114554000D02*
X61976000Y-114300000D01*
X62230000Y-116205000D02*
X62230000Y-114554000D01*
X63622799Y-114317001D02*
X65803001Y-114317001D01*
X63605798Y-114300000D02*
X63622799Y-114317001D01*
X61976000Y-114300000D02*
X63605798Y-114300000D01*
D25*
X63660999Y-112512999D02*
X63660999Y-110786001D01*
X64003388Y-110443612D02*
X64465000Y-109982000D01*
X63736000Y-112588000D02*
X63660999Y-112512999D01*
X63660999Y-110786001D02*
X64003388Y-110443612D01*
X64516000Y-112588000D02*
X63736000Y-112588000D01*
D26*
X74895999Y-111286001D02*
X75350001Y-110831999D01*
X75350001Y-110831999D02*
X76200000Y-109982000D01*
X73494000Y-115570000D02*
X74895999Y-114168001D01*
X74895999Y-114168001D02*
X74895999Y-111286001D01*
X72136000Y-115570000D02*
X73494000Y-115570000D01*
X69818001Y-101460201D02*
X69818001Y-100083799D01*
X69556202Y-99822000D02*
X68834000Y-99822000D01*
X69123814Y-102154388D02*
X69818001Y-101460201D01*
X69818001Y-100083799D02*
X69556202Y-99822000D01*
X68787612Y-102154388D02*
X69123814Y-102154388D01*
X68326000Y-102616000D02*
X68787612Y-102154388D01*
X62744799Y-103876001D02*
X67065999Y-103876001D01*
X62592763Y-103723965D02*
X62744799Y-103876001D01*
X67065999Y-103876001D02*
X67864388Y-103077612D01*
X62592763Y-100124237D02*
X62592763Y-103723965D01*
X67864388Y-103077612D02*
X68326000Y-102616000D01*
X63149000Y-99568000D02*
X62592763Y-100124237D01*
D27*
X60452000Y-112776000D02*
X60452000Y-112268000D01*
D25*
X55956411Y-110470001D02*
X57145000Y-109281412D01*
X57145000Y-109279238D02*
X57145000Y-108360000D01*
X54910001Y-110470001D02*
X55956411Y-110470001D01*
X57145000Y-109281412D02*
X57145000Y-109279238D01*
X54860000Y-110420000D02*
X54910001Y-110470001D01*
X54860000Y-109982500D02*
X54860000Y-110420000D01*
X55245000Y-106680000D02*
X55245000Y-104775000D01*
X57025000Y-106680000D02*
X57145000Y-106560000D01*
X55245000Y-106680000D02*
X57025000Y-106680000D01*
D27*
X65275490Y-107975686D02*
X66044175Y-107207001D01*
X65275490Y-109171510D02*
X65275490Y-107975686D01*
X64465000Y-109982000D02*
X65275490Y-109171510D01*
X55245000Y-104775000D02*
X55245000Y-103649692D01*
X55245000Y-103649692D02*
X56587346Y-102307346D01*
D25*
X68787612Y-102154388D02*
X68787612Y-102017388D01*
X68787612Y-102017388D02*
X68945000Y-101860000D01*
X62592763Y-103723965D02*
X62592763Y-103486763D01*
X62592763Y-103486763D02*
X62230000Y-103124000D01*
D26*
X65909571Y-107161999D02*
X65453785Y-107617785D01*
X70409201Y-107161999D02*
X65909571Y-107161999D01*
X71207201Y-107959999D02*
X70409201Y-107161999D01*
X76200000Y-109982000D02*
X74177999Y-107959999D01*
X74177999Y-107959999D02*
X71207201Y-107959999D01*
X61976000Y-113792000D02*
X60452000Y-112268000D01*
X61976000Y-114300000D02*
X61976000Y-113792000D01*
X65720000Y-98872000D02*
X65024000Y-99568000D01*
X66634000Y-98872000D02*
X65720000Y-98872000D01*
X65024000Y-101156000D02*
X64008000Y-102172000D01*
X65024000Y-99568000D02*
X65024000Y-101156000D01*
X61468000Y-100584000D02*
X61468000Y-100660002D01*
X61468000Y-101346000D02*
X61468000Y-100584000D01*
D25*
X55360000Y-108457500D02*
X55372500Y-108470000D01*
X54860000Y-108457500D02*
X55360000Y-108457500D01*
X53847500Y-109470000D02*
X54360000Y-109470000D01*
X54860000Y-108905002D02*
X54860000Y-108457500D01*
X54360000Y-109405002D02*
X54860000Y-108905002D01*
X54360000Y-109470000D02*
X54360000Y-109405002D01*
X55820002Y-109970000D02*
X55372500Y-109970000D01*
X55885001Y-109905001D02*
X55820002Y-109970000D01*
X55885001Y-108545001D02*
X55885001Y-109905001D01*
X55810000Y-108470000D02*
X55885001Y-108545001D01*
X55372500Y-108470000D02*
X55810000Y-108470000D01*
X54860000Y-107870000D02*
X53670000Y-106680000D01*
X54860000Y-108457500D02*
X54860000Y-107870000D01*
X53670000Y-106680000D02*
X53670000Y-104775000D01*
X52070000Y-116205000D02*
X52705000Y-115570000D01*
X52705000Y-115570000D02*
X52705000Y-113970000D01*
D27*
X59639000Y-111252000D02*
X58420000Y-111252000D01*
X62433000Y-108458000D02*
X59639000Y-111252000D01*
D25*
X62433000Y-108458000D02*
X64465000Y-108458000D01*
X52243388Y-113508388D02*
X52705000Y-113970000D01*
X51904990Y-113169990D02*
X52243388Y-113508388D01*
X51904990Y-108445010D02*
X51904990Y-113169990D01*
X53670000Y-106680000D02*
X51904990Y-108445010D01*
D26*
X58209000Y-112408000D02*
X58209000Y-111252000D01*
X60101000Y-114300000D02*
X58209000Y-112408000D01*
X52705000Y-113970000D02*
X54610000Y-113970000D01*
X54610000Y-113970000D02*
X56515000Y-113970000D01*
X58209000Y-112276000D02*
X58209000Y-111252000D01*
X56515000Y-113970000D02*
X58209000Y-112276000D01*
X72136000Y-102582000D02*
X72202000Y-102648000D01*
X67596000Y-108966000D02*
X67596000Y-108763002D01*
X67596000Y-108763002D02*
X67290998Y-108458000D01*
X71286001Y-101512001D02*
X72136000Y-102362000D01*
X70777999Y-99966153D02*
X70777999Y-101003999D01*
X70777999Y-101003999D02*
X71286001Y-101512001D01*
X69683846Y-98872000D02*
X70777999Y-99966153D01*
X68834000Y-98872000D02*
X69683846Y-98872000D01*
X70732356Y-102362000D02*
X69730357Y-103363999D01*
X72136000Y-102362000D02*
X70732356Y-102362000D01*
X67290998Y-104812600D02*
X67290998Y-105326959D01*
X69730357Y-103363999D02*
X68739599Y-103363999D01*
X68739599Y-103363999D02*
X67290998Y-104812600D01*
D27*
X66725313Y-105326959D02*
X67290998Y-105326959D01*
X65998761Y-105326959D02*
X66725313Y-105326959D01*
X65212801Y-104540999D02*
X65998761Y-105326959D01*
X62511758Y-104540999D02*
X65212801Y-104540999D01*
X61214000Y-102247882D02*
X61214000Y-103243241D01*
X58166000Y-99009000D02*
X59022010Y-99865010D01*
X59022010Y-99865010D02*
X59022010Y-101036200D01*
X61214000Y-103243241D02*
X62511758Y-104540999D01*
X60406128Y-101440010D02*
X61214000Y-102247882D01*
X59022010Y-101036200D02*
X59425820Y-101440010D01*
X59425820Y-101440010D02*
X60406128Y-101440010D01*
D25*
X76200000Y-113724081D02*
X76200000Y-112522000D01*
X76200000Y-113791002D02*
X76200000Y-113724081D01*
X73104561Y-116886441D02*
X76200000Y-113791002D01*
X69391878Y-116886441D02*
X73104561Y-116886441D01*
D27*
X68072000Y-115316000D02*
X67310000Y-116078000D01*
D25*
X68072000Y-115316000D02*
X70104000Y-115316000D01*
X57150000Y-116205000D02*
X56660000Y-116205000D01*
X56660000Y-116205000D02*
X56515000Y-116060000D01*
X59690000Y-115570000D02*
X59690000Y-116205000D01*
D27*
X59690000Y-115570000D02*
X58420000Y-114300000D01*
D25*
X68660003Y-116445999D02*
X68660003Y-116205000D01*
X67826001Y-117280001D02*
X68660003Y-116445999D01*
X64770000Y-116205000D02*
X65845001Y-117280001D01*
X65845001Y-117280001D02*
X67826001Y-117280001D01*
X54610000Y-116205000D02*
X55100000Y-116205000D01*
X55100000Y-116205000D02*
X55245000Y-116060000D01*
D26*
X62484000Y-113052000D02*
X62484000Y-111252000D01*
X62970000Y-113538000D02*
X62484000Y-113052000D01*
X64516000Y-113538000D02*
X62970000Y-113538000D01*
D25*
X53399999Y-107969999D02*
X52705000Y-108664998D01*
X54309999Y-107969999D02*
X53399999Y-107969999D01*
X54360000Y-108020000D02*
X54309999Y-107969999D01*
X54360000Y-108457500D02*
X54360000Y-108020000D01*
X52705000Y-108664998D02*
X52705000Y-112395000D01*
X53399998Y-108970000D02*
X53847500Y-108970000D01*
X53334999Y-109034999D02*
X53399998Y-108970000D01*
X54610000Y-112395000D02*
X53334999Y-111119999D01*
X53334999Y-111119999D02*
X53334999Y-109034999D01*
X66716000Y-110658000D02*
X66040000Y-109982000D01*
X66716000Y-111638000D02*
X66716000Y-110658000D01*
X66040000Y-109982000D02*
X66040000Y-108458000D01*
X54356000Y-110552410D02*
X54356000Y-110236000D01*
X55852572Y-111195001D02*
X54998591Y-111195001D01*
X54998591Y-111195001D02*
X54356000Y-110552410D01*
D26*
X71244000Y-109664000D02*
X69596000Y-108016000D01*
X72136000Y-109664000D02*
X71244000Y-109664000D01*
X68785763Y-111106763D02*
X69342000Y-111663000D01*
X68637999Y-110958999D02*
X68785763Y-111106763D01*
X68637999Y-108924001D02*
X68637999Y-110958999D01*
X69546000Y-108016000D02*
X68637999Y-108924001D01*
X69596000Y-108016000D02*
X69546000Y-108016000D01*
X67467000Y-113538000D02*
X69342000Y-111663000D01*
X66716000Y-113538000D02*
X67467000Y-113538000D01*
D25*
X66716000Y-112963000D02*
X66716000Y-113538000D01*
X65391000Y-111638000D02*
X66716000Y-112963000D01*
X64516000Y-111638000D02*
X65391000Y-111638000D01*
D26*
X70554000Y-110824000D02*
X69646000Y-109916000D01*
X69646000Y-109916000D02*
X69596000Y-109916000D01*
X70554000Y-111448000D02*
X70554000Y-110824000D01*
X72136000Y-113030000D02*
X70554000Y-111448000D01*
X64516000Y-106426000D02*
X64262000Y-106172000D01*
X68638000Y-106172000D02*
X69596000Y-106172000D01*
X68575040Y-106234960D02*
X68638000Y-106172000D01*
X66792197Y-106172000D02*
X66855157Y-106234960D01*
X66855157Y-106234960D02*
X68575040Y-106234960D01*
X64008000Y-106172000D02*
X66792197Y-106172000D01*
X71628000Y-106172000D02*
X72136000Y-105664000D01*
X69596000Y-106172000D02*
X71628000Y-106172000D01*
D25*
X59893000Y-100584000D02*
X59893000Y-99060000D01*
D27*
X61929612Y-98598388D02*
X61468000Y-99060000D01*
X62308001Y-98219999D02*
X61929612Y-98598388D01*
X67425601Y-98219999D02*
X62308001Y-98219999D01*
X67491001Y-98285399D02*
X67425601Y-98219999D01*
X67491001Y-99922603D02*
X67491001Y-98285399D01*
X68340398Y-100772000D02*
X67491001Y-99922603D01*
X68834000Y-100772000D02*
X68340398Y-100772000D01*
X66751000Y-100889000D02*
X66634000Y-100772000D01*
X66751000Y-102616000D02*
X66751000Y-100889000D01*
D26*
X75350001Y-106592001D02*
X76200000Y-107442000D01*
X74841999Y-105156000D02*
X74841999Y-106083999D01*
X73591998Y-103905999D02*
X74841999Y-105156000D01*
X74841999Y-106083999D02*
X75350001Y-106592001D01*
X70266001Y-103905999D02*
X73591998Y-103905999D01*
X69646000Y-104526000D02*
X70266001Y-103905999D01*
X69596000Y-104526000D02*
X69646000Y-104526000D01*
D25*
X57607000Y-100076000D02*
X58166000Y-100635000D01*
X56134000Y-100076000D02*
X57607000Y-100076000D01*
D27*
X53946000Y-100838000D02*
X54134000Y-101026000D01*
X51816000Y-100838000D02*
X53946000Y-100838000D01*
X54134000Y-99126000D02*
X56449000Y-99126000D01*
X56449000Y-99126000D02*
X56515000Y-99060000D01*
G36*
X77318001Y-117450000D02*
G01*
X73615856Y-117450000D01*
X73644562Y-117426442D01*
X73668365Y-117397438D01*
X76711004Y-114354800D01*
X76740001Y-114331003D01*
X76834974Y-114215278D01*
X76905546Y-114083249D01*
X76949003Y-113939988D01*
X76960000Y-113828335D01*
X76960000Y-113828325D01*
X76962987Y-113797998D01*
X77029014Y-113762706D01*
X77255134Y-113577134D01*
X77318001Y-113500531D01*
X77318001Y-117450000D01*
X77318001Y-117450000D01*
G37*
X77318001Y-117450000D02*
X73615856Y-117450000D01*
X73644562Y-117426442D01*
X73668365Y-117397438D01*
X76711004Y-114354800D01*
X76740001Y-114331003D01*
X76834974Y-114215278D01*
X76905546Y-114083249D01*
X76949003Y-113939988D01*
X76960000Y-113828335D01*
X76960000Y-113828325D01*
X76962987Y-113797998D01*
X77029014Y-113762706D01*
X77255134Y-113577134D01*
X77318001Y-113500531D01*
X77318001Y-117450000D01*
G36*
X65655463Y-114217494D02*
G01*
X65734815Y-114314185D01*
X65831506Y-114393537D01*
X65941820Y-114452502D01*
X66061518Y-114488812D01*
X66186000Y-114501072D01*
X67246000Y-114501072D01*
X67370482Y-114488812D01*
X67490180Y-114452502D01*
X67544040Y-114423713D01*
X67641274Y-114414136D01*
X67808851Y-114363303D01*
X67963291Y-114280753D01*
X68037406Y-114219928D01*
X68052498Y-114269680D01*
X68111463Y-114379994D01*
X68190815Y-114476685D01*
X68287461Y-114556000D01*
X68129729Y-114556000D01*
X68072000Y-114550314D01*
X67922621Y-114565027D01*
X67778984Y-114608599D01*
X67646607Y-114679355D01*
X67594168Y-114722391D01*
X67446411Y-114693000D01*
X67173589Y-114693000D01*
X66906011Y-114746225D01*
X66653957Y-114850629D01*
X66427114Y-115002201D01*
X66234201Y-115195114D01*
X66082629Y-115421957D01*
X66013697Y-115588373D01*
X65997371Y-115548957D01*
X65845799Y-115322114D01*
X65652886Y-115129201D01*
X65426043Y-114977629D01*
X65173989Y-114873225D01*
X64906411Y-114820000D01*
X64633589Y-114820000D01*
X64366011Y-114873225D01*
X64113957Y-114977629D01*
X63887114Y-115129201D01*
X63694201Y-115322114D01*
X63542629Y-115548957D01*
X63501489Y-115648279D01*
X63486277Y-115606168D01*
X63425860Y-115493137D01*
X63186993Y-115427612D01*
X62409605Y-116205000D01*
X63186993Y-116982388D01*
X63425860Y-116916863D01*
X63500164Y-116758523D01*
X63542629Y-116861043D01*
X63694201Y-117087886D01*
X63887114Y-117280799D01*
X64113957Y-117432371D01*
X64156517Y-117450000D01*
X62849930Y-117450000D01*
X62941863Y-117400860D01*
X63007388Y-117161993D01*
X62230000Y-116384605D01*
X61452612Y-117161993D01*
X61518137Y-117400860D01*
X61622853Y-117450000D01*
X60303483Y-117450000D01*
X60346043Y-117432371D01*
X60572886Y-117280799D01*
X60765799Y-117087886D01*
X60917371Y-116861043D01*
X60958511Y-116761721D01*
X60973723Y-116803832D01*
X61034140Y-116916863D01*
X61273007Y-116982388D01*
X62050395Y-116205000D01*
X62036253Y-116190858D01*
X62215858Y-116011253D01*
X62230000Y-116025395D01*
X62647698Y-115607697D01*
X62707680Y-115589502D01*
X62817994Y-115530537D01*
X62914685Y-115451185D01*
X62994037Y-115354494D01*
X63053002Y-115244180D01*
X63089312Y-115124482D01*
X63101572Y-115000000D01*
X63098500Y-114585750D01*
X62941215Y-114428465D01*
X62970000Y-114431300D01*
X63013640Y-114427002D01*
X63098500Y-114427002D01*
X63098500Y-114427000D01*
X63694110Y-114427000D01*
X63741820Y-114452502D01*
X63861518Y-114488812D01*
X63986000Y-114501072D01*
X65046000Y-114501072D01*
X65170482Y-114488812D01*
X65290180Y-114452502D01*
X65400494Y-114393537D01*
X65497185Y-114314185D01*
X65576537Y-114217494D01*
X65616000Y-114143665D01*
X65655463Y-114217494D01*
X65655463Y-114217494D01*
G37*
X65655463Y-114217494D02*
X65734815Y-114314185D01*
X65831506Y-114393537D01*
X65941820Y-114452502D01*
X66061518Y-114488812D01*
X66186000Y-114501072D01*
X67246000Y-114501072D01*
X67370482Y-114488812D01*
X67490180Y-114452502D01*
X67544040Y-114423713D01*
X67641274Y-114414136D01*
X67808851Y-114363303D01*
X67963291Y-114280753D01*
X68037406Y-114219928D01*
X68052498Y-114269680D01*
X68111463Y-114379994D01*
X68190815Y-114476685D01*
X68287461Y-114556000D01*
X68129729Y-114556000D01*
X68072000Y-114550314D01*
X67922621Y-114565027D01*
X67778984Y-114608599D01*
X67646607Y-114679355D01*
X67594168Y-114722391D01*
X67446411Y-114693000D01*
X67173589Y-114693000D01*
X66906011Y-114746225D01*
X66653957Y-114850629D01*
X66427114Y-115002201D01*
X66234201Y-115195114D01*
X66082629Y-115421957D01*
X66013697Y-115588373D01*
X65997371Y-115548957D01*
X65845799Y-115322114D01*
X65652886Y-115129201D01*
X65426043Y-114977629D01*
X65173989Y-114873225D01*
X64906411Y-114820000D01*
X64633589Y-114820000D01*
X64366011Y-114873225D01*
X64113957Y-114977629D01*
X63887114Y-115129201D01*
X63694201Y-115322114D01*
X63542629Y-115548957D01*
X63501489Y-115648279D01*
X63486277Y-115606168D01*
X63425860Y-115493137D01*
X63186993Y-115427612D01*
X62409605Y-116205000D01*
X63186993Y-116982388D01*
X63425860Y-116916863D01*
X63500164Y-116758523D01*
X63542629Y-116861043D01*
X63694201Y-117087886D01*
X63887114Y-117280799D01*
X64113957Y-117432371D01*
X64156517Y-117450000D01*
X62849930Y-117450000D01*
X62941863Y-117400860D01*
X63007388Y-117161993D01*
X62230000Y-116384605D01*
X61452612Y-117161993D01*
X61518137Y-117400860D01*
X61622853Y-117450000D01*
X60303483Y-117450000D01*
X60346043Y-117432371D01*
X60572886Y-117280799D01*
X60765799Y-117087886D01*
X60917371Y-116861043D01*
X60958511Y-116761721D01*
X60973723Y-116803832D01*
X61034140Y-116916863D01*
X61273007Y-116982388D01*
X62050395Y-116205000D01*
X62036253Y-116190858D01*
X62215858Y-116011253D01*
X62230000Y-116025395D01*
X62647698Y-115607697D01*
X62707680Y-115589502D01*
X62817994Y-115530537D01*
X62914685Y-115451185D01*
X62994037Y-115354494D01*
X63053002Y-115244180D01*
X63089312Y-115124482D01*
X63101572Y-115000000D01*
X63098500Y-114585750D01*
X62941215Y-114428465D01*
X62970000Y-114431300D01*
X63013640Y-114427002D01*
X63098500Y-114427002D01*
X63098500Y-114427000D01*
X63694110Y-114427000D01*
X63741820Y-114452502D01*
X63861518Y-114488812D01*
X63986000Y-114501072D01*
X65046000Y-114501072D01*
X65170482Y-114488812D01*
X65290180Y-114452502D01*
X65400494Y-114393537D01*
X65497185Y-114314185D01*
X65576537Y-114217494D01*
X65616000Y-114143665D01*
X65655463Y-114217494D01*
G36*
X72263000Y-115443000D02*
G01*
X72283000Y-115443000D01*
X72283000Y-115697000D01*
X72263000Y-115697000D01*
X72263000Y-115717000D01*
X72009000Y-115717000D01*
X72009000Y-115697000D01*
X71989000Y-115697000D01*
X71989000Y-115443000D01*
X72009000Y-115443000D01*
X72009000Y-115423000D01*
X72263000Y-115423000D01*
X72263000Y-115443000D01*
X72263000Y-115443000D01*
G37*
X72263000Y-115443000D02*
X72283000Y-115443000D01*
X72283000Y-115697000D01*
X72263000Y-115697000D01*
X72263000Y-115717000D01*
X72009000Y-115717000D01*
X72009000Y-115697000D01*
X71989000Y-115697000D01*
X71989000Y-115443000D01*
X72009000Y-115443000D01*
X72009000Y-115423000D01*
X72263000Y-115423000D01*
X72263000Y-115443000D01*
G36*
X73952999Y-105524235D02*
G01*
X73953000Y-106040330D01*
X73948699Y-106083999D01*
X73965863Y-106258273D01*
X74016697Y-106425851D01*
X74063735Y-106513852D01*
X74099247Y-106580290D01*
X74210341Y-106715658D01*
X74244259Y-106743494D01*
X74690502Y-107189736D01*
X74690506Y-107189741D01*
X74728881Y-107228116D01*
X74707815Y-107442000D01*
X74736487Y-107733111D01*
X74821401Y-108013034D01*
X74959294Y-108271014D01*
X75144866Y-108497134D01*
X75370986Y-108682706D01*
X75435523Y-108717201D01*
X75318645Y-108786822D01*
X75102412Y-108981731D01*
X74928359Y-109215080D01*
X74803175Y-109477901D01*
X74758524Y-109625110D01*
X74879845Y-109855000D01*
X76073000Y-109855000D01*
X76073000Y-109835000D01*
X76327000Y-109835000D01*
X76327000Y-109855000D01*
X76347000Y-109855000D01*
X76347000Y-110109000D01*
X76327000Y-110109000D01*
X76327000Y-110129000D01*
X76073000Y-110129000D01*
X76073000Y-110109000D01*
X74879845Y-110109000D01*
X74758524Y-110338890D01*
X74803175Y-110486099D01*
X74928359Y-110748920D01*
X75102412Y-110982269D01*
X75318645Y-111177178D01*
X75435523Y-111246799D01*
X75370986Y-111281294D01*
X75144866Y-111466866D01*
X74959294Y-111692986D01*
X74821401Y-111950966D01*
X74736487Y-112230889D01*
X74707815Y-112522000D01*
X74736487Y-112813111D01*
X74821401Y-113093034D01*
X74959294Y-113351014D01*
X75144866Y-113577134D01*
X75251530Y-113664671D01*
X73473203Y-115442998D01*
X73462252Y-115442998D01*
X73621000Y-115284250D01*
X73624072Y-114720000D01*
X73611812Y-114595518D01*
X73575502Y-114475820D01*
X73516537Y-114365506D01*
X73437185Y-114268815D01*
X73340494Y-114189463D01*
X73230180Y-114130498D01*
X73161313Y-114109607D01*
X73191134Y-114085134D01*
X73376706Y-113859014D01*
X73514599Y-113601034D01*
X73599513Y-113321111D01*
X73628185Y-113030000D01*
X73599513Y-112738889D01*
X73514599Y-112458966D01*
X73376706Y-112200986D01*
X73191134Y-111974866D01*
X72965014Y-111789294D01*
X72707034Y-111651401D01*
X72427111Y-111566487D01*
X72280753Y-111552072D01*
X73036000Y-111552072D01*
X73160482Y-111539812D01*
X73280180Y-111503502D01*
X73390494Y-111444537D01*
X73487185Y-111365185D01*
X73566537Y-111268494D01*
X73625502Y-111158180D01*
X73661812Y-111038482D01*
X73674072Y-110914000D01*
X73674072Y-108414000D01*
X73661812Y-108289518D01*
X73625502Y-108169820D01*
X73566537Y-108059506D01*
X73487185Y-107962815D01*
X73390494Y-107883463D01*
X73280180Y-107824498D01*
X73160482Y-107788188D01*
X73036000Y-107775928D01*
X71236000Y-107775928D01*
X71111518Y-107788188D01*
X70991820Y-107824498D01*
X70881506Y-107883463D01*
X70793183Y-107955948D01*
X70684072Y-107846837D01*
X70684072Y-107616000D01*
X70671812Y-107491518D01*
X70635502Y-107371820D01*
X70576537Y-107261506D01*
X70497185Y-107164815D01*
X70410896Y-107094000D01*
X70451107Y-107061000D01*
X70617019Y-107061000D01*
X70646498Y-107158180D01*
X70705463Y-107268494D01*
X70784815Y-107365185D01*
X70881506Y-107444537D01*
X70991820Y-107503502D01*
X71111518Y-107539812D01*
X71236000Y-107552072D01*
X73036000Y-107552072D01*
X73160482Y-107539812D01*
X73280180Y-107503502D01*
X73390494Y-107444537D01*
X73487185Y-107365185D01*
X73566537Y-107268494D01*
X73625502Y-107158180D01*
X73661812Y-107038482D01*
X73674072Y-106914000D01*
X73674072Y-105245308D01*
X73952999Y-105524235D01*
X73952999Y-105524235D01*
G37*
X73952999Y-105524235D02*
X73953000Y-106040330D01*
X73948699Y-106083999D01*
X73965863Y-106258273D01*
X74016697Y-106425851D01*
X74063735Y-106513852D01*
X74099247Y-106580290D01*
X74210341Y-106715658D01*
X74244259Y-106743494D01*
X74690502Y-107189736D01*
X74690506Y-107189741D01*
X74728881Y-107228116D01*
X74707815Y-107442000D01*
X74736487Y-107733111D01*
X74821401Y-108013034D01*
X74959294Y-108271014D01*
X75144866Y-108497134D01*
X75370986Y-108682706D01*
X75435523Y-108717201D01*
X75318645Y-108786822D01*
X75102412Y-108981731D01*
X74928359Y-109215080D01*
X74803175Y-109477901D01*
X74758524Y-109625110D01*
X74879845Y-109855000D01*
X76073000Y-109855000D01*
X76073000Y-109835000D01*
X76327000Y-109835000D01*
X76327000Y-109855000D01*
X76347000Y-109855000D01*
X76347000Y-110109000D01*
X76327000Y-110109000D01*
X76327000Y-110129000D01*
X76073000Y-110129000D01*
X76073000Y-110109000D01*
X74879845Y-110109000D01*
X74758524Y-110338890D01*
X74803175Y-110486099D01*
X74928359Y-110748920D01*
X75102412Y-110982269D01*
X75318645Y-111177178D01*
X75435523Y-111246799D01*
X75370986Y-111281294D01*
X75144866Y-111466866D01*
X74959294Y-111692986D01*
X74821401Y-111950966D01*
X74736487Y-112230889D01*
X74707815Y-112522000D01*
X74736487Y-112813111D01*
X74821401Y-113093034D01*
X74959294Y-113351014D01*
X75144866Y-113577134D01*
X75251530Y-113664671D01*
X73473203Y-115442998D01*
X73462252Y-115442998D01*
X73621000Y-115284250D01*
X73624072Y-114720000D01*
X73611812Y-114595518D01*
X73575502Y-114475820D01*
X73516537Y-114365506D01*
X73437185Y-114268815D01*
X73340494Y-114189463D01*
X73230180Y-114130498D01*
X73161313Y-114109607D01*
X73191134Y-114085134D01*
X73376706Y-113859014D01*
X73514599Y-113601034D01*
X73599513Y-113321111D01*
X73628185Y-113030000D01*
X73599513Y-112738889D01*
X73514599Y-112458966D01*
X73376706Y-112200986D01*
X73191134Y-111974866D01*
X72965014Y-111789294D01*
X72707034Y-111651401D01*
X72427111Y-111566487D01*
X72280753Y-111552072D01*
X73036000Y-111552072D01*
X73160482Y-111539812D01*
X73280180Y-111503502D01*
X73390494Y-111444537D01*
X73487185Y-111365185D01*
X73566537Y-111268494D01*
X73625502Y-111158180D01*
X73661812Y-111038482D01*
X73674072Y-110914000D01*
X73674072Y-108414000D01*
X73661812Y-108289518D01*
X73625502Y-108169820D01*
X73566537Y-108059506D01*
X73487185Y-107962815D01*
X73390494Y-107883463D01*
X73280180Y-107824498D01*
X73160482Y-107788188D01*
X73036000Y-107775928D01*
X71236000Y-107775928D01*
X71111518Y-107788188D01*
X70991820Y-107824498D01*
X70881506Y-107883463D01*
X70793183Y-107955948D01*
X70684072Y-107846837D01*
X70684072Y-107616000D01*
X70671812Y-107491518D01*
X70635502Y-107371820D01*
X70576537Y-107261506D01*
X70497185Y-107164815D01*
X70410896Y-107094000D01*
X70451107Y-107061000D01*
X70617019Y-107061000D01*
X70646498Y-107158180D01*
X70705463Y-107268494D01*
X70784815Y-107365185D01*
X70881506Y-107444537D01*
X70991820Y-107503502D01*
X71111518Y-107539812D01*
X71236000Y-107552072D01*
X73036000Y-107552072D01*
X73160482Y-107539812D01*
X73280180Y-107503502D01*
X73390494Y-107444537D01*
X73487185Y-107365185D01*
X73566537Y-107268494D01*
X73625502Y-107158180D01*
X73661812Y-107038482D01*
X73674072Y-106914000D01*
X73674072Y-105245308D01*
X73952999Y-105524235D01*
G36*
X57069392Y-100969908D02*
G01*
X57118150Y-101130642D01*
X57197329Y-101278775D01*
X57303885Y-101408615D01*
X57433725Y-101515171D01*
X57581858Y-101594350D01*
X57742592Y-101643108D01*
X57909750Y-101659572D01*
X58422250Y-101659572D01*
X58554706Y-101646526D01*
X58860532Y-101952351D01*
X58884398Y-101981432D01*
X59000428Y-102076655D01*
X59132805Y-102147412D01*
X59276442Y-102190984D01*
X59388394Y-102202010D01*
X59388397Y-102202010D01*
X59425820Y-102205696D01*
X59463243Y-102202010D01*
X60090498Y-102202010D01*
X60452000Y-102563512D01*
X60452001Y-103205808D01*
X60448314Y-103243241D01*
X60463027Y-103392619D01*
X60506599Y-103536256D01*
X60577355Y-103668633D01*
X60642095Y-103747518D01*
X60672579Y-103784663D01*
X60701649Y-103808520D01*
X61946478Y-105053350D01*
X61970336Y-105082421D01*
X61999406Y-105106278D01*
X62086365Y-105177644D01*
X62142902Y-105207863D01*
X62218743Y-105248401D01*
X62362380Y-105291973D01*
X62469928Y-105302565D01*
X62469928Y-107422000D01*
X62482188Y-107546482D01*
X62518498Y-107666180D01*
X62535506Y-107698000D01*
X62490729Y-107698000D01*
X62433000Y-107692314D01*
X62283621Y-107707027D01*
X62139984Y-107750599D01*
X62007607Y-107821355D01*
X61920649Y-107892721D01*
X61906227Y-107907143D01*
X61892999Y-107917999D01*
X61882143Y-107931227D01*
X59409572Y-110403798D01*
X59409572Y-109801999D01*
X59392508Y-109628745D01*
X59341972Y-109462149D01*
X59259905Y-109308613D01*
X59149462Y-109174038D01*
X59014887Y-109063595D01*
X58861351Y-108981528D01*
X58694755Y-108930992D01*
X58521501Y-108913928D01*
X57896499Y-108913928D01*
X57723245Y-108930992D01*
X57556649Y-108981528D01*
X57403113Y-109063595D01*
X57268538Y-109174038D01*
X57158095Y-109308613D01*
X57076028Y-109462149D01*
X57025492Y-109628745D01*
X57008428Y-109801999D01*
X57008428Y-111357132D01*
X56938408Y-111335892D01*
X56880950Y-111330233D01*
X56887572Y-111296940D01*
X56887572Y-111093062D01*
X56847798Y-110893103D01*
X56769777Y-110704745D01*
X56656509Y-110535227D01*
X56512346Y-110391064D01*
X56484524Y-110372474D01*
X56519975Y-110329277D01*
X56590547Y-110197248D01*
X56634004Y-110053987D01*
X56645001Y-109942334D01*
X56645001Y-109942324D01*
X56648677Y-109905002D01*
X56645001Y-109867679D01*
X56645001Y-108582323D01*
X56648677Y-108545000D01*
X56645001Y-108507678D01*
X56645001Y-108507668D01*
X56634004Y-108396015D01*
X56590547Y-108252754D01*
X56519975Y-108120725D01*
X56425002Y-108005000D01*
X56396003Y-107981201D01*
X56373802Y-107959000D01*
X56350001Y-107929999D01*
X56234276Y-107835026D01*
X56102247Y-107764454D01*
X55966430Y-107723255D01*
X56036994Y-107685537D01*
X56133685Y-107606185D01*
X56213037Y-107509494D01*
X56272002Y-107399180D01*
X56308312Y-107279482D01*
X56320572Y-107155000D01*
X56317500Y-106965750D01*
X56158750Y-106807000D01*
X55372000Y-106807000D01*
X55372000Y-106827000D01*
X55118000Y-106827000D01*
X55118000Y-106807000D01*
X55098000Y-106807000D01*
X55098000Y-106553000D01*
X55118000Y-106553000D01*
X55118000Y-105728750D01*
X55116750Y-105727500D01*
X55118000Y-105726250D01*
X55118000Y-104902000D01*
X55372000Y-104902000D01*
X55372000Y-105726250D01*
X55373250Y-105727500D01*
X55372000Y-105728750D01*
X55372000Y-106553000D01*
X56158750Y-106553000D01*
X56317500Y-106394250D01*
X56320572Y-106205000D01*
X56308312Y-106080518D01*
X56272002Y-105960820D01*
X56213037Y-105850506D01*
X56133685Y-105753815D01*
X56101620Y-105727500D01*
X56133685Y-105701185D01*
X56213037Y-105604494D01*
X56272002Y-105494180D01*
X56308312Y-105374482D01*
X56320572Y-105250000D01*
X56317500Y-105060750D01*
X56158750Y-104902000D01*
X55372000Y-104902000D01*
X55118000Y-104902000D01*
X55098000Y-104902000D01*
X55098000Y-104648000D01*
X55118000Y-104648000D01*
X55118000Y-103823750D01*
X55372000Y-103823750D01*
X55372000Y-104648000D01*
X56158750Y-104648000D01*
X56317500Y-104489250D01*
X56320572Y-104300000D01*
X56308312Y-104175518D01*
X56272002Y-104055820D01*
X56213037Y-103945506D01*
X56133685Y-103848815D01*
X56036994Y-103769463D01*
X55926680Y-103710498D01*
X55806982Y-103674188D01*
X55682500Y-103661928D01*
X55530750Y-103665000D01*
X55372000Y-103823750D01*
X55118000Y-103823750D01*
X54959250Y-103665000D01*
X54807500Y-103661928D01*
X54683018Y-103674188D01*
X54563320Y-103710498D01*
X54453006Y-103769463D01*
X54386430Y-103824100D01*
X54364775Y-103806329D01*
X54216642Y-103727150D01*
X54055908Y-103678392D01*
X53888750Y-103661928D01*
X53451250Y-103661928D01*
X53284092Y-103678392D01*
X53123358Y-103727150D01*
X52975225Y-103806329D01*
X52845385Y-103912885D01*
X52738829Y-104042725D01*
X52659650Y-104190858D01*
X52610892Y-104351592D01*
X52594428Y-104518750D01*
X52594428Y-105031250D01*
X52610892Y-105198408D01*
X52659650Y-105359142D01*
X52738829Y-105507275D01*
X52845385Y-105637115D01*
X52910001Y-105690143D01*
X52910000Y-105764857D01*
X52845385Y-105817885D01*
X52738829Y-105947725D01*
X52659650Y-106095858D01*
X52610892Y-106256592D01*
X52594428Y-106423750D01*
X52594428Y-106680770D01*
X51393993Y-107881206D01*
X51364989Y-107905009D01*
X51336119Y-107940188D01*
X51270016Y-108020734D01*
X51216569Y-108120725D01*
X51199444Y-108152764D01*
X51155987Y-108296025D01*
X51144990Y-108407678D01*
X51144990Y-108407688D01*
X51141314Y-108445010D01*
X51144990Y-108482333D01*
X51144991Y-113132658D01*
X51141314Y-113169990D01*
X51144991Y-113207323D01*
X51155988Y-113318976D01*
X51167164Y-113355820D01*
X51199444Y-113462236D01*
X51270016Y-113594266D01*
X51338533Y-113677753D01*
X51364990Y-113709991D01*
X51393988Y-113733789D01*
X51591928Y-113931729D01*
X51591928Y-114188750D01*
X51608392Y-114355908D01*
X51657150Y-114516642D01*
X51736329Y-114664775D01*
X51842885Y-114794615D01*
X51885478Y-114829570D01*
X51666011Y-114873225D01*
X51413957Y-114977629D01*
X51187114Y-115129201D01*
X50994201Y-115322114D01*
X50927000Y-115422687D01*
X50927000Y-101629855D01*
X50953885Y-101662615D01*
X51083725Y-101769171D01*
X51231858Y-101848350D01*
X51392592Y-101897108D01*
X51559750Y-101913572D01*
X52072250Y-101913572D01*
X52239408Y-101897108D01*
X52400142Y-101848350D01*
X52548275Y-101769171D01*
X52678115Y-101662615D01*
X52729501Y-101600000D01*
X53073209Y-101600000D01*
X53094498Y-101670180D01*
X53153463Y-101780494D01*
X53232815Y-101877185D01*
X53329506Y-101956537D01*
X53439820Y-102015502D01*
X53559518Y-102051812D01*
X53684000Y-102064072D01*
X54584000Y-102064072D01*
X54708482Y-102051812D01*
X54828180Y-102015502D01*
X54938494Y-101956537D01*
X55035185Y-101877185D01*
X55114537Y-101780494D01*
X55173502Y-101670180D01*
X55209812Y-101550482D01*
X55222072Y-101426000D01*
X55222072Y-100914095D01*
X55232815Y-100927185D01*
X55329506Y-101006537D01*
X55439820Y-101065502D01*
X55559518Y-101101812D01*
X55684000Y-101114072D01*
X56584000Y-101114072D01*
X56708482Y-101101812D01*
X56828180Y-101065502D01*
X56938494Y-101006537D01*
X57035185Y-100927185D01*
X57061970Y-100894548D01*
X57069392Y-100969908D01*
X57069392Y-100969908D01*
G37*
X57069392Y-100969908D02*
X57118150Y-101130642D01*
X57197329Y-101278775D01*
X57303885Y-101408615D01*
X57433725Y-101515171D01*
X57581858Y-101594350D01*
X57742592Y-101643108D01*
X57909750Y-101659572D01*
X58422250Y-101659572D01*
X58554706Y-101646526D01*
X58860532Y-101952351D01*
X58884398Y-101981432D01*
X59000428Y-102076655D01*
X59132805Y-102147412D01*
X59276442Y-102190984D01*
X59388394Y-102202010D01*
X59388397Y-102202010D01*
X59425820Y-102205696D01*
X59463243Y-102202010D01*
X60090498Y-102202010D01*
X60452000Y-102563512D01*
X60452001Y-103205808D01*
X60448314Y-103243241D01*
X60463027Y-103392619D01*
X60506599Y-103536256D01*
X60577355Y-103668633D01*
X60642095Y-103747518D01*
X60672579Y-103784663D01*
X60701649Y-103808520D01*
X61946478Y-105053350D01*
X61970336Y-105082421D01*
X61999406Y-105106278D01*
X62086365Y-105177644D01*
X62142902Y-105207863D01*
X62218743Y-105248401D01*
X62362380Y-105291973D01*
X62469928Y-105302565D01*
X62469928Y-107422000D01*
X62482188Y-107546482D01*
X62518498Y-107666180D01*
X62535506Y-107698000D01*
X62490729Y-107698000D01*
X62433000Y-107692314D01*
X62283621Y-107707027D01*
X62139984Y-107750599D01*
X62007607Y-107821355D01*
X61920649Y-107892721D01*
X61906227Y-107907143D01*
X61892999Y-107917999D01*
X61882143Y-107931227D01*
X59409572Y-110403798D01*
X59409572Y-109801999D01*
X59392508Y-109628745D01*
X59341972Y-109462149D01*
X59259905Y-109308613D01*
X59149462Y-109174038D01*
X59014887Y-109063595D01*
X58861351Y-108981528D01*
X58694755Y-108930992D01*
X58521501Y-108913928D01*
X57896499Y-108913928D01*
X57723245Y-108930992D01*
X57556649Y-108981528D01*
X57403113Y-109063595D01*
X57268538Y-109174038D01*
X57158095Y-109308613D01*
X57076028Y-109462149D01*
X57025492Y-109628745D01*
X57008428Y-109801999D01*
X57008428Y-111357132D01*
X56938408Y-111335892D01*
X56880950Y-111330233D01*
X56887572Y-111296940D01*
X56887572Y-111093062D01*
X56847798Y-110893103D01*
X56769777Y-110704745D01*
X56656509Y-110535227D01*
X56512346Y-110391064D01*
X56484524Y-110372474D01*
X56519975Y-110329277D01*
X56590547Y-110197248D01*
X56634004Y-110053987D01*
X56645001Y-109942334D01*
X56645001Y-109942324D01*
X56648677Y-109905002D01*
X56645001Y-109867679D01*
X56645001Y-108582323D01*
X56648677Y-108545000D01*
X56645001Y-108507678D01*
X56645001Y-108507668D01*
X56634004Y-108396015D01*
X56590547Y-108252754D01*
X56519975Y-108120725D01*
X56425002Y-108005000D01*
X56396003Y-107981201D01*
X56373802Y-107959000D01*
X56350001Y-107929999D01*
X56234276Y-107835026D01*
X56102247Y-107764454D01*
X55966430Y-107723255D01*
X56036994Y-107685537D01*
X56133685Y-107606185D01*
X56213037Y-107509494D01*
X56272002Y-107399180D01*
X56308312Y-107279482D01*
X56320572Y-107155000D01*
X56317500Y-106965750D01*
X56158750Y-106807000D01*
X55372000Y-106807000D01*
X55372000Y-106827000D01*
X55118000Y-106827000D01*
X55118000Y-106807000D01*
X55098000Y-106807000D01*
X55098000Y-106553000D01*
X55118000Y-106553000D01*
X55118000Y-105728750D01*
X55116750Y-105727500D01*
X55118000Y-105726250D01*
X55118000Y-104902000D01*
X55372000Y-104902000D01*
X55372000Y-105726250D01*
X55373250Y-105727500D01*
X55372000Y-105728750D01*
X55372000Y-106553000D01*
X56158750Y-106553000D01*
X56317500Y-106394250D01*
X56320572Y-106205000D01*
X56308312Y-106080518D01*
X56272002Y-105960820D01*
X56213037Y-105850506D01*
X56133685Y-105753815D01*
X56101620Y-105727500D01*
X56133685Y-105701185D01*
X56213037Y-105604494D01*
X56272002Y-105494180D01*
X56308312Y-105374482D01*
X56320572Y-105250000D01*
X56317500Y-105060750D01*
X56158750Y-104902000D01*
X55372000Y-104902000D01*
X55118000Y-104902000D01*
X55098000Y-104902000D01*
X55098000Y-104648000D01*
X55118000Y-104648000D01*
X55118000Y-103823750D01*
X55372000Y-103823750D01*
X55372000Y-104648000D01*
X56158750Y-104648000D01*
X56317500Y-104489250D01*
X56320572Y-104300000D01*
X56308312Y-104175518D01*
X56272002Y-104055820D01*
X56213037Y-103945506D01*
X56133685Y-103848815D01*
X56036994Y-103769463D01*
X55926680Y-103710498D01*
X55806982Y-103674188D01*
X55682500Y-103661928D01*
X55530750Y-103665000D01*
X55372000Y-103823750D01*
X55118000Y-103823750D01*
X54959250Y-103665000D01*
X54807500Y-103661928D01*
X54683018Y-103674188D01*
X54563320Y-103710498D01*
X54453006Y-103769463D01*
X54386430Y-103824100D01*
X54364775Y-103806329D01*
X54216642Y-103727150D01*
X54055908Y-103678392D01*
X53888750Y-103661928D01*
X53451250Y-103661928D01*
X53284092Y-103678392D01*
X53123358Y-103727150D01*
X52975225Y-103806329D01*
X52845385Y-103912885D01*
X52738829Y-104042725D01*
X52659650Y-104190858D01*
X52610892Y-104351592D01*
X52594428Y-104518750D01*
X52594428Y-105031250D01*
X52610892Y-105198408D01*
X52659650Y-105359142D01*
X52738829Y-105507275D01*
X52845385Y-105637115D01*
X52910001Y-105690143D01*
X52910000Y-105764857D01*
X52845385Y-105817885D01*
X52738829Y-105947725D01*
X52659650Y-106095858D01*
X52610892Y-106256592D01*
X52594428Y-106423750D01*
X52594428Y-106680770D01*
X51393993Y-107881206D01*
X51364989Y-107905009D01*
X51336119Y-107940188D01*
X51270016Y-108020734D01*
X51216569Y-108120725D01*
X51199444Y-108152764D01*
X51155987Y-108296025D01*
X51144990Y-108407678D01*
X51144990Y-108407688D01*
X51141314Y-108445010D01*
X51144990Y-108482333D01*
X51144991Y-113132658D01*
X51141314Y-113169990D01*
X51144991Y-113207323D01*
X51155988Y-113318976D01*
X51167164Y-113355820D01*
X51199444Y-113462236D01*
X51270016Y-113594266D01*
X51338533Y-113677753D01*
X51364990Y-113709991D01*
X51393988Y-113733789D01*
X51591928Y-113931729D01*
X51591928Y-114188750D01*
X51608392Y-114355908D01*
X51657150Y-114516642D01*
X51736329Y-114664775D01*
X51842885Y-114794615D01*
X51885478Y-114829570D01*
X51666011Y-114873225D01*
X51413957Y-114977629D01*
X51187114Y-115129201D01*
X50994201Y-115322114D01*
X50927000Y-115422687D01*
X50927000Y-101629855D01*
X50953885Y-101662615D01*
X51083725Y-101769171D01*
X51231858Y-101848350D01*
X51392592Y-101897108D01*
X51559750Y-101913572D01*
X52072250Y-101913572D01*
X52239408Y-101897108D01*
X52400142Y-101848350D01*
X52548275Y-101769171D01*
X52678115Y-101662615D01*
X52729501Y-101600000D01*
X53073209Y-101600000D01*
X53094498Y-101670180D01*
X53153463Y-101780494D01*
X53232815Y-101877185D01*
X53329506Y-101956537D01*
X53439820Y-102015502D01*
X53559518Y-102051812D01*
X53684000Y-102064072D01*
X54584000Y-102064072D01*
X54708482Y-102051812D01*
X54828180Y-102015502D01*
X54938494Y-101956537D01*
X55035185Y-101877185D01*
X55114537Y-101780494D01*
X55173502Y-101670180D01*
X55209812Y-101550482D01*
X55222072Y-101426000D01*
X55222072Y-100914095D01*
X55232815Y-100927185D01*
X55329506Y-101006537D01*
X55439820Y-101065502D01*
X55559518Y-101101812D01*
X55684000Y-101114072D01*
X56584000Y-101114072D01*
X56708482Y-101101812D01*
X56828180Y-101065502D01*
X56938494Y-101006537D01*
X57035185Y-100927185D01*
X57061970Y-100894548D01*
X57069392Y-100969908D01*
G36*
X70672487Y-113321111D02*
G01*
X70757401Y-113601034D01*
X70895294Y-113859014D01*
X71080866Y-114085134D01*
X71110687Y-114109607D01*
X71041820Y-114130498D01*
X70931506Y-114189463D01*
X70834815Y-114268815D01*
X70755463Y-114365506D01*
X70699928Y-114469403D01*
X70594256Y-114398795D01*
X70566532Y-114387311D01*
X70572537Y-114379994D01*
X70631502Y-114269680D01*
X70667812Y-114149982D01*
X70680072Y-114025500D01*
X70677000Y-113823750D01*
X70518250Y-113665000D01*
X69469000Y-113665000D01*
X69469000Y-113685000D01*
X69215000Y-113685000D01*
X69215000Y-113665000D01*
X69195000Y-113665000D01*
X69195000Y-113411000D01*
X69215000Y-113411000D01*
X69215000Y-113391000D01*
X69469000Y-113391000D01*
X69469000Y-113411000D01*
X70518250Y-113411000D01*
X70666718Y-113262532D01*
X70672487Y-113321111D01*
X70672487Y-113321111D01*
G37*
X70672487Y-113321111D02*
X70757401Y-113601034D01*
X70895294Y-113859014D01*
X71080866Y-114085134D01*
X71110687Y-114109607D01*
X71041820Y-114130498D01*
X70931506Y-114189463D01*
X70834815Y-114268815D01*
X70755463Y-114365506D01*
X70699928Y-114469403D01*
X70594256Y-114398795D01*
X70566532Y-114387311D01*
X70572537Y-114379994D01*
X70631502Y-114269680D01*
X70667812Y-114149982D01*
X70680072Y-114025500D01*
X70677000Y-113823750D01*
X70518250Y-113665000D01*
X69469000Y-113665000D01*
X69469000Y-113685000D01*
X69215000Y-113685000D01*
X69215000Y-113665000D01*
X69195000Y-113665000D01*
X69195000Y-113411000D01*
X69215000Y-113411000D01*
X69215000Y-113391000D01*
X69469000Y-113391000D01*
X69469000Y-113411000D01*
X70518250Y-113411000D01*
X70666718Y-113262532D01*
X70672487Y-113321111D01*
G36*
X62103000Y-114173000D02*
G01*
X62123000Y-114173000D01*
X62123000Y-114427000D01*
X62103000Y-114427000D01*
X62103000Y-114447000D01*
X61849000Y-114447000D01*
X61849000Y-114427000D01*
X61829000Y-114427000D01*
X61829000Y-114173000D01*
X61849000Y-114173000D01*
X61849000Y-114153000D01*
X62103000Y-114153000D01*
X62103000Y-114173000D01*
X62103000Y-114173000D01*
G37*
X62103000Y-114173000D02*
X62123000Y-114173000D01*
X62123000Y-114427000D01*
X62103000Y-114427000D01*
X62103000Y-114447000D01*
X61849000Y-114447000D01*
X61849000Y-114427000D01*
X61829000Y-114427000D01*
X61829000Y-114173000D01*
X61849000Y-114173000D01*
X61849000Y-114153000D01*
X62103000Y-114153000D01*
X62103000Y-114173000D01*
G36*
X61283428Y-112702001D02*
G01*
X61300492Y-112875255D01*
X61333327Y-112983498D01*
X61244320Y-113010498D01*
X61134006Y-113069463D01*
X61037315Y-113148815D01*
X60973508Y-113226564D01*
X60968292Y-113220208D01*
X60834664Y-113110542D01*
X60682209Y-113029053D01*
X60516785Y-112978872D01*
X60344750Y-112961928D01*
X60020164Y-112961928D01*
X59409572Y-112351337D01*
X59409572Y-112014000D01*
X59601577Y-112014000D01*
X59639000Y-112017686D01*
X59676423Y-112014000D01*
X59676426Y-112014000D01*
X59788378Y-112002974D01*
X59932015Y-111959402D01*
X60064392Y-111888645D01*
X60180422Y-111793422D01*
X60204284Y-111764346D01*
X61283428Y-110685202D01*
X61283428Y-112702001D01*
X61283428Y-112702001D01*
G37*
X61283428Y-112702001D02*
X61300492Y-112875255D01*
X61333327Y-112983498D01*
X61244320Y-113010498D01*
X61134006Y-113069463D01*
X61037315Y-113148815D01*
X60973508Y-113226564D01*
X60968292Y-113220208D01*
X60834664Y-113110542D01*
X60682209Y-113029053D01*
X60516785Y-112978872D01*
X60344750Y-112961928D01*
X60020164Y-112961928D01*
X59409572Y-112351337D01*
X59409572Y-112014000D01*
X59601577Y-112014000D01*
X59639000Y-112017686D01*
X59676423Y-112014000D01*
X59676426Y-112014000D01*
X59788378Y-112002974D01*
X59932015Y-111959402D01*
X60064392Y-111888645D01*
X60180422Y-111793422D01*
X60204284Y-111764346D01*
X61283428Y-110685202D01*
X61283428Y-112702001D01*
G36*
X64592000Y-109855000D02*
G01*
X64612000Y-109855000D01*
X64612000Y-110109000D01*
X64592000Y-110109000D01*
X64592000Y-110129000D01*
X64338000Y-110129000D01*
X64338000Y-110109000D01*
X64318000Y-110109000D01*
X64318000Y-109855000D01*
X64338000Y-109855000D01*
X64338000Y-109835000D01*
X64592000Y-109835000D01*
X64592000Y-109855000D01*
X64592000Y-109855000D01*
G37*
X64592000Y-109855000D02*
X64612000Y-109855000D01*
X64612000Y-110109000D01*
X64592000Y-110109000D01*
X64592000Y-110129000D01*
X64338000Y-110129000D01*
X64338000Y-110109000D01*
X64318000Y-110109000D01*
X64318000Y-109855000D01*
X64338000Y-109855000D01*
X64338000Y-109835000D01*
X64592000Y-109835000D01*
X64592000Y-109855000D01*
G36*
X66680883Y-107111096D02*
G01*
X66811490Y-107123960D01*
X66811497Y-107123960D01*
X66855157Y-107128260D01*
X66898817Y-107123960D01*
X68531380Y-107123960D01*
X68575040Y-107128260D01*
X68618700Y-107123960D01*
X68618707Y-107123960D01*
X68749314Y-107111096D01*
X68766697Y-107105823D01*
X68694815Y-107164815D01*
X68615463Y-107261506D01*
X68556498Y-107371820D01*
X68520188Y-107491518D01*
X68507928Y-107616000D01*
X68507928Y-107796837D01*
X68315000Y-107989765D01*
X68290180Y-107976498D01*
X68194699Y-107947534D01*
X68094935Y-107798226D01*
X67950772Y-107654063D01*
X67781254Y-107540795D01*
X67592896Y-107462774D01*
X67392937Y-107423000D01*
X67189059Y-107423000D01*
X66989100Y-107462774D01*
X66800742Y-107540795D01*
X66798948Y-107541994D01*
X66734775Y-107489329D01*
X66586642Y-107410150D01*
X66425908Y-107361392D01*
X66258750Y-107344928D01*
X65821250Y-107344928D01*
X65654092Y-107361392D01*
X65546072Y-107394159D01*
X65546072Y-107061000D01*
X66515736Y-107061000D01*
X66680883Y-107111096D01*
X66680883Y-107111096D01*
G37*
X66680883Y-107111096D02*
X66811490Y-107123960D01*
X66811497Y-107123960D01*
X66855157Y-107128260D01*
X66898817Y-107123960D01*
X68531380Y-107123960D01*
X68575040Y-107128260D01*
X68618700Y-107123960D01*
X68618707Y-107123960D01*
X68749314Y-107111096D01*
X68766697Y-107105823D01*
X68694815Y-107164815D01*
X68615463Y-107261506D01*
X68556498Y-107371820D01*
X68520188Y-107491518D01*
X68507928Y-107616000D01*
X68507928Y-107796837D01*
X68315000Y-107989765D01*
X68290180Y-107976498D01*
X68194699Y-107947534D01*
X68094935Y-107798226D01*
X67950772Y-107654063D01*
X67781254Y-107540795D01*
X67592896Y-107462774D01*
X67392937Y-107423000D01*
X67189059Y-107423000D01*
X66989100Y-107462774D01*
X66800742Y-107540795D01*
X66798948Y-107541994D01*
X66734775Y-107489329D01*
X66586642Y-107410150D01*
X66425908Y-107361392D01*
X66258750Y-107344928D01*
X65821250Y-107344928D01*
X65654092Y-107361392D01*
X65546072Y-107394159D01*
X65546072Y-107061000D01*
X66515736Y-107061000D01*
X66680883Y-107111096D01*
G36*
X65565829Y-103094275D02*
G01*
X65672385Y-103224115D01*
X65802225Y-103330671D01*
X65950358Y-103409850D01*
X66111092Y-103458608D01*
X66278250Y-103475072D01*
X66715750Y-103475072D01*
X66882908Y-103458608D01*
X67043642Y-103409850D01*
X67191775Y-103330671D01*
X67213430Y-103312900D01*
X67280006Y-103367537D01*
X67390320Y-103426502D01*
X67412985Y-103433377D01*
X66693262Y-104153101D01*
X66659339Y-104180941D01*
X66548245Y-104316310D01*
X66465695Y-104470750D01*
X66445399Y-104537658D01*
X66437118Y-104564959D01*
X66314392Y-104564959D01*
X65778085Y-104028652D01*
X65754223Y-103999577D01*
X65638193Y-103904354D01*
X65505816Y-103833597D01*
X65414426Y-103805874D01*
X65438537Y-103776494D01*
X65497502Y-103666180D01*
X65533812Y-103546482D01*
X65546072Y-103422000D01*
X65546072Y-103057312D01*
X65565829Y-103094275D01*
X65565829Y-103094275D01*
G37*
X65565829Y-103094275D02*
X65672385Y-103224115D01*
X65802225Y-103330671D01*
X65950358Y-103409850D01*
X66111092Y-103458608D01*
X66278250Y-103475072D01*
X66715750Y-103475072D01*
X66882908Y-103458608D01*
X67043642Y-103409850D01*
X67191775Y-103330671D01*
X67213430Y-103312900D01*
X67280006Y-103367537D01*
X67390320Y-103426502D01*
X67412985Y-103433377D01*
X66693262Y-104153101D01*
X66659339Y-104180941D01*
X66548245Y-104316310D01*
X66465695Y-104470750D01*
X66445399Y-104537658D01*
X66437118Y-104564959D01*
X66314392Y-104564959D01*
X65778085Y-104028652D01*
X65754223Y-103999577D01*
X65638193Y-103904354D01*
X65505816Y-103833597D01*
X65414426Y-103805874D01*
X65438537Y-103776494D01*
X65497502Y-103666180D01*
X65533812Y-103546482D01*
X65546072Y-103422000D01*
X65546072Y-103057312D01*
X65565829Y-103094275D01*
G36*
X74898815Y-98520815D02*
G01*
X74819463Y-98617506D01*
X74760498Y-98727820D01*
X74724188Y-98847518D01*
X74711928Y-98972000D01*
X74711928Y-100672000D01*
X74724188Y-100796482D01*
X74760498Y-100916180D01*
X74819463Y-101026494D01*
X74898815Y-101123185D01*
X74995506Y-101202537D01*
X75105820Y-101261502D01*
X75174687Y-101282393D01*
X75144866Y-101306866D01*
X74959294Y-101532986D01*
X74821401Y-101790966D01*
X74736487Y-102070889D01*
X74707815Y-102362000D01*
X74736487Y-102653111D01*
X74821401Y-102933034D01*
X74959294Y-103191014D01*
X75144866Y-103417134D01*
X75370986Y-103602706D01*
X75425791Y-103632000D01*
X75370986Y-103661294D01*
X75144866Y-103846866D01*
X74984954Y-104041720D01*
X74251497Y-103308263D01*
X74223657Y-103274340D01*
X74088289Y-103163246D01*
X73933849Y-103080696D01*
X73766272Y-103029863D01*
X73635665Y-103016999D01*
X73635658Y-103016999D01*
X73591998Y-103012699D01*
X73548338Y-103016999D01*
X73469719Y-103016999D01*
X73514599Y-102933034D01*
X73599513Y-102653111D01*
X73628185Y-102362000D01*
X73599513Y-102070889D01*
X73514599Y-101790966D01*
X73376706Y-101532986D01*
X73191134Y-101306866D01*
X73161313Y-101282393D01*
X73230180Y-101261502D01*
X73340494Y-101202537D01*
X73437185Y-101123185D01*
X73516537Y-101026494D01*
X73575502Y-100916180D01*
X73611812Y-100796482D01*
X73624072Y-100672000D01*
X73621000Y-100107750D01*
X73462250Y-99949000D01*
X72263000Y-99949000D01*
X72263000Y-99969000D01*
X72009000Y-99969000D01*
X72009000Y-99949000D01*
X71989000Y-99949000D01*
X71989000Y-99695000D01*
X72009000Y-99695000D01*
X72009000Y-99675000D01*
X72263000Y-99675000D01*
X72263000Y-99695000D01*
X73462250Y-99695000D01*
X73621000Y-99536250D01*
X73624072Y-98972000D01*
X73611812Y-98847518D01*
X73575502Y-98727820D01*
X73516537Y-98617506D01*
X73437185Y-98520815D01*
X73350896Y-98450000D01*
X74985104Y-98450000D01*
X74898815Y-98520815D01*
X74898815Y-98520815D01*
G37*
X74898815Y-98520815D02*
X74819463Y-98617506D01*
X74760498Y-98727820D01*
X74724188Y-98847518D01*
X74711928Y-98972000D01*
X74711928Y-100672000D01*
X74724188Y-100796482D01*
X74760498Y-100916180D01*
X74819463Y-101026494D01*
X74898815Y-101123185D01*
X74995506Y-101202537D01*
X75105820Y-101261502D01*
X75174687Y-101282393D01*
X75144866Y-101306866D01*
X74959294Y-101532986D01*
X74821401Y-101790966D01*
X74736487Y-102070889D01*
X74707815Y-102362000D01*
X74736487Y-102653111D01*
X74821401Y-102933034D01*
X74959294Y-103191014D01*
X75144866Y-103417134D01*
X75370986Y-103602706D01*
X75425791Y-103632000D01*
X75370986Y-103661294D01*
X75144866Y-103846866D01*
X74984954Y-104041720D01*
X74251497Y-103308263D01*
X74223657Y-103274340D01*
X74088289Y-103163246D01*
X73933849Y-103080696D01*
X73766272Y-103029863D01*
X73635665Y-103016999D01*
X73635658Y-103016999D01*
X73591998Y-103012699D01*
X73548338Y-103016999D01*
X73469719Y-103016999D01*
X73514599Y-102933034D01*
X73599513Y-102653111D01*
X73628185Y-102362000D01*
X73599513Y-102070889D01*
X73514599Y-101790966D01*
X73376706Y-101532986D01*
X73191134Y-101306866D01*
X73161313Y-101282393D01*
X73230180Y-101261502D01*
X73340494Y-101202537D01*
X73437185Y-101123185D01*
X73516537Y-101026494D01*
X73575502Y-100916180D01*
X73611812Y-100796482D01*
X73624072Y-100672000D01*
X73621000Y-100107750D01*
X73462250Y-99949000D01*
X72263000Y-99949000D01*
X72263000Y-99969000D01*
X72009000Y-99969000D01*
X72009000Y-99949000D01*
X71989000Y-99949000D01*
X71989000Y-99695000D01*
X72009000Y-99695000D01*
X72009000Y-99675000D01*
X72263000Y-99675000D01*
X72263000Y-99695000D01*
X73462250Y-99695000D01*
X73621000Y-99536250D01*
X73624072Y-98972000D01*
X73611812Y-98847518D01*
X73575502Y-98727820D01*
X73516537Y-98617506D01*
X73437185Y-98520815D01*
X73350896Y-98450000D01*
X74985104Y-98450000D01*
X74898815Y-98520815D01*
G36*
X62469928Y-103421538D02*
G01*
X61976000Y-102927611D01*
X61976000Y-102285305D01*
X61979580Y-102248957D01*
X62127774Y-102149937D01*
X62271937Y-102005774D01*
X62385205Y-101836256D01*
X62463226Y-101647898D01*
X62469928Y-101614205D01*
X62469928Y-103421538D01*
X62469928Y-103421538D01*
G37*
X62469928Y-103421538D02*
X61976000Y-102927611D01*
X61976000Y-102285305D01*
X61979580Y-102248957D01*
X62127774Y-102149937D01*
X62271937Y-102005774D01*
X62385205Y-101836256D01*
X62463226Y-101647898D01*
X62469928Y-101614205D01*
X62469928Y-103421538D01*
G36*
X69952697Y-101345851D02*
G01*
X70035247Y-101500290D01*
X70114124Y-101596401D01*
X70146341Y-101635658D01*
X70180259Y-101663494D01*
X70181111Y-101664346D01*
X70151437Y-101688700D01*
X70100697Y-101730341D01*
X70072861Y-101764259D01*
X69362122Y-102474999D01*
X68783258Y-102474999D01*
X68739598Y-102470699D01*
X68695938Y-102474999D01*
X68695932Y-102474999D01*
X68598523Y-102484593D01*
X68565323Y-102487863D01*
X68561575Y-102489000D01*
X68199000Y-102489000D01*
X68199000Y-102509000D01*
X67945000Y-102509000D01*
X67945000Y-102489000D01*
X67925000Y-102489000D01*
X67925000Y-102235000D01*
X67945000Y-102235000D01*
X67945000Y-102215000D01*
X68199000Y-102215000D01*
X68199000Y-102235000D01*
X68985750Y-102235000D01*
X69144500Y-102076250D01*
X69147572Y-101887000D01*
X69135312Y-101762518D01*
X69126986Y-101735072D01*
X69364000Y-101735072D01*
X69488482Y-101722812D01*
X69608180Y-101686502D01*
X69718494Y-101627537D01*
X69815185Y-101548185D01*
X69894537Y-101451494D01*
X69952085Y-101343832D01*
X69952697Y-101345851D01*
X69952697Y-101345851D01*
G37*
X69952697Y-101345851D02*
X70035247Y-101500290D01*
X70114124Y-101596401D01*
X70146341Y-101635658D01*
X70180259Y-101663494D01*
X70181111Y-101664346D01*
X70151437Y-101688700D01*
X70100697Y-101730341D01*
X70072861Y-101764259D01*
X69362122Y-102474999D01*
X68783258Y-102474999D01*
X68739598Y-102470699D01*
X68695938Y-102474999D01*
X68695932Y-102474999D01*
X68598523Y-102484593D01*
X68565323Y-102487863D01*
X68561575Y-102489000D01*
X68199000Y-102489000D01*
X68199000Y-102509000D01*
X67945000Y-102509000D01*
X67945000Y-102489000D01*
X67925000Y-102489000D01*
X67925000Y-102235000D01*
X67945000Y-102235000D01*
X67945000Y-102215000D01*
X68199000Y-102215000D01*
X68199000Y-102235000D01*
X68985750Y-102235000D01*
X69144500Y-102076250D01*
X69147572Y-101887000D01*
X69135312Y-101762518D01*
X69126986Y-101735072D01*
X69364000Y-101735072D01*
X69488482Y-101722812D01*
X69608180Y-101686502D01*
X69718494Y-101627537D01*
X69815185Y-101548185D01*
X69894537Y-101451494D01*
X69952085Y-101343832D01*
X69952697Y-101345851D01*
G36*
X53094498Y-98481820D02*
G01*
X53058188Y-98601518D01*
X53045928Y-98726000D01*
X53045928Y-99526000D01*
X53058188Y-99650482D01*
X53094498Y-99770180D01*
X53153463Y-99880494D01*
X53232815Y-99977185D01*
X53329506Y-100056537D01*
X53365918Y-100076000D01*
X52804298Y-100076000D01*
X52821537Y-100054994D01*
X52880502Y-99944680D01*
X52916812Y-99824982D01*
X52929072Y-99700500D01*
X52926000Y-99548750D01*
X52767250Y-99390000D01*
X51943000Y-99390000D01*
X51943000Y-99410000D01*
X51689000Y-99410000D01*
X51689000Y-99390000D01*
X51669000Y-99390000D01*
X51669000Y-99136000D01*
X51689000Y-99136000D01*
X51689000Y-99116000D01*
X51943000Y-99116000D01*
X51943000Y-99136000D01*
X52767250Y-99136000D01*
X52926000Y-98977250D01*
X52929072Y-98825500D01*
X52916812Y-98701018D01*
X52880502Y-98581320D01*
X52821537Y-98471006D01*
X52804298Y-98450000D01*
X53111506Y-98450000D01*
X53094498Y-98481820D01*
X53094498Y-98481820D01*
G37*
X53094498Y-98481820D02*
X53058188Y-98601518D01*
X53045928Y-98726000D01*
X53045928Y-99526000D01*
X53058188Y-99650482D01*
X53094498Y-99770180D01*
X53153463Y-99880494D01*
X53232815Y-99977185D01*
X53329506Y-100056537D01*
X53365918Y-100076000D01*
X52804298Y-100076000D01*
X52821537Y-100054994D01*
X52880502Y-99944680D01*
X52916812Y-99824982D01*
X52929072Y-99700500D01*
X52926000Y-99548750D01*
X52767250Y-99390000D01*
X51943000Y-99390000D01*
X51943000Y-99410000D01*
X51689000Y-99410000D01*
X51689000Y-99390000D01*
X51669000Y-99390000D01*
X51669000Y-99136000D01*
X51689000Y-99136000D01*
X51689000Y-99116000D01*
X51943000Y-99116000D01*
X51943000Y-99136000D01*
X52767250Y-99136000D01*
X52926000Y-98977250D01*
X52929072Y-98825500D01*
X52916812Y-98701018D01*
X52880502Y-98581320D01*
X52821537Y-98471006D01*
X52804298Y-98450000D01*
X53111506Y-98450000D01*
X53094498Y-98481820D01*
G36*
X63276000Y-99441000D02*
G01*
X63296000Y-99441000D01*
X63296000Y-99695000D01*
X63276000Y-99695000D01*
X63276000Y-99715000D01*
X63022000Y-99715000D01*
X63022000Y-99695000D01*
X63002000Y-99695000D01*
X63002000Y-99441000D01*
X63022000Y-99441000D01*
X63022000Y-99421000D01*
X63276000Y-99421000D01*
X63276000Y-99441000D01*
X63276000Y-99441000D01*
G37*
X63276000Y-99441000D02*
X63296000Y-99441000D01*
X63296000Y-99695000D01*
X63276000Y-99695000D01*
X63276000Y-99715000D01*
X63022000Y-99715000D01*
X63022000Y-99695000D01*
X63002000Y-99695000D01*
X63002000Y-99441000D01*
X63022000Y-99441000D01*
X63022000Y-99421000D01*
X63276000Y-99421000D01*
X63276000Y-99441000D01*
M02*
