G04 #@! TF.GenerationSoftware,KiCad,Pcbnew,5.1.4*
G04 #@! TF.CreationDate,2019-12-21T01:28:04+01:00*
G04 #@! TF.ProjectId,antivol,616e7469-766f-46c2-9e6b-696361645f70,rev?*
G04 #@! TF.SameCoordinates,Original*
G04 #@! TF.FileFunction,Copper,L2,Bot*
G04 #@! TF.FilePolarity,Positive*
%FSLAX46Y46*%
G04 Gerber Fmt 4.6, Leading zero omitted, Abs format (unit mm)*
G04 Created by KiCad (PCBNEW 5.1.4) date 2019-12-21 01:28:04*
%MOMM*%
%LPD*%
G04 APERTURE LIST*
%ADD10C,1.300000*%
%ADD11R,0.900000X2.000000*%
%ADD12R,2.000000X0.900000*%
%ADD13R,5.000000X5.000000*%
%ADD14C,2.000000*%
%ADD15O,1.200000X1.900000*%
%ADD16C,1.450000*%
%ADD17O,1.700000X1.700000*%
%ADD18R,1.700000X1.700000*%
%ADD19C,0.800000*%
%ADD20C,0.508000*%
%ADD21C,0.250000*%
%ADD22C,0.254000*%
G04 APERTURE END LIST*
D10*
X58945000Y-108360000D03*
X58945000Y-104760000D03*
X60745000Y-106560000D03*
X57145000Y-106560000D03*
X57145000Y-108360000D03*
X57145000Y-104760000D03*
X60745000Y-108360000D03*
D11*
X51435000Y-99060000D03*
X52705000Y-99060000D03*
X53975000Y-99060000D03*
X55245000Y-99060000D03*
X56515000Y-99060000D03*
X57785000Y-99060000D03*
X59055000Y-99060000D03*
X60325000Y-99060000D03*
X61595000Y-99060000D03*
X62865000Y-99060000D03*
X64135000Y-99060000D03*
X65405000Y-99060000D03*
X66675000Y-99060000D03*
X67945000Y-99060000D03*
D12*
X68945000Y-101860000D03*
X68945000Y-103130000D03*
X68945000Y-104400000D03*
X68945000Y-105670000D03*
X68945000Y-106940000D03*
X68945000Y-108210000D03*
X68945000Y-109480000D03*
X68945000Y-110750000D03*
X68945000Y-112020000D03*
X68945000Y-113290000D03*
D11*
X67945000Y-116060000D03*
X66675000Y-116060000D03*
X65405000Y-116060000D03*
X64135000Y-116060000D03*
X62865000Y-116060000D03*
X61595000Y-116060000D03*
X60325000Y-116060000D03*
X59055000Y-116060000D03*
X57785000Y-116060000D03*
X56515000Y-116060000D03*
X55245000Y-116060000D03*
X53975000Y-116060000D03*
X52705000Y-116060000D03*
X51435000Y-116060000D03*
D13*
X58945000Y-106560000D03*
D14*
X58945000Y-106560000D03*
D10*
X60745000Y-104760000D03*
D15*
X82478000Y-114808000D03*
X75478000Y-114808000D03*
D16*
X81478000Y-112108000D03*
X76478000Y-112108000D03*
D17*
X78994000Y-99568000D03*
D18*
X81534000Y-99568000D03*
D17*
X72644000Y-112522000D03*
X72644000Y-109982000D03*
X72644000Y-107442000D03*
X72644000Y-104902000D03*
X72644000Y-102362000D03*
D18*
X72644000Y-99822000D03*
D19*
X67437000Y-108966000D03*
X64172000Y-106357000D03*
X70739000Y-110998000D03*
X69646800Y-98848500D03*
X51435000Y-99060000D03*
X78740000Y-104699000D03*
X67426809Y-113326863D03*
X60502800Y-113080800D03*
X54356000Y-103124000D03*
X52120800Y-114503200D03*
X52120800Y-111353600D03*
X75275400Y-103740200D03*
X77216000Y-108265000D03*
X69469000Y-100559999D03*
X57429400Y-114477600D03*
X52781000Y-104648000D03*
X64135000Y-112395000D03*
X58953400Y-114477600D03*
X53644800Y-114503200D03*
X55905400Y-114477800D03*
X54559200Y-110667800D03*
X71145400Y-102006400D03*
X75172486Y-107358514D03*
X57785000Y-101185002D03*
X56834998Y-100560002D03*
X60071000Y-101701600D03*
X66700400Y-99288600D03*
X74549000Y-110617000D03*
X64897000Y-110998000D03*
X75185397Y-111253397D03*
X63627000Y-110998000D03*
X63119000Y-114122011D03*
X53970000Y-108204000D03*
X56718200Y-111506000D03*
X62218999Y-114122259D03*
X53645000Y-109728000D03*
X75539600Y-100634900D03*
D20*
X68127798Y-101860000D02*
X68945000Y-101860000D01*
X64172000Y-105815798D02*
X68127798Y-101860000D01*
X64172000Y-106357000D02*
X64172000Y-105815798D01*
D21*
X58945000Y-106560000D02*
X60926816Y-106560000D01*
X60745000Y-106560000D02*
X58945000Y-106560000D01*
X51435000Y-116060000D02*
X51435000Y-115510000D01*
X51435000Y-116060000D02*
X51296466Y-116060000D01*
X51296466Y-116060000D02*
X51106040Y-116250426D01*
D22*
X68576601Y-100287001D02*
X69646800Y-99216802D01*
X58945000Y-106560000D02*
X65217999Y-100287001D01*
X69646800Y-99216802D02*
X69646800Y-98848500D01*
X65217999Y-100287001D02*
X68576601Y-100287001D01*
X58945000Y-106560000D02*
X62738000Y-102767000D01*
X62738000Y-102767000D02*
X62738000Y-102103300D01*
D20*
X52705000Y-100203000D02*
X52705000Y-99060000D01*
X53213000Y-100711000D02*
X52705000Y-100203000D01*
X53848000Y-100711000D02*
X53213000Y-100711000D01*
X54356000Y-101219000D02*
X53848000Y-100711000D01*
X54356000Y-103124000D02*
X54356000Y-101219000D01*
D21*
X52582412Y-114041588D02*
X52120800Y-114503200D01*
X52745801Y-111978601D02*
X52745801Y-113878199D01*
X52745801Y-113878199D02*
X52582412Y-114041588D01*
X52120800Y-111353600D02*
X52745801Y-111978601D01*
D20*
X78994000Y-99568000D02*
X75275400Y-103286600D01*
X75275400Y-103286600D02*
X75275400Y-103740200D01*
X77216000Y-106578400D02*
X75275400Y-104637800D01*
X77216000Y-108265000D02*
X77216000Y-106578400D01*
X75275400Y-103740200D02*
X75275400Y-104637800D01*
D22*
X68945000Y-113290000D02*
X68787999Y-113290000D01*
X71876000Y-113290000D02*
X72644000Y-112522000D01*
X68945000Y-113290000D02*
X71876000Y-113290000D01*
D21*
X62651989Y-112331979D02*
X62651989Y-105803021D01*
X64135000Y-113814990D02*
X62651989Y-112331979D01*
X64135000Y-116060000D02*
X64135000Y-113814990D01*
X67260305Y-101194705D02*
X67620021Y-100834989D01*
X62651989Y-105803021D02*
X67260305Y-101194705D01*
X67620021Y-100834989D02*
X68587610Y-100834989D01*
X68862600Y-100559999D02*
X69469000Y-100559999D01*
X68587610Y-100834989D02*
X68862600Y-100559999D01*
X65405000Y-114590002D02*
X65405000Y-116060000D01*
X63001999Y-112187001D02*
X65405000Y-114590002D01*
X63001999Y-105947999D02*
X63001999Y-112187001D01*
X67764999Y-101184999D02*
X63001999Y-105947999D01*
X70181001Y-101184999D02*
X67764999Y-101184999D01*
X71544000Y-99822000D02*
X70181001Y-101184999D01*
X72644000Y-99822000D02*
X71544000Y-99822000D01*
X56515000Y-116060000D02*
X56515000Y-115392000D01*
X56515000Y-115392000D02*
X57429400Y-114477600D01*
D22*
X53975000Y-99060000D02*
X53975000Y-99828602D01*
D21*
X53975000Y-99695000D02*
X53975000Y-99060000D01*
X54981001Y-100701001D02*
X53975000Y-99695000D01*
X54981001Y-103424001D02*
X54981001Y-100701001D01*
X53757002Y-104648000D02*
X54981001Y-103424001D01*
X52781000Y-104648000D02*
X53757002Y-104648000D01*
X64262000Y-112522000D02*
X66405021Y-114665021D01*
X67945000Y-116060000D02*
X67945000Y-115366800D01*
X67243221Y-114665021D02*
X66963821Y-114665021D01*
X66405021Y-114665021D02*
X66963821Y-114665021D01*
X67945000Y-115366800D02*
X67243221Y-114665021D01*
X57978389Y-113502589D02*
X58953400Y-114477600D01*
X55955609Y-113502589D02*
X57978389Y-113502589D01*
X55245000Y-114213198D02*
X55955609Y-113502589D01*
X55245000Y-116060000D02*
X55245000Y-114213198D01*
X53644800Y-114503200D02*
X53949600Y-114808000D01*
X53975000Y-114810000D02*
X53975000Y-116060000D01*
X53973000Y-114808000D02*
X53975000Y-114810000D01*
X53949600Y-114808000D02*
X53973000Y-114808000D01*
X57785000Y-115011200D02*
X57785000Y-116060000D01*
X56530601Y-113852599D02*
X57729401Y-113852599D01*
X55905400Y-114477800D02*
X56530601Y-113852599D01*
X57729401Y-113852599D02*
X58054401Y-114177599D01*
X58054401Y-114177599D02*
X58054401Y-114741799D01*
X58054401Y-114741799D02*
X57785000Y-115011200D01*
X55245000Y-100310000D02*
X55245000Y-99060000D01*
X55331011Y-100396011D02*
X55245000Y-100310000D01*
X55331011Y-103568979D02*
X55331011Y-100396011D01*
X53019999Y-105879991D02*
X55331011Y-103568979D01*
X53019999Y-110028001D02*
X53019999Y-105879991D01*
X53344999Y-110353001D02*
X53355401Y-110353001D01*
X53019999Y-110028001D02*
X53344999Y-110353001D01*
X53670200Y-110667800D02*
X54559200Y-110667800D01*
X53355401Y-110353001D02*
X53670200Y-110667800D01*
D22*
X73771001Y-105957029D02*
X75172486Y-107358514D01*
X71145400Y-102572085D02*
X72348314Y-103774999D01*
X72348314Y-103774999D02*
X73184961Y-103774999D01*
X73184961Y-103774999D02*
X73771001Y-104361039D01*
X71145400Y-102006400D02*
X71145400Y-102572085D01*
X73771001Y-104361039D02*
X73771001Y-105957029D01*
D21*
X61595000Y-100310000D02*
X61321000Y-100584000D01*
X61595000Y-99060000D02*
X61595000Y-100310000D01*
X61321000Y-100584000D02*
X59880990Y-100584000D01*
X59880990Y-100584000D02*
X59279988Y-101185002D01*
X59279988Y-101185002D02*
X57785000Y-101185002D01*
X59410000Y-100560002D02*
X56834998Y-100560002D01*
X60325000Y-99060000D02*
X60325000Y-99645002D01*
X60325000Y-99645002D02*
X59410000Y-100560002D01*
D22*
X62865000Y-99060000D02*
X62865000Y-99610000D01*
D21*
X60773400Y-101701600D02*
X61336600Y-101138400D01*
X60096400Y-101701600D02*
X60773400Y-101701600D01*
D22*
X62865000Y-99610000D02*
X61336600Y-101138400D01*
D21*
X74549000Y-112208002D02*
X74549000Y-110617000D01*
X72792001Y-113965001D02*
X74549000Y-112208002D01*
X67088989Y-113965001D02*
X72792001Y-113965001D01*
X64897000Y-110998000D02*
X64897000Y-111773012D01*
X64897000Y-111773012D02*
X67088989Y-113965001D01*
X72936979Y-114315011D02*
X75185397Y-112066593D01*
X63627000Y-110998000D02*
X66944011Y-114315011D01*
X66944011Y-114315011D02*
X72936979Y-114315011D01*
X75185397Y-112066593D02*
X75185397Y-111253397D01*
X63119000Y-113556326D02*
X63119000Y-114122011D01*
X60443673Y-110880999D02*
X63119000Y-113556326D01*
X53970000Y-108204000D02*
X53970000Y-108254000D01*
X53970000Y-108254000D02*
X55676800Y-109960800D01*
X56588187Y-110880999D02*
X60443673Y-110880999D01*
X55676800Y-109960800D02*
X55676800Y-109969612D01*
X55676800Y-109969612D02*
X56588187Y-110880999D01*
X60502800Y-111506000D02*
X61137800Y-112141000D01*
X62218999Y-114122259D02*
X62218999Y-113222199D01*
X62103000Y-113106200D02*
X61849000Y-112852200D01*
X62218999Y-113222199D02*
X61849000Y-112852200D01*
X61849000Y-112852200D02*
X61137800Y-112141000D01*
X58013600Y-111506000D02*
X56718200Y-111506000D01*
X58013600Y-111506000D02*
X60502800Y-111506000D01*
X56718200Y-111506000D02*
X54940200Y-109728000D01*
X54940200Y-109728000D02*
X53645000Y-109728000D01*
D22*
X67945000Y-99060000D02*
X67945000Y-98704400D01*
X67945000Y-98704400D02*
X68503800Y-98145600D01*
D21*
X73050300Y-98145600D02*
X72669400Y-98145600D01*
X75145850Y-100241150D02*
X73050300Y-98145600D01*
X75539600Y-100634900D02*
X75145850Y-100241150D01*
D22*
X68503800Y-98145600D02*
X72669400Y-98145600D01*
G36*
X83206001Y-113862183D02*
G01*
X83184867Y-113832945D01*
X83049343Y-113707052D01*
X82891862Y-113610018D01*
X82748347Y-113562937D01*
X82605000Y-113616277D01*
X82605000Y-114681000D01*
X82625000Y-114681000D01*
X82625000Y-114935000D01*
X82605000Y-114935000D01*
X82605000Y-115999723D01*
X82748347Y-116053063D01*
X82891862Y-116005982D01*
X83049343Y-115908948D01*
X83184867Y-115783055D01*
X83206001Y-115753817D01*
X83206001Y-117750000D01*
X50927000Y-117750000D01*
X50927000Y-117390909D01*
X50985000Y-117396621D01*
X51224250Y-117395000D01*
X51308000Y-117311250D01*
X51308000Y-116187000D01*
X51288000Y-116187000D01*
X51288000Y-115933000D01*
X51308000Y-115933000D01*
X51308000Y-115913000D01*
X51562000Y-115913000D01*
X51562000Y-115933000D01*
X51582000Y-115933000D01*
X51582000Y-116187000D01*
X51562000Y-116187000D01*
X51562000Y-117311250D01*
X51645750Y-117395000D01*
X51885000Y-117396621D01*
X51950671Y-117390153D01*
X52013819Y-117370997D01*
X52070001Y-117340967D01*
X52126181Y-117370996D01*
X52189329Y-117390152D01*
X52255000Y-117396620D01*
X53155000Y-117396620D01*
X53220671Y-117390152D01*
X53283819Y-117370996D01*
X53340000Y-117340967D01*
X53396181Y-117370996D01*
X53459329Y-117390152D01*
X53525000Y-117396620D01*
X54425000Y-117396620D01*
X54490671Y-117390152D01*
X54553819Y-117370996D01*
X54610000Y-117340967D01*
X54666181Y-117370996D01*
X54729329Y-117390152D01*
X54795000Y-117396620D01*
X55695000Y-117396620D01*
X55760671Y-117390152D01*
X55823819Y-117370996D01*
X55880000Y-117340967D01*
X55936181Y-117370996D01*
X55999329Y-117390152D01*
X56065000Y-117396620D01*
X56965000Y-117396620D01*
X57030671Y-117390152D01*
X57093819Y-117370996D01*
X57150000Y-117340967D01*
X57206181Y-117370996D01*
X57269329Y-117390152D01*
X57335000Y-117396620D01*
X58235000Y-117396620D01*
X58300671Y-117390152D01*
X58363819Y-117370996D01*
X58420000Y-117340967D01*
X58476181Y-117370996D01*
X58539329Y-117390152D01*
X58605000Y-117396620D01*
X59505000Y-117396620D01*
X59570671Y-117390152D01*
X59633819Y-117370996D01*
X59690000Y-117340967D01*
X59746181Y-117370996D01*
X59809329Y-117390152D01*
X59875000Y-117396620D01*
X60775000Y-117396620D01*
X60840671Y-117390152D01*
X60903819Y-117370996D01*
X60960000Y-117340967D01*
X61016181Y-117370996D01*
X61079329Y-117390152D01*
X61145000Y-117396620D01*
X62045000Y-117396620D01*
X62110671Y-117390152D01*
X62173819Y-117370996D01*
X62230000Y-117340967D01*
X62286181Y-117370996D01*
X62349329Y-117390152D01*
X62415000Y-117396620D01*
X63315000Y-117396620D01*
X63380671Y-117390152D01*
X63443819Y-117370996D01*
X63500000Y-117340967D01*
X63556181Y-117370996D01*
X63619329Y-117390152D01*
X63685000Y-117396620D01*
X64585000Y-117396620D01*
X64650671Y-117390152D01*
X64713819Y-117370996D01*
X64770000Y-117340967D01*
X64826181Y-117370996D01*
X64889329Y-117390152D01*
X64955000Y-117396620D01*
X65855000Y-117396620D01*
X65920671Y-117390152D01*
X65983819Y-117370996D01*
X66040000Y-117340967D01*
X66096181Y-117370996D01*
X66159329Y-117390152D01*
X66225000Y-117396620D01*
X67125000Y-117396620D01*
X67190671Y-117390152D01*
X67253819Y-117370996D01*
X67310000Y-117340967D01*
X67366181Y-117370996D01*
X67429329Y-117390152D01*
X67495000Y-117396620D01*
X68395000Y-117396620D01*
X68460671Y-117390152D01*
X68523819Y-117370996D01*
X68582016Y-117339889D01*
X68633026Y-117298026D01*
X68674889Y-117247016D01*
X68705996Y-117188819D01*
X68725152Y-117125671D01*
X68731620Y-117060000D01*
X68731620Y-115060000D01*
X68725152Y-114994329D01*
X68707155Y-114935000D01*
X74543000Y-114935000D01*
X74543000Y-115285000D01*
X74585742Y-115464969D01*
X74662773Y-115633142D01*
X74771133Y-115783055D01*
X74906657Y-115908948D01*
X75064138Y-116005982D01*
X75207653Y-116053063D01*
X75351000Y-115999723D01*
X75351000Y-114935000D01*
X75605000Y-114935000D01*
X75605000Y-115999723D01*
X75748347Y-116053063D01*
X75891862Y-116005982D01*
X76049343Y-115908948D01*
X76184867Y-115783055D01*
X76293227Y-115633142D01*
X76370258Y-115464969D01*
X76413000Y-115285000D01*
X76413000Y-114935000D01*
X81543000Y-114935000D01*
X81543000Y-115285000D01*
X81585742Y-115464969D01*
X81662773Y-115633142D01*
X81771133Y-115783055D01*
X81906657Y-115908948D01*
X82064138Y-116005982D01*
X82207653Y-116053063D01*
X82351000Y-115999723D01*
X82351000Y-114935000D01*
X81543000Y-114935000D01*
X76413000Y-114935000D01*
X75605000Y-114935000D01*
X75351000Y-114935000D01*
X74543000Y-114935000D01*
X68707155Y-114935000D01*
X68705996Y-114931181D01*
X68674889Y-114872984D01*
X68633026Y-114821974D01*
X68582016Y-114780111D01*
X68572475Y-114775011D01*
X72914397Y-114775011D01*
X72936979Y-114777235D01*
X72959561Y-114775011D01*
X72959569Y-114775011D01*
X73027155Y-114768354D01*
X73113865Y-114742051D01*
X73193777Y-114699337D01*
X73263821Y-114641853D01*
X73278224Y-114624303D01*
X73571527Y-114331000D01*
X74543000Y-114331000D01*
X74543000Y-114681000D01*
X75351000Y-114681000D01*
X75351000Y-113616277D01*
X75605000Y-113616277D01*
X75605000Y-114681000D01*
X76413000Y-114681000D01*
X76413000Y-114331000D01*
X81543000Y-114331000D01*
X81543000Y-114681000D01*
X82351000Y-114681000D01*
X82351000Y-113616277D01*
X82207653Y-113562937D01*
X82064138Y-113610018D01*
X81906657Y-113707052D01*
X81771133Y-113832945D01*
X81662773Y-113982858D01*
X81585742Y-114151031D01*
X81543000Y-114331000D01*
X76413000Y-114331000D01*
X76370258Y-114151031D01*
X76293227Y-113982858D01*
X76184867Y-113832945D01*
X76049343Y-113707052D01*
X75891862Y-113610018D01*
X75748347Y-113562937D01*
X75605000Y-113616277D01*
X75351000Y-113616277D01*
X75207653Y-113562937D01*
X75064138Y-113610018D01*
X74906657Y-113707052D01*
X74771133Y-113832945D01*
X74662773Y-113982858D01*
X74585742Y-114151031D01*
X74543000Y-114331000D01*
X73571527Y-114331000D01*
X75016620Y-112885907D01*
X75879698Y-112885907D01*
X75959144Y-113038210D01*
X76150588Y-113121560D01*
X76354616Y-113165959D01*
X76563384Y-113169702D01*
X76768870Y-113132644D01*
X76963179Y-113056210D01*
X76996856Y-113038210D01*
X77076302Y-112885907D01*
X80879698Y-112885907D01*
X80959144Y-113038210D01*
X81150588Y-113121560D01*
X81354616Y-113165959D01*
X81563384Y-113169702D01*
X81768870Y-113132644D01*
X81963179Y-113056210D01*
X81996856Y-113038210D01*
X82076302Y-112885907D01*
X81478000Y-112287605D01*
X80879698Y-112885907D01*
X77076302Y-112885907D01*
X76478000Y-112287605D01*
X75879698Y-112885907D01*
X75016620Y-112885907D01*
X75467557Y-112434971D01*
X75529790Y-112593179D01*
X75547790Y-112626856D01*
X75700093Y-112706302D01*
X76298395Y-112108000D01*
X76657605Y-112108000D01*
X77255907Y-112706302D01*
X77408210Y-112626856D01*
X77491560Y-112435412D01*
X77535959Y-112231384D01*
X77536640Y-112193384D01*
X80416298Y-112193384D01*
X80453356Y-112398870D01*
X80529790Y-112593179D01*
X80547790Y-112626856D01*
X80700093Y-112706302D01*
X81298395Y-112108000D01*
X81657605Y-112108000D01*
X82255907Y-112706302D01*
X82408210Y-112626856D01*
X82491560Y-112435412D01*
X82535959Y-112231384D01*
X82539702Y-112022616D01*
X82502644Y-111817130D01*
X82426210Y-111622821D01*
X82408210Y-111589144D01*
X82255907Y-111509698D01*
X81657605Y-112108000D01*
X81298395Y-112108000D01*
X80700093Y-111509698D01*
X80547790Y-111589144D01*
X80464440Y-111780588D01*
X80420041Y-111984616D01*
X80416298Y-112193384D01*
X77536640Y-112193384D01*
X77539702Y-112022616D01*
X77502644Y-111817130D01*
X77426210Y-111622821D01*
X77408210Y-111589144D01*
X77255907Y-111509698D01*
X76657605Y-112108000D01*
X76298395Y-112108000D01*
X76284253Y-112093858D01*
X76463858Y-111914253D01*
X76478000Y-111928395D01*
X77076302Y-111330093D01*
X80879698Y-111330093D01*
X81478000Y-111928395D01*
X82076302Y-111330093D01*
X81996856Y-111177790D01*
X81805412Y-111094440D01*
X81601384Y-111050041D01*
X81392616Y-111046298D01*
X81187130Y-111083356D01*
X80992821Y-111159790D01*
X80959144Y-111177790D01*
X80879698Y-111330093D01*
X77076302Y-111330093D01*
X76996856Y-111177790D01*
X76805412Y-111094440D01*
X76601384Y-111050041D01*
X76392616Y-111046298D01*
X76187130Y-111083356D01*
X75992821Y-111159790D01*
X75959144Y-111177790D01*
X75920397Y-111252070D01*
X75920397Y-111181006D01*
X75892151Y-111039006D01*
X75836745Y-110905244D01*
X75756309Y-110784862D01*
X75653932Y-110682485D01*
X75533550Y-110602049D01*
X75399788Y-110546643D01*
X75279651Y-110522746D01*
X75255754Y-110402609D01*
X75200348Y-110268847D01*
X75119912Y-110148465D01*
X75017535Y-110046088D01*
X74897153Y-109965652D01*
X74763391Y-109910246D01*
X74621391Y-109882000D01*
X74476609Y-109882000D01*
X74334609Y-109910246D01*
X74200847Y-109965652D01*
X74080465Y-110046088D01*
X73978088Y-110148465D01*
X73897652Y-110268847D01*
X73842246Y-110402609D01*
X73814000Y-110544609D01*
X73814000Y-110689391D01*
X73842246Y-110831391D01*
X73897652Y-110965153D01*
X73978088Y-111085535D01*
X74080465Y-111187912D01*
X74089001Y-111193615D01*
X74089000Y-112017464D01*
X73812293Y-112294171D01*
X73811853Y-112289700D01*
X73744094Y-112066326D01*
X73634058Y-111860464D01*
X73485975Y-111680025D01*
X73305536Y-111531942D01*
X73099674Y-111421906D01*
X72876300Y-111354147D01*
X72702207Y-111337000D01*
X72585793Y-111337000D01*
X72411700Y-111354147D01*
X72188326Y-111421906D01*
X71982464Y-111531942D01*
X71802025Y-111680025D01*
X71653942Y-111860464D01*
X71543906Y-112066326D01*
X71476147Y-112289700D01*
X71453267Y-112522000D01*
X71476147Y-112754300D01*
X71498503Y-112828000D01*
X70280438Y-112828000D01*
X70275152Y-112774329D01*
X70255996Y-112711181D01*
X70225967Y-112655000D01*
X70255996Y-112598819D01*
X70275152Y-112535671D01*
X70281620Y-112470000D01*
X70281620Y-111570000D01*
X70275152Y-111504329D01*
X70255996Y-111441181D01*
X70225967Y-111385000D01*
X70255996Y-111328819D01*
X70275152Y-111265671D01*
X70281620Y-111200000D01*
X70281620Y-110300000D01*
X70280807Y-110291744D01*
X71500197Y-110291744D01*
X71520873Y-110359923D01*
X71616183Y-110571772D01*
X71750991Y-110760957D01*
X71920117Y-110920207D01*
X72117061Y-111043402D01*
X72334255Y-111125808D01*
X72517000Y-111076431D01*
X72517000Y-110109000D01*
X72771000Y-110109000D01*
X72771000Y-111076431D01*
X72953745Y-111125808D01*
X73170939Y-111043402D01*
X73367883Y-110920207D01*
X73537009Y-110760957D01*
X73671817Y-110571772D01*
X73767127Y-110359923D01*
X73787803Y-110291744D01*
X73737902Y-110109000D01*
X72771000Y-110109000D01*
X72517000Y-110109000D01*
X71550098Y-110109000D01*
X71500197Y-110291744D01*
X70280807Y-110291744D01*
X70275152Y-110234329D01*
X70255996Y-110171181D01*
X70225967Y-110115000D01*
X70255996Y-110058819D01*
X70275152Y-109995671D01*
X70281620Y-109930000D01*
X70281620Y-109672256D01*
X71500197Y-109672256D01*
X71550098Y-109855000D01*
X72517000Y-109855000D01*
X72517000Y-108887569D01*
X72771000Y-108887569D01*
X72771000Y-109855000D01*
X73737902Y-109855000D01*
X73787803Y-109672256D01*
X73767127Y-109604077D01*
X73671817Y-109392228D01*
X73537009Y-109203043D01*
X73367883Y-109043793D01*
X73170939Y-108920598D01*
X72953745Y-108838192D01*
X72771000Y-108887569D01*
X72517000Y-108887569D01*
X72334255Y-108838192D01*
X72117061Y-108920598D01*
X71920117Y-109043793D01*
X71750991Y-109203043D01*
X71616183Y-109392228D01*
X71520873Y-109604077D01*
X71500197Y-109672256D01*
X70281620Y-109672256D01*
X70281620Y-109030000D01*
X70275152Y-108964329D01*
X70255996Y-108901181D01*
X70225967Y-108845000D01*
X70255996Y-108788819D01*
X70275152Y-108725671D01*
X70281620Y-108660000D01*
X70281620Y-107760000D01*
X70275152Y-107694329D01*
X70255996Y-107631181D01*
X70225967Y-107575000D01*
X70255996Y-107518819D01*
X70275152Y-107455671D01*
X70276498Y-107442000D01*
X71453267Y-107442000D01*
X71476147Y-107674300D01*
X71543906Y-107897674D01*
X71653942Y-108103536D01*
X71802025Y-108283975D01*
X71982464Y-108432058D01*
X72188326Y-108542094D01*
X72411700Y-108609853D01*
X72585793Y-108627000D01*
X72702207Y-108627000D01*
X72876300Y-108609853D01*
X73099674Y-108542094D01*
X73305536Y-108432058D01*
X73485975Y-108283975D01*
X73634058Y-108103536D01*
X73744094Y-107897674D01*
X73811853Y-107674300D01*
X73834733Y-107442000D01*
X73811853Y-107209700D01*
X73744094Y-106986326D01*
X73634058Y-106780464D01*
X73485975Y-106600025D01*
X73305536Y-106451942D01*
X73099674Y-106341906D01*
X72876300Y-106274147D01*
X72702207Y-106257000D01*
X72585793Y-106257000D01*
X72411700Y-106274147D01*
X72188326Y-106341906D01*
X71982464Y-106451942D01*
X71802025Y-106600025D01*
X71653942Y-106780464D01*
X71543906Y-106986326D01*
X71476147Y-107209700D01*
X71453267Y-107442000D01*
X70276498Y-107442000D01*
X70281620Y-107390000D01*
X70281620Y-106490000D01*
X70275152Y-106424329D01*
X70255996Y-106361181D01*
X70225967Y-106305000D01*
X70255996Y-106248819D01*
X70275152Y-106185671D01*
X70281620Y-106120000D01*
X70281620Y-105220000D01*
X70275152Y-105154329D01*
X70255996Y-105091181D01*
X70225967Y-105035000D01*
X70255996Y-104978819D01*
X70275152Y-104915671D01*
X70281620Y-104850000D01*
X70281620Y-103950000D01*
X70275152Y-103884329D01*
X70255996Y-103821181D01*
X70225967Y-103765000D01*
X70255996Y-103708819D01*
X70275152Y-103645671D01*
X70281620Y-103580000D01*
X70281620Y-102680000D01*
X70275152Y-102614329D01*
X70255996Y-102551181D01*
X70225967Y-102495001D01*
X70255997Y-102438819D01*
X70275153Y-102375671D01*
X70281621Y-102310000D01*
X70280000Y-102070750D01*
X70196250Y-101987000D01*
X69072000Y-101987000D01*
X69072000Y-102007000D01*
X68818000Y-102007000D01*
X68818000Y-101987000D01*
X68798000Y-101987000D01*
X68798000Y-101934009D01*
X70410400Y-101934009D01*
X70410400Y-102078791D01*
X70438646Y-102220791D01*
X70494052Y-102354553D01*
X70574488Y-102474935D01*
X70676865Y-102577312D01*
X70682019Y-102580756D01*
X70690086Y-102662652D01*
X70716503Y-102749739D01*
X70759403Y-102830000D01*
X70784973Y-102861157D01*
X70817137Y-102900349D01*
X70834769Y-102914819D01*
X71899762Y-103979814D01*
X71802025Y-104060025D01*
X71653942Y-104240464D01*
X71543906Y-104446326D01*
X71476147Y-104669700D01*
X71453267Y-104902000D01*
X71476147Y-105134300D01*
X71543906Y-105357674D01*
X71653942Y-105563536D01*
X71802025Y-105743975D01*
X71982464Y-105892058D01*
X72188326Y-106002094D01*
X72411700Y-106069853D01*
X72585793Y-106087000D01*
X72702207Y-106087000D01*
X72876300Y-106069853D01*
X73099674Y-106002094D01*
X73305536Y-105892058D01*
X73309002Y-105889214D01*
X73309002Y-105934329D01*
X73306766Y-105957029D01*
X73315687Y-106047596D01*
X73342104Y-106134683D01*
X73385004Y-106214944D01*
X73410574Y-106246101D01*
X73442738Y-106285293D01*
X73460370Y-106299763D01*
X74439019Y-107278414D01*
X74437486Y-107286123D01*
X74437486Y-107430905D01*
X74465732Y-107572905D01*
X74521138Y-107706667D01*
X74601574Y-107827049D01*
X74703951Y-107929426D01*
X74824333Y-108009862D01*
X74958095Y-108065268D01*
X75100095Y-108093514D01*
X75244877Y-108093514D01*
X75386877Y-108065268D01*
X75520639Y-108009862D01*
X75641021Y-107929426D01*
X75743398Y-107827049D01*
X75823834Y-107706667D01*
X75879240Y-107572905D01*
X75907486Y-107430905D01*
X75907486Y-107286123D01*
X75879240Y-107144123D01*
X75823834Y-107010361D01*
X75743398Y-106889979D01*
X75641021Y-106787602D01*
X75520639Y-106707166D01*
X75386877Y-106651760D01*
X75244877Y-106623514D01*
X75100095Y-106623514D01*
X75092386Y-106625047D01*
X74233001Y-105765664D01*
X74233001Y-104383729D01*
X74235236Y-104361039D01*
X74233001Y-104338346D01*
X74226316Y-104270471D01*
X74199898Y-104183384D01*
X74156998Y-104103124D01*
X74099265Y-104032775D01*
X74081634Y-104018306D01*
X73731137Y-103667809D01*
X74540400Y-103667809D01*
X74540400Y-103812591D01*
X74568646Y-103954591D01*
X74624052Y-104088353D01*
X74686400Y-104181664D01*
X74686400Y-104608883D01*
X74683552Y-104637800D01*
X74686400Y-104666717D01*
X74686400Y-104666727D01*
X74688624Y-104689302D01*
X74694924Y-104753263D01*
X74728603Y-104864290D01*
X74783296Y-104966613D01*
X74838460Y-105033831D01*
X74838466Y-105033837D01*
X74856901Y-105056300D01*
X74879364Y-105074735D01*
X76627001Y-106822373D01*
X76627000Y-107823535D01*
X76564652Y-107916847D01*
X76509246Y-108050609D01*
X76481000Y-108192609D01*
X76481000Y-108337391D01*
X76509246Y-108479391D01*
X76564652Y-108613153D01*
X76645088Y-108733535D01*
X76747465Y-108835912D01*
X76867847Y-108916348D01*
X77001609Y-108971754D01*
X77143609Y-109000000D01*
X77288391Y-109000000D01*
X77430391Y-108971754D01*
X77564153Y-108916348D01*
X77684535Y-108835912D01*
X77786912Y-108733535D01*
X77867348Y-108613153D01*
X77922754Y-108479391D01*
X77951000Y-108337391D01*
X77951000Y-108192609D01*
X77922754Y-108050609D01*
X77867348Y-107916847D01*
X77805000Y-107823536D01*
X77805000Y-106607317D01*
X77807848Y-106578400D01*
X77805000Y-106549483D01*
X77805000Y-106549473D01*
X77796477Y-106462936D01*
X77762797Y-106351909D01*
X77708104Y-106249586D01*
X77679674Y-106214944D01*
X77652940Y-106182368D01*
X77652935Y-106182363D01*
X77634500Y-106159900D01*
X77612037Y-106141465D01*
X75864400Y-104393829D01*
X75864400Y-104181664D01*
X75926748Y-104088353D01*
X75982154Y-103954591D01*
X76010400Y-103812591D01*
X76010400Y-103667809D01*
X75982154Y-103525809D01*
X75949059Y-103445912D01*
X78682994Y-100711978D01*
X78761700Y-100735853D01*
X78935793Y-100753000D01*
X79052207Y-100753000D01*
X79226300Y-100735853D01*
X79449674Y-100668094D01*
X79655536Y-100558058D01*
X79826196Y-100418000D01*
X80347379Y-100418000D01*
X80353847Y-100483671D01*
X80373003Y-100546819D01*
X80404110Y-100605017D01*
X80445973Y-100656027D01*
X80496983Y-100697890D01*
X80555181Y-100728997D01*
X80618329Y-100748153D01*
X80684000Y-100754621D01*
X81323250Y-100753000D01*
X81407000Y-100669250D01*
X81407000Y-99695000D01*
X81661000Y-99695000D01*
X81661000Y-100669250D01*
X81744750Y-100753000D01*
X82384000Y-100754621D01*
X82449671Y-100748153D01*
X82512819Y-100728997D01*
X82571017Y-100697890D01*
X82622027Y-100656027D01*
X82663890Y-100605017D01*
X82694997Y-100546819D01*
X82714153Y-100483671D01*
X82720621Y-100418000D01*
X82719000Y-99778750D01*
X82635250Y-99695000D01*
X81661000Y-99695000D01*
X81407000Y-99695000D01*
X80432750Y-99695000D01*
X80349000Y-99778750D01*
X80347379Y-100418000D01*
X79826196Y-100418000D01*
X79835975Y-100409975D01*
X79984058Y-100229536D01*
X80094094Y-100023674D01*
X80161853Y-99800300D01*
X80184733Y-99568000D01*
X80161853Y-99335700D01*
X80094094Y-99112326D01*
X79984058Y-98906464D01*
X79835975Y-98726025D01*
X79826197Y-98718000D01*
X80347379Y-98718000D01*
X80349000Y-99357250D01*
X80432750Y-99441000D01*
X81407000Y-99441000D01*
X81407000Y-98466750D01*
X81661000Y-98466750D01*
X81661000Y-99441000D01*
X82635250Y-99441000D01*
X82719000Y-99357250D01*
X82720621Y-98718000D01*
X82714153Y-98652329D01*
X82694997Y-98589181D01*
X82663890Y-98530983D01*
X82622027Y-98479973D01*
X82571017Y-98438110D01*
X82512819Y-98407003D01*
X82449671Y-98387847D01*
X82384000Y-98381379D01*
X81744750Y-98383000D01*
X81661000Y-98466750D01*
X81407000Y-98466750D01*
X81323250Y-98383000D01*
X80684000Y-98381379D01*
X80618329Y-98387847D01*
X80555181Y-98407003D01*
X80496983Y-98438110D01*
X80445973Y-98479973D01*
X80404110Y-98530983D01*
X80373003Y-98589181D01*
X80353847Y-98652329D01*
X80347379Y-98718000D01*
X79826197Y-98718000D01*
X79655536Y-98577942D01*
X79449674Y-98467906D01*
X79226300Y-98400147D01*
X79052207Y-98383000D01*
X78935793Y-98383000D01*
X78761700Y-98400147D01*
X78538326Y-98467906D01*
X78332464Y-98577942D01*
X78152025Y-98726025D01*
X78003942Y-98906464D01*
X77893906Y-99112326D01*
X77826147Y-99335700D01*
X77803267Y-99568000D01*
X77826147Y-99800300D01*
X77850022Y-99879006D01*
X74879369Y-102849660D01*
X74856900Y-102868100D01*
X74838461Y-102890568D01*
X74838460Y-102890569D01*
X74783297Y-102957786D01*
X74783296Y-102957787D01*
X74728603Y-103060110D01*
X74694923Y-103171137D01*
X74686400Y-103257674D01*
X74686400Y-103257683D01*
X74683552Y-103286600D01*
X74684960Y-103300892D01*
X74624052Y-103392047D01*
X74568646Y-103525809D01*
X74540400Y-103667809D01*
X73731137Y-103667809D01*
X73527699Y-103464372D01*
X73513225Y-103446735D01*
X73442876Y-103389002D01*
X73362616Y-103346102D01*
X73326239Y-103335067D01*
X73485975Y-103203975D01*
X73634058Y-103023536D01*
X73744094Y-102817674D01*
X73811853Y-102594300D01*
X73834733Y-102362000D01*
X73811853Y-102129700D01*
X73744094Y-101906326D01*
X73634058Y-101700464D01*
X73485975Y-101520025D01*
X73305536Y-101371942D01*
X73099674Y-101261906D01*
X72876300Y-101194147D01*
X72702207Y-101177000D01*
X72585793Y-101177000D01*
X72411700Y-101194147D01*
X72188326Y-101261906D01*
X71982464Y-101371942D01*
X71802025Y-101520025D01*
X71748208Y-101585601D01*
X71716312Y-101537865D01*
X71613935Y-101435488D01*
X71493553Y-101355052D01*
X71359791Y-101299646D01*
X71217791Y-101271400D01*
X71073009Y-101271400D01*
X70931009Y-101299646D01*
X70797247Y-101355052D01*
X70676865Y-101435488D01*
X70574488Y-101537865D01*
X70494052Y-101658247D01*
X70438646Y-101792009D01*
X70410400Y-101934009D01*
X68798000Y-101934009D01*
X68798000Y-101733000D01*
X68818000Y-101733000D01*
X68818000Y-101713000D01*
X69072000Y-101713000D01*
X69072000Y-101733000D01*
X70196250Y-101733000D01*
X70280000Y-101649250D01*
X70280092Y-101635638D01*
X70357887Y-101612039D01*
X70437799Y-101569325D01*
X70507843Y-101511841D01*
X70522246Y-101494291D01*
X71457380Y-100559158D01*
X71457380Y-100672000D01*
X71463848Y-100737671D01*
X71483004Y-100800819D01*
X71514111Y-100859016D01*
X71555974Y-100910026D01*
X71606984Y-100951889D01*
X71665181Y-100982996D01*
X71728329Y-101002152D01*
X71794000Y-101008620D01*
X73494000Y-101008620D01*
X73559671Y-101002152D01*
X73622819Y-100982996D01*
X73681016Y-100951889D01*
X73732026Y-100910026D01*
X73773889Y-100859016D01*
X73804996Y-100800819D01*
X73824152Y-100737671D01*
X73830620Y-100672000D01*
X73830620Y-99576458D01*
X74806603Y-100552441D01*
X74804600Y-100562509D01*
X74804600Y-100707291D01*
X74832846Y-100849291D01*
X74888252Y-100983053D01*
X74968688Y-101103435D01*
X75071065Y-101205812D01*
X75191447Y-101286248D01*
X75325209Y-101341654D01*
X75467209Y-101369900D01*
X75611991Y-101369900D01*
X75753991Y-101341654D01*
X75887753Y-101286248D01*
X76008135Y-101205812D01*
X76110512Y-101103435D01*
X76190948Y-100983053D01*
X76246354Y-100849291D01*
X76274600Y-100707291D01*
X76274600Y-100562509D01*
X76246354Y-100420509D01*
X76190948Y-100286747D01*
X76110512Y-100166365D01*
X76008135Y-100063988D01*
X75887753Y-99983552D01*
X75753991Y-99928146D01*
X75611991Y-99899900D01*
X75467209Y-99899900D01*
X75457141Y-99901903D01*
X73705237Y-98150000D01*
X83206000Y-98150000D01*
X83206001Y-113862183D01*
X83206001Y-113862183D01*
G37*
X83206001Y-113862183D02*
X83184867Y-113832945D01*
X83049343Y-113707052D01*
X82891862Y-113610018D01*
X82748347Y-113562937D01*
X82605000Y-113616277D01*
X82605000Y-114681000D01*
X82625000Y-114681000D01*
X82625000Y-114935000D01*
X82605000Y-114935000D01*
X82605000Y-115999723D01*
X82748347Y-116053063D01*
X82891862Y-116005982D01*
X83049343Y-115908948D01*
X83184867Y-115783055D01*
X83206001Y-115753817D01*
X83206001Y-117750000D01*
X50927000Y-117750000D01*
X50927000Y-117390909D01*
X50985000Y-117396621D01*
X51224250Y-117395000D01*
X51308000Y-117311250D01*
X51308000Y-116187000D01*
X51288000Y-116187000D01*
X51288000Y-115933000D01*
X51308000Y-115933000D01*
X51308000Y-115913000D01*
X51562000Y-115913000D01*
X51562000Y-115933000D01*
X51582000Y-115933000D01*
X51582000Y-116187000D01*
X51562000Y-116187000D01*
X51562000Y-117311250D01*
X51645750Y-117395000D01*
X51885000Y-117396621D01*
X51950671Y-117390153D01*
X52013819Y-117370997D01*
X52070001Y-117340967D01*
X52126181Y-117370996D01*
X52189329Y-117390152D01*
X52255000Y-117396620D01*
X53155000Y-117396620D01*
X53220671Y-117390152D01*
X53283819Y-117370996D01*
X53340000Y-117340967D01*
X53396181Y-117370996D01*
X53459329Y-117390152D01*
X53525000Y-117396620D01*
X54425000Y-117396620D01*
X54490671Y-117390152D01*
X54553819Y-117370996D01*
X54610000Y-117340967D01*
X54666181Y-117370996D01*
X54729329Y-117390152D01*
X54795000Y-117396620D01*
X55695000Y-117396620D01*
X55760671Y-117390152D01*
X55823819Y-117370996D01*
X55880000Y-117340967D01*
X55936181Y-117370996D01*
X55999329Y-117390152D01*
X56065000Y-117396620D01*
X56965000Y-117396620D01*
X57030671Y-117390152D01*
X57093819Y-117370996D01*
X57150000Y-117340967D01*
X57206181Y-117370996D01*
X57269329Y-117390152D01*
X57335000Y-117396620D01*
X58235000Y-117396620D01*
X58300671Y-117390152D01*
X58363819Y-117370996D01*
X58420000Y-117340967D01*
X58476181Y-117370996D01*
X58539329Y-117390152D01*
X58605000Y-117396620D01*
X59505000Y-117396620D01*
X59570671Y-117390152D01*
X59633819Y-117370996D01*
X59690000Y-117340967D01*
X59746181Y-117370996D01*
X59809329Y-117390152D01*
X59875000Y-117396620D01*
X60775000Y-117396620D01*
X60840671Y-117390152D01*
X60903819Y-117370996D01*
X60960000Y-117340967D01*
X61016181Y-117370996D01*
X61079329Y-117390152D01*
X61145000Y-117396620D01*
X62045000Y-117396620D01*
X62110671Y-117390152D01*
X62173819Y-117370996D01*
X62230000Y-117340967D01*
X62286181Y-117370996D01*
X62349329Y-117390152D01*
X62415000Y-117396620D01*
X63315000Y-117396620D01*
X63380671Y-117390152D01*
X63443819Y-117370996D01*
X63500000Y-117340967D01*
X63556181Y-117370996D01*
X63619329Y-117390152D01*
X63685000Y-117396620D01*
X64585000Y-117396620D01*
X64650671Y-117390152D01*
X64713819Y-117370996D01*
X64770000Y-117340967D01*
X64826181Y-117370996D01*
X64889329Y-117390152D01*
X64955000Y-117396620D01*
X65855000Y-117396620D01*
X65920671Y-117390152D01*
X65983819Y-117370996D01*
X66040000Y-117340967D01*
X66096181Y-117370996D01*
X66159329Y-117390152D01*
X66225000Y-117396620D01*
X67125000Y-117396620D01*
X67190671Y-117390152D01*
X67253819Y-117370996D01*
X67310000Y-117340967D01*
X67366181Y-117370996D01*
X67429329Y-117390152D01*
X67495000Y-117396620D01*
X68395000Y-117396620D01*
X68460671Y-117390152D01*
X68523819Y-117370996D01*
X68582016Y-117339889D01*
X68633026Y-117298026D01*
X68674889Y-117247016D01*
X68705996Y-117188819D01*
X68725152Y-117125671D01*
X68731620Y-117060000D01*
X68731620Y-115060000D01*
X68725152Y-114994329D01*
X68707155Y-114935000D01*
X74543000Y-114935000D01*
X74543000Y-115285000D01*
X74585742Y-115464969D01*
X74662773Y-115633142D01*
X74771133Y-115783055D01*
X74906657Y-115908948D01*
X75064138Y-116005982D01*
X75207653Y-116053063D01*
X75351000Y-115999723D01*
X75351000Y-114935000D01*
X75605000Y-114935000D01*
X75605000Y-115999723D01*
X75748347Y-116053063D01*
X75891862Y-116005982D01*
X76049343Y-115908948D01*
X76184867Y-115783055D01*
X76293227Y-115633142D01*
X76370258Y-115464969D01*
X76413000Y-115285000D01*
X76413000Y-114935000D01*
X81543000Y-114935000D01*
X81543000Y-115285000D01*
X81585742Y-115464969D01*
X81662773Y-115633142D01*
X81771133Y-115783055D01*
X81906657Y-115908948D01*
X82064138Y-116005982D01*
X82207653Y-116053063D01*
X82351000Y-115999723D01*
X82351000Y-114935000D01*
X81543000Y-114935000D01*
X76413000Y-114935000D01*
X75605000Y-114935000D01*
X75351000Y-114935000D01*
X74543000Y-114935000D01*
X68707155Y-114935000D01*
X68705996Y-114931181D01*
X68674889Y-114872984D01*
X68633026Y-114821974D01*
X68582016Y-114780111D01*
X68572475Y-114775011D01*
X72914397Y-114775011D01*
X72936979Y-114777235D01*
X72959561Y-114775011D01*
X72959569Y-114775011D01*
X73027155Y-114768354D01*
X73113865Y-114742051D01*
X73193777Y-114699337D01*
X73263821Y-114641853D01*
X73278224Y-114624303D01*
X73571527Y-114331000D01*
X74543000Y-114331000D01*
X74543000Y-114681000D01*
X75351000Y-114681000D01*
X75351000Y-113616277D01*
X75605000Y-113616277D01*
X75605000Y-114681000D01*
X76413000Y-114681000D01*
X76413000Y-114331000D01*
X81543000Y-114331000D01*
X81543000Y-114681000D01*
X82351000Y-114681000D01*
X82351000Y-113616277D01*
X82207653Y-113562937D01*
X82064138Y-113610018D01*
X81906657Y-113707052D01*
X81771133Y-113832945D01*
X81662773Y-113982858D01*
X81585742Y-114151031D01*
X81543000Y-114331000D01*
X76413000Y-114331000D01*
X76370258Y-114151031D01*
X76293227Y-113982858D01*
X76184867Y-113832945D01*
X76049343Y-113707052D01*
X75891862Y-113610018D01*
X75748347Y-113562937D01*
X75605000Y-113616277D01*
X75351000Y-113616277D01*
X75207653Y-113562937D01*
X75064138Y-113610018D01*
X74906657Y-113707052D01*
X74771133Y-113832945D01*
X74662773Y-113982858D01*
X74585742Y-114151031D01*
X74543000Y-114331000D01*
X73571527Y-114331000D01*
X75016620Y-112885907D01*
X75879698Y-112885907D01*
X75959144Y-113038210D01*
X76150588Y-113121560D01*
X76354616Y-113165959D01*
X76563384Y-113169702D01*
X76768870Y-113132644D01*
X76963179Y-113056210D01*
X76996856Y-113038210D01*
X77076302Y-112885907D01*
X80879698Y-112885907D01*
X80959144Y-113038210D01*
X81150588Y-113121560D01*
X81354616Y-113165959D01*
X81563384Y-113169702D01*
X81768870Y-113132644D01*
X81963179Y-113056210D01*
X81996856Y-113038210D01*
X82076302Y-112885907D01*
X81478000Y-112287605D01*
X80879698Y-112885907D01*
X77076302Y-112885907D01*
X76478000Y-112287605D01*
X75879698Y-112885907D01*
X75016620Y-112885907D01*
X75467557Y-112434971D01*
X75529790Y-112593179D01*
X75547790Y-112626856D01*
X75700093Y-112706302D01*
X76298395Y-112108000D01*
X76657605Y-112108000D01*
X77255907Y-112706302D01*
X77408210Y-112626856D01*
X77491560Y-112435412D01*
X77535959Y-112231384D01*
X77536640Y-112193384D01*
X80416298Y-112193384D01*
X80453356Y-112398870D01*
X80529790Y-112593179D01*
X80547790Y-112626856D01*
X80700093Y-112706302D01*
X81298395Y-112108000D01*
X81657605Y-112108000D01*
X82255907Y-112706302D01*
X82408210Y-112626856D01*
X82491560Y-112435412D01*
X82535959Y-112231384D01*
X82539702Y-112022616D01*
X82502644Y-111817130D01*
X82426210Y-111622821D01*
X82408210Y-111589144D01*
X82255907Y-111509698D01*
X81657605Y-112108000D01*
X81298395Y-112108000D01*
X80700093Y-111509698D01*
X80547790Y-111589144D01*
X80464440Y-111780588D01*
X80420041Y-111984616D01*
X80416298Y-112193384D01*
X77536640Y-112193384D01*
X77539702Y-112022616D01*
X77502644Y-111817130D01*
X77426210Y-111622821D01*
X77408210Y-111589144D01*
X77255907Y-111509698D01*
X76657605Y-112108000D01*
X76298395Y-112108000D01*
X76284253Y-112093858D01*
X76463858Y-111914253D01*
X76478000Y-111928395D01*
X77076302Y-111330093D01*
X80879698Y-111330093D01*
X81478000Y-111928395D01*
X82076302Y-111330093D01*
X81996856Y-111177790D01*
X81805412Y-111094440D01*
X81601384Y-111050041D01*
X81392616Y-111046298D01*
X81187130Y-111083356D01*
X80992821Y-111159790D01*
X80959144Y-111177790D01*
X80879698Y-111330093D01*
X77076302Y-111330093D01*
X76996856Y-111177790D01*
X76805412Y-111094440D01*
X76601384Y-111050041D01*
X76392616Y-111046298D01*
X76187130Y-111083356D01*
X75992821Y-111159790D01*
X75959144Y-111177790D01*
X75920397Y-111252070D01*
X75920397Y-111181006D01*
X75892151Y-111039006D01*
X75836745Y-110905244D01*
X75756309Y-110784862D01*
X75653932Y-110682485D01*
X75533550Y-110602049D01*
X75399788Y-110546643D01*
X75279651Y-110522746D01*
X75255754Y-110402609D01*
X75200348Y-110268847D01*
X75119912Y-110148465D01*
X75017535Y-110046088D01*
X74897153Y-109965652D01*
X74763391Y-109910246D01*
X74621391Y-109882000D01*
X74476609Y-109882000D01*
X74334609Y-109910246D01*
X74200847Y-109965652D01*
X74080465Y-110046088D01*
X73978088Y-110148465D01*
X73897652Y-110268847D01*
X73842246Y-110402609D01*
X73814000Y-110544609D01*
X73814000Y-110689391D01*
X73842246Y-110831391D01*
X73897652Y-110965153D01*
X73978088Y-111085535D01*
X74080465Y-111187912D01*
X74089001Y-111193615D01*
X74089000Y-112017464D01*
X73812293Y-112294171D01*
X73811853Y-112289700D01*
X73744094Y-112066326D01*
X73634058Y-111860464D01*
X73485975Y-111680025D01*
X73305536Y-111531942D01*
X73099674Y-111421906D01*
X72876300Y-111354147D01*
X72702207Y-111337000D01*
X72585793Y-111337000D01*
X72411700Y-111354147D01*
X72188326Y-111421906D01*
X71982464Y-111531942D01*
X71802025Y-111680025D01*
X71653942Y-111860464D01*
X71543906Y-112066326D01*
X71476147Y-112289700D01*
X71453267Y-112522000D01*
X71476147Y-112754300D01*
X71498503Y-112828000D01*
X70280438Y-112828000D01*
X70275152Y-112774329D01*
X70255996Y-112711181D01*
X70225967Y-112655000D01*
X70255996Y-112598819D01*
X70275152Y-112535671D01*
X70281620Y-112470000D01*
X70281620Y-111570000D01*
X70275152Y-111504329D01*
X70255996Y-111441181D01*
X70225967Y-111385000D01*
X70255996Y-111328819D01*
X70275152Y-111265671D01*
X70281620Y-111200000D01*
X70281620Y-110300000D01*
X70280807Y-110291744D01*
X71500197Y-110291744D01*
X71520873Y-110359923D01*
X71616183Y-110571772D01*
X71750991Y-110760957D01*
X71920117Y-110920207D01*
X72117061Y-111043402D01*
X72334255Y-111125808D01*
X72517000Y-111076431D01*
X72517000Y-110109000D01*
X72771000Y-110109000D01*
X72771000Y-111076431D01*
X72953745Y-111125808D01*
X73170939Y-111043402D01*
X73367883Y-110920207D01*
X73537009Y-110760957D01*
X73671817Y-110571772D01*
X73767127Y-110359923D01*
X73787803Y-110291744D01*
X73737902Y-110109000D01*
X72771000Y-110109000D01*
X72517000Y-110109000D01*
X71550098Y-110109000D01*
X71500197Y-110291744D01*
X70280807Y-110291744D01*
X70275152Y-110234329D01*
X70255996Y-110171181D01*
X70225967Y-110115000D01*
X70255996Y-110058819D01*
X70275152Y-109995671D01*
X70281620Y-109930000D01*
X70281620Y-109672256D01*
X71500197Y-109672256D01*
X71550098Y-109855000D01*
X72517000Y-109855000D01*
X72517000Y-108887569D01*
X72771000Y-108887569D01*
X72771000Y-109855000D01*
X73737902Y-109855000D01*
X73787803Y-109672256D01*
X73767127Y-109604077D01*
X73671817Y-109392228D01*
X73537009Y-109203043D01*
X73367883Y-109043793D01*
X73170939Y-108920598D01*
X72953745Y-108838192D01*
X72771000Y-108887569D01*
X72517000Y-108887569D01*
X72334255Y-108838192D01*
X72117061Y-108920598D01*
X71920117Y-109043793D01*
X71750991Y-109203043D01*
X71616183Y-109392228D01*
X71520873Y-109604077D01*
X71500197Y-109672256D01*
X70281620Y-109672256D01*
X70281620Y-109030000D01*
X70275152Y-108964329D01*
X70255996Y-108901181D01*
X70225967Y-108845000D01*
X70255996Y-108788819D01*
X70275152Y-108725671D01*
X70281620Y-108660000D01*
X70281620Y-107760000D01*
X70275152Y-107694329D01*
X70255996Y-107631181D01*
X70225967Y-107575000D01*
X70255996Y-107518819D01*
X70275152Y-107455671D01*
X70276498Y-107442000D01*
X71453267Y-107442000D01*
X71476147Y-107674300D01*
X71543906Y-107897674D01*
X71653942Y-108103536D01*
X71802025Y-108283975D01*
X71982464Y-108432058D01*
X72188326Y-108542094D01*
X72411700Y-108609853D01*
X72585793Y-108627000D01*
X72702207Y-108627000D01*
X72876300Y-108609853D01*
X73099674Y-108542094D01*
X73305536Y-108432058D01*
X73485975Y-108283975D01*
X73634058Y-108103536D01*
X73744094Y-107897674D01*
X73811853Y-107674300D01*
X73834733Y-107442000D01*
X73811853Y-107209700D01*
X73744094Y-106986326D01*
X73634058Y-106780464D01*
X73485975Y-106600025D01*
X73305536Y-106451942D01*
X73099674Y-106341906D01*
X72876300Y-106274147D01*
X72702207Y-106257000D01*
X72585793Y-106257000D01*
X72411700Y-106274147D01*
X72188326Y-106341906D01*
X71982464Y-106451942D01*
X71802025Y-106600025D01*
X71653942Y-106780464D01*
X71543906Y-106986326D01*
X71476147Y-107209700D01*
X71453267Y-107442000D01*
X70276498Y-107442000D01*
X70281620Y-107390000D01*
X70281620Y-106490000D01*
X70275152Y-106424329D01*
X70255996Y-106361181D01*
X70225967Y-106305000D01*
X70255996Y-106248819D01*
X70275152Y-106185671D01*
X70281620Y-106120000D01*
X70281620Y-105220000D01*
X70275152Y-105154329D01*
X70255996Y-105091181D01*
X70225967Y-105035000D01*
X70255996Y-104978819D01*
X70275152Y-104915671D01*
X70281620Y-104850000D01*
X70281620Y-103950000D01*
X70275152Y-103884329D01*
X70255996Y-103821181D01*
X70225967Y-103765000D01*
X70255996Y-103708819D01*
X70275152Y-103645671D01*
X70281620Y-103580000D01*
X70281620Y-102680000D01*
X70275152Y-102614329D01*
X70255996Y-102551181D01*
X70225967Y-102495001D01*
X70255997Y-102438819D01*
X70275153Y-102375671D01*
X70281621Y-102310000D01*
X70280000Y-102070750D01*
X70196250Y-101987000D01*
X69072000Y-101987000D01*
X69072000Y-102007000D01*
X68818000Y-102007000D01*
X68818000Y-101987000D01*
X68798000Y-101987000D01*
X68798000Y-101934009D01*
X70410400Y-101934009D01*
X70410400Y-102078791D01*
X70438646Y-102220791D01*
X70494052Y-102354553D01*
X70574488Y-102474935D01*
X70676865Y-102577312D01*
X70682019Y-102580756D01*
X70690086Y-102662652D01*
X70716503Y-102749739D01*
X70759403Y-102830000D01*
X70784973Y-102861157D01*
X70817137Y-102900349D01*
X70834769Y-102914819D01*
X71899762Y-103979814D01*
X71802025Y-104060025D01*
X71653942Y-104240464D01*
X71543906Y-104446326D01*
X71476147Y-104669700D01*
X71453267Y-104902000D01*
X71476147Y-105134300D01*
X71543906Y-105357674D01*
X71653942Y-105563536D01*
X71802025Y-105743975D01*
X71982464Y-105892058D01*
X72188326Y-106002094D01*
X72411700Y-106069853D01*
X72585793Y-106087000D01*
X72702207Y-106087000D01*
X72876300Y-106069853D01*
X73099674Y-106002094D01*
X73305536Y-105892058D01*
X73309002Y-105889214D01*
X73309002Y-105934329D01*
X73306766Y-105957029D01*
X73315687Y-106047596D01*
X73342104Y-106134683D01*
X73385004Y-106214944D01*
X73410574Y-106246101D01*
X73442738Y-106285293D01*
X73460370Y-106299763D01*
X74439019Y-107278414D01*
X74437486Y-107286123D01*
X74437486Y-107430905D01*
X74465732Y-107572905D01*
X74521138Y-107706667D01*
X74601574Y-107827049D01*
X74703951Y-107929426D01*
X74824333Y-108009862D01*
X74958095Y-108065268D01*
X75100095Y-108093514D01*
X75244877Y-108093514D01*
X75386877Y-108065268D01*
X75520639Y-108009862D01*
X75641021Y-107929426D01*
X75743398Y-107827049D01*
X75823834Y-107706667D01*
X75879240Y-107572905D01*
X75907486Y-107430905D01*
X75907486Y-107286123D01*
X75879240Y-107144123D01*
X75823834Y-107010361D01*
X75743398Y-106889979D01*
X75641021Y-106787602D01*
X75520639Y-106707166D01*
X75386877Y-106651760D01*
X75244877Y-106623514D01*
X75100095Y-106623514D01*
X75092386Y-106625047D01*
X74233001Y-105765664D01*
X74233001Y-104383729D01*
X74235236Y-104361039D01*
X74233001Y-104338346D01*
X74226316Y-104270471D01*
X74199898Y-104183384D01*
X74156998Y-104103124D01*
X74099265Y-104032775D01*
X74081634Y-104018306D01*
X73731137Y-103667809D01*
X74540400Y-103667809D01*
X74540400Y-103812591D01*
X74568646Y-103954591D01*
X74624052Y-104088353D01*
X74686400Y-104181664D01*
X74686400Y-104608883D01*
X74683552Y-104637800D01*
X74686400Y-104666717D01*
X74686400Y-104666727D01*
X74688624Y-104689302D01*
X74694924Y-104753263D01*
X74728603Y-104864290D01*
X74783296Y-104966613D01*
X74838460Y-105033831D01*
X74838466Y-105033837D01*
X74856901Y-105056300D01*
X74879364Y-105074735D01*
X76627001Y-106822373D01*
X76627000Y-107823535D01*
X76564652Y-107916847D01*
X76509246Y-108050609D01*
X76481000Y-108192609D01*
X76481000Y-108337391D01*
X76509246Y-108479391D01*
X76564652Y-108613153D01*
X76645088Y-108733535D01*
X76747465Y-108835912D01*
X76867847Y-108916348D01*
X77001609Y-108971754D01*
X77143609Y-109000000D01*
X77288391Y-109000000D01*
X77430391Y-108971754D01*
X77564153Y-108916348D01*
X77684535Y-108835912D01*
X77786912Y-108733535D01*
X77867348Y-108613153D01*
X77922754Y-108479391D01*
X77951000Y-108337391D01*
X77951000Y-108192609D01*
X77922754Y-108050609D01*
X77867348Y-107916847D01*
X77805000Y-107823536D01*
X77805000Y-106607317D01*
X77807848Y-106578400D01*
X77805000Y-106549483D01*
X77805000Y-106549473D01*
X77796477Y-106462936D01*
X77762797Y-106351909D01*
X77708104Y-106249586D01*
X77679674Y-106214944D01*
X77652940Y-106182368D01*
X77652935Y-106182363D01*
X77634500Y-106159900D01*
X77612037Y-106141465D01*
X75864400Y-104393829D01*
X75864400Y-104181664D01*
X75926748Y-104088353D01*
X75982154Y-103954591D01*
X76010400Y-103812591D01*
X76010400Y-103667809D01*
X75982154Y-103525809D01*
X75949059Y-103445912D01*
X78682994Y-100711978D01*
X78761700Y-100735853D01*
X78935793Y-100753000D01*
X79052207Y-100753000D01*
X79226300Y-100735853D01*
X79449674Y-100668094D01*
X79655536Y-100558058D01*
X79826196Y-100418000D01*
X80347379Y-100418000D01*
X80353847Y-100483671D01*
X80373003Y-100546819D01*
X80404110Y-100605017D01*
X80445973Y-100656027D01*
X80496983Y-100697890D01*
X80555181Y-100728997D01*
X80618329Y-100748153D01*
X80684000Y-100754621D01*
X81323250Y-100753000D01*
X81407000Y-100669250D01*
X81407000Y-99695000D01*
X81661000Y-99695000D01*
X81661000Y-100669250D01*
X81744750Y-100753000D01*
X82384000Y-100754621D01*
X82449671Y-100748153D01*
X82512819Y-100728997D01*
X82571017Y-100697890D01*
X82622027Y-100656027D01*
X82663890Y-100605017D01*
X82694997Y-100546819D01*
X82714153Y-100483671D01*
X82720621Y-100418000D01*
X82719000Y-99778750D01*
X82635250Y-99695000D01*
X81661000Y-99695000D01*
X81407000Y-99695000D01*
X80432750Y-99695000D01*
X80349000Y-99778750D01*
X80347379Y-100418000D01*
X79826196Y-100418000D01*
X79835975Y-100409975D01*
X79984058Y-100229536D01*
X80094094Y-100023674D01*
X80161853Y-99800300D01*
X80184733Y-99568000D01*
X80161853Y-99335700D01*
X80094094Y-99112326D01*
X79984058Y-98906464D01*
X79835975Y-98726025D01*
X79826197Y-98718000D01*
X80347379Y-98718000D01*
X80349000Y-99357250D01*
X80432750Y-99441000D01*
X81407000Y-99441000D01*
X81407000Y-98466750D01*
X81661000Y-98466750D01*
X81661000Y-99441000D01*
X82635250Y-99441000D01*
X82719000Y-99357250D01*
X82720621Y-98718000D01*
X82714153Y-98652329D01*
X82694997Y-98589181D01*
X82663890Y-98530983D01*
X82622027Y-98479973D01*
X82571017Y-98438110D01*
X82512819Y-98407003D01*
X82449671Y-98387847D01*
X82384000Y-98381379D01*
X81744750Y-98383000D01*
X81661000Y-98466750D01*
X81407000Y-98466750D01*
X81323250Y-98383000D01*
X80684000Y-98381379D01*
X80618329Y-98387847D01*
X80555181Y-98407003D01*
X80496983Y-98438110D01*
X80445973Y-98479973D01*
X80404110Y-98530983D01*
X80373003Y-98589181D01*
X80353847Y-98652329D01*
X80347379Y-98718000D01*
X79826197Y-98718000D01*
X79655536Y-98577942D01*
X79449674Y-98467906D01*
X79226300Y-98400147D01*
X79052207Y-98383000D01*
X78935793Y-98383000D01*
X78761700Y-98400147D01*
X78538326Y-98467906D01*
X78332464Y-98577942D01*
X78152025Y-98726025D01*
X78003942Y-98906464D01*
X77893906Y-99112326D01*
X77826147Y-99335700D01*
X77803267Y-99568000D01*
X77826147Y-99800300D01*
X77850022Y-99879006D01*
X74879369Y-102849660D01*
X74856900Y-102868100D01*
X74838461Y-102890568D01*
X74838460Y-102890569D01*
X74783297Y-102957786D01*
X74783296Y-102957787D01*
X74728603Y-103060110D01*
X74694923Y-103171137D01*
X74686400Y-103257674D01*
X74686400Y-103257683D01*
X74683552Y-103286600D01*
X74684960Y-103300892D01*
X74624052Y-103392047D01*
X74568646Y-103525809D01*
X74540400Y-103667809D01*
X73731137Y-103667809D01*
X73527699Y-103464372D01*
X73513225Y-103446735D01*
X73442876Y-103389002D01*
X73362616Y-103346102D01*
X73326239Y-103335067D01*
X73485975Y-103203975D01*
X73634058Y-103023536D01*
X73744094Y-102817674D01*
X73811853Y-102594300D01*
X73834733Y-102362000D01*
X73811853Y-102129700D01*
X73744094Y-101906326D01*
X73634058Y-101700464D01*
X73485975Y-101520025D01*
X73305536Y-101371942D01*
X73099674Y-101261906D01*
X72876300Y-101194147D01*
X72702207Y-101177000D01*
X72585793Y-101177000D01*
X72411700Y-101194147D01*
X72188326Y-101261906D01*
X71982464Y-101371942D01*
X71802025Y-101520025D01*
X71748208Y-101585601D01*
X71716312Y-101537865D01*
X71613935Y-101435488D01*
X71493553Y-101355052D01*
X71359791Y-101299646D01*
X71217791Y-101271400D01*
X71073009Y-101271400D01*
X70931009Y-101299646D01*
X70797247Y-101355052D01*
X70676865Y-101435488D01*
X70574488Y-101537865D01*
X70494052Y-101658247D01*
X70438646Y-101792009D01*
X70410400Y-101934009D01*
X68798000Y-101934009D01*
X68798000Y-101733000D01*
X68818000Y-101733000D01*
X68818000Y-101713000D01*
X69072000Y-101713000D01*
X69072000Y-101733000D01*
X70196250Y-101733000D01*
X70280000Y-101649250D01*
X70280092Y-101635638D01*
X70357887Y-101612039D01*
X70437799Y-101569325D01*
X70507843Y-101511841D01*
X70522246Y-101494291D01*
X71457380Y-100559158D01*
X71457380Y-100672000D01*
X71463848Y-100737671D01*
X71483004Y-100800819D01*
X71514111Y-100859016D01*
X71555974Y-100910026D01*
X71606984Y-100951889D01*
X71665181Y-100982996D01*
X71728329Y-101002152D01*
X71794000Y-101008620D01*
X73494000Y-101008620D01*
X73559671Y-101002152D01*
X73622819Y-100982996D01*
X73681016Y-100951889D01*
X73732026Y-100910026D01*
X73773889Y-100859016D01*
X73804996Y-100800819D01*
X73824152Y-100737671D01*
X73830620Y-100672000D01*
X73830620Y-99576458D01*
X74806603Y-100552441D01*
X74804600Y-100562509D01*
X74804600Y-100707291D01*
X74832846Y-100849291D01*
X74888252Y-100983053D01*
X74968688Y-101103435D01*
X75071065Y-101205812D01*
X75191447Y-101286248D01*
X75325209Y-101341654D01*
X75467209Y-101369900D01*
X75611991Y-101369900D01*
X75753991Y-101341654D01*
X75887753Y-101286248D01*
X76008135Y-101205812D01*
X76110512Y-101103435D01*
X76190948Y-100983053D01*
X76246354Y-100849291D01*
X76274600Y-100707291D01*
X76274600Y-100562509D01*
X76246354Y-100420509D01*
X76190948Y-100286747D01*
X76110512Y-100166365D01*
X76008135Y-100063988D01*
X75887753Y-99983552D01*
X75753991Y-99928146D01*
X75611991Y-99899900D01*
X75467209Y-99899900D01*
X75457141Y-99901903D01*
X73705237Y-98150000D01*
X83206000Y-98150000D01*
X83206001Y-113862183D01*
G36*
X51562000Y-98933000D02*
G01*
X51582000Y-98933000D01*
X51582000Y-99187000D01*
X51562000Y-99187000D01*
X51562000Y-100311250D01*
X51645750Y-100395000D01*
X51885000Y-100396621D01*
X51950671Y-100390153D01*
X52013819Y-100370997D01*
X52070001Y-100340967D01*
X52126181Y-100370996D01*
X52141906Y-100375766D01*
X52149311Y-100400176D01*
X52158203Y-100429490D01*
X52212896Y-100531813D01*
X52255725Y-100584000D01*
X52286500Y-100621500D01*
X52308968Y-100639940D01*
X52776064Y-101107036D01*
X52794500Y-101129500D01*
X52816963Y-101147935D01*
X52816968Y-101147940D01*
X52884185Y-101203104D01*
X52919827Y-101222155D01*
X52986509Y-101257797D01*
X53097536Y-101291477D01*
X53184073Y-101300000D01*
X53184082Y-101300000D01*
X53212999Y-101302848D01*
X53241916Y-101300000D01*
X53604029Y-101300000D01*
X53767001Y-101462973D01*
X53767000Y-102682535D01*
X53704652Y-102775847D01*
X53649246Y-102909609D01*
X53621000Y-103051609D01*
X53621000Y-103196391D01*
X53649246Y-103338391D01*
X53704652Y-103472153D01*
X53785088Y-103592535D01*
X53887465Y-103694912D01*
X53990624Y-103763840D01*
X53566465Y-104188000D01*
X53357615Y-104188000D01*
X53351912Y-104179465D01*
X53249535Y-104077088D01*
X53129153Y-103996652D01*
X52995391Y-103941246D01*
X52853391Y-103913000D01*
X52708609Y-103913000D01*
X52566609Y-103941246D01*
X52432847Y-103996652D01*
X52312465Y-104077088D01*
X52210088Y-104179465D01*
X52129652Y-104299847D01*
X52074246Y-104433609D01*
X52046000Y-104575609D01*
X52046000Y-104720391D01*
X52074246Y-104862391D01*
X52129652Y-104996153D01*
X52210088Y-105116535D01*
X52312465Y-105218912D01*
X52432847Y-105299348D01*
X52566609Y-105354754D01*
X52708609Y-105383000D01*
X52853391Y-105383000D01*
X52869696Y-105379757D01*
X52710702Y-105538751D01*
X52693158Y-105553149D01*
X52678760Y-105570693D01*
X52678757Y-105570696D01*
X52663382Y-105589430D01*
X52635674Y-105623193D01*
X52612842Y-105665908D01*
X52592959Y-105703106D01*
X52566656Y-105789816D01*
X52557775Y-105879991D01*
X52560000Y-105902583D01*
X52559999Y-110005419D01*
X52557775Y-110028001D01*
X52559999Y-110050583D01*
X52559999Y-110050590D01*
X52566656Y-110118176D01*
X52592959Y-110204886D01*
X52635673Y-110284798D01*
X52693157Y-110354843D01*
X52710707Y-110369246D01*
X53003756Y-110662296D01*
X53018157Y-110679843D01*
X53088201Y-110737327D01*
X53090325Y-110738462D01*
X53328959Y-110977097D01*
X53343358Y-110994642D01*
X53413402Y-111052126D01*
X53493314Y-111094840D01*
X53580024Y-111121143D01*
X53647610Y-111127800D01*
X53647617Y-111127800D01*
X53670199Y-111130024D01*
X53692781Y-111127800D01*
X53982585Y-111127800D01*
X53988288Y-111136335D01*
X54090665Y-111238712D01*
X54211047Y-111319148D01*
X54344809Y-111374554D01*
X54486809Y-111402800D01*
X54631591Y-111402800D01*
X54773591Y-111374554D01*
X54907353Y-111319148D01*
X55027735Y-111238712D01*
X55130112Y-111136335D01*
X55210548Y-111015953D01*
X55265954Y-110882191D01*
X55294200Y-110740191D01*
X55294200Y-110732537D01*
X55985203Y-111423541D01*
X55983200Y-111433609D01*
X55983200Y-111578391D01*
X56011446Y-111720391D01*
X56066852Y-111854153D01*
X56147288Y-111974535D01*
X56249665Y-112076912D01*
X56370047Y-112157348D01*
X56503809Y-112212754D01*
X56645809Y-112241000D01*
X56790591Y-112241000D01*
X56932591Y-112212754D01*
X57066353Y-112157348D01*
X57186735Y-112076912D01*
X57289112Y-111974535D01*
X57294815Y-111966000D01*
X60312263Y-111966000D01*
X60828504Y-112482242D01*
X60828509Y-112482246D01*
X61539704Y-113193442D01*
X61539709Y-113193446D01*
X61759000Y-113412737D01*
X61759000Y-113545644D01*
X61750464Y-113551347D01*
X61648087Y-113653724D01*
X61567651Y-113774106D01*
X61512245Y-113907868D01*
X61483999Y-114049868D01*
X61483999Y-114194650D01*
X61512245Y-114336650D01*
X61567651Y-114470412D01*
X61648087Y-114590794D01*
X61750464Y-114693171D01*
X61795675Y-114723380D01*
X61145000Y-114723380D01*
X61079329Y-114729848D01*
X61016181Y-114749004D01*
X60960000Y-114779033D01*
X60903819Y-114749004D01*
X60840671Y-114729848D01*
X60775000Y-114723380D01*
X59875000Y-114723380D01*
X59809329Y-114729848D01*
X59746181Y-114749004D01*
X59690000Y-114779033D01*
X59636046Y-114750194D01*
X59660154Y-114691991D01*
X59688400Y-114549991D01*
X59688400Y-114405209D01*
X59660154Y-114263209D01*
X59604748Y-114129447D01*
X59524312Y-114009065D01*
X59421935Y-113906688D01*
X59301553Y-113826252D01*
X59167791Y-113770846D01*
X59025791Y-113742600D01*
X58881009Y-113742600D01*
X58870940Y-113744603D01*
X58319634Y-113193297D01*
X58305231Y-113175747D01*
X58235187Y-113118263D01*
X58155275Y-113075549D01*
X58068565Y-113049246D01*
X58000979Y-113042589D01*
X58000971Y-113042589D01*
X57978389Y-113040365D01*
X57955807Y-113042589D01*
X55978191Y-113042589D01*
X55955609Y-113040365D01*
X55933027Y-113042589D01*
X55933019Y-113042589D01*
X55865433Y-113049246D01*
X55778723Y-113075549D01*
X55698811Y-113118263D01*
X55682045Y-113132023D01*
X55628767Y-113175747D01*
X55614368Y-113193292D01*
X54935703Y-113871958D01*
X54918159Y-113886356D01*
X54903761Y-113903900D01*
X54903758Y-113903903D01*
X54889890Y-113920802D01*
X54860675Y-113956400D01*
X54843694Y-113988169D01*
X54817960Y-114036313D01*
X54791657Y-114123023D01*
X54782776Y-114213198D01*
X54785001Y-114235790D01*
X54785001Y-114724365D01*
X54729329Y-114729848D01*
X54666181Y-114749004D01*
X54610000Y-114779033D01*
X54553819Y-114749004D01*
X54490671Y-114729848D01*
X54428729Y-114723747D01*
X54428343Y-114719824D01*
X54402040Y-114633114D01*
X54377493Y-114587190D01*
X54379800Y-114575591D01*
X54379800Y-114430809D01*
X54351554Y-114288809D01*
X54296148Y-114155047D01*
X54215712Y-114034665D01*
X54113335Y-113932288D01*
X53992953Y-113851852D01*
X53859191Y-113796446D01*
X53717191Y-113768200D01*
X53572409Y-113768200D01*
X53430409Y-113796446D01*
X53296647Y-113851852D01*
X53204561Y-113913382D01*
X53205801Y-113900789D01*
X53205801Y-113900781D01*
X53208025Y-113878199D01*
X53205801Y-113855617D01*
X53205801Y-112001183D01*
X53208025Y-111978601D01*
X53205801Y-111956019D01*
X53205801Y-111956011D01*
X53199144Y-111888425D01*
X53172841Y-111801715D01*
X53130127Y-111721803D01*
X53102104Y-111687657D01*
X53087043Y-111669305D01*
X53087041Y-111669303D01*
X53072643Y-111651759D01*
X53055099Y-111637361D01*
X52853797Y-111436060D01*
X52855800Y-111425991D01*
X52855800Y-111281209D01*
X52827554Y-111139209D01*
X52772148Y-111005447D01*
X52691712Y-110885065D01*
X52589335Y-110782688D01*
X52468953Y-110702252D01*
X52335191Y-110646846D01*
X52193191Y-110618600D01*
X52048409Y-110618600D01*
X51906409Y-110646846D01*
X51772647Y-110702252D01*
X51652265Y-110782688D01*
X51549888Y-110885065D01*
X51469452Y-111005447D01*
X51414046Y-111139209D01*
X51385800Y-111281209D01*
X51385800Y-111425991D01*
X51414046Y-111567991D01*
X51469452Y-111701753D01*
X51549888Y-111822135D01*
X51652265Y-111924512D01*
X51772647Y-112004948D01*
X51906409Y-112060354D01*
X52048409Y-112088600D01*
X52193191Y-112088600D01*
X52203260Y-112086597D01*
X52285801Y-112169139D01*
X52285802Y-113687661D01*
X52273122Y-113700341D01*
X52273116Y-113700346D01*
X52203259Y-113770203D01*
X52193191Y-113768200D01*
X52048409Y-113768200D01*
X51906409Y-113796446D01*
X51772647Y-113851852D01*
X51652265Y-113932288D01*
X51549888Y-114034665D01*
X51469452Y-114155047D01*
X51414046Y-114288809D01*
X51385800Y-114430809D01*
X51385800Y-114575591D01*
X51414046Y-114717591D01*
X51417115Y-114725000D01*
X51307998Y-114725000D01*
X51307998Y-114808748D01*
X51224250Y-114725000D01*
X50985000Y-114723379D01*
X50927000Y-114729091D01*
X50927000Y-100390909D01*
X50985000Y-100396621D01*
X51224250Y-100395000D01*
X51308000Y-100311250D01*
X51308000Y-99187000D01*
X51288000Y-99187000D01*
X51288000Y-98933000D01*
X51308000Y-98933000D01*
X51308000Y-98913000D01*
X51562000Y-98913000D01*
X51562000Y-98933000D01*
X51562000Y-98933000D01*
G37*
X51562000Y-98933000D02*
X51582000Y-98933000D01*
X51582000Y-99187000D01*
X51562000Y-99187000D01*
X51562000Y-100311250D01*
X51645750Y-100395000D01*
X51885000Y-100396621D01*
X51950671Y-100390153D01*
X52013819Y-100370997D01*
X52070001Y-100340967D01*
X52126181Y-100370996D01*
X52141906Y-100375766D01*
X52149311Y-100400176D01*
X52158203Y-100429490D01*
X52212896Y-100531813D01*
X52255725Y-100584000D01*
X52286500Y-100621500D01*
X52308968Y-100639940D01*
X52776064Y-101107036D01*
X52794500Y-101129500D01*
X52816963Y-101147935D01*
X52816968Y-101147940D01*
X52884185Y-101203104D01*
X52919827Y-101222155D01*
X52986509Y-101257797D01*
X53097536Y-101291477D01*
X53184073Y-101300000D01*
X53184082Y-101300000D01*
X53212999Y-101302848D01*
X53241916Y-101300000D01*
X53604029Y-101300000D01*
X53767001Y-101462973D01*
X53767000Y-102682535D01*
X53704652Y-102775847D01*
X53649246Y-102909609D01*
X53621000Y-103051609D01*
X53621000Y-103196391D01*
X53649246Y-103338391D01*
X53704652Y-103472153D01*
X53785088Y-103592535D01*
X53887465Y-103694912D01*
X53990624Y-103763840D01*
X53566465Y-104188000D01*
X53357615Y-104188000D01*
X53351912Y-104179465D01*
X53249535Y-104077088D01*
X53129153Y-103996652D01*
X52995391Y-103941246D01*
X52853391Y-103913000D01*
X52708609Y-103913000D01*
X52566609Y-103941246D01*
X52432847Y-103996652D01*
X52312465Y-104077088D01*
X52210088Y-104179465D01*
X52129652Y-104299847D01*
X52074246Y-104433609D01*
X52046000Y-104575609D01*
X52046000Y-104720391D01*
X52074246Y-104862391D01*
X52129652Y-104996153D01*
X52210088Y-105116535D01*
X52312465Y-105218912D01*
X52432847Y-105299348D01*
X52566609Y-105354754D01*
X52708609Y-105383000D01*
X52853391Y-105383000D01*
X52869696Y-105379757D01*
X52710702Y-105538751D01*
X52693158Y-105553149D01*
X52678760Y-105570693D01*
X52678757Y-105570696D01*
X52663382Y-105589430D01*
X52635674Y-105623193D01*
X52612842Y-105665908D01*
X52592959Y-105703106D01*
X52566656Y-105789816D01*
X52557775Y-105879991D01*
X52560000Y-105902583D01*
X52559999Y-110005419D01*
X52557775Y-110028001D01*
X52559999Y-110050583D01*
X52559999Y-110050590D01*
X52566656Y-110118176D01*
X52592959Y-110204886D01*
X52635673Y-110284798D01*
X52693157Y-110354843D01*
X52710707Y-110369246D01*
X53003756Y-110662296D01*
X53018157Y-110679843D01*
X53088201Y-110737327D01*
X53090325Y-110738462D01*
X53328959Y-110977097D01*
X53343358Y-110994642D01*
X53413402Y-111052126D01*
X53493314Y-111094840D01*
X53580024Y-111121143D01*
X53647610Y-111127800D01*
X53647617Y-111127800D01*
X53670199Y-111130024D01*
X53692781Y-111127800D01*
X53982585Y-111127800D01*
X53988288Y-111136335D01*
X54090665Y-111238712D01*
X54211047Y-111319148D01*
X54344809Y-111374554D01*
X54486809Y-111402800D01*
X54631591Y-111402800D01*
X54773591Y-111374554D01*
X54907353Y-111319148D01*
X55027735Y-111238712D01*
X55130112Y-111136335D01*
X55210548Y-111015953D01*
X55265954Y-110882191D01*
X55294200Y-110740191D01*
X55294200Y-110732537D01*
X55985203Y-111423541D01*
X55983200Y-111433609D01*
X55983200Y-111578391D01*
X56011446Y-111720391D01*
X56066852Y-111854153D01*
X56147288Y-111974535D01*
X56249665Y-112076912D01*
X56370047Y-112157348D01*
X56503809Y-112212754D01*
X56645809Y-112241000D01*
X56790591Y-112241000D01*
X56932591Y-112212754D01*
X57066353Y-112157348D01*
X57186735Y-112076912D01*
X57289112Y-111974535D01*
X57294815Y-111966000D01*
X60312263Y-111966000D01*
X60828504Y-112482242D01*
X60828509Y-112482246D01*
X61539704Y-113193442D01*
X61539709Y-113193446D01*
X61759000Y-113412737D01*
X61759000Y-113545644D01*
X61750464Y-113551347D01*
X61648087Y-113653724D01*
X61567651Y-113774106D01*
X61512245Y-113907868D01*
X61483999Y-114049868D01*
X61483999Y-114194650D01*
X61512245Y-114336650D01*
X61567651Y-114470412D01*
X61648087Y-114590794D01*
X61750464Y-114693171D01*
X61795675Y-114723380D01*
X61145000Y-114723380D01*
X61079329Y-114729848D01*
X61016181Y-114749004D01*
X60960000Y-114779033D01*
X60903819Y-114749004D01*
X60840671Y-114729848D01*
X60775000Y-114723380D01*
X59875000Y-114723380D01*
X59809329Y-114729848D01*
X59746181Y-114749004D01*
X59690000Y-114779033D01*
X59636046Y-114750194D01*
X59660154Y-114691991D01*
X59688400Y-114549991D01*
X59688400Y-114405209D01*
X59660154Y-114263209D01*
X59604748Y-114129447D01*
X59524312Y-114009065D01*
X59421935Y-113906688D01*
X59301553Y-113826252D01*
X59167791Y-113770846D01*
X59025791Y-113742600D01*
X58881009Y-113742600D01*
X58870940Y-113744603D01*
X58319634Y-113193297D01*
X58305231Y-113175747D01*
X58235187Y-113118263D01*
X58155275Y-113075549D01*
X58068565Y-113049246D01*
X58000979Y-113042589D01*
X58000971Y-113042589D01*
X57978389Y-113040365D01*
X57955807Y-113042589D01*
X55978191Y-113042589D01*
X55955609Y-113040365D01*
X55933027Y-113042589D01*
X55933019Y-113042589D01*
X55865433Y-113049246D01*
X55778723Y-113075549D01*
X55698811Y-113118263D01*
X55682045Y-113132023D01*
X55628767Y-113175747D01*
X55614368Y-113193292D01*
X54935703Y-113871958D01*
X54918159Y-113886356D01*
X54903761Y-113903900D01*
X54903758Y-113903903D01*
X54889890Y-113920802D01*
X54860675Y-113956400D01*
X54843694Y-113988169D01*
X54817960Y-114036313D01*
X54791657Y-114123023D01*
X54782776Y-114213198D01*
X54785001Y-114235790D01*
X54785001Y-114724365D01*
X54729329Y-114729848D01*
X54666181Y-114749004D01*
X54610000Y-114779033D01*
X54553819Y-114749004D01*
X54490671Y-114729848D01*
X54428729Y-114723747D01*
X54428343Y-114719824D01*
X54402040Y-114633114D01*
X54377493Y-114587190D01*
X54379800Y-114575591D01*
X54379800Y-114430809D01*
X54351554Y-114288809D01*
X54296148Y-114155047D01*
X54215712Y-114034665D01*
X54113335Y-113932288D01*
X53992953Y-113851852D01*
X53859191Y-113796446D01*
X53717191Y-113768200D01*
X53572409Y-113768200D01*
X53430409Y-113796446D01*
X53296647Y-113851852D01*
X53204561Y-113913382D01*
X53205801Y-113900789D01*
X53205801Y-113900781D01*
X53208025Y-113878199D01*
X53205801Y-113855617D01*
X53205801Y-112001183D01*
X53208025Y-111978601D01*
X53205801Y-111956019D01*
X53205801Y-111956011D01*
X53199144Y-111888425D01*
X53172841Y-111801715D01*
X53130127Y-111721803D01*
X53102104Y-111687657D01*
X53087043Y-111669305D01*
X53087041Y-111669303D01*
X53072643Y-111651759D01*
X53055099Y-111637361D01*
X52853797Y-111436060D01*
X52855800Y-111425991D01*
X52855800Y-111281209D01*
X52827554Y-111139209D01*
X52772148Y-111005447D01*
X52691712Y-110885065D01*
X52589335Y-110782688D01*
X52468953Y-110702252D01*
X52335191Y-110646846D01*
X52193191Y-110618600D01*
X52048409Y-110618600D01*
X51906409Y-110646846D01*
X51772647Y-110702252D01*
X51652265Y-110782688D01*
X51549888Y-110885065D01*
X51469452Y-111005447D01*
X51414046Y-111139209D01*
X51385800Y-111281209D01*
X51385800Y-111425991D01*
X51414046Y-111567991D01*
X51469452Y-111701753D01*
X51549888Y-111822135D01*
X51652265Y-111924512D01*
X51772647Y-112004948D01*
X51906409Y-112060354D01*
X52048409Y-112088600D01*
X52193191Y-112088600D01*
X52203260Y-112086597D01*
X52285801Y-112169139D01*
X52285802Y-113687661D01*
X52273122Y-113700341D01*
X52273116Y-113700346D01*
X52203259Y-113770203D01*
X52193191Y-113768200D01*
X52048409Y-113768200D01*
X51906409Y-113796446D01*
X51772647Y-113851852D01*
X51652265Y-113932288D01*
X51549888Y-114034665D01*
X51469452Y-114155047D01*
X51414046Y-114288809D01*
X51385800Y-114430809D01*
X51385800Y-114575591D01*
X51414046Y-114717591D01*
X51417115Y-114725000D01*
X51307998Y-114725000D01*
X51307998Y-114808748D01*
X51224250Y-114725000D01*
X50985000Y-114723379D01*
X50927000Y-114729091D01*
X50927000Y-100390909D01*
X50985000Y-100396621D01*
X51224250Y-100395000D01*
X51308000Y-100311250D01*
X51308000Y-99187000D01*
X51288000Y-99187000D01*
X51288000Y-98933000D01*
X51308000Y-98933000D01*
X51308000Y-98913000D01*
X51562000Y-98913000D01*
X51562000Y-98933000D01*
G36*
X67610000Y-102070750D02*
G01*
X67608379Y-102310000D01*
X67614847Y-102375671D01*
X67634003Y-102438819D01*
X67664033Y-102495001D01*
X67634004Y-102551181D01*
X67614848Y-102614329D01*
X67608380Y-102680000D01*
X67608380Y-103580000D01*
X67614848Y-103645671D01*
X67634004Y-103708819D01*
X67664033Y-103765000D01*
X67634004Y-103821181D01*
X67614848Y-103884329D01*
X67608380Y-103950000D01*
X67608380Y-104850000D01*
X67614848Y-104915671D01*
X67634004Y-104978819D01*
X67664033Y-105035000D01*
X67634004Y-105091181D01*
X67614848Y-105154329D01*
X67608380Y-105220000D01*
X67608380Y-106120000D01*
X67614848Y-106185671D01*
X67634004Y-106248819D01*
X67664033Y-106305000D01*
X67634004Y-106361181D01*
X67614848Y-106424329D01*
X67608380Y-106490000D01*
X67608380Y-107390000D01*
X67614848Y-107455671D01*
X67634004Y-107518819D01*
X67664033Y-107575000D01*
X67634004Y-107631181D01*
X67614848Y-107694329D01*
X67608380Y-107760000D01*
X67608380Y-108660000D01*
X67614848Y-108725671D01*
X67634004Y-108788819D01*
X67664033Y-108845000D01*
X67634004Y-108901181D01*
X67614848Y-108964329D01*
X67608380Y-109030000D01*
X67608380Y-109930000D01*
X67614848Y-109995671D01*
X67634004Y-110058819D01*
X67664033Y-110115000D01*
X67634004Y-110171181D01*
X67614848Y-110234329D01*
X67608380Y-110300000D01*
X67608380Y-111200000D01*
X67614848Y-111265671D01*
X67634004Y-111328819D01*
X67664033Y-111385000D01*
X67634004Y-111441181D01*
X67614848Y-111504329D01*
X67608380Y-111570000D01*
X67608380Y-112470000D01*
X67614848Y-112535671D01*
X67634004Y-112598819D01*
X67664033Y-112655000D01*
X67634004Y-112711181D01*
X67614848Y-112774329D01*
X67608380Y-112840000D01*
X67608380Y-113505001D01*
X67279527Y-113505001D01*
X65357000Y-111582475D01*
X65357000Y-111574615D01*
X65365535Y-111568912D01*
X65467912Y-111466535D01*
X65548348Y-111346153D01*
X65603754Y-111212391D01*
X65632000Y-111070391D01*
X65632000Y-110925609D01*
X65603754Y-110783609D01*
X65548348Y-110649847D01*
X65467912Y-110529465D01*
X65365535Y-110427088D01*
X65245153Y-110346652D01*
X65111391Y-110291246D01*
X64969391Y-110263000D01*
X64824609Y-110263000D01*
X64682609Y-110291246D01*
X64548847Y-110346652D01*
X64428465Y-110427088D01*
X64326088Y-110529465D01*
X64262000Y-110625380D01*
X64197912Y-110529465D01*
X64095535Y-110427088D01*
X63975153Y-110346652D01*
X63841391Y-110291246D01*
X63699391Y-110263000D01*
X63554609Y-110263000D01*
X63461999Y-110281422D01*
X63461999Y-106138536D01*
X67613534Y-101987002D01*
X67693748Y-101987002D01*
X67610000Y-102070750D01*
X67610000Y-102070750D01*
G37*
X67610000Y-102070750D02*
X67608379Y-102310000D01*
X67614847Y-102375671D01*
X67634003Y-102438819D01*
X67664033Y-102495001D01*
X67634004Y-102551181D01*
X67614848Y-102614329D01*
X67608380Y-102680000D01*
X67608380Y-103580000D01*
X67614848Y-103645671D01*
X67634004Y-103708819D01*
X67664033Y-103765000D01*
X67634004Y-103821181D01*
X67614848Y-103884329D01*
X67608380Y-103950000D01*
X67608380Y-104850000D01*
X67614848Y-104915671D01*
X67634004Y-104978819D01*
X67664033Y-105035000D01*
X67634004Y-105091181D01*
X67614848Y-105154329D01*
X67608380Y-105220000D01*
X67608380Y-106120000D01*
X67614848Y-106185671D01*
X67634004Y-106248819D01*
X67664033Y-106305000D01*
X67634004Y-106361181D01*
X67614848Y-106424329D01*
X67608380Y-106490000D01*
X67608380Y-107390000D01*
X67614848Y-107455671D01*
X67634004Y-107518819D01*
X67664033Y-107575000D01*
X67634004Y-107631181D01*
X67614848Y-107694329D01*
X67608380Y-107760000D01*
X67608380Y-108660000D01*
X67614848Y-108725671D01*
X67634004Y-108788819D01*
X67664033Y-108845000D01*
X67634004Y-108901181D01*
X67614848Y-108964329D01*
X67608380Y-109030000D01*
X67608380Y-109930000D01*
X67614848Y-109995671D01*
X67634004Y-110058819D01*
X67664033Y-110115000D01*
X67634004Y-110171181D01*
X67614848Y-110234329D01*
X67608380Y-110300000D01*
X67608380Y-111200000D01*
X67614848Y-111265671D01*
X67634004Y-111328819D01*
X67664033Y-111385000D01*
X67634004Y-111441181D01*
X67614848Y-111504329D01*
X67608380Y-111570000D01*
X67608380Y-112470000D01*
X67614848Y-112535671D01*
X67634004Y-112598819D01*
X67664033Y-112655000D01*
X67634004Y-112711181D01*
X67614848Y-112774329D01*
X67608380Y-112840000D01*
X67608380Y-113505001D01*
X67279527Y-113505001D01*
X65357000Y-111582475D01*
X65357000Y-111574615D01*
X65365535Y-111568912D01*
X65467912Y-111466535D01*
X65548348Y-111346153D01*
X65603754Y-111212391D01*
X65632000Y-111070391D01*
X65632000Y-110925609D01*
X65603754Y-110783609D01*
X65548348Y-110649847D01*
X65467912Y-110529465D01*
X65365535Y-110427088D01*
X65245153Y-110346652D01*
X65111391Y-110291246D01*
X64969391Y-110263000D01*
X64824609Y-110263000D01*
X64682609Y-110291246D01*
X64548847Y-110346652D01*
X64428465Y-110427088D01*
X64326088Y-110529465D01*
X64262000Y-110625380D01*
X64197912Y-110529465D01*
X64095535Y-110427088D01*
X63975153Y-110346652D01*
X63841391Y-110291246D01*
X63699391Y-110263000D01*
X63554609Y-110263000D01*
X63461999Y-110281422D01*
X63461999Y-106138536D01*
X67613534Y-101987002D01*
X67693748Y-101987002D01*
X67610000Y-102070750D01*
G36*
X67366181Y-100370996D02*
G01*
X67429329Y-100390152D01*
X67484040Y-100395541D01*
X67443135Y-100407949D01*
X67363223Y-100450663D01*
X67363221Y-100450664D01*
X67363222Y-100450664D01*
X67318206Y-100487608D01*
X67293179Y-100508147D01*
X67278780Y-100525692D01*
X66951014Y-100853459D01*
X66951009Y-100853463D01*
X62342692Y-105461781D01*
X62325148Y-105476179D01*
X62267664Y-105546223D01*
X62263962Y-105553149D01*
X62224949Y-105626136D01*
X62198646Y-105712846D01*
X62189765Y-105803021D01*
X62191990Y-105825613D01*
X62191989Y-111978778D01*
X60784918Y-110571707D01*
X60770515Y-110554157D01*
X60700471Y-110496673D01*
X60620559Y-110453959D01*
X60533849Y-110427656D01*
X60466263Y-110420999D01*
X60466255Y-110420999D01*
X60443673Y-110418775D01*
X60421091Y-110420999D01*
X56778725Y-110420999D01*
X56058375Y-109700650D01*
X56003642Y-109633958D01*
X55986099Y-109619561D01*
X54694701Y-108328164D01*
X54705000Y-108276391D01*
X54705000Y-108131609D01*
X54676754Y-107989609D01*
X54621348Y-107855847D01*
X54540912Y-107735465D01*
X54438535Y-107633088D01*
X54318153Y-107552652D01*
X54184391Y-107497246D01*
X54042391Y-107469000D01*
X53897609Y-107469000D01*
X53755609Y-107497246D01*
X53621847Y-107552652D01*
X53501465Y-107633088D01*
X53479999Y-107654554D01*
X53479999Y-106070528D01*
X55640315Y-103910214D01*
X55657853Y-103895821D01*
X55672247Y-103878282D01*
X55672254Y-103878275D01*
X55715337Y-103825777D01*
X55758051Y-103745865D01*
X55784354Y-103659155D01*
X55787744Y-103624736D01*
X55791011Y-103591569D01*
X55791011Y-103591561D01*
X55793235Y-103568979D01*
X55791011Y-103546397D01*
X55791011Y-100418593D01*
X55793235Y-100396011D01*
X55791730Y-100380730D01*
X55823819Y-100370996D01*
X55880000Y-100340967D01*
X55936181Y-100370996D01*
X55999329Y-100390152D01*
X56065000Y-100396620D01*
X56118098Y-100396620D01*
X56099998Y-100487611D01*
X56099998Y-100632393D01*
X56128244Y-100774393D01*
X56183650Y-100908155D01*
X56264086Y-101028537D01*
X56366463Y-101130914D01*
X56486845Y-101211350D01*
X56620607Y-101266756D01*
X56762607Y-101295002D01*
X56907389Y-101295002D01*
X57049389Y-101266756D01*
X57051674Y-101265809D01*
X57078246Y-101399393D01*
X57133652Y-101533155D01*
X57214088Y-101653537D01*
X57316465Y-101755914D01*
X57436847Y-101836350D01*
X57570609Y-101891756D01*
X57712609Y-101920002D01*
X57857391Y-101920002D01*
X57999391Y-101891756D01*
X58133153Y-101836350D01*
X58253535Y-101755914D01*
X58355912Y-101653537D01*
X58361615Y-101645002D01*
X59257406Y-101645002D01*
X59279988Y-101647226D01*
X59302570Y-101645002D01*
X59302578Y-101645002D01*
X59336000Y-101641710D01*
X59336000Y-101773991D01*
X59364246Y-101915991D01*
X59419652Y-102049753D01*
X59500088Y-102170135D01*
X59602465Y-102272512D01*
X59722847Y-102352948D01*
X59856609Y-102408354D01*
X59998609Y-102436600D01*
X60143391Y-102436600D01*
X60285391Y-102408354D01*
X60419153Y-102352948D01*
X60539535Y-102272512D01*
X60641912Y-102170135D01*
X60647615Y-102161600D01*
X60750818Y-102161600D01*
X60773400Y-102163824D01*
X60795982Y-102161600D01*
X60795990Y-102161600D01*
X60863576Y-102154943D01*
X60950286Y-102128640D01*
X61030198Y-102085926D01*
X61100242Y-102028442D01*
X61114645Y-102010892D01*
X61631469Y-101494069D01*
X61647236Y-101481129D01*
X62731746Y-100396620D01*
X63315000Y-100396620D01*
X63380671Y-100390152D01*
X63443819Y-100370996D01*
X63500000Y-100340967D01*
X63556181Y-100370996D01*
X63619329Y-100390152D01*
X63685000Y-100396620D01*
X64585000Y-100396620D01*
X64650671Y-100390152D01*
X64713819Y-100370996D01*
X64770000Y-100340967D01*
X64826181Y-100370996D01*
X64889329Y-100390152D01*
X64955000Y-100396620D01*
X65855000Y-100396620D01*
X65920671Y-100390152D01*
X65983819Y-100370996D01*
X66040000Y-100340967D01*
X66096181Y-100370996D01*
X66159329Y-100390152D01*
X66225000Y-100396620D01*
X67125000Y-100396620D01*
X67190671Y-100390152D01*
X67253819Y-100370996D01*
X67310000Y-100340967D01*
X67366181Y-100370996D01*
X67366181Y-100370996D01*
G37*
X67366181Y-100370996D02*
X67429329Y-100390152D01*
X67484040Y-100395541D01*
X67443135Y-100407949D01*
X67363223Y-100450663D01*
X67363221Y-100450664D01*
X67363222Y-100450664D01*
X67318206Y-100487608D01*
X67293179Y-100508147D01*
X67278780Y-100525692D01*
X66951014Y-100853459D01*
X66951009Y-100853463D01*
X62342692Y-105461781D01*
X62325148Y-105476179D01*
X62267664Y-105546223D01*
X62263962Y-105553149D01*
X62224949Y-105626136D01*
X62198646Y-105712846D01*
X62189765Y-105803021D01*
X62191990Y-105825613D01*
X62191989Y-111978778D01*
X60784918Y-110571707D01*
X60770515Y-110554157D01*
X60700471Y-110496673D01*
X60620559Y-110453959D01*
X60533849Y-110427656D01*
X60466263Y-110420999D01*
X60466255Y-110420999D01*
X60443673Y-110418775D01*
X60421091Y-110420999D01*
X56778725Y-110420999D01*
X56058375Y-109700650D01*
X56003642Y-109633958D01*
X55986099Y-109619561D01*
X54694701Y-108328164D01*
X54705000Y-108276391D01*
X54705000Y-108131609D01*
X54676754Y-107989609D01*
X54621348Y-107855847D01*
X54540912Y-107735465D01*
X54438535Y-107633088D01*
X54318153Y-107552652D01*
X54184391Y-107497246D01*
X54042391Y-107469000D01*
X53897609Y-107469000D01*
X53755609Y-107497246D01*
X53621847Y-107552652D01*
X53501465Y-107633088D01*
X53479999Y-107654554D01*
X53479999Y-106070528D01*
X55640315Y-103910214D01*
X55657853Y-103895821D01*
X55672247Y-103878282D01*
X55672254Y-103878275D01*
X55715337Y-103825777D01*
X55758051Y-103745865D01*
X55784354Y-103659155D01*
X55787744Y-103624736D01*
X55791011Y-103591569D01*
X55791011Y-103591561D01*
X55793235Y-103568979D01*
X55791011Y-103546397D01*
X55791011Y-100418593D01*
X55793235Y-100396011D01*
X55791730Y-100380730D01*
X55823819Y-100370996D01*
X55880000Y-100340967D01*
X55936181Y-100370996D01*
X55999329Y-100390152D01*
X56065000Y-100396620D01*
X56118098Y-100396620D01*
X56099998Y-100487611D01*
X56099998Y-100632393D01*
X56128244Y-100774393D01*
X56183650Y-100908155D01*
X56264086Y-101028537D01*
X56366463Y-101130914D01*
X56486845Y-101211350D01*
X56620607Y-101266756D01*
X56762607Y-101295002D01*
X56907389Y-101295002D01*
X57049389Y-101266756D01*
X57051674Y-101265809D01*
X57078246Y-101399393D01*
X57133652Y-101533155D01*
X57214088Y-101653537D01*
X57316465Y-101755914D01*
X57436847Y-101836350D01*
X57570609Y-101891756D01*
X57712609Y-101920002D01*
X57857391Y-101920002D01*
X57999391Y-101891756D01*
X58133153Y-101836350D01*
X58253535Y-101755914D01*
X58355912Y-101653537D01*
X58361615Y-101645002D01*
X59257406Y-101645002D01*
X59279988Y-101647226D01*
X59302570Y-101645002D01*
X59302578Y-101645002D01*
X59336000Y-101641710D01*
X59336000Y-101773991D01*
X59364246Y-101915991D01*
X59419652Y-102049753D01*
X59500088Y-102170135D01*
X59602465Y-102272512D01*
X59722847Y-102352948D01*
X59856609Y-102408354D01*
X59998609Y-102436600D01*
X60143391Y-102436600D01*
X60285391Y-102408354D01*
X60419153Y-102352948D01*
X60539535Y-102272512D01*
X60641912Y-102170135D01*
X60647615Y-102161600D01*
X60750818Y-102161600D01*
X60773400Y-102163824D01*
X60795982Y-102161600D01*
X60795990Y-102161600D01*
X60863576Y-102154943D01*
X60950286Y-102128640D01*
X61030198Y-102085926D01*
X61100242Y-102028442D01*
X61114645Y-102010892D01*
X61631469Y-101494069D01*
X61647236Y-101481129D01*
X62731746Y-100396620D01*
X63315000Y-100396620D01*
X63380671Y-100390152D01*
X63443819Y-100370996D01*
X63500000Y-100340967D01*
X63556181Y-100370996D01*
X63619329Y-100390152D01*
X63685000Y-100396620D01*
X64585000Y-100396620D01*
X64650671Y-100390152D01*
X64713819Y-100370996D01*
X64770000Y-100340967D01*
X64826181Y-100370996D01*
X64889329Y-100390152D01*
X64955000Y-100396620D01*
X65855000Y-100396620D01*
X65920671Y-100390152D01*
X65983819Y-100370996D01*
X66040000Y-100340967D01*
X66096181Y-100370996D01*
X66159329Y-100390152D01*
X66225000Y-100396620D01*
X67125000Y-100396620D01*
X67190671Y-100390152D01*
X67253819Y-100370996D01*
X67310000Y-100340967D01*
X67366181Y-100370996D01*
G36*
X72889543Y-98635380D02*
G01*
X71794000Y-98635380D01*
X71728329Y-98641848D01*
X71665181Y-98661004D01*
X71606984Y-98692111D01*
X71555974Y-98733974D01*
X71514111Y-98784984D01*
X71483004Y-98843181D01*
X71463848Y-98906329D01*
X71457380Y-98972000D01*
X71457380Y-99368307D01*
X71453824Y-99368657D01*
X71367114Y-99394960D01*
X71287202Y-99437674D01*
X71269092Y-99452537D01*
X71217158Y-99495158D01*
X71202759Y-99512703D01*
X70204000Y-100511463D01*
X70204000Y-100487608D01*
X70175754Y-100345608D01*
X70120348Y-100211846D01*
X70039912Y-100091464D01*
X69937535Y-99989087D01*
X69817153Y-99908651D01*
X69683391Y-99853245D01*
X69541391Y-99824999D01*
X69396609Y-99824999D01*
X69254609Y-99853245D01*
X69120847Y-99908651D01*
X69000465Y-99989087D01*
X68898088Y-100091464D01*
X68892385Y-100099999D01*
X68885182Y-100099999D01*
X68862600Y-100097775D01*
X68840018Y-100099999D01*
X68840010Y-100099999D01*
X68772424Y-100106656D01*
X68725627Y-100120852D01*
X68731620Y-100060000D01*
X68731620Y-98607600D01*
X72692093Y-98607600D01*
X72712400Y-98605600D01*
X72859763Y-98605600D01*
X72889543Y-98635380D01*
X72889543Y-98635380D01*
G37*
X72889543Y-98635380D02*
X71794000Y-98635380D01*
X71728329Y-98641848D01*
X71665181Y-98661004D01*
X71606984Y-98692111D01*
X71555974Y-98733974D01*
X71514111Y-98784984D01*
X71483004Y-98843181D01*
X71463848Y-98906329D01*
X71457380Y-98972000D01*
X71457380Y-99368307D01*
X71453824Y-99368657D01*
X71367114Y-99394960D01*
X71287202Y-99437674D01*
X71269092Y-99452537D01*
X71217158Y-99495158D01*
X71202759Y-99512703D01*
X70204000Y-100511463D01*
X70204000Y-100487608D01*
X70175754Y-100345608D01*
X70120348Y-100211846D01*
X70039912Y-100091464D01*
X69937535Y-99989087D01*
X69817153Y-99908651D01*
X69683391Y-99853245D01*
X69541391Y-99824999D01*
X69396609Y-99824999D01*
X69254609Y-99853245D01*
X69120847Y-99908651D01*
X69000465Y-99989087D01*
X68898088Y-100091464D01*
X68892385Y-100099999D01*
X68885182Y-100099999D01*
X68862600Y-100097775D01*
X68840018Y-100099999D01*
X68840010Y-100099999D01*
X68772424Y-100106656D01*
X68725627Y-100120852D01*
X68731620Y-100060000D01*
X68731620Y-98607600D01*
X72692093Y-98607600D01*
X72712400Y-98605600D01*
X72859763Y-98605600D01*
X72889543Y-98635380D01*
M02*
