G04 #@! TF.GenerationSoftware,KiCad,Pcbnew,5.1.4*
G04 #@! TF.CreationDate,2019-11-23T01:56:27+01:00*
G04 #@! TF.ProjectId,antivol,616e7469-766f-46c2-9e6b-696361645f70,rev?*
G04 #@! TF.SameCoordinates,Original*
G04 #@! TF.FileFunction,Legend,Top*
G04 #@! TF.FilePolarity,Positive*
%FSLAX46Y46*%
G04 Gerber Fmt 4.6, Leading zero omitted, Abs format (unit mm)*
G04 Created by KiCad (PCBNEW 5.1.4) date 2019-11-23 01:56:27*
%MOMM*%
%LPD*%
G04 APERTURE LIST*
%ADD10C,0.150000*%
%ADD11C,0.120000*%
G04 APERTURE END LIST*
D10*
X66310000Y-115260380D02*
X66310000Y-114260380D01*
X66976666Y-114260380D02*
X67167142Y-114260380D01*
X67262380Y-114308000D01*
X67357619Y-114403238D01*
X67405238Y-114593714D01*
X67405238Y-114927047D01*
X67357619Y-115117523D01*
X67262380Y-115212761D01*
X67167142Y-115260380D01*
X66976666Y-115260380D01*
X66881428Y-115212761D01*
X66786190Y-115117523D01*
X66738571Y-114927047D01*
X66738571Y-114593714D01*
X66786190Y-114403238D01*
X66881428Y-114308000D01*
X66976666Y-114260380D01*
X67786190Y-114355619D02*
X67833809Y-114308000D01*
X67929047Y-114260380D01*
X68167142Y-114260380D01*
X68262380Y-114308000D01*
X68310000Y-114355619D01*
X68357619Y-114450857D01*
X68357619Y-114546095D01*
X68310000Y-114688952D01*
X67738571Y-115260380D01*
X68357619Y-115260380D01*
X63770000Y-115260380D02*
X63770000Y-114260380D01*
X64436666Y-114260380D02*
X64627142Y-114260380D01*
X64722380Y-114308000D01*
X64817619Y-114403238D01*
X64865238Y-114593714D01*
X64865238Y-114927047D01*
X64817619Y-115117523D01*
X64722380Y-115212761D01*
X64627142Y-115260380D01*
X64436666Y-115260380D01*
X64341428Y-115212761D01*
X64246190Y-115117523D01*
X64198571Y-114927047D01*
X64198571Y-114593714D01*
X64246190Y-114403238D01*
X64341428Y-114308000D01*
X64436666Y-114260380D01*
X65484285Y-114260380D02*
X65579523Y-114260380D01*
X65674761Y-114308000D01*
X65722380Y-114355619D01*
X65770000Y-114450857D01*
X65817619Y-114641333D01*
X65817619Y-114879428D01*
X65770000Y-115069904D01*
X65722380Y-115165142D01*
X65674761Y-115212761D01*
X65579523Y-115260380D01*
X65484285Y-115260380D01*
X65389047Y-115212761D01*
X65341428Y-115165142D01*
X65293809Y-115069904D01*
X65246190Y-114879428D01*
X65246190Y-114641333D01*
X65293809Y-114450857D01*
X65341428Y-114355619D01*
X65389047Y-114308000D01*
X65484285Y-114260380D01*
X63253904Y-114308000D02*
X63158666Y-114260380D01*
X63015809Y-114260380D01*
X62872952Y-114308000D01*
X62777714Y-114403238D01*
X62730095Y-114498476D01*
X62682476Y-114688952D01*
X62682476Y-114831809D01*
X62730095Y-115022285D01*
X62777714Y-115117523D01*
X62872952Y-115212761D01*
X63015809Y-115260380D01*
X63111047Y-115260380D01*
X63253904Y-115212761D01*
X63301523Y-115165142D01*
X63301523Y-114831809D01*
X63111047Y-114831809D01*
X57935904Y-114736571D02*
X58269238Y-114736571D01*
X58412095Y-115260380D02*
X57935904Y-115260380D01*
X57935904Y-114260380D01*
X58412095Y-114260380D01*
X58840666Y-115260380D02*
X58840666Y-114260380D01*
X59412095Y-115260380D01*
X59412095Y-114260380D01*
X56475333Y-115260380D02*
X56142000Y-114784190D01*
X55903904Y-115260380D02*
X55903904Y-114260380D01*
X56284857Y-114260380D01*
X56380095Y-114308000D01*
X56427714Y-114355619D01*
X56475333Y-114450857D01*
X56475333Y-114593714D01*
X56427714Y-114688952D01*
X56380095Y-114736571D01*
X56284857Y-114784190D01*
X55903904Y-114784190D01*
X56808666Y-114260380D02*
X57475333Y-115260380D01*
X57475333Y-114260380D02*
X56808666Y-115260380D01*
X53848095Y-114260380D02*
X54419523Y-114260380D01*
X54133809Y-115260380D02*
X54133809Y-114260380D01*
X54657619Y-114260380D02*
X55324285Y-115260380D01*
X55324285Y-114260380D02*
X54657619Y-115260380D01*
X50736666Y-114260380D02*
X51070000Y-115260380D01*
X51403333Y-114260380D01*
X52308095Y-115165142D02*
X52260476Y-115212761D01*
X52117619Y-115260380D01*
X52022380Y-115260380D01*
X51879523Y-115212761D01*
X51784285Y-115117523D01*
X51736666Y-115022285D01*
X51689047Y-114831809D01*
X51689047Y-114688952D01*
X51736666Y-114498476D01*
X51784285Y-114403238D01*
X51879523Y-114308000D01*
X52022380Y-114260380D01*
X52117619Y-114260380D01*
X52260476Y-114308000D01*
X52308095Y-114355619D01*
X53308095Y-115165142D02*
X53260476Y-115212761D01*
X53117619Y-115260380D01*
X53022380Y-115260380D01*
X52879523Y-115212761D01*
X52784285Y-115117523D01*
X52736666Y-115022285D01*
X52689047Y-114831809D01*
X52689047Y-114688952D01*
X52736666Y-114498476D01*
X52784285Y-114403238D01*
X52879523Y-114308000D01*
X53022380Y-114260380D01*
X53117619Y-114260380D01*
X53260476Y-114308000D01*
X53308095Y-114355619D01*
D11*
X63246000Y-107950000D02*
X64008000Y-108458000D01*
X63246000Y-109474000D02*
X64008000Y-109982000D01*
X61976000Y-100838000D02*
X62484000Y-99822000D01*
X58928000Y-100838000D02*
X59182000Y-99314000D01*
X70806000Y-98492000D02*
X72136000Y-98492000D01*
X70806000Y-99822000D02*
X70806000Y-98492000D01*
X70806000Y-101092000D02*
X73466000Y-101092000D01*
X73466000Y-101092000D02*
X73466000Y-103692000D01*
X70806000Y-101092000D02*
X70806000Y-103692000D01*
X70806000Y-103692000D02*
X73466000Y-103692000D01*
X52326000Y-100213279D02*
X52326000Y-99887721D01*
X51306000Y-100213279D02*
X51306000Y-99887721D01*
X57656000Y-99633721D02*
X57656000Y-99959279D01*
X58676000Y-99633721D02*
X58676000Y-99959279D01*
X55894000Y-101656000D02*
X54434000Y-101656000D01*
X55894000Y-98496000D02*
X53734000Y-98496000D01*
X55894000Y-98496000D02*
X55894000Y-99426000D01*
X55894000Y-101656000D02*
X55894000Y-100726000D01*
X61732752Y-109542000D02*
X58960248Y-109542000D01*
X61732752Y-112962000D02*
X58960248Y-112962000D01*
X73466000Y-116900000D02*
X72136000Y-116900000D01*
X73466000Y-115570000D02*
X73466000Y-116900000D01*
X73466000Y-114300000D02*
X70806000Y-114300000D01*
X70806000Y-114300000D02*
X70806000Y-111700000D01*
X73466000Y-114300000D02*
X73466000Y-111700000D01*
X73466000Y-111700000D02*
X70806000Y-111700000D01*
X54620279Y-106170000D02*
X54294721Y-106170000D01*
X54620279Y-107190000D02*
X54294721Y-107190000D01*
X55120000Y-113345279D02*
X55120000Y-113019721D01*
X54100000Y-113345279D02*
X54100000Y-113019721D01*
X63180000Y-116205000D02*
G75*
G03X63180000Y-116205000I-950000J0D01*
G01*
X58100000Y-116205000D02*
G75*
G03X58100000Y-116205000I-950000J0D01*
G01*
X55560000Y-116205000D02*
G75*
G03X55560000Y-116205000I-950000J0D01*
G01*
X60640000Y-116205000D02*
G75*
G03X60640000Y-116205000I-950000J0D01*
G01*
X68260000Y-116078000D02*
G75*
G03X68260000Y-116078000I-950000J0D01*
G01*
X65720000Y-116205000D02*
G75*
G03X65720000Y-116205000I-950000J0D01*
G01*
X53020000Y-116205000D02*
G75*
G03X53020000Y-116205000I-950000J0D01*
G01*
X67836000Y-103642000D02*
X69296000Y-103642000D01*
X67836000Y-106802000D02*
X69996000Y-106802000D01*
X67836000Y-106802000D02*
X67836000Y-105872000D01*
X67836000Y-103642000D02*
X67836000Y-104572000D01*
X66516000Y-110978000D02*
X64066000Y-110978000D01*
X64716000Y-114198000D02*
X66516000Y-114198000D01*
X66834000Y-101432000D02*
X69284000Y-101432000D01*
X68634000Y-98212000D02*
X66834000Y-98212000D01*
X67447279Y-101852000D02*
X67121721Y-101852000D01*
X67447279Y-102872000D02*
X67121721Y-102872000D01*
X60843279Y-98550000D02*
X60517721Y-98550000D01*
X60843279Y-99570000D02*
X60517721Y-99570000D01*
X65089721Y-110492000D02*
X65415279Y-110492000D01*
X65089721Y-109472000D02*
X65415279Y-109472000D01*
X65089721Y-108968000D02*
X65415279Y-108968000D01*
X65089721Y-107948000D02*
X65415279Y-107948000D01*
X52195000Y-113019721D02*
X52195000Y-113345279D01*
X53215000Y-113019721D02*
X53215000Y-113345279D01*
X57025000Y-113345279D02*
X57025000Y-113019721D01*
X56005000Y-113345279D02*
X56005000Y-113019721D01*
X70486000Y-111064000D02*
X70486000Y-105664000D01*
X73786000Y-111064000D02*
X73786000Y-105664000D01*
X70486000Y-111064000D02*
X73786000Y-111064000D01*
X59195500Y-101319000D02*
X61480500Y-101319000D01*
X59195500Y-99849000D02*
X59195500Y-101319000D01*
X61480500Y-99849000D02*
X59195500Y-99849000D01*
X65658000Y-100772000D02*
X65658000Y-106172000D01*
X62358000Y-100772000D02*
X62358000Y-106172000D01*
X65658000Y-100772000D02*
X62358000Y-100772000D01*
X60779922Y-115010000D02*
X61297078Y-115010000D01*
X60779922Y-113590000D02*
X61297078Y-113590000D01*
X68632000Y-112341922D02*
X68632000Y-112859078D01*
X70052000Y-112341922D02*
X70052000Y-112859078D01*
X54620279Y-104265000D02*
X54294721Y-104265000D01*
X54620279Y-105285000D02*
X54294721Y-105285000D01*
X64345078Y-98858000D02*
X63827922Y-98858000D01*
X64345078Y-100278000D02*
X63827922Y-100278000D01*
X53510000Y-108120000D02*
X53510000Y-108120000D01*
X54010000Y-108120000D02*
X53510000Y-108120000D01*
X53510000Y-109820000D02*
X53510000Y-109820000D01*
X53510000Y-110320000D02*
X53510000Y-109820000D01*
X54010000Y-110320000D02*
X53510000Y-110320000D01*
X55210000Y-110320000D02*
X55210000Y-110320000D01*
X55710000Y-110320000D02*
X55210000Y-110320000D01*
X55710000Y-109820000D02*
X55710000Y-110320000D01*
X55710000Y-108620000D02*
X55710000Y-108620000D01*
X55710000Y-108120000D02*
X55710000Y-108620000D01*
X55210000Y-108120000D02*
X55710000Y-108120000D01*
X67836000Y-107386000D02*
X69296000Y-107386000D01*
X67836000Y-110546000D02*
X69996000Y-110546000D01*
X67836000Y-110546000D02*
X67836000Y-109616000D01*
X67836000Y-107386000D02*
X67836000Y-108316000D01*
X74870000Y-98492000D02*
X76200000Y-98492000D01*
X74870000Y-99822000D02*
X74870000Y-98492000D01*
X74870000Y-101092000D02*
X77530000Y-101092000D01*
X77530000Y-101092000D02*
X77530000Y-113852000D01*
X74870000Y-101092000D02*
X74870000Y-113852000D01*
X74870000Y-113852000D02*
X77530000Y-113852000D01*
D10*
X73366380Y-100409333D02*
X74080666Y-100409333D01*
X74223523Y-100456952D01*
X74318761Y-100552190D01*
X74366380Y-100695047D01*
X74366380Y-100790285D01*
X74366380Y-99409333D02*
X74366380Y-99980761D01*
X74366380Y-99695047D02*
X73366380Y-99695047D01*
X73509238Y-99790285D01*
X73604476Y-99885523D01*
X73652095Y-99980761D01*
X51649333Y-102560380D02*
X51316000Y-102084190D01*
X51077904Y-102560380D02*
X51077904Y-101560380D01*
X51458857Y-101560380D01*
X51554095Y-101608000D01*
X51601714Y-101655619D01*
X51649333Y-101750857D01*
X51649333Y-101893714D01*
X51601714Y-101988952D01*
X51554095Y-102036571D01*
X51458857Y-102084190D01*
X51077904Y-102084190D01*
X52125523Y-102560380D02*
X52316000Y-102560380D01*
X52411238Y-102512761D01*
X52458857Y-102465142D01*
X52554095Y-102322285D01*
X52601714Y-102131809D01*
X52601714Y-101750857D01*
X52554095Y-101655619D01*
X52506476Y-101608000D01*
X52411238Y-101560380D01*
X52220761Y-101560380D01*
X52125523Y-101608000D01*
X52077904Y-101655619D01*
X52030285Y-101750857D01*
X52030285Y-101988952D01*
X52077904Y-102084190D01*
X52125523Y-102131809D01*
X52220761Y-102179428D01*
X52411238Y-102179428D01*
X52506476Y-102131809D01*
X52554095Y-102084190D01*
X52601714Y-101988952D01*
X58110380Y-102020666D02*
X57634190Y-102354000D01*
X58110380Y-102592095D02*
X57110380Y-102592095D01*
X57110380Y-102211142D01*
X57158000Y-102115904D01*
X57205619Y-102068285D01*
X57300857Y-102020666D01*
X57443714Y-102020666D01*
X57538952Y-102068285D01*
X57586571Y-102115904D01*
X57634190Y-102211142D01*
X57634190Y-102592095D01*
X57538952Y-101449238D02*
X57491333Y-101544476D01*
X57443714Y-101592095D01*
X57348476Y-101639714D01*
X57300857Y-101639714D01*
X57205619Y-101592095D01*
X57158000Y-101544476D01*
X57110380Y-101449238D01*
X57110380Y-101258761D01*
X57158000Y-101163523D01*
X57205619Y-101115904D01*
X57300857Y-101068285D01*
X57348476Y-101068285D01*
X57443714Y-101115904D01*
X57491333Y-101163523D01*
X57538952Y-101258761D01*
X57538952Y-101449238D01*
X57586571Y-101544476D01*
X57634190Y-101592095D01*
X57729428Y-101639714D01*
X57919904Y-101639714D01*
X58015142Y-101592095D01*
X58062761Y-101544476D01*
X58110380Y-101449238D01*
X58110380Y-101258761D01*
X58062761Y-101163523D01*
X58015142Y-101115904D01*
X57919904Y-101068285D01*
X57729428Y-101068285D01*
X57634190Y-101115904D01*
X57586571Y-101163523D01*
X57538952Y-101258761D01*
X55022761Y-102909619D02*
X54927523Y-102862000D01*
X54832285Y-102766761D01*
X54689428Y-102623904D01*
X54594190Y-102576285D01*
X54498952Y-102576285D01*
X54546571Y-102814380D02*
X54451333Y-102766761D01*
X54356095Y-102671523D01*
X54308476Y-102481047D01*
X54308476Y-102147714D01*
X54356095Y-101957238D01*
X54451333Y-101862000D01*
X54546571Y-101814380D01*
X54737047Y-101814380D01*
X54832285Y-101862000D01*
X54927523Y-101957238D01*
X54975142Y-102147714D01*
X54975142Y-102481047D01*
X54927523Y-102671523D01*
X54832285Y-102766761D01*
X54737047Y-102814380D01*
X54546571Y-102814380D01*
X55308476Y-101814380D02*
X55927523Y-101814380D01*
X55594190Y-102195333D01*
X55737047Y-102195333D01*
X55832285Y-102242952D01*
X55879904Y-102290571D01*
X55927523Y-102385809D01*
X55927523Y-102623904D01*
X55879904Y-102719142D01*
X55832285Y-102766761D01*
X55737047Y-102814380D01*
X55451333Y-102814380D01*
X55356095Y-102766761D01*
X55308476Y-102719142D01*
X57999333Y-109164380D02*
X57523142Y-109164380D01*
X57523142Y-108164380D01*
X58856476Y-109164380D02*
X58285047Y-109164380D01*
X58570761Y-109164380D02*
X58570761Y-108164380D01*
X58475523Y-108307238D01*
X58380285Y-108402476D01*
X58285047Y-108450095D01*
X73620380Y-116157333D02*
X74334666Y-116157333D01*
X74477523Y-116204952D01*
X74572761Y-116300190D01*
X74620380Y-116443047D01*
X74620380Y-116538285D01*
X73620380Y-115776380D02*
X73620380Y-115157333D01*
X74001333Y-115490666D01*
X74001333Y-115347809D01*
X74048952Y-115252571D01*
X74096571Y-115204952D01*
X74191809Y-115157333D01*
X74429904Y-115157333D01*
X74525142Y-115204952D01*
X74572761Y-115252571D01*
X74620380Y-115347809D01*
X74620380Y-115633523D01*
X74572761Y-115728761D01*
X74525142Y-115776380D01*
X52681142Y-106846666D02*
X52728761Y-106894285D01*
X52776380Y-107037142D01*
X52776380Y-107132380D01*
X52728761Y-107275238D01*
X52633523Y-107370476D01*
X52538285Y-107418095D01*
X52347809Y-107465714D01*
X52204952Y-107465714D01*
X52014476Y-107418095D01*
X51919238Y-107370476D01*
X51824000Y-107275238D01*
X51776380Y-107132380D01*
X51776380Y-107037142D01*
X51824000Y-106894285D01*
X51871619Y-106846666D01*
X51776380Y-106513333D02*
X51776380Y-105894285D01*
X52157333Y-106227619D01*
X52157333Y-106084761D01*
X52204952Y-105989523D01*
X52252571Y-105941904D01*
X52347809Y-105894285D01*
X52585904Y-105894285D01*
X52681142Y-105941904D01*
X52728761Y-105989523D01*
X52776380Y-106084761D01*
X52776380Y-106370476D01*
X52728761Y-106465714D01*
X52681142Y-106513333D01*
X52411333Y-111704380D02*
X52078000Y-111228190D01*
X51839904Y-111704380D02*
X51839904Y-110704380D01*
X52220857Y-110704380D01*
X52316095Y-110752000D01*
X52363714Y-110799619D01*
X52411333Y-110894857D01*
X52411333Y-111037714D01*
X52363714Y-111132952D01*
X52316095Y-111180571D01*
X52220857Y-111228190D01*
X51839904Y-111228190D01*
X52744666Y-110704380D02*
X53363714Y-110704380D01*
X53030380Y-111085333D01*
X53173238Y-111085333D01*
X53268476Y-111132952D01*
X53316095Y-111180571D01*
X53363714Y-111275809D01*
X53363714Y-111513904D01*
X53316095Y-111609142D01*
X53268476Y-111656761D01*
X53173238Y-111704380D01*
X52887523Y-111704380D01*
X52792285Y-111656761D01*
X52744666Y-111609142D01*
X60968095Y-119086380D02*
X61539523Y-119086380D01*
X61253809Y-120086380D02*
X61253809Y-119086380D01*
X61872857Y-120086380D02*
X61872857Y-119086380D01*
X62253809Y-119086380D01*
X62349047Y-119134000D01*
X62396666Y-119181619D01*
X62444285Y-119276857D01*
X62444285Y-119419714D01*
X62396666Y-119514952D01*
X62349047Y-119562571D01*
X62253809Y-119610190D01*
X61872857Y-119610190D01*
X62777619Y-119086380D02*
X63444285Y-119086380D01*
X63015714Y-120086380D01*
X55888095Y-119086380D02*
X56459523Y-119086380D01*
X56173809Y-120086380D02*
X56173809Y-119086380D01*
X56792857Y-120086380D02*
X56792857Y-119086380D01*
X57173809Y-119086380D01*
X57269047Y-119134000D01*
X57316666Y-119181619D01*
X57364285Y-119276857D01*
X57364285Y-119419714D01*
X57316666Y-119514952D01*
X57269047Y-119562571D01*
X57173809Y-119610190D01*
X56792857Y-119610190D01*
X58221428Y-119086380D02*
X58030952Y-119086380D01*
X57935714Y-119134000D01*
X57888095Y-119181619D01*
X57792857Y-119324476D01*
X57745238Y-119514952D01*
X57745238Y-119895904D01*
X57792857Y-119991142D01*
X57840476Y-120038761D01*
X57935714Y-120086380D01*
X58126190Y-120086380D01*
X58221428Y-120038761D01*
X58269047Y-119991142D01*
X58316666Y-119895904D01*
X58316666Y-119657809D01*
X58269047Y-119562571D01*
X58221428Y-119514952D01*
X58126190Y-119467333D01*
X57935714Y-119467333D01*
X57840476Y-119514952D01*
X57792857Y-119562571D01*
X57745238Y-119657809D01*
X53348095Y-119086380D02*
X53919523Y-119086380D01*
X53633809Y-120086380D02*
X53633809Y-119086380D01*
X54252857Y-120086380D02*
X54252857Y-119086380D01*
X54633809Y-119086380D01*
X54729047Y-119134000D01*
X54776666Y-119181619D01*
X54824285Y-119276857D01*
X54824285Y-119419714D01*
X54776666Y-119514952D01*
X54729047Y-119562571D01*
X54633809Y-119610190D01*
X54252857Y-119610190D01*
X55729047Y-119086380D02*
X55252857Y-119086380D01*
X55205238Y-119562571D01*
X55252857Y-119514952D01*
X55348095Y-119467333D01*
X55586190Y-119467333D01*
X55681428Y-119514952D01*
X55729047Y-119562571D01*
X55776666Y-119657809D01*
X55776666Y-119895904D01*
X55729047Y-119991142D01*
X55681428Y-120038761D01*
X55586190Y-120086380D01*
X55348095Y-120086380D01*
X55252857Y-120038761D01*
X55205238Y-119991142D01*
X58428095Y-119340380D02*
X58999523Y-119340380D01*
X58713809Y-120340380D02*
X58713809Y-119340380D01*
X59332857Y-120340380D02*
X59332857Y-119340380D01*
X59713809Y-119340380D01*
X59809047Y-119388000D01*
X59856666Y-119435619D01*
X59904285Y-119530857D01*
X59904285Y-119673714D01*
X59856666Y-119768952D01*
X59809047Y-119816571D01*
X59713809Y-119864190D01*
X59332857Y-119864190D01*
X60761428Y-119673714D02*
X60761428Y-120340380D01*
X60523333Y-119292761D02*
X60285238Y-120007047D01*
X60904285Y-120007047D01*
X66048095Y-119594380D02*
X66619523Y-119594380D01*
X66333809Y-120594380D02*
X66333809Y-119594380D01*
X66952857Y-120594380D02*
X66952857Y-119594380D01*
X67333809Y-119594380D01*
X67429047Y-119642000D01*
X67476666Y-119689619D01*
X67524285Y-119784857D01*
X67524285Y-119927714D01*
X67476666Y-120022952D01*
X67429047Y-120070571D01*
X67333809Y-120118190D01*
X66952857Y-120118190D01*
X67857619Y-119594380D02*
X68476666Y-119594380D01*
X68143333Y-119975333D01*
X68286190Y-119975333D01*
X68381428Y-120022952D01*
X68429047Y-120070571D01*
X68476666Y-120165809D01*
X68476666Y-120403904D01*
X68429047Y-120499142D01*
X68381428Y-120546761D01*
X68286190Y-120594380D01*
X68000476Y-120594380D01*
X67905238Y-120546761D01*
X67857619Y-120499142D01*
X63508095Y-119340380D02*
X64079523Y-119340380D01*
X63793809Y-120340380D02*
X63793809Y-119340380D01*
X64412857Y-120340380D02*
X64412857Y-119340380D01*
X64793809Y-119340380D01*
X64889047Y-119388000D01*
X64936666Y-119435619D01*
X64984285Y-119530857D01*
X64984285Y-119673714D01*
X64936666Y-119768952D01*
X64889047Y-119816571D01*
X64793809Y-119864190D01*
X64412857Y-119864190D01*
X65365238Y-119435619D02*
X65412857Y-119388000D01*
X65508095Y-119340380D01*
X65746190Y-119340380D01*
X65841428Y-119388000D01*
X65889047Y-119435619D01*
X65936666Y-119530857D01*
X65936666Y-119626095D01*
X65889047Y-119768952D01*
X65317619Y-120340380D01*
X65936666Y-120340380D01*
X51062095Y-118832380D02*
X51633523Y-118832380D01*
X51347809Y-119832380D02*
X51347809Y-118832380D01*
X51966857Y-119832380D02*
X51966857Y-118832380D01*
X52347809Y-118832380D01*
X52443047Y-118880000D01*
X52490666Y-118927619D01*
X52538285Y-119022857D01*
X52538285Y-119165714D01*
X52490666Y-119260952D01*
X52443047Y-119308571D01*
X52347809Y-119356190D01*
X51966857Y-119356190D01*
X53490666Y-119832380D02*
X52919238Y-119832380D01*
X53204952Y-119832380D02*
X53204952Y-118832380D01*
X53109714Y-118975238D01*
X53014476Y-119070476D01*
X52919238Y-119118095D01*
X67603619Y-103981238D02*
X67556000Y-104076476D01*
X67460761Y-104171714D01*
X67317904Y-104314571D01*
X67270285Y-104409809D01*
X67270285Y-104505047D01*
X67508380Y-104457428D02*
X67460761Y-104552666D01*
X67365523Y-104647904D01*
X67175047Y-104695523D01*
X66841714Y-104695523D01*
X66651238Y-104647904D01*
X66556000Y-104552666D01*
X66508380Y-104457428D01*
X66508380Y-104266952D01*
X66556000Y-104171714D01*
X66651238Y-104076476D01*
X66841714Y-104028857D01*
X67175047Y-104028857D01*
X67365523Y-104076476D01*
X67460761Y-104171714D01*
X67508380Y-104266952D01*
X67508380Y-104457428D01*
X66603619Y-103647904D02*
X66556000Y-103600285D01*
X66508380Y-103505047D01*
X66508380Y-103266952D01*
X66556000Y-103171714D01*
X66603619Y-103124095D01*
X66698857Y-103076476D01*
X66794095Y-103076476D01*
X66936952Y-103124095D01*
X67508380Y-103695523D01*
X67508380Y-103076476D01*
X67524380Y-112013904D02*
X68333904Y-112013904D01*
X68429142Y-111966285D01*
X68476761Y-111918666D01*
X68524380Y-111823428D01*
X68524380Y-111632952D01*
X68476761Y-111537714D01*
X68429142Y-111490095D01*
X68333904Y-111442476D01*
X67524380Y-111442476D01*
X67524380Y-111061523D02*
X67524380Y-110442476D01*
X67905333Y-110775809D01*
X67905333Y-110632952D01*
X67952952Y-110537714D01*
X68000571Y-110490095D01*
X68095809Y-110442476D01*
X68333904Y-110442476D01*
X68429142Y-110490095D01*
X68476761Y-110537714D01*
X68524380Y-110632952D01*
X68524380Y-110918666D01*
X68476761Y-111013904D01*
X68429142Y-111061523D01*
X69810380Y-100583904D02*
X70619904Y-100583904D01*
X70715142Y-100536285D01*
X70762761Y-100488666D01*
X70810380Y-100393428D01*
X70810380Y-100202952D01*
X70762761Y-100107714D01*
X70715142Y-100060095D01*
X70619904Y-100012476D01*
X69810380Y-100012476D01*
X69905619Y-99583904D02*
X69858000Y-99536285D01*
X69810380Y-99441047D01*
X69810380Y-99202952D01*
X69858000Y-99107714D01*
X69905619Y-99060095D01*
X70000857Y-99012476D01*
X70096095Y-99012476D01*
X70238952Y-99060095D01*
X70810380Y-99631523D01*
X70810380Y-99012476D01*
X69429333Y-102814380D02*
X69096000Y-102338190D01*
X68857904Y-102814380D02*
X68857904Y-101814380D01*
X69238857Y-101814380D01*
X69334095Y-101862000D01*
X69381714Y-101909619D01*
X69429333Y-102004857D01*
X69429333Y-102147714D01*
X69381714Y-102242952D01*
X69334095Y-102290571D01*
X69238857Y-102338190D01*
X68857904Y-102338190D01*
X69762666Y-101814380D02*
X70429333Y-101814380D01*
X70000761Y-102814380D01*
X60650380Y-102020666D02*
X60174190Y-102354000D01*
X60650380Y-102592095D02*
X59650380Y-102592095D01*
X59650380Y-102211142D01*
X59698000Y-102115904D01*
X59745619Y-102068285D01*
X59840857Y-102020666D01*
X59983714Y-102020666D01*
X60078952Y-102068285D01*
X60126571Y-102115904D01*
X60174190Y-102211142D01*
X60174190Y-102592095D01*
X59650380Y-101163523D02*
X59650380Y-101354000D01*
X59698000Y-101449238D01*
X59745619Y-101496857D01*
X59888476Y-101592095D01*
X60078952Y-101639714D01*
X60459904Y-101639714D01*
X60555142Y-101592095D01*
X60602761Y-101544476D01*
X60650380Y-101449238D01*
X60650380Y-101258761D01*
X60602761Y-101163523D01*
X60555142Y-101115904D01*
X60459904Y-101068285D01*
X60221809Y-101068285D01*
X60126571Y-101115904D01*
X60078952Y-101163523D01*
X60031333Y-101258761D01*
X60031333Y-101449238D01*
X60078952Y-101544476D01*
X60126571Y-101592095D01*
X60221809Y-101639714D01*
X62063333Y-109418380D02*
X61730000Y-108942190D01*
X61491904Y-109418380D02*
X61491904Y-108418380D01*
X61872857Y-108418380D01*
X61968095Y-108466000D01*
X62015714Y-108513619D01*
X62063333Y-108608857D01*
X62063333Y-108751714D01*
X62015714Y-108846952D01*
X61968095Y-108894571D01*
X61872857Y-108942190D01*
X61491904Y-108942190D01*
X62968095Y-108418380D02*
X62491904Y-108418380D01*
X62444285Y-108894571D01*
X62491904Y-108846952D01*
X62587142Y-108799333D01*
X62825238Y-108799333D01*
X62920476Y-108846952D01*
X62968095Y-108894571D01*
X63015714Y-108989809D01*
X63015714Y-109227904D01*
X62968095Y-109323142D01*
X62920476Y-109370761D01*
X62825238Y-109418380D01*
X62587142Y-109418380D01*
X62491904Y-109370761D01*
X62444285Y-109323142D01*
X62063333Y-108402380D02*
X61730000Y-107926190D01*
X61491904Y-108402380D02*
X61491904Y-107402380D01*
X61872857Y-107402380D01*
X61968095Y-107450000D01*
X62015714Y-107497619D01*
X62063333Y-107592857D01*
X62063333Y-107735714D01*
X62015714Y-107830952D01*
X61968095Y-107878571D01*
X61872857Y-107926190D01*
X61491904Y-107926190D01*
X62920476Y-107735714D02*
X62920476Y-108402380D01*
X62682380Y-107354761D02*
X62444285Y-108069047D01*
X63063333Y-108069047D01*
X54443333Y-111704380D02*
X54110000Y-111228190D01*
X53871904Y-111704380D02*
X53871904Y-110704380D01*
X54252857Y-110704380D01*
X54348095Y-110752000D01*
X54395714Y-110799619D01*
X54443333Y-110894857D01*
X54443333Y-111037714D01*
X54395714Y-111132952D01*
X54348095Y-111180571D01*
X54252857Y-111228190D01*
X53871904Y-111228190D01*
X54824285Y-110799619D02*
X54871904Y-110752000D01*
X54967142Y-110704380D01*
X55205238Y-110704380D01*
X55300476Y-110752000D01*
X55348095Y-110799619D01*
X55395714Y-110894857D01*
X55395714Y-110990095D01*
X55348095Y-111132952D01*
X54776666Y-111704380D01*
X55395714Y-111704380D01*
X56475333Y-111704380D02*
X56142000Y-111228190D01*
X55903904Y-111704380D02*
X55903904Y-110704380D01*
X56284857Y-110704380D01*
X56380095Y-110752000D01*
X56427714Y-110799619D01*
X56475333Y-110894857D01*
X56475333Y-111037714D01*
X56427714Y-111132952D01*
X56380095Y-111180571D01*
X56284857Y-111228190D01*
X55903904Y-111228190D01*
X57427714Y-111704380D02*
X56856285Y-111704380D01*
X57142000Y-111704380D02*
X57142000Y-110704380D01*
X57046761Y-110847238D01*
X56951523Y-110942476D01*
X56856285Y-110990095D01*
X74366380Y-107672095D02*
X73366380Y-107672095D01*
X73366380Y-107434000D01*
X73414000Y-107291142D01*
X73509238Y-107195904D01*
X73604476Y-107148285D01*
X73794952Y-107100666D01*
X73937809Y-107100666D01*
X74128285Y-107148285D01*
X74223523Y-107195904D01*
X74318761Y-107291142D01*
X74366380Y-107434000D01*
X74366380Y-107672095D01*
X73366380Y-106767333D02*
X73366380Y-106148285D01*
X73747333Y-106481619D01*
X73747333Y-106338761D01*
X73794952Y-106243523D01*
X73842571Y-106195904D01*
X73937809Y-106148285D01*
X74175904Y-106148285D01*
X74271142Y-106195904D01*
X74318761Y-106243523D01*
X74366380Y-106338761D01*
X74366380Y-106624476D01*
X74318761Y-106719714D01*
X74271142Y-106767333D01*
X59380380Y-102592095D02*
X58380380Y-102592095D01*
X58380380Y-102354000D01*
X58428000Y-102211142D01*
X58523238Y-102115904D01*
X58618476Y-102068285D01*
X58808952Y-102020666D01*
X58951809Y-102020666D01*
X59142285Y-102068285D01*
X59237523Y-102115904D01*
X59332761Y-102211142D01*
X59380380Y-102354000D01*
X59380380Y-102592095D01*
X58475619Y-101639714D02*
X58428000Y-101592095D01*
X58380380Y-101496857D01*
X58380380Y-101258761D01*
X58428000Y-101163523D01*
X58475619Y-101115904D01*
X58570857Y-101068285D01*
X58666095Y-101068285D01*
X58808952Y-101115904D01*
X59380380Y-101687333D01*
X59380380Y-101068285D01*
X61920380Y-105132095D02*
X60920380Y-105132095D01*
X60920380Y-104894000D01*
X60968000Y-104751142D01*
X61063238Y-104655904D01*
X61158476Y-104608285D01*
X61348952Y-104560666D01*
X61491809Y-104560666D01*
X61682285Y-104608285D01*
X61777523Y-104655904D01*
X61872761Y-104751142D01*
X61920380Y-104894000D01*
X61920380Y-105132095D01*
X61920380Y-103608285D02*
X61920380Y-104179714D01*
X61920380Y-103894000D02*
X60920380Y-103894000D01*
X61063238Y-103989238D01*
X61158476Y-104084476D01*
X61206095Y-104179714D01*
X58507333Y-113895142D02*
X58459714Y-113942761D01*
X58316857Y-113990380D01*
X58221619Y-113990380D01*
X58078761Y-113942761D01*
X57983523Y-113847523D01*
X57935904Y-113752285D01*
X57888285Y-113561809D01*
X57888285Y-113418952D01*
X57935904Y-113228476D01*
X57983523Y-113133238D01*
X58078761Y-113038000D01*
X58221619Y-112990380D01*
X58316857Y-112990380D01*
X58459714Y-113038000D01*
X58507333Y-113085619D01*
X58840666Y-112990380D02*
X59507333Y-112990380D01*
X59078761Y-113990380D01*
X68429142Y-113196666D02*
X68476761Y-113244285D01*
X68524380Y-113387142D01*
X68524380Y-113482380D01*
X68476761Y-113625238D01*
X68381523Y-113720476D01*
X68286285Y-113768095D01*
X68095809Y-113815714D01*
X67952952Y-113815714D01*
X67762476Y-113768095D01*
X67667238Y-113720476D01*
X67572000Y-113625238D01*
X67524380Y-113482380D01*
X67524380Y-113387142D01*
X67572000Y-113244285D01*
X67619619Y-113196666D01*
X67524380Y-112339523D02*
X67524380Y-112530000D01*
X67572000Y-112625238D01*
X67619619Y-112672857D01*
X67762476Y-112768095D01*
X67952952Y-112815714D01*
X68333904Y-112815714D01*
X68429142Y-112768095D01*
X68476761Y-112720476D01*
X68524380Y-112625238D01*
X68524380Y-112434761D01*
X68476761Y-112339523D01*
X68429142Y-112291904D01*
X68333904Y-112244285D01*
X68095809Y-112244285D01*
X68000571Y-112291904D01*
X67952952Y-112339523D01*
X67905333Y-112434761D01*
X67905333Y-112625238D01*
X67952952Y-112720476D01*
X68000571Y-112768095D01*
X68095809Y-112815714D01*
X52681142Y-105068666D02*
X52728761Y-105116285D01*
X52776380Y-105259142D01*
X52776380Y-105354380D01*
X52728761Y-105497238D01*
X52633523Y-105592476D01*
X52538285Y-105640095D01*
X52347809Y-105687714D01*
X52204952Y-105687714D01*
X52014476Y-105640095D01*
X51919238Y-105592476D01*
X51824000Y-105497238D01*
X51776380Y-105354380D01*
X51776380Y-105259142D01*
X51824000Y-105116285D01*
X51871619Y-105068666D01*
X51871619Y-104687714D02*
X51824000Y-104640095D01*
X51776380Y-104544857D01*
X51776380Y-104306761D01*
X51824000Y-104211523D01*
X51871619Y-104163904D01*
X51966857Y-104116285D01*
X52062095Y-104116285D01*
X52204952Y-104163904D01*
X52776380Y-104735333D01*
X52776380Y-104116285D01*
X61825142Y-102020666D02*
X61872761Y-102068285D01*
X61920380Y-102211142D01*
X61920380Y-102306380D01*
X61872761Y-102449238D01*
X61777523Y-102544476D01*
X61682285Y-102592095D01*
X61491809Y-102639714D01*
X61348952Y-102639714D01*
X61158476Y-102592095D01*
X61063238Y-102544476D01*
X60968000Y-102449238D01*
X60920380Y-102306380D01*
X60920380Y-102211142D01*
X60968000Y-102068285D01*
X61015619Y-102020666D01*
X61920380Y-101068285D02*
X61920380Y-101639714D01*
X61920380Y-101354000D02*
X60920380Y-101354000D01*
X61063238Y-101449238D01*
X61158476Y-101544476D01*
X61206095Y-101639714D01*
X52284380Y-109981904D02*
X53093904Y-109981904D01*
X53189142Y-109934285D01*
X53236761Y-109886666D01*
X53284380Y-109791428D01*
X53284380Y-109600952D01*
X53236761Y-109505714D01*
X53189142Y-109458095D01*
X53093904Y-109410476D01*
X52284380Y-109410476D01*
X52617714Y-108505714D02*
X53284380Y-108505714D01*
X52236761Y-108743809D02*
X52951047Y-108981904D01*
X52951047Y-108362857D01*
X67603619Y-107537238D02*
X67556000Y-107632476D01*
X67460761Y-107727714D01*
X67317904Y-107870571D01*
X67270285Y-107965809D01*
X67270285Y-108061047D01*
X67508380Y-108013428D02*
X67460761Y-108108666D01*
X67365523Y-108203904D01*
X67175047Y-108251523D01*
X66841714Y-108251523D01*
X66651238Y-108203904D01*
X66556000Y-108108666D01*
X66508380Y-108013428D01*
X66508380Y-107822952D01*
X66556000Y-107727714D01*
X66651238Y-107632476D01*
X66841714Y-107584857D01*
X67175047Y-107584857D01*
X67365523Y-107632476D01*
X67460761Y-107727714D01*
X67508380Y-107822952D01*
X67508380Y-108013428D01*
X67508380Y-106632476D02*
X67508380Y-107203904D01*
X67508380Y-106918190D02*
X66508380Y-106918190D01*
X66651238Y-107013428D01*
X66746476Y-107108666D01*
X66794095Y-107203904D01*
X75866666Y-114514380D02*
X75866666Y-115228666D01*
X75819047Y-115371523D01*
X75723809Y-115466761D01*
X75580952Y-115514380D01*
X75485714Y-115514380D01*
X76295238Y-114609619D02*
X76342857Y-114562000D01*
X76438095Y-114514380D01*
X76676190Y-114514380D01*
X76771428Y-114562000D01*
X76819047Y-114609619D01*
X76866666Y-114704857D01*
X76866666Y-114800095D01*
X76819047Y-114942952D01*
X76247619Y-115514380D01*
X76866666Y-115514380D01*
M02*
