G04 #@! TF.GenerationSoftware,KiCad,Pcbnew,5.1.4*
G04 #@! TF.CreationDate,2019-11-23T22:13:22+01:00*
G04 #@! TF.ProjectId,antivol,616e7469-766f-46c2-9e6b-696361645f70,rev?*
G04 #@! TF.SameCoordinates,Original*
G04 #@! TF.FileFunction,Copper,L2,Bot*
G04 #@! TF.FilePolarity,Positive*
%FSLAX46Y46*%
G04 Gerber Fmt 4.6, Leading zero omitted, Abs format (unit mm)*
G04 Created by KiCad (PCBNEW 5.1.4) date 2019-11-23 22:13:22*
%MOMM*%
%LPD*%
G04 APERTURE LIST*
%ADD10C,1.300000*%
%ADD11R,0.900000X2.000000*%
%ADD12R,2.000000X0.900000*%
%ADD13R,5.000000X5.000000*%
%ADD14C,2.000000*%
%ADD15O,1.700000X1.700000*%
%ADD16R,1.700000X1.700000*%
%ADD17C,0.800000*%
%ADD18C,0.254000*%
%ADD19C,0.250000*%
%ADD20C,0.508000*%
G04 APERTURE END LIST*
D10*
X58945000Y-108360000D03*
X58945000Y-104760000D03*
X60745000Y-106560000D03*
X57145000Y-106560000D03*
X57145000Y-108360000D03*
X57145000Y-104760000D03*
X60745000Y-108360000D03*
D11*
X51435000Y-99060000D03*
X52705000Y-99060000D03*
X53975000Y-99060000D03*
X55245000Y-99060000D03*
X56515000Y-99060000D03*
X57785000Y-99060000D03*
X59055000Y-99060000D03*
X60325000Y-99060000D03*
X61595000Y-99060000D03*
X62865000Y-99060000D03*
X64135000Y-99060000D03*
X65405000Y-99060000D03*
X66675000Y-99060000D03*
X67945000Y-99060000D03*
D12*
X68945000Y-101860000D03*
X68945000Y-103130000D03*
X68945000Y-104400000D03*
X68945000Y-105670000D03*
X68945000Y-106940000D03*
X68945000Y-108210000D03*
X68945000Y-109480000D03*
X68945000Y-110750000D03*
X68945000Y-112020000D03*
X68945000Y-113290000D03*
D11*
X67945000Y-116060000D03*
X66675000Y-116060000D03*
X65405000Y-116060000D03*
X64135000Y-116060000D03*
X62865000Y-116060000D03*
X61595000Y-116060000D03*
X60325000Y-116060000D03*
X59055000Y-116060000D03*
X57785000Y-116060000D03*
X56515000Y-116060000D03*
X55245000Y-116060000D03*
X53975000Y-116060000D03*
X52705000Y-116060000D03*
X51435000Y-116060000D03*
D13*
X58945000Y-106560000D03*
D14*
X58945000Y-106560000D03*
D10*
X60745000Y-104760000D03*
D15*
X72136000Y-102362000D03*
D16*
X72136000Y-99822000D03*
D15*
X72136000Y-113030000D03*
D16*
X72136000Y-115570000D03*
D15*
X76200000Y-112522000D03*
X76200000Y-109982000D03*
X76200000Y-107442000D03*
X76200000Y-104902000D03*
X76200000Y-102362000D03*
D16*
X76200000Y-99822000D03*
D17*
X51435000Y-99060000D03*
X51562000Y-102870000D03*
X75946000Y-116586000D03*
X51404847Y-113695153D03*
X56587346Y-102307346D03*
X68945000Y-101860000D03*
X53670000Y-104775000D03*
X67290998Y-108458000D03*
X67290998Y-105326959D03*
X69391878Y-116886441D03*
X76200000Y-102362000D03*
X70104000Y-115316000D03*
X56515000Y-116060000D03*
X56515000Y-112395000D03*
X58420000Y-114300000D03*
X68660003Y-116205000D03*
X55245000Y-116060000D03*
X52705000Y-112395000D03*
X54610000Y-112395000D03*
X62230000Y-114046000D03*
X67056000Y-114046000D03*
X61468000Y-102108000D03*
X65436987Y-107442000D03*
X64008000Y-101092000D03*
X56155657Y-111062392D03*
X72136000Y-105664000D03*
X55118000Y-99076000D03*
X56515000Y-99060000D03*
X65436987Y-108966000D03*
X59893000Y-100584000D03*
D18*
X51435000Y-99060000D02*
X51435000Y-102743000D01*
X51435000Y-102743000D02*
X51562000Y-102870000D01*
D19*
X72136000Y-115570000D02*
X74930000Y-115570000D01*
X74930000Y-115570000D02*
X75946000Y-116586000D01*
X51435000Y-116060000D02*
X51435000Y-113725306D01*
X51435000Y-113725306D02*
X51404847Y-113695153D01*
X53975000Y-104470000D02*
X53670000Y-104775000D01*
D20*
X67290998Y-105326959D02*
X67290998Y-108458000D01*
D18*
X66675000Y-116060000D02*
X66675000Y-114806000D01*
X66675000Y-114806000D02*
X66748001Y-114732999D01*
D19*
X69391878Y-115471876D02*
X69391878Y-116886441D01*
X66675000Y-114806000D02*
X66746001Y-114734999D01*
X68655001Y-114734999D02*
X69391878Y-115471876D01*
X66746001Y-114734999D02*
X68655001Y-114734999D01*
D18*
X77049999Y-101512001D02*
X76200000Y-102362000D01*
X77377001Y-101184999D02*
X77049999Y-101512001D01*
X77377001Y-98710399D02*
X77377001Y-101184999D01*
X76857591Y-98190989D02*
X77377001Y-98710399D01*
X70836342Y-98190989D02*
X76857591Y-98190989D01*
X68640331Y-100387001D02*
X70836342Y-98190989D01*
X67737330Y-100387001D02*
X68640331Y-100387001D01*
D19*
X64135000Y-115294998D02*
X66061987Y-113368011D01*
X64135000Y-116060000D02*
X64135000Y-115294998D01*
X67737330Y-100389830D02*
X67737330Y-100387001D01*
X66061987Y-102065173D02*
X67737330Y-100389830D01*
X66061987Y-113368011D02*
X66061987Y-102065173D01*
D18*
X73918999Y-98644999D02*
X75096000Y-99822000D01*
X75096000Y-99822000D02*
X76200000Y-99822000D01*
X71024399Y-98644999D02*
X73918999Y-98644999D01*
X68704398Y-100965000D02*
X71024399Y-98644999D01*
X67801398Y-100965000D02*
X68704398Y-100965000D01*
D19*
X67801398Y-100968600D02*
X67801398Y-100965000D01*
X66511997Y-113703003D02*
X66511997Y-102258001D01*
X66511997Y-102258001D02*
X67801398Y-100968600D01*
X65405000Y-114810000D02*
X66511997Y-113703003D01*
X65405000Y-116060000D02*
X65405000Y-114810000D01*
D18*
X68945000Y-113290000D02*
X68787999Y-113290000D01*
D19*
X68945000Y-114157000D02*
X68945000Y-113290000D01*
X70104000Y-115316000D02*
X68945000Y-114157000D01*
D18*
X53975000Y-99060000D02*
X53975000Y-99828602D01*
X56515000Y-112395000D02*
X58420000Y-114300000D01*
D19*
X53975000Y-99060000D02*
X53975000Y-100111998D01*
X68090000Y-116205000D02*
X67945000Y-116060000D01*
X68660003Y-116205000D02*
X68090000Y-116205000D01*
X53975000Y-116060000D02*
X53975000Y-113665000D01*
X53975000Y-113665000D02*
X52705000Y-112395000D01*
X57785000Y-114810000D02*
X57785000Y-116060000D01*
X55370000Y-112395000D02*
X57785000Y-114810000D01*
X54610000Y-112395000D02*
X55370000Y-112395000D01*
X59055000Y-99610000D02*
X59055000Y-99060000D01*
X65436987Y-107442000D02*
X65436987Y-103800987D01*
X65436987Y-101670987D02*
X65436987Y-103800987D01*
X64858000Y-101092000D02*
X65436987Y-101670987D01*
X64008000Y-101092000D02*
X64858000Y-101092000D01*
X62484000Y-101092000D02*
X61468000Y-102108000D01*
X64008000Y-101092000D02*
X62484000Y-101092000D01*
X52705000Y-100310000D02*
X52705000Y-99060000D01*
X53670000Y-104775000D02*
X53670000Y-101275000D01*
X53670000Y-101275000D02*
X52705000Y-100310000D01*
X53975000Y-100310000D02*
X53975000Y-99060000D01*
X54356000Y-110236000D02*
X54356000Y-100691000D01*
X54356000Y-100691000D02*
X53975000Y-100310000D01*
X56515000Y-112395000D02*
X54356000Y-110236000D01*
X57785000Y-99610000D02*
X57785000Y-99060000D01*
X57785000Y-99645002D02*
X57100002Y-100330000D01*
X57785000Y-99060000D02*
X57785000Y-99645002D01*
X57100002Y-100330000D02*
X55626000Y-100330000D01*
X55755658Y-110662393D02*
X55755658Y-110619658D01*
X56155657Y-111062392D02*
X55755658Y-110662393D01*
X54991000Y-109855000D02*
X54991000Y-100965000D01*
X55755658Y-110619658D02*
X54991000Y-109855000D01*
X55626000Y-100330000D02*
X54991000Y-100965000D01*
D20*
X72136000Y-105664000D02*
X72136000Y-113030000D01*
D19*
X65532000Y-109061013D02*
X65436987Y-108966000D01*
X65532000Y-112843000D02*
X65532000Y-109061013D01*
X62865000Y-115510000D02*
X65532000Y-112843000D01*
X62865000Y-116060000D02*
X62865000Y-115510000D01*
X60325000Y-100152000D02*
X59893000Y-100584000D01*
X60325000Y-99060000D02*
X60325000Y-100152000D01*
D18*
G36*
X51562000Y-98933000D02*
G01*
X51582000Y-98933000D01*
X51582000Y-99187000D01*
X51562000Y-99187000D01*
X51562000Y-100311250D01*
X51645750Y-100395000D01*
X51885000Y-100396621D01*
X51950671Y-100390153D01*
X52013819Y-100370997D01*
X52070001Y-100340967D01*
X52126181Y-100370996D01*
X52189329Y-100390152D01*
X52251271Y-100396253D01*
X52251657Y-100400175D01*
X52277960Y-100486885D01*
X52320674Y-100566797D01*
X52378158Y-100636842D01*
X52395708Y-100651245D01*
X53210001Y-101465539D01*
X53210000Y-104198385D01*
X53201465Y-104204088D01*
X53099088Y-104306465D01*
X53018652Y-104426847D01*
X52963246Y-104560609D01*
X52935000Y-104702609D01*
X52935000Y-104847391D01*
X52963246Y-104989391D01*
X53018652Y-105123153D01*
X53099088Y-105243535D01*
X53201465Y-105345912D01*
X53321847Y-105426348D01*
X53455609Y-105481754D01*
X53597609Y-105510000D01*
X53742391Y-105510000D01*
X53884391Y-105481754D01*
X53896000Y-105476945D01*
X53896000Y-110213418D01*
X53893776Y-110236000D01*
X53896000Y-110258582D01*
X53896000Y-110258589D01*
X53902657Y-110326175D01*
X53928960Y-110412885D01*
X53971674Y-110492797D01*
X54029158Y-110562842D01*
X54046708Y-110577245D01*
X55405760Y-111936297D01*
X55392590Y-111935000D01*
X55392582Y-111935000D01*
X55370000Y-111932776D01*
X55347418Y-111935000D01*
X55186615Y-111935000D01*
X55180912Y-111926465D01*
X55078535Y-111824088D01*
X54958153Y-111743652D01*
X54824391Y-111688246D01*
X54682391Y-111660000D01*
X54537609Y-111660000D01*
X54395609Y-111688246D01*
X54261847Y-111743652D01*
X54141465Y-111824088D01*
X54039088Y-111926465D01*
X53958652Y-112046847D01*
X53903246Y-112180609D01*
X53875000Y-112322609D01*
X53875000Y-112467391D01*
X53903246Y-112609391D01*
X53958652Y-112743153D01*
X54039088Y-112863535D01*
X54141465Y-112965912D01*
X54261847Y-113046348D01*
X54395609Y-113101754D01*
X54537609Y-113130000D01*
X54682391Y-113130000D01*
X54824391Y-113101754D01*
X54958153Y-113046348D01*
X55078535Y-112965912D01*
X55180912Y-112863535D01*
X55183750Y-112859287D01*
X57064604Y-114740142D01*
X57030671Y-114729848D01*
X56965000Y-114723380D01*
X56065000Y-114723380D01*
X55999329Y-114729848D01*
X55936181Y-114749004D01*
X55880000Y-114779033D01*
X55823819Y-114749004D01*
X55760671Y-114729848D01*
X55695000Y-114723380D01*
X54795000Y-114723380D01*
X54729329Y-114729848D01*
X54666181Y-114749004D01*
X54610000Y-114779033D01*
X54553819Y-114749004D01*
X54490671Y-114729848D01*
X54435000Y-114724365D01*
X54435000Y-113687579D01*
X54437224Y-113664999D01*
X54435000Y-113642419D01*
X54435000Y-113642410D01*
X54428343Y-113574824D01*
X54402040Y-113488114D01*
X54359326Y-113408202D01*
X54336647Y-113380568D01*
X54316242Y-113355704D01*
X54316240Y-113355702D01*
X54301842Y-113338158D01*
X54284297Y-113323759D01*
X53437997Y-112477460D01*
X53440000Y-112467391D01*
X53440000Y-112322609D01*
X53411754Y-112180609D01*
X53356348Y-112046847D01*
X53275912Y-111926465D01*
X53173535Y-111824088D01*
X53053153Y-111743652D01*
X52919391Y-111688246D01*
X52777391Y-111660000D01*
X52632609Y-111660000D01*
X52490609Y-111688246D01*
X52356847Y-111743652D01*
X52236465Y-111824088D01*
X52134088Y-111926465D01*
X52053652Y-112046847D01*
X51998246Y-112180609D01*
X51970000Y-112322609D01*
X51970000Y-112467391D01*
X51998246Y-112609391D01*
X52053652Y-112743153D01*
X52134088Y-112863535D01*
X52236465Y-112965912D01*
X52356847Y-113046348D01*
X52490609Y-113101754D01*
X52632609Y-113130000D01*
X52777391Y-113130000D01*
X52787460Y-113127997D01*
X53515001Y-113855539D01*
X53515001Y-114724365D01*
X53459329Y-114729848D01*
X53396181Y-114749004D01*
X53340000Y-114779033D01*
X53283819Y-114749004D01*
X53220671Y-114729848D01*
X53155000Y-114723380D01*
X52255000Y-114723380D01*
X52189329Y-114729848D01*
X52126181Y-114749004D01*
X52070001Y-114779033D01*
X52013819Y-114749003D01*
X51950671Y-114729847D01*
X51885000Y-114723379D01*
X51645750Y-114725000D01*
X51562000Y-114808750D01*
X51562000Y-115933000D01*
X51582000Y-115933000D01*
X51582000Y-116187000D01*
X51562000Y-116187000D01*
X51562000Y-117311250D01*
X51645750Y-117395000D01*
X51885000Y-117396621D01*
X51950671Y-117390153D01*
X52013819Y-117370997D01*
X52070001Y-117340967D01*
X52126181Y-117370996D01*
X52189329Y-117390152D01*
X52255000Y-117396620D01*
X53155000Y-117396620D01*
X53220671Y-117390152D01*
X53283819Y-117370996D01*
X53340000Y-117340967D01*
X53396181Y-117370996D01*
X53459329Y-117390152D01*
X53525000Y-117396620D01*
X54425000Y-117396620D01*
X54490671Y-117390152D01*
X54553819Y-117370996D01*
X54610000Y-117340967D01*
X54666181Y-117370996D01*
X54729329Y-117390152D01*
X54795000Y-117396620D01*
X55695000Y-117396620D01*
X55760671Y-117390152D01*
X55823819Y-117370996D01*
X55880000Y-117340967D01*
X55936181Y-117370996D01*
X55999329Y-117390152D01*
X56065000Y-117396620D01*
X56965000Y-117396620D01*
X57030671Y-117390152D01*
X57093819Y-117370996D01*
X57150000Y-117340967D01*
X57206181Y-117370996D01*
X57269329Y-117390152D01*
X57335000Y-117396620D01*
X58235000Y-117396620D01*
X58300671Y-117390152D01*
X58363819Y-117370996D01*
X58420000Y-117340967D01*
X58476181Y-117370996D01*
X58539329Y-117390152D01*
X58605000Y-117396620D01*
X59505000Y-117396620D01*
X59570671Y-117390152D01*
X59633819Y-117370996D01*
X59690000Y-117340967D01*
X59746181Y-117370996D01*
X59809329Y-117390152D01*
X59875000Y-117396620D01*
X60775000Y-117396620D01*
X60840671Y-117390152D01*
X60903819Y-117370996D01*
X60960000Y-117340967D01*
X61016181Y-117370996D01*
X61079329Y-117390152D01*
X61145000Y-117396620D01*
X62045000Y-117396620D01*
X62110671Y-117390152D01*
X62173819Y-117370996D01*
X62230000Y-117340967D01*
X62286181Y-117370996D01*
X62349329Y-117390152D01*
X62415000Y-117396620D01*
X63315000Y-117396620D01*
X63380671Y-117390152D01*
X63443819Y-117370996D01*
X63500000Y-117340967D01*
X63556181Y-117370996D01*
X63619329Y-117390152D01*
X63685000Y-117396620D01*
X64585000Y-117396620D01*
X64650671Y-117390152D01*
X64713819Y-117370996D01*
X64770000Y-117340967D01*
X64826181Y-117370996D01*
X64889329Y-117390152D01*
X64955000Y-117396620D01*
X65855000Y-117396620D01*
X65920671Y-117390152D01*
X65983819Y-117370996D01*
X66040000Y-117340967D01*
X66096181Y-117370996D01*
X66159329Y-117390152D01*
X66225000Y-117396620D01*
X67125000Y-117396620D01*
X67190671Y-117390152D01*
X67253819Y-117370996D01*
X67310000Y-117340967D01*
X67366181Y-117370996D01*
X67429329Y-117390152D01*
X67495000Y-117396620D01*
X68395000Y-117396620D01*
X68460671Y-117390152D01*
X68523819Y-117370996D01*
X68582016Y-117339889D01*
X68633026Y-117298026D01*
X68674889Y-117247016D01*
X68705996Y-117188819D01*
X68712580Y-117167116D01*
X68740530Y-117234594D01*
X68820966Y-117354976D01*
X68923343Y-117457353D01*
X69043725Y-117537789D01*
X69177487Y-117593195D01*
X69319487Y-117621441D01*
X69464269Y-117621441D01*
X69606269Y-117593195D01*
X69740031Y-117537789D01*
X69860413Y-117457353D01*
X69962790Y-117354976D01*
X70043226Y-117234594D01*
X70098632Y-117100832D01*
X70126878Y-116958832D01*
X70126878Y-116814050D01*
X70098632Y-116672050D01*
X70043226Y-116538288D01*
X69964190Y-116420000D01*
X70949379Y-116420000D01*
X70955847Y-116485671D01*
X70975003Y-116548819D01*
X71006110Y-116607017D01*
X71047973Y-116658027D01*
X71098983Y-116699890D01*
X71157181Y-116730997D01*
X71220329Y-116750153D01*
X71286000Y-116756621D01*
X71925250Y-116755000D01*
X72009000Y-116671250D01*
X72009000Y-115697000D01*
X72263000Y-115697000D01*
X72263000Y-116671250D01*
X72346750Y-116755000D01*
X72986000Y-116756621D01*
X73051671Y-116750153D01*
X73114819Y-116730997D01*
X73173017Y-116699890D01*
X73224027Y-116658027D01*
X73265890Y-116607017D01*
X73296997Y-116548819D01*
X73316153Y-116485671D01*
X73322621Y-116420000D01*
X73321000Y-115780750D01*
X73237250Y-115697000D01*
X72263000Y-115697000D01*
X72009000Y-115697000D01*
X71034750Y-115697000D01*
X70951000Y-115780750D01*
X70949379Y-116420000D01*
X69964190Y-116420000D01*
X69962790Y-116417906D01*
X69860413Y-116315529D01*
X69851878Y-116309826D01*
X69851878Y-116007125D01*
X69889609Y-116022754D01*
X70031609Y-116051000D01*
X70176391Y-116051000D01*
X70318391Y-116022754D01*
X70452153Y-115967348D01*
X70572535Y-115886912D01*
X70674912Y-115784535D01*
X70755348Y-115664153D01*
X70810754Y-115530391D01*
X70839000Y-115388391D01*
X70839000Y-115243609D01*
X70810754Y-115101609D01*
X70755348Y-114967847D01*
X70674912Y-114847465D01*
X70572535Y-114745088D01*
X70534988Y-114720000D01*
X70949379Y-114720000D01*
X70951000Y-115359250D01*
X71034750Y-115443000D01*
X72009000Y-115443000D01*
X72009000Y-114468750D01*
X72263000Y-114468750D01*
X72263000Y-115443000D01*
X73237250Y-115443000D01*
X73321000Y-115359250D01*
X73322621Y-114720000D01*
X73316153Y-114654329D01*
X73296997Y-114591181D01*
X73265890Y-114532983D01*
X73224027Y-114481973D01*
X73173017Y-114440110D01*
X73114819Y-114409003D01*
X73051671Y-114389847D01*
X72986000Y-114383379D01*
X72346750Y-114385000D01*
X72263000Y-114468750D01*
X72009000Y-114468750D01*
X71925250Y-114385000D01*
X71286000Y-114383379D01*
X71220329Y-114389847D01*
X71157181Y-114409003D01*
X71098983Y-114440110D01*
X71047973Y-114481973D01*
X71006110Y-114532983D01*
X70975003Y-114591181D01*
X70955847Y-114654329D01*
X70949379Y-114720000D01*
X70534988Y-114720000D01*
X70452153Y-114664652D01*
X70318391Y-114609246D01*
X70176391Y-114581000D01*
X70031609Y-114581000D01*
X70021541Y-114583003D01*
X69515157Y-114076620D01*
X69945000Y-114076620D01*
X70010671Y-114070152D01*
X70073819Y-114050996D01*
X70132016Y-114019889D01*
X70183026Y-113978026D01*
X70224889Y-113927016D01*
X70255996Y-113868819D01*
X70275152Y-113805671D01*
X70281620Y-113740000D01*
X70281620Y-113030000D01*
X70945267Y-113030000D01*
X70968147Y-113262300D01*
X71035906Y-113485674D01*
X71145942Y-113691536D01*
X71294025Y-113871975D01*
X71474464Y-114020058D01*
X71680326Y-114130094D01*
X71903700Y-114197853D01*
X72077793Y-114215000D01*
X72194207Y-114215000D01*
X72368300Y-114197853D01*
X72591674Y-114130094D01*
X72797536Y-114020058D01*
X72977975Y-113871975D01*
X73126058Y-113691536D01*
X73236094Y-113485674D01*
X73303853Y-113262300D01*
X73326733Y-113030000D01*
X73303853Y-112797700D01*
X73236094Y-112574326D01*
X73208126Y-112522000D01*
X75009267Y-112522000D01*
X75032147Y-112754300D01*
X75099906Y-112977674D01*
X75209942Y-113183536D01*
X75358025Y-113363975D01*
X75538464Y-113512058D01*
X75744326Y-113622094D01*
X75967700Y-113689853D01*
X76141793Y-113707000D01*
X76258207Y-113707000D01*
X76432300Y-113689853D01*
X76655674Y-113622094D01*
X76861536Y-113512058D01*
X77041975Y-113363975D01*
X77190058Y-113183536D01*
X77300094Y-112977674D01*
X77367853Y-112754300D01*
X77390733Y-112522000D01*
X77367853Y-112289700D01*
X77300094Y-112066326D01*
X77190058Y-111860464D01*
X77041975Y-111680025D01*
X76861536Y-111531942D01*
X76655674Y-111421906D01*
X76432300Y-111354147D01*
X76258207Y-111337000D01*
X76141793Y-111337000D01*
X75967700Y-111354147D01*
X75744326Y-111421906D01*
X75538464Y-111531942D01*
X75358025Y-111680025D01*
X75209942Y-111860464D01*
X75099906Y-112066326D01*
X75032147Y-112289700D01*
X75009267Y-112522000D01*
X73208126Y-112522000D01*
X73126058Y-112368464D01*
X72977975Y-112188025D01*
X72797536Y-112039942D01*
X72725000Y-112001171D01*
X72725000Y-110291744D01*
X75056197Y-110291744D01*
X75076873Y-110359923D01*
X75172183Y-110571772D01*
X75306991Y-110760957D01*
X75476117Y-110920207D01*
X75673061Y-111043402D01*
X75890255Y-111125808D01*
X76073000Y-111076431D01*
X76073000Y-110109000D01*
X76327000Y-110109000D01*
X76327000Y-111076431D01*
X76509745Y-111125808D01*
X76726939Y-111043402D01*
X76923883Y-110920207D01*
X77093009Y-110760957D01*
X77227817Y-110571772D01*
X77323127Y-110359923D01*
X77343803Y-110291744D01*
X77293902Y-110109000D01*
X76327000Y-110109000D01*
X76073000Y-110109000D01*
X75106098Y-110109000D01*
X75056197Y-110291744D01*
X72725000Y-110291744D01*
X72725000Y-109672256D01*
X75056197Y-109672256D01*
X75106098Y-109855000D01*
X76073000Y-109855000D01*
X76073000Y-108887569D01*
X76327000Y-108887569D01*
X76327000Y-109855000D01*
X77293902Y-109855000D01*
X77343803Y-109672256D01*
X77323127Y-109604077D01*
X77227817Y-109392228D01*
X77093009Y-109203043D01*
X76923883Y-109043793D01*
X76726939Y-108920598D01*
X76509745Y-108838192D01*
X76327000Y-108887569D01*
X76073000Y-108887569D01*
X75890255Y-108838192D01*
X75673061Y-108920598D01*
X75476117Y-109043793D01*
X75306991Y-109203043D01*
X75172183Y-109392228D01*
X75076873Y-109604077D01*
X75056197Y-109672256D01*
X72725000Y-109672256D01*
X72725000Y-107442000D01*
X75009267Y-107442000D01*
X75032147Y-107674300D01*
X75099906Y-107897674D01*
X75209942Y-108103536D01*
X75358025Y-108283975D01*
X75538464Y-108432058D01*
X75744326Y-108542094D01*
X75967700Y-108609853D01*
X76141793Y-108627000D01*
X76258207Y-108627000D01*
X76432300Y-108609853D01*
X76655674Y-108542094D01*
X76861536Y-108432058D01*
X77041975Y-108283975D01*
X77190058Y-108103536D01*
X77300094Y-107897674D01*
X77367853Y-107674300D01*
X77390733Y-107442000D01*
X77367853Y-107209700D01*
X77300094Y-106986326D01*
X77190058Y-106780464D01*
X77041975Y-106600025D01*
X76861536Y-106451942D01*
X76655674Y-106341906D01*
X76432300Y-106274147D01*
X76258207Y-106257000D01*
X76141793Y-106257000D01*
X75967700Y-106274147D01*
X75744326Y-106341906D01*
X75538464Y-106451942D01*
X75358025Y-106600025D01*
X75209942Y-106780464D01*
X75099906Y-106986326D01*
X75032147Y-107209700D01*
X75009267Y-107442000D01*
X72725000Y-107442000D01*
X72725000Y-106105464D01*
X72787348Y-106012153D01*
X72842754Y-105878391D01*
X72871000Y-105736391D01*
X72871000Y-105591609D01*
X72842754Y-105449609D01*
X72787348Y-105315847D01*
X72706912Y-105195465D01*
X72604535Y-105093088D01*
X72484153Y-105012652D01*
X72350391Y-104957246D01*
X72208391Y-104929000D01*
X72063609Y-104929000D01*
X71921609Y-104957246D01*
X71787847Y-105012652D01*
X71667465Y-105093088D01*
X71565088Y-105195465D01*
X71484652Y-105315847D01*
X71429246Y-105449609D01*
X71401000Y-105591609D01*
X71401000Y-105736391D01*
X71429246Y-105878391D01*
X71484652Y-106012153D01*
X71547000Y-106105464D01*
X71547001Y-112001170D01*
X71474464Y-112039942D01*
X71294025Y-112188025D01*
X71145942Y-112368464D01*
X71035906Y-112574326D01*
X70968147Y-112797700D01*
X70945267Y-113030000D01*
X70281620Y-113030000D01*
X70281620Y-112840000D01*
X70275152Y-112774329D01*
X70255996Y-112711181D01*
X70225967Y-112655000D01*
X70255996Y-112598819D01*
X70275152Y-112535671D01*
X70281620Y-112470000D01*
X70281620Y-111570000D01*
X70275152Y-111504329D01*
X70255996Y-111441181D01*
X70225967Y-111385000D01*
X70255996Y-111328819D01*
X70275152Y-111265671D01*
X70281620Y-111200000D01*
X70281620Y-110300000D01*
X70275152Y-110234329D01*
X70255996Y-110171181D01*
X70225967Y-110115000D01*
X70255996Y-110058819D01*
X70275152Y-109995671D01*
X70281620Y-109930000D01*
X70281620Y-109030000D01*
X70275152Y-108964329D01*
X70255996Y-108901181D01*
X70225967Y-108845000D01*
X70255996Y-108788819D01*
X70275152Y-108725671D01*
X70281620Y-108660000D01*
X70281620Y-107760000D01*
X70275152Y-107694329D01*
X70255996Y-107631181D01*
X70225967Y-107575000D01*
X70255996Y-107518819D01*
X70275152Y-107455671D01*
X70281620Y-107390000D01*
X70281620Y-106490000D01*
X70275152Y-106424329D01*
X70255996Y-106361181D01*
X70225967Y-106305000D01*
X70255996Y-106248819D01*
X70275152Y-106185671D01*
X70281620Y-106120000D01*
X70281620Y-105220000D01*
X70275152Y-105154329D01*
X70255996Y-105091181D01*
X70225967Y-105035000D01*
X70255996Y-104978819D01*
X70275152Y-104915671D01*
X70276498Y-104902000D01*
X75009267Y-104902000D01*
X75032147Y-105134300D01*
X75099906Y-105357674D01*
X75209942Y-105563536D01*
X75358025Y-105743975D01*
X75538464Y-105892058D01*
X75744326Y-106002094D01*
X75967700Y-106069853D01*
X76141793Y-106087000D01*
X76258207Y-106087000D01*
X76432300Y-106069853D01*
X76655674Y-106002094D01*
X76861536Y-105892058D01*
X77041975Y-105743975D01*
X77190058Y-105563536D01*
X77300094Y-105357674D01*
X77367853Y-105134300D01*
X77390733Y-104902000D01*
X77367853Y-104669700D01*
X77300094Y-104446326D01*
X77190058Y-104240464D01*
X77041975Y-104060025D01*
X76861536Y-103911942D01*
X76655674Y-103801906D01*
X76432300Y-103734147D01*
X76258207Y-103717000D01*
X76141793Y-103717000D01*
X75967700Y-103734147D01*
X75744326Y-103801906D01*
X75538464Y-103911942D01*
X75358025Y-104060025D01*
X75209942Y-104240464D01*
X75099906Y-104446326D01*
X75032147Y-104669700D01*
X75009267Y-104902000D01*
X70276498Y-104902000D01*
X70281620Y-104850000D01*
X70281620Y-103950000D01*
X70275152Y-103884329D01*
X70255996Y-103821181D01*
X70225967Y-103765000D01*
X70255996Y-103708819D01*
X70275152Y-103645671D01*
X70281620Y-103580000D01*
X70281620Y-102680000D01*
X70275152Y-102614329D01*
X70255996Y-102551181D01*
X70225967Y-102495001D01*
X70255997Y-102438819D01*
X70275153Y-102375671D01*
X70276499Y-102362000D01*
X70945267Y-102362000D01*
X70968147Y-102594300D01*
X71035906Y-102817674D01*
X71145942Y-103023536D01*
X71294025Y-103203975D01*
X71474464Y-103352058D01*
X71680326Y-103462094D01*
X71903700Y-103529853D01*
X72077793Y-103547000D01*
X72194207Y-103547000D01*
X72368300Y-103529853D01*
X72591674Y-103462094D01*
X72797536Y-103352058D01*
X72977975Y-103203975D01*
X73126058Y-103023536D01*
X73236094Y-102817674D01*
X73303853Y-102594300D01*
X73326733Y-102362000D01*
X73303853Y-102129700D01*
X73236094Y-101906326D01*
X73126058Y-101700464D01*
X72977975Y-101520025D01*
X72797536Y-101371942D01*
X72591674Y-101261906D01*
X72368300Y-101194147D01*
X72194207Y-101177000D01*
X72077793Y-101177000D01*
X71903700Y-101194147D01*
X71680326Y-101261906D01*
X71474464Y-101371942D01*
X71294025Y-101520025D01*
X71145942Y-101700464D01*
X71035906Y-101906326D01*
X70968147Y-102129700D01*
X70945267Y-102362000D01*
X70276499Y-102362000D01*
X70281621Y-102310000D01*
X70280000Y-102070750D01*
X70196250Y-101987000D01*
X69072000Y-101987000D01*
X69072000Y-102007000D01*
X68818000Y-102007000D01*
X68818000Y-101987000D01*
X67693750Y-101987000D01*
X67610000Y-102070750D01*
X67608379Y-102310000D01*
X67614847Y-102375671D01*
X67634003Y-102438819D01*
X67664033Y-102495001D01*
X67634004Y-102551181D01*
X67614848Y-102614329D01*
X67608380Y-102680000D01*
X67608380Y-103580000D01*
X67614848Y-103645671D01*
X67634004Y-103708819D01*
X67664033Y-103765000D01*
X67634004Y-103821181D01*
X67614848Y-103884329D01*
X67608380Y-103950000D01*
X67608380Y-104662865D01*
X67505389Y-104620205D01*
X67363389Y-104591959D01*
X67218607Y-104591959D01*
X67076607Y-104620205D01*
X66971997Y-104663536D01*
X66971997Y-102448538D01*
X67690643Y-101729893D01*
X67693750Y-101733000D01*
X68818000Y-101733000D01*
X68818000Y-101713000D01*
X69072000Y-101713000D01*
X69072000Y-101733000D01*
X70196250Y-101733000D01*
X70280000Y-101649250D01*
X70281621Y-101410000D01*
X70275153Y-101344329D01*
X70255997Y-101281181D01*
X70224890Y-101222983D01*
X70183027Y-101171973D01*
X70132017Y-101130110D01*
X70073819Y-101099003D01*
X70010671Y-101079847D01*
X69945000Y-101073379D01*
X69247952Y-101074811D01*
X69650763Y-100672000D01*
X70949379Y-100672000D01*
X70955847Y-100737671D01*
X70975003Y-100800819D01*
X71006110Y-100859017D01*
X71047973Y-100910027D01*
X71098983Y-100951890D01*
X71157181Y-100982997D01*
X71220329Y-101002153D01*
X71286000Y-101008621D01*
X71925250Y-101007000D01*
X72009000Y-100923250D01*
X72009000Y-99949000D01*
X72263000Y-99949000D01*
X72263000Y-100923250D01*
X72346750Y-101007000D01*
X72986000Y-101008621D01*
X73051671Y-101002153D01*
X73114819Y-100982997D01*
X73173017Y-100951890D01*
X73224027Y-100910027D01*
X73265890Y-100859017D01*
X73296997Y-100800819D01*
X73316153Y-100737671D01*
X73322621Y-100672000D01*
X73321000Y-100032750D01*
X73237250Y-99949000D01*
X72263000Y-99949000D01*
X72009000Y-99949000D01*
X71034750Y-99949000D01*
X70951000Y-100032750D01*
X70949379Y-100672000D01*
X69650763Y-100672000D01*
X70950394Y-99372370D01*
X70951000Y-99611250D01*
X71034750Y-99695000D01*
X72009000Y-99695000D01*
X72009000Y-99675000D01*
X72263000Y-99675000D01*
X72263000Y-99695000D01*
X73237250Y-99695000D01*
X73321000Y-99611250D01*
X73322279Y-99106999D01*
X73727634Y-99106999D01*
X74753266Y-100132632D01*
X74767736Y-100150264D01*
X74838085Y-100207997D01*
X74918345Y-100250897D01*
X75005432Y-100277315D01*
X75013380Y-100278098D01*
X75013380Y-100672000D01*
X75019848Y-100737671D01*
X75039004Y-100800819D01*
X75070111Y-100859016D01*
X75111974Y-100910026D01*
X75162984Y-100951889D01*
X75221181Y-100982996D01*
X75284329Y-101002152D01*
X75350000Y-101008620D01*
X76900014Y-101008620D01*
X76739372Y-101169263D01*
X76739361Y-101169272D01*
X76648810Y-101259824D01*
X76432300Y-101194147D01*
X76258207Y-101177000D01*
X76141793Y-101177000D01*
X75967700Y-101194147D01*
X75744326Y-101261906D01*
X75538464Y-101371942D01*
X75358025Y-101520025D01*
X75209942Y-101700464D01*
X75099906Y-101906326D01*
X75032147Y-102129700D01*
X75009267Y-102362000D01*
X75032147Y-102594300D01*
X75099906Y-102817674D01*
X75209942Y-103023536D01*
X75358025Y-103203975D01*
X75538464Y-103352058D01*
X75744326Y-103462094D01*
X75967700Y-103529853D01*
X76141793Y-103547000D01*
X76258207Y-103547000D01*
X76432300Y-103529853D01*
X76655674Y-103462094D01*
X76861536Y-103352058D01*
X77041975Y-103203975D01*
X77190058Y-103023536D01*
X77300094Y-102817674D01*
X77367853Y-102594300D01*
X77390733Y-102362000D01*
X77367853Y-102129700D01*
X77302176Y-101913190D01*
X77392728Y-101822639D01*
X77392737Y-101822628D01*
X77618000Y-101597366D01*
X77618001Y-117750000D01*
X50927000Y-117750000D01*
X50927000Y-117390909D01*
X50985000Y-117396621D01*
X51224250Y-117395000D01*
X51308000Y-117311250D01*
X51308000Y-116187000D01*
X51288000Y-116187000D01*
X51288000Y-115933000D01*
X51308000Y-115933000D01*
X51308000Y-114808750D01*
X51224250Y-114725000D01*
X50985000Y-114723379D01*
X50927000Y-114729091D01*
X50927000Y-100390909D01*
X50985000Y-100396621D01*
X51224250Y-100395000D01*
X51308000Y-100311250D01*
X51308000Y-99187000D01*
X51288000Y-99187000D01*
X51288000Y-98933000D01*
X51308000Y-98933000D01*
X51308000Y-98913000D01*
X51562000Y-98913000D01*
X51562000Y-98933000D01*
X51562000Y-98933000D01*
G37*
X51562000Y-98933000D02*
X51582000Y-98933000D01*
X51582000Y-99187000D01*
X51562000Y-99187000D01*
X51562000Y-100311250D01*
X51645750Y-100395000D01*
X51885000Y-100396621D01*
X51950671Y-100390153D01*
X52013819Y-100370997D01*
X52070001Y-100340967D01*
X52126181Y-100370996D01*
X52189329Y-100390152D01*
X52251271Y-100396253D01*
X52251657Y-100400175D01*
X52277960Y-100486885D01*
X52320674Y-100566797D01*
X52378158Y-100636842D01*
X52395708Y-100651245D01*
X53210001Y-101465539D01*
X53210000Y-104198385D01*
X53201465Y-104204088D01*
X53099088Y-104306465D01*
X53018652Y-104426847D01*
X52963246Y-104560609D01*
X52935000Y-104702609D01*
X52935000Y-104847391D01*
X52963246Y-104989391D01*
X53018652Y-105123153D01*
X53099088Y-105243535D01*
X53201465Y-105345912D01*
X53321847Y-105426348D01*
X53455609Y-105481754D01*
X53597609Y-105510000D01*
X53742391Y-105510000D01*
X53884391Y-105481754D01*
X53896000Y-105476945D01*
X53896000Y-110213418D01*
X53893776Y-110236000D01*
X53896000Y-110258582D01*
X53896000Y-110258589D01*
X53902657Y-110326175D01*
X53928960Y-110412885D01*
X53971674Y-110492797D01*
X54029158Y-110562842D01*
X54046708Y-110577245D01*
X55405760Y-111936297D01*
X55392590Y-111935000D01*
X55392582Y-111935000D01*
X55370000Y-111932776D01*
X55347418Y-111935000D01*
X55186615Y-111935000D01*
X55180912Y-111926465D01*
X55078535Y-111824088D01*
X54958153Y-111743652D01*
X54824391Y-111688246D01*
X54682391Y-111660000D01*
X54537609Y-111660000D01*
X54395609Y-111688246D01*
X54261847Y-111743652D01*
X54141465Y-111824088D01*
X54039088Y-111926465D01*
X53958652Y-112046847D01*
X53903246Y-112180609D01*
X53875000Y-112322609D01*
X53875000Y-112467391D01*
X53903246Y-112609391D01*
X53958652Y-112743153D01*
X54039088Y-112863535D01*
X54141465Y-112965912D01*
X54261847Y-113046348D01*
X54395609Y-113101754D01*
X54537609Y-113130000D01*
X54682391Y-113130000D01*
X54824391Y-113101754D01*
X54958153Y-113046348D01*
X55078535Y-112965912D01*
X55180912Y-112863535D01*
X55183750Y-112859287D01*
X57064604Y-114740142D01*
X57030671Y-114729848D01*
X56965000Y-114723380D01*
X56065000Y-114723380D01*
X55999329Y-114729848D01*
X55936181Y-114749004D01*
X55880000Y-114779033D01*
X55823819Y-114749004D01*
X55760671Y-114729848D01*
X55695000Y-114723380D01*
X54795000Y-114723380D01*
X54729329Y-114729848D01*
X54666181Y-114749004D01*
X54610000Y-114779033D01*
X54553819Y-114749004D01*
X54490671Y-114729848D01*
X54435000Y-114724365D01*
X54435000Y-113687579D01*
X54437224Y-113664999D01*
X54435000Y-113642419D01*
X54435000Y-113642410D01*
X54428343Y-113574824D01*
X54402040Y-113488114D01*
X54359326Y-113408202D01*
X54336647Y-113380568D01*
X54316242Y-113355704D01*
X54316240Y-113355702D01*
X54301842Y-113338158D01*
X54284297Y-113323759D01*
X53437997Y-112477460D01*
X53440000Y-112467391D01*
X53440000Y-112322609D01*
X53411754Y-112180609D01*
X53356348Y-112046847D01*
X53275912Y-111926465D01*
X53173535Y-111824088D01*
X53053153Y-111743652D01*
X52919391Y-111688246D01*
X52777391Y-111660000D01*
X52632609Y-111660000D01*
X52490609Y-111688246D01*
X52356847Y-111743652D01*
X52236465Y-111824088D01*
X52134088Y-111926465D01*
X52053652Y-112046847D01*
X51998246Y-112180609D01*
X51970000Y-112322609D01*
X51970000Y-112467391D01*
X51998246Y-112609391D01*
X52053652Y-112743153D01*
X52134088Y-112863535D01*
X52236465Y-112965912D01*
X52356847Y-113046348D01*
X52490609Y-113101754D01*
X52632609Y-113130000D01*
X52777391Y-113130000D01*
X52787460Y-113127997D01*
X53515001Y-113855539D01*
X53515001Y-114724365D01*
X53459329Y-114729848D01*
X53396181Y-114749004D01*
X53340000Y-114779033D01*
X53283819Y-114749004D01*
X53220671Y-114729848D01*
X53155000Y-114723380D01*
X52255000Y-114723380D01*
X52189329Y-114729848D01*
X52126181Y-114749004D01*
X52070001Y-114779033D01*
X52013819Y-114749003D01*
X51950671Y-114729847D01*
X51885000Y-114723379D01*
X51645750Y-114725000D01*
X51562000Y-114808750D01*
X51562000Y-115933000D01*
X51582000Y-115933000D01*
X51582000Y-116187000D01*
X51562000Y-116187000D01*
X51562000Y-117311250D01*
X51645750Y-117395000D01*
X51885000Y-117396621D01*
X51950671Y-117390153D01*
X52013819Y-117370997D01*
X52070001Y-117340967D01*
X52126181Y-117370996D01*
X52189329Y-117390152D01*
X52255000Y-117396620D01*
X53155000Y-117396620D01*
X53220671Y-117390152D01*
X53283819Y-117370996D01*
X53340000Y-117340967D01*
X53396181Y-117370996D01*
X53459329Y-117390152D01*
X53525000Y-117396620D01*
X54425000Y-117396620D01*
X54490671Y-117390152D01*
X54553819Y-117370996D01*
X54610000Y-117340967D01*
X54666181Y-117370996D01*
X54729329Y-117390152D01*
X54795000Y-117396620D01*
X55695000Y-117396620D01*
X55760671Y-117390152D01*
X55823819Y-117370996D01*
X55880000Y-117340967D01*
X55936181Y-117370996D01*
X55999329Y-117390152D01*
X56065000Y-117396620D01*
X56965000Y-117396620D01*
X57030671Y-117390152D01*
X57093819Y-117370996D01*
X57150000Y-117340967D01*
X57206181Y-117370996D01*
X57269329Y-117390152D01*
X57335000Y-117396620D01*
X58235000Y-117396620D01*
X58300671Y-117390152D01*
X58363819Y-117370996D01*
X58420000Y-117340967D01*
X58476181Y-117370996D01*
X58539329Y-117390152D01*
X58605000Y-117396620D01*
X59505000Y-117396620D01*
X59570671Y-117390152D01*
X59633819Y-117370996D01*
X59690000Y-117340967D01*
X59746181Y-117370996D01*
X59809329Y-117390152D01*
X59875000Y-117396620D01*
X60775000Y-117396620D01*
X60840671Y-117390152D01*
X60903819Y-117370996D01*
X60960000Y-117340967D01*
X61016181Y-117370996D01*
X61079329Y-117390152D01*
X61145000Y-117396620D01*
X62045000Y-117396620D01*
X62110671Y-117390152D01*
X62173819Y-117370996D01*
X62230000Y-117340967D01*
X62286181Y-117370996D01*
X62349329Y-117390152D01*
X62415000Y-117396620D01*
X63315000Y-117396620D01*
X63380671Y-117390152D01*
X63443819Y-117370996D01*
X63500000Y-117340967D01*
X63556181Y-117370996D01*
X63619329Y-117390152D01*
X63685000Y-117396620D01*
X64585000Y-117396620D01*
X64650671Y-117390152D01*
X64713819Y-117370996D01*
X64770000Y-117340967D01*
X64826181Y-117370996D01*
X64889329Y-117390152D01*
X64955000Y-117396620D01*
X65855000Y-117396620D01*
X65920671Y-117390152D01*
X65983819Y-117370996D01*
X66040000Y-117340967D01*
X66096181Y-117370996D01*
X66159329Y-117390152D01*
X66225000Y-117396620D01*
X67125000Y-117396620D01*
X67190671Y-117390152D01*
X67253819Y-117370996D01*
X67310000Y-117340967D01*
X67366181Y-117370996D01*
X67429329Y-117390152D01*
X67495000Y-117396620D01*
X68395000Y-117396620D01*
X68460671Y-117390152D01*
X68523819Y-117370996D01*
X68582016Y-117339889D01*
X68633026Y-117298026D01*
X68674889Y-117247016D01*
X68705996Y-117188819D01*
X68712580Y-117167116D01*
X68740530Y-117234594D01*
X68820966Y-117354976D01*
X68923343Y-117457353D01*
X69043725Y-117537789D01*
X69177487Y-117593195D01*
X69319487Y-117621441D01*
X69464269Y-117621441D01*
X69606269Y-117593195D01*
X69740031Y-117537789D01*
X69860413Y-117457353D01*
X69962790Y-117354976D01*
X70043226Y-117234594D01*
X70098632Y-117100832D01*
X70126878Y-116958832D01*
X70126878Y-116814050D01*
X70098632Y-116672050D01*
X70043226Y-116538288D01*
X69964190Y-116420000D01*
X70949379Y-116420000D01*
X70955847Y-116485671D01*
X70975003Y-116548819D01*
X71006110Y-116607017D01*
X71047973Y-116658027D01*
X71098983Y-116699890D01*
X71157181Y-116730997D01*
X71220329Y-116750153D01*
X71286000Y-116756621D01*
X71925250Y-116755000D01*
X72009000Y-116671250D01*
X72009000Y-115697000D01*
X72263000Y-115697000D01*
X72263000Y-116671250D01*
X72346750Y-116755000D01*
X72986000Y-116756621D01*
X73051671Y-116750153D01*
X73114819Y-116730997D01*
X73173017Y-116699890D01*
X73224027Y-116658027D01*
X73265890Y-116607017D01*
X73296997Y-116548819D01*
X73316153Y-116485671D01*
X73322621Y-116420000D01*
X73321000Y-115780750D01*
X73237250Y-115697000D01*
X72263000Y-115697000D01*
X72009000Y-115697000D01*
X71034750Y-115697000D01*
X70951000Y-115780750D01*
X70949379Y-116420000D01*
X69964190Y-116420000D01*
X69962790Y-116417906D01*
X69860413Y-116315529D01*
X69851878Y-116309826D01*
X69851878Y-116007125D01*
X69889609Y-116022754D01*
X70031609Y-116051000D01*
X70176391Y-116051000D01*
X70318391Y-116022754D01*
X70452153Y-115967348D01*
X70572535Y-115886912D01*
X70674912Y-115784535D01*
X70755348Y-115664153D01*
X70810754Y-115530391D01*
X70839000Y-115388391D01*
X70839000Y-115243609D01*
X70810754Y-115101609D01*
X70755348Y-114967847D01*
X70674912Y-114847465D01*
X70572535Y-114745088D01*
X70534988Y-114720000D01*
X70949379Y-114720000D01*
X70951000Y-115359250D01*
X71034750Y-115443000D01*
X72009000Y-115443000D01*
X72009000Y-114468750D01*
X72263000Y-114468750D01*
X72263000Y-115443000D01*
X73237250Y-115443000D01*
X73321000Y-115359250D01*
X73322621Y-114720000D01*
X73316153Y-114654329D01*
X73296997Y-114591181D01*
X73265890Y-114532983D01*
X73224027Y-114481973D01*
X73173017Y-114440110D01*
X73114819Y-114409003D01*
X73051671Y-114389847D01*
X72986000Y-114383379D01*
X72346750Y-114385000D01*
X72263000Y-114468750D01*
X72009000Y-114468750D01*
X71925250Y-114385000D01*
X71286000Y-114383379D01*
X71220329Y-114389847D01*
X71157181Y-114409003D01*
X71098983Y-114440110D01*
X71047973Y-114481973D01*
X71006110Y-114532983D01*
X70975003Y-114591181D01*
X70955847Y-114654329D01*
X70949379Y-114720000D01*
X70534988Y-114720000D01*
X70452153Y-114664652D01*
X70318391Y-114609246D01*
X70176391Y-114581000D01*
X70031609Y-114581000D01*
X70021541Y-114583003D01*
X69515157Y-114076620D01*
X69945000Y-114076620D01*
X70010671Y-114070152D01*
X70073819Y-114050996D01*
X70132016Y-114019889D01*
X70183026Y-113978026D01*
X70224889Y-113927016D01*
X70255996Y-113868819D01*
X70275152Y-113805671D01*
X70281620Y-113740000D01*
X70281620Y-113030000D01*
X70945267Y-113030000D01*
X70968147Y-113262300D01*
X71035906Y-113485674D01*
X71145942Y-113691536D01*
X71294025Y-113871975D01*
X71474464Y-114020058D01*
X71680326Y-114130094D01*
X71903700Y-114197853D01*
X72077793Y-114215000D01*
X72194207Y-114215000D01*
X72368300Y-114197853D01*
X72591674Y-114130094D01*
X72797536Y-114020058D01*
X72977975Y-113871975D01*
X73126058Y-113691536D01*
X73236094Y-113485674D01*
X73303853Y-113262300D01*
X73326733Y-113030000D01*
X73303853Y-112797700D01*
X73236094Y-112574326D01*
X73208126Y-112522000D01*
X75009267Y-112522000D01*
X75032147Y-112754300D01*
X75099906Y-112977674D01*
X75209942Y-113183536D01*
X75358025Y-113363975D01*
X75538464Y-113512058D01*
X75744326Y-113622094D01*
X75967700Y-113689853D01*
X76141793Y-113707000D01*
X76258207Y-113707000D01*
X76432300Y-113689853D01*
X76655674Y-113622094D01*
X76861536Y-113512058D01*
X77041975Y-113363975D01*
X77190058Y-113183536D01*
X77300094Y-112977674D01*
X77367853Y-112754300D01*
X77390733Y-112522000D01*
X77367853Y-112289700D01*
X77300094Y-112066326D01*
X77190058Y-111860464D01*
X77041975Y-111680025D01*
X76861536Y-111531942D01*
X76655674Y-111421906D01*
X76432300Y-111354147D01*
X76258207Y-111337000D01*
X76141793Y-111337000D01*
X75967700Y-111354147D01*
X75744326Y-111421906D01*
X75538464Y-111531942D01*
X75358025Y-111680025D01*
X75209942Y-111860464D01*
X75099906Y-112066326D01*
X75032147Y-112289700D01*
X75009267Y-112522000D01*
X73208126Y-112522000D01*
X73126058Y-112368464D01*
X72977975Y-112188025D01*
X72797536Y-112039942D01*
X72725000Y-112001171D01*
X72725000Y-110291744D01*
X75056197Y-110291744D01*
X75076873Y-110359923D01*
X75172183Y-110571772D01*
X75306991Y-110760957D01*
X75476117Y-110920207D01*
X75673061Y-111043402D01*
X75890255Y-111125808D01*
X76073000Y-111076431D01*
X76073000Y-110109000D01*
X76327000Y-110109000D01*
X76327000Y-111076431D01*
X76509745Y-111125808D01*
X76726939Y-111043402D01*
X76923883Y-110920207D01*
X77093009Y-110760957D01*
X77227817Y-110571772D01*
X77323127Y-110359923D01*
X77343803Y-110291744D01*
X77293902Y-110109000D01*
X76327000Y-110109000D01*
X76073000Y-110109000D01*
X75106098Y-110109000D01*
X75056197Y-110291744D01*
X72725000Y-110291744D01*
X72725000Y-109672256D01*
X75056197Y-109672256D01*
X75106098Y-109855000D01*
X76073000Y-109855000D01*
X76073000Y-108887569D01*
X76327000Y-108887569D01*
X76327000Y-109855000D01*
X77293902Y-109855000D01*
X77343803Y-109672256D01*
X77323127Y-109604077D01*
X77227817Y-109392228D01*
X77093009Y-109203043D01*
X76923883Y-109043793D01*
X76726939Y-108920598D01*
X76509745Y-108838192D01*
X76327000Y-108887569D01*
X76073000Y-108887569D01*
X75890255Y-108838192D01*
X75673061Y-108920598D01*
X75476117Y-109043793D01*
X75306991Y-109203043D01*
X75172183Y-109392228D01*
X75076873Y-109604077D01*
X75056197Y-109672256D01*
X72725000Y-109672256D01*
X72725000Y-107442000D01*
X75009267Y-107442000D01*
X75032147Y-107674300D01*
X75099906Y-107897674D01*
X75209942Y-108103536D01*
X75358025Y-108283975D01*
X75538464Y-108432058D01*
X75744326Y-108542094D01*
X75967700Y-108609853D01*
X76141793Y-108627000D01*
X76258207Y-108627000D01*
X76432300Y-108609853D01*
X76655674Y-108542094D01*
X76861536Y-108432058D01*
X77041975Y-108283975D01*
X77190058Y-108103536D01*
X77300094Y-107897674D01*
X77367853Y-107674300D01*
X77390733Y-107442000D01*
X77367853Y-107209700D01*
X77300094Y-106986326D01*
X77190058Y-106780464D01*
X77041975Y-106600025D01*
X76861536Y-106451942D01*
X76655674Y-106341906D01*
X76432300Y-106274147D01*
X76258207Y-106257000D01*
X76141793Y-106257000D01*
X75967700Y-106274147D01*
X75744326Y-106341906D01*
X75538464Y-106451942D01*
X75358025Y-106600025D01*
X75209942Y-106780464D01*
X75099906Y-106986326D01*
X75032147Y-107209700D01*
X75009267Y-107442000D01*
X72725000Y-107442000D01*
X72725000Y-106105464D01*
X72787348Y-106012153D01*
X72842754Y-105878391D01*
X72871000Y-105736391D01*
X72871000Y-105591609D01*
X72842754Y-105449609D01*
X72787348Y-105315847D01*
X72706912Y-105195465D01*
X72604535Y-105093088D01*
X72484153Y-105012652D01*
X72350391Y-104957246D01*
X72208391Y-104929000D01*
X72063609Y-104929000D01*
X71921609Y-104957246D01*
X71787847Y-105012652D01*
X71667465Y-105093088D01*
X71565088Y-105195465D01*
X71484652Y-105315847D01*
X71429246Y-105449609D01*
X71401000Y-105591609D01*
X71401000Y-105736391D01*
X71429246Y-105878391D01*
X71484652Y-106012153D01*
X71547000Y-106105464D01*
X71547001Y-112001170D01*
X71474464Y-112039942D01*
X71294025Y-112188025D01*
X71145942Y-112368464D01*
X71035906Y-112574326D01*
X70968147Y-112797700D01*
X70945267Y-113030000D01*
X70281620Y-113030000D01*
X70281620Y-112840000D01*
X70275152Y-112774329D01*
X70255996Y-112711181D01*
X70225967Y-112655000D01*
X70255996Y-112598819D01*
X70275152Y-112535671D01*
X70281620Y-112470000D01*
X70281620Y-111570000D01*
X70275152Y-111504329D01*
X70255996Y-111441181D01*
X70225967Y-111385000D01*
X70255996Y-111328819D01*
X70275152Y-111265671D01*
X70281620Y-111200000D01*
X70281620Y-110300000D01*
X70275152Y-110234329D01*
X70255996Y-110171181D01*
X70225967Y-110115000D01*
X70255996Y-110058819D01*
X70275152Y-109995671D01*
X70281620Y-109930000D01*
X70281620Y-109030000D01*
X70275152Y-108964329D01*
X70255996Y-108901181D01*
X70225967Y-108845000D01*
X70255996Y-108788819D01*
X70275152Y-108725671D01*
X70281620Y-108660000D01*
X70281620Y-107760000D01*
X70275152Y-107694329D01*
X70255996Y-107631181D01*
X70225967Y-107575000D01*
X70255996Y-107518819D01*
X70275152Y-107455671D01*
X70281620Y-107390000D01*
X70281620Y-106490000D01*
X70275152Y-106424329D01*
X70255996Y-106361181D01*
X70225967Y-106305000D01*
X70255996Y-106248819D01*
X70275152Y-106185671D01*
X70281620Y-106120000D01*
X70281620Y-105220000D01*
X70275152Y-105154329D01*
X70255996Y-105091181D01*
X70225967Y-105035000D01*
X70255996Y-104978819D01*
X70275152Y-104915671D01*
X70276498Y-104902000D01*
X75009267Y-104902000D01*
X75032147Y-105134300D01*
X75099906Y-105357674D01*
X75209942Y-105563536D01*
X75358025Y-105743975D01*
X75538464Y-105892058D01*
X75744326Y-106002094D01*
X75967700Y-106069853D01*
X76141793Y-106087000D01*
X76258207Y-106087000D01*
X76432300Y-106069853D01*
X76655674Y-106002094D01*
X76861536Y-105892058D01*
X77041975Y-105743975D01*
X77190058Y-105563536D01*
X77300094Y-105357674D01*
X77367853Y-105134300D01*
X77390733Y-104902000D01*
X77367853Y-104669700D01*
X77300094Y-104446326D01*
X77190058Y-104240464D01*
X77041975Y-104060025D01*
X76861536Y-103911942D01*
X76655674Y-103801906D01*
X76432300Y-103734147D01*
X76258207Y-103717000D01*
X76141793Y-103717000D01*
X75967700Y-103734147D01*
X75744326Y-103801906D01*
X75538464Y-103911942D01*
X75358025Y-104060025D01*
X75209942Y-104240464D01*
X75099906Y-104446326D01*
X75032147Y-104669700D01*
X75009267Y-104902000D01*
X70276498Y-104902000D01*
X70281620Y-104850000D01*
X70281620Y-103950000D01*
X70275152Y-103884329D01*
X70255996Y-103821181D01*
X70225967Y-103765000D01*
X70255996Y-103708819D01*
X70275152Y-103645671D01*
X70281620Y-103580000D01*
X70281620Y-102680000D01*
X70275152Y-102614329D01*
X70255996Y-102551181D01*
X70225967Y-102495001D01*
X70255997Y-102438819D01*
X70275153Y-102375671D01*
X70276499Y-102362000D01*
X70945267Y-102362000D01*
X70968147Y-102594300D01*
X71035906Y-102817674D01*
X71145942Y-103023536D01*
X71294025Y-103203975D01*
X71474464Y-103352058D01*
X71680326Y-103462094D01*
X71903700Y-103529853D01*
X72077793Y-103547000D01*
X72194207Y-103547000D01*
X72368300Y-103529853D01*
X72591674Y-103462094D01*
X72797536Y-103352058D01*
X72977975Y-103203975D01*
X73126058Y-103023536D01*
X73236094Y-102817674D01*
X73303853Y-102594300D01*
X73326733Y-102362000D01*
X73303853Y-102129700D01*
X73236094Y-101906326D01*
X73126058Y-101700464D01*
X72977975Y-101520025D01*
X72797536Y-101371942D01*
X72591674Y-101261906D01*
X72368300Y-101194147D01*
X72194207Y-101177000D01*
X72077793Y-101177000D01*
X71903700Y-101194147D01*
X71680326Y-101261906D01*
X71474464Y-101371942D01*
X71294025Y-101520025D01*
X71145942Y-101700464D01*
X71035906Y-101906326D01*
X70968147Y-102129700D01*
X70945267Y-102362000D01*
X70276499Y-102362000D01*
X70281621Y-102310000D01*
X70280000Y-102070750D01*
X70196250Y-101987000D01*
X69072000Y-101987000D01*
X69072000Y-102007000D01*
X68818000Y-102007000D01*
X68818000Y-101987000D01*
X67693750Y-101987000D01*
X67610000Y-102070750D01*
X67608379Y-102310000D01*
X67614847Y-102375671D01*
X67634003Y-102438819D01*
X67664033Y-102495001D01*
X67634004Y-102551181D01*
X67614848Y-102614329D01*
X67608380Y-102680000D01*
X67608380Y-103580000D01*
X67614848Y-103645671D01*
X67634004Y-103708819D01*
X67664033Y-103765000D01*
X67634004Y-103821181D01*
X67614848Y-103884329D01*
X67608380Y-103950000D01*
X67608380Y-104662865D01*
X67505389Y-104620205D01*
X67363389Y-104591959D01*
X67218607Y-104591959D01*
X67076607Y-104620205D01*
X66971997Y-104663536D01*
X66971997Y-102448538D01*
X67690643Y-101729893D01*
X67693750Y-101733000D01*
X68818000Y-101733000D01*
X68818000Y-101713000D01*
X69072000Y-101713000D01*
X69072000Y-101733000D01*
X70196250Y-101733000D01*
X70280000Y-101649250D01*
X70281621Y-101410000D01*
X70275153Y-101344329D01*
X70255997Y-101281181D01*
X70224890Y-101222983D01*
X70183027Y-101171973D01*
X70132017Y-101130110D01*
X70073819Y-101099003D01*
X70010671Y-101079847D01*
X69945000Y-101073379D01*
X69247952Y-101074811D01*
X69650763Y-100672000D01*
X70949379Y-100672000D01*
X70955847Y-100737671D01*
X70975003Y-100800819D01*
X71006110Y-100859017D01*
X71047973Y-100910027D01*
X71098983Y-100951890D01*
X71157181Y-100982997D01*
X71220329Y-101002153D01*
X71286000Y-101008621D01*
X71925250Y-101007000D01*
X72009000Y-100923250D01*
X72009000Y-99949000D01*
X72263000Y-99949000D01*
X72263000Y-100923250D01*
X72346750Y-101007000D01*
X72986000Y-101008621D01*
X73051671Y-101002153D01*
X73114819Y-100982997D01*
X73173017Y-100951890D01*
X73224027Y-100910027D01*
X73265890Y-100859017D01*
X73296997Y-100800819D01*
X73316153Y-100737671D01*
X73322621Y-100672000D01*
X73321000Y-100032750D01*
X73237250Y-99949000D01*
X72263000Y-99949000D01*
X72009000Y-99949000D01*
X71034750Y-99949000D01*
X70951000Y-100032750D01*
X70949379Y-100672000D01*
X69650763Y-100672000D01*
X70950394Y-99372370D01*
X70951000Y-99611250D01*
X71034750Y-99695000D01*
X72009000Y-99695000D01*
X72009000Y-99675000D01*
X72263000Y-99675000D01*
X72263000Y-99695000D01*
X73237250Y-99695000D01*
X73321000Y-99611250D01*
X73322279Y-99106999D01*
X73727634Y-99106999D01*
X74753266Y-100132632D01*
X74767736Y-100150264D01*
X74838085Y-100207997D01*
X74918345Y-100250897D01*
X75005432Y-100277315D01*
X75013380Y-100278098D01*
X75013380Y-100672000D01*
X75019848Y-100737671D01*
X75039004Y-100800819D01*
X75070111Y-100859016D01*
X75111974Y-100910026D01*
X75162984Y-100951889D01*
X75221181Y-100982996D01*
X75284329Y-101002152D01*
X75350000Y-101008620D01*
X76900014Y-101008620D01*
X76739372Y-101169263D01*
X76739361Y-101169272D01*
X76648810Y-101259824D01*
X76432300Y-101194147D01*
X76258207Y-101177000D01*
X76141793Y-101177000D01*
X75967700Y-101194147D01*
X75744326Y-101261906D01*
X75538464Y-101371942D01*
X75358025Y-101520025D01*
X75209942Y-101700464D01*
X75099906Y-101906326D01*
X75032147Y-102129700D01*
X75009267Y-102362000D01*
X75032147Y-102594300D01*
X75099906Y-102817674D01*
X75209942Y-103023536D01*
X75358025Y-103203975D01*
X75538464Y-103352058D01*
X75744326Y-103462094D01*
X75967700Y-103529853D01*
X76141793Y-103547000D01*
X76258207Y-103547000D01*
X76432300Y-103529853D01*
X76655674Y-103462094D01*
X76861536Y-103352058D01*
X77041975Y-103203975D01*
X77190058Y-103023536D01*
X77300094Y-102817674D01*
X77367853Y-102594300D01*
X77390733Y-102362000D01*
X77367853Y-102129700D01*
X77302176Y-101913190D01*
X77392728Y-101822639D01*
X77392737Y-101822628D01*
X77618000Y-101597366D01*
X77618001Y-117750000D01*
X50927000Y-117750000D01*
X50927000Y-117390909D01*
X50985000Y-117396621D01*
X51224250Y-117395000D01*
X51308000Y-117311250D01*
X51308000Y-116187000D01*
X51288000Y-116187000D01*
X51288000Y-115933000D01*
X51308000Y-115933000D01*
X51308000Y-114808750D01*
X51224250Y-114725000D01*
X50985000Y-114723379D01*
X50927000Y-114729091D01*
X50927000Y-100390909D01*
X50985000Y-100396621D01*
X51224250Y-100395000D01*
X51308000Y-100311250D01*
X51308000Y-99187000D01*
X51288000Y-99187000D01*
X51288000Y-98933000D01*
X51308000Y-98933000D01*
X51308000Y-98913000D01*
X51562000Y-98913000D01*
X51562000Y-98933000D01*
G36*
X63556181Y-100370996D02*
G01*
X63619329Y-100390152D01*
X63685000Y-100396620D01*
X63766150Y-100396620D01*
X63659847Y-100440652D01*
X63539465Y-100521088D01*
X63437088Y-100623465D01*
X63431385Y-100632000D01*
X62506582Y-100632000D01*
X62484000Y-100629776D01*
X62461418Y-100632000D01*
X62461410Y-100632000D01*
X62393824Y-100638657D01*
X62307114Y-100664960D01*
X62227202Y-100707674D01*
X62157158Y-100765158D01*
X62142759Y-100782703D01*
X61550460Y-101375003D01*
X61540391Y-101373000D01*
X61395609Y-101373000D01*
X61253609Y-101401246D01*
X61119847Y-101456652D01*
X60999465Y-101537088D01*
X60897088Y-101639465D01*
X60816652Y-101759847D01*
X60761246Y-101893609D01*
X60733000Y-102035609D01*
X60733000Y-102180391D01*
X60761246Y-102322391D01*
X60816652Y-102456153D01*
X60897088Y-102576535D01*
X60999465Y-102678912D01*
X61119847Y-102759348D01*
X61253609Y-102814754D01*
X61395609Y-102843000D01*
X61540391Y-102843000D01*
X61682391Y-102814754D01*
X61816153Y-102759348D01*
X61936535Y-102678912D01*
X62038912Y-102576535D01*
X62119348Y-102456153D01*
X62174754Y-102322391D01*
X62203000Y-102180391D01*
X62203000Y-102035609D01*
X62200997Y-102025540D01*
X62674538Y-101552000D01*
X63431385Y-101552000D01*
X63437088Y-101560535D01*
X63539465Y-101662912D01*
X63659847Y-101743348D01*
X63793609Y-101798754D01*
X63935609Y-101827000D01*
X64080391Y-101827000D01*
X64222391Y-101798754D01*
X64356153Y-101743348D01*
X64476535Y-101662912D01*
X64578912Y-101560535D01*
X64584615Y-101552000D01*
X64667463Y-101552000D01*
X64976987Y-101861525D01*
X64976988Y-103778397D01*
X64976987Y-106865385D01*
X64968452Y-106871088D01*
X64866075Y-106973465D01*
X64785639Y-107093847D01*
X64730233Y-107227609D01*
X64701987Y-107369609D01*
X64701987Y-107514391D01*
X64730233Y-107656391D01*
X64785639Y-107790153D01*
X64866075Y-107910535D01*
X64968452Y-108012912D01*
X65088834Y-108093348D01*
X65222596Y-108148754D01*
X65364596Y-108177000D01*
X65509378Y-108177000D01*
X65601987Y-108158579D01*
X65601987Y-108249421D01*
X65509378Y-108231000D01*
X65364596Y-108231000D01*
X65222596Y-108259246D01*
X65088834Y-108314652D01*
X64968452Y-108395088D01*
X64866075Y-108497465D01*
X64785639Y-108617847D01*
X64730233Y-108751609D01*
X64701987Y-108893609D01*
X64701987Y-109038391D01*
X64730233Y-109180391D01*
X64785639Y-109314153D01*
X64866075Y-109434535D01*
X64968452Y-109536912D01*
X65072001Y-109606101D01*
X65072000Y-112652462D01*
X63001083Y-114723380D01*
X62415000Y-114723380D01*
X62349329Y-114729848D01*
X62286181Y-114749004D01*
X62230000Y-114779033D01*
X62173819Y-114749004D01*
X62110671Y-114729848D01*
X62045000Y-114723380D01*
X61145000Y-114723380D01*
X61079329Y-114729848D01*
X61016181Y-114749004D01*
X60960000Y-114779033D01*
X60903819Y-114749004D01*
X60840671Y-114729848D01*
X60775000Y-114723380D01*
X59875000Y-114723380D01*
X59809329Y-114729848D01*
X59746181Y-114749004D01*
X59690000Y-114779033D01*
X59633819Y-114749004D01*
X59570671Y-114729848D01*
X59505000Y-114723380D01*
X59021083Y-114723380D01*
X59071348Y-114648153D01*
X59126754Y-114514391D01*
X59155000Y-114372391D01*
X59155000Y-114227609D01*
X59126754Y-114085609D01*
X59071348Y-113951847D01*
X58990912Y-113831465D01*
X58888535Y-113729088D01*
X58768153Y-113648652D01*
X58634391Y-113593246D01*
X58492391Y-113565000D01*
X58347609Y-113565000D01*
X58339899Y-113566534D01*
X57248466Y-112475101D01*
X57250000Y-112467391D01*
X57250000Y-112322609D01*
X57221754Y-112180609D01*
X57166348Y-112046847D01*
X57085912Y-111926465D01*
X56983535Y-111824088D01*
X56863153Y-111743652D01*
X56729391Y-111688246D01*
X56587391Y-111660000D01*
X56584238Y-111660000D01*
X56624192Y-111633304D01*
X56726569Y-111530927D01*
X56807005Y-111410545D01*
X56862411Y-111276783D01*
X56890657Y-111134783D01*
X56890657Y-110990001D01*
X56862411Y-110848001D01*
X56807005Y-110714239D01*
X56726569Y-110593857D01*
X56624192Y-110491480D01*
X56503810Y-110411044D01*
X56370048Y-110355638D01*
X56228048Y-110327392D01*
X56110876Y-110327392D01*
X56096900Y-110310362D01*
X56096898Y-110310360D01*
X56082500Y-110292816D01*
X56064955Y-110278417D01*
X55451000Y-109664463D01*
X55451000Y-101155537D01*
X55816538Y-100790000D01*
X57077420Y-100790000D01*
X57100002Y-100792224D01*
X57122584Y-100790000D01*
X57122592Y-100790000D01*
X57190178Y-100783343D01*
X57276888Y-100757040D01*
X57356800Y-100714326D01*
X57426844Y-100656842D01*
X57441247Y-100639292D01*
X57683919Y-100396620D01*
X58235000Y-100396620D01*
X58300671Y-100390152D01*
X58363819Y-100370996D01*
X58420000Y-100340967D01*
X58476181Y-100370996D01*
X58539329Y-100390152D01*
X58605000Y-100396620D01*
X59180873Y-100396620D01*
X59158000Y-100511609D01*
X59158000Y-100656391D01*
X59186246Y-100798391D01*
X59241652Y-100932153D01*
X59322088Y-101052535D01*
X59424465Y-101154912D01*
X59544847Y-101235348D01*
X59678609Y-101290754D01*
X59820609Y-101319000D01*
X59965391Y-101319000D01*
X60107391Y-101290754D01*
X60241153Y-101235348D01*
X60361535Y-101154912D01*
X60463912Y-101052535D01*
X60544348Y-100932153D01*
X60599754Y-100798391D01*
X60628000Y-100656391D01*
X60628000Y-100511609D01*
X60625997Y-100501541D01*
X60634297Y-100493241D01*
X60651842Y-100478842D01*
X60709326Y-100408798D01*
X60715835Y-100396620D01*
X60775000Y-100396620D01*
X60840671Y-100390152D01*
X60903819Y-100370996D01*
X60960000Y-100340967D01*
X61016181Y-100370996D01*
X61079329Y-100390152D01*
X61145000Y-100396620D01*
X62045000Y-100396620D01*
X62110671Y-100390152D01*
X62173819Y-100370996D01*
X62230000Y-100340967D01*
X62286181Y-100370996D01*
X62349329Y-100390152D01*
X62415000Y-100396620D01*
X63315000Y-100396620D01*
X63380671Y-100390152D01*
X63443819Y-100370996D01*
X63500000Y-100340967D01*
X63556181Y-100370996D01*
X63556181Y-100370996D01*
G37*
X63556181Y-100370996D02*
X63619329Y-100390152D01*
X63685000Y-100396620D01*
X63766150Y-100396620D01*
X63659847Y-100440652D01*
X63539465Y-100521088D01*
X63437088Y-100623465D01*
X63431385Y-100632000D01*
X62506582Y-100632000D01*
X62484000Y-100629776D01*
X62461418Y-100632000D01*
X62461410Y-100632000D01*
X62393824Y-100638657D01*
X62307114Y-100664960D01*
X62227202Y-100707674D01*
X62157158Y-100765158D01*
X62142759Y-100782703D01*
X61550460Y-101375003D01*
X61540391Y-101373000D01*
X61395609Y-101373000D01*
X61253609Y-101401246D01*
X61119847Y-101456652D01*
X60999465Y-101537088D01*
X60897088Y-101639465D01*
X60816652Y-101759847D01*
X60761246Y-101893609D01*
X60733000Y-102035609D01*
X60733000Y-102180391D01*
X60761246Y-102322391D01*
X60816652Y-102456153D01*
X60897088Y-102576535D01*
X60999465Y-102678912D01*
X61119847Y-102759348D01*
X61253609Y-102814754D01*
X61395609Y-102843000D01*
X61540391Y-102843000D01*
X61682391Y-102814754D01*
X61816153Y-102759348D01*
X61936535Y-102678912D01*
X62038912Y-102576535D01*
X62119348Y-102456153D01*
X62174754Y-102322391D01*
X62203000Y-102180391D01*
X62203000Y-102035609D01*
X62200997Y-102025540D01*
X62674538Y-101552000D01*
X63431385Y-101552000D01*
X63437088Y-101560535D01*
X63539465Y-101662912D01*
X63659847Y-101743348D01*
X63793609Y-101798754D01*
X63935609Y-101827000D01*
X64080391Y-101827000D01*
X64222391Y-101798754D01*
X64356153Y-101743348D01*
X64476535Y-101662912D01*
X64578912Y-101560535D01*
X64584615Y-101552000D01*
X64667463Y-101552000D01*
X64976987Y-101861525D01*
X64976988Y-103778397D01*
X64976987Y-106865385D01*
X64968452Y-106871088D01*
X64866075Y-106973465D01*
X64785639Y-107093847D01*
X64730233Y-107227609D01*
X64701987Y-107369609D01*
X64701987Y-107514391D01*
X64730233Y-107656391D01*
X64785639Y-107790153D01*
X64866075Y-107910535D01*
X64968452Y-108012912D01*
X65088834Y-108093348D01*
X65222596Y-108148754D01*
X65364596Y-108177000D01*
X65509378Y-108177000D01*
X65601987Y-108158579D01*
X65601987Y-108249421D01*
X65509378Y-108231000D01*
X65364596Y-108231000D01*
X65222596Y-108259246D01*
X65088834Y-108314652D01*
X64968452Y-108395088D01*
X64866075Y-108497465D01*
X64785639Y-108617847D01*
X64730233Y-108751609D01*
X64701987Y-108893609D01*
X64701987Y-109038391D01*
X64730233Y-109180391D01*
X64785639Y-109314153D01*
X64866075Y-109434535D01*
X64968452Y-109536912D01*
X65072001Y-109606101D01*
X65072000Y-112652462D01*
X63001083Y-114723380D01*
X62415000Y-114723380D01*
X62349329Y-114729848D01*
X62286181Y-114749004D01*
X62230000Y-114779033D01*
X62173819Y-114749004D01*
X62110671Y-114729848D01*
X62045000Y-114723380D01*
X61145000Y-114723380D01*
X61079329Y-114729848D01*
X61016181Y-114749004D01*
X60960000Y-114779033D01*
X60903819Y-114749004D01*
X60840671Y-114729848D01*
X60775000Y-114723380D01*
X59875000Y-114723380D01*
X59809329Y-114729848D01*
X59746181Y-114749004D01*
X59690000Y-114779033D01*
X59633819Y-114749004D01*
X59570671Y-114729848D01*
X59505000Y-114723380D01*
X59021083Y-114723380D01*
X59071348Y-114648153D01*
X59126754Y-114514391D01*
X59155000Y-114372391D01*
X59155000Y-114227609D01*
X59126754Y-114085609D01*
X59071348Y-113951847D01*
X58990912Y-113831465D01*
X58888535Y-113729088D01*
X58768153Y-113648652D01*
X58634391Y-113593246D01*
X58492391Y-113565000D01*
X58347609Y-113565000D01*
X58339899Y-113566534D01*
X57248466Y-112475101D01*
X57250000Y-112467391D01*
X57250000Y-112322609D01*
X57221754Y-112180609D01*
X57166348Y-112046847D01*
X57085912Y-111926465D01*
X56983535Y-111824088D01*
X56863153Y-111743652D01*
X56729391Y-111688246D01*
X56587391Y-111660000D01*
X56584238Y-111660000D01*
X56624192Y-111633304D01*
X56726569Y-111530927D01*
X56807005Y-111410545D01*
X56862411Y-111276783D01*
X56890657Y-111134783D01*
X56890657Y-110990001D01*
X56862411Y-110848001D01*
X56807005Y-110714239D01*
X56726569Y-110593857D01*
X56624192Y-110491480D01*
X56503810Y-110411044D01*
X56370048Y-110355638D01*
X56228048Y-110327392D01*
X56110876Y-110327392D01*
X56096900Y-110310362D01*
X56096898Y-110310360D01*
X56082500Y-110292816D01*
X56064955Y-110278417D01*
X55451000Y-109664463D01*
X55451000Y-101155537D01*
X55816538Y-100790000D01*
X57077420Y-100790000D01*
X57100002Y-100792224D01*
X57122584Y-100790000D01*
X57122592Y-100790000D01*
X57190178Y-100783343D01*
X57276888Y-100757040D01*
X57356800Y-100714326D01*
X57426844Y-100656842D01*
X57441247Y-100639292D01*
X57683919Y-100396620D01*
X58235000Y-100396620D01*
X58300671Y-100390152D01*
X58363819Y-100370996D01*
X58420000Y-100340967D01*
X58476181Y-100370996D01*
X58539329Y-100390152D01*
X58605000Y-100396620D01*
X59180873Y-100396620D01*
X59158000Y-100511609D01*
X59158000Y-100656391D01*
X59186246Y-100798391D01*
X59241652Y-100932153D01*
X59322088Y-101052535D01*
X59424465Y-101154912D01*
X59544847Y-101235348D01*
X59678609Y-101290754D01*
X59820609Y-101319000D01*
X59965391Y-101319000D01*
X60107391Y-101290754D01*
X60241153Y-101235348D01*
X60361535Y-101154912D01*
X60463912Y-101052535D01*
X60544348Y-100932153D01*
X60599754Y-100798391D01*
X60628000Y-100656391D01*
X60628000Y-100511609D01*
X60625997Y-100501541D01*
X60634297Y-100493241D01*
X60651842Y-100478842D01*
X60709326Y-100408798D01*
X60715835Y-100396620D01*
X60775000Y-100396620D01*
X60840671Y-100390152D01*
X60903819Y-100370996D01*
X60960000Y-100340967D01*
X61016181Y-100370996D01*
X61079329Y-100390152D01*
X61145000Y-100396620D01*
X62045000Y-100396620D01*
X62110671Y-100390152D01*
X62173819Y-100370996D01*
X62230000Y-100340967D01*
X62286181Y-100370996D01*
X62349329Y-100390152D01*
X62415000Y-100396620D01*
X63315000Y-100396620D01*
X63380671Y-100390152D01*
X63443819Y-100370996D01*
X63500000Y-100340967D01*
X63556181Y-100370996D01*
G36*
X67076607Y-109164754D02*
G01*
X67218607Y-109193000D01*
X67363389Y-109193000D01*
X67505389Y-109164754D01*
X67608380Y-109122094D01*
X67608380Y-109930000D01*
X67614848Y-109995671D01*
X67634004Y-110058819D01*
X67664033Y-110115000D01*
X67634004Y-110171181D01*
X67614848Y-110234329D01*
X67608380Y-110300000D01*
X67608380Y-111200000D01*
X67614848Y-111265671D01*
X67634004Y-111328819D01*
X67664033Y-111385000D01*
X67634004Y-111441181D01*
X67614848Y-111504329D01*
X67608380Y-111570000D01*
X67608380Y-112470000D01*
X67614848Y-112535671D01*
X67634004Y-112598819D01*
X67664033Y-112655000D01*
X67634004Y-112711181D01*
X67614848Y-112774329D01*
X67608380Y-112840000D01*
X67608380Y-113740000D01*
X67614848Y-113805671D01*
X67634004Y-113868819D01*
X67665111Y-113927016D01*
X67706974Y-113978026D01*
X67757984Y-114019889D01*
X67816181Y-114050996D01*
X67879329Y-114070152D01*
X67945000Y-114076620D01*
X68485000Y-114076620D01*
X68485000Y-114134418D01*
X68482776Y-114157000D01*
X68485000Y-114179582D01*
X68485000Y-114179589D01*
X68491657Y-114247175D01*
X68500097Y-114274999D01*
X66811299Y-114274999D01*
X66748000Y-114268764D01*
X66657434Y-114277685D01*
X66570347Y-114304102D01*
X66551203Y-114314334D01*
X66821296Y-114044242D01*
X66838839Y-114029845D01*
X66896323Y-113959801D01*
X66939037Y-113879889D01*
X66965340Y-113793179D01*
X66971997Y-113725593D01*
X66971997Y-113725586D01*
X66974221Y-113703004D01*
X66971997Y-113680422D01*
X66971997Y-109121423D01*
X67076607Y-109164754D01*
X67076607Y-109164754D01*
G37*
X67076607Y-109164754D02*
X67218607Y-109193000D01*
X67363389Y-109193000D01*
X67505389Y-109164754D01*
X67608380Y-109122094D01*
X67608380Y-109930000D01*
X67614848Y-109995671D01*
X67634004Y-110058819D01*
X67664033Y-110115000D01*
X67634004Y-110171181D01*
X67614848Y-110234329D01*
X67608380Y-110300000D01*
X67608380Y-111200000D01*
X67614848Y-111265671D01*
X67634004Y-111328819D01*
X67664033Y-111385000D01*
X67634004Y-111441181D01*
X67614848Y-111504329D01*
X67608380Y-111570000D01*
X67608380Y-112470000D01*
X67614848Y-112535671D01*
X67634004Y-112598819D01*
X67664033Y-112655000D01*
X67634004Y-112711181D01*
X67614848Y-112774329D01*
X67608380Y-112840000D01*
X67608380Y-113740000D01*
X67614848Y-113805671D01*
X67634004Y-113868819D01*
X67665111Y-113927016D01*
X67706974Y-113978026D01*
X67757984Y-114019889D01*
X67816181Y-114050996D01*
X67879329Y-114070152D01*
X67945000Y-114076620D01*
X68485000Y-114076620D01*
X68485000Y-114134418D01*
X68482776Y-114157000D01*
X68485000Y-114179582D01*
X68485000Y-114179589D01*
X68491657Y-114247175D01*
X68500097Y-114274999D01*
X66811299Y-114274999D01*
X66748000Y-114268764D01*
X66657434Y-114277685D01*
X66570347Y-114304102D01*
X66551203Y-114314334D01*
X66821296Y-114044242D01*
X66838839Y-114029845D01*
X66896323Y-113959801D01*
X66939037Y-113879889D01*
X66965340Y-113793179D01*
X66971997Y-113725593D01*
X66971997Y-113725586D01*
X66974221Y-113703004D01*
X66971997Y-113680422D01*
X66971997Y-109121423D01*
X67076607Y-109164754D01*
M02*
